M48
; DRILL file {KiCad 9.0.0} date 2025-05-16T16:34:21-0300
; FORMAT={-:-/ absolute / metric / decimal}
; #@! TF.CreationDate,2025-05-16T16:34:21-03:00
; #@! TF.GenerationSoftware,Kicad,Pcbnew,9.0.0
; #@! TF.FileFunction,Plated,1,2,PTH
FMAT,2
METRIC
; #@! TA.AperFunction,Plated,PTH,ViaDrill
T1C0.300
; #@! TA.AperFunction,Plated,PTH,ViaDrill
T2C0.400
; #@! TA.AperFunction,Plated,PTH,ComponentDrill
T3C1.000
%
G90
G05
T1
X143.307Y-104.47
X143.307Y-105.359
X143.307Y-106.248
X143.307Y-107.137
X144.196Y-100.914
X144.196Y-101.676
X144.196Y-102.438
X144.196Y-103.2
X144.577Y-99.67
X147.93Y-82.093
X149.2Y-98.247
X149.2Y-98.948
X149.2Y-99.649
X149.2Y-101.803
X149.301Y-105.816
X150.47Y-83.668
X150.47Y-84.43
X150.52Y-82.042
X150.673Y-99.517
X150.673Y-100.406
X150.673Y-101.295
X150.673Y-102.184
X159.182Y-103.581
X159.182Y-104.343
X159.309Y-106.375
X159.309Y-107.137
X159.944Y-103.581
X159.944Y-104.343
X160.071Y-106.375
X160.071Y-107.137
X160.198Y-98.374
X160.198Y-99.263
X161.087Y-98.374
X161.087Y-99.263
X164.795Y-100.838
X164.795Y-101.397
X164.795Y-102.006
X164.795Y-102.006
T2
X141.275Y-95.25
X142.24Y-79.375
X145.085Y-96.291
X145.186Y-88.773
X146.456Y-117.246
X146.456Y-118.237
X146.456Y-119.431
X149.047Y-103.48
X149.047Y-104.445
X149.911Y-103.48
X149.962Y-104.445
X152.044Y-98.298
X152.095Y-96.139
X152.095Y-99.72
X152.654Y-110.007
X152.654Y-112.598
X152.756Y-98.958
X153.06Y-82.194
X154.229Y-104.445
X154.381Y-112.598
X154.584Y-96.139
X155.651Y-81.585
X156.108Y-102.972
X157.226Y-96.088
X158.14Y-81.534
X158.394Y-111.582
X158.699Y-102.057
X158.75Y-100.101
X160.579Y-95.123
X160.833Y-116.002
X164.643Y-88.976
X165.71Y-119.456
X167.292Y-119.438
X168.453Y-105.131
X168.834Y-83.743
X168.834Y-85.011
X168.834Y-86.28
T3
X146.776Y-87.351
X146.776Y-89.891
X149.149Y-118.847
X149.316Y-87.351
X149.316Y-89.891
X151.689Y-118.847
X151.856Y-87.351
X151.856Y-89.891
X154.229Y-118.847
X154.396Y-87.351
X154.396Y-89.891
X156.769Y-118.847
X156.936Y-87.351
X156.936Y-89.891
X159.309Y-118.847
X159.476Y-87.351
X159.476Y-89.891
X161.849Y-118.847
X162.016Y-87.351
X162.016Y-89.891
M30
