%TF.GenerationSoftware,KiCad,Pcbnew,9.0.0*%
%TF.CreationDate,2025-05-16T16:34:18-03:00*%
%TF.ProjectId,V1A,5631412e-6b69-4636-9164-5f7063625858,rev?*%
%TF.SameCoordinates,Original*%
%TF.FileFunction,Copper,L2,Bot*%
%TF.FilePolarity,Positive*%
%FSLAX46Y46*%
G04 Gerber Fmt 4.6, Leading zero omitted, Abs format (unit mm)*
G04 Created by KiCad (PCBNEW 9.0.0) date 2025-05-16 16:34:18*
%MOMM*%
%LPD*%
G01*
G04 APERTURE LIST*
G04 Aperture macros list*
%AMRoundRect*
0 Rectangle with rounded corners*
0 $1 Rounding radius*
0 $2 $3 $4 $5 $6 $7 $8 $9 X,Y pos of 4 corners*
0 Add a 4 corners polygon primitive as box body*
4,1,4,$2,$3,$4,$5,$6,$7,$8,$9,$2,$3,0*
0 Add four circle primitives for the rounded corners*
1,1,$1+$1,$2,$3*
1,1,$1+$1,$4,$5*
1,1,$1+$1,$6,$7*
1,1,$1+$1,$8,$9*
0 Add four rect primitives between the rounded corners*
20,1,$1+$1,$2,$3,$4,$5,0*
20,1,$1+$1,$4,$5,$6,$7,0*
20,1,$1+$1,$6,$7,$8,$9,0*
20,1,$1+$1,$8,$9,$2,$3,0*%
G04 Aperture macros list end*
%TA.AperFunction,ComponentPad*%
%ADD10R,1.700000X1.700000*%
%TD*%
%TA.AperFunction,ComponentPad*%
%ADD11C,1.700000*%
%TD*%
%TA.AperFunction,ComponentPad*%
%ADD12O,1.700000X1.700000*%
%TD*%
%TA.AperFunction,SMDPad,CuDef*%
%ADD13RoundRect,0.255000X-0.255000X2.245000X-0.255000X-2.245000X0.255000X-2.245000X0.255000X2.245000X0*%
%TD*%
%TA.AperFunction,SMDPad,CuDef*%
%ADD14RoundRect,0.500000X1.000000X0.500000X-1.000000X0.500000X-1.000000X-0.500000X1.000000X-0.500000X0*%
%TD*%
%TA.AperFunction,HeatsinkPad*%
%ADD15RoundRect,0.250000X1.500000X1.500000X-1.500000X1.500000X-1.500000X-1.500000X1.500000X-1.500000X0*%
%TD*%
%TA.AperFunction,ViaPad*%
%ADD16C,0.800000*%
%TD*%
%TA.AperFunction,ViaPad*%
%ADD17C,0.600000*%
%TD*%
%TA.AperFunction,Conductor*%
%ADD18C,0.600000*%
%TD*%
%TA.AperFunction,Conductor*%
%ADD19C,0.500000*%
%TD*%
%TA.AperFunction,Conductor*%
%ADD20C,0.200000*%
%TD*%
%TA.AperFunction,Conductor*%
%ADD21C,1.500000*%
%TD*%
%TA.AperFunction,Conductor*%
%ADD22C,1.000000*%
%TD*%
%TA.AperFunction,Conductor*%
%ADD23C,0.400000*%
%TD*%
%TA.AperFunction,Conductor*%
%ADD24C,0.250000*%
%TD*%
%TA.AperFunction,Conductor*%
%ADD25C,2.000000*%
%TD*%
G04 APERTURE END LIST*
D10*
%TO.P,IDC14,1*%
%TO.N,GND*%
X146775859Y-87351463D03*
D11*
%TO.P,IDC14,2*%
%TO.N,5V*%
X146775859Y-89891463D03*
%TO.P,IDC14,3*%
%TO.N,3V3*%
X149315859Y-87351463D03*
%TO.P,IDC14,4*%
%TO.N,MISO*%
X149315859Y-89891463D03*
%TO.P,IDC14,5*%
%TO.N,Ana1*%
X151855859Y-87351463D03*
%TO.P,IDC14,7*%
%TO.N,MOSI*%
X154395859Y-87351463D03*
%TO.P,IDC14,8*%
%TO.N,CS_RP*%
X154395859Y-89891463D03*
%TO.P,IDC14,9*%
%TO.N,TX_RX*%
X156935859Y-87351463D03*
%TO.P,IDC14,10*%
%TO.N,D0*%
X156935859Y-89891463D03*
%TO.P,IDC14,11*%
%TO.N,RX_TX*%
X159475859Y-87351463D03*
%TO.P,IDC14,12*%
%TO.N,SCL*%
X159475859Y-89891463D03*
%TO.P,IDC14,13*%
%TO.N,SCK*%
X162015859Y-87351463D03*
%TO.P,IDC14,14*%
%TO.N,SDA*%
X162015859Y-89891463D03*
%TO.P,IDC14,not connected*%
%TO.N,notconnected*%
X151855859Y-89891463D03*
%TD*%
%TO.P,J2,1*%
%TO.N,N/C*%
X161848800Y-118846600D03*
D12*
%TO.P,J2,2*%
%TO.N,RX_TX*%
X159308800Y-118846600D03*
%TO.P,J2,3*%
%TO.N,TX_RX*%
X156768800Y-118846600D03*
D10*
%TO.P,J2,4*%
%TO.N,GND*%
X154228800Y-118846600D03*
D12*
%TO.P,J2,5*%
%TO.N,5V*%
X151688800Y-118846600D03*
%TO.P,J2,6*%
%TO.N,N/C*%
X149148800Y-118846600D03*
%TD*%
D13*
%TO.P,IDC 14,14*%
%TO.N,5V*%
X146735859Y-92391463D03*
%TD*%
D14*
%TO.P,ESP32 C3 Seed,1*%
%TO.N,D0_ESP32*%
X163685800Y-98790200D03*
%TO.P,ESP32 C3 Seed,2*%
%TO.N,D1_ESP32*%
X163685800Y-101330200D03*
%TO.P,ESP32 C3 Seed,3*%
%TO.N,CS_LORA*%
X163685800Y-103870200D03*
%TO.P,ESP32 C3 Seed,4*%
%TO.N,CS_RP*%
X163685800Y-106410200D03*
%TO.P,ESP32 C3 Seed,5*%
%TO.N,SDA*%
X163685800Y-108950200D03*
%TO.P,ESP32 C3 Seed,6*%
%TO.N,SCL*%
X163685800Y-111490200D03*
%TO.P,ESP32 C3 Seed,7*%
%TO.N,TX_RX*%
X163685800Y-114030200D03*
%TO.P,ESP32 C3 Seed,8*%
%TO.N,RX_TX*%
X146685800Y-114030200D03*
%TO.P,ESP32 C3 Seed,9*%
%TO.N,SCK*%
X146685800Y-111490200D03*
%TO.P,ESP32 C3 Seed,10*%
%TO.N,MISO*%
X146685800Y-108950200D03*
%TO.P,ESP32 C3 Seed,11*%
%TO.N,MOSI*%
X146685800Y-106410200D03*
%TO.P,ESP32 C3 Seed,12*%
%TO.N,3V3*%
X146685800Y-103870200D03*
%TO.P,ESP32 C3 Seed,13*%
%TO.N,GND*%
X146685800Y-101330200D03*
%TO.P,ESP32 C3 Seed,14*%
%TO.N,5V*%
X146685800Y-98790200D03*
D15*
%TO.P,ESP32 C3 Seed,15*%
%TO.N,N/C*%
X153085800Y-107010200D03*
%TD*%
D16*
%TO.N,GND*%
X154228800Y-104444800D03*
D17*
X147929600Y-82092800D03*
D16*
X152755600Y-98958400D03*
D17*
X149301200Y-105816400D03*
D16*
X158394400Y-111582200D03*
X152095200Y-96139000D03*
X156108400Y-102971600D03*
D17*
X149199600Y-99649280D03*
D16*
X141274800Y-95250000D03*
X168833800Y-85011469D03*
D17*
X144576800Y-99669600D03*
D16*
X152654000Y-112598200D03*
X158140400Y-81534000D03*
X160578800Y-95123000D03*
X152095200Y-99720400D03*
D17*
X149199600Y-98948240D03*
D16*
X145084800Y-96291400D03*
X152044400Y-98298000D03*
X155651200Y-81584800D03*
X158699200Y-102057200D03*
X154381200Y-112598200D03*
D17*
X149199600Y-101803200D03*
X149199600Y-98247200D03*
D16*
X160832800Y-116001800D03*
X168452800Y-105130600D03*
X168833800Y-83742742D03*
X153060400Y-82194400D03*
X145186400Y-88773000D03*
X167291700Y-119438100D03*
X152654000Y-110007400D03*
D17*
X150469600Y-84429600D03*
D16*
X165709600Y-119456200D03*
X164642800Y-88976200D03*
X142240000Y-79375000D03*
X158750000Y-100101400D03*
D17*
X150469600Y-83667600D03*
D16*
X157226000Y-96088200D03*
X146456400Y-119430800D03*
X146456400Y-117246400D03*
X154584400Y-96139000D03*
D17*
X150520400Y-82042000D03*
D16*
X146456400Y-118237000D03*
X168833800Y-86280196D03*
D17*
%TO.N,MISO*%
X150672800Y-100406200D03*
X150672800Y-102184200D03*
X150672800Y-101295200D03*
X150672800Y-99517200D03*
%TO.N,SCK*%
X143306800Y-106248200D03*
X143306800Y-105359200D03*
X143306800Y-107137200D03*
X143306800Y-104470200D03*
%TO.N,MOSI*%
X144195800Y-100914200D03*
X144195800Y-101676200D03*
X144195800Y-102438200D03*
X144195800Y-103200200D03*
D16*
%TO.N,3V3*%
X149910800Y-103479600D03*
X149047200Y-103479600D03*
X149961600Y-104444800D03*
X149047200Y-104444800D03*
D17*
%TO.N,CS_RP*%
X160070800Y-106375200D03*
X159308800Y-107137200D03*
X159308800Y-106375200D03*
X160070800Y-107137200D03*
%TO.N,CS_LORA*%
X159943800Y-103581200D03*
X159181800Y-103581200D03*
X159943800Y-104343200D03*
X159181800Y-104343200D03*
%TO.N,D0_ESP32*%
X160197800Y-98374200D03*
X160197800Y-99263200D03*
X161086800Y-98374200D03*
X161086800Y-99263200D03*
%TO.N,D1_ESP32*%
X164795200Y-102006400D03*
X164795200Y-100838000D03*
X164795200Y-101396800D03*
X164795200Y-102006400D03*
%TD*%
D18*
%TO.N,GND*%
X149199600Y-101549200D02*
X149199600Y-98298000D01*
D19*
X144576800Y-99669600D02*
X146237400Y-101330200D01*
D20*
X149133000Y-101330200D02*
X149148800Y-101346000D01*
X146237400Y-101330200D02*
X146685800Y-101330200D01*
X149199600Y-98298000D02*
X149148800Y-98247200D01*
D21*
X146685800Y-101330200D02*
X149133000Y-101330200D01*
D20*
%TO.N,MISO*%
X149301200Y-107746800D02*
X148097800Y-108950200D01*
D21*
X149315859Y-89891463D02*
X149315859Y-94881463D01*
D20*
X148097800Y-108950200D02*
X146685800Y-108950200D01*
X150672800Y-102184200D02*
X150876000Y-102387400D01*
D22*
X150672800Y-102311200D02*
X150672800Y-99517200D01*
D20*
X150876000Y-102387400D02*
X150876000Y-106172000D01*
D23*
X150672800Y-99517200D02*
X150672800Y-96238404D01*
D20*
X150672800Y-102311200D02*
X150672800Y-101295200D01*
X149402800Y-107645200D02*
X149301200Y-107746800D01*
D22*
X150672800Y-96238404D02*
X149315859Y-94881463D01*
D20*
X150876000Y-106172000D02*
X149301200Y-107746800D01*
X149402800Y-89978404D02*
X149315859Y-89891463D01*
X150672800Y-100406200D02*
X150672800Y-99517200D01*
%TO.N,SCK*%
X143468800Y-111490200D02*
X143052800Y-111074200D01*
X143052800Y-81483200D02*
X144195800Y-80340200D01*
X160578800Y-80340200D02*
X162015859Y-81777259D01*
X144195800Y-80340200D02*
X160578800Y-80340200D01*
X146685800Y-111490200D02*
X143468800Y-111490200D01*
X162015859Y-81777259D02*
X162015859Y-87351463D01*
X143306800Y-105359200D02*
X143306800Y-104470200D01*
X143306800Y-107137200D02*
X143306800Y-106248200D01*
X143052800Y-104470200D02*
X143052800Y-81483200D01*
D22*
X143306800Y-107137200D02*
X143306800Y-104470200D01*
D20*
X143306800Y-106248200D02*
X143306800Y-105359200D01*
X143052800Y-111074200D02*
X143052800Y-107137200D01*
%TO.N,RX_TX*%
X163880800Y-87960200D02*
X163195000Y-88646000D01*
X160578800Y-79070200D02*
X163880800Y-82372200D01*
X155498800Y-113995200D02*
X159308800Y-117805200D01*
X142163800Y-80975200D02*
X144068800Y-79070200D01*
X163195000Y-88646000D02*
X160883600Y-88646000D01*
X143087800Y-114030200D02*
X142163800Y-113106200D01*
X146685800Y-114030200D02*
X143087800Y-114030200D01*
X159308800Y-117805200D02*
X159308800Y-118846600D01*
X160883600Y-88646000D02*
X159589063Y-87351463D01*
X159589063Y-87351463D02*
X159475859Y-87351463D01*
X163880800Y-82372200D02*
X163880800Y-87960200D01*
X146720800Y-113995200D02*
X155498800Y-113995200D01*
X146685800Y-114030200D02*
X146720800Y-113995200D01*
X142163800Y-113106200D02*
X142163800Y-80975200D01*
X144068800Y-79070200D02*
X160578800Y-79070200D01*
D24*
%TO.N,TX_RX*%
X158165800Y-113360200D02*
X163015800Y-113360200D01*
X155659113Y-88628209D02*
X155659113Y-96562887D01*
X155244800Y-96977200D02*
X155244800Y-104470200D01*
D20*
X163753800Y-119329200D02*
X163753800Y-114098200D01*
X158267400Y-120345200D02*
X156768800Y-118846600D01*
D24*
X155659113Y-96562887D02*
X155244800Y-96977200D01*
D20*
X163753800Y-119329200D02*
X162737800Y-120345200D01*
D24*
X156935859Y-87351463D02*
X155659113Y-88628209D01*
D20*
X163499800Y-119583200D02*
X163753800Y-119329200D01*
X162737800Y-120345200D02*
X158267400Y-120345200D01*
D24*
X156260800Y-105486200D02*
X156260800Y-111455200D01*
X163015800Y-113360200D02*
X163685800Y-114030200D01*
X156260800Y-111455200D02*
X158165800Y-113360200D01*
X155244800Y-104470200D02*
X156260800Y-105486200D01*
D20*
X163753800Y-114098200D02*
X163685800Y-114030200D01*
%TO.N,MOSI*%
X144357800Y-106410200D02*
X144195800Y-106248200D01*
X144195800Y-106248200D02*
X144195800Y-103200200D01*
X146685800Y-106410200D02*
X144357800Y-106410200D01*
X144195800Y-102438200D02*
X143764000Y-102006400D01*
X144703800Y-81102200D02*
X154101800Y-81102200D01*
X154355800Y-87311404D02*
X154395859Y-87351463D01*
X143764000Y-82042000D02*
X144703800Y-81102200D01*
X154355800Y-81356200D02*
X154355800Y-87311404D01*
X143764000Y-102006400D02*
X143764000Y-82042000D01*
X154101800Y-81102200D02*
X154355800Y-81356200D01*
D22*
X144195800Y-100914200D02*
X144195800Y-103073200D01*
D20*
%TO.N,3V3*%
X147076400Y-103479600D02*
X146685800Y-103870200D01*
X147260400Y-104444800D02*
X146685800Y-103870200D01*
D22*
X149910800Y-103479600D02*
X147076400Y-103479600D01*
X149961600Y-104444800D02*
X147260400Y-104444800D01*
D20*
%TO.N,SDA*%
X163466800Y-109169200D02*
X159435800Y-109169200D01*
X159435800Y-109169200D02*
X157657800Y-107391200D01*
X162102800Y-89978404D02*
X162015859Y-89891463D01*
X162102800Y-94818200D02*
X162102800Y-89978404D01*
X163685800Y-108950200D02*
X163466800Y-109169200D01*
X157657800Y-107391200D02*
X157657800Y-99263200D01*
X157657800Y-99263200D02*
X162102800Y-94818200D01*
X163685800Y-108950200D02*
X163026800Y-108950200D01*
%TO.N,SCL*%
X156895800Y-98414259D02*
X159475859Y-95834200D01*
X163685800Y-111490200D02*
X160359800Y-111490200D01*
X156895800Y-108026200D02*
X156895800Y-98414259D01*
X160359800Y-111490200D02*
X156895800Y-108026200D01*
X159475859Y-95834200D02*
X159475859Y-89891463D01*
%TO.N,CS_RP*%
X159308800Y-106375200D02*
X160197800Y-106375200D01*
D25*
X163685800Y-106410200D02*
X159343800Y-106410200D01*
%TO.N,CS_LORA*%
X163685800Y-103870200D02*
X159400800Y-103870200D01*
D20*
%TO.N,5V*%
X146775859Y-98700141D02*
X146685800Y-98790200D01*
D25*
X146775859Y-89891463D02*
X146775859Y-98700141D01*
%TO.N,D0_ESP32*%
X163245800Y-98755200D02*
X160451800Y-98755200D01*
%TD*%
%TA.AperFunction,Conductor*%
%TO.N,GND*%
G36*
X155541502Y-105651938D02*
G01*
X155547980Y-105657970D01*
X155598981Y-105708971D01*
X155632466Y-105770294D01*
X155635300Y-105796652D01*
X155635300Y-111516811D01*
X155659335Y-111637644D01*
X155659340Y-111637661D01*
X155706485Y-111751480D01*
X155706487Y-111751483D01*
X155706488Y-111751486D01*
X155740715Y-111802709D01*
X155774942Y-111853933D01*
X155862067Y-111941058D01*
X155862070Y-111941060D01*
X155869354Y-111948344D01*
X157676816Y-113755806D01*
X157676845Y-113755837D01*
X157767064Y-113846056D01*
X157767067Y-113846058D01*
X157843990Y-113897456D01*
X157869515Y-113914512D01*
X157936197Y-113942132D01*
X157939985Y-113943701D01*
X157939993Y-113943705D01*
X157977227Y-113959127D01*
X157983348Y-113961663D01*
X158018189Y-113968593D01*
X158104191Y-113985699D01*
X158104192Y-113985700D01*
X158104193Y-113985700D01*
X158104194Y-113985700D01*
X161561300Y-113985700D01*
X161628339Y-114005385D01*
X161674094Y-114058189D01*
X161685300Y-114109700D01*
X161685300Y-114588228D01*
X161685301Y-114588234D01*
X161695913Y-114707615D01*
X161751889Y-114903245D01*
X161751890Y-114903248D01*
X161751891Y-114903249D01*
X161846102Y-115083607D01*
X161846104Y-115083609D01*
X161974690Y-115241309D01*
X162068603Y-115317884D01*
X162132393Y-115369898D01*
X162312751Y-115464109D01*
X162508382Y-115520086D01*
X162627763Y-115530700D01*
X163029300Y-115530699D01*
X163096339Y-115550383D01*
X163142094Y-115603187D01*
X163153300Y-115654699D01*
X163153300Y-117962848D01*
X163133615Y-118029887D01*
X163080811Y-118075642D01*
X163011653Y-118085586D01*
X162948097Y-118056561D01*
X162928982Y-118035733D01*
X162878909Y-117966814D01*
X162878905Y-117966809D01*
X162728586Y-117816490D01*
X162556620Y-117691551D01*
X162367214Y-117595044D01*
X162367213Y-117595043D01*
X162367212Y-117595043D01*
X162165043Y-117529354D01*
X162165041Y-117529353D01*
X162165040Y-117529353D01*
X162003757Y-117503808D01*
X161955087Y-117496100D01*
X161742513Y-117496100D01*
X161693842Y-117503808D01*
X161532560Y-117529353D01*
X161330385Y-117595044D01*
X161140979Y-117691551D01*
X160969013Y-117816490D01*
X160818690Y-117966813D01*
X160693749Y-118138782D01*
X160689284Y-118147546D01*
X160641309Y-118198342D01*
X160573488Y-118215136D01*
X160507353Y-118192598D01*
X160468316Y-118147546D01*
X160463850Y-118138782D01*
X160338909Y-117966813D01*
X160188586Y-117816490D01*
X160016617Y-117691549D01*
X159930786Y-117647815D01*
X159879991Y-117599840D01*
X159872011Y-117580705D01*
X159871486Y-117580923D01*
X159868379Y-117573423D01*
X159868377Y-117573416D01*
X159842938Y-117529354D01*
X159789324Y-117436490D01*
X159789318Y-117436482D01*
X155986390Y-113633555D01*
X155986388Y-113633552D01*
X155867517Y-113514681D01*
X155867516Y-113514680D01*
X155780704Y-113464560D01*
X155780704Y-113464559D01*
X155780700Y-113464558D01*
X155730585Y-113435623D01*
X155577857Y-113394699D01*
X155419743Y-113394699D01*
X155412147Y-113394699D01*
X155412131Y-113394700D01*
X148781176Y-113394700D01*
X148714137Y-113375015D01*
X148668382Y-113322211D01*
X148661960Y-113304812D01*
X148627750Y-113185254D01*
X148619709Y-113157151D01*
X148525498Y-112976793D01*
X148412783Y-112838559D01*
X148385675Y-112774165D01*
X148397684Y-112705335D01*
X148412781Y-112681842D01*
X148525498Y-112543607D01*
X148619709Y-112363249D01*
X148675686Y-112167618D01*
X148686300Y-112048237D01*
X148686299Y-110932164D01*
X148675686Y-110812782D01*
X148619709Y-110617151D01*
X148525498Y-110436793D01*
X148412783Y-110298559D01*
X148385675Y-110234165D01*
X148397684Y-110165335D01*
X148412781Y-110141842D01*
X148525498Y-110003607D01*
X148619709Y-109823249D01*
X148675686Y-109627618D01*
X148686300Y-109508237D01*
X148686299Y-109262295D01*
X148705983Y-109195257D01*
X148722613Y-109174620D01*
X149781720Y-108115516D01*
X149781720Y-108115514D01*
X149791924Y-108105311D01*
X149791927Y-108105306D01*
X150623620Y-107273614D01*
X150684942Y-107240130D01*
X150754634Y-107245114D01*
X150810567Y-107286986D01*
X150834984Y-107352450D01*
X150835300Y-107361296D01*
X150835300Y-108560201D01*
X150835301Y-108560218D01*
X150845800Y-108662996D01*
X150845801Y-108662999D01*
X150900985Y-108829531D01*
X150900986Y-108829534D01*
X150993088Y-108978856D01*
X151117144Y-109102912D01*
X151266466Y-109195014D01*
X151433003Y-109250199D01*
X151535791Y-109260700D01*
X154635808Y-109260699D01*
X154738597Y-109250199D01*
X154905134Y-109195014D01*
X155054456Y-109102912D01*
X155178512Y-108978856D01*
X155270614Y-108829534D01*
X155325799Y-108662997D01*
X155336300Y-108560209D01*
X155336299Y-105745650D01*
X155355984Y-105678612D01*
X155408787Y-105632857D01*
X155477946Y-105622913D01*
X155541502Y-105651938D01*
G37*
%TD.AperFunction*%
%TA.AperFunction,Conductor*%
G36*
X157091503Y-109071584D02*
G01*
X157097980Y-109077615D01*
X159991084Y-111970720D01*
X159991086Y-111970721D01*
X159991090Y-111970724D01*
X160128009Y-112049773D01*
X160128012Y-112049775D01*
X160128016Y-112049777D01*
X160280743Y-112090701D01*
X160280745Y-112090701D01*
X160446454Y-112090701D01*
X160446470Y-112090700D01*
X161580410Y-112090700D01*
X161647449Y-112110385D01*
X161693204Y-112163189D01*
X161699623Y-112180582D01*
X161719728Y-112250844D01*
X161751889Y-112363245D01*
X161751890Y-112363248D01*
X161751891Y-112363249D01*
X161846102Y-112543607D01*
X161846104Y-112543609D01*
X161849014Y-112549180D01*
X161847628Y-112549903D01*
X161865804Y-112609280D01*
X161846888Y-112676541D01*
X161794611Y-112722897D01*
X161741812Y-112734700D01*
X158476252Y-112734700D01*
X158409213Y-112715015D01*
X158388571Y-112698381D01*
X156922619Y-111232429D01*
X156889134Y-111171106D01*
X156886300Y-111144748D01*
X156886300Y-109165297D01*
X156905985Y-109098258D01*
X156958789Y-109052503D01*
X157027947Y-109042559D01*
X157091503Y-109071584D01*
G37*
%TD.AperFunction*%
%TA.AperFunction,Conductor*%
G36*
X150196899Y-105438166D02*
G01*
X150252077Y-105481028D01*
X150275322Y-105546917D01*
X150275500Y-105553556D01*
X150275500Y-105871902D01*
X150255815Y-105938941D01*
X150239181Y-105959583D01*
X148932486Y-107266278D01*
X148932484Y-107266280D01*
X148853158Y-107345606D01*
X148839786Y-107358978D01*
X148778462Y-107392462D01*
X148708771Y-107387478D01*
X148652837Y-107345606D01*
X148628421Y-107280141D01*
X148632888Y-107237188D01*
X148675686Y-107087618D01*
X148686300Y-106968237D01*
X148686299Y-105852164D01*
X148675686Y-105732782D01*
X148638668Y-105603409D01*
X148639151Y-105533544D01*
X148677331Y-105475028D01*
X148741086Y-105446443D01*
X148757884Y-105445300D01*
X150060142Y-105445300D01*
X150074979Y-105442348D01*
X150127309Y-105431939D01*
X150196899Y-105438166D01*
G37*
%TD.AperFunction*%
%TA.AperFunction,Conductor*%
G36*
X153143085Y-90526987D02*
G01*
X153155669Y-90526448D01*
X153175533Y-90538044D01*
X153197303Y-90545462D01*
X153206578Y-90556166D01*
X153216010Y-90561672D01*
X153236345Y-90590519D01*
X153240810Y-90599283D01*
X153365749Y-90771249D01*
X153516072Y-90921572D01*
X153688038Y-91046511D01*
X153688040Y-91046512D01*
X153688043Y-91046514D01*
X153877447Y-91143020D01*
X154079616Y-91208709D01*
X154289572Y-91241963D01*
X154289573Y-91241963D01*
X154502145Y-91241963D01*
X154502146Y-91241963D01*
X154712102Y-91208709D01*
X154871297Y-91156982D01*
X154941136Y-91154988D01*
X155000969Y-91191068D01*
X155031797Y-91253769D01*
X155033613Y-91274914D01*
X155033613Y-96252434D01*
X155024968Y-96281874D01*
X155018445Y-96311861D01*
X155014690Y-96316876D01*
X155013928Y-96319473D01*
X154997294Y-96340115D01*
X154846070Y-96491339D01*
X154846067Y-96491342D01*
X154807178Y-96530231D01*
X154758944Y-96578464D01*
X154728187Y-96624494D01*
X154728186Y-96624493D01*
X154690489Y-96680911D01*
X154690488Y-96680913D01*
X154690488Y-96680914D01*
X154663803Y-96745338D01*
X154643338Y-96794744D01*
X154643335Y-96794756D01*
X154619300Y-96915589D01*
X154619300Y-104531810D01*
X154635153Y-104611509D01*
X154628926Y-104681101D01*
X154586062Y-104736278D01*
X154520172Y-104759522D01*
X154513536Y-104759700D01*
X151600500Y-104759700D01*
X151533461Y-104740015D01*
X151487706Y-104687211D01*
X151476500Y-104635700D01*
X151476500Y-102946845D01*
X151496185Y-102879806D01*
X151497398Y-102877954D01*
X151559432Y-102785114D01*
X151634851Y-102603035D01*
X151652021Y-102516716D01*
X151673300Y-102409743D01*
X151673300Y-99418656D01*
X151634852Y-99225370D01*
X151634851Y-99225369D01*
X151634851Y-99225365D01*
X151569144Y-99066732D01*
X151559435Y-99043292D01*
X151559428Y-99043279D01*
X151449939Y-98879418D01*
X151449936Y-98879414D01*
X151409619Y-98839097D01*
X151376134Y-98777774D01*
X151373300Y-98751416D01*
X151373300Y-97004186D01*
X151392985Y-96937147D01*
X151409620Y-96916504D01*
X151449936Y-96876188D01*
X151449939Y-96876185D01*
X151559431Y-96712318D01*
X151634851Y-96530239D01*
X151673300Y-96336944D01*
X151673300Y-96139863D01*
X151673300Y-96139860D01*
X151673299Y-96139858D01*
X151653505Y-96040347D01*
X151634851Y-95946568D01*
X151568781Y-95787061D01*
X151559432Y-95764491D01*
X151559427Y-95764482D01*
X151449939Y-95600622D01*
X151449936Y-95600618D01*
X150602678Y-94753360D01*
X150569193Y-94692037D01*
X150566359Y-94665679D01*
X150566359Y-90795860D01*
X150586044Y-90728821D01*
X150638848Y-90683066D01*
X150708006Y-90673122D01*
X150771562Y-90702147D01*
X150790678Y-90722975D01*
X150825755Y-90771255D01*
X150976072Y-90921572D01*
X151148038Y-91046511D01*
X151148040Y-91046512D01*
X151148043Y-91046514D01*
X151337447Y-91143020D01*
X151539616Y-91208709D01*
X151749572Y-91241963D01*
X151749573Y-91241963D01*
X151962145Y-91241963D01*
X151962146Y-91241963D01*
X152172102Y-91208709D01*
X152374271Y-91143020D01*
X152563675Y-91046514D01*
X152594417Y-91024179D01*
X152735645Y-90921572D01*
X152735647Y-90921569D01*
X152735651Y-90921567D01*
X152885963Y-90771255D01*
X152885965Y-90771251D01*
X152885968Y-90771249D01*
X153010907Y-90599283D01*
X153010906Y-90599283D01*
X153010910Y-90599279D01*
X153015373Y-90590517D01*
X153024019Y-90581363D01*
X153028756Y-90569695D01*
X153047555Y-90556442D01*
X153063347Y-90539722D01*
X153075569Y-90536694D01*
X153085863Y-90529439D01*
X153108844Y-90528454D01*
X153131167Y-90522926D01*
X153143085Y-90526987D01*
G37*
%TD.AperFunction*%
%TA.AperFunction,Conductor*%
G36*
X158277303Y-90545462D02*
G01*
X158316345Y-90590519D01*
X158320810Y-90599283D01*
X158445749Y-90771249D01*
X158596072Y-90921572D01*
X158768043Y-91046514D01*
X158768043Y-91046515D01*
X158807652Y-91066696D01*
X158858449Y-91114669D01*
X158875359Y-91177181D01*
X158875359Y-95534102D01*
X158855674Y-95601141D01*
X158839040Y-95621783D01*
X156415281Y-98045541D01*
X156415280Y-98045543D01*
X156376460Y-98112782D01*
X156336223Y-98182474D01*
X156295299Y-98335202D01*
X156295299Y-98335204D01*
X156295299Y-98503305D01*
X156295300Y-98503318D01*
X156295300Y-104336748D01*
X156275615Y-104403787D01*
X156222811Y-104449542D01*
X156153653Y-104459486D01*
X156090097Y-104430461D01*
X156083619Y-104424429D01*
X155906619Y-104247429D01*
X155873134Y-104186106D01*
X155870300Y-104159748D01*
X155870300Y-97287651D01*
X155878945Y-97258208D01*
X155885468Y-97228225D01*
X155889222Y-97223209D01*
X155889985Y-97220612D01*
X155906610Y-97199979D01*
X156057842Y-97048747D01*
X156057846Y-97048745D01*
X156144971Y-96961620D01*
X156179197Y-96910396D01*
X156213425Y-96859173D01*
X156260576Y-96745338D01*
X156284613Y-96624494D01*
X156284613Y-96501280D01*
X156284613Y-91270530D01*
X156304298Y-91203491D01*
X156357102Y-91157736D01*
X156426260Y-91147792D01*
X156446917Y-91152595D01*
X156619616Y-91208709D01*
X156829572Y-91241963D01*
X156829573Y-91241963D01*
X157042145Y-91241963D01*
X157042146Y-91241963D01*
X157252102Y-91208709D01*
X157454271Y-91143020D01*
X157643675Y-91046514D01*
X157674417Y-91024179D01*
X157815645Y-90921572D01*
X157815647Y-90921569D01*
X157815651Y-90921567D01*
X157965963Y-90771255D01*
X157965965Y-90771251D01*
X157965968Y-90771249D01*
X158090907Y-90599283D01*
X158090906Y-90599283D01*
X158090910Y-90599279D01*
X158095373Y-90590517D01*
X158143347Y-90539722D01*
X158211167Y-90522926D01*
X158277303Y-90545462D01*
G37*
%TD.AperFunction*%
%TA.AperFunction,Conductor*%
G36*
X158902797Y-98969950D02*
G01*
X158958731Y-99011821D01*
X158981937Y-99066732D01*
X158988247Y-99106570D01*
X159061233Y-99331196D01*
X159145337Y-99496258D01*
X159168457Y-99541633D01*
X159307283Y-99732710D01*
X159474290Y-99899717D01*
X159665367Y-100038543D01*
X159764791Y-100089202D01*
X159875803Y-100145766D01*
X159875805Y-100145766D01*
X159875808Y-100145768D01*
X159996212Y-100184889D01*
X160100431Y-100218753D01*
X160333703Y-100255700D01*
X160333708Y-100255700D01*
X161652450Y-100255700D01*
X161719489Y-100275385D01*
X161765244Y-100328189D01*
X161775188Y-100397347D01*
X161762359Y-100437111D01*
X161751890Y-100457152D01*
X161751837Y-100457338D01*
X161704618Y-100622365D01*
X161695914Y-100652783D01*
X161695913Y-100652786D01*
X161685300Y-100772166D01*
X161685300Y-101888228D01*
X161685301Y-101888234D01*
X161695913Y-102007615D01*
X161753621Y-102209296D01*
X161751441Y-102209919D01*
X161757063Y-102269258D01*
X161725000Y-102331337D01*
X161664465Y-102366226D01*
X161635321Y-102369700D01*
X159282703Y-102369700D01*
X159049431Y-102406646D01*
X158824803Y-102479633D01*
X158614363Y-102586859D01*
X158455185Y-102702509D01*
X158389379Y-102725989D01*
X158321325Y-102710164D01*
X158272630Y-102660058D01*
X158258300Y-102602191D01*
X158258300Y-99563297D01*
X158277985Y-99496258D01*
X158294619Y-99475616D01*
X158439043Y-99331192D01*
X158771785Y-98998449D01*
X158833106Y-98964966D01*
X158902797Y-98969950D01*
G37*
%TD.AperFunction*%
%TA.AperFunction,Conductor*%
G36*
X148481562Y-95816086D02*
G01*
X148488040Y-95822118D01*
X148501213Y-95835291D01*
X148660454Y-95950987D01*
X148743314Y-95993206D01*
X148835829Y-96040345D01*
X148835831Y-96040345D01*
X148835834Y-96040347D01*
X149023033Y-96101172D01*
X149099223Y-96113239D01*
X149162358Y-96143168D01*
X149167507Y-96148031D01*
X149935981Y-96916505D01*
X149969466Y-96977828D01*
X149972300Y-97004186D01*
X149972300Y-98751416D01*
X149952615Y-98818455D01*
X149935981Y-98839097D01*
X149895663Y-98879414D01*
X149895660Y-98879418D01*
X149786171Y-99043279D01*
X149786164Y-99043292D01*
X149710750Y-99225360D01*
X149710747Y-99225370D01*
X149672300Y-99418656D01*
X149672300Y-102355100D01*
X149652615Y-102422139D01*
X149599811Y-102467894D01*
X149548300Y-102479100D01*
X148679723Y-102479100D01*
X148612684Y-102459415D01*
X148566929Y-102406611D01*
X148556985Y-102337453D01*
X148569814Y-102297689D01*
X148619242Y-102203061D01*
X148675190Y-102007528D01*
X148675191Y-102007525D01*
X148685799Y-101888200D01*
X148685800Y-101888198D01*
X148685800Y-100772202D01*
X148685799Y-100772199D01*
X148675191Y-100652874D01*
X148675190Y-100652871D01*
X148619242Y-100457338D01*
X148525078Y-100277070D01*
X148412461Y-100138957D01*
X148385352Y-100074561D01*
X148397361Y-100005731D01*
X148412458Y-99982239D01*
X148525498Y-99843607D01*
X148619709Y-99663249D01*
X148675686Y-99467618D01*
X148686300Y-99348237D01*
X148686299Y-98232164D01*
X148675686Y-98112782D01*
X148638240Y-97981914D01*
X148619710Y-97917154D01*
X148619709Y-97917153D01*
X148619709Y-97917151D01*
X148525498Y-97736793D01*
X148396909Y-97579091D01*
X148396908Y-97579090D01*
X148396904Y-97579085D01*
X148321998Y-97518007D01*
X148282481Y-97460386D01*
X148276359Y-97421906D01*
X148276359Y-95909799D01*
X148296044Y-95842760D01*
X148348848Y-95797005D01*
X148418006Y-95787061D01*
X148481562Y-95816086D01*
G37*
%TD.AperFunction*%
%TA.AperFunction,Conductor*%
G36*
X153698339Y-81722385D02*
G01*
X153744094Y-81775189D01*
X153755300Y-81826700D01*
X153755300Y-86086155D01*
X153735615Y-86153194D01*
X153691648Y-86192975D01*
X153692195Y-86193867D01*
X153688043Y-86196411D01*
X153516072Y-86321353D01*
X153365749Y-86471676D01*
X153240808Y-86643645D01*
X153236343Y-86652409D01*
X153188368Y-86703205D01*
X153120547Y-86719999D01*
X153054412Y-86697461D01*
X153015375Y-86652409D01*
X153010909Y-86643645D01*
X152885968Y-86471676D01*
X152735645Y-86321353D01*
X152563679Y-86196414D01*
X152374273Y-86099907D01*
X152374272Y-86099906D01*
X152374271Y-86099906D01*
X152172102Y-86034217D01*
X152172100Y-86034216D01*
X152172099Y-86034216D01*
X152010816Y-86008671D01*
X151962146Y-86000963D01*
X151749572Y-86000963D01*
X151700901Y-86008671D01*
X151539619Y-86034216D01*
X151337444Y-86099907D01*
X151148038Y-86196414D01*
X150976072Y-86321353D01*
X150825749Y-86471676D01*
X150700808Y-86643645D01*
X150696343Y-86652409D01*
X150648368Y-86703205D01*
X150580547Y-86719999D01*
X150514412Y-86697461D01*
X150475375Y-86652409D01*
X150470909Y-86643645D01*
X150345968Y-86471676D01*
X150195645Y-86321353D01*
X150023679Y-86196414D01*
X149834273Y-86099907D01*
X149834272Y-86099906D01*
X149834271Y-86099906D01*
X149632102Y-86034217D01*
X149632100Y-86034216D01*
X149632099Y-86034216D01*
X149470816Y-86008671D01*
X149422146Y-86000963D01*
X149209572Y-86000963D01*
X149160901Y-86008671D01*
X148999619Y-86034216D01*
X148797444Y-86099907D01*
X148608038Y-86196414D01*
X148436074Y-86321352D01*
X148322144Y-86435282D01*
X148260821Y-86468766D01*
X148191129Y-86463782D01*
X148135196Y-86421910D01*
X148118281Y-86390933D01*
X148069213Y-86259376D01*
X148069209Y-86259369D01*
X147983049Y-86144275D01*
X147983046Y-86144272D01*
X147867952Y-86058112D01*
X147867945Y-86058108D01*
X147733238Y-86007866D01*
X147733231Y-86007864D01*
X147673703Y-86001463D01*
X147025859Y-86001463D01*
X147025859Y-86918451D01*
X146968852Y-86885538D01*
X146841685Y-86851463D01*
X146710033Y-86851463D01*
X146582866Y-86885538D01*
X146525859Y-86918451D01*
X146525859Y-86001463D01*
X145878014Y-86001463D01*
X145818486Y-86007864D01*
X145818479Y-86007866D01*
X145683772Y-86058108D01*
X145683765Y-86058112D01*
X145568671Y-86144272D01*
X145568668Y-86144275D01*
X145482508Y-86259369D01*
X145482504Y-86259376D01*
X145432262Y-86394083D01*
X145432260Y-86394090D01*
X145425859Y-86453618D01*
X145425859Y-87101463D01*
X146342847Y-87101463D01*
X146309934Y-87158470D01*
X146275859Y-87285637D01*
X146275859Y-87417289D01*
X146309934Y-87544456D01*
X146342847Y-87601463D01*
X145425859Y-87601463D01*
X145425859Y-88249307D01*
X145432260Y-88308835D01*
X145432262Y-88308842D01*
X145482504Y-88443549D01*
X145482508Y-88443556D01*
X145568668Y-88558650D01*
X145568671Y-88558653D01*
X145690870Y-88650132D01*
X145689093Y-88652505D01*
X145727964Y-88691379D01*
X145742814Y-88759653D01*
X145718394Y-88825116D01*
X145706812Y-88838483D01*
X145631341Y-88913954D01*
X145492516Y-89105029D01*
X145385292Y-89315466D01*
X145312305Y-89540094D01*
X145275359Y-89773365D01*
X145275359Y-97300696D01*
X145255674Y-97367735D01*
X145208771Y-97410604D01*
X145132396Y-97450499D01*
X144974690Y-97579090D01*
X144846104Y-97736790D01*
X144751889Y-97917154D01*
X144717450Y-98037515D01*
X144695914Y-98112782D01*
X144695914Y-98112783D01*
X144685300Y-98232166D01*
X144685300Y-99348228D01*
X144685301Y-99348234D01*
X144695913Y-99467615D01*
X144751889Y-99663245D01*
X144751890Y-99663248D01*
X144751891Y-99663249D01*
X144788175Y-99732712D01*
X144846103Y-99843608D01*
X144864216Y-99865822D01*
X144891324Y-99930218D01*
X144879314Y-99999048D01*
X144831999Y-100050458D01*
X144764400Y-100068126D01*
X144699222Y-100047284D01*
X144669720Y-100027571D01*
X144669707Y-100027564D01*
X144487639Y-99952150D01*
X144487632Y-99952148D01*
X144464306Y-99947508D01*
X144402396Y-99915121D01*
X144367823Y-99854405D01*
X144364500Y-99825891D01*
X144364500Y-82342097D01*
X144384185Y-82275058D01*
X144400819Y-82254416D01*
X144916216Y-81739019D01*
X144977539Y-81705534D01*
X145003897Y-81702700D01*
X153631300Y-81702700D01*
X153698339Y-81722385D01*
G37*
%TD.AperFunction*%
%TA.AperFunction,Conductor*%
G36*
X160345742Y-80960385D02*
G01*
X160366384Y-80977019D01*
X161379040Y-81989675D01*
X161412525Y-82050998D01*
X161415359Y-82077356D01*
X161415359Y-86065744D01*
X161395674Y-86132783D01*
X161347654Y-86176228D01*
X161308044Y-86196410D01*
X161308043Y-86196411D01*
X161136072Y-86321353D01*
X160985749Y-86471676D01*
X160860808Y-86643645D01*
X160856343Y-86652409D01*
X160808368Y-86703205D01*
X160740547Y-86719999D01*
X160674412Y-86697461D01*
X160635375Y-86652409D01*
X160630909Y-86643645D01*
X160505968Y-86471676D01*
X160355645Y-86321353D01*
X160183679Y-86196414D01*
X159994273Y-86099907D01*
X159994272Y-86099906D01*
X159994271Y-86099906D01*
X159792102Y-86034217D01*
X159792100Y-86034216D01*
X159792099Y-86034216D01*
X159630816Y-86008671D01*
X159582146Y-86000963D01*
X159369572Y-86000963D01*
X159320901Y-86008671D01*
X159159619Y-86034216D01*
X158957444Y-86099907D01*
X158768038Y-86196414D01*
X158596072Y-86321353D01*
X158445749Y-86471676D01*
X158320808Y-86643645D01*
X158316343Y-86652409D01*
X158268368Y-86703205D01*
X158200547Y-86719999D01*
X158134412Y-86697461D01*
X158095375Y-86652409D01*
X158090909Y-86643645D01*
X157965968Y-86471676D01*
X157815645Y-86321353D01*
X157643679Y-86196414D01*
X157454273Y-86099907D01*
X157454272Y-86099906D01*
X157454271Y-86099906D01*
X157252102Y-86034217D01*
X157252100Y-86034216D01*
X157252099Y-86034216D01*
X157090816Y-86008671D01*
X157042146Y-86000963D01*
X156829572Y-86000963D01*
X156780901Y-86008671D01*
X156619619Y-86034216D01*
X156417444Y-86099907D01*
X156228038Y-86196414D01*
X156056072Y-86321353D01*
X155905749Y-86471676D01*
X155780808Y-86643645D01*
X155776343Y-86652409D01*
X155728368Y-86703205D01*
X155660547Y-86719999D01*
X155594412Y-86697461D01*
X155555375Y-86652409D01*
X155550909Y-86643645D01*
X155425968Y-86471676D01*
X155275645Y-86321353D01*
X155103676Y-86196412D01*
X155024004Y-86155816D01*
X154973208Y-86107841D01*
X154956300Y-86045332D01*
X154956300Y-81277144D01*
X154956299Y-81277140D01*
X154949407Y-81251416D01*
X154915377Y-81124415D01*
X154915375Y-81124412D01*
X154915375Y-81124410D01*
X154912265Y-81116901D01*
X154914131Y-81116128D01*
X154900225Y-81058797D01*
X154923078Y-80992771D01*
X154978001Y-80949581D01*
X155024084Y-80940700D01*
X160278703Y-80940700D01*
X160345742Y-80960385D01*
G37*
%TD.AperFunction*%
%TA.AperFunction,Conductor*%
G36*
X167279279Y-77807055D02*
G01*
X167533325Y-77823710D01*
X167549405Y-77825827D01*
X167795115Y-77874705D01*
X167810782Y-77878903D01*
X168048009Y-77959434D01*
X168062994Y-77965641D01*
X168072977Y-77970564D01*
X168287688Y-78076450D01*
X168301720Y-78084551D01*
X168510032Y-78223743D01*
X168522896Y-78233615D01*
X168711248Y-78398797D01*
X168722718Y-78410267D01*
X168887899Y-78598622D01*
X168897772Y-78611490D01*
X169036956Y-78819795D01*
X169045065Y-78833840D01*
X169155744Y-79058276D01*
X169155866Y-79058522D01*
X169162073Y-79073508D01*
X169242602Y-79310741D01*
X169246800Y-79326407D01*
X169295675Y-79572114D01*
X169297792Y-79588195D01*
X169314473Y-79842675D01*
X169314739Y-79850784D01*
X169314739Y-79912184D01*
X169314739Y-79912189D01*
X169314740Y-79917307D01*
X169314740Y-79917317D01*
X169315578Y-119475851D01*
X169315286Y-119484357D01*
X169297950Y-119736572D01*
X169295776Y-119752678D01*
X169246366Y-119996697D01*
X169242104Y-120012379D01*
X169161208Y-120247838D01*
X169154931Y-120262829D01*
X169043938Y-120485681D01*
X169035755Y-120499722D01*
X168896569Y-120706148D01*
X168886620Y-120718998D01*
X168721636Y-120905445D01*
X168710092Y-120916884D01*
X168522138Y-121080157D01*
X168509197Y-121089988D01*
X168301507Y-121227276D01*
X168287392Y-121235330D01*
X168063528Y-121344279D01*
X168048480Y-121350418D01*
X167812293Y-121429154D01*
X167796573Y-121433272D01*
X167552118Y-121480444D01*
X167535993Y-121482471D01*
X167317498Y-121495481D01*
X167310128Y-121495700D01*
X142853667Y-121495700D01*
X142845557Y-121495435D01*
X142591495Y-121478783D01*
X142575414Y-121476665D01*
X142540370Y-121469694D01*
X142329711Y-121427791D01*
X142314045Y-121423593D01*
X142076813Y-121343064D01*
X142061827Y-121336857D01*
X141837139Y-121226053D01*
X141823092Y-121217943D01*
X141655930Y-121106249D01*
X141614786Y-121078758D01*
X141601920Y-121068885D01*
X141413566Y-120903702D01*
X141402097Y-120892233D01*
X141250173Y-120718998D01*
X141236911Y-120703875D01*
X141227040Y-120691011D01*
X141087856Y-120482707D01*
X141079746Y-120468660D01*
X141076233Y-120461536D01*
X140968939Y-120243965D01*
X140962735Y-120228986D01*
X140951741Y-120196600D01*
X140932513Y-120139954D01*
X140882206Y-119991754D01*
X140878008Y-119976088D01*
X140869336Y-119932492D01*
X140829132Y-119730372D01*
X140827017Y-119714316D01*
X140810364Y-119460232D01*
X140810100Y-119452143D01*
X140811244Y-113185254D01*
X141563298Y-113185254D01*
X141563299Y-113185257D01*
X141604223Y-113337985D01*
X141612767Y-113352784D01*
X141633158Y-113388100D01*
X141633159Y-113388104D01*
X141633160Y-113388104D01*
X141677300Y-113464559D01*
X141683279Y-113474914D01*
X141683281Y-113474917D01*
X141802149Y-113593785D01*
X141802155Y-113593790D01*
X142602939Y-114394574D01*
X142602949Y-114394585D01*
X142607279Y-114398915D01*
X142607280Y-114398916D01*
X142719084Y-114510720D01*
X142719086Y-114510721D01*
X142719090Y-114510724D01*
X142853333Y-114588228D01*
X142856016Y-114589777D01*
X142967819Y-114619734D01*
X143008742Y-114630700D01*
X143008743Y-114630700D01*
X144580410Y-114630700D01*
X144647449Y-114650385D01*
X144693204Y-114703189D01*
X144699623Y-114720582D01*
X144719728Y-114790844D01*
X144751889Y-114903245D01*
X144751890Y-114903248D01*
X144751891Y-114903249D01*
X144846102Y-115083607D01*
X144846104Y-115083609D01*
X144974690Y-115241309D01*
X145068603Y-115317884D01*
X145132393Y-115369898D01*
X145312751Y-115464109D01*
X145508382Y-115520086D01*
X145627763Y-115530700D01*
X147743836Y-115530699D01*
X147863218Y-115520086D01*
X148058849Y-115464109D01*
X148239207Y-115369898D01*
X148396909Y-115241309D01*
X148525498Y-115083607D01*
X148619709Y-114903249D01*
X148675686Y-114707618D01*
X148675687Y-114707603D01*
X148676764Y-114701815D01*
X148678196Y-114702081D01*
X148701130Y-114643690D01*
X148757776Y-114602789D01*
X148799101Y-114595700D01*
X155198703Y-114595700D01*
X155265742Y-114615385D01*
X155286384Y-114632019D01*
X158362252Y-117707888D01*
X158395737Y-117769211D01*
X158390753Y-117838903D01*
X158362253Y-117883249D01*
X158278694Y-117966809D01*
X158278690Y-117966813D01*
X158153749Y-118138782D01*
X158149284Y-118147546D01*
X158101309Y-118198342D01*
X158033488Y-118215136D01*
X157967353Y-118192598D01*
X157928316Y-118147546D01*
X157923850Y-118138782D01*
X157798909Y-117966813D01*
X157648586Y-117816490D01*
X157476620Y-117691551D01*
X157287214Y-117595044D01*
X157287213Y-117595043D01*
X157287212Y-117595043D01*
X157085043Y-117529354D01*
X157085041Y-117529353D01*
X157085040Y-117529353D01*
X156923757Y-117503808D01*
X156875087Y-117496100D01*
X156662513Y-117496100D01*
X156613842Y-117503808D01*
X156452560Y-117529353D01*
X156250385Y-117595044D01*
X156060979Y-117691551D01*
X155889015Y-117816489D01*
X155775085Y-117930419D01*
X155713762Y-117963903D01*
X155644070Y-117958919D01*
X155588137Y-117917047D01*
X155571222Y-117886070D01*
X155522154Y-117754513D01*
X155522150Y-117754506D01*
X155435990Y-117639412D01*
X155435987Y-117639409D01*
X155320893Y-117553249D01*
X155320886Y-117553245D01*
X155186179Y-117503003D01*
X155186172Y-117503001D01*
X155126644Y-117496600D01*
X154478800Y-117496600D01*
X154478800Y-118413588D01*
X154421793Y-118380675D01*
X154294626Y-118346600D01*
X154162974Y-118346600D01*
X154035807Y-118380675D01*
X153978800Y-118413588D01*
X153978800Y-117496600D01*
X153330955Y-117496600D01*
X153271427Y-117503001D01*
X153271420Y-117503003D01*
X153136713Y-117553245D01*
X153136706Y-117553249D01*
X153021612Y-117639409D01*
X153021609Y-117639412D01*
X152935449Y-117754506D01*
X152935446Y-117754512D01*
X152886377Y-117886071D01*
X152844505Y-117942004D01*
X152779041Y-117966421D01*
X152710768Y-117951569D01*
X152682514Y-117930418D01*
X152568586Y-117816490D01*
X152396620Y-117691551D01*
X152207214Y-117595044D01*
X152207213Y-117595043D01*
X152207212Y-117595043D01*
X152005043Y-117529354D01*
X152005041Y-117529353D01*
X152005040Y-117529353D01*
X151843757Y-117503808D01*
X151795087Y-117496100D01*
X151582513Y-117496100D01*
X151533842Y-117503808D01*
X151372560Y-117529353D01*
X151170385Y-117595044D01*
X150980979Y-117691551D01*
X150809013Y-117816490D01*
X150658690Y-117966813D01*
X150533749Y-118138782D01*
X150529284Y-118147546D01*
X150481309Y-118198342D01*
X150413488Y-118215136D01*
X150347353Y-118192598D01*
X150308316Y-118147546D01*
X150303850Y-118138782D01*
X150178909Y-117966813D01*
X150028586Y-117816490D01*
X149856620Y-117691551D01*
X149667214Y-117595044D01*
X149667213Y-117595043D01*
X149667212Y-117595043D01*
X149465043Y-117529354D01*
X149465041Y-117529353D01*
X149465040Y-117529353D01*
X149303757Y-117503808D01*
X149255087Y-117496100D01*
X149042513Y-117496100D01*
X148993842Y-117503808D01*
X148832560Y-117529353D01*
X148630385Y-117595044D01*
X148440979Y-117691551D01*
X148269013Y-117816490D01*
X148118690Y-117966813D01*
X147993751Y-118138779D01*
X147897244Y-118328185D01*
X147831553Y-118530360D01*
X147830091Y-118539593D01*
X147798300Y-118740313D01*
X147798300Y-118952887D01*
X147831554Y-119162843D01*
X147859918Y-119250139D01*
X147897244Y-119365014D01*
X147993751Y-119554420D01*
X148118690Y-119726386D01*
X148269013Y-119876709D01*
X148440979Y-120001648D01*
X148440981Y-120001649D01*
X148440984Y-120001651D01*
X148630388Y-120098157D01*
X148832557Y-120163846D01*
X149042513Y-120197100D01*
X149042514Y-120197100D01*
X149255086Y-120197100D01*
X149255087Y-120197100D01*
X149465043Y-120163846D01*
X149667212Y-120098157D01*
X149856616Y-120001651D01*
X149943278Y-119938688D01*
X150028586Y-119876709D01*
X150028588Y-119876706D01*
X150028592Y-119876704D01*
X150178904Y-119726392D01*
X150178906Y-119726388D01*
X150178909Y-119726386D01*
X150303848Y-119554420D01*
X150303847Y-119554420D01*
X150303851Y-119554416D01*
X150308314Y-119545654D01*
X150356288Y-119494859D01*
X150424108Y-119478063D01*
X150490244Y-119500599D01*
X150529284Y-119545654D01*
X150530307Y-119547660D01*
X150533751Y-119554420D01*
X150658690Y-119726386D01*
X150809013Y-119876709D01*
X150980979Y-120001648D01*
X150980981Y-120001649D01*
X150980984Y-120001651D01*
X151170388Y-120098157D01*
X151372557Y-120163846D01*
X151582513Y-120197100D01*
X151582514Y-120197100D01*
X151795086Y-120197100D01*
X151795087Y-120197100D01*
X152005043Y-120163846D01*
X152207212Y-120098157D01*
X152396616Y-120001651D01*
X152483278Y-119938688D01*
X152568584Y-119876710D01*
X152568584Y-119876709D01*
X152568592Y-119876704D01*
X152682517Y-119762778D01*
X152743836Y-119729296D01*
X152813528Y-119734280D01*
X152869462Y-119776151D01*
X152886377Y-119807128D01*
X152935446Y-119938688D01*
X152935449Y-119938693D01*
X153021609Y-120053787D01*
X153021612Y-120053790D01*
X153136706Y-120139950D01*
X153136713Y-120139954D01*
X153271420Y-120190196D01*
X153271427Y-120190198D01*
X153330955Y-120196599D01*
X153330972Y-120196600D01*
X153978800Y-120196600D01*
X153978800Y-119279612D01*
X154035807Y-119312525D01*
X154162974Y-119346600D01*
X154294626Y-119346600D01*
X154421793Y-119312525D01*
X154478800Y-119279612D01*
X154478800Y-120196600D01*
X155126628Y-120196600D01*
X155126644Y-120196599D01*
X155186172Y-120190198D01*
X155186179Y-120190196D01*
X155320886Y-120139954D01*
X155320893Y-120139950D01*
X155435987Y-120053790D01*
X155435990Y-120053787D01*
X155522150Y-119938693D01*
X155522154Y-119938686D01*
X155571222Y-119807129D01*
X155613093Y-119751195D01*
X155678557Y-119726778D01*
X155746830Y-119741630D01*
X155775085Y-119762781D01*
X155889013Y-119876709D01*
X156060979Y-120001648D01*
X156060981Y-120001649D01*
X156060984Y-120001651D01*
X156250388Y-120098157D01*
X156452557Y-120163846D01*
X156662513Y-120197100D01*
X156662514Y-120197100D01*
X156875086Y-120197100D01*
X156875087Y-120197100D01*
X157085043Y-120163846D01*
X157127323Y-120150107D01*
X157197162Y-120148111D01*
X157253322Y-120180357D01*
X157782539Y-120709574D01*
X157782549Y-120709585D01*
X157786879Y-120713915D01*
X157786880Y-120713916D01*
X157898684Y-120825720D01*
X157898686Y-120825721D01*
X157898690Y-120825724D01*
X158033754Y-120903702D01*
X158035616Y-120904777D01*
X158147419Y-120934734D01*
X158188342Y-120945700D01*
X158188343Y-120945700D01*
X162651131Y-120945700D01*
X162651147Y-120945701D01*
X162658743Y-120945701D01*
X162816854Y-120945701D01*
X162816857Y-120945701D01*
X162969585Y-120904777D01*
X163019704Y-120875839D01*
X163106516Y-120825720D01*
X163218320Y-120713916D01*
X163218320Y-120713914D01*
X163228528Y-120703707D01*
X163228530Y-120703704D01*
X164122513Y-119809721D01*
X164122516Y-119809720D01*
X164234320Y-119697916D01*
X164284439Y-119611104D01*
X164313377Y-119560985D01*
X164354301Y-119408257D01*
X164354301Y-119250143D01*
X164354301Y-119242548D01*
X164354300Y-119242530D01*
X164354300Y-115654699D01*
X164373985Y-115587660D01*
X164426789Y-115541905D01*
X164478300Y-115530699D01*
X164743828Y-115530699D01*
X164743836Y-115530699D01*
X164863218Y-115520086D01*
X165058849Y-115464109D01*
X165239207Y-115369898D01*
X165396909Y-115241309D01*
X165525498Y-115083607D01*
X165619709Y-114903249D01*
X165675686Y-114707618D01*
X165686300Y-114588237D01*
X165686299Y-113472164D01*
X165675686Y-113352782D01*
X165619709Y-113157151D01*
X165525498Y-112976793D01*
X165412783Y-112838559D01*
X165385675Y-112774165D01*
X165397684Y-112705335D01*
X165412781Y-112681842D01*
X165525498Y-112543607D01*
X165619709Y-112363249D01*
X165675686Y-112167618D01*
X165686300Y-112048237D01*
X165686299Y-110932164D01*
X165675686Y-110812782D01*
X165619709Y-110617151D01*
X165525498Y-110436793D01*
X165412783Y-110298559D01*
X165385675Y-110234165D01*
X165397684Y-110165335D01*
X165412781Y-110141842D01*
X165525498Y-110003607D01*
X165619709Y-109823249D01*
X165675686Y-109627618D01*
X165686300Y-109508237D01*
X165686299Y-108392164D01*
X165675686Y-108272782D01*
X165619709Y-108077151D01*
X165525498Y-107896793D01*
X165412783Y-107758559D01*
X165385675Y-107694165D01*
X165397684Y-107625335D01*
X165412781Y-107601842D01*
X165525498Y-107463607D01*
X165619709Y-107283249D01*
X165675686Y-107087618D01*
X165686300Y-106968237D01*
X165686299Y-105852164D01*
X165675686Y-105732782D01*
X165624403Y-105553556D01*
X165619710Y-105537154D01*
X165619709Y-105537153D01*
X165619709Y-105537151D01*
X165525498Y-105356793D01*
X165412783Y-105218559D01*
X165385675Y-105154165D01*
X165397684Y-105085335D01*
X165412781Y-105061842D01*
X165525498Y-104923607D01*
X165619709Y-104743249D01*
X165675686Y-104547618D01*
X165686300Y-104428237D01*
X165686299Y-103312164D01*
X165675686Y-103192782D01*
X165619709Y-102997151D01*
X165525498Y-102816793D01*
X165412794Y-102678572D01*
X165400659Y-102649747D01*
X165386776Y-102621721D01*
X165387213Y-102617805D01*
X165385685Y-102614175D01*
X165391061Y-102583361D01*
X165394533Y-102552283D01*
X165397285Y-102547687D01*
X165397694Y-102545346D01*
X165412668Y-102522005D01*
X165416986Y-102516691D01*
X165416989Y-102516689D01*
X165416990Y-102516685D01*
X165418803Y-102514456D01*
X165525498Y-102383607D01*
X165619709Y-102203249D01*
X165675686Y-102007618D01*
X165686300Y-101888237D01*
X165686299Y-100772164D01*
X165675686Y-100652782D01*
X165619709Y-100457151D01*
X165525498Y-100276793D01*
X165412783Y-100138559D01*
X165385675Y-100074165D01*
X165397684Y-100005335D01*
X165412781Y-99981842D01*
X165525498Y-99843607D01*
X165619709Y-99663249D01*
X165675686Y-99467618D01*
X165686300Y-99348237D01*
X165686299Y-98232164D01*
X165675686Y-98112782D01*
X165638240Y-97981914D01*
X165619710Y-97917154D01*
X165619709Y-97917153D01*
X165619709Y-97917151D01*
X165525498Y-97736793D01*
X165473484Y-97673003D01*
X165396909Y-97579090D01*
X165276358Y-97480795D01*
X165239207Y-97450502D01*
X165058849Y-97356291D01*
X165058848Y-97356290D01*
X165058845Y-97356289D01*
X164941629Y-97322750D01*
X164863218Y-97300314D01*
X164863215Y-97300313D01*
X164863213Y-97300313D01*
X164790431Y-97293842D01*
X164743837Y-97289700D01*
X164743833Y-97289700D01*
X163594634Y-97289700D01*
X163575237Y-97288173D01*
X163549395Y-97284080D01*
X163363897Y-97254700D01*
X163363892Y-97254700D01*
X160814897Y-97254700D01*
X160747858Y-97235015D01*
X160702103Y-97182211D01*
X160692159Y-97113053D01*
X160721184Y-97049497D01*
X160727216Y-97043019D01*
X161145744Y-96624491D01*
X162471513Y-95298721D01*
X162471516Y-95298720D01*
X162583320Y-95186916D01*
X162633439Y-95100104D01*
X162662377Y-95049985D01*
X162703300Y-94897258D01*
X162703300Y-94739143D01*
X162703300Y-91124498D01*
X162722985Y-91057459D01*
X162754414Y-91024180D01*
X162895651Y-90921567D01*
X163045963Y-90771255D01*
X163045965Y-90771251D01*
X163045968Y-90771249D01*
X163170907Y-90599283D01*
X163170906Y-90599283D01*
X163170910Y-90599279D01*
X163267416Y-90409875D01*
X163333105Y-90207706D01*
X163366359Y-89997750D01*
X163366359Y-89785176D01*
X163333105Y-89575220D01*
X163270499Y-89382542D01*
X163270360Y-89377665D01*
X163267920Y-89373436D01*
X163269372Y-89343081D01*
X163268505Y-89312706D01*
X163271026Y-89308524D01*
X163271260Y-89303646D01*
X163288893Y-89278895D01*
X163304585Y-89252873D01*
X163309745Y-89249626D01*
X163311801Y-89246741D01*
X163324167Y-89240552D01*
X163342370Y-89229100D01*
X163349209Y-89226363D01*
X163426785Y-89205577D01*
X163476904Y-89176639D01*
X163563716Y-89126520D01*
X163675520Y-89014716D01*
X163675520Y-89014714D01*
X163685728Y-89004507D01*
X163685729Y-89004504D01*
X164361320Y-88328916D01*
X164440377Y-88191984D01*
X164481301Y-88039257D01*
X164481301Y-87881142D01*
X164481301Y-87873547D01*
X164481300Y-87873529D01*
X164481300Y-82293145D01*
X164481300Y-82293143D01*
X164440377Y-82140416D01*
X164440377Y-82140415D01*
X164407633Y-82083701D01*
X164361320Y-82003484D01*
X164249516Y-81891680D01*
X164249515Y-81891679D01*
X164245185Y-81887349D01*
X164245174Y-81887339D01*
X161066390Y-78708555D01*
X161066388Y-78708552D01*
X160947517Y-78589681D01*
X160947516Y-78589680D01*
X160860704Y-78539560D01*
X160860704Y-78539559D01*
X160860700Y-78539558D01*
X160810585Y-78510623D01*
X160657857Y-78469699D01*
X160499743Y-78469699D01*
X160492147Y-78469699D01*
X160492131Y-78469700D01*
X144155469Y-78469700D01*
X144155453Y-78469699D01*
X144147857Y-78469699D01*
X143989743Y-78469699D01*
X143882387Y-78498465D01*
X143837010Y-78510624D01*
X143837009Y-78510625D01*
X143786896Y-78539559D01*
X143786895Y-78539560D01*
X143743489Y-78564620D01*
X143700085Y-78589679D01*
X143700082Y-78589681D01*
X141683281Y-80606482D01*
X141683279Y-80606485D01*
X141633161Y-80693294D01*
X141633159Y-80693296D01*
X141604225Y-80743409D01*
X141604224Y-80743410D01*
X141604223Y-80743415D01*
X141563299Y-80896143D01*
X141563299Y-81054257D01*
X141563299Y-81054259D01*
X141563300Y-81064253D01*
X141563300Y-113019530D01*
X141563299Y-113019548D01*
X141563299Y-113185254D01*
X141563298Y-113185254D01*
X140811244Y-113185254D01*
X140817320Y-79917116D01*
X140817333Y-79917071D01*
X140817333Y-79855202D01*
X140817599Y-79847121D01*
X140824641Y-79739700D01*
X140834252Y-79593081D01*
X140836369Y-79577005D01*
X140877547Y-79370001D01*
X140885248Y-79331288D01*
X140889439Y-79315643D01*
X140969974Y-79078404D01*
X140976181Y-79063421D01*
X140978718Y-79058276D01*
X141086993Y-78838721D01*
X141095085Y-78824706D01*
X141234296Y-78616367D01*
X141244142Y-78603536D01*
X141409341Y-78415167D01*
X141420799Y-78403709D01*
X141609173Y-78238513D01*
X141622017Y-78228658D01*
X141830330Y-78089472D01*
X141844376Y-78081363D01*
X141854343Y-78076448D01*
X142069066Y-77970561D01*
X142084042Y-77964358D01*
X142321288Y-77883828D01*
X142336926Y-77879637D01*
X142582659Y-77830761D01*
X142598721Y-77828647D01*
X142853693Y-77811938D01*
X142861750Y-77811674D01*
X142922719Y-77811675D01*
X142922772Y-77811660D01*
X167271190Y-77806790D01*
X167279279Y-77807055D01*
G37*
%TD.AperFunction*%
%TD*%
M02*
