G04*
G04 #@! TF.GenerationSoftware,Altium Limited,Altium Designer,25.6.2 (33)*
G04*
G04 Layer_Physical_Order=2*
G04 Layer_Color=16711680*
%FSLAX25Y25*%
%MOIN*%
G70*
G04*
G04 #@! TF.SameCoordinates,33421173-23DC-421C-8ACE-01F160C91051*
G04*
G04*
G04 #@! TF.FilePolarity,Positive*
G04*
G01*
G75*
%ADD73C,0.03000*%
%ADD74C,0.02000*%
%ADD76C,0.06000*%
%ADD77C,0.05000*%
%ADD79C,0.07087*%
%ADD80R,0.05906X0.05906*%
%ADD81C,0.06000*%
%ADD82O,0.06299X0.07874*%
%ADD83C,0.05906*%
%ADD84C,0.06693*%
%AMCUSTOMSHAPE85*
4,1,4,0.05906,0.05906,-0.19149,0.05906,-0.19149,-0.05906,0.05906,-0.05906,0.05906,0.05906,0.0*%
%ADD85CUSTOMSHAPE85*%

%ADD86R,0.05906X0.05906*%
%ADD87C,0.08661*%
%AMCUSTOMSHAPE88*
4,1,4,-0.05906,-0.05906,0.19149,-0.05906,0.19149,0.05906,-0.05906,0.05906,-0.05906,-0.05906,0.0*%
%ADD88CUSTOMSHAPE88*%

%ADD89C,0.00984*%
%ADD90C,0.03937*%
%ADD91C,0.47244*%
%AMCUSTOMSHAPE92*
4,1,4,0.03750,-0.02008,-0.16361,-0.02008,-0.16361,0.02008,0.03750,0.02008,0.03750,-0.02008,0.0*%
%ADD92CUSTOMSHAPE92*%

%AMCUSTOMSHAPE93*
4,1,4,0.03750,-0.02008,-0.16364,-0.02008,-0.16364,0.02008,0.03750,0.02008,0.03750,-0.02008,0.0*%
%ADD93CUSTOMSHAPE93*%

%AMCUSTOMSHAPE94*
4,1,4,0.03750,-0.02008,-0.16365,-0.02008,-0.16365,0.02008,0.03750,0.02008,0.03750,-0.02008,0.0*%
%ADD94CUSTOMSHAPE94*%

%AMCUSTOMSHAPE95*
4,1,4,0.03750,-0.02008,-0.16373,-0.02008,-0.16373,0.02008,0.03750,0.02008,0.03750,-0.02008,0.0*%
%ADD95CUSTOMSHAPE95*%

%AMCUSTOMSHAPE96*
4,1,4,0.16360,-0.02008,-0.03750,-0.02008,-0.03750,0.02008,0.16360,0.02008,0.16360,-0.02008,0.0*%
%ADD96CUSTOMSHAPE96*%

%AMCUSTOMSHAPE97*
4,1,4,0.16354,-0.02008,-0.03750,-0.02008,-0.03750,0.02008,0.16354,0.02008,0.16354,-0.02008,0.0*%
%ADD97CUSTOMSHAPE97*%

%AMCUSTOMSHAPE98*
4,1,4,0.16355,-0.02008,-0.03750,-0.02008,-0.03750,0.02008,0.16355,0.02008,0.16355,-0.02008,0.0*%
%ADD98CUSTOMSHAPE98*%

%AMCUSTOMSHAPE99*
4,1,4,0.16351,-0.02008,-0.03750,-0.02008,-0.03750,0.02008,0.16351,0.02008,0.16351,-0.02008,0.0*%
%ADD99CUSTOMSHAPE99*%

%AMCUSTOMSHAPE100*
4,1,4,0.16356,-0.02008,-0.03750,-0.02008,-0.03750,0.02008,0.16356,0.02008,0.16356,-0.02008,0.0*%
%ADD100CUSTOMSHAPE100*%

%AMCUSTOMSHAPE101*
4,1,4,0.16352,-0.02008,-0.03750,-0.02008,-0.03750,0.02008,0.16352,0.02008,0.16352,-0.02008,0.0*%
%ADD101CUSTOMSHAPE101*%

%AMCUSTOMSHAPE102*
4,1,4,0.16366,-0.02008,-0.03750,-0.02008,-0.03750,0.02008,0.16366,0.02008,0.16366,-0.02008,0.0*%
%ADD102CUSTOMSHAPE102*%

%AMCUSTOMSHAPE103*
4,1,4,0.03750,-0.02008,-0.16371,-0.02008,-0.16371,0.02008,0.03750,0.02008,0.03750,-0.02008,0.0*%
%ADD103CUSTOMSHAPE103*%

%AMCUSTOMSHAPE104*
4,1,4,0.16247,-0.02008,-0.03750,-0.02008,-0.03750,0.02008,0.16247,0.02008,0.16247,-0.02008,0.0*%
%ADD104CUSTOMSHAPE104*%

%AMCUSTOMSHAPE105*
4,1,4,0.03750,-0.02008,-0.16371,-0.02008,-0.16371,0.02008,0.03750,0.02008,0.03750,-0.02008,0.0*%
%ADD105CUSTOMSHAPE105*%

%AMCUSTOMSHAPE106*
4,1,4,0.03750,-0.02008,-0.16366,-0.02008,-0.16366,0.02008,0.03750,0.02008,0.03750,-0.02008,0.0*%
%ADD106CUSTOMSHAPE106*%

%AMCUSTOMSHAPE107*
4,1,4,0.03750,-0.02008,-0.16362,-0.02008,-0.16362,0.02008,0.03750,0.02008,0.03750,-0.02008,0.0*%
%ADD107CUSTOMSHAPE107*%

%AMCUSTOMSHAPE108*
4,1,4,0.16365,-0.02008,-0.03750,-0.02008,-0.03750,0.02008,0.16365,0.02008,0.16365,-0.02008,0.0*%
%ADD108CUSTOMSHAPE108*%

%AMCUSTOMSHAPE109*
4,1,4,0.03750,-0.02008,-0.16369,-0.02008,-0.16369,0.02008,0.03750,0.02008,0.03750,-0.02008,0.0*%
%ADD109CUSTOMSHAPE109*%

%AMCUSTOMSHAPE110*
4,1,4,0.03750,-0.02008,-0.16368,-0.02008,-0.16368,0.02008,0.03750,0.02008,0.03750,-0.02008,0.0*%
%ADD110CUSTOMSHAPE110*%

%AMCUSTOMSHAPE111*
4,1,4,0.16366,-0.02008,-0.03750,-0.02008,-0.03750,0.02008,0.16366,0.02008,0.16366,-0.02008,0.0*%
%ADD111CUSTOMSHAPE111*%

%AMCUSTOMSHAPE112*
4,1,4,0.03750,-0.02008,-0.16372,-0.02008,-0.16372,0.02008,0.03750,0.02008,0.03750,-0.02008,0.0*%
%ADD112CUSTOMSHAPE112*%

%AMCUSTOMSHAPE113*
4,1,4,0.16361,-0.02008,-0.03750,-0.02008,-0.03750,0.02008,0.16361,0.02008,0.16361,-0.02008,0.0*%
%ADD113CUSTOMSHAPE113*%

%AMCUSTOMSHAPE114*
4,1,4,0.03750,-0.02008,-0.16374,-0.02008,-0.16374,0.02008,0.03750,0.02008,0.03750,-0.02008,0.0*%
%ADD114CUSTOMSHAPE114*%

%AMCUSTOMSHAPE115*
4,1,4,0.03750,-0.02008,-0.16367,-0.02008,-0.16367,0.02008,0.03750,0.02008,0.03750,-0.02008,0.0*%
%ADD115CUSTOMSHAPE115*%

%AMCUSTOMSHAPE116*
4,1,4,0.03750,-0.02008,-0.16374,-0.02008,-0.16374,0.02008,0.03750,0.02008,0.03750,-0.02008,0.0*%
%ADD116CUSTOMSHAPE116*%

%AMCUSTOMSHAPE117*
4,1,4,0.16362,-0.02008,-0.03750,-0.02008,-0.03750,0.02008,0.16362,0.02008,0.16362,-0.02008,0.0*%
%ADD117CUSTOMSHAPE117*%

%AMCUSTOMSHAPE118*
4,1,4,0.03750,-0.02008,-0.16363,-0.02008,-0.16363,0.02008,0.03750,0.02008,0.03750,-0.02008,0.0*%
%ADD118CUSTOMSHAPE118*%

%AMCUSTOMSHAPE119*
4,1,4,0.03750,-0.02008,-0.16370,-0.02008,-0.16370,0.02008,0.03750,0.02008,0.03750,-0.02008,0.0*%
%ADD119CUSTOMSHAPE119*%

%AMCUSTOMSHAPE120*
4,1,4,0.16365,-0.02008,-0.03750,-0.02008,-0.03750,0.02008,0.16365,0.02008,0.16365,-0.02008,0.0*%
%ADD120CUSTOMSHAPE120*%

%AMCUSTOMSHAPE121*
4,1,4,0.16353,-0.02008,-0.03750,-0.02008,-0.03750,0.02008,0.16353,0.02008,0.16353,-0.02008,0.0*%
%ADD121CUSTOMSHAPE121*%

%AMCUSTOMSHAPE122*
4,1,4,0.16357,-0.02008,-0.03750,-0.02008,-0.03750,0.02008,0.16357,0.02008,0.16357,-0.02008,0.0*%
%ADD122CUSTOMSHAPE122*%

%AMCUSTOMSHAPE123*
4,1,4,0.16353,-0.02008,-0.03750,-0.02008,-0.03750,0.02008,0.16353,0.02008,0.16353,-0.02008,0.0*%
%ADD123CUSTOMSHAPE123*%

%AMCUSTOMSHAPE124*
4,1,4,0.16362,-0.02008,-0.03750,-0.02008,-0.03750,0.02008,0.16362,0.02008,0.16362,-0.02008,0.0*%
%ADD124CUSTOMSHAPE124*%

%AMCUSTOMSHAPE125*
4,1,4,0.16359,-0.02008,-0.03750,-0.02008,-0.03750,0.02008,0.16359,0.02008,0.16359,-0.02008,0.0*%
%ADD125CUSTOMSHAPE125*%

%AMCUSTOMSHAPE126*
4,1,4,0.16356,-0.02008,-0.03750,-0.02008,-0.03750,0.02008,0.16356,0.02008,0.16356,-0.02008,0.0*%
%ADD126CUSTOMSHAPE126*%

%AMCUSTOMSHAPE127*
4,1,4,0.03750,-0.02008,-0.16368,-0.02008,-0.16368,0.02008,0.03750,0.02008,0.03750,-0.02008,0.0*%
%ADD127CUSTOMSHAPE127*%

%AMCUSTOMSHAPE128*
4,1,4,0.16364,-0.02008,-0.03750,-0.02008,-0.03750,0.02008,0.16364,0.02008,0.16364,-0.02008,0.0*%
%ADD128CUSTOMSHAPE128*%

%AMCUSTOMSHAPE129*
4,1,4,0.03750,-0.02008,-0.16364,-0.02008,-0.16364,0.02008,0.03750,0.02008,0.03750,-0.02008,0.0*%
%ADD129CUSTOMSHAPE129*%

%AMCUSTOMSHAPE130*
4,1,4,0.03750,-0.02008,-0.16367,-0.02008,-0.16367,0.02008,0.03750,0.02008,0.03750,-0.02008,0.0*%
%ADD130CUSTOMSHAPE130*%

%AMCUSTOMSHAPE131*
4,1,4,0.03750,-0.02008,-0.16361,-0.02008,-0.16361,0.02008,0.03750,0.02008,0.03750,-0.02008,0.0*%
%ADD131CUSTOMSHAPE131*%

%AMCUSTOMSHAPE132*
4,1,4,-0.07874,0.15748,-0.07874,-0.15748,0.27270,-0.15748,0.27270,0.15748,-0.07874,0.15748,0.0*%
%ADD132CUSTOMSHAPE132*%

%AMCUSTOMSHAPE133*
4,1,4,-0.27580,0.15748,-0.27580,-0.15748,0.07874,-0.15748,0.07874,0.15748,-0.27580,0.15748,0.0*%
%ADD133CUSTOMSHAPE133*%

G36*
X530165Y488663D02*
X531052D01*
X532791Y488317D01*
X534428Y487639D01*
X535903Y486654D01*
X537156Y485400D01*
X538141Y483926D01*
X538819Y482289D01*
X539165Y480550D01*
Y479663D01*
X539165D01*
X539165Y225547D01*
X538165Y225133D01*
X537923Y225375D01*
X537246Y225766D01*
X536600Y225939D01*
Y223000D01*
X535600D01*
Y225939D01*
X534954Y225766D01*
X534277Y225375D01*
X533725Y224823D01*
X533377Y224221D01*
X533272Y224134D01*
X532344Y223959D01*
X531602Y224625D01*
Y232457D01*
X532602Y233062D01*
X532968Y232910D01*
X533914D01*
X534788Y233272D01*
X535457Y233941D01*
X535819Y234815D01*
Y235761D01*
X535457Y236635D01*
X534788Y237304D01*
X533914Y237666D01*
X532968D01*
X532602Y237514D01*
X531602Y238119D01*
Y239150D01*
X532602Y239755D01*
X532968Y239603D01*
X533914D01*
X534788Y239965D01*
X535457Y240634D01*
X535819Y241508D01*
Y242454D01*
X535457Y243328D01*
X534788Y243997D01*
X533914Y244359D01*
X532968D01*
X532602Y244208D01*
X531602Y244812D01*
Y366937D01*
X531602Y366937D01*
X531447Y367717D01*
X531005Y368379D01*
X531005Y368379D01*
X515942Y383442D01*
X515280Y383884D01*
X514500Y384039D01*
X450345D01*
X441942Y392442D01*
X441280Y392884D01*
X440500Y393039D01*
X412000D01*
X411220Y392884D01*
X410558Y392442D01*
X409456Y391339D01*
X409352Y391250D01*
X409257Y391180D01*
X409169Y391123D01*
X409099Y391085D01*
X409061Y391068D01*
X388965D01*
X388575Y390991D01*
X388244Y390770D01*
X388023Y390439D01*
X387945Y390049D01*
Y386033D01*
X388023Y385643D01*
X388244Y385312D01*
X388575Y385091D01*
X388965Y385013D01*
X409069D01*
X409175Y385034D01*
X409181Y385034D01*
X409193Y385038D01*
X409460Y385091D01*
X409790Y385312D01*
X409870Y385431D01*
X411844Y387961D01*
X412845Y388961D01*
X439655D01*
X442905Y385712D01*
X442691Y385285D01*
X442315Y384887D01*
X441500Y385049D01*
X429792D01*
X429753Y385052D01*
X429496Y385091D01*
X429262Y385143D01*
X429049Y385208D01*
X428858Y385284D01*
X428685Y385371D01*
X428530Y385468D01*
X428389Y385575D01*
X428223Y385728D01*
X428155Y385770D01*
X427790Y386136D01*
X426754Y386734D01*
X425598Y387043D01*
X424402D01*
X423246Y386734D01*
X422210Y386136D01*
X421364Y385290D01*
X420766Y384254D01*
X420457Y383098D01*
Y381902D01*
X420766Y380746D01*
X421364Y379710D01*
X422210Y378865D01*
X423246Y378266D01*
X424266Y377993D01*
Y377007D01*
X423246Y376734D01*
X422210Y376135D01*
X421364Y375290D01*
X420766Y374254D01*
X420457Y373098D01*
Y371902D01*
X420766Y370746D01*
X421364Y369710D01*
X422210Y368864D01*
X423246Y368266D01*
X424402Y367957D01*
X425598D01*
X426754Y368266D01*
X427790Y368864D01*
X428636Y369710D01*
X429234Y370746D01*
X429543Y371902D01*
Y373098D01*
X429234Y374254D01*
X428636Y375290D01*
X427790Y376135D01*
X426754Y376734D01*
X425734Y377007D01*
Y377993D01*
X426754Y378266D01*
X427790Y378865D01*
X428155Y379230D01*
X428223Y379272D01*
X428389Y379425D01*
X428530Y379532D01*
X428685Y379629D01*
X428858Y379716D01*
X429049Y379792D01*
X429262Y379857D01*
X429496Y379909D01*
X429753Y379948D01*
X429792Y379951D01*
X440444D01*
X446198Y374198D01*
X447024Y373645D01*
X448000Y373451D01*
X491978D01*
X492354Y373234D01*
X493109Y373031D01*
X493891D01*
X494646Y373234D01*
X495022Y373451D01*
X500877D01*
X501852Y373645D01*
X502310Y373951D01*
X507444D01*
X519951Y361444D01*
Y297056D01*
X511944Y289049D01*
X491022D01*
X490646Y289266D01*
X489891Y289469D01*
X489109D01*
X488354Y289266D01*
X487677Y288875D01*
X487125Y288323D01*
X486734Y287646D01*
X486531Y286891D01*
Y286109D01*
X486734Y285354D01*
X487125Y284677D01*
X487677Y284125D01*
X488354Y283734D01*
X489109Y283531D01*
X489891D01*
X490646Y283734D01*
X491022Y283951D01*
X513000D01*
X513975Y284145D01*
X514802Y284698D01*
X524302Y294198D01*
X524855Y295024D01*
X525049Y296000D01*
Y362500D01*
X524855Y363475D01*
X524302Y364302D01*
X510302Y378302D01*
X509476Y378855D01*
X508943Y378961D01*
X509042Y379961D01*
X513655D01*
X527524Y366092D01*
Y266774D01*
X526524Y266470D01*
X526502Y266502D01*
X518802Y274202D01*
X517976Y274755D01*
X517000Y274949D01*
X508422D01*
X508046Y275166D01*
X507291Y275368D01*
X506509D01*
X505754Y275166D01*
X505077Y274775D01*
X504525Y274223D01*
X504134Y273546D01*
X503932Y272791D01*
Y272009D01*
X504134Y271254D01*
X504525Y270577D01*
X505077Y270025D01*
X505754Y269634D01*
X506509Y269431D01*
X507291D01*
X508046Y269634D01*
X508422Y269851D01*
X515944D01*
X522151Y263644D01*
Y223600D01*
X522345Y222624D01*
X522898Y221798D01*
X529417Y215279D01*
X529372Y215002D01*
X529299Y214725D01*
X529222Y214533D01*
X529157Y214423D01*
X529119Y214380D01*
X529109Y214374D01*
X529101Y214371D01*
X528950Y214354D01*
X528944Y214353D01*
X528047D01*
Y213379D01*
X528040Y213341D01*
X528047Y213303D01*
Y213250D01*
X528046Y213231D01*
X528047Y213226D01*
Y206447D01*
X535161D01*
Y189745D01*
X531058Y185642D01*
X530616Y184980D01*
X530461Y184200D01*
Y168475D01*
X530454Y168413D01*
X530437Y168302D01*
X530418Y168214D01*
X530399Y168151D01*
X530384Y168114D01*
X530381Y168107D01*
X530358Y168080D01*
X530323Y168021D01*
X530125Y167823D01*
X529734Y167146D01*
X529531Y166391D01*
Y165609D01*
X529734Y164854D01*
X530125Y164177D01*
X530677Y163625D01*
X531354Y163234D01*
X532109Y163031D01*
X532891D01*
X533646Y163234D01*
X534323Y163625D01*
X534875Y164177D01*
X535266Y164854D01*
X535468Y165609D01*
Y166391D01*
X535266Y167146D01*
X534875Y167823D01*
X534677Y168021D01*
X534643Y168080D01*
X534619Y168107D01*
X534616Y168114D01*
X534601Y168151D01*
X534582Y168214D01*
X534563Y168302D01*
X534547Y168401D01*
X534539Y168505D01*
Y183355D01*
X538165Y186981D01*
X539165Y186567D01*
Y111839D01*
Y110952D01*
X538820Y109213D01*
X538141Y107576D01*
X537156Y106101D01*
X535903Y104848D01*
X534428Y103863D01*
X532791Y103184D01*
X531052Y102839D01*
X530165D01*
Y102839D01*
X462642D01*
X462440Y103116D01*
X462244Y103839D01*
X484553Y126147D01*
X484553Y126147D01*
X485194Y126983D01*
X485597Y127956D01*
X485735Y129000D01*
X485735Y129000D01*
Y141600D01*
X485597Y142644D01*
X485194Y143617D01*
X484553Y144453D01*
X483717Y145094D01*
X482744Y145497D01*
X481700Y145634D01*
X480656Y145497D01*
X479683Y145094D01*
X478847Y144453D01*
X478206Y143617D01*
X477803Y142644D01*
X477666Y141600D01*
Y130671D01*
X457529Y110535D01*
X359646D01*
X359263Y111458D01*
X379170Y131365D01*
X379699Y131214D01*
X380132Y130912D01*
Y130309D01*
X380334Y129554D01*
X380725Y128877D01*
X381277Y128325D01*
X381954Y127934D01*
X382709Y127732D01*
X383491D01*
X384246Y127934D01*
X384695Y128193D01*
X385309Y127393D01*
X383908Y125992D01*
X383860Y125953D01*
X383769Y125886D01*
X383693Y125838D01*
X383635Y125807D01*
X383599Y125791D01*
X383591Y125788D01*
X383556Y125786D01*
X383490Y125768D01*
X383209D01*
X382454Y125566D01*
X381777Y125175D01*
X381225Y124623D01*
X380834Y123946D01*
X380631Y123191D01*
Y122409D01*
X380834Y121654D01*
X381225Y120977D01*
X381777Y120425D01*
X382454Y120034D01*
X383209Y119832D01*
X383991D01*
X384746Y120034D01*
X385423Y120425D01*
X385975Y120977D01*
X386366Y121654D01*
X386568Y122409D01*
Y122690D01*
X386586Y122756D01*
X386588Y122791D01*
X386591Y122799D01*
X386607Y122836D01*
X386638Y122893D01*
X386686Y122969D01*
X386746Y123050D01*
X386813Y123129D01*
X440942Y177258D01*
X441384Y177920D01*
X441539Y178700D01*
Y253255D01*
X460942Y272658D01*
X461384Y273320D01*
X461539Y274100D01*
Y344055D01*
X473256Y355773D01*
X473699Y356434D01*
X473854Y357215D01*
Y358617D01*
X473866Y358748D01*
X473904Y358972D01*
X473954Y359174D01*
X474015Y359355D01*
X474087Y359516D01*
X474168Y359661D01*
X474259Y359791D01*
X474362Y359909D01*
X474514Y360053D01*
X474516Y360055D01*
X474774Y360253D01*
X475439Y361120D01*
X475857Y362129D01*
X476000Y363213D01*
Y364787D01*
X475857Y365871D01*
X475439Y366880D01*
X474774Y367747D01*
X473907Y368412D01*
X472898Y368830D01*
X471815Y368973D01*
X470731Y368830D01*
X469722Y368412D01*
X468855Y367747D01*
X468190Y366880D01*
X467772Y365871D01*
X467629Y364787D01*
Y363213D01*
X467772Y362129D01*
X468190Y361120D01*
X468855Y360253D01*
X469113Y360055D01*
X469115Y360053D01*
X469267Y359909D01*
X469370Y359790D01*
X469461Y359661D01*
X469542Y359516D01*
X469614Y359355D01*
X469675Y359174D01*
X469726Y358972D01*
X469763Y358748D01*
X469775Y358617D01*
Y358059D01*
X458661Y346945D01*
X457641Y347331D01*
X457560Y347976D01*
X463257Y353673D01*
X463698Y354334D01*
X463854Y355115D01*
Y358617D01*
X463866Y358748D01*
X463904Y358972D01*
X463954Y359174D01*
X464015Y359355D01*
X464087Y359516D01*
X464168Y359661D01*
X464259Y359791D01*
X464362Y359909D01*
X464514Y360053D01*
X464516Y360055D01*
X464774Y360253D01*
X465439Y361120D01*
X465857Y362129D01*
X466000Y363213D01*
Y364787D01*
X465857Y365871D01*
X465439Y366880D01*
X464774Y367747D01*
X463907Y368412D01*
X462898Y368830D01*
X461815Y368973D01*
X460731Y368830D01*
X459722Y368412D01*
X458855Y367747D01*
X458190Y366880D01*
X457772Y365871D01*
X457629Y364787D01*
Y363213D01*
X457772Y362129D01*
X458190Y361120D01*
X458855Y360253D01*
X459114Y360055D01*
X459115Y360053D01*
X459267Y359909D01*
X459370Y359790D01*
X459461Y359661D01*
X459542Y359516D01*
X459614Y359355D01*
X459675Y359174D01*
X459726Y358972D01*
X459763Y358748D01*
X459775Y358617D01*
Y355959D01*
X455287Y351471D01*
X454364Y351854D01*
Y358030D01*
X454380Y358210D01*
X454436Y358587D01*
X454515Y358965D01*
X454617Y359343D01*
X454743Y359722D01*
X454888Y360090D01*
X455271Y360877D01*
X455328Y360975D01*
X455439Y361120D01*
X455539Y361361D01*
X455561Y361394D01*
X455568Y361432D01*
X455857Y362129D01*
X456000Y363213D01*
Y364787D01*
X455857Y365871D01*
X455439Y366880D01*
X454774Y367747D01*
X453907Y368412D01*
X452898Y368830D01*
X451815Y368973D01*
X450731Y368830D01*
X449722Y368412D01*
X448855Y367747D01*
X448190Y366880D01*
X447772Y365871D01*
X447629Y364787D01*
Y363213D01*
X447772Y362129D01*
X448061Y361432D01*
X448068Y361394D01*
X448090Y361361D01*
X448112Y361309D01*
X448117Y361293D01*
X448123Y361281D01*
X448190Y361120D01*
X448267Y361020D01*
X448568Y360472D01*
X448736Y360102D01*
X448886Y359721D01*
X449012Y359343D01*
X449114Y358965D01*
X449193Y358587D01*
X449250Y358210D01*
X449266Y358030D01*
Y286370D01*
X426698Y263802D01*
X426145Y262976D01*
X425951Y262000D01*
Y185356D01*
X355176Y114581D01*
X271901D01*
X271518Y115504D01*
X271744Y115730D01*
X271744Y115730D01*
X272186Y116391D01*
X272341Y117172D01*
Y117643D01*
X272875Y118177D01*
X273266Y118854D01*
X273468Y119609D01*
Y120391D01*
X273266Y121146D01*
X272875Y121823D01*
X272323Y122375D01*
X271646Y122766D01*
X270891Y122968D01*
X270109D01*
X269354Y122766D01*
X268677Y122375D01*
X268125Y121823D01*
X267734Y121146D01*
X267531Y120391D01*
Y119609D01*
X267684Y119039D01*
X267398Y118454D01*
X267050Y118039D01*
X263950D01*
X263602Y118454D01*
X263316Y119039D01*
X263469Y119609D01*
Y120391D01*
X263266Y121146D01*
X262875Y121823D01*
X262323Y122375D01*
X261646Y122766D01*
X260891Y122968D01*
X260109D01*
X259354Y122766D01*
X258677Y122375D01*
X258479Y122177D01*
X258420Y122143D01*
X258393Y122119D01*
X258386Y122116D01*
X258349Y122101D01*
X258286Y122082D01*
X258198Y122063D01*
X258099Y122047D01*
X257995Y122039D01*
X243845D01*
X242239Y123645D01*
Y127223D01*
X243239Y127800D01*
X243354Y127734D01*
X244109Y127532D01*
X244891D01*
X245646Y127734D01*
X246323Y128125D01*
X246875Y128677D01*
X247266Y129354D01*
X247468Y130109D01*
Y130891D01*
X247266Y131646D01*
X246875Y132323D01*
X246677Y132521D01*
X246642Y132580D01*
X246619Y132607D01*
X246616Y132614D01*
X246601Y132651D01*
X246582Y132714D01*
X246563Y132802D01*
X246547Y132901D01*
X246539Y133005D01*
Y174591D01*
X247532Y174609D01*
X247734Y173854D01*
X248125Y173177D01*
X248677Y172625D01*
X249354Y172234D01*
X250109Y172031D01*
X250891D01*
X251646Y172234D01*
X252323Y172625D01*
X252521Y172823D01*
X252580Y172857D01*
X252607Y172881D01*
X252614Y172884D01*
X252651Y172899D01*
X252714Y172918D01*
X252802Y172937D01*
X252901Y172953D01*
X253005Y172961D01*
X257050D01*
X257398Y172546D01*
X257684Y171961D01*
X257531Y171391D01*
Y170609D01*
X257734Y169854D01*
X258125Y169177D01*
X258677Y168625D01*
X259354Y168234D01*
X260109Y168032D01*
X260891D01*
X261646Y168234D01*
X262323Y168625D01*
X262521Y168823D01*
X262580Y168858D01*
X262607Y168881D01*
X262614Y168884D01*
X262651Y168899D01*
X262714Y168918D01*
X262802Y168937D01*
X262901Y168953D01*
X263005Y168961D01*
X267050D01*
X267398Y168546D01*
X267684Y167961D01*
X267531Y167391D01*
Y166609D01*
X267734Y165854D01*
X268125Y165177D01*
X268677Y164625D01*
X269354Y164234D01*
X270109Y164032D01*
X270891D01*
X271646Y164234D01*
X272323Y164625D01*
X272521Y164823D01*
X272580Y164857D01*
X272607Y164881D01*
X272614Y164884D01*
X272651Y164899D01*
X272714Y164918D01*
X272802Y164937D01*
X272901Y164953D01*
X273005Y164961D01*
X282760D01*
X283142Y164037D01*
X279058Y159952D01*
X278616Y159291D01*
X278461Y158510D01*
Y152902D01*
X278453Y152803D01*
X278438Y152701D01*
X278418Y152612D01*
X278400Y152547D01*
X278384Y152507D01*
X278380Y152498D01*
X278357Y152471D01*
X278326Y152417D01*
X278154Y152245D01*
X277764Y151568D01*
X277561Y150813D01*
Y150032D01*
X277764Y149277D01*
X278154Y148600D01*
X278707Y148047D01*
X279384Y147656D01*
X280139Y147454D01*
X280921D01*
X281676Y147656D01*
X282352Y148047D01*
X282905Y148600D01*
X283296Y149277D01*
X283498Y150032D01*
Y150813D01*
X283296Y151568D01*
X282905Y152245D01*
X282679Y152471D01*
X282641Y152534D01*
X282618Y152560D01*
X282616Y152564D01*
X282601Y152600D01*
X282583Y152661D01*
X282563Y152747D01*
X282548Y152844D01*
X282539Y152951D01*
Y157666D01*
X325455Y200582D01*
X325504Y200655D01*
X325572Y200709D01*
X327059Y202472D01*
X327210Y202746D01*
X327384Y203006D01*
X327401Y203092D01*
X327443Y203169D01*
X327478Y203480D01*
X327539Y203787D01*
Y247155D01*
X356385Y276002D01*
X387417D01*
X387563Y275989D01*
X387776Y275953D01*
X387926Y275913D01*
X387966Y275897D01*
X388017Y275643D01*
X388238Y275312D01*
X388568Y275091D01*
X388682Y275068D01*
X388683Y275068D01*
X388684Y275068D01*
X388959Y275013D01*
X409083D01*
X409473Y275091D01*
X409804Y275312D01*
X410025Y275643D01*
X410102Y276033D01*
Y280049D01*
X410025Y280439D01*
X409804Y280769D01*
X409473Y280991D01*
X409083Y281068D01*
X388959D01*
X388684Y281013D01*
X388683Y281013D01*
X388682Y281013D01*
X388568Y280991D01*
X388238Y280769D01*
X388017Y280439D01*
X387966Y280185D01*
X387926Y280168D01*
X387776Y280128D01*
X387563Y280093D01*
X387417Y280080D01*
X355541D01*
X355541Y280080D01*
X354760Y279925D01*
X354099Y279483D01*
X354099Y279483D01*
X347504Y272887D01*
X347429Y272896D01*
X346539Y273337D01*
Y285500D01*
X346384Y286280D01*
X345942Y286942D01*
X343442Y289442D01*
X342780Y289884D01*
X342000Y290039D01*
X340633D01*
X340424Y290326D01*
X340909Y291281D01*
X340980Y291326D01*
X350791D01*
X355517Y286599D01*
X356179Y286157D01*
X356959Y286001D01*
X387423D01*
X387569Y285989D01*
X387782Y285953D01*
X387932Y285913D01*
X387972Y285897D01*
X388023Y285643D01*
X388244Y285312D01*
X388575Y285091D01*
X388688Y285068D01*
X388689Y285068D01*
X388690Y285068D01*
X388965Y285013D01*
X409066D01*
X409456Y285091D01*
X409787Y285312D01*
X410008Y285643D01*
X410085Y286033D01*
Y290049D01*
X410008Y290439D01*
X409787Y290770D01*
X409456Y290991D01*
X409066Y291068D01*
X388965D01*
X388690Y291014D01*
X388689Y291013D01*
X388688Y291013D01*
X388575Y290991D01*
X388244Y290770D01*
X388023Y290439D01*
X387972Y290184D01*
X387932Y290168D01*
X387782Y290128D01*
X387569Y290093D01*
X387423Y290080D01*
X357804D01*
X353077Y294807D01*
X352415Y295249D01*
X351635Y295404D01*
X340671D01*
X339770Y295992D01*
Y297500D01*
X335000D01*
X317614D01*
Y295992D01*
X316713Y295404D01*
X315202D01*
X314422Y295249D01*
X313760Y294807D01*
X309039Y290086D01*
X308039Y290500D01*
Y300655D01*
X313345Y305961D01*
X317090D01*
X317237Y305948D01*
X317449Y305913D01*
X317600Y305872D01*
X317639Y305856D01*
X317690Y305602D01*
X317911Y305271D01*
X318242Y305050D01*
X318356Y305028D01*
X318356Y305027D01*
X318357Y305027D01*
X318632Y304973D01*
X338742D01*
X339132Y305050D01*
X339463Y305271D01*
X339684Y305602D01*
X339762Y305992D01*
Y310008D01*
X339684Y310398D01*
X339463Y310729D01*
X339132Y310950D01*
X338742Y311028D01*
X318632D01*
X318357Y310973D01*
X318356Y310973D01*
X318356Y310972D01*
X318242Y310950D01*
X317911Y310729D01*
X317690Y310398D01*
X317639Y310144D01*
X317600Y310128D01*
X317449Y310087D01*
X317237Y310052D01*
X317090Y310039D01*
X312500D01*
X311720Y309884D01*
X311058Y309442D01*
X305539Y303923D01*
X304539Y304337D01*
Y306655D01*
X313845Y315961D01*
X317092D01*
X317239Y315948D01*
X317452Y315913D01*
X317602Y315872D01*
X317642Y315856D01*
X317692Y315602D01*
X317913Y315271D01*
X318244Y315050D01*
X318358Y315027D01*
X318358Y315027D01*
X318359Y315027D01*
X318634Y314972D01*
X338750D01*
X339140Y315050D01*
X339471Y315271D01*
X339692Y315602D01*
X339770Y315992D01*
Y320008D01*
X339692Y320398D01*
X339471Y320729D01*
X339140Y320950D01*
X338750Y321027D01*
X318634D01*
X318359Y320973D01*
X318358Y320973D01*
X318358Y320972D01*
X318244Y320950D01*
X317913Y320729D01*
X317692Y320398D01*
X317642Y320144D01*
X317602Y320128D01*
X317452Y320087D01*
X317239Y320052D01*
X317092Y320039D01*
X313000D01*
X312220Y319884D01*
X311558Y319442D01*
X302336Y310220D01*
X301412Y310602D01*
Y312655D01*
X314718Y325961D01*
X317090D01*
X317237Y325948D01*
X317449Y325913D01*
X317600Y325872D01*
X317639Y325856D01*
X317690Y325602D01*
X317911Y325271D01*
X318242Y325050D01*
X318356Y325027D01*
X318356Y325027D01*
X318357Y325027D01*
X318632Y324973D01*
X338743D01*
X339133Y325050D01*
X339464Y325271D01*
X339685Y325602D01*
X339762Y325992D01*
Y330008D01*
X339685Y330398D01*
X339464Y330729D01*
X339133Y330950D01*
X338743Y331028D01*
X318632D01*
X318357Y330973D01*
X318356Y330973D01*
X318356Y330973D01*
X318242Y330950D01*
X317911Y330729D01*
X317690Y330398D01*
X317639Y330144D01*
X317600Y330128D01*
X317449Y330087D01*
X317237Y330052D01*
X317090Y330039D01*
X313873D01*
X313873Y330039D01*
X313092Y329884D01*
X312431Y329442D01*
X298995Y316006D01*
X298071Y316389D01*
Y323967D01*
X314556Y340451D01*
X316684D01*
X317615Y340008D01*
Y335992D01*
X317693Y335602D01*
X317914Y335271D01*
X318245Y335050D01*
X318635Y334973D01*
X338750D01*
X339140Y335050D01*
X339471Y335271D01*
X339519Y335343D01*
X339624Y335364D01*
X340857Y335451D01*
X366000D01*
X366975Y335645D01*
X367802Y336198D01*
X374302Y342698D01*
X374855Y343525D01*
X375049Y344500D01*
Y347978D01*
X375266Y348354D01*
X375468Y349109D01*
Y349891D01*
X375266Y350646D01*
X374875Y351323D01*
X374323Y351875D01*
X373646Y352266D01*
X372891Y352468D01*
X372109D01*
X371354Y352266D01*
X370677Y351875D01*
X370125Y351323D01*
X369734Y350646D01*
X369531Y349891D01*
Y349109D01*
X369734Y348354D01*
X369951Y347978D01*
Y345556D01*
X364944Y340549D01*
X358550D01*
X358135Y341549D01*
X374302Y357716D01*
X374855Y358543D01*
X375049Y359518D01*
Y376832D01*
X376049Y377246D01*
X382098Y371198D01*
X382925Y370645D01*
X383900Y370451D01*
X387005D01*
X387945Y370049D01*
Y366033D01*
X388023Y365643D01*
X388244Y365312D01*
X388575Y365091D01*
X388965Y365013D01*
X406346D01*
X406434Y365009D01*
X406760Y364960D01*
X407092Y364877D01*
X407430Y364759D01*
X407777Y364602D01*
X408133Y364407D01*
X408497Y364170D01*
X408869Y363891D01*
X409102Y363693D01*
X409629Y363166D01*
Y361979D01*
X409083Y361068D01*
X388962D01*
X388571Y360991D01*
X388241Y360770D01*
X388193Y360698D01*
X388087Y360677D01*
X386854Y360590D01*
X385421D01*
X384446Y360396D01*
X383619Y359843D01*
X380198Y356422D01*
X379645Y355595D01*
X379451Y354620D01*
Y333022D01*
X379234Y332646D01*
X379031Y331891D01*
Y331109D01*
X379234Y330354D01*
X379625Y329677D01*
X380177Y329125D01*
X380854Y328734D01*
X381609Y328532D01*
X382391D01*
X383146Y328734D01*
X383823Y329125D01*
X384375Y329677D01*
X384766Y330354D01*
X384968Y331109D01*
Y331891D01*
X384766Y332646D01*
X384549Y333022D01*
Y353564D01*
X386477Y355492D01*
X387154D01*
X387790Y355447D01*
X388055Y355411D01*
X388193Y355383D01*
X388241Y355312D01*
X388571Y355091D01*
X388962Y355013D01*
X409083D01*
X409629Y354102D01*
Y353322D01*
X409823Y352347D01*
X410200Y351782D01*
X409530Y350985D01*
X409458Y350991D01*
X409068Y351068D01*
X393215D01*
Y348541D01*
X410088D01*
Y350041D01*
X410088Y350049D01*
X410088Y350049D01*
X410010Y350439D01*
X410015Y350466D01*
X410911Y350984D01*
X411068Y350827D01*
X416698Y345198D01*
X417524Y344645D01*
X418500Y344451D01*
X426444D01*
X429764Y341131D01*
X429125Y340396D01*
X428966Y340487D01*
X428448Y340787D01*
X427693Y340989D01*
X426911D01*
X426156Y340787D01*
X425798Y340580D01*
X410899D01*
X410256Y340626D01*
X409992Y340662D01*
X409857Y340690D01*
X409804Y340770D01*
X409473Y340991D01*
X409083Y341068D01*
X388961D01*
X388571Y340991D01*
X388240Y340770D01*
X388019Y340439D01*
X387941Y340049D01*
Y336033D01*
X388019Y335643D01*
X388240Y335312D01*
X388571Y335091D01*
X388961Y335013D01*
X409083D01*
X409473Y335091D01*
X409804Y335312D01*
X409846Y335375D01*
X409954Y335397D01*
X411181Y335482D01*
X425762D01*
X426156Y335254D01*
X426911Y335052D01*
X427693D01*
X428448Y335254D01*
X429125Y335645D01*
X429677Y336198D01*
X430068Y336875D01*
X430270Y337630D01*
Y338411D01*
X430068Y339166D01*
X429769Y339684D01*
X429677Y339843D01*
X430412Y340483D01*
X433451Y337444D01*
Y300056D01*
X414664Y281269D01*
X414111Y280442D01*
X413917Y279466D01*
Y204922D01*
X340276Y131281D01*
X303582D01*
X303049Y131813D01*
Y136301D01*
X303266Y136678D01*
X303468Y137433D01*
Y138214D01*
X303266Y138969D01*
X302875Y139646D01*
X302323Y140199D01*
X301646Y140589D01*
X300891Y140792D01*
X300109D01*
X299354Y140589D01*
X298677Y140199D01*
X298125Y139646D01*
X297734Y138969D01*
X297532Y138214D01*
Y137433D01*
X297734Y136678D01*
X297951Y136301D01*
Y130757D01*
X298145Y129782D01*
X298698Y128955D01*
X300724Y126929D01*
X301550Y126376D01*
X302526Y126182D01*
X341332D01*
X342307Y126376D01*
X343134Y126929D01*
X417128Y200923D01*
X418052Y200541D01*
Y187164D01*
X417835Y186787D01*
X417632Y186032D01*
Y185251D01*
X417835Y184496D01*
X418225Y183819D01*
X418778Y183266D01*
X419455Y182876D01*
X420210Y182673D01*
X420992D01*
X421747Y182876D01*
X422424Y183266D01*
X422976Y183819D01*
X423367Y184496D01*
X423569Y185251D01*
Y186032D01*
X423367Y186787D01*
X423150Y187164D01*
Y272545D01*
X442302Y291698D01*
X442855Y292525D01*
X443049Y293500D01*
Y341500D01*
X442855Y342476D01*
X442302Y343302D01*
X431302Y354302D01*
X430476Y354855D01*
X429500Y355049D01*
X421065D01*
X418820Y357294D01*
Y369129D01*
X418625Y370105D01*
X418073Y370932D01*
X414202Y374802D01*
X413376Y375355D01*
X412400Y375549D01*
X411026D01*
X410102Y376033D01*
Y380049D01*
X410025Y380439D01*
X409804Y380769D01*
X409473Y380991D01*
X409083Y381068D01*
X388962D01*
X388572Y380991D01*
X388241Y380769D01*
X388193Y380698D01*
X388088Y380677D01*
X386855Y380590D01*
X386615D01*
X384349Y382856D01*
Y397144D01*
X386943Y399739D01*
X387943Y399324D01*
Y398541D01*
X405333D01*
X410102D01*
Y400049D01*
X411034Y400492D01*
X411543D01*
X412518Y400686D01*
X413345Y401238D01*
X414027Y401920D01*
X414951Y401538D01*
Y400522D01*
X414734Y400146D01*
X414532Y399391D01*
Y398609D01*
X414734Y397854D01*
X415125Y397177D01*
X415677Y396625D01*
X416354Y396234D01*
X417109Y396031D01*
X417891D01*
X418646Y396234D01*
X419323Y396625D01*
X419875Y397177D01*
X420266Y397854D01*
X420469Y398609D01*
Y399391D01*
X420266Y400146D01*
X420049Y400522D01*
Y416500D01*
X419855Y417476D01*
X419302Y418302D01*
X413113Y424492D01*
X413527Y425492D01*
X516000Y425492D01*
X519451D01*
Y400330D01*
X513070Y393949D01*
X456656D01*
X453549Y397056D01*
Y400118D01*
X453560Y400283D01*
X453610Y400689D01*
X453678Y401063D01*
X453763Y401406D01*
X453865Y401718D01*
X453981Y401999D01*
X454110Y402251D01*
X454252Y402476D01*
X454438Y402716D01*
X454475Y402791D01*
X454710Y403096D01*
X455128Y404106D01*
X455270Y405189D01*
Y406764D01*
X455128Y407847D01*
X454710Y408857D01*
X454044Y409724D01*
X453178Y410389D01*
X452168Y410807D01*
X451085Y410949D01*
X450002Y410807D01*
X448992Y410389D01*
X448126Y409724D01*
X447460Y408857D01*
X447042Y407847D01*
X446900Y406764D01*
Y405189D01*
X447042Y404106D01*
X447309Y403462D01*
X447311Y403445D01*
X447330Y403412D01*
X447460Y403096D01*
X447567Y402957D01*
X447616Y402873D01*
X447799Y402514D01*
X447959Y402152D01*
X448097Y401787D01*
X448214Y401416D01*
X448310Y401041D01*
X448384Y400660D01*
X448437Y400274D01*
X448451Y400105D01*
Y396000D01*
X448645Y395024D01*
X449198Y394198D01*
X453798Y389598D01*
X454625Y389045D01*
X455600Y388851D01*
X514126D01*
X515101Y389045D01*
X515928Y389598D01*
X523802Y397472D01*
X524355Y398299D01*
X524549Y399274D01*
Y426519D01*
X524766Y426895D01*
X524968Y427650D01*
Y428432D01*
X524766Y429186D01*
X524375Y429863D01*
X523823Y430416D01*
X523146Y430807D01*
X522391Y431009D01*
X521609D01*
X520854Y430807D01*
X520478Y430590D01*
X516000D01*
X455632Y430590D01*
X455624Y430596D01*
X455114Y431590D01*
X455266Y431854D01*
X455439Y432500D01*
X449561D01*
X449734Y431854D01*
X449887Y431590D01*
X449376Y430596D01*
X449368Y430590D01*
X410878Y430590D01*
X410242Y430635D01*
X409977Y430670D01*
X409840Y430698D01*
X409792Y430769D01*
X409461Y430991D01*
X409071Y431068D01*
X388965D01*
X388575Y430991D01*
X388244Y430769D01*
X388196Y430698D01*
X388090Y430677D01*
X386857Y430590D01*
X385015D01*
X352302Y463302D01*
X351476Y463855D01*
X350500Y464049D01*
X346433D01*
X346391Y465031D01*
X347146Y465234D01*
X347823Y465625D01*
X348375Y466177D01*
X348766Y466854D01*
X348969Y467609D01*
Y468391D01*
X348766Y469146D01*
X348375Y469823D01*
X347823Y470375D01*
X347146Y470766D01*
X346391Y470968D01*
X345609D01*
X344854Y470766D01*
X344478Y470549D01*
X340555D01*
X339919Y470594D01*
X339654Y470630D01*
X339517Y470657D01*
X339469Y470729D01*
X339138Y470950D01*
X338748Y471028D01*
X318632D01*
X318242Y470950D01*
X317911Y470729D01*
X317690Y470398D01*
X317612Y470008D01*
Y468388D01*
X316688Y468005D01*
X315891Y468802D01*
X315064Y469355D01*
X314089Y469549D01*
X275478D01*
X273940Y471087D01*
Y471708D01*
X273943Y471747D01*
X273982Y472004D01*
X274034Y472238D01*
X274099Y472450D01*
X274175Y472642D01*
X274262Y472815D01*
X274358Y472970D01*
X274466Y473111D01*
X274619Y473277D01*
X274661Y473345D01*
X275026Y473710D01*
X275624Y474746D01*
X275898Y475767D01*
X276884D01*
X277157Y474746D01*
X277755Y473710D01*
X278601Y472864D01*
X279637Y472266D01*
X280793Y471957D01*
X281989D01*
X283144Y472266D01*
X284180Y472864D01*
X285026Y473710D01*
X285625Y474746D01*
X285898Y475767D01*
X286884D01*
X287157Y474746D01*
X287755Y473710D01*
X288601Y472864D01*
X289637Y472266D01*
X290793Y471957D01*
X291989D01*
X293144Y472266D01*
X294180Y472864D01*
X295026Y473710D01*
X295624Y474746D01*
X295934Y475902D01*
Y477098D01*
X295624Y478254D01*
X295026Y479290D01*
X294180Y480135D01*
X294122Y480170D01*
X293883Y481462D01*
X294037Y481651D01*
X311744D01*
X319698Y473698D01*
X320525Y473145D01*
X321500Y472951D01*
X368444D01*
X371532Y469864D01*
Y469109D01*
X371734Y468354D01*
X371951Y467978D01*
Y449000D01*
X372145Y448025D01*
X372698Y447198D01*
X383657Y436238D01*
X384484Y435686D01*
X385459Y435492D01*
X387157D01*
X387793Y435447D01*
X388058Y435411D01*
X388196Y435383D01*
X388243Y435312D01*
X388574Y435091D01*
X388964Y435013D01*
X409083D01*
X409473Y435091D01*
X409804Y435312D01*
X409841Y435367D01*
X409951Y435389D01*
X411171Y435471D01*
X421202D01*
X421531Y435142D01*
Y435141D01*
X421734Y434386D01*
X422125Y433709D01*
X422677Y433156D01*
X423354Y432765D01*
X424109Y432563D01*
X424891D01*
X425646Y432765D01*
X426323Y433156D01*
X426875Y433709D01*
X427266Y434386D01*
X427468Y435141D01*
Y435922D01*
X427266Y436677D01*
X426875Y437354D01*
X426323Y437907D01*
X425646Y438298D01*
X425563Y438320D01*
X424060Y439823D01*
X423233Y440375D01*
X422258Y440569D01*
X410908D01*
X410258Y440617D01*
X409996Y440654D01*
X409862Y440682D01*
X409804Y440769D01*
X409473Y440991D01*
X409083Y441068D01*
X388964D01*
X388574Y440991D01*
X388243Y440769D01*
X388196Y440698D01*
X388090Y440677D01*
X386857Y440590D01*
X386515D01*
X377049Y450056D01*
Y467978D01*
X377266Y468354D01*
X377468Y469109D01*
Y469891D01*
X377266Y470646D01*
X376891Y471297D01*
X376855Y471476D01*
X376302Y472302D01*
X371302Y477302D01*
X370476Y477855D01*
X369500Y478049D01*
X322556D01*
X314602Y486002D01*
X313775Y486555D01*
X312800Y486749D01*
X283122D01*
X282147Y486555D01*
X281320Y486002D01*
X279588Y484271D01*
X279036Y483444D01*
X278842Y482469D01*
Y481292D01*
X278838Y481253D01*
X278800Y480996D01*
X278747Y480762D01*
X278683Y480549D01*
X278607Y480358D01*
X278520Y480185D01*
X278423Y480030D01*
X278315Y479888D01*
X278163Y479723D01*
X278120Y479655D01*
X277755Y479290D01*
X277157Y478254D01*
X276884Y477234D01*
X275898D01*
X275624Y478254D01*
X275026Y479290D01*
X274181Y480135D01*
X273145Y480734D01*
X271989Y481043D01*
X270793D01*
X269637Y480734D01*
X268601Y480135D01*
X267755Y479290D01*
X267157Y478254D01*
X266847Y477098D01*
Y475902D01*
X267157Y474746D01*
X267755Y473710D01*
X268121Y473345D01*
X268163Y473277D01*
X268316Y473111D01*
X268423Y472970D01*
X268520Y472815D01*
X268607Y472642D01*
X268683Y472450D01*
X268747Y472238D01*
X268800Y472004D01*
X268839Y471747D01*
X268842Y471708D01*
Y470031D01*
X269036Y469056D01*
X269588Y468229D01*
X272620Y465198D01*
X273447Y464645D01*
X274422Y464451D01*
X313033D01*
X315818Y461666D01*
X315861Y461637D01*
X315809Y460469D01*
X315646Y460375D01*
X315093Y459823D01*
X314702Y459146D01*
X314590Y458726D01*
X306377Y450513D01*
X305824Y449686D01*
X305630Y448711D01*
Y445828D01*
X305625Y445823D01*
X305234Y445146D01*
X305031Y444391D01*
Y443609D01*
X305113Y443306D01*
X304216Y442789D01*
X292202Y454802D01*
X291375Y455355D01*
X290400Y455549D01*
X274056D01*
X262802Y466802D01*
X261976Y467355D01*
X261000Y467549D01*
X200500D01*
X199524Y467355D01*
X198698Y466802D01*
X191698Y459802D01*
X191145Y458976D01*
X190951Y458000D01*
Y261600D01*
Y217458D01*
Y180600D01*
X191145Y179624D01*
X191698Y178798D01*
X200098Y170398D01*
X200924Y169845D01*
X201900Y169651D01*
X225344D01*
X228951Y166044D01*
Y161488D01*
X228523Y161229D01*
X227951Y161065D01*
X227764Y161190D01*
X227374Y161268D01*
X191920D01*
X191530Y161190D01*
X191199Y160969D01*
X190978Y160638D01*
X190901Y160248D01*
Y128752D01*
X190978Y128362D01*
X191199Y128031D01*
X191530Y127810D01*
X191920Y127732D01*
X199065D01*
Y124000D01*
X199147Y123379D01*
Y120047D01*
X202479D01*
X203100Y119966D01*
X203721Y120047D01*
X207053D01*
Y123379D01*
X207135Y124000D01*
Y126429D01*
X208438Y127732D01*
X213570D01*
X213844Y127703D01*
X214121Y127606D01*
X214365Y127443D01*
X214603Y127186D01*
X214837Y126803D01*
X215052Y126278D01*
X215232Y125608D01*
X215368Y124796D01*
X215452Y123847D01*
X215465Y123319D01*
Y120000D01*
X215465Y120000D01*
X215603Y118956D01*
X216006Y117983D01*
X216647Y117147D01*
X229956Y103839D01*
X229760Y103116D01*
X229558Y102839D01*
X193835D01*
X192948D01*
X191209Y103184D01*
X189572Y103863D01*
X188098Y104848D01*
X186844Y106101D01*
X185859Y107576D01*
X185180Y109213D01*
X184835Y110952D01*
Y111839D01*
X184835D01*
X184835Y479663D01*
Y480550D01*
X185180Y482289D01*
X185859Y483926D01*
X186844Y485400D01*
X188098Y486654D01*
X189571Y487639D01*
X191209Y488317D01*
X192948Y488663D01*
X193835D01*
Y488663D01*
X338606D01*
X338650Y487781D01*
X338994Y486051D01*
X339669Y484421D01*
X340649Y482954D01*
X341897Y481706D01*
X343364Y480726D01*
X344994Y480051D01*
X346724Y479707D01*
X347606Y479663D01*
Y479663D01*
X383142Y479663D01*
X384024Y479707D01*
X385754Y480051D01*
X387384Y480726D01*
X388851Y481706D01*
X390099Y482954D01*
X391079Y484421D01*
X391754Y486051D01*
X392098Y487781D01*
X392142Y488663D01*
X392142D01*
X530165Y488663D01*
D02*
G37*
G36*
X282901Y481476D02*
X282930Y481134D01*
X282979Y480809D01*
X283048Y480502D01*
X283136Y480212D01*
X283244Y479941D01*
X283371Y479686D01*
X283518Y479450D01*
X283685Y479231D01*
X283871Y479030D01*
X278910D01*
X279097Y479231D01*
X279263Y479450D01*
X279411Y479686D01*
X279538Y479941D01*
X279646Y480212D01*
X279734Y480502D01*
X279803Y480809D01*
X279852Y481134D01*
X279881Y481476D01*
X279891Y481836D01*
X282891D01*
X282901Y481476D01*
D02*
G37*
G36*
X273685Y473769D02*
X273518Y473550D01*
X273371Y473314D01*
X273244Y473059D01*
X273136Y472788D01*
X273048Y472498D01*
X272979Y472191D01*
X272930Y471866D01*
X272901Y471524D01*
X272891Y471164D01*
X269891D01*
X269881Y471524D01*
X269852Y471866D01*
X269803Y472191D01*
X269734Y472498D01*
X269646Y472788D01*
X269538Y473059D01*
X269410Y473314D01*
X269263Y473550D01*
X269097Y473769D01*
X268911Y473970D01*
X273871D01*
X273685Y473769D01*
D02*
G37*
G36*
X338765Y469901D02*
X338855Y469817D01*
X339005Y469742D01*
X339215Y469678D01*
X339485Y469624D01*
X339815Y469579D01*
X340655Y469520D01*
X341735Y469500D01*
Y466500D01*
X341165Y466495D01*
X339485Y466376D01*
X339215Y466322D01*
X339005Y466257D01*
X338855Y466183D01*
X338765Y466099D01*
X338735Y466005D01*
Y469995D01*
X338765Y469901D01*
D02*
G37*
G36*
X284500Y451500D02*
X283930Y451470D01*
X283420Y451380D01*
X282970Y451230D01*
X282580Y451020D01*
X282250Y450750D01*
X281980Y450420D01*
X281770Y450030D01*
X281620Y449580D01*
X281530Y449070D01*
X281500Y448500D01*
X278500D01*
X278470Y449070D01*
X278380Y449580D01*
X278230Y450030D01*
X278020Y450420D01*
X277750Y450750D01*
X277420Y451020D01*
X277030Y451230D01*
X276580Y451380D01*
X276070Y451470D01*
X275500Y451500D01*
X280000Y454500D01*
X284500Y451500D01*
D02*
G37*
G36*
X409100Y439938D02*
X409190Y439850D01*
X409340Y439773D01*
X409550Y439706D01*
X409820Y439649D01*
X410150Y439603D01*
X410990Y439541D01*
X412070Y439520D01*
Y436520D01*
X411500Y436516D01*
X409820Y436402D01*
X409550Y436349D01*
X409340Y436288D01*
X409190Y436217D01*
X409100Y436136D01*
X409070Y436046D01*
Y440036D01*
X409100Y439938D01*
D02*
G37*
G36*
X388977Y436046D02*
X388947Y436140D01*
X388857Y436224D01*
X388707Y436298D01*
X388497Y436363D01*
X388227Y436417D01*
X387897Y436461D01*
X387057Y436521D01*
X385977Y436541D01*
Y439541D01*
X386547Y439546D01*
X388227Y439664D01*
X388497Y439719D01*
X388707Y439783D01*
X388857Y439857D01*
X388947Y439942D01*
X388977Y440036D01*
Y436046D01*
D02*
G37*
G36*
X281510Y436976D02*
X281539Y436634D01*
X281588Y436309D01*
X281657Y436002D01*
X281745Y435712D01*
X281853Y435441D01*
X281980Y435186D01*
X282127Y434950D01*
X282294Y434731D01*
X282480Y434530D01*
X277520D01*
X277706Y434731D01*
X277873Y434950D01*
X278020Y435186D01*
X278147Y435441D01*
X278255Y435712D01*
X278343Y436002D01*
X278412Y436309D01*
X278461Y436634D01*
X278490Y436976D01*
X278500Y437336D01*
X281500D01*
X281510Y436976D01*
D02*
G37*
G36*
X409088Y429942D02*
X409178Y429857D01*
X409328Y429783D01*
X409538Y429719D01*
X409808Y429664D01*
X410138Y429620D01*
X410978Y429561D01*
X412058Y429541D01*
Y426541D01*
X411488Y426536D01*
X409808Y426417D01*
X409538Y426363D01*
X409328Y426298D01*
X409178Y426224D01*
X409088Y426140D01*
X409058Y426046D01*
Y430036D01*
X409088Y429942D01*
D02*
G37*
G36*
X388978Y426046D02*
X388948Y426140D01*
X388858Y426224D01*
X388708Y426298D01*
X388498Y426363D01*
X388228Y426417D01*
X387898Y426462D01*
X387058Y426521D01*
X385978Y426541D01*
Y429541D01*
X386548Y429546D01*
X388228Y429664D01*
X388498Y429719D01*
X388708Y429783D01*
X388858Y429857D01*
X388948Y429942D01*
X388978Y430036D01*
Y426046D01*
D02*
G37*
G36*
X318645Y426005D02*
X318615Y426099D01*
X318525Y426183D01*
X318375Y426258D01*
X318165Y426322D01*
X317895Y426376D01*
X317565Y426421D01*
X316725Y426480D01*
X315645Y426500D01*
Y429500D01*
X316215Y429505D01*
X317895Y429624D01*
X318165Y429678D01*
X318375Y429742D01*
X318525Y429817D01*
X318615Y429901D01*
X318645Y429995D01*
Y426005D01*
D02*
G37*
G36*
X325097Y425975D02*
X324842Y425885D01*
X324617Y425735D01*
X324422Y425525D01*
X324257Y425255D01*
X324122Y424925D01*
X324017Y424535D01*
X323942Y424085D01*
X323897Y423575D01*
X323882Y423005D01*
X320882D01*
X320867Y423575D01*
X320822Y424085D01*
X320747Y424535D01*
X320642Y424925D01*
X320507Y425255D01*
X320342Y425525D01*
X320147Y425735D01*
X319922Y425885D01*
X319667Y425975D01*
X319382Y426005D01*
X325382D01*
X325097Y425975D01*
D02*
G37*
G36*
X299231Y426794D02*
X299450Y426627D01*
X299687Y426480D01*
X299941Y426353D01*
X300212Y426245D01*
X300502Y426157D01*
X300809Y426088D01*
X301134Y426039D01*
X301476Y426010D01*
X301836Y426000D01*
Y423000D01*
X301476Y422990D01*
X301134Y422961D01*
X300809Y422912D01*
X300502Y422843D01*
X300212Y422755D01*
X299941Y422647D01*
X299687Y422520D01*
X299450Y422373D01*
X299231Y422206D01*
X299030Y422020D01*
Y426980D01*
X299231Y426794D01*
D02*
G37*
G36*
X325752Y419995D02*
X321259D01*
X321282Y419995D01*
X321301Y419997D01*
X321317Y420001D01*
X321329Y420005D01*
X321337Y420011D01*
X321341Y420017D01*
X321342Y420026D01*
X321339Y420035D01*
X321332Y420046D01*
X321321Y420057D01*
X323505Y422116D01*
X325752Y419995D01*
D02*
G37*
G36*
X388977Y416046D02*
X388947Y416136D01*
X388857Y416217D01*
X388707Y416288D01*
X388497Y416350D01*
X388227Y416402D01*
X387897Y416444D01*
X387057Y416501D01*
X385977Y416520D01*
Y419520D01*
X386547Y419525D01*
X388227Y419649D01*
X388497Y419706D01*
X388707Y419773D01*
X388857Y419850D01*
X388947Y419938D01*
X388977Y420036D01*
Y416046D01*
D02*
G37*
G36*
X293559Y411559D02*
X293529Y411833D01*
X293439Y412078D01*
X293289Y412294D01*
X293079Y412481D01*
X292809Y412640D01*
X292479Y412770D01*
X292089Y412870D01*
X291639Y412942D01*
X291129Y412986D01*
X290559Y413000D01*
Y416000D01*
X291129Y416014D01*
X291639Y416058D01*
X292089Y416130D01*
X292479Y416230D01*
X292809Y416360D01*
X293079Y416519D01*
X293289Y416706D01*
X293439Y416922D01*
X293529Y417167D01*
X293559Y417441D01*
Y411559D01*
D02*
G37*
G36*
X282971Y414667D02*
X283061Y414422D01*
X283211Y414206D01*
X283421Y414019D01*
X283691Y413860D01*
X284021Y413730D01*
X284411Y413630D01*
X284861Y413558D01*
X285371Y413514D01*
X285941Y413500D01*
Y410500D01*
X285371Y410486D01*
X284861Y410442D01*
X284411Y410370D01*
X284021Y410269D01*
X283691Y410140D01*
X283421Y409981D01*
X283211Y409794D01*
X283061Y409578D01*
X282971Y409333D01*
X282941Y409059D01*
Y414941D01*
X282971Y414667D01*
D02*
G37*
G36*
X388978Y406046D02*
X388948Y406140D01*
X388858Y406224D01*
X388708Y406298D01*
X388498Y406362D01*
X388228Y406417D01*
X387898Y406461D01*
X387058Y406521D01*
X385978Y406541D01*
Y409541D01*
X386548Y409546D01*
X388228Y409664D01*
X388498Y409719D01*
X388708Y409783D01*
X388858Y409857D01*
X388948Y409942D01*
X388978Y410036D01*
Y406046D01*
D02*
G37*
G36*
X309030Y410930D02*
X309120Y410420D01*
X309270Y409970D01*
X309480Y409580D01*
X309750Y409250D01*
X310080Y408980D01*
X310470Y408770D01*
X310920Y408620D01*
X311430Y408530D01*
X312000Y408500D01*
X307500Y405500D01*
X303000Y408500D01*
X303570Y408530D01*
X304080Y408620D01*
X304530Y408770D01*
X304920Y408980D01*
X305250Y409250D01*
X305520Y409580D01*
X305730Y409970D01*
X305880Y410420D01*
X305970Y410930D01*
X306000Y411500D01*
X309000D01*
X309030Y410930D01*
D02*
G37*
G36*
X453631Y403339D02*
X453416Y403061D01*
X453224Y402757D01*
X453054Y402427D01*
X452907Y402070D01*
X452783Y401687D01*
X452681Y401278D01*
X452602Y400843D01*
X452545Y400381D01*
X452511Y399893D01*
X452500Y399379D01*
X449500Y399481D01*
X449488Y399936D01*
X449451Y400385D01*
X449390Y400828D01*
X449305Y401265D01*
X449195Y401695D01*
X449061Y402120D01*
X448903Y402539D01*
X448720Y402952D01*
X448512Y403359D01*
X448281Y403760D01*
X453631Y403339D01*
D02*
G37*
G36*
X411178Y388764D02*
X409057Y386046D01*
Y390036D01*
X409172Y390044D01*
X409294Y390070D01*
X409421Y390112D01*
X409554Y390172D01*
X409692Y390248D01*
X409837Y390341D01*
X409987Y390452D01*
X410304Y390723D01*
X410471Y390885D01*
X411178Y388764D01*
D02*
G37*
G36*
X338765Y389901D02*
X338855Y389817D01*
X339005Y389742D01*
X339215Y389678D01*
X339485Y389624D01*
X339815Y389579D01*
X340655Y389520D01*
X341735Y389500D01*
Y386500D01*
X341165Y386495D01*
X339485Y386376D01*
X339215Y386322D01*
X339005Y386258D01*
X338855Y386183D01*
X338765Y386099D01*
X338735Y386005D01*
Y389995D01*
X338765Y389901D01*
D02*
G37*
G36*
X427731Y384794D02*
X427950Y384627D01*
X428187Y384480D01*
X428441Y384353D01*
X428712Y384245D01*
X429002Y384157D01*
X429309Y384088D01*
X429634Y384039D01*
X429976Y384010D01*
X430336Y384000D01*
Y381000D01*
X429976Y380990D01*
X429634Y380961D01*
X429309Y380912D01*
X429002Y380843D01*
X428712Y380755D01*
X428441Y380647D01*
X428187Y380520D01*
X427950Y380373D01*
X427731Y380206D01*
X427530Y380020D01*
Y384980D01*
X427731Y384794D01*
D02*
G37*
G36*
X449500Y379961D02*
X493091D01*
X493109Y378969D01*
X492354Y378766D01*
X491978Y378549D01*
X449056D01*
X448359Y379246D01*
X448359Y379247D01*
X448948Y380070D01*
X449500Y379961D01*
D02*
G37*
G36*
X388975Y376046D02*
X388945Y376140D01*
X388855Y376224D01*
X388705Y376298D01*
X388495Y376362D01*
X388225Y376417D01*
X387895Y376462D01*
X387055Y376521D01*
X385975Y376541D01*
Y379541D01*
X386545Y379546D01*
X388225Y379664D01*
X388495Y379719D01*
X388705Y379783D01*
X388855Y379857D01*
X388945Y379942D01*
X388975Y380036D01*
Y376046D01*
D02*
G37*
G36*
X412238Y366284D02*
X410354Y363925D01*
X409930Y364328D01*
X409506Y364688D01*
X409081Y365006D01*
X408657Y365282D01*
X408233Y365515D01*
X407809Y365706D01*
X407384Y365855D01*
X406960Y365961D01*
X406536Y366025D01*
X406111Y366046D01*
X409056Y370036D01*
X412238Y366284D01*
D02*
G37*
G36*
X473625Y360615D02*
X473455Y360419D01*
X473305Y360205D01*
X473175Y359974D01*
X473065Y359727D01*
X472975Y359462D01*
X472905Y359179D01*
X472855Y358880D01*
X472825Y358564D01*
X472815Y358231D01*
X470815D01*
X470805Y358564D01*
X470775Y358880D01*
X470725Y359179D01*
X470655Y359462D01*
X470565Y359727D01*
X470455Y359974D01*
X470325Y360205D01*
X470175Y360419D01*
X470005Y360615D01*
X469815Y360794D01*
X473815D01*
X473625Y360615D01*
D02*
G37*
G36*
X463625D02*
X463455Y360419D01*
X463305Y360205D01*
X463175Y359974D01*
X463065Y359727D01*
X462975Y359462D01*
X462905Y359179D01*
X462855Y358880D01*
X462825Y358564D01*
X462815Y358231D01*
X460815D01*
X460805Y358564D01*
X460775Y358880D01*
X460725Y359179D01*
X460655Y359462D01*
X460565Y359727D01*
X460455Y359974D01*
X460325Y360205D01*
X460175Y360419D01*
X460005Y360615D01*
X459815Y360794D01*
X463815D01*
X463625Y360615D01*
D02*
G37*
G36*
X454371Y361357D02*
X453954Y360500D01*
X453784Y360069D01*
X453641Y359637D01*
X453523Y359203D01*
X453432Y358767D01*
X453367Y358330D01*
X453328Y357892D01*
X453315Y357452D01*
X450315D01*
X450302Y357892D01*
X450262Y358330D01*
X450197Y358767D01*
X450106Y359203D01*
X449989Y359637D01*
X449845Y360069D01*
X449676Y360500D01*
X449480Y360929D01*
X449010Y361784D01*
X454619D01*
X454371Y361357D01*
D02*
G37*
G36*
X388974Y356046D02*
X388945Y356140D01*
X388855Y356224D01*
X388704Y356298D01*
X388494Y356363D01*
X388225Y356417D01*
X387895Y356462D01*
X387054Y356521D01*
X385975Y356541D01*
Y359541D01*
X386544Y359546D01*
X388225Y359664D01*
X388494Y359719D01*
X388704Y359783D01*
X388855Y359857D01*
X388945Y359942D01*
X388974Y360036D01*
Y356046D01*
D02*
G37*
G36*
X271198Y451198D02*
X272025Y450645D01*
X273000Y450451D01*
X275977D01*
X276329Y450389D01*
X276624Y450290D01*
X276850Y450169D01*
X277026Y450026D01*
X277169Y449850D01*
X277291Y449624D01*
X277389Y449329D01*
X277451Y448977D01*
Y436792D01*
X277448Y436753D01*
X277409Y436496D01*
X277357Y436262D01*
X277292Y436050D01*
X277216Y435858D01*
X277129Y435685D01*
X277032Y435530D01*
X276925Y435389D01*
X276772Y435223D01*
X276730Y435155D01*
X276364Y434790D01*
X275766Y433754D01*
X275457Y432598D01*
Y431402D01*
X275766Y430246D01*
X276364Y429210D01*
X277210Y428365D01*
X278246Y427766D01*
X279267Y427493D01*
Y426507D01*
X278246Y426234D01*
X277210Y425635D01*
X276364Y424790D01*
X275766Y423754D01*
X275457Y422598D01*
Y422500D01*
X280000D01*
X284543D01*
Y422598D01*
X284234Y423754D01*
X283635Y424790D01*
X282790Y425635D01*
X281754Y426234D01*
X280733Y426507D01*
Y427493D01*
X281754Y427766D01*
X282790Y428365D01*
X283635Y429210D01*
X284234Y430246D01*
X284543Y431402D01*
Y432598D01*
X284234Y433754D01*
X283635Y434790D01*
X283270Y435155D01*
X283228Y435223D01*
X283075Y435389D01*
X282968Y435530D01*
X282871Y435685D01*
X282784Y435858D01*
X282708Y436050D01*
X282643Y436262D01*
X282591Y436496D01*
X282552Y436753D01*
X282549Y436792D01*
Y448977D01*
X282611Y449329D01*
X282710Y449624D01*
X282831Y449850D01*
X282975Y450026D01*
X283150Y450169D01*
X283376Y450291D01*
X283671Y450389D01*
X284023Y450451D01*
X289344D01*
X313598Y426198D01*
X314424Y425645D01*
X315400Y425451D01*
X316825D01*
X317461Y425406D01*
X317726Y425370D01*
X317863Y425343D01*
X317911Y425271D01*
X318242Y425050D01*
X318632Y424972D01*
X319444D01*
X319462Y424966D01*
X319481Y424953D01*
X319525Y424906D01*
X319594Y424793D01*
X319674Y424598D01*
X319749Y424318D01*
X319810Y423956D01*
X319833Y423693D01*
Y421118D01*
X319759Y421028D01*
X318638D01*
X318248Y420950D01*
X317917Y420729D01*
X317696Y420398D01*
X317618Y420008D01*
Y415992D01*
X317696Y415602D01*
X317917Y415271D01*
X318248Y415050D01*
X318638Y414972D01*
X338750D01*
X339140Y415050D01*
X339471Y415271D01*
X339692Y415602D01*
X339770Y415992D01*
Y420008D01*
X339692Y420398D01*
X339471Y420729D01*
X339140Y420950D01*
X338750Y421028D01*
X326143D01*
X324962Y422143D01*
X324931Y422174D01*
Y423693D01*
X324954Y423956D01*
X325014Y424318D01*
X325090Y424598D01*
X325170Y424793D01*
X325239Y424906D01*
X325282Y424953D01*
X325301Y424966D01*
X325320Y424972D01*
X338747D01*
X339137Y425050D01*
X339467Y425271D01*
X339688Y425602D01*
X339766Y425992D01*
Y430008D01*
X339688Y430398D01*
X339467Y430729D01*
X339137Y430950D01*
X338747Y431028D01*
X318632D01*
X318242Y430950D01*
X317911Y430729D01*
X317863Y430657D01*
X317758Y430636D01*
X316525Y430549D01*
X316456D01*
X306789Y440216D01*
X307306Y441113D01*
X307609Y441032D01*
X308391D01*
X309146Y441234D01*
X309823Y441625D01*
X310375Y442177D01*
X310766Y442854D01*
X310968Y443609D01*
Y444391D01*
X310766Y445146D01*
X310728Y445212D01*
Y447655D01*
X318174Y455100D01*
X318249Y455050D01*
X318639Y454973D01*
X338750D01*
X339140Y455050D01*
X339471Y455271D01*
X339692Y455602D01*
X339770Y455992D01*
Y460008D01*
X339857Y460124D01*
X341142Y460253D01*
X341698Y459698D01*
X342525Y459145D01*
X343500Y458951D01*
X349444D01*
X381846Y426549D01*
X381432Y425549D01*
X373500D01*
X372524Y425355D01*
X371698Y424802D01*
X342444Y395549D01*
X340701D01*
X339770Y395992D01*
Y397500D01*
X335000D01*
X317618D01*
Y395992D01*
X316686Y395549D01*
X301056D01*
X300792Y395813D01*
Y395926D01*
X300598Y396902D01*
X300045Y397728D01*
X299359Y398414D01*
Y398422D01*
X299157Y399177D01*
X298766Y399854D01*
X298214Y400407D01*
X297537Y400798D01*
X296782Y401000D01*
X296000D01*
X295245Y400798D01*
X294568Y400407D01*
X294015Y399854D01*
X293625Y399177D01*
X293422Y398422D01*
Y397641D01*
X293625Y396886D01*
X294015Y396209D01*
X294568Y395656D01*
X295245Y395265D01*
X295318Y395246D01*
X295694Y394870D01*
Y394757D01*
X295888Y393782D01*
X296440Y392955D01*
X298198Y391198D01*
X299025Y390645D01*
X300000Y390451D01*
X316681D01*
X317612Y390008D01*
Y385992D01*
X317690Y385602D01*
X317911Y385271D01*
X318242Y385050D01*
X318632Y384973D01*
X338748D01*
X339138Y385050D01*
X339469Y385271D01*
X339517Y385343D01*
X339622Y385364D01*
X340855Y385451D01*
X352967D01*
X353125Y385177D01*
X353677Y384625D01*
X354354Y384234D01*
X355109Y384032D01*
X355891D01*
X356646Y384234D01*
X357323Y384625D01*
X357875Y385177D01*
X358266Y385854D01*
X358469Y386609D01*
Y387391D01*
X358266Y388146D01*
X357875Y388823D01*
X357323Y389375D01*
X356646Y389766D01*
X355891Y389968D01*
X355800D01*
X355222Y390355D01*
X354246Y390549D01*
X346068D01*
X345654Y391549D01*
X374057Y419952D01*
X374501Y419877D01*
X374702Y419677D01*
X375133Y418771D01*
X375031Y418391D01*
Y417609D01*
X375234Y416854D01*
X375625Y416177D01*
X376177Y415625D01*
X376854Y415234D01*
X377533Y415052D01*
X377686Y414788D01*
X377927Y414032D01*
X370698Y406802D01*
X370145Y405975D01*
X369951Y405000D01*
Y360574D01*
X354926Y345549D01*
X340695D01*
X339763Y345992D01*
Y347500D01*
X322382D01*
X317612D01*
Y345992D01*
X316681Y345549D01*
X313500D01*
X312525Y345355D01*
X311698Y344802D01*
X293720Y326825D01*
X293167Y325998D01*
X292973Y325022D01*
Y303727D01*
X292638Y303146D01*
X292436Y302391D01*
Y301609D01*
X292638Y300854D01*
X293029Y300177D01*
X293582Y299625D01*
X294258Y299234D01*
X295013Y299031D01*
X295795D01*
X296334Y299176D01*
X296978Y298850D01*
X297334Y298532D01*
Y268500D01*
X297489Y267720D01*
X297931Y267058D01*
X305334Y259655D01*
Y258009D01*
X304334Y257706D01*
X304202Y257902D01*
X290049Y272056D01*
Y402444D01*
X292056Y404451D01*
X318374D01*
X319350Y404645D01*
X319796Y404943D01*
X321874D01*
X322022Y404973D01*
X338746D01*
X339136Y405050D01*
X339467Y405271D01*
X339688Y405602D01*
X339765Y405992D01*
Y410008D01*
X339688Y410398D01*
X339467Y410729D01*
X339136Y410950D01*
X338746Y411027D01*
X318632D01*
X318242Y410950D01*
X317911Y410729D01*
X317690Y410398D01*
X317612Y410008D01*
Y409661D01*
X317445Y409549D01*
X311523D01*
X311171Y409611D01*
X310876Y409710D01*
X310650Y409831D01*
X310474Y409974D01*
X310331Y410150D01*
X310209Y410376D01*
X310111Y410671D01*
X310049Y411023D01*
Y420500D01*
X309855Y421476D01*
X309302Y422302D01*
X305302Y426302D01*
X304475Y426855D01*
X303500Y427049D01*
X301292D01*
X301253Y427052D01*
X300996Y427091D01*
X300762Y427143D01*
X300550Y427208D01*
X300358Y427284D01*
X300185Y427371D01*
X300030Y427468D01*
X299888Y427575D01*
X299723Y427728D01*
X299655Y427770D01*
X299290Y428135D01*
X298254Y428734D01*
X297234Y429007D01*
Y429993D01*
X298254Y430266D01*
X299290Y430864D01*
X300135Y431710D01*
X300734Y432746D01*
X301043Y433902D01*
Y435098D01*
X300734Y436254D01*
X300135Y437290D01*
X299290Y438135D01*
X298254Y438734D01*
X297098Y439043D01*
X295902D01*
X294746Y438734D01*
X293710Y438135D01*
X292864Y437290D01*
X292266Y436254D01*
X291957Y435098D01*
Y433902D01*
X292266Y432746D01*
X292864Y431710D01*
X293710Y430864D01*
X294746Y430266D01*
X295766Y429993D01*
Y429007D01*
X294746Y428734D01*
X293710Y428135D01*
X292864Y427290D01*
X292266Y426254D01*
X291957Y425098D01*
Y423902D01*
X292266Y422746D01*
X292864Y421710D01*
X293710Y420864D01*
X294746Y420266D01*
X295902Y419957D01*
X297098D01*
X298254Y420266D01*
X299290Y420864D01*
X299655Y421230D01*
X299723Y421272D01*
X299888Y421425D01*
X300030Y421532D01*
X300185Y421629D01*
X300358Y421716D01*
X300550Y421792D01*
X300762Y421857D01*
X300996Y421909D01*
X301253Y421948D01*
X301292Y421951D01*
X302444D01*
X304951Y419444D01*
Y411023D01*
X304889Y410671D01*
X304790Y410376D01*
X304669Y410150D01*
X304525Y409974D01*
X304350Y409831D01*
X304124Y409709D01*
X303829Y409611D01*
X303477Y409549D01*
X300457D01*
X300453Y410549D01*
Y418453D01*
X293675D01*
X293670Y418454D01*
X293653Y418453D01*
X293597D01*
X293559Y418460D01*
X293521Y418453D01*
X292547D01*
Y417557D01*
X292546Y417552D01*
X292529Y417402D01*
X292527Y417396D01*
X292520Y417386D01*
X292476Y417347D01*
X292362Y417280D01*
X292164Y417202D01*
X291881Y417129D01*
X291515Y417070D01*
X291263Y417049D01*
X289000D01*
X288024Y416855D01*
X287198Y416302D01*
X285444Y414549D01*
X285237D01*
X284984Y414570D01*
X284619Y414629D01*
X284336Y414702D01*
X284138Y414780D01*
X284024Y414847D01*
X283980Y414887D01*
X283973Y414896D01*
X283971Y414902D01*
X283954Y415052D01*
X283953Y415057D01*
Y415953D01*
X282979D01*
X282941Y415960D01*
X282903Y415953D01*
X282847D01*
X282830Y415954D01*
X282825Y415953D01*
X276047D01*
Y408047D01*
X282825D01*
X282830Y408046D01*
X282847Y408047D01*
X282903D01*
X282941Y408040D01*
X282979Y408047D01*
X283953D01*
Y408943D01*
X283954Y408948D01*
X283971Y409098D01*
X283973Y409104D01*
X283980Y409114D01*
X284024Y409153D01*
X284138Y409220D01*
X284336Y409298D01*
X284619Y409371D01*
X284984Y409430D01*
X285237Y409451D01*
X286500D01*
X287475Y409645D01*
X288302Y410198D01*
X290056Y411951D01*
X291263D01*
X291515Y411930D01*
X291881Y411871D01*
X292164Y411798D01*
X292362Y411720D01*
X292476Y411653D01*
X292520Y411614D01*
X292527Y411604D01*
X292529Y411598D01*
X292546Y411448D01*
X292547Y411443D01*
Y410549D01*
X292543Y409549D01*
X291000D01*
X290024Y409355D01*
X289198Y408802D01*
X285698Y405302D01*
X285145Y404475D01*
X284951Y403500D01*
Y271000D01*
X285145Y270024D01*
X285698Y269198D01*
X299851Y255044D01*
Y216022D01*
X299634Y215646D01*
X299431Y214891D01*
Y214109D01*
X299634Y213354D01*
X300025Y212677D01*
X300577Y212125D01*
X301254Y211734D01*
X301806Y211586D01*
X302099Y210993D01*
X302176Y210531D01*
X280322Y188018D01*
X241779D01*
X241779Y188018D01*
X240999Y187863D01*
X240337Y187421D01*
X240337Y187421D01*
X234658Y181742D01*
X234216Y181080D01*
X234061Y180300D01*
Y169507D01*
X234014Y169470D01*
X233061Y169144D01*
X228202Y174002D01*
X227376Y174555D01*
X226400Y174749D01*
X202956D01*
X196049Y181656D01*
Y213435D01*
X196111Y213786D01*
X196209Y214082D01*
X196331Y214308D01*
X196475Y214483D01*
X196650Y214626D01*
X196876Y214748D01*
X197171Y214846D01*
X197523Y214909D01*
X207701D01*
X207940Y214876D01*
X208161Y214831D01*
X208356Y214776D01*
X208528Y214713D01*
X208676Y214643D01*
X208803Y214568D01*
X208912Y214487D01*
X209047Y214363D01*
X209114Y214323D01*
X209457Y213979D01*
X210448Y213407D01*
X211554Y213111D01*
X212698D01*
X213804Y213407D01*
X214795Y213979D01*
X215604Y214789D01*
X216176Y215780D01*
X216472Y216885D01*
Y218030D01*
X216176Y219135D01*
X215604Y220126D01*
X214795Y220936D01*
X213804Y221508D01*
X212698Y221804D01*
X211554D01*
X210448Y221508D01*
X209457Y220936D01*
X209114Y220592D01*
X209047Y220552D01*
X208912Y220428D01*
X208803Y220347D01*
X208676Y220272D01*
X208528Y220202D01*
X208356Y220139D01*
X208161Y220084D01*
X207940Y220039D01*
X207701Y220006D01*
X197523D01*
X197171Y220069D01*
X196876Y220167D01*
X196650Y220289D01*
X196475Y220432D01*
X196331Y220607D01*
X196209Y220833D01*
X196111Y221129D01*
X196049Y221480D01*
Y257577D01*
X196111Y257929D01*
X196209Y258224D01*
X196331Y258450D01*
X196475Y258626D01*
X196650Y258769D01*
X196876Y258891D01*
X197171Y258989D01*
X197523Y259051D01*
X232118D01*
X232357Y259018D01*
X232577Y258973D01*
X232771Y258918D01*
X232941Y258854D01*
X233087Y258784D01*
X233213Y258709D01*
X233320Y258628D01*
X233454Y258503D01*
X233522Y258461D01*
X233893Y258090D01*
X234884Y257518D01*
X235989Y257222D01*
X237134D01*
X238239Y257518D01*
X239230Y258090D01*
X240039Y258900D01*
X240612Y259891D01*
X240908Y260996D01*
Y262141D01*
X240612Y263246D01*
X240039Y264237D01*
X239230Y265046D01*
X238239Y265619D01*
X237134Y265915D01*
X235989D01*
X234884Y265619D01*
X233893Y265046D01*
X233575Y264729D01*
X233512Y264691D01*
X233376Y264569D01*
X233265Y264488D01*
X233136Y264413D01*
X232986Y264343D01*
X232813Y264280D01*
X232616Y264226D01*
X232409Y264184D01*
X232073Y264149D01*
X197523D01*
X197171Y264211D01*
X196876Y264310D01*
X196650Y264431D01*
X196475Y264575D01*
X196331Y264750D01*
X196209Y264976D01*
X196111Y265271D01*
X196049Y265623D01*
Y326316D01*
X197049Y326893D01*
X197216Y326797D01*
X197971Y326594D01*
X198752D01*
X199507Y326797D01*
X200184Y327188D01*
X200737Y327740D01*
X201128Y328417D01*
X201330Y329172D01*
Y329954D01*
X201128Y330709D01*
X200911Y331085D01*
Y343806D01*
X205144Y348039D01*
X210258D01*
X210634Y347822D01*
X211389Y347620D01*
X212171D01*
X212926Y347822D01*
X213602Y348213D01*
X214155Y348766D01*
X214546Y349443D01*
X214748Y350198D01*
Y350979D01*
X214546Y351734D01*
X214155Y352411D01*
X213602Y352964D01*
X212926Y353355D01*
X212171Y353557D01*
X211389D01*
X210634Y353355D01*
X210258Y353137D01*
X204088D01*
X203113Y352943D01*
X202286Y352391D01*
X197049Y347154D01*
X196049Y347568D01*
Y456944D01*
X201556Y462451D01*
X259944D01*
X271198Y451198D01*
D02*
G37*
G36*
X409100Y339940D02*
X409190Y339854D01*
X409340Y339778D01*
X409550Y339712D01*
X409820Y339657D01*
X410150Y339611D01*
X410990Y339551D01*
X412070Y339530D01*
Y336530D01*
X411500Y336526D01*
X409820Y336409D01*
X409550Y336356D01*
X409340Y336293D01*
X409190Y336220D01*
X409100Y336138D01*
X409070Y336046D01*
Y340036D01*
X409100Y339940D01*
D02*
G37*
G36*
X338767Y339901D02*
X338857Y339817D01*
X339007Y339742D01*
X339217Y339678D01*
X339487Y339624D01*
X339817Y339579D01*
X340657Y339520D01*
X341737Y339500D01*
Y336500D01*
X341167Y336495D01*
X339487Y336376D01*
X339217Y336322D01*
X339007Y336258D01*
X338857Y336183D01*
X338767Y336099D01*
X338737Y336005D01*
Y339995D01*
X338767Y339901D01*
D02*
G37*
G36*
X318645Y326005D02*
X318625Y326194D01*
X318565Y326363D01*
X318465Y326513D01*
X318325Y326642D01*
X318145Y326751D01*
X317925Y326841D01*
X317665Y326910D01*
X317365Y326960D01*
X317025Y326990D01*
X316645Y327000D01*
Y329000D01*
X317025Y329010D01*
X317365Y329040D01*
X317665Y329089D01*
X317925Y329159D01*
X318145Y329249D01*
X318325Y329358D01*
X318465Y329487D01*
X318565Y329637D01*
X318625Y329806D01*
X318645Y329995D01*
Y326005D01*
D02*
G37*
G36*
X318647Y316005D02*
X318627Y316194D01*
X318567Y316363D01*
X318467Y316512D01*
X318327Y316642D01*
X318147Y316751D01*
X317927Y316841D01*
X317667Y316911D01*
X317367Y316960D01*
X317027Y316990D01*
X316647Y317000D01*
Y319000D01*
X317027Y319010D01*
X317367Y319040D01*
X317667Y319090D01*
X317927Y319159D01*
X318147Y319249D01*
X318327Y319358D01*
X318467Y319488D01*
X318567Y319637D01*
X318627Y319806D01*
X318647Y319995D01*
Y316005D01*
D02*
G37*
G36*
X318645Y306005D02*
X318625Y306194D01*
X318565Y306363D01*
X318465Y306512D01*
X318325Y306642D01*
X318145Y306751D01*
X317925Y306841D01*
X317665Y306910D01*
X317365Y306960D01*
X317025Y306990D01*
X316645Y307000D01*
Y309000D01*
X317025Y309010D01*
X317365Y309040D01*
X317665Y309089D01*
X317925Y309159D01*
X318145Y309249D01*
X318325Y309358D01*
X318465Y309488D01*
X318565Y309637D01*
X318625Y309806D01*
X318645Y309995D01*
Y306005D01*
D02*
G37*
G36*
X388978Y286046D02*
X388958Y286235D01*
X388898Y286404D01*
X388798Y286553D01*
X388658Y286683D01*
X388478Y286792D01*
X388258Y286881D01*
X387998Y286951D01*
X387698Y287001D01*
X387358Y287031D01*
X386978Y287041D01*
Y289041D01*
X387358Y289051D01*
X387698Y289081D01*
X387998Y289130D01*
X388258Y289200D01*
X388478Y289289D01*
X388658Y289399D01*
X388798Y289528D01*
X388898Y289677D01*
X388958Y289847D01*
X388978Y290036D01*
Y286046D01*
D02*
G37*
G36*
X338748Y289806D02*
X338808Y289637D01*
X338908Y289488D01*
X339048Y289358D01*
X339228Y289249D01*
X339448Y289159D01*
X339708Y289089D01*
X340008Y289040D01*
X340348Y289010D01*
X340728Y289000D01*
Y287000D01*
X340348Y286990D01*
X340008Y286960D01*
X339708Y286911D01*
X339448Y286841D01*
X339228Y286751D01*
X339048Y286642D01*
X338908Y286512D01*
X338808Y286363D01*
X338748Y286194D01*
X338728Y286005D01*
Y289995D01*
X338748Y289806D01*
D02*
G37*
G36*
X437951Y295932D02*
Y294556D01*
X419939Y276544D01*
X419015Y276927D01*
Y278410D01*
X436951Y296346D01*
X437951Y295932D01*
D02*
G37*
G36*
X388972Y276046D02*
X388952Y276235D01*
X388892Y276404D01*
X388792Y276553D01*
X388652Y276682D01*
X388472Y276792D01*
X388252Y276882D01*
X387992Y276951D01*
X387692Y277001D01*
X387352Y277031D01*
X386972Y277041D01*
Y279041D01*
X387352Y279051D01*
X387692Y279081D01*
X387992Y279130D01*
X388252Y279200D01*
X388472Y279289D01*
X388652Y279399D01*
X388792Y279528D01*
X388892Y279677D01*
X388952Y279847D01*
X388972Y280036D01*
Y276046D01*
D02*
G37*
G36*
X330301Y275991D02*
X330018Y275949D01*
X329735Y275878D01*
X329452Y275779D01*
X329169Y275652D01*
X328887Y275496D01*
X328604Y275312D01*
X328321Y275100D01*
X328038Y274860D01*
X327755Y274591D01*
X324927D01*
X325181Y274860D01*
X325379Y275100D01*
X325521Y275312D01*
X325606Y275496D01*
X325634Y275652D01*
X325606Y275779D01*
X325521Y275878D01*
X325379Y275949D01*
X325181Y275991D01*
X324927Y276005D01*
X330584D01*
X330301Y275991D01*
D02*
G37*
G36*
X317669Y290433D02*
X317675Y290326D01*
X317612Y290008D01*
Y285992D01*
X317690Y285602D01*
X317911Y285271D01*
X318242Y285050D01*
X318632Y284973D01*
X338741D01*
X339016Y285027D01*
X339017Y285027D01*
X339018Y285028D01*
X339132Y285050D01*
X339462Y285271D01*
X339683Y285602D01*
X339734Y285856D01*
X339774Y285872D01*
X339924Y285913D01*
X340137Y285948D01*
X340283Y285961D01*
X341155D01*
X342461Y284655D01*
Y273845D01*
X341155Y272539D01*
X328480D01*
X328097Y273463D01*
X328820Y274186D01*
X328957Y274303D01*
X329188Y274476D01*
X329411Y274621D01*
X329625Y274739D01*
X329831Y274831D01*
X330028Y274900D01*
X330218Y274948D01*
X330384Y274973D01*
X338750D01*
X339140Y275050D01*
X339471Y275271D01*
X339692Y275602D01*
X339770Y275992D01*
Y280008D01*
X339692Y280398D01*
X339471Y280729D01*
X339140Y280950D01*
X338750Y281028D01*
X318633D01*
X318243Y280950D01*
X317912Y280729D01*
X317691Y280398D01*
X317613Y280008D01*
Y275992D01*
X317691Y275602D01*
X317912Y275271D01*
X318243Y275050D01*
X318633Y274973D01*
X322532D01*
X322915Y274049D01*
X318082Y269216D01*
X318053Y269192D01*
X316790Y269094D01*
X311539Y274345D01*
Y286818D01*
X316047Y291326D01*
X317141D01*
X317669Y290433D01*
D02*
G37*
G36*
X234150Y259248D02*
X233976Y259410D01*
X233783Y259555D01*
X233571Y259683D01*
X233340Y259793D01*
X233089Y259887D01*
X232819Y259964D01*
X232530Y260023D01*
X232222Y260066D01*
X231894Y260091D01*
X231546Y260100D01*
X231578Y263100D01*
X231925Y263108D01*
X232562Y263175D01*
X232853Y263233D01*
X233124Y263308D01*
X233376Y263400D01*
X233609Y263508D01*
X233823Y263633D01*
X234018Y263775D01*
X234194Y263933D01*
X234150Y259248D01*
D02*
G37*
G36*
X195030Y265530D02*
X195120Y265020D01*
X195270Y264570D01*
X195480Y264180D01*
X195750Y263850D01*
X196080Y263580D01*
X196470Y263370D01*
X196920Y263220D01*
X197430Y263130D01*
X198000Y263100D01*
Y260100D01*
X197430Y260070D01*
X196920Y259980D01*
X196470Y259830D01*
X196080Y259620D01*
X195750Y259350D01*
X195480Y259020D01*
X195270Y258630D01*
X195120Y258180D01*
X195030Y257670D01*
X195000Y257100D01*
X192000Y261600D01*
X195000Y266100D01*
X195030Y265530D01*
D02*
G37*
G36*
X457461Y276363D02*
Y274945D01*
X438058Y255542D01*
X438039Y255514D01*
X437039Y255817D01*
Y257355D01*
X456461Y276777D01*
X457461Y276363D01*
D02*
G37*
G36*
X342104Y267571D02*
X342113Y267496D01*
X325463Y250847D01*
X324539Y251230D01*
Y265663D01*
X327337Y268461D01*
X341663D01*
X342104Y267571D01*
D02*
G37*
G36*
X209736Y215115D02*
X209561Y215275D01*
X209367Y215418D01*
X209154Y215545D01*
X208922Y215654D01*
X208671Y215747D01*
X208400Y215823D01*
X208111Y215882D01*
X207802Y215924D01*
X207474Y215949D01*
X207127Y215957D01*
Y218957D01*
X207474Y218966D01*
X207802Y218991D01*
X208111Y219033D01*
X208400Y219092D01*
X208671Y219168D01*
X208922Y219261D01*
X209154Y219370D01*
X209367Y219497D01*
X209561Y219640D01*
X209736Y219800D01*
Y215115D01*
D02*
G37*
G36*
X533514Y215738D02*
X533558Y215235D01*
X533630Y214791D01*
X533731Y214406D01*
X533860Y214081D01*
X534019Y213814D01*
X534206Y213607D01*
X534422Y213459D01*
X534667Y213370D01*
X534941Y213341D01*
X529059D01*
X529333Y213370D01*
X529578Y213459D01*
X529794Y213607D01*
X529981Y213814D01*
X530140Y214081D01*
X530269Y214406D01*
X530370Y214791D01*
X530442Y215235D01*
X530486Y215738D01*
X530500Y216300D01*
X533500D01*
X533514Y215738D01*
D02*
G37*
G36*
X195030Y221388D02*
X195120Y220878D01*
X195270Y220427D01*
X195480Y220038D01*
X195750Y219707D01*
X196080Y219438D01*
X196470Y219228D01*
X196920Y219077D01*
X197430Y218987D01*
X198000Y218957D01*
Y215957D01*
X197430Y215928D01*
X196920Y215838D01*
X196470Y215687D01*
X196080Y215477D01*
X195750Y215208D01*
X195480Y214878D01*
X195270Y214488D01*
X195120Y214037D01*
X195030Y213527D01*
X195000Y212958D01*
X192000Y217458D01*
X195000Y221957D01*
X195030Y221388D01*
D02*
G37*
G36*
X251987Y176306D02*
X252083Y176242D01*
X252194Y176185D01*
X252319Y176136D01*
X252459Y176094D01*
X252613Y176060D01*
X252782Y176034D01*
X252966Y176015D01*
X253377Y176000D01*
Y174000D01*
X253164Y173996D01*
X252782Y173966D01*
X252613Y173940D01*
X252459Y173906D01*
X252319Y173864D01*
X252194Y173815D01*
X252083Y173758D01*
X251987Y173694D01*
X251906Y173622D01*
Y176378D01*
X251987Y176306D01*
D02*
G37*
G36*
X261987Y172306D02*
X262083Y172242D01*
X262194Y172185D01*
X262319Y172136D01*
X262459Y172095D01*
X262613Y172061D01*
X262782Y172034D01*
X262966Y172015D01*
X263377Y172000D01*
Y170000D01*
X263164Y169996D01*
X262782Y169966D01*
X262613Y169939D01*
X262459Y169905D01*
X262319Y169864D01*
X262194Y169815D01*
X262083Y169758D01*
X261987Y169694D01*
X261906Y169622D01*
Y172378D01*
X261987Y172306D01*
D02*
G37*
G36*
X533504Y168664D02*
X533534Y168282D01*
X533561Y168113D01*
X533595Y167959D01*
X533636Y167819D01*
X533685Y167694D01*
X533742Y167583D01*
X533806Y167487D01*
X533878Y167406D01*
X531122D01*
X531194Y167487D01*
X531258Y167583D01*
X531315Y167694D01*
X531364Y167819D01*
X531405Y167959D01*
X531439Y168113D01*
X531466Y168282D01*
X531485Y168466D01*
X531500Y168877D01*
X533500D01*
X533504Y168664D01*
D02*
G37*
G36*
X271987Y168306D02*
X272083Y168242D01*
X272194Y168185D01*
X272319Y168136D01*
X272459Y168095D01*
X272613Y168061D01*
X272782Y168034D01*
X272966Y168015D01*
X273377Y168000D01*
Y166000D01*
X273164Y165996D01*
X272782Y165966D01*
X272613Y165939D01*
X272459Y165905D01*
X272319Y165864D01*
X272194Y165815D01*
X272083Y165758D01*
X271987Y165694D01*
X271906Y165622D01*
Y168378D01*
X271987Y168306D01*
D02*
G37*
G36*
X281504Y153104D02*
X281535Y152722D01*
X281562Y152553D01*
X281597Y152399D01*
X281639Y152260D01*
X281689Y152135D01*
X281747Y152025D01*
X281813Y151930D01*
X281886Y151849D01*
X279131Y151807D01*
X279201Y151889D01*
X279264Y151986D01*
X279319Y152097D01*
X279367Y152222D01*
X279408Y152362D01*
X279441Y152517D01*
X279467Y152686D01*
X279496Y153068D01*
X279500Y153281D01*
X281500Y153316D01*
X281504Y153104D01*
D02*
G37*
G36*
X453275Y281864D02*
Y279359D01*
X433558Y259642D01*
X433116Y258980D01*
X432961Y258200D01*
Y183445D01*
X383717Y134200D01*
X383391Y134172D01*
X382953Y135111D01*
X382982Y135177D01*
X430302Y182498D01*
X430855Y183325D01*
X431049Y184300D01*
Y260944D01*
X452352Y282247D01*
X453275Y281864D01*
D02*
G37*
G36*
X245504Y133164D02*
X245534Y132782D01*
X245561Y132613D01*
X245595Y132459D01*
X245636Y132319D01*
X245685Y132194D01*
X245742Y132083D01*
X245806Y131987D01*
X245878Y131906D01*
X243122D01*
X243194Y131987D01*
X243258Y132083D01*
X243315Y132194D01*
X243364Y132319D01*
X243406Y132459D01*
X243440Y132613D01*
X243466Y132782D01*
X243485Y132966D01*
X243500Y133377D01*
X245500D01*
X245504Y133164D01*
D02*
G37*
G36*
X385841Y132027D02*
X385693Y131874D01*
X385445Y131582D01*
X385344Y131444D01*
X385259Y131311D01*
X385190Y131183D01*
X385136Y131060D01*
X385098Y130941D01*
X385075Y130828D01*
X385068Y130720D01*
X383120Y132668D01*
X383228Y132675D01*
X383341Y132698D01*
X383460Y132736D01*
X383583Y132790D01*
X383711Y132859D01*
X383844Y132944D01*
X383982Y133045D01*
X384126Y133161D01*
X384427Y133441D01*
X385841Y132027D01*
D02*
G37*
G36*
X437461Y180883D02*
Y179545D01*
X386407Y128491D01*
X385607Y129105D01*
X385866Y129554D01*
X386069Y130309D01*
Y130590D01*
X386086Y130656D01*
X386088Y130691D01*
X386091Y130699D01*
X386107Y130736D01*
X386138Y130793D01*
X386186Y130869D01*
X386246Y130950D01*
X386313Y131029D01*
X436442Y181158D01*
X436461Y181186D01*
X437461Y180883D01*
D02*
G37*
G36*
X386341Y124127D02*
X386193Y123974D01*
X385945Y123682D01*
X385844Y123544D01*
X385759Y123411D01*
X385689Y123283D01*
X385636Y123160D01*
X385598Y123041D01*
X385575Y122928D01*
X385568Y122820D01*
X383620Y124768D01*
X383728Y124775D01*
X383841Y124798D01*
X383960Y124836D01*
X384083Y124890D01*
X384211Y124959D01*
X384344Y125044D01*
X384483Y125145D01*
X384626Y125261D01*
X384927Y125541D01*
X386341Y124127D01*
D02*
G37*
G36*
X224930Y128705D02*
X224420Y128525D01*
X223970Y128225D01*
X223580Y127805D01*
X223250Y127265D01*
X222980Y126605D01*
X222770Y125825D01*
X222620Y124925D01*
X222530Y123905D01*
X222500Y122765D01*
X216500D01*
X216470Y123905D01*
X216380Y124925D01*
X216230Y125825D01*
X216020Y126605D01*
X215750Y127265D01*
X215420Y127805D01*
X215030Y128225D01*
X214580Y128525D01*
X214070Y128705D01*
X213500Y128765D01*
X225500D01*
X224930Y128705D01*
D02*
G37*
G36*
X259094Y118622D02*
X259013Y118694D01*
X258917Y118758D01*
X258806Y118815D01*
X258681Y118864D01*
X258541Y118905D01*
X258387Y118939D01*
X258218Y118966D01*
X258034Y118985D01*
X257623Y119000D01*
Y121000D01*
X257836Y121004D01*
X258218Y121034D01*
X258387Y121061D01*
X258541Y121095D01*
X258681Y121136D01*
X258806Y121185D01*
X258917Y121242D01*
X259013Y121306D01*
X259094Y121378D01*
Y118622D01*
D02*
G37*
G36*
X271340Y118220D02*
X271333Y118206D01*
X271326Y118172D01*
X271321Y118118D01*
X271308Y117834D01*
X271302Y117172D01*
X269302Y117257D01*
X269321Y118424D01*
X271340Y118220D01*
D02*
G37*
G36*
X228523Y127771D02*
X228951Y127512D01*
Y121000D01*
X229145Y120025D01*
X229698Y119198D01*
X237437Y111458D01*
X237054Y110535D01*
X234671D01*
X223534Y121671D01*
Y123319D01*
X223548Y123847D01*
X223632Y124796D01*
X223767Y125608D01*
X223948Y126278D01*
X224163Y126803D01*
X224397Y127186D01*
X224635Y127443D01*
X224880Y127606D01*
X225156Y127703D01*
X225430Y127732D01*
X227374D01*
X227764Y127810D01*
X227951Y127935D01*
X228523Y127771D01*
D02*
G37*
%LPC*%
G36*
X457853Y480553D02*
X454400D01*
Y477100D01*
X457853D01*
Y480553D01*
D02*
G37*
G36*
X453400D02*
X449947D01*
Y477100D01*
X453400D01*
Y480553D01*
D02*
G37*
G36*
X204020Y480453D02*
X204000D01*
Y477000D01*
X207453D01*
Y477020D01*
X207183Y478026D01*
X206663Y478927D01*
X205927Y479663D01*
X205026Y480183D01*
X204020Y480453D01*
D02*
G37*
G36*
X224020D02*
X224000D01*
Y477000D01*
X227453D01*
Y477020D01*
X227183Y478026D01*
X226663Y478927D01*
X225927Y479663D01*
X225026Y480183D01*
X224020Y480453D01*
D02*
G37*
G36*
X305344D02*
X301891D01*
Y477000D01*
X305344D01*
Y480453D01*
D02*
G37*
G36*
X484409D02*
X480957D01*
Y477000D01*
X484409D01*
Y480453D01*
D02*
G37*
G36*
X479957D02*
X476504D01*
Y477000D01*
X479957D01*
Y480453D01*
D02*
G37*
G36*
X300891D02*
X297438D01*
Y477000D01*
X300891D01*
Y480453D01*
D02*
G37*
G36*
X203000D02*
X202980D01*
X201974Y480183D01*
X201073Y479663D01*
X200337Y478927D01*
X199817Y478026D01*
X199547Y477020D01*
Y477000D01*
X203000D01*
Y480453D01*
D02*
G37*
G36*
X223000D02*
X222980D01*
X221974Y480183D01*
X221073Y479663D01*
X220337Y478927D01*
X219817Y478026D01*
X219547Y477020D01*
Y477000D01*
X223000D01*
Y480453D01*
D02*
G37*
G36*
X457853Y476100D02*
X454400D01*
Y472647D01*
X457853D01*
Y476100D01*
D02*
G37*
G36*
X453400D02*
X449947D01*
Y472647D01*
X453400D01*
Y476100D01*
D02*
G37*
G36*
X520977Y480453D02*
X519936D01*
X518931Y480183D01*
X518030Y479663D01*
X517294Y478927D01*
X516773Y478026D01*
X516504Y477020D01*
Y475980D01*
X516773Y474974D01*
X517294Y474073D01*
X518030Y473337D01*
X518931Y472817D01*
X519936Y472547D01*
X520977D01*
X521982Y472817D01*
X522884Y473337D01*
X523620Y474073D01*
X524140Y474974D01*
X524409Y475980D01*
Y477020D01*
X524140Y478026D01*
X523620Y478927D01*
X522884Y479663D01*
X521982Y480183D01*
X520977Y480453D01*
D02*
G37*
G36*
X510977D02*
X509936D01*
X508931Y480183D01*
X508030Y479663D01*
X507294Y478927D01*
X506773Y478026D01*
X506504Y477020D01*
Y475980D01*
X506773Y474974D01*
X507294Y474073D01*
X508030Y473337D01*
X508931Y472817D01*
X509936Y472547D01*
X510977D01*
X511982Y472817D01*
X512884Y473337D01*
X513620Y474073D01*
X514140Y474974D01*
X514409Y475980D01*
Y477020D01*
X514140Y478026D01*
X513620Y478927D01*
X512884Y479663D01*
X511982Y480183D01*
X510977Y480453D01*
D02*
G37*
G36*
X498772Y487549D02*
X426400D01*
X425424Y487355D01*
X424598Y486802D01*
X422098Y484302D01*
X421545Y483475D01*
X421351Y482500D01*
Y481392D01*
X421348Y481353D01*
X421309Y481096D01*
X421257Y480862D01*
X421192Y480650D01*
X421116Y480458D01*
X421029Y480285D01*
X420932Y480130D01*
X420825Y479988D01*
X420674Y479826D01*
X420511Y479675D01*
X420370Y479568D01*
X420215Y479471D01*
X420042Y479384D01*
X419850Y479308D01*
X419638Y479243D01*
X419404Y479191D01*
X419147Y479152D01*
X419108Y479149D01*
X389600D01*
X388625Y478955D01*
X387798Y478402D01*
X382698Y473302D01*
X382145Y472475D01*
X381951Y471500D01*
Y463000D01*
X382145Y462024D01*
X382698Y461198D01*
X385429Y458466D01*
X388178Y455410D01*
X388244Y455312D01*
X388397Y455209D01*
X388403Y455204D01*
X388410Y455201D01*
X388575Y455091D01*
X388749Y455056D01*
X388768Y455048D01*
X388791Y455048D01*
X388965Y455013D01*
X409083D01*
X409473Y455091D01*
X409804Y455312D01*
X410025Y455643D01*
X410102Y456033D01*
Y460049D01*
X410025Y460439D01*
X409804Y460770D01*
X409473Y460991D01*
X409083Y461068D01*
X391473D01*
X391384Y461073D01*
X391058Y461122D01*
X390727Y461204D01*
X390388Y461323D01*
X390041Y461479D01*
X389686Y461674D01*
X389322Y461911D01*
X388950Y462190D01*
X388716Y462389D01*
X387049Y464056D01*
Y465367D01*
X387974Y465618D01*
X388049Y465603D01*
X388244Y465312D01*
X388575Y465091D01*
X388965Y465013D01*
X408961D01*
X409352Y465091D01*
X409682Y465312D01*
X409730Y465383D01*
X409836Y465405D01*
X411069Y465492D01*
X431141D01*
X432116Y465686D01*
X432943Y466238D01*
X435702Y468998D01*
X436255Y469825D01*
X436449Y470800D01*
Y471808D01*
X436452Y471847D01*
X436491Y472104D01*
X436543Y472338D01*
X436608Y472550D01*
X436684Y472742D01*
X436771Y472915D01*
X436868Y473070D01*
X436975Y473211D01*
X437128Y473377D01*
X437170Y473445D01*
X437535Y473810D01*
X438134Y474846D01*
X438407Y475867D01*
X439393D01*
X439666Y474846D01*
X440265Y473810D01*
X441110Y472964D01*
X442146Y472366D01*
X443302Y472057D01*
X444498D01*
X445654Y472366D01*
X446690Y472964D01*
X447536Y473810D01*
X448134Y474846D01*
X448443Y476002D01*
Y477198D01*
X448134Y478354D01*
X447536Y479390D01*
X446690Y480235D01*
X445654Y480834D01*
X444498Y481143D01*
X443302D01*
X442146Y480834D01*
X441110Y480235D01*
X440265Y479390D01*
X439666Y478354D01*
X439393Y477333D01*
X438407D01*
X438134Y478354D01*
X437535Y479390D01*
X436690Y480235D01*
X435654Y480834D01*
X434498Y481143D01*
X433302D01*
X432146Y480834D01*
X431110Y480235D01*
X430265Y479390D01*
X429666Y478354D01*
X429393Y477333D01*
X428407D01*
X428134Y478354D01*
X427535Y479390D01*
X427170Y479755D01*
X427128Y479823D01*
X426975Y479988D01*
X426868Y480130D01*
X426771Y480285D01*
X426684Y480458D01*
X426608Y480650D01*
X426543Y480862D01*
X426491Y481096D01*
X426452Y481353D01*
X426449Y481392D01*
Y481444D01*
X427456Y482451D01*
X497716D01*
X497908Y482259D01*
Y480186D01*
X497894Y480055D01*
X497863Y479858D01*
X497827Y479694D01*
X497788Y479561D01*
X497748Y479460D01*
X497714Y479393D01*
X497688Y479354D01*
X497625Y479283D01*
X497591Y479224D01*
X497294Y478927D01*
X496773Y478026D01*
X496504Y477020D01*
Y475980D01*
X496773Y474974D01*
X497294Y474073D01*
X498030Y473337D01*
X498931Y472817D01*
X499936Y472547D01*
X500977D01*
X501982Y472817D01*
X502884Y473337D01*
X503620Y474073D01*
X504140Y474974D01*
X504409Y475980D01*
Y477020D01*
X504140Y478026D01*
X503620Y478927D01*
X503323Y479224D01*
X503288Y479283D01*
X503225Y479354D01*
X503200Y479393D01*
X503165Y479460D01*
X503126Y479561D01*
X503086Y479694D01*
X503050Y479858D01*
X503021Y480043D01*
X503006Y480237D01*
Y483315D01*
X502812Y484291D01*
X502259Y485117D01*
X500574Y486802D01*
X499747Y487355D01*
X498772Y487549D01*
D02*
G37*
G36*
X490977Y480453D02*
X489936D01*
X488931Y480183D01*
X488030Y479663D01*
X487294Y478927D01*
X486773Y478026D01*
X486504Y477020D01*
Y475980D01*
X486773Y474974D01*
X487294Y474073D01*
X488030Y473337D01*
X488931Y472817D01*
X489936Y472547D01*
X490977D01*
X491982Y472817D01*
X492884Y473337D01*
X493620Y474073D01*
X494140Y474974D01*
X494409Y475980D01*
Y477020D01*
X494140Y478026D01*
X493620Y478927D01*
X492884Y479663D01*
X491982Y480183D01*
X490977Y480453D01*
D02*
G37*
G36*
X484409Y476000D02*
X480957D01*
Y472547D01*
X484409D01*
Y476000D01*
D02*
G37*
G36*
X479957D02*
X476504D01*
Y472547D01*
X479957D01*
Y476000D01*
D02*
G37*
G36*
X305344D02*
X301891D01*
Y472547D01*
X305344D01*
Y476000D01*
D02*
G37*
G36*
X300891D02*
X297438D01*
Y472547D01*
X300891D01*
Y476000D01*
D02*
G37*
G36*
X247453Y480453D02*
X239547D01*
Y472547D01*
X247453D01*
Y480453D01*
D02*
G37*
G36*
X234020D02*
X232980D01*
X231974Y480183D01*
X231073Y479663D01*
X230337Y478927D01*
X229817Y478026D01*
X229547Y477020D01*
Y475980D01*
X229817Y474974D01*
X230337Y474073D01*
X231073Y473337D01*
X231974Y472817D01*
X232980Y472547D01*
X234020D01*
X235026Y472817D01*
X235927Y473337D01*
X236663Y474073D01*
X237183Y474974D01*
X237453Y475980D01*
Y477020D01*
X237183Y478026D01*
X236663Y478927D01*
X235927Y479663D01*
X235026Y480183D01*
X234020Y480453D01*
D02*
G37*
G36*
X227453Y476000D02*
X224000D01*
Y472547D01*
X224020D01*
X225026Y472817D01*
X225927Y473337D01*
X226663Y474073D01*
X227183Y474974D01*
X227453Y475980D01*
Y476000D01*
D02*
G37*
G36*
X223000D02*
X219547D01*
Y475980D01*
X219817Y474974D01*
X220337Y474073D01*
X221073Y473337D01*
X221974Y472817D01*
X222980Y472547D01*
X223000D01*
Y476000D01*
D02*
G37*
G36*
X214020Y480453D02*
X212980D01*
X211974Y480183D01*
X211073Y479663D01*
X210337Y478927D01*
X209817Y478026D01*
X209547Y477020D01*
Y475980D01*
X209817Y474974D01*
X210337Y474073D01*
X211073Y473337D01*
X211974Y472817D01*
X212980Y472547D01*
X214020D01*
X215026Y472817D01*
X215927Y473337D01*
X216663Y474073D01*
X217183Y474974D01*
X217453Y475980D01*
Y477020D01*
X217183Y478026D01*
X216663Y478927D01*
X215927Y479663D01*
X215026Y480183D01*
X214020Y480453D01*
D02*
G37*
G36*
X207453Y476000D02*
X204000D01*
Y472547D01*
X204020D01*
X205026Y472817D01*
X205927Y473337D01*
X206663Y474073D01*
X207183Y474974D01*
X207453Y475980D01*
Y476000D01*
D02*
G37*
G36*
X203000D02*
X199547D01*
Y475980D01*
X199817Y474974D01*
X200337Y474073D01*
X201073Y473337D01*
X201974Y472817D01*
X202980Y472547D01*
X203000D01*
Y476000D01*
D02*
G37*
G36*
X409072Y451068D02*
X393215D01*
Y448541D01*
X410091D01*
Y450049D01*
X410014Y450439D01*
X409793Y450770D01*
X409462Y450991D01*
X409072Y451068D01*
D02*
G37*
G36*
X392215D02*
X388965D01*
X388575Y450991D01*
X388244Y450770D01*
X388023Y450439D01*
X387945Y450049D01*
Y448541D01*
X392215D01*
Y451068D01*
D02*
G37*
G36*
X410091Y447541D02*
X393215D01*
Y445013D01*
X409072D01*
X409462Y445091D01*
X409793Y445312D01*
X410014Y445643D01*
X410091Y446033D01*
Y447541D01*
D02*
G37*
G36*
X392215D02*
X387945D01*
Y446033D01*
X388023Y445643D01*
X388244Y445312D01*
X388575Y445091D01*
X388965Y445013D01*
X392215D01*
Y447541D01*
D02*
G37*
G36*
X453000Y435939D02*
Y433500D01*
X455439D01*
X455266Y434146D01*
X454875Y434823D01*
X454323Y435375D01*
X453646Y435766D01*
X453000Y435939D01*
D02*
G37*
G36*
X452000D02*
X451354Y435766D01*
X450677Y435375D01*
X450125Y434823D01*
X449734Y434146D01*
X449561Y433500D01*
X452000D01*
Y435939D01*
D02*
G37*
G36*
X461585Y410884D02*
Y406477D01*
X465270D01*
Y406764D01*
X465128Y407847D01*
X464710Y408857D01*
X464045Y409724D01*
X463178Y410389D01*
X462168Y410807D01*
X461585Y410884D01*
D02*
G37*
G36*
X460585D02*
X460002Y410807D01*
X458992Y410389D01*
X458125Y409724D01*
X457460Y408857D01*
X457042Y407847D01*
X456900Y406764D01*
Y406477D01*
X460585D01*
Y410884D01*
D02*
G37*
G36*
X465270Y405477D02*
X461585D01*
Y401070D01*
X462168Y401146D01*
X463178Y401565D01*
X464045Y402230D01*
X464710Y403096D01*
X465128Y404106D01*
X465270Y405189D01*
Y405477D01*
D02*
G37*
G36*
X460585D02*
X456900D01*
Y405189D01*
X457042Y404106D01*
X457460Y403096D01*
X458125Y402230D01*
X458992Y401565D01*
X460002Y401146D01*
X460585Y401070D01*
Y405477D01*
D02*
G37*
G36*
X471085Y410949D02*
X470002Y410807D01*
X468992Y410389D01*
X468125Y409724D01*
X467460Y408857D01*
X467042Y407847D01*
X466900Y406764D01*
Y405189D01*
X467042Y404106D01*
X467460Y403096D01*
X468125Y402230D01*
X468992Y401565D01*
X470002Y401146D01*
X471085Y401004D01*
X472168Y401146D01*
X473178Y401565D01*
X474045Y402230D01*
X474710Y403096D01*
X475128Y404106D01*
X475270Y405189D01*
Y406764D01*
X475128Y407847D01*
X474710Y408857D01*
X474045Y409724D01*
X473178Y410389D01*
X472168Y410807D01*
X471085Y410949D01*
D02*
G37*
G36*
X441085D02*
X440002Y410807D01*
X438992Y410389D01*
X438126Y409724D01*
X437460Y408857D01*
X437042Y407847D01*
X436900Y406764D01*
Y405189D01*
X437042Y404106D01*
X437460Y403096D01*
X438126Y402230D01*
X438992Y401565D01*
X440002Y401146D01*
X441085Y401004D01*
X442168Y401146D01*
X443178Y401565D01*
X444044Y402230D01*
X444710Y403096D01*
X445128Y404106D01*
X445270Y405189D01*
Y406764D01*
X445128Y407847D01*
X444710Y408857D01*
X444044Y409724D01*
X443178Y410389D01*
X442168Y410807D01*
X441085Y410949D01*
D02*
G37*
G36*
X410102Y397541D02*
X405833D01*
Y395013D01*
X409083D01*
X409473Y395091D01*
X409804Y395312D01*
X410025Y395643D01*
X410102Y396033D01*
Y397541D01*
D02*
G37*
G36*
X404833D02*
X387943D01*
Y396033D01*
X388021Y395643D01*
X388242Y395312D01*
X388573Y395091D01*
X388963Y395013D01*
X404833D01*
Y397541D01*
D02*
G37*
G36*
X442315Y368907D02*
Y364500D01*
X446000D01*
Y364787D01*
X445857Y365871D01*
X445439Y366880D01*
X444774Y367747D01*
X443907Y368412D01*
X442898Y368830D01*
X442315Y368907D01*
D02*
G37*
G36*
X441315D02*
X440731Y368830D01*
X439722Y368412D01*
X438855Y367747D01*
X438190Y366880D01*
X437772Y365871D01*
X437629Y364787D01*
Y364500D01*
X441315D01*
Y368907D01*
D02*
G37*
G36*
X428953Y366453D02*
X425500D01*
Y363000D01*
X428953D01*
Y366453D01*
D02*
G37*
G36*
X424500D02*
X421047D01*
Y363000D01*
X424500D01*
Y366453D01*
D02*
G37*
G36*
X446000Y363500D02*
X442315D01*
Y359093D01*
X442898Y359170D01*
X443907Y359588D01*
X444774Y360253D01*
X445439Y361120D01*
X445857Y362129D01*
X446000Y363213D01*
Y363500D01*
D02*
G37*
G36*
X441315D02*
X437629D01*
Y363213D01*
X437772Y362129D01*
X438190Y361120D01*
X438855Y360253D01*
X439722Y359588D01*
X440731Y359170D01*
X441315Y359093D01*
Y363500D01*
D02*
G37*
G36*
X428953Y362000D02*
X425500D01*
Y358547D01*
X428953D01*
Y362000D01*
D02*
G37*
G36*
X424500D02*
X421047D01*
Y358547D01*
X424500D01*
Y362000D01*
D02*
G37*
G36*
X392215Y351068D02*
X388965D01*
X388575Y350991D01*
X388244Y350769D01*
X388023Y350439D01*
X387945Y350049D01*
Y348541D01*
X392215D01*
Y351068D01*
D02*
G37*
G36*
X410088Y347541D02*
X393215D01*
Y345013D01*
X409068D01*
X409458Y345091D01*
X409789Y345312D01*
X410010Y345643D01*
X410088Y346033D01*
Y347541D01*
D02*
G37*
G36*
X392215D02*
X387945D01*
Y346033D01*
X388023Y345643D01*
X388244Y345312D01*
X388575Y345091D01*
X388965Y345013D01*
X392215D01*
Y347541D01*
D02*
G37*
G36*
X409067Y331068D02*
X388965D01*
X388575Y330991D01*
X388244Y330769D01*
X388023Y330439D01*
X387945Y330049D01*
Y326033D01*
X388023Y325643D01*
X388244Y325312D01*
X388575Y325091D01*
X388965Y325013D01*
X409067D01*
X409457Y325091D01*
X409788Y325312D01*
X409825Y325367D01*
X409936Y325389D01*
X411155Y325471D01*
X421443D01*
X421854Y325234D01*
X422609Y325031D01*
X423391D01*
X424146Y325234D01*
X424823Y325625D01*
X425375Y326177D01*
X425766Y326854D01*
X425969Y327609D01*
Y328391D01*
X425766Y329146D01*
X425375Y329823D01*
X424823Y330375D01*
X424146Y330766D01*
X423391Y330968D01*
X422609D01*
X421854Y330766D01*
X421513Y330569D01*
X410892D01*
X410243Y330617D01*
X409980Y330654D01*
X409847Y330682D01*
X409788Y330769D01*
X409457Y330991D01*
X409067Y331068D01*
D02*
G37*
G36*
X409083Y321068D02*
X388960D01*
X388570Y320991D01*
X388239Y320770D01*
X388018Y320439D01*
X387940Y320049D01*
Y316033D01*
X388018Y315643D01*
X388239Y315312D01*
X388570Y315091D01*
X388960Y315013D01*
X409083D01*
X409473Y315091D01*
X409804Y315312D01*
X409841Y315367D01*
X409951Y315389D01*
X411171Y315471D01*
X411943D01*
X412354Y315234D01*
X413109Y315032D01*
X413891D01*
X414646Y315234D01*
X415323Y315625D01*
X415875Y316177D01*
X416266Y316854D01*
X416468Y317609D01*
Y318391D01*
X416266Y319146D01*
X415875Y319823D01*
X415323Y320375D01*
X414646Y320766D01*
X413891Y320969D01*
X413109D01*
X412354Y320766D01*
X412013Y320569D01*
X410908D01*
X410258Y320617D01*
X409996Y320654D01*
X409862Y320682D01*
X409804Y320770D01*
X409473Y320991D01*
X409083Y321068D01*
D02*
G37*
G36*
X409066Y311068D02*
X388965D01*
X388575Y310991D01*
X388244Y310770D01*
X388023Y310439D01*
X387945Y310049D01*
Y306033D01*
X388023Y305643D01*
X388244Y305312D01*
X388575Y305091D01*
X388965Y305013D01*
X409066D01*
X409457Y305091D01*
X409788Y305312D01*
X409825Y305367D01*
X409935Y305389D01*
X411155Y305471D01*
X414443D01*
X414854Y305234D01*
X415609Y305031D01*
X416391D01*
X417146Y305234D01*
X417823Y305625D01*
X418375Y306177D01*
X418766Y306854D01*
X418968Y307609D01*
Y308391D01*
X418766Y309146D01*
X418375Y309823D01*
X417823Y310375D01*
X417146Y310766D01*
X416391Y310968D01*
X415609D01*
X414854Y310766D01*
X414513Y310569D01*
X410892D01*
X410242Y310617D01*
X409979Y310654D01*
X409846Y310682D01*
X409788Y310770D01*
X409457Y310991D01*
X409066Y311068D01*
D02*
G37*
G36*
X409083Y301068D02*
X405833D01*
Y298541D01*
X410102D01*
Y300049D01*
X410025Y300439D01*
X409804Y300769D01*
X409473Y300991D01*
X409083Y301068D01*
D02*
G37*
G36*
X404833D02*
X388959D01*
X388569Y300991D01*
X388238Y300769D01*
X388017Y300439D01*
X387940Y300049D01*
Y298541D01*
X404833D01*
Y301068D01*
D02*
G37*
G36*
X338750Y301027D02*
X335500D01*
Y298500D01*
X339770D01*
Y300008D01*
X339692Y300398D01*
X339471Y300729D01*
X339140Y300950D01*
X338750Y301027D01*
D02*
G37*
G36*
X334500D02*
X318634D01*
X318243Y300950D01*
X317913Y300729D01*
X317691Y300398D01*
X317614Y300008D01*
Y298500D01*
X334500D01*
Y301027D01*
D02*
G37*
G36*
X410102Y297541D02*
X405833D01*
Y295013D01*
X409083D01*
X409473Y295091D01*
X409804Y295312D01*
X410025Y295643D01*
X410102Y296033D01*
Y297541D01*
D02*
G37*
G36*
X404833D02*
X387940D01*
Y296033D01*
X388017Y295643D01*
X388238Y295312D01*
X388569Y295091D01*
X388959Y295013D01*
X404833D01*
Y297541D01*
D02*
G37*
G36*
X466391Y340968D02*
X465609D01*
X464854Y340766D01*
X464177Y340375D01*
X463625Y339823D01*
X463234Y339146D01*
X463031Y338391D01*
Y337609D01*
X463234Y336854D01*
X463451Y336478D01*
Y290594D01*
X463145Y290136D01*
X462951Y289160D01*
Y242522D01*
X462734Y242146D01*
X462532Y241391D01*
Y240609D01*
X462734Y239854D01*
X463125Y239177D01*
X463677Y238625D01*
X464354Y238234D01*
X465109Y238032D01*
X465891D01*
X466646Y238234D01*
X467323Y238625D01*
X467875Y239177D01*
X468266Y239854D01*
X468469Y240609D01*
Y241391D01*
X468266Y242146D01*
X468049Y242522D01*
Y288227D01*
X468355Y288685D01*
X468549Y289660D01*
Y336478D01*
X468766Y336854D01*
X468968Y337609D01*
Y338391D01*
X468766Y339146D01*
X468375Y339823D01*
X467823Y340375D01*
X467146Y340766D01*
X466391Y340968D01*
D02*
G37*
G36*
X334591Y218969D02*
X333809D01*
X333054Y218766D01*
X332377Y218375D01*
X331825Y217823D01*
X331434Y217146D01*
X331231Y216391D01*
Y215609D01*
X331434Y214854D01*
X331825Y214177D01*
X332377Y213625D01*
X333054Y213234D01*
X333809Y213032D01*
X334591D01*
X335346Y213234D01*
X335549Y213351D01*
X349005D01*
X349554Y213034D01*
X350309Y212831D01*
X351091D01*
X351846Y213034D01*
X352523Y213425D01*
X353075Y213977D01*
X353466Y214654D01*
X353668Y215409D01*
Y216191D01*
X353466Y216946D01*
X353075Y217623D01*
X352523Y218175D01*
X351846Y218566D01*
X351091Y218769D01*
X350309D01*
X349554Y218566D01*
X349351Y218449D01*
X335895D01*
X335346Y218766D01*
X334591Y218969D01*
D02*
G37*
G36*
X512520Y214353D02*
X512500D01*
Y210900D01*
X515953D01*
Y210920D01*
X515683Y211926D01*
X515163Y212827D01*
X514427Y213563D01*
X513526Y214083D01*
X512520Y214353D01*
D02*
G37*
G36*
X492520D02*
X492500D01*
Y210900D01*
X495953D01*
Y210920D01*
X495683Y211926D01*
X495163Y212827D01*
X494427Y213563D01*
X493526Y214083D01*
X492520Y214353D01*
D02*
G37*
G36*
X522520D02*
X522500D01*
Y210900D01*
X525953D01*
Y210920D01*
X525683Y211926D01*
X525163Y212827D01*
X524427Y213563D01*
X523526Y214083D01*
X522520Y214353D01*
D02*
G37*
G36*
X511500D02*
X511480D01*
X510474Y214083D01*
X509573Y213563D01*
X508837Y212827D01*
X508317Y211926D01*
X508047Y210920D01*
Y210900D01*
X511500D01*
Y214353D01*
D02*
G37*
G36*
X521500D02*
X521480D01*
X520474Y214083D01*
X519573Y213563D01*
X518837Y212827D01*
X518317Y211926D01*
X518047Y210920D01*
Y210900D01*
X521500D01*
Y214353D01*
D02*
G37*
G36*
X491500D02*
X491480D01*
X490474Y214083D01*
X489573Y213563D01*
X488837Y212827D01*
X488317Y211926D01*
X488047Y210920D01*
Y210900D01*
X491500D01*
Y214353D01*
D02*
G37*
G36*
X525953Y209900D02*
X522500D01*
Y206447D01*
X522520D01*
X523526Y206717D01*
X524427Y207237D01*
X525163Y207973D01*
X525683Y208874D01*
X525953Y209880D01*
Y209900D01*
D02*
G37*
G36*
X521500D02*
X518047D01*
Y209880D01*
X518317Y208874D01*
X518837Y207973D01*
X519573Y207237D01*
X520474Y206717D01*
X521480Y206447D01*
X521500D01*
Y209900D01*
D02*
G37*
G36*
X515953D02*
X512500D01*
Y206447D01*
X512520D01*
X513526Y206717D01*
X514427Y207237D01*
X515163Y207973D01*
X515683Y208874D01*
X515953Y209880D01*
Y209900D01*
D02*
G37*
G36*
X511500D02*
X508047D01*
Y209880D01*
X508317Y208874D01*
X508837Y207973D01*
X509573Y207237D01*
X510474Y206717D01*
X511480Y206447D01*
X511500D01*
Y209900D01*
D02*
G37*
G36*
X495953D02*
X492500D01*
Y206447D01*
X492520D01*
X493526Y206717D01*
X494427Y207237D01*
X495163Y207973D01*
X495683Y208874D01*
X495953Y209880D01*
Y209900D01*
D02*
G37*
G36*
X491500D02*
X488047D01*
Y209880D01*
X488317Y208874D01*
X488837Y207973D01*
X489573Y207237D01*
X490474Y206717D01*
X491480Y206447D01*
X491500D01*
Y209900D01*
D02*
G37*
G36*
X482520Y214353D02*
X481480D01*
X480474Y214083D01*
X479573Y213563D01*
X478837Y212827D01*
X478317Y211926D01*
X478047Y210920D01*
Y209880D01*
X478317Y208874D01*
X478837Y207973D01*
X479573Y207237D01*
X480474Y206717D01*
X481480Y206447D01*
X482520D01*
X483526Y206717D01*
X484427Y207237D01*
X485163Y207973D01*
X485683Y208874D01*
X485953Y209880D01*
Y210920D01*
X485683Y211926D01*
X485163Y212827D01*
X484427Y213563D01*
X483526Y214083D01*
X482520Y214353D01*
D02*
G37*
G36*
X476200Y197939D02*
Y195500D01*
X478639D01*
X478466Y196146D01*
X478075Y196823D01*
X477523Y197375D01*
X476846Y197766D01*
X476200Y197939D01*
D02*
G37*
G36*
X475200D02*
X474554Y197766D01*
X473877Y197375D01*
X473325Y196823D01*
X472934Y196146D01*
X472761Y195500D01*
X475200D01*
Y197939D01*
D02*
G37*
G36*
X478639Y194500D02*
X476200D01*
Y192061D01*
X476846Y192234D01*
X477523Y192625D01*
X478075Y193177D01*
X478466Y193854D01*
X478639Y194500D01*
D02*
G37*
G36*
X475200D02*
X472761D01*
X472934Y193854D01*
X473325Y193177D01*
X473877Y192625D01*
X474554Y192234D01*
X475200Y192061D01*
Y194500D01*
D02*
G37*
G36*
X525400Y175539D02*
Y173100D01*
X527839D01*
X527666Y173746D01*
X527275Y174423D01*
X526723Y174975D01*
X526046Y175366D01*
X525400Y175539D01*
D02*
G37*
G36*
X524400D02*
X523754Y175366D01*
X523077Y174975D01*
X522525Y174423D01*
X522134Y173746D01*
X521961Y173100D01*
X524400D01*
Y175539D01*
D02*
G37*
G36*
X502520Y214353D02*
X501480D01*
X500474Y214083D01*
X499573Y213563D01*
X498837Y212827D01*
X498317Y211926D01*
X498047Y210920D01*
Y209880D01*
X498317Y208874D01*
X498470Y208609D01*
Y202529D01*
X498590Y201615D01*
X498943Y200764D01*
X499504Y200033D01*
X502433Y197104D01*
X503164Y196543D01*
X504015Y196190D01*
X504929Y196070D01*
X512609D01*
X513470Y195209D01*
Y175900D01*
X513590Y174986D01*
X513943Y174135D01*
X514504Y173404D01*
X515235Y172843D01*
X516086Y172490D01*
X517000Y172370D01*
X517914Y172490D01*
X518765Y172843D01*
X519496Y173404D01*
X520057Y174135D01*
X520410Y174986D01*
X520530Y175900D01*
Y196671D01*
X520410Y197585D01*
X520057Y198436D01*
X519496Y199167D01*
X516567Y202096D01*
X515836Y202657D01*
X514985Y203010D01*
X514071Y203130D01*
X506391D01*
X505530Y203991D01*
Y208609D01*
X505683Y208874D01*
X505953Y209880D01*
Y210920D01*
X505683Y211926D01*
X505163Y212827D01*
X504427Y213563D01*
X503526Y214083D01*
X502520Y214353D01*
D02*
G37*
G36*
X527839Y172100D02*
X525400D01*
Y169661D01*
X526046Y169834D01*
X526723Y170225D01*
X527275Y170777D01*
X527666Y171454D01*
X527839Y172100D01*
D02*
G37*
G36*
X524400D02*
X521961D01*
X522134Y171454D01*
X522525Y170777D01*
X523077Y170225D01*
X523754Y169834D01*
X524400Y169661D01*
Y172100D01*
D02*
G37*
G36*
X362200Y171039D02*
Y168600D01*
X364639D01*
X364466Y169246D01*
X364075Y169923D01*
X363523Y170475D01*
X362846Y170866D01*
X362200Y171039D01*
D02*
G37*
G36*
X361200D02*
X360554Y170866D01*
X359877Y170475D01*
X359325Y169923D01*
X358934Y169246D01*
X358761Y168600D01*
X361200D01*
Y171039D01*
D02*
G37*
G36*
X364639Y167600D02*
X362200D01*
Y165161D01*
X362846Y165334D01*
X363523Y165725D01*
X364075Y166277D01*
X364466Y166954D01*
X364639Y167600D01*
D02*
G37*
G36*
X361200D02*
X358761D01*
X358934Y166954D01*
X359325Y166277D01*
X359877Y165725D01*
X360554Y165334D01*
X361200Y165161D01*
Y167600D01*
D02*
G37*
G36*
X379300Y158739D02*
Y156300D01*
X381739D01*
X381566Y156946D01*
X381175Y157623D01*
X380623Y158175D01*
X379946Y158566D01*
X379300Y158739D01*
D02*
G37*
G36*
X378300D02*
X377654Y158566D01*
X376977Y158175D01*
X376425Y157623D01*
X376034Y156946D01*
X375861Y156300D01*
X378300D01*
Y158739D01*
D02*
G37*
G36*
X381739Y155300D02*
X379300D01*
Y152861D01*
X379946Y153034D01*
X380623Y153425D01*
X381175Y153977D01*
X381566Y154654D01*
X381739Y155300D01*
D02*
G37*
G36*
X378300D02*
X375861D01*
X376034Y154654D01*
X376425Y153977D01*
X376977Y153425D01*
X377654Y153034D01*
X378300Y152861D01*
Y155300D01*
D02*
G37*
G36*
X531101Y161268D02*
X504331D01*
Y145000D01*
X532121D01*
Y160248D01*
X532043Y160638D01*
X531822Y160969D01*
X531491Y161190D01*
X531101Y161268D01*
D02*
G37*
G36*
X503331D02*
X495957D01*
X495567Y161190D01*
X495236Y160969D01*
X495015Y160638D01*
X494937Y160248D01*
Y145000D01*
X503331D01*
Y161268D01*
D02*
G37*
G36*
X361491Y251669D02*
X360709D01*
X359954Y251466D01*
X359277Y251075D01*
X358725Y250523D01*
X358334Y249846D01*
X358132Y249091D01*
Y248309D01*
X358334Y247554D01*
X358651Y247005D01*
Y205256D01*
X325198Y171802D01*
X324645Y170975D01*
X324451Y170000D01*
Y144722D01*
X324234Y144346D01*
X324031Y143591D01*
Y142809D01*
X324234Y142054D01*
X324625Y141377D01*
X325177Y140825D01*
X325342Y140730D01*
X325074Y139730D01*
X323829D01*
X323246Y140066D01*
X322491Y140269D01*
X321709D01*
X320954Y140066D01*
X320277Y139675D01*
X319725Y139123D01*
X319334Y138446D01*
X319131Y137691D01*
Y136909D01*
X319334Y136154D01*
X319725Y135477D01*
X320277Y134925D01*
X320954Y134534D01*
X321709Y134332D01*
X322491D01*
X323246Y134534D01*
X323415Y134632D01*
X332081D01*
X333056Y134826D01*
X333883Y135378D01*
X337702Y139198D01*
X338255Y140024D01*
X338449Y141000D01*
Y168544D01*
X370402Y200498D01*
X370955Y201325D01*
X371149Y202300D01*
Y246551D01*
X371266Y246754D01*
X371468Y247509D01*
Y248291D01*
X371266Y249046D01*
X370875Y249723D01*
X370323Y250275D01*
X369646Y250666D01*
X368891Y250869D01*
X368109D01*
X367354Y250666D01*
X366677Y250275D01*
X366125Y249723D01*
X365734Y249046D01*
X365531Y248291D01*
Y247509D01*
X365734Y246754D01*
X366051Y246205D01*
Y203356D01*
X334098Y171402D01*
X333545Y170575D01*
X333351Y169600D01*
Y142056D01*
X331025Y139730D01*
X328926D01*
X328658Y140730D01*
X328823Y140825D01*
X329375Y141377D01*
X329766Y142054D01*
X329969Y142809D01*
Y143591D01*
X329766Y144346D01*
X329549Y144722D01*
Y168944D01*
X363002Y202398D01*
X363555Y203224D01*
X363749Y204200D01*
Y247351D01*
X363866Y247554D01*
X364069Y248309D01*
Y249091D01*
X363866Y249846D01*
X363475Y250523D01*
X362923Y251075D01*
X362246Y251466D01*
X361491Y251669D01*
D02*
G37*
G36*
X532121Y144000D02*
X504331D01*
Y127732D01*
X531101D01*
X531491Y127810D01*
X531822Y128031D01*
X532043Y128362D01*
X532121Y128752D01*
Y144000D01*
D02*
G37*
G36*
X503331D02*
X494937D01*
Y128752D01*
X495015Y128362D01*
X495236Y128031D01*
X495567Y127810D01*
X495957Y127732D01*
X503331D01*
Y144000D01*
D02*
G37*
G36*
X203698Y118543D02*
X203600D01*
Y114500D01*
X207643D01*
Y114598D01*
X207334Y115754D01*
X206735Y116790D01*
X205890Y117636D01*
X204854Y118234D01*
X203698Y118543D01*
D02*
G37*
G36*
X202600D02*
X202502D01*
X201346Y118234D01*
X200310Y117636D01*
X199464Y116790D01*
X198866Y115754D01*
X198557Y114598D01*
Y114500D01*
X202600D01*
Y118543D01*
D02*
G37*
G36*
X207643Y113500D02*
X203600D01*
Y109457D01*
X203698D01*
X204854Y109766D01*
X205890Y110364D01*
X206735Y111210D01*
X207334Y112246D01*
X207643Y113402D01*
Y113500D01*
D02*
G37*
G36*
X202600D02*
X198557D01*
Y113402D01*
X198866Y112246D01*
X199464Y111210D01*
X200310Y110364D01*
X201346Y109766D01*
X202502Y109457D01*
X202600D01*
Y113500D01*
D02*
G37*
%LPD*%
G36*
X425410Y481576D02*
X425439Y481234D01*
X425488Y480909D01*
X425557Y480602D01*
X425645Y480312D01*
X425753Y480041D01*
X425880Y479786D01*
X426027Y479550D01*
X426194Y479331D01*
X426380Y479130D01*
X421420D01*
X421606Y479331D01*
X421773Y479550D01*
X421920Y479786D01*
X422047Y480041D01*
X422155Y480312D01*
X422243Y480602D01*
X422312Y480909D01*
X422361Y481234D01*
X422390Y481576D01*
X422400Y481936D01*
X425400D01*
X425410Y481576D01*
D02*
G37*
G36*
X501962Y480496D02*
X502008Y479923D01*
X502047Y479670D01*
X502098Y479438D01*
X502161Y479228D01*
X502235Y479041D01*
X502319Y478875D01*
X502416Y478731D01*
X502524Y478609D01*
X498390D01*
X498497Y478731D01*
X498594Y478875D01*
X498679Y479041D01*
X498753Y479228D01*
X498815Y479438D01*
X498866Y479670D01*
X498906Y479923D01*
X498934Y480199D01*
X498957Y480815D01*
X501957D01*
X501962Y480496D01*
D02*
G37*
G36*
X421370Y474120D02*
X421169Y474306D01*
X420950Y474473D01*
X420714Y474620D01*
X420459Y474747D01*
X420188Y474855D01*
X419898Y474943D01*
X419591Y475012D01*
X419266Y475061D01*
X418924Y475090D01*
X418564Y475100D01*
Y478100D01*
X418924Y478110D01*
X419266Y478139D01*
X419591Y478188D01*
X419898Y478257D01*
X420188Y478345D01*
X420459Y478453D01*
X420714Y478580D01*
X420950Y478727D01*
X421169Y478894D01*
X421370Y479080D01*
Y474120D01*
D02*
G37*
G36*
X429666Y474846D02*
X430265Y473810D01*
X430630Y473445D01*
X430672Y473377D01*
X430825Y473211D01*
X430932Y473070D01*
X431029Y472915D01*
X431116Y472742D01*
X431192Y472550D01*
X431257Y472338D01*
X431309Y472104D01*
X431347Y471852D01*
X430085Y470590D01*
X410769D01*
X410133Y470635D01*
X409867Y470670D01*
X409730Y470698D01*
X409682Y470770D01*
X409352Y470991D01*
X408961Y471068D01*
X389087D01*
X388862Y471356D01*
X388625Y472020D01*
X390656Y474051D01*
X419108D01*
X419147Y474048D01*
X419404Y474009D01*
X419638Y473957D01*
X419850Y473892D01*
X420042Y473816D01*
X420215Y473729D01*
X420370Y473632D01*
X420511Y473525D01*
X420677Y473372D01*
X420745Y473330D01*
X421110Y472964D01*
X422146Y472366D01*
X423302Y472057D01*
X424498D01*
X425654Y472366D01*
X426690Y472964D01*
X427535Y473810D01*
X428134Y474846D01*
X428407Y475867D01*
X429393D01*
X429666Y474846D01*
D02*
G37*
G36*
X436194Y473869D02*
X436027Y473650D01*
X435880Y473414D01*
X435753Y473159D01*
X435645Y472888D01*
X435557Y472598D01*
X435488Y472291D01*
X435439Y471966D01*
X435410Y471624D01*
X435400Y471264D01*
X432400D01*
X432390Y471624D01*
X432361Y471966D01*
X432312Y472291D01*
X432243Y472598D01*
X432155Y472888D01*
X432047Y473159D01*
X431920Y473414D01*
X431773Y473650D01*
X431606Y473869D01*
X431420Y474070D01*
X436380D01*
X436194Y473869D01*
D02*
G37*
G36*
X408978Y469942D02*
X409068Y469857D01*
X409218Y469783D01*
X409428Y469719D01*
X409698Y469664D01*
X410028Y469620D01*
X410868Y469560D01*
X411948Y469541D01*
Y466541D01*
X411378Y466536D01*
X409698Y466417D01*
X409428Y466362D01*
X409218Y466298D01*
X409068Y466224D01*
X408978Y466140D01*
X408948Y466046D01*
Y470036D01*
X408978Y469942D01*
D02*
G37*
G36*
X387889Y461754D02*
X388313Y461393D01*
X388737Y461075D01*
X389161Y460799D01*
X389586Y460566D01*
X390010Y460375D01*
X390434Y460226D01*
X390859Y460120D01*
X391283Y460057D01*
X391707Y460036D01*
X388978Y456046D01*
X385796Y459583D01*
X387464Y462157D01*
X387889Y461754D01*
D02*
G37*
G36*
X409084Y329938D02*
X409174Y329850D01*
X409324Y329773D01*
X409534Y329706D01*
X409804Y329649D01*
X410134Y329603D01*
X410974Y329541D01*
X412054Y329520D01*
Y326520D01*
X411484Y326516D01*
X409804Y326402D01*
X409534Y326349D01*
X409324Y326288D01*
X409174Y326217D01*
X409084Y326136D01*
X409054Y326046D01*
Y330036D01*
X409084Y329938D01*
D02*
G37*
G36*
X409100Y319938D02*
X409190Y319850D01*
X409340Y319773D01*
X409550Y319706D01*
X409820Y319649D01*
X410150Y319603D01*
X410990Y319541D01*
X412070Y319520D01*
Y316520D01*
X411500Y316516D01*
X409820Y316402D01*
X409550Y316350D01*
X409340Y316288D01*
X409190Y316217D01*
X409100Y316136D01*
X409070Y316046D01*
Y320036D01*
X409100Y319938D01*
D02*
G37*
G36*
X409084Y309938D02*
X409173Y309850D01*
X409324Y309773D01*
X409534Y309706D01*
X409803Y309649D01*
X410134Y309603D01*
X410974Y309541D01*
X412053Y309520D01*
Y306520D01*
X411484Y306516D01*
X409803Y306402D01*
X409534Y306349D01*
X409324Y306288D01*
X409173Y306217D01*
X409084Y306136D01*
X409054Y306046D01*
Y310036D01*
X409084Y309938D01*
D02*
G37*
%LPC*%
G36*
X338747Y451027D02*
X322882D01*
Y448500D01*
X339767D01*
Y450008D01*
X339689Y450398D01*
X339468Y450729D01*
X339137Y450950D01*
X338747Y451027D01*
D02*
G37*
G36*
X321882D02*
X318632D01*
X318242Y450950D01*
X317911Y450729D01*
X317690Y450398D01*
X317612Y450008D01*
Y448500D01*
X321882D01*
Y451027D01*
D02*
G37*
G36*
X339767Y447500D02*
X322882D01*
Y444973D01*
X338747D01*
X339137Y445050D01*
X339468Y445271D01*
X339689Y445602D01*
X339767Y445992D01*
Y447500D01*
D02*
G37*
G36*
X321882D02*
X317612D01*
Y445992D01*
X317690Y445602D01*
X317911Y445271D01*
X318242Y445050D01*
X318632Y444973D01*
X321882D01*
Y447500D01*
D02*
G37*
G36*
X338750Y441027D02*
X318639D01*
X318248Y440950D01*
X317918Y440729D01*
X317697Y440398D01*
X317619Y440008D01*
Y435992D01*
X317697Y435602D01*
X317918Y435271D01*
X318248Y435050D01*
X318639Y434972D01*
X338750D01*
X339140Y435050D01*
X339471Y435271D01*
X339692Y435602D01*
X339770Y435992D01*
Y440008D01*
X339692Y440398D01*
X339471Y440729D01*
X339140Y440950D01*
X338750Y441027D01*
D02*
G37*
G36*
X284543Y421500D02*
X280500D01*
Y417457D01*
X280598D01*
X281754Y417766D01*
X282790Y418364D01*
X283635Y419210D01*
X284234Y420246D01*
X284543Y421402D01*
Y421500D01*
D02*
G37*
G36*
X279500D02*
X275457D01*
Y421402D01*
X275766Y420246D01*
X276364Y419210D01*
X277210Y418364D01*
X278246Y417766D01*
X279402Y417457D01*
X279500D01*
Y421500D01*
D02*
G37*
G36*
X230883Y448122D02*
X228117D01*
X225369Y447812D01*
X222673Y447197D01*
X220063Y446284D01*
X217571Y445084D01*
X215230Y443612D01*
X213067Y441888D01*
X211112Y439933D01*
X209388Y437771D01*
X207916Y435429D01*
X206716Y432937D01*
X205803Y430327D01*
X205188Y427631D01*
X204878Y424883D01*
Y422117D01*
X205188Y419369D01*
X205803Y416673D01*
X206716Y414063D01*
X207916Y411571D01*
X209388Y409230D01*
X211112Y407067D01*
X213067Y405112D01*
X215230Y403388D01*
X217571Y401916D01*
X220063Y400716D01*
X222673Y399803D01*
X225369Y399188D01*
X228117Y398878D01*
X230883D01*
X233631Y399188D01*
X236327Y399803D01*
X238937Y400716D01*
X241429Y401916D01*
X243771Y403388D01*
X245933Y405112D01*
X247888Y407067D01*
X249612Y409230D01*
X251084Y411571D01*
X252284Y414063D01*
X253197Y416673D01*
X253812Y419369D01*
X254122Y422117D01*
Y424883D01*
X253812Y427631D01*
X253197Y430327D01*
X252284Y432937D01*
X251084Y435429D01*
X249612Y437771D01*
X247888Y439933D01*
X245933Y441888D01*
X243771Y443612D01*
X241429Y445084D01*
X238937Y446284D01*
X236327Y447197D01*
X233631Y447812D01*
X230883Y448122D01*
D02*
G37*
G36*
X338750Y401027D02*
X335500D01*
Y398500D01*
X339770D01*
Y400008D01*
X339692Y400398D01*
X339471Y400729D01*
X339140Y400950D01*
X338750Y401027D01*
D02*
G37*
G36*
X334500D02*
X318637D01*
X318247Y400950D01*
X317916Y400729D01*
X317695Y400398D01*
X317618Y400008D01*
Y398500D01*
X334500D01*
Y401027D01*
D02*
G37*
G36*
X338750Y381028D02*
X318636D01*
X318246Y380950D01*
X317915Y380729D01*
X317694Y380398D01*
X317617Y380008D01*
Y375992D01*
X317694Y375602D01*
X317915Y375271D01*
X318246Y375050D01*
X318636Y374973D01*
X338750D01*
X339140Y375050D01*
X339471Y375271D01*
X339519Y375342D01*
X339624Y375364D01*
X340857Y375451D01*
X356351D01*
X356677Y375125D01*
X357354Y374734D01*
X358109Y374532D01*
X358891D01*
X359646Y374734D01*
X360323Y375125D01*
X360875Y375677D01*
X361266Y376354D01*
X361469Y377109D01*
Y377891D01*
X361266Y378646D01*
X360875Y379323D01*
X360323Y379875D01*
X359646Y380266D01*
X358891Y380469D01*
X358151D01*
X357746Y380549D01*
X340557D01*
X339921Y380594D01*
X339656Y380630D01*
X339519Y380658D01*
X339471Y380729D01*
X339140Y380950D01*
X338750Y381028D01*
D02*
G37*
G36*
X365891Y380968D02*
X365109D01*
X364354Y380766D01*
X363677Y380375D01*
X363125Y379823D01*
X362734Y379146D01*
X362531Y378391D01*
Y377609D01*
X362734Y376854D01*
X362951Y376478D01*
Y371056D01*
X362444Y370549D01*
X340552D01*
X339916Y370594D01*
X339650Y370630D01*
X339513Y370657D01*
X339465Y370729D01*
X339135Y370950D01*
X338744Y371027D01*
X318632D01*
X318242Y370950D01*
X317911Y370729D01*
X317690Y370398D01*
X317612Y370008D01*
Y365992D01*
X317690Y365602D01*
X317911Y365271D01*
X318242Y365050D01*
X318632Y364972D01*
X338744D01*
X339135Y365050D01*
X339465Y365271D01*
X339513Y365342D01*
X339619Y365364D01*
X340851Y365451D01*
X363500D01*
X364475Y365645D01*
X365302Y366198D01*
X367302Y368198D01*
X367855Y369024D01*
X368049Y370000D01*
Y376478D01*
X368266Y376854D01*
X368468Y377609D01*
Y378391D01*
X368266Y379146D01*
X367875Y379823D01*
X367323Y380375D01*
X366646Y380766D01*
X365891Y380968D01*
D02*
G37*
G36*
X338750Y361028D02*
X318636D01*
X318246Y360950D01*
X317915Y360729D01*
X317694Y360398D01*
X317616Y360008D01*
Y355992D01*
X317694Y355602D01*
X317915Y355271D01*
X318246Y355050D01*
X318636Y354973D01*
X338750D01*
X339140Y355050D01*
X339471Y355271D01*
X339519Y355343D01*
X339624Y355364D01*
X340857Y355451D01*
X351478D01*
X351854Y355234D01*
X352609Y355031D01*
X353391D01*
X354146Y355234D01*
X354823Y355625D01*
X355375Y356177D01*
X355766Y356854D01*
X355968Y357609D01*
Y358391D01*
X355766Y359146D01*
X355375Y359823D01*
X354823Y360375D01*
X354146Y360766D01*
X353391Y360968D01*
X352609D01*
X351854Y360766D01*
X351478Y360549D01*
X340557D01*
X339921Y360594D01*
X339656Y360630D01*
X339519Y360658D01*
X339471Y360729D01*
X339140Y360950D01*
X338750Y361028D01*
D02*
G37*
G36*
X338744Y351027D02*
X322882D01*
Y348500D01*
X339763D01*
Y350008D01*
X339686Y350398D01*
X339464Y350729D01*
X339134Y350950D01*
X338744Y351027D01*
D02*
G37*
G36*
X321882D02*
X318632D01*
X318242Y350950D01*
X317911Y350729D01*
X317690Y350398D01*
X317612Y350008D01*
Y348500D01*
X321882D01*
Y351027D01*
D02*
G37*
G36*
X256819Y265915D02*
X256747D01*
Y262068D01*
X260593D01*
Y262141D01*
X260297Y263246D01*
X259724Y264237D01*
X258915Y265046D01*
X257924Y265619D01*
X256819Y265915D01*
D02*
G37*
G36*
X255747D02*
X255674D01*
X254569Y265619D01*
X253578Y265046D01*
X252768Y264237D01*
X252196Y263246D01*
X251900Y262141D01*
Y262068D01*
X255747D01*
Y265915D01*
D02*
G37*
G36*
X260593Y261068D02*
X256747D01*
Y257222D01*
X256819D01*
X257924Y257518D01*
X258915Y258090D01*
X259724Y258900D01*
X260297Y259891D01*
X260593Y260996D01*
Y261068D01*
D02*
G37*
G36*
X255747D02*
X251900D01*
Y260996D01*
X252196Y259891D01*
X252768Y258900D01*
X253578Y258090D01*
X254569Y257518D01*
X255674Y257222D01*
X255747D01*
Y261068D01*
D02*
G37*
G36*
X246976Y265915D02*
X245832D01*
X244726Y265619D01*
X243735Y265046D01*
X242926Y264237D01*
X242354Y263246D01*
X242057Y262141D01*
Y260996D01*
X242354Y259891D01*
X242926Y258900D01*
X243735Y258090D01*
X244726Y257518D01*
X245832Y257222D01*
X246976D01*
X248082Y257518D01*
X249073Y258090D01*
X249882Y258900D01*
X250454Y259891D01*
X250750Y260996D01*
Y262141D01*
X250454Y263246D01*
X249882Y264237D01*
X249073Y265046D01*
X248082Y265619D01*
X246976Y265915D01*
D02*
G37*
G36*
X266765Y257549D02*
X266563D01*
Y252718D01*
X271394D01*
Y252920D01*
X271030Y254276D01*
X270329Y255491D01*
X269336Y256484D01*
X268121Y257186D01*
X266765Y257549D01*
D02*
G37*
G36*
X227395D02*
X227193D01*
Y252718D01*
X232024D01*
Y252920D01*
X231660Y254276D01*
X230959Y255491D01*
X229966Y256484D01*
X228750Y257186D01*
X227395Y257549D01*
D02*
G37*
G36*
X265563D02*
X265361D01*
X264005Y257186D01*
X262790Y256484D01*
X261797Y255491D01*
X261096Y254276D01*
X260732Y252920D01*
Y252718D01*
X265563D01*
Y257549D01*
D02*
G37*
G36*
X226193D02*
X225991D01*
X224635Y257186D01*
X223420Y256484D01*
X222427Y255491D01*
X221726Y254276D01*
X221362Y252920D01*
Y252718D01*
X226193D01*
Y257549D01*
D02*
G37*
G36*
X271394Y251718D02*
X266563D01*
Y246887D01*
X266765D01*
X268121Y247251D01*
X269336Y247953D01*
X270329Y248945D01*
X271030Y250161D01*
X271394Y251516D01*
Y251718D01*
D02*
G37*
G36*
X265563D02*
X260732D01*
Y251516D01*
X261096Y250161D01*
X261797Y248945D01*
X262790Y247953D01*
X264005Y247251D01*
X265361Y246887D01*
X265563D01*
Y251718D01*
D02*
G37*
G36*
X232024D02*
X227193D01*
Y246887D01*
X227395D01*
X228750Y247251D01*
X229966Y247953D01*
X230959Y248945D01*
X231660Y250161D01*
X232024Y251516D01*
Y251718D01*
D02*
G37*
G36*
X226193D02*
X221362D01*
Y251516D01*
X221726Y250161D01*
X222427Y248945D01*
X223420Y247953D01*
X224635Y247251D01*
X225991Y246887D01*
X226193D01*
Y251718D01*
D02*
G37*
G36*
X269115Y244095D02*
X269088D01*
Y240595D01*
X272588D01*
Y240622D01*
X272316Y241639D01*
X271789Y242551D01*
X271044Y243296D01*
X270132Y243823D01*
X269115Y244095D01*
D02*
G37*
G36*
X268088D02*
X268061D01*
X267044Y243823D01*
X266132Y243296D01*
X265387Y242551D01*
X264861Y241639D01*
X264588Y240622D01*
Y240595D01*
X268088D01*
Y244095D01*
D02*
G37*
G36*
X212698Y241489D02*
X212626D01*
Y237643D01*
X216472D01*
Y237715D01*
X216176Y238820D01*
X215604Y239811D01*
X214795Y240621D01*
X213804Y241193D01*
X212698Y241489D01*
D02*
G37*
G36*
X211626D02*
X211554D01*
X210448Y241193D01*
X209457Y240621D01*
X208648Y239811D01*
X208076Y238820D01*
X207780Y237715D01*
Y237643D01*
X211626D01*
Y241489D01*
D02*
G37*
G36*
X286831Y244095D02*
X285778D01*
X284761Y243823D01*
X283849Y243296D01*
X283104Y242551D01*
X282577Y241639D01*
X282305Y240622D01*
Y239569D01*
X282577Y238551D01*
X283104Y237639D01*
X283849Y236894D01*
X284761Y236368D01*
X285778Y236095D01*
X286831D01*
X287848Y236368D01*
X288761Y236894D01*
X289505Y237639D01*
X290032Y238551D01*
X290305Y239569D01*
Y240622D01*
X290032Y241639D01*
X289505Y242551D01*
X288761Y243296D01*
X287848Y243823D01*
X286831Y244095D01*
D02*
G37*
G36*
X272588Y239595D02*
X269088D01*
Y236095D01*
X269115D01*
X270132Y236368D01*
X271044Y236894D01*
X271789Y237639D01*
X272316Y238551D01*
X272588Y239569D01*
Y239595D01*
D02*
G37*
G36*
X268088D02*
X264588D01*
Y239569D01*
X264861Y238551D01*
X265387Y237639D01*
X266132Y236894D01*
X267044Y236368D01*
X268061Y236095D01*
X268088D01*
Y239595D01*
D02*
G37*
G36*
X216472Y236643D02*
X212626D01*
Y232796D01*
X212698D01*
X213804Y233092D01*
X214795Y233664D01*
X215604Y234474D01*
X216176Y235465D01*
X216472Y236570D01*
Y236643D01*
D02*
G37*
G36*
X211626D02*
X207780D01*
Y236570D01*
X208076Y235465D01*
X208648Y234474D01*
X209457Y233664D01*
X210448Y233092D01*
X211554Y232796D01*
X211626D01*
Y236643D01*
D02*
G37*
G36*
X212698Y231646D02*
X211554D01*
X210448Y231350D01*
X209457Y230778D01*
X208648Y229969D01*
X208076Y228978D01*
X207780Y227872D01*
Y226728D01*
X208076Y225622D01*
X208648Y224631D01*
X209457Y223822D01*
X210448Y223250D01*
X211554Y222954D01*
X212698D01*
X213804Y223250D01*
X214795Y223822D01*
X215604Y224631D01*
X216176Y225622D01*
X216472Y226728D01*
Y227872D01*
X216176Y228978D01*
X215604Y229969D01*
X214795Y230778D01*
X213804Y231350D01*
X212698Y231646D01*
D02*
G37*
G36*
X269115Y218505D02*
X269088D01*
Y215005D01*
X272588D01*
Y215031D01*
X272316Y216049D01*
X271789Y216961D01*
X271044Y217705D01*
X270132Y218232D01*
X269115Y218505D01*
D02*
G37*
G36*
X268088D02*
X268061D01*
X267044Y218232D01*
X266132Y217705D01*
X265387Y216961D01*
X264861Y216049D01*
X264588Y215031D01*
Y215005D01*
X268088D01*
Y218505D01*
D02*
G37*
G36*
X286831D02*
X285778D01*
X284761Y218232D01*
X283849Y217705D01*
X283104Y216961D01*
X282577Y216049D01*
X282305Y215031D01*
Y213978D01*
X282577Y212961D01*
X283104Y212049D01*
X283849Y211304D01*
X284761Y210777D01*
X285778Y210505D01*
X286831D01*
X287848Y210777D01*
X288761Y211304D01*
X289505Y212049D01*
X290032Y212961D01*
X290305Y213978D01*
Y215031D01*
X290032Y216049D01*
X289505Y216961D01*
X288761Y217705D01*
X287848Y218232D01*
X286831Y218505D01*
D02*
G37*
G36*
X272588Y214005D02*
X269088D01*
Y210505D01*
X269115D01*
X270132Y210777D01*
X271044Y211304D01*
X271789Y212049D01*
X272316Y212961D01*
X272588Y213978D01*
Y214005D01*
D02*
G37*
G36*
X268088D02*
X264588D01*
Y213978D01*
X264861Y212961D01*
X265387Y212049D01*
X266132Y211304D01*
X267044Y210777D01*
X268061Y210505D01*
X268088D01*
Y214005D01*
D02*
G37*
G36*
X266765Y207746D02*
X266563D01*
Y202915D01*
X271394D01*
Y203117D01*
X271030Y204473D01*
X270329Y205688D01*
X269336Y206681D01*
X268121Y207382D01*
X266765Y207746D01*
D02*
G37*
G36*
X227395D02*
X227193D01*
Y202915D01*
X232024D01*
Y203117D01*
X231660Y204473D01*
X230959Y205688D01*
X229966Y206681D01*
X228750Y207382D01*
X227395Y207746D01*
D02*
G37*
G36*
X265563D02*
X265361D01*
X264005Y207382D01*
X262790Y206681D01*
X261797Y205688D01*
X261096Y204473D01*
X260732Y203117D01*
Y202915D01*
X265563D01*
Y207746D01*
D02*
G37*
G36*
X226193D02*
X225991D01*
X224635Y207382D01*
X223420Y206681D01*
X222427Y205688D01*
X221726Y204473D01*
X221362Y203117D01*
Y202915D01*
X226193D01*
Y207746D01*
D02*
G37*
G36*
X271394Y201915D02*
X266563D01*
Y197084D01*
X266765D01*
X268121Y197448D01*
X269336Y198149D01*
X270329Y199142D01*
X271030Y200358D01*
X271394Y201713D01*
Y201915D01*
D02*
G37*
G36*
X265563D02*
X260732D01*
Y201713D01*
X261096Y200358D01*
X261797Y199142D01*
X262790Y198149D01*
X264005Y197448D01*
X265361Y197084D01*
X265563D01*
Y201915D01*
D02*
G37*
G36*
X232024D02*
X227193D01*
Y197084D01*
X227395D01*
X228750Y197448D01*
X229966Y198149D01*
X230959Y199142D01*
X231660Y200358D01*
X232024Y201713D01*
Y201915D01*
D02*
G37*
G36*
X226193D02*
X221362D01*
Y201713D01*
X221726Y200358D01*
X222427Y199142D01*
X223420Y198149D01*
X224635Y197448D01*
X225991Y197084D01*
X226193D01*
Y201915D01*
D02*
G37*
%LPD*%
G36*
X338767Y379901D02*
X338857Y379817D01*
X339007Y379743D01*
X339217Y379678D01*
X339487Y379624D01*
X339817Y379579D01*
X340657Y379520D01*
X341737Y379500D01*
Y376500D01*
X341167Y376495D01*
X339487Y376376D01*
X339217Y376322D01*
X339007Y376257D01*
X338857Y376183D01*
X338767Y376099D01*
X338737Y376005D01*
Y379995D01*
X338767Y379901D01*
D02*
G37*
G36*
X338761Y369901D02*
X338851Y369817D01*
X339001Y369742D01*
X339211Y369678D01*
X339481Y369624D01*
X339811Y369579D01*
X340651Y369520D01*
X341731Y369500D01*
Y366500D01*
X341161Y366495D01*
X339481Y366376D01*
X339211Y366322D01*
X339001Y366258D01*
X338851Y366183D01*
X338761Y366099D01*
X338731Y366005D01*
Y369995D01*
X338761Y369901D01*
D02*
G37*
G36*
X338767Y359901D02*
X338857Y359817D01*
X339007Y359742D01*
X339217Y359678D01*
X339487Y359624D01*
X339817Y359579D01*
X340657Y359520D01*
X341737Y359500D01*
Y356500D01*
X341167Y356495D01*
X339487Y356376D01*
X339217Y356322D01*
X339007Y356258D01*
X338857Y356183D01*
X338767Y356099D01*
X338737Y356005D01*
Y359995D01*
X338767Y359901D01*
D02*
G37*
G36*
X331262Y356004D02*
X328262Y356500D01*
Y359500D01*
X331262Y359996D01*
Y356004D01*
D02*
G37*
D73*
X308179Y448711D02*
X317469Y458000D01*
X308179Y444179D02*
Y448711D01*
X308000Y444000D02*
X308179Y444179D01*
X317469Y458000D02*
X335000D01*
X500877Y376000D02*
X501377Y376500D01*
X508500D01*
X441500Y382500D02*
X448000Y376000D01*
X204088Y350588D02*
X211780D01*
X198362Y344862D02*
X204088Y350588D01*
X198362Y329563D02*
Y344862D01*
X522500Y296000D02*
Y362500D01*
X508500Y376500D02*
X522500Y362500D01*
X425000Y382500D02*
X441500D01*
X489500Y286500D02*
X513000D01*
X522500Y296000D01*
X448000Y376000D02*
X493500D01*
X500877D01*
X335000Y358000D02*
X353000D01*
X372500Y344500D02*
Y349500D01*
X366000Y338000D02*
X372500Y344500D01*
X335000Y338000D02*
X366000D01*
X413480Y318020D02*
X413500Y318000D01*
X405353Y318020D02*
X413480D01*
X405333Y318041D02*
X405353Y318020D01*
X416466Y203866D02*
Y279466D01*
X302526Y128732D02*
X341332D01*
X416466Y203866D01*
X300500Y130757D02*
X302526Y128732D01*
X300500Y130757D02*
Y137823D01*
X436000Y299000D02*
Y338500D01*
X418500Y347000D02*
X427500D01*
X436000Y338500D01*
X416466Y279466D02*
X436000Y299000D01*
X412178Y353322D02*
X418500Y347000D01*
X408359Y368041D02*
X412178Y364222D01*
Y353322D02*
Y364222D01*
X392715Y368041D02*
X408359D01*
X522000Y399274D02*
Y428041D01*
X455600Y391400D02*
X514126D01*
X522000Y399274D01*
X451000Y396000D02*
X455600Y391400D01*
X383959Y428041D02*
X392715D01*
Y428041D02*
X516000Y428041D01*
X341531Y463469D02*
X343500Y461500D01*
X350500D02*
X383959Y428041D01*
X343500Y461500D02*
X350500D01*
X317620Y463469D02*
X341531D01*
X516000Y428041D02*
X522000D01*
X274422Y467000D02*
X314089D01*
X317620Y463469D01*
X271391Y470031D02*
X274422Y467000D01*
X271391Y470031D02*
Y476500D01*
X451000Y396000D02*
Y406175D01*
X392715Y308020D02*
X415980D01*
X416000Y308000D01*
X532000Y210400D02*
Y216300D01*
X524700Y223600D02*
X532000Y216300D01*
X524700Y223600D02*
Y264700D01*
X517000Y272400D02*
X524700Y264700D01*
X322382Y468000D02*
X346000D01*
X506900Y272400D02*
X517000D01*
X295404Y302000D02*
X295522Y302118D01*
Y325022D01*
X313500Y343000D02*
X355982D01*
X295522Y325022D02*
X313500Y343000D01*
X355982D02*
X372500Y359518D01*
Y405000D01*
X381800Y398200D02*
X386641Y403041D01*
X372500Y405000D02*
X380400Y412900D01*
X411543D01*
X386641Y403041D02*
X411543D01*
X413300Y404798D01*
X411543Y412900D02*
X413300Y411143D01*
Y404798D02*
Y411143D01*
X385559Y378041D02*
X405333D01*
X381800Y381800D02*
Y398200D01*
Y381800D02*
X385559Y378041D01*
X392715Y468041D02*
X431141D01*
X433900Y470800D02*
Y476600D01*
X431141Y468041D02*
X433900Y470800D01*
X368600Y202300D02*
Y247800D01*
X368500Y247900D02*
X368600Y247800D01*
X335900Y169600D02*
X368600Y202300D01*
X335900Y141000D02*
Y169600D01*
X332081Y137181D02*
X335900Y141000D01*
X322100Y137181D02*
X332081D01*
X382000Y331500D02*
Y354620D01*
X385421Y358041D01*
X405333D01*
X193500Y180600D02*
Y217458D01*
Y180600D02*
X201900Y172200D01*
X193500Y217458D02*
X212126D01*
X193500D02*
Y261600D01*
X231500Y121000D02*
Y167100D01*
X240469Y112031D02*
X356231D01*
X231500Y121000D02*
X240469Y112031D01*
X201900Y172200D02*
X226400D01*
X231500Y167100D01*
X193500Y458000D02*
X200500Y465000D01*
X193500Y261600D02*
Y458000D01*
X280000Y453000D02*
X290400D01*
X200500Y465000D02*
X261000D01*
X273000Y453000D02*
X280000D01*
X261000Y465000D02*
X273000Y453000D01*
X356231Y112031D02*
X428500Y184300D01*
Y262000D01*
X451815Y285315D01*
Y364000D01*
X325500Y418000D02*
X335000D01*
X280000Y432000D02*
Y453000D01*
X315400Y428000D02*
X322382D01*
X290400Y453000D02*
X315400Y428000D01*
X322382Y421118D02*
X325500Y418000D01*
X193500Y261600D02*
X236561D01*
X322382Y421118D02*
Y428000D01*
X361200Y204200D02*
Y248600D01*
X361100Y248700D02*
X361200Y248600D01*
X327000Y170000D02*
X361200Y204200D01*
X327000Y143200D02*
Y170000D01*
X378020Y418020D02*
X405312D01*
X378000Y418000D02*
X378020Y418020D01*
X405312D02*
X405333Y418041D01*
X423900Y476600D02*
Y482500D01*
X426400Y485000D02*
X498772D01*
X423900Y482500D02*
X426400Y485000D01*
X384500Y471500D02*
X389600Y476600D01*
X423900D01*
X384500Y463000D02*
X389459Y458041D01*
X384500Y463000D02*
Y471500D01*
X389459Y458041D02*
X405333D01*
X500457Y476500D02*
Y483315D01*
X498772Y485000D02*
X500457Y483315D01*
X355246Y387000D02*
X355500D01*
X354246Y388000D02*
X355246Y387000D01*
X322382Y388000D02*
X354246D01*
X427292Y338031D02*
X427302Y338020D01*
X405343Y338031D02*
X427292D01*
X405333Y338041D02*
X405343Y338031D01*
X465500Y289160D02*
X466000Y289660D01*
X465500Y241000D02*
Y289160D01*
X466000Y289660D02*
Y338000D01*
X392715Y328020D02*
X422980D01*
X423000Y328000D01*
X363500Y368000D02*
X365500Y370000D01*
Y378000D01*
X322382Y368000D02*
X363500D01*
X440500Y293500D02*
Y341500D01*
X420601Y273601D02*
X440500Y293500D01*
X429500Y352500D02*
X440500Y341500D01*
X420009Y352500D02*
X429500D01*
X420601Y185500D02*
Y273601D01*
X416270Y356239D02*
X420009Y352500D01*
X416270Y356239D02*
Y369129D01*
X412400Y373000D02*
X416270Y369129D01*
X377100Y401800D02*
X383341Y408041D01*
X392715D01*
X377100Y379800D02*
X383900Y373000D01*
X377100Y379800D02*
Y401800D01*
X383900Y373000D02*
X412400D01*
X374500Y449000D02*
X385459Y438041D01*
X405333D02*
X405353Y438020D01*
X385459Y438041D02*
X405333D01*
X321500Y475500D02*
X369500D01*
X374500Y470500D01*
Y449000D02*
Y469500D01*
Y470500D01*
X405353Y438020D02*
X422258D01*
X283122Y484200D02*
X312800D01*
X321500Y475500D01*
X281391Y482469D02*
X283122Y484200D01*
X281391Y476500D02*
Y482469D01*
Y475969D02*
Y476500D01*
X422258Y438020D02*
X424500Y435778D01*
Y435532D02*
Y435778D01*
X302400Y214500D02*
Y256100D01*
X287500Y271000D02*
X302400Y256100D01*
X287500Y271000D02*
Y403500D01*
X291000Y407000D02*
X307500D01*
X287500Y403500D02*
X291000Y407000D01*
X318867Y407492D02*
X321874D01*
X318374Y407000D02*
X318867Y407492D01*
X321874D02*
X322382Y408000D01*
X307500Y407000D02*
X318374D01*
X296500Y424500D02*
X303500D01*
X307500Y420500D01*
Y407000D02*
Y420500D01*
X357746Y378000D02*
X358246Y377500D01*
X335000Y378000D02*
X357746D01*
X358246Y377500D02*
X358500D01*
X300000Y393000D02*
X343500D01*
X298243Y394757D02*
X300000Y393000D01*
X296391Y397778D02*
X298243Y395926D01*
X296391Y397778D02*
Y398031D01*
X298243Y394757D02*
Y395926D01*
X350600Y215900D02*
X350700Y215800D01*
X334300Y215900D02*
X350600D01*
X334200Y216000D02*
X334300Y215900D01*
X289000Y414500D02*
X296500D01*
X286500Y412000D02*
X289000Y414500D01*
X280000Y412000D02*
X286500D01*
X343500Y393000D02*
X373500Y423000D01*
X411000D01*
X417500Y399000D02*
Y416500D01*
X411000Y423000D02*
X417500Y416500D01*
D74*
X306000Y271500D02*
Y301500D01*
X312500Y308000D01*
X306000Y271500D02*
X313500Y264000D01*
X244500Y176400D02*
X247100Y179000D01*
X244500Y130500D02*
Y176400D01*
X247100Y179000D02*
X284019D01*
X312013Y206995D01*
X313500Y208757D01*
Y264000D01*
X312500Y308000D02*
X322382D01*
X537200Y188900D02*
Y216100D01*
X529563Y223737D02*
X537200Y216100D01*
X529563Y223737D02*
Y366937D01*
X532500Y184200D02*
X537200Y188900D01*
X514500Y382000D02*
X529563Y366937D01*
X532500Y166000D02*
Y184200D01*
X440500Y391000D02*
X449500Y382000D01*
X514500D01*
X412000Y391000D02*
X440500D01*
X409041Y388041D02*
X412000Y391000D01*
X392715Y388041D02*
X409041D01*
X250500Y175000D02*
X284261D01*
X315013Y205752D01*
X316500Y207515D01*
Y266500D01*
X309500Y273500D02*
X316500Y266500D01*
X309500Y273500D02*
Y287663D01*
X315202Y293365D01*
X351635D01*
X356959Y288041D01*
X392715D01*
X461815Y355115D02*
Y364000D01*
X455315Y348615D02*
X461815Y355115D01*
X435000Y258200D02*
X455315Y278515D01*
Y348615D01*
X435000Y182600D02*
Y258200D01*
X383100Y130700D02*
X435000Y182600D01*
X302500Y270000D02*
X310500Y262000D01*
X302500Y307500D02*
X313000Y318000D01*
X302500Y270000D02*
Y307500D01*
X240200Y122800D02*
Y177800D01*
X244900Y182500D02*
X282774D01*
X240200Y177800D02*
X244900Y182500D01*
X240200Y122800D02*
X243000Y120000D01*
X282774Y182500D02*
X291679Y190903D01*
X309013Y208237D01*
Y208247D01*
X243000Y120000D02*
X260500D01*
X310500Y210000D02*
Y262000D01*
X309013Y208247D02*
X310500Y210000D01*
X313000Y318000D02*
X335000D01*
X299373Y268500D02*
Y313500D01*
X313873Y328000D01*
X299373Y268500D02*
X307373Y260500D01*
X281167Y185979D02*
X281764Y186576D01*
X307373Y212958D02*
Y260500D01*
X281764Y186576D02*
X307373Y212958D01*
X241779Y185979D02*
X281167D01*
X236100Y180300D02*
X241779Y185979D01*
X236100Y121900D02*
Y180300D01*
Y121900D02*
X242000Y116000D01*
X270302Y117172D02*
Y119802D01*
X242000Y116000D02*
X269130D01*
X270302Y119802D02*
X270500Y120000D01*
X269130Y116000D02*
X270302Y117172D01*
X313873Y328000D02*
X322382D01*
X280500Y158510D02*
X324013Y202024D01*
X280500Y150369D02*
Y158510D01*
X324013Y202024D02*
X325500Y203787D01*
Y248000D01*
X355541Y278041D02*
X405333D01*
X325500Y248000D02*
X355541Y278041D01*
X270500Y167000D02*
X284747D01*
X321013Y203267D02*
X322500Y205029D01*
X284747Y167000D02*
X321013Y203267D01*
X322500Y205029D02*
Y266507D01*
X326493Y270500D02*
X342000D01*
X344500Y273000D02*
Y285500D01*
X342000Y270500D02*
X344500Y273000D01*
X342000Y288000D02*
X344500Y285500D01*
X322382Y288000D02*
X342000D01*
X322500Y266507D02*
X326493Y270500D01*
X471815Y357215D02*
Y364000D01*
X459500Y274100D02*
Y344900D01*
X471815Y357215D01*
X439500Y254100D02*
X459500Y274100D01*
X383600Y122800D02*
X439500Y178700D01*
Y254100D01*
X284504Y171000D02*
X317953Y204449D01*
X318068Y204574D01*
X260500Y171000D02*
X284504D01*
X318068Y204574D02*
X319500Y206272D01*
Y267750D01*
X329750Y278000D01*
X335000D01*
D76*
X219500Y120000D02*
Y144500D01*
Y120000D02*
X233000Y106500D01*
X459200D01*
X481700Y129000D01*
Y141600D01*
X203100Y124000D02*
Y128100D01*
X219500Y144500D01*
D77*
X502000Y202529D02*
Y210400D01*
X504929Y199600D02*
X514071D01*
X502000Y202529D02*
X504929Y199600D01*
X517000Y175900D02*
Y196671D01*
X514071Y199600D02*
X517000Y196671D01*
D79*
X425000Y382500D02*
D03*
X271391Y476500D02*
D03*
X433900Y476600D02*
D03*
X280000Y432000D02*
D03*
X423900Y476600D02*
D03*
X203100Y114000D02*
D03*
X280000Y422000D02*
D03*
X281391Y476500D02*
D03*
X296500Y424500D02*
D03*
X443900Y476600D02*
D03*
X291391Y476500D02*
D03*
X296500Y434500D02*
D03*
X425000Y372500D02*
D03*
D80*
X243500Y476500D02*
D03*
X532000Y210400D02*
D03*
X480457Y476500D02*
D03*
X301391D02*
D03*
X453900Y476600D02*
D03*
D81*
X286305Y214505D02*
D03*
Y240095D02*
D03*
X268588Y214505D02*
D03*
Y240095D02*
D03*
D82*
X451085Y405977D02*
D03*
X461815Y364000D02*
D03*
X451815D02*
D03*
X471085Y405977D02*
D03*
X441815Y364000D02*
D03*
X461085Y405977D02*
D03*
X441085D02*
D03*
X471815Y364000D02*
D03*
D83*
X520457Y476500D02*
D03*
X490457D02*
D03*
X500457D02*
D03*
X512000Y210400D02*
D03*
X522000D02*
D03*
X492000D02*
D03*
X203500Y476500D02*
D03*
X223500D02*
D03*
X510457D02*
D03*
X213500D02*
D03*
X482000Y210400D02*
D03*
X502000D02*
D03*
X233500Y476500D02*
D03*
D84*
X236561Y261568D02*
D03*
X212126Y217458D02*
D03*
X246404Y261568D02*
D03*
X256246D02*
D03*
X212126Y237142D02*
D03*
Y227300D02*
D03*
D85*
X521625Y144552D02*
D03*
D86*
X425000Y362500D02*
D03*
X203100Y124000D02*
D03*
X280000Y412000D02*
D03*
X296500Y414500D02*
D03*
D87*
X226693Y202415D02*
D03*
X266063Y252218D02*
D03*
Y202415D02*
D03*
X226693Y252218D02*
D03*
D88*
X200893Y144381D02*
D03*
D89*
X533441Y241981D02*
D03*
Y235288D02*
D03*
D90*
X308000Y444000D02*
D03*
X317469Y458000D02*
D03*
X493500Y376000D02*
D03*
X211780Y350588D02*
D03*
X198362Y329563D02*
D03*
X489500Y286500D02*
D03*
X353000Y358000D02*
D03*
X372500Y349500D02*
D03*
X413500Y318000D02*
D03*
X244500Y130500D02*
D03*
X300500Y137823D02*
D03*
X532500Y166000D02*
D03*
X250500Y175000D02*
D03*
X522000Y428041D02*
D03*
X383100Y130700D02*
D03*
X416000Y308000D02*
D03*
X346000Y468000D02*
D03*
X506900Y272400D02*
D03*
X295404Y302000D02*
D03*
X368500Y247900D02*
D03*
X322100Y137300D02*
D03*
X382000Y331500D02*
D03*
X260500Y120000D02*
D03*
X361100Y248700D02*
D03*
X327000Y143200D02*
D03*
X378000Y418000D02*
D03*
X355500Y387000D02*
D03*
X466000Y338000D02*
D03*
X427302Y338020D02*
D03*
X465500Y241000D02*
D03*
X270500Y120000D02*
D03*
X280530Y150423D02*
D03*
X524900Y172600D02*
D03*
X536100Y223000D02*
D03*
X475700Y195000D02*
D03*
X378800Y155800D02*
D03*
X361700Y168100D02*
D03*
X452500Y433000D02*
D03*
X423000Y328000D02*
D03*
X365500Y378000D02*
D03*
X270500Y167000D02*
D03*
X420601Y185642D02*
D03*
X374500Y469500D02*
D03*
X383600Y122800D02*
D03*
X424500Y435532D02*
D03*
X302400Y214500D02*
D03*
X358500Y377500D02*
D03*
X260500Y171000D02*
D03*
X481700Y141600D02*
D03*
X296391Y398031D02*
D03*
X517000Y175900D02*
D03*
X350700Y215800D02*
D03*
X334200Y216000D02*
D03*
X417500Y399000D02*
D03*
D91*
X229500Y423500D02*
D03*
D92*
X335000Y458000D02*
D03*
D93*
Y358000D02*
D03*
D94*
Y338000D02*
D03*
D95*
X405333Y318041D02*
D03*
D96*
X322382Y308000D02*
D03*
D97*
X392715Y368041D02*
D03*
D98*
Y388041D02*
D03*
D99*
Y288041D02*
D03*
D100*
Y428041D02*
D03*
D101*
Y308041D02*
D03*
D102*
X322382Y468000D02*
D03*
D103*
X405333Y378041D02*
D03*
D104*
X392715Y468041D02*
D03*
D105*
X405333Y358041D02*
D03*
D106*
X335000Y318000D02*
D03*
D107*
Y418000D02*
D03*
D108*
X322382Y428000D02*
D03*
D109*
X405333Y418041D02*
D03*
D110*
Y458041D02*
D03*
D111*
X322382Y388000D02*
D03*
D112*
X405333Y338041D02*
D03*
D113*
X322382Y328000D02*
D03*
D114*
X405333Y278041D02*
D03*
D115*
X335000Y298000D02*
D03*
D116*
X405333Y298041D02*
D03*
D117*
X322382Y348000D02*
D03*
D118*
X335000Y398000D02*
D03*
D119*
X405333Y398041D02*
D03*
D120*
X322382Y448000D02*
D03*
D121*
X392715Y348041D02*
D03*
D122*
Y448041D02*
D03*
D123*
Y328041D02*
D03*
D124*
X322382Y368000D02*
D03*
D125*
Y288000D02*
D03*
D126*
X392715Y408041D02*
D03*
D127*
X405333Y438041D02*
D03*
D128*
X322382Y408000D02*
D03*
D129*
X335000Y378000D02*
D03*
D130*
Y278000D02*
D03*
D131*
Y438000D02*
D03*
D132*
X503831Y144500D02*
D03*
D133*
X219500D02*
D03*
M02*
