G04*
G04 #@! TF.GenerationSoftware,Altium Limited,Altium Designer,25.6.2 (33)*
G04*
G04 Layer_Color=128*
%FSLAX25Y25*%
%MOIN*%
G70*
G04*
G04 #@! TF.SameCoordinates,33421173-23DC-421C-8ACE-01F160C91051*
G04*
G04*
G04 #@! TF.FilePolarity,Positive*
G04*
G01*
G75*
G36*
X338741Y285992D02*
X318632D01*
Y290008D01*
X338741D01*
Y285992D01*
D02*
G37*
G36*
X338750Y275992D02*
X318633D01*
Y280008D01*
X338750D01*
Y275992D01*
D02*
G37*
G36*
X338742Y305992D02*
X318632D01*
Y310008D01*
X338742D01*
Y305992D01*
D02*
G37*
G36*
X338750Y295992D02*
X318634D01*
Y300008D01*
X338750D01*
Y295992D01*
D02*
G37*
G36*
Y315992D02*
X318634D01*
Y320008D01*
X338750D01*
Y315992D01*
D02*
G37*
G36*
X409066Y286033D02*
X388965D01*
Y290049D01*
X409066D01*
Y286033D01*
D02*
G37*
G36*
X409083Y276033D02*
X388959D01*
Y280049D01*
X409083D01*
Y276033D01*
D02*
G37*
G36*
Y296033D02*
X388959D01*
Y300049D01*
X409083D01*
Y296033D01*
D02*
G37*
G36*
X409066Y306033D02*
X388965D01*
Y310049D01*
X409066D01*
Y306033D01*
D02*
G37*
G36*
X409083Y316033D02*
X388960D01*
Y320049D01*
X409083D01*
Y316033D01*
D02*
G37*
G36*
X338743Y325992D02*
X318632D01*
Y330008D01*
X338743D01*
Y325992D01*
D02*
G37*
G36*
X338750Y335992D02*
X318635D01*
Y340008D01*
X338750D01*
Y335992D01*
D02*
G37*
G36*
X338744Y345992D02*
X318632D01*
Y350008D01*
X338744D01*
Y345992D01*
D02*
G37*
G36*
X338744Y365992D02*
X318632D01*
Y370008D01*
X338744D01*
Y365992D01*
D02*
G37*
G36*
X338750Y355992D02*
X318636D01*
Y360008D01*
X338750D01*
Y355992D01*
D02*
G37*
G36*
X409067Y326033D02*
X388965D01*
Y330049D01*
X409067D01*
Y326033D01*
D02*
G37*
G36*
X409083Y336033D02*
X388961D01*
Y340049D01*
X409083D01*
Y336033D01*
D02*
G37*
G36*
X409068Y346033D02*
X388965D01*
Y350049D01*
X409068D01*
Y346033D01*
D02*
G37*
G36*
X409069Y366033D02*
X388965D01*
Y370049D01*
X409069D01*
Y366033D01*
D02*
G37*
G36*
X409083Y356033D02*
X388962D01*
Y360049D01*
X409083D01*
Y356033D01*
D02*
G37*
G36*
X338748Y385992D02*
X318632D01*
Y390008D01*
X338748D01*
Y385992D01*
D02*
G37*
G36*
X338750Y375992D02*
X318636D01*
Y380008D01*
X338750D01*
Y375992D01*
D02*
G37*
G36*
Y395992D02*
X318637D01*
Y400008D01*
X338750D01*
Y395992D01*
D02*
G37*
G36*
X338746Y405992D02*
X318632D01*
Y410008D01*
X338746D01*
Y405992D01*
D02*
G37*
G36*
X338750Y415992D02*
X318638D01*
Y420008D01*
X338750D01*
Y415992D01*
D02*
G37*
G36*
X409069Y386033D02*
X388965D01*
Y390049D01*
X409069D01*
Y386033D01*
D02*
G37*
G36*
X409083Y376033D02*
X388962D01*
Y380049D01*
X409083D01*
Y376033D01*
D02*
G37*
G36*
Y396033D02*
X388963D01*
Y400049D01*
X409083D01*
Y396033D01*
D02*
G37*
G36*
X409070Y406033D02*
X388965D01*
Y410049D01*
X409070D01*
Y406033D01*
D02*
G37*
G36*
X409083Y416033D02*
X388964D01*
Y420049D01*
X409083D01*
Y416033D01*
D02*
G37*
G36*
X338747Y425992D02*
X318632D01*
Y430008D01*
X338747D01*
Y425992D01*
D02*
G37*
G36*
X338750Y435992D02*
X318639D01*
Y440008D01*
X338750D01*
Y435992D01*
D02*
G37*
G36*
X338747Y445992D02*
X318632D01*
Y450008D01*
X338747D01*
Y445992D01*
D02*
G37*
G36*
X338748Y465992D02*
X318632D01*
Y470008D01*
X338748D01*
Y465992D01*
D02*
G37*
G36*
X338750Y455992D02*
X318639D01*
Y460008D01*
X338750D01*
Y455992D01*
D02*
G37*
G36*
X409071Y426033D02*
X388965D01*
Y430049D01*
X409071D01*
Y426033D01*
D02*
G37*
G36*
X409083Y436033D02*
X388964D01*
Y440049D01*
X409083D01*
Y436033D01*
D02*
G37*
G36*
X409072Y446033D02*
X388965D01*
Y450049D01*
X409072D01*
Y446033D01*
D02*
G37*
G36*
X408961Y466033D02*
X388965D01*
Y470049D01*
X408961D01*
Y466033D01*
D02*
G37*
G36*
X409083Y456033D02*
X388965D01*
Y460049D01*
X409083D01*
Y456033D01*
D02*
G37*
M02*
