G04*
G04 #@! TF.GenerationSoftware,Altium Limited,Altium Designer,25.6.2 (33)*
G04*
G04 Layer_Color=16711935*
%FSLAX25Y25*%
%MOIN*%
G70*
G04*
G04 #@! TF.SameCoordinates,33421173-23DC-421C-8ACE-01F160C91051*
G04*
G04*
G04 #@! TF.FilePolarity,Negative*
G04*
G01*
G75*
%ADD58C,0.07887*%
%ADD59R,0.06706X0.06706*%
%ADD60C,0.06400*%
%ADD61O,0.07099X0.08674*%
%ADD62C,0.06706*%
%ADD63C,0.07093*%
%ADD65R,0.06706X0.06706*%
%ADD66C,0.09061*%
%ADD67C,0.01784*%
%ADD68C,0.04737*%
%ADD69C,0.48044*%
G36*
X409014Y470446D02*
X409065Y470436D01*
X409115Y470419D01*
X409162Y470396D01*
X409205Y470367D01*
X409245Y470332D01*
X409279Y470293D01*
X409308Y470249D01*
X409332Y470202D01*
X409349Y470152D01*
X409359Y470101D01*
X409362Y470049D01*
Y466033D01*
X409359Y465980D01*
X409349Y465929D01*
X409332Y465879D01*
X409308Y465832D01*
X409279Y465789D01*
X409245Y465749D01*
X409205Y465715D01*
X409162Y465686D01*
X409115Y465662D01*
X409065Y465646D01*
X409014Y465635D01*
X408961Y465632D01*
X388965D01*
X388912Y465635D01*
X388861Y465646D01*
X388811Y465662D01*
X388764Y465686D01*
X388721Y465715D01*
X388681Y465749D01*
X388647Y465789D01*
X388617Y465832D01*
X388594Y465879D01*
X388578Y465929D01*
X388567Y465980D01*
X388564Y466033D01*
Y470049D01*
X388567Y470101D01*
X388578Y470152D01*
X388594Y470202D01*
X388617Y470249D01*
X388647Y470293D01*
X388681Y470332D01*
X388721Y470367D01*
X388764Y470396D01*
X388811Y470419D01*
X388861Y470436D01*
X388912Y470446D01*
X388965Y470449D01*
X408961D01*
X409014Y470446D01*
D02*
G37*
G36*
X338800Y470405D02*
X338852Y470395D01*
X338901Y470378D01*
X338948Y470355D01*
X338992Y470326D01*
X339031Y470291D01*
X339066Y470252D01*
X339095Y470208D01*
X339118Y470161D01*
X339135Y470112D01*
X339145Y470060D01*
X339149Y470008D01*
Y465992D01*
X339145Y465940D01*
X339135Y465888D01*
X339118Y465839D01*
X339095Y465792D01*
X339066Y465748D01*
X339031Y465709D01*
X338992Y465674D01*
X338948Y465645D01*
X338901Y465622D01*
X338852Y465605D01*
X338800Y465595D01*
X338748Y465591D01*
X318632D01*
X318580Y465595D01*
X318528Y465605D01*
X318478Y465622D01*
X318431Y465645D01*
X318388Y465674D01*
X318348Y465709D01*
X318314Y465748D01*
X318285Y465792D01*
X318262Y465839D01*
X318245Y465888D01*
X318234Y465940D01*
X318231Y465992D01*
Y470008D01*
X318234Y470060D01*
X318245Y470112D01*
X318262Y470161D01*
X318285Y470208D01*
X318314Y470252D01*
X318348Y470291D01*
X318388Y470326D01*
X318431Y470355D01*
X318478Y470378D01*
X318528Y470395D01*
X318580Y470405D01*
X318632Y470409D01*
X338748D01*
X338800Y470405D01*
D02*
G37*
G36*
X409135Y460446D02*
X409187Y460436D01*
X409236Y460419D01*
X409283Y460396D01*
X409327Y460367D01*
X409366Y460332D01*
X409401Y460293D01*
X409430Y460249D01*
X409453Y460202D01*
X409470Y460152D01*
X409480Y460101D01*
X409484Y460049D01*
Y456033D01*
X409480Y455980D01*
X409470Y455929D01*
X409453Y455879D01*
X409430Y455832D01*
X409401Y455789D01*
X409366Y455749D01*
X409327Y455715D01*
X409283Y455686D01*
X409236Y455662D01*
X409187Y455646D01*
X409135Y455635D01*
X409083Y455632D01*
X388965D01*
X388913Y455635D01*
X388861Y455646D01*
X388812Y455662D01*
X388765Y455686D01*
X388721Y455715D01*
X388682Y455749D01*
X388647Y455789D01*
X388618Y455832D01*
X388595Y455879D01*
X388578Y455929D01*
X388568Y455980D01*
X388564Y456033D01*
Y460049D01*
X388568Y460101D01*
X388578Y460152D01*
X388595Y460202D01*
X388618Y460249D01*
X388647Y460293D01*
X388682Y460332D01*
X388721Y460367D01*
X388765Y460396D01*
X388812Y460419D01*
X388861Y460436D01*
X388913Y460446D01*
X388965Y460449D01*
X409083D01*
X409135Y460446D01*
D02*
G37*
G36*
X338802Y460405D02*
X338854Y460395D01*
X338903Y460378D01*
X338950Y460355D01*
X338994Y460326D01*
X339033Y460291D01*
X339068Y460252D01*
X339097Y460208D01*
X339120Y460161D01*
X339137Y460112D01*
X339147Y460060D01*
X339151Y460008D01*
Y455992D01*
X339147Y455940D01*
X339137Y455888D01*
X339120Y455839D01*
X339097Y455792D01*
X339068Y455748D01*
X339033Y455709D01*
X338994Y455674D01*
X338950Y455645D01*
X338903Y455622D01*
X338854Y455605D01*
X338802Y455595D01*
X338750Y455591D01*
X318639D01*
X318587Y455595D01*
X318536Y455605D01*
X318486Y455622D01*
X318439Y455645D01*
X318395Y455674D01*
X318356Y455709D01*
X318321Y455748D01*
X318292Y455792D01*
X318269Y455839D01*
X318252Y455888D01*
X318242Y455940D01*
X318238Y455992D01*
Y460008D01*
X318242Y460060D01*
X318252Y460112D01*
X318269Y460161D01*
X318292Y460208D01*
X318321Y460252D01*
X318356Y460291D01*
X318395Y460326D01*
X318439Y460355D01*
X318486Y460378D01*
X318536Y460395D01*
X318587Y460405D01*
X318639Y460409D01*
X338750D01*
X338802Y460405D01*
D02*
G37*
G36*
X409124Y450446D02*
X409175Y450436D01*
X409225Y450419D01*
X409272Y450396D01*
X409316Y450367D01*
X409355Y450332D01*
X409390Y450293D01*
X409419Y450249D01*
X409442Y450202D01*
X409459Y450152D01*
X409469Y450101D01*
X409473Y450049D01*
Y446033D01*
X409469Y445981D01*
X409459Y445929D01*
X409442Y445879D01*
X409419Y445832D01*
X409390Y445789D01*
X409355Y445749D01*
X409316Y445715D01*
X409272Y445686D01*
X409225Y445662D01*
X409175Y445646D01*
X409124Y445635D01*
X409072Y445632D01*
X388965D01*
X388912Y445635D01*
X388861Y445646D01*
X388811Y445662D01*
X388764Y445686D01*
X388721Y445715D01*
X388681Y445749D01*
X388647Y445789D01*
X388617Y445832D01*
X388594Y445879D01*
X388578Y445929D01*
X388567Y445981D01*
X388564Y446033D01*
Y450049D01*
X388567Y450101D01*
X388578Y450152D01*
X388594Y450202D01*
X388617Y450249D01*
X388647Y450293D01*
X388681Y450332D01*
X388721Y450367D01*
X388764Y450396D01*
X388811Y450419D01*
X388861Y450436D01*
X388912Y450446D01*
X388965Y450449D01*
X409072D01*
X409124Y450446D01*
D02*
G37*
G36*
X338800Y450405D02*
X338851Y450395D01*
X338901Y450378D01*
X338948Y450355D01*
X338991Y450326D01*
X339031Y450291D01*
X339065Y450252D01*
X339094Y450208D01*
X339118Y450161D01*
X339134Y450112D01*
X339145Y450060D01*
X339148Y450008D01*
Y445992D01*
X339145Y445940D01*
X339134Y445888D01*
X339118Y445839D01*
X339094Y445792D01*
X339065Y445748D01*
X339031Y445709D01*
X338991Y445674D01*
X338948Y445645D01*
X338901Y445622D01*
X338851Y445605D01*
X338800Y445595D01*
X338747Y445591D01*
X318632D01*
X318580Y445595D01*
X318528Y445605D01*
X318478Y445622D01*
X318431Y445645D01*
X318388Y445674D01*
X318348Y445709D01*
X318314Y445748D01*
X318285Y445792D01*
X318262Y445839D01*
X318245Y445888D01*
X318234Y445940D01*
X318231Y445992D01*
Y450008D01*
X318234Y450060D01*
X318245Y450112D01*
X318262Y450161D01*
X318285Y450208D01*
X318314Y450252D01*
X318348Y450291D01*
X318388Y450326D01*
X318431Y450355D01*
X318478Y450378D01*
X318528Y450395D01*
X318580Y450405D01*
X318632Y450409D01*
X338747D01*
X338800Y450405D01*
D02*
G37*
G36*
X409135Y440446D02*
X409187Y440436D01*
X409236Y440419D01*
X409283Y440396D01*
X409327Y440367D01*
X409366Y440332D01*
X409401Y440293D01*
X409430Y440249D01*
X409453Y440202D01*
X409470Y440152D01*
X409480Y440101D01*
X409484Y440049D01*
Y436033D01*
X409480Y435981D01*
X409470Y435929D01*
X409453Y435879D01*
X409430Y435832D01*
X409401Y435789D01*
X409366Y435749D01*
X409327Y435715D01*
X409283Y435686D01*
X409236Y435663D01*
X409187Y435646D01*
X409135Y435635D01*
X409083Y435632D01*
X388964D01*
X388912Y435635D01*
X388861Y435646D01*
X388811Y435663D01*
X388764Y435686D01*
X388720Y435715D01*
X388681Y435749D01*
X388646Y435789D01*
X388617Y435832D01*
X388594Y435879D01*
X388577Y435929D01*
X388567Y435981D01*
X388563Y436033D01*
Y440049D01*
X388567Y440101D01*
X388577Y440152D01*
X388594Y440202D01*
X388617Y440249D01*
X388646Y440293D01*
X388681Y440332D01*
X388720Y440367D01*
X388764Y440396D01*
X388811Y440419D01*
X388861Y440436D01*
X388912Y440446D01*
X388964Y440449D01*
X409083D01*
X409135Y440446D01*
D02*
G37*
G36*
X338802Y440405D02*
X338854Y440395D01*
X338903Y440378D01*
X338950Y440355D01*
X338994Y440326D01*
X339033Y440291D01*
X339068Y440252D01*
X339097Y440208D01*
X339120Y440161D01*
X339137Y440112D01*
X339147Y440060D01*
X339151Y440008D01*
Y435992D01*
X339147Y435940D01*
X339137Y435888D01*
X339120Y435839D01*
X339097Y435792D01*
X339068Y435748D01*
X339033Y435709D01*
X338994Y435674D01*
X338950Y435645D01*
X338903Y435622D01*
X338854Y435605D01*
X338802Y435595D01*
X338750Y435591D01*
X318639D01*
X318586Y435595D01*
X318535Y435605D01*
X318485Y435622D01*
X318438Y435645D01*
X318394Y435674D01*
X318355Y435709D01*
X318321Y435748D01*
X318291Y435792D01*
X318268Y435839D01*
X318251Y435888D01*
X318241Y435940D01*
X318238Y435992D01*
Y440008D01*
X318241Y440060D01*
X318251Y440112D01*
X318268Y440161D01*
X318291Y440208D01*
X318321Y440252D01*
X318355Y440291D01*
X318394Y440326D01*
X318438Y440355D01*
X318485Y440378D01*
X318535Y440395D01*
X318586Y440405D01*
X318639Y440409D01*
X338750D01*
X338802Y440405D01*
D02*
G37*
G36*
X409123Y430446D02*
X409175Y430436D01*
X409224Y430419D01*
X409271Y430396D01*
X409315Y430367D01*
X409354Y430332D01*
X409389Y430293D01*
X409418Y430249D01*
X409441Y430202D01*
X409458Y430152D01*
X409468Y430101D01*
X409472Y430049D01*
Y426033D01*
X409468Y425981D01*
X409458Y425929D01*
X409441Y425879D01*
X409418Y425832D01*
X409389Y425789D01*
X409354Y425749D01*
X409315Y425715D01*
X409271Y425686D01*
X409224Y425663D01*
X409175Y425646D01*
X409123Y425635D01*
X409071Y425632D01*
X388965D01*
X388912Y425635D01*
X388861Y425646D01*
X388811Y425663D01*
X388764Y425686D01*
X388721Y425715D01*
X388681Y425749D01*
X388647Y425789D01*
X388617Y425832D01*
X388594Y425879D01*
X388578Y425929D01*
X388567Y425981D01*
X388564Y426033D01*
Y430049D01*
X388567Y430101D01*
X388578Y430152D01*
X388594Y430202D01*
X388617Y430249D01*
X388647Y430293D01*
X388681Y430332D01*
X388721Y430367D01*
X388764Y430396D01*
X388811Y430419D01*
X388861Y430436D01*
X388912Y430446D01*
X388965Y430449D01*
X409071D01*
X409123Y430446D01*
D02*
G37*
G36*
X338799Y430405D02*
X338850Y430395D01*
X338900Y430378D01*
X338947Y430355D01*
X338990Y430326D01*
X339030Y430291D01*
X339065Y430252D01*
X339094Y430208D01*
X339117Y430161D01*
X339134Y430112D01*
X339144Y430060D01*
X339147Y430008D01*
Y425992D01*
X339144Y425940D01*
X339134Y425888D01*
X339117Y425839D01*
X339094Y425792D01*
X339065Y425748D01*
X339030Y425709D01*
X338990Y425674D01*
X338947Y425645D01*
X338900Y425622D01*
X338850Y425605D01*
X338799Y425595D01*
X338747Y425591D01*
X318632D01*
X318580Y425595D01*
X318528Y425605D01*
X318478Y425622D01*
X318431Y425645D01*
X318388Y425674D01*
X318348Y425709D01*
X318314Y425748D01*
X318285Y425792D01*
X318262Y425839D01*
X318245Y425888D01*
X318234Y425940D01*
X318231Y425992D01*
Y430008D01*
X318234Y430060D01*
X318245Y430112D01*
X318262Y430161D01*
X318285Y430208D01*
X318314Y430252D01*
X318348Y430291D01*
X318388Y430326D01*
X318431Y430355D01*
X318478Y430378D01*
X318528Y430395D01*
X318580Y430405D01*
X318632Y430409D01*
X338747D01*
X338799Y430405D01*
D02*
G37*
G36*
X409135Y420446D02*
X409187Y420436D01*
X409236Y420419D01*
X409283Y420396D01*
X409327Y420367D01*
X409366Y420332D01*
X409401Y420293D01*
X409430Y420249D01*
X409453Y420202D01*
X409470Y420152D01*
X409480Y420101D01*
X409484Y420049D01*
Y416033D01*
X409480Y415980D01*
X409470Y415929D01*
X409453Y415879D01*
X409430Y415832D01*
X409401Y415789D01*
X409366Y415749D01*
X409327Y415715D01*
X409283Y415686D01*
X409236Y415662D01*
X409187Y415646D01*
X409135Y415635D01*
X409083Y415632D01*
X388964D01*
X388911Y415635D01*
X388860Y415646D01*
X388810Y415662D01*
X388763Y415686D01*
X388720Y415715D01*
X388680Y415749D01*
X388646Y415789D01*
X388616Y415832D01*
X388593Y415879D01*
X388577Y415929D01*
X388566Y415980D01*
X388563Y416033D01*
Y420049D01*
X388566Y420101D01*
X388577Y420152D01*
X388593Y420202D01*
X388616Y420249D01*
X388646Y420293D01*
X388680Y420332D01*
X388720Y420367D01*
X388763Y420396D01*
X388810Y420419D01*
X388860Y420436D01*
X388911Y420446D01*
X388964Y420449D01*
X409083D01*
X409135Y420446D01*
D02*
G37*
G36*
X338802Y420405D02*
X338854Y420395D01*
X338903Y420378D01*
X338950Y420355D01*
X338994Y420326D01*
X339033Y420291D01*
X339068Y420252D01*
X339097Y420208D01*
X339120Y420161D01*
X339137Y420112D01*
X339147Y420060D01*
X339151Y420008D01*
Y415992D01*
X339147Y415940D01*
X339137Y415888D01*
X339120Y415839D01*
X339097Y415792D01*
X339068Y415748D01*
X339033Y415709D01*
X338994Y415674D01*
X338950Y415645D01*
X338903Y415622D01*
X338854Y415605D01*
X338802Y415595D01*
X338750Y415591D01*
X318638D01*
X318585Y415595D01*
X318534Y415605D01*
X318484Y415622D01*
X318437Y415645D01*
X318394Y415674D01*
X318354Y415709D01*
X318320Y415748D01*
X318291Y415792D01*
X318267Y415839D01*
X318251Y415888D01*
X318240Y415940D01*
X318237Y415992D01*
Y420008D01*
X318240Y420060D01*
X318251Y420112D01*
X318267Y420161D01*
X318291Y420208D01*
X318320Y420252D01*
X318354Y420291D01*
X318394Y420326D01*
X318437Y420355D01*
X318484Y420378D01*
X318534Y420395D01*
X318585Y420405D01*
X318638Y420409D01*
X338750D01*
X338802Y420405D01*
D02*
G37*
G36*
X409123Y410446D02*
X409174Y410436D01*
X409224Y410419D01*
X409271Y410396D01*
X409314Y410367D01*
X409354Y410332D01*
X409388Y410293D01*
X409417Y410249D01*
X409441Y410202D01*
X409457Y410152D01*
X409468Y410101D01*
X409471Y410049D01*
Y406033D01*
X409468Y405980D01*
X409457Y405929D01*
X409441Y405879D01*
X409417Y405832D01*
X409388Y405789D01*
X409354Y405749D01*
X409314Y405715D01*
X409271Y405686D01*
X409224Y405662D01*
X409174Y405646D01*
X409123Y405635D01*
X409070Y405632D01*
X388965D01*
X388912Y405635D01*
X388861Y405646D01*
X388811Y405662D01*
X388764Y405686D01*
X388721Y405715D01*
X388681Y405749D01*
X388647Y405789D01*
X388617Y405832D01*
X388594Y405879D01*
X388578Y405929D01*
X388567Y405980D01*
X388564Y406033D01*
Y410049D01*
X388567Y410101D01*
X388578Y410152D01*
X388594Y410202D01*
X388617Y410249D01*
X388647Y410293D01*
X388681Y410332D01*
X388721Y410367D01*
X388764Y410396D01*
X388811Y410419D01*
X388861Y410436D01*
X388912Y410446D01*
X388965Y410449D01*
X409070D01*
X409123Y410446D01*
D02*
G37*
G36*
X338798Y410405D02*
X338849Y410395D01*
X338899Y410378D01*
X338946Y410355D01*
X338990Y410326D01*
X339029Y410291D01*
X339064Y410252D01*
X339093Y410208D01*
X339116Y410161D01*
X339133Y410112D01*
X339143Y410060D01*
X339147Y410008D01*
Y405992D01*
X339143Y405940D01*
X339133Y405888D01*
X339116Y405839D01*
X339093Y405792D01*
X339064Y405748D01*
X339029Y405709D01*
X338990Y405674D01*
X338946Y405645D01*
X338899Y405622D01*
X338849Y405605D01*
X338798Y405595D01*
X338746Y405591D01*
X318632D01*
X318580Y405595D01*
X318528Y405605D01*
X318478Y405622D01*
X318431Y405645D01*
X318388Y405674D01*
X318348Y405709D01*
X318314Y405748D01*
X318285Y405792D01*
X318262Y405839D01*
X318245Y405888D01*
X318234Y405940D01*
X318231Y405992D01*
Y410008D01*
X318234Y410060D01*
X318245Y410112D01*
X318262Y410161D01*
X318285Y410208D01*
X318314Y410252D01*
X318348Y410291D01*
X318388Y410326D01*
X318431Y410355D01*
X318478Y410378D01*
X318528Y410395D01*
X318580Y410405D01*
X318632Y410409D01*
X338746D01*
X338798Y410405D01*
D02*
G37*
G36*
X409135Y400446D02*
X409187Y400436D01*
X409236Y400419D01*
X409283Y400396D01*
X409327Y400367D01*
X409366Y400332D01*
X409401Y400293D01*
X409430Y400249D01*
X409453Y400202D01*
X409470Y400152D01*
X409480Y400101D01*
X409484Y400049D01*
Y396033D01*
X409480Y395981D01*
X409470Y395929D01*
X409453Y395879D01*
X409430Y395832D01*
X409401Y395789D01*
X409366Y395749D01*
X409327Y395715D01*
X409283Y395686D01*
X409236Y395662D01*
X409187Y395646D01*
X409135Y395635D01*
X409083Y395632D01*
X388963D01*
X388911Y395635D01*
X388859Y395646D01*
X388809Y395662D01*
X388762Y395686D01*
X388719Y395715D01*
X388680Y395749D01*
X388645Y395789D01*
X388616Y395832D01*
X388593Y395879D01*
X388576Y395929D01*
X388565Y395981D01*
X388562Y396033D01*
Y400049D01*
X388565Y400101D01*
X388576Y400152D01*
X388593Y400202D01*
X388616Y400249D01*
X388645Y400293D01*
X388680Y400332D01*
X388719Y400367D01*
X388762Y400396D01*
X388809Y400419D01*
X388859Y400436D01*
X388911Y400446D01*
X388963Y400449D01*
X409083D01*
X409135Y400446D01*
D02*
G37*
G36*
X338802Y400405D02*
X338854Y400395D01*
X338903Y400378D01*
X338950Y400355D01*
X338994Y400326D01*
X339033Y400291D01*
X339068Y400252D01*
X339097Y400208D01*
X339120Y400161D01*
X339137Y400112D01*
X339147Y400060D01*
X339151Y400008D01*
Y395992D01*
X339147Y395940D01*
X339137Y395888D01*
X339120Y395839D01*
X339097Y395792D01*
X339068Y395748D01*
X339033Y395709D01*
X338994Y395674D01*
X338950Y395645D01*
X338903Y395622D01*
X338854Y395605D01*
X338802Y395595D01*
X338750Y395591D01*
X318637D01*
X318585Y395595D01*
X318533Y395605D01*
X318484Y395622D01*
X318437Y395645D01*
X318393Y395674D01*
X318354Y395709D01*
X318319Y395748D01*
X318290Y395792D01*
X318267Y395839D01*
X318250Y395888D01*
X318240Y395940D01*
X318236Y395992D01*
Y400008D01*
X318240Y400060D01*
X318250Y400112D01*
X318267Y400161D01*
X318290Y400208D01*
X318319Y400252D01*
X318354Y400291D01*
X318393Y400326D01*
X318437Y400355D01*
X318484Y400378D01*
X318533Y400395D01*
X318585Y400405D01*
X318637Y400409D01*
X338750D01*
X338802Y400405D01*
D02*
G37*
G36*
X409122Y390446D02*
X409173Y390436D01*
X409223Y390419D01*
X409270Y390396D01*
X409313Y390367D01*
X409353Y390332D01*
X409387Y390293D01*
X409417Y390249D01*
X409440Y390202D01*
X409457Y390152D01*
X409467Y390101D01*
X409470Y390049D01*
Y386033D01*
X409467Y385981D01*
X409457Y385929D01*
X409440Y385879D01*
X409417Y385832D01*
X409387Y385789D01*
X409353Y385749D01*
X409313Y385715D01*
X409270Y385686D01*
X409223Y385663D01*
X409173Y385646D01*
X409122Y385635D01*
X409069Y385632D01*
X388965D01*
X388912Y385635D01*
X388861Y385646D01*
X388811Y385663D01*
X388764Y385686D01*
X388721Y385715D01*
X388681Y385749D01*
X388647Y385789D01*
X388617Y385832D01*
X388594Y385879D01*
X388578Y385929D01*
X388567Y385981D01*
X388564Y386033D01*
Y390049D01*
X388567Y390101D01*
X388578Y390152D01*
X388594Y390202D01*
X388617Y390249D01*
X388647Y390293D01*
X388681Y390332D01*
X388721Y390367D01*
X388764Y390396D01*
X388811Y390419D01*
X388861Y390436D01*
X388912Y390446D01*
X388965Y390449D01*
X409069D01*
X409122Y390446D01*
D02*
G37*
G36*
X338800Y390405D02*
X338852Y390395D01*
X338901Y390378D01*
X338948Y390355D01*
X338992Y390326D01*
X339031Y390291D01*
X339066Y390252D01*
X339095Y390208D01*
X339118Y390161D01*
X339135Y390112D01*
X339145Y390060D01*
X339149Y390008D01*
Y385992D01*
X339145Y385940D01*
X339135Y385888D01*
X339118Y385839D01*
X339095Y385792D01*
X339066Y385748D01*
X339031Y385709D01*
X338992Y385674D01*
X338948Y385645D01*
X338901Y385622D01*
X338852Y385605D01*
X338800Y385595D01*
X338748Y385591D01*
X318632D01*
X318580Y385595D01*
X318528Y385605D01*
X318478Y385622D01*
X318431Y385645D01*
X318388Y385674D01*
X318348Y385709D01*
X318314Y385748D01*
X318285Y385792D01*
X318262Y385839D01*
X318245Y385888D01*
X318234Y385940D01*
X318231Y385992D01*
Y390008D01*
X318234Y390060D01*
X318245Y390112D01*
X318262Y390161D01*
X318285Y390208D01*
X318314Y390252D01*
X318348Y390291D01*
X318388Y390326D01*
X318431Y390355D01*
X318478Y390378D01*
X318528Y390395D01*
X318580Y390405D01*
X318632Y390409D01*
X338748D01*
X338800Y390405D01*
D02*
G37*
G36*
X409135Y380446D02*
X409187Y380436D01*
X409236Y380419D01*
X409283Y380396D01*
X409327Y380367D01*
X409366Y380332D01*
X409401Y380293D01*
X409430Y380249D01*
X409453Y380202D01*
X409470Y380152D01*
X409480Y380101D01*
X409484Y380049D01*
Y376033D01*
X409480Y375980D01*
X409470Y375929D01*
X409453Y375879D01*
X409430Y375832D01*
X409401Y375789D01*
X409366Y375749D01*
X409327Y375715D01*
X409283Y375686D01*
X409236Y375662D01*
X409187Y375646D01*
X409135Y375635D01*
X409083Y375632D01*
X388962D01*
X388910Y375635D01*
X388858Y375646D01*
X388809Y375662D01*
X388762Y375686D01*
X388718Y375715D01*
X388679Y375749D01*
X388644Y375789D01*
X388615Y375832D01*
X388592Y375879D01*
X388575Y375929D01*
X388565Y375980D01*
X388561Y376033D01*
Y380049D01*
X388565Y380101D01*
X388575Y380152D01*
X388592Y380202D01*
X388615Y380249D01*
X388644Y380293D01*
X388679Y380332D01*
X388718Y380367D01*
X388762Y380396D01*
X388809Y380419D01*
X388858Y380436D01*
X388910Y380446D01*
X388962Y380449D01*
X409083D01*
X409135Y380446D01*
D02*
G37*
G36*
X338802Y380405D02*
X338854Y380395D01*
X338903Y380378D01*
X338950Y380355D01*
X338994Y380326D01*
X339033Y380291D01*
X339068Y380252D01*
X339097Y380208D01*
X339120Y380161D01*
X339137Y380112D01*
X339147Y380060D01*
X339151Y380008D01*
Y375992D01*
X339147Y375940D01*
X339137Y375888D01*
X339120Y375839D01*
X339097Y375792D01*
X339068Y375748D01*
X339033Y375709D01*
X338994Y375674D01*
X338950Y375645D01*
X338903Y375622D01*
X338854Y375605D01*
X338802Y375595D01*
X338750Y375591D01*
X318636D01*
X318584Y375595D01*
X318533Y375605D01*
X318483Y375622D01*
X318436Y375645D01*
X318392Y375674D01*
X318353Y375709D01*
X318318Y375748D01*
X318289Y375792D01*
X318266Y375839D01*
X318249Y375888D01*
X318239Y375940D01*
X318235Y375992D01*
Y380008D01*
X318239Y380060D01*
X318249Y380112D01*
X318266Y380161D01*
X318289Y380208D01*
X318318Y380252D01*
X318353Y380291D01*
X318392Y380326D01*
X318436Y380355D01*
X318483Y380378D01*
X318533Y380395D01*
X318584Y380405D01*
X318636Y380409D01*
X338750D01*
X338802Y380405D01*
D02*
G37*
G36*
X409121Y370446D02*
X409172Y370436D01*
X409222Y370419D01*
X409269Y370396D01*
X409313Y370367D01*
X409352Y370332D01*
X409387Y370293D01*
X409416Y370249D01*
X409439Y370202D01*
X409456Y370152D01*
X409466Y370101D01*
X409470Y370049D01*
Y366033D01*
X409466Y365981D01*
X409456Y365929D01*
X409439Y365879D01*
X409416Y365832D01*
X409387Y365789D01*
X409352Y365749D01*
X409313Y365715D01*
X409269Y365686D01*
X409222Y365663D01*
X409172Y365646D01*
X409121Y365635D01*
X409069Y365632D01*
X388965D01*
X388912Y365635D01*
X388861Y365646D01*
X388811Y365663D01*
X388764Y365686D01*
X388721Y365715D01*
X388681Y365749D01*
X388647Y365789D01*
X388617Y365832D01*
X388594Y365879D01*
X388578Y365929D01*
X388567Y365981D01*
X388564Y366033D01*
Y370049D01*
X388567Y370101D01*
X388578Y370152D01*
X388594Y370202D01*
X388617Y370249D01*
X388647Y370293D01*
X388681Y370332D01*
X388721Y370367D01*
X388764Y370396D01*
X388811Y370419D01*
X388861Y370436D01*
X388912Y370446D01*
X388965Y370449D01*
X409069D01*
X409121Y370446D01*
D02*
G37*
G36*
X338797Y370405D02*
X338848Y370395D01*
X338898Y370378D01*
X338945Y370355D01*
X338988Y370326D01*
X339028Y370291D01*
X339062Y370252D01*
X339091Y370208D01*
X339115Y370161D01*
X339131Y370112D01*
X339142Y370060D01*
X339145Y370008D01*
Y365992D01*
X339142Y365940D01*
X339131Y365888D01*
X339115Y365839D01*
X339091Y365792D01*
X339062Y365748D01*
X339028Y365709D01*
X338988Y365674D01*
X338945Y365645D01*
X338898Y365622D01*
X338848Y365605D01*
X338797Y365595D01*
X338744Y365591D01*
X318632D01*
X318580Y365595D01*
X318528Y365605D01*
X318478Y365622D01*
X318431Y365645D01*
X318388Y365674D01*
X318348Y365709D01*
X318314Y365748D01*
X318285Y365792D01*
X318262Y365839D01*
X318245Y365888D01*
X318234Y365940D01*
X318231Y365992D01*
Y370008D01*
X318234Y370060D01*
X318245Y370112D01*
X318262Y370161D01*
X318285Y370208D01*
X318314Y370252D01*
X318348Y370291D01*
X318388Y370326D01*
X318431Y370355D01*
X318478Y370378D01*
X318528Y370395D01*
X318580Y370405D01*
X318632Y370409D01*
X338744D01*
X338797Y370405D01*
D02*
G37*
G36*
X409135Y360446D02*
X409187Y360436D01*
X409236Y360419D01*
X409283Y360396D01*
X409327Y360367D01*
X409366Y360332D01*
X409401Y360293D01*
X409430Y360249D01*
X409453Y360202D01*
X409470Y360152D01*
X409480Y360101D01*
X409484Y360049D01*
Y356033D01*
X409480Y355980D01*
X409470Y355929D01*
X409453Y355879D01*
X409430Y355832D01*
X409401Y355789D01*
X409366Y355749D01*
X409327Y355715D01*
X409283Y355686D01*
X409236Y355662D01*
X409187Y355646D01*
X409135Y355635D01*
X409083Y355632D01*
X388962D01*
X388909Y355635D01*
X388858Y355646D01*
X388808Y355662D01*
X388761Y355686D01*
X388717Y355715D01*
X388678Y355749D01*
X388643Y355789D01*
X388614Y355832D01*
X388591Y355879D01*
X388574Y355929D01*
X388564Y355980D01*
X388561Y356033D01*
Y360049D01*
X388564Y360101D01*
X388574Y360152D01*
X388591Y360202D01*
X388614Y360249D01*
X388643Y360293D01*
X388678Y360332D01*
X388717Y360367D01*
X388761Y360396D01*
X388808Y360419D01*
X388858Y360436D01*
X388909Y360446D01*
X388962Y360449D01*
X409083D01*
X409135Y360446D01*
D02*
G37*
G36*
X338802Y360405D02*
X338854Y360395D01*
X338903Y360378D01*
X338950Y360355D01*
X338994Y360326D01*
X339033Y360291D01*
X339068Y360252D01*
X339097Y360208D01*
X339120Y360161D01*
X339137Y360112D01*
X339147Y360060D01*
X339151Y360008D01*
Y355992D01*
X339147Y355940D01*
X339137Y355888D01*
X339120Y355839D01*
X339097Y355792D01*
X339068Y355748D01*
X339033Y355709D01*
X338994Y355674D01*
X338950Y355645D01*
X338903Y355622D01*
X338854Y355605D01*
X338802Y355595D01*
X338750Y355591D01*
X318636D01*
X318583Y355595D01*
X318532Y355605D01*
X318482Y355622D01*
X318435Y355645D01*
X318392Y355674D01*
X318352Y355709D01*
X318318Y355748D01*
X318288Y355792D01*
X318265Y355839D01*
X318249Y355888D01*
X318238Y355940D01*
X318235Y355992D01*
Y360008D01*
X318238Y360060D01*
X318249Y360112D01*
X318265Y360161D01*
X318288Y360208D01*
X318318Y360252D01*
X318352Y360291D01*
X318392Y360326D01*
X318435Y360355D01*
X318482Y360378D01*
X318532Y360395D01*
X318583Y360405D01*
X318636Y360409D01*
X338750D01*
X338802Y360405D01*
D02*
G37*
G36*
X409120Y350446D02*
X409172Y350436D01*
X409221Y350419D01*
X409268Y350396D01*
X409312Y350367D01*
X409351Y350332D01*
X409386Y350293D01*
X409415Y350249D01*
X409438Y350202D01*
X409455Y350152D01*
X409465Y350101D01*
X409469Y350049D01*
Y346033D01*
X409465Y345981D01*
X409455Y345929D01*
X409438Y345879D01*
X409415Y345832D01*
X409386Y345789D01*
X409351Y345749D01*
X409312Y345715D01*
X409268Y345686D01*
X409221Y345662D01*
X409172Y345646D01*
X409120Y345635D01*
X409068Y345632D01*
X388965D01*
X388912Y345635D01*
X388861Y345646D01*
X388811Y345662D01*
X388764Y345686D01*
X388721Y345715D01*
X388681Y345749D01*
X388647Y345789D01*
X388617Y345832D01*
X388594Y345879D01*
X388578Y345929D01*
X388567Y345981D01*
X388564Y346033D01*
Y350049D01*
X388567Y350101D01*
X388578Y350152D01*
X388594Y350202D01*
X388617Y350249D01*
X388647Y350293D01*
X388681Y350332D01*
X388721Y350367D01*
X388764Y350396D01*
X388811Y350419D01*
X388861Y350436D01*
X388912Y350446D01*
X388965Y350449D01*
X409068D01*
X409120Y350446D01*
D02*
G37*
G36*
X338796Y350405D02*
X338847Y350395D01*
X338897Y350378D01*
X338944Y350355D01*
X338988Y350326D01*
X339027Y350291D01*
X339062Y350252D01*
X339091Y350208D01*
X339114Y350161D01*
X339131Y350112D01*
X339141Y350060D01*
X339144Y350008D01*
Y345992D01*
X339141Y345940D01*
X339131Y345888D01*
X339114Y345839D01*
X339091Y345792D01*
X339062Y345748D01*
X339027Y345709D01*
X338988Y345674D01*
X338944Y345645D01*
X338897Y345622D01*
X338847Y345605D01*
X338796Y345595D01*
X338744Y345591D01*
X318632D01*
X318580Y345595D01*
X318528Y345605D01*
X318478Y345622D01*
X318431Y345645D01*
X318388Y345674D01*
X318348Y345709D01*
X318314Y345748D01*
X318285Y345792D01*
X318262Y345839D01*
X318245Y345888D01*
X318234Y345940D01*
X318231Y345992D01*
Y350008D01*
X318234Y350060D01*
X318245Y350112D01*
X318262Y350161D01*
X318285Y350208D01*
X318314Y350252D01*
X318348Y350291D01*
X318388Y350326D01*
X318431Y350355D01*
X318478Y350378D01*
X318528Y350395D01*
X318580Y350405D01*
X318632Y350409D01*
X338744D01*
X338796Y350405D01*
D02*
G37*
G36*
X409135Y340446D02*
X409187Y340436D01*
X409236Y340419D01*
X409283Y340396D01*
X409327Y340367D01*
X409366Y340332D01*
X409401Y340293D01*
X409430Y340249D01*
X409453Y340202D01*
X409470Y340152D01*
X409480Y340101D01*
X409484Y340049D01*
Y336033D01*
X409480Y335981D01*
X409470Y335929D01*
X409453Y335879D01*
X409430Y335832D01*
X409401Y335789D01*
X409366Y335749D01*
X409327Y335715D01*
X409283Y335686D01*
X409236Y335663D01*
X409187Y335646D01*
X409135Y335635D01*
X409083Y335632D01*
X388961D01*
X388908Y335635D01*
X388857Y335646D01*
X388807Y335663D01*
X388760Y335686D01*
X388717Y335715D01*
X388677Y335749D01*
X388643Y335789D01*
X388614Y335832D01*
X388590Y335879D01*
X388574Y335929D01*
X388563Y335981D01*
X388560Y336033D01*
Y340049D01*
X388563Y340101D01*
X388574Y340152D01*
X388590Y340202D01*
X388614Y340249D01*
X388643Y340293D01*
X388677Y340332D01*
X388717Y340367D01*
X388760Y340396D01*
X388807Y340419D01*
X388857Y340436D01*
X388908Y340446D01*
X388961Y340449D01*
X409083D01*
X409135Y340446D01*
D02*
G37*
G36*
X338802Y340405D02*
X338854Y340395D01*
X338903Y340378D01*
X338950Y340355D01*
X338994Y340326D01*
X339033Y340291D01*
X339068Y340252D01*
X339097Y340208D01*
X339120Y340161D01*
X339137Y340112D01*
X339147Y340060D01*
X339151Y340008D01*
Y335992D01*
X339147Y335940D01*
X339137Y335888D01*
X339120Y335839D01*
X339097Y335792D01*
X339068Y335748D01*
X339033Y335709D01*
X338994Y335674D01*
X338950Y335645D01*
X338903Y335622D01*
X338854Y335605D01*
X338802Y335595D01*
X338750Y335591D01*
X318635D01*
X318583Y335595D01*
X318531Y335605D01*
X318481Y335622D01*
X318435Y335645D01*
X318391Y335674D01*
X318352Y335709D01*
X318317Y335748D01*
X318288Y335792D01*
X318265Y335839D01*
X318248Y335888D01*
X318237Y335940D01*
X318234Y335992D01*
Y340008D01*
X318237Y340060D01*
X318248Y340112D01*
X318265Y340161D01*
X318288Y340208D01*
X318317Y340252D01*
X318352Y340291D01*
X318391Y340326D01*
X318435Y340355D01*
X318481Y340378D01*
X318531Y340395D01*
X318583Y340405D01*
X318635Y340409D01*
X338750D01*
X338802Y340405D01*
D02*
G37*
G36*
X409120Y330446D02*
X409171Y330436D01*
X409221Y330419D01*
X409268Y330396D01*
X409311Y330367D01*
X409351Y330332D01*
X409385Y330293D01*
X409414Y330249D01*
X409438Y330202D01*
X409454Y330152D01*
X409465Y330101D01*
X409468Y330049D01*
Y326033D01*
X409465Y325980D01*
X409454Y325929D01*
X409438Y325879D01*
X409414Y325832D01*
X409385Y325789D01*
X409351Y325749D01*
X409311Y325715D01*
X409268Y325686D01*
X409221Y325662D01*
X409171Y325646D01*
X409120Y325635D01*
X409067Y325632D01*
X388965D01*
X388912Y325635D01*
X388861Y325646D01*
X388811Y325662D01*
X388764Y325686D01*
X388721Y325715D01*
X388681Y325749D01*
X388647Y325789D01*
X388617Y325832D01*
X388594Y325879D01*
X388578Y325929D01*
X388567Y325980D01*
X388564Y326033D01*
Y330049D01*
X388567Y330101D01*
X388578Y330152D01*
X388594Y330202D01*
X388617Y330249D01*
X388647Y330293D01*
X388681Y330332D01*
X388721Y330367D01*
X388764Y330396D01*
X388811Y330419D01*
X388861Y330436D01*
X388912Y330446D01*
X388965Y330449D01*
X409067D01*
X409120Y330446D01*
D02*
G37*
G36*
X338795Y330405D02*
X338847Y330395D01*
X338896Y330378D01*
X338943Y330355D01*
X338987Y330326D01*
X339026Y330291D01*
X339061Y330252D01*
X339090Y330208D01*
X339113Y330161D01*
X339130Y330112D01*
X339140Y330060D01*
X339144Y330008D01*
Y325992D01*
X339140Y325940D01*
X339130Y325888D01*
X339113Y325839D01*
X339090Y325792D01*
X339061Y325748D01*
X339026Y325709D01*
X338987Y325674D01*
X338943Y325645D01*
X338896Y325622D01*
X338847Y325605D01*
X338795Y325595D01*
X338743Y325591D01*
X318632D01*
X318580Y325595D01*
X318528Y325605D01*
X318478Y325622D01*
X318431Y325645D01*
X318388Y325674D01*
X318348Y325709D01*
X318314Y325748D01*
X318285Y325792D01*
X318262Y325839D01*
X318245Y325888D01*
X318234Y325940D01*
X318231Y325992D01*
Y330008D01*
X318234Y330060D01*
X318245Y330112D01*
X318262Y330161D01*
X318285Y330208D01*
X318314Y330252D01*
X318348Y330291D01*
X318388Y330326D01*
X318431Y330355D01*
X318478Y330378D01*
X318528Y330395D01*
X318580Y330405D01*
X318632Y330409D01*
X338743D01*
X338795Y330405D01*
D02*
G37*
G36*
X409135Y320446D02*
X409187Y320436D01*
X409236Y320419D01*
X409283Y320396D01*
X409327Y320367D01*
X409366Y320332D01*
X409401Y320293D01*
X409430Y320249D01*
X409453Y320202D01*
X409470Y320152D01*
X409480Y320101D01*
X409484Y320049D01*
Y316033D01*
X409480Y315981D01*
X409470Y315929D01*
X409453Y315879D01*
X409430Y315832D01*
X409401Y315789D01*
X409366Y315749D01*
X409327Y315715D01*
X409283Y315686D01*
X409236Y315663D01*
X409187Y315646D01*
X409135Y315635D01*
X409083Y315632D01*
X388960D01*
X388908Y315635D01*
X388856Y315646D01*
X388807Y315663D01*
X388760Y315686D01*
X388716Y315715D01*
X388677Y315749D01*
X388642Y315789D01*
X388613Y315832D01*
X388590Y315879D01*
X388573Y315929D01*
X388563Y315981D01*
X388559Y316033D01*
Y320049D01*
X388563Y320101D01*
X388573Y320152D01*
X388590Y320202D01*
X388613Y320249D01*
X388642Y320293D01*
X388677Y320332D01*
X388716Y320367D01*
X388760Y320396D01*
X388807Y320419D01*
X388856Y320436D01*
X388908Y320446D01*
X388960Y320449D01*
X409083D01*
X409135Y320446D01*
D02*
G37*
G36*
X338802Y320405D02*
X338854Y320395D01*
X338903Y320378D01*
X338950Y320355D01*
X338994Y320326D01*
X339033Y320291D01*
X339068Y320252D01*
X339097Y320208D01*
X339120Y320161D01*
X339137Y320112D01*
X339147Y320060D01*
X339151Y320008D01*
Y315992D01*
X339147Y315940D01*
X339137Y315888D01*
X339120Y315839D01*
X339097Y315792D01*
X339068Y315748D01*
X339033Y315709D01*
X338994Y315674D01*
X338950Y315645D01*
X338903Y315622D01*
X338854Y315605D01*
X338802Y315595D01*
X338750Y315591D01*
X318634D01*
X318582Y315595D01*
X318531Y315605D01*
X318481Y315622D01*
X318434Y315645D01*
X318390Y315674D01*
X318351Y315709D01*
X318316Y315748D01*
X318287Y315792D01*
X318264Y315839D01*
X318247Y315888D01*
X318237Y315940D01*
X318233Y315992D01*
Y320008D01*
X318237Y320060D01*
X318247Y320112D01*
X318264Y320161D01*
X318287Y320208D01*
X318316Y320252D01*
X318351Y320291D01*
X318390Y320326D01*
X318434Y320355D01*
X318481Y320378D01*
X318531Y320395D01*
X318582Y320405D01*
X318634Y320409D01*
X338750D01*
X338802Y320405D01*
D02*
G37*
G36*
X409119Y310446D02*
X409170Y310436D01*
X409220Y310419D01*
X409267Y310396D01*
X409311Y310367D01*
X409350Y310332D01*
X409385Y310293D01*
X409414Y310249D01*
X409437Y310202D01*
X409454Y310152D01*
X409464Y310101D01*
X409467Y310049D01*
Y306033D01*
X409464Y305980D01*
X409454Y305929D01*
X409437Y305879D01*
X409414Y305832D01*
X409385Y305789D01*
X409350Y305749D01*
X409311Y305715D01*
X409267Y305686D01*
X409220Y305662D01*
X409170Y305646D01*
X409119Y305635D01*
X409066Y305632D01*
X388965D01*
X388912Y305635D01*
X388861Y305646D01*
X388811Y305662D01*
X388764Y305686D01*
X388721Y305715D01*
X388681Y305749D01*
X388647Y305789D01*
X388617Y305832D01*
X388594Y305879D01*
X388578Y305929D01*
X388567Y305980D01*
X388564Y306033D01*
Y310049D01*
X388567Y310101D01*
X388578Y310152D01*
X388594Y310202D01*
X388617Y310249D01*
X388647Y310293D01*
X388681Y310332D01*
X388721Y310367D01*
X388764Y310396D01*
X388811Y310419D01*
X388861Y310436D01*
X388912Y310446D01*
X388965Y310449D01*
X409066D01*
X409119Y310446D01*
D02*
G37*
G36*
X338794Y310405D02*
X338846Y310395D01*
X338896Y310378D01*
X338943Y310355D01*
X338986Y310326D01*
X339025Y310291D01*
X339060Y310252D01*
X339089Y310208D01*
X339112Y310161D01*
X339129Y310112D01*
X339140Y310060D01*
X339143Y310008D01*
Y305992D01*
X339140Y305940D01*
X339129Y305888D01*
X339112Y305839D01*
X339089Y305792D01*
X339060Y305748D01*
X339025Y305709D01*
X338986Y305674D01*
X338943Y305645D01*
X338896Y305622D01*
X338846Y305605D01*
X338794Y305595D01*
X338742Y305591D01*
X318632D01*
X318580Y305595D01*
X318528Y305605D01*
X318478Y305622D01*
X318431Y305645D01*
X318388Y305674D01*
X318348Y305709D01*
X318314Y305748D01*
X318285Y305792D01*
X318262Y305839D01*
X318245Y305888D01*
X318234Y305940D01*
X318231Y305992D01*
Y310008D01*
X318234Y310060D01*
X318245Y310112D01*
X318262Y310161D01*
X318285Y310208D01*
X318314Y310252D01*
X318348Y310291D01*
X318388Y310326D01*
X318431Y310355D01*
X318478Y310378D01*
X318528Y310395D01*
X318580Y310405D01*
X318632Y310409D01*
X338742D01*
X338794Y310405D01*
D02*
G37*
G36*
X409135Y300446D02*
X409187Y300436D01*
X409236Y300419D01*
X409283Y300396D01*
X409327Y300367D01*
X409366Y300332D01*
X409401Y300293D01*
X409430Y300249D01*
X409453Y300202D01*
X409470Y300152D01*
X409480Y300101D01*
X409484Y300049D01*
Y296033D01*
X409480Y295981D01*
X409470Y295929D01*
X409453Y295879D01*
X409430Y295832D01*
X409401Y295789D01*
X409366Y295749D01*
X409327Y295715D01*
X409283Y295686D01*
X409236Y295662D01*
X409187Y295646D01*
X409135Y295635D01*
X409083Y295632D01*
X388959D01*
X388907Y295635D01*
X388856Y295646D01*
X388806Y295662D01*
X388759Y295686D01*
X388715Y295715D01*
X388676Y295749D01*
X388641Y295789D01*
X388612Y295832D01*
X388589Y295879D01*
X388572Y295929D01*
X388562Y295981D01*
X388558Y296033D01*
Y300049D01*
X388562Y300101D01*
X388572Y300152D01*
X388589Y300202D01*
X388612Y300249D01*
X388641Y300293D01*
X388676Y300332D01*
X388715Y300367D01*
X388759Y300396D01*
X388806Y300419D01*
X388856Y300436D01*
X388907Y300446D01*
X388959Y300449D01*
X409083D01*
X409135Y300446D01*
D02*
G37*
G36*
X338802Y300405D02*
X338854Y300395D01*
X338903Y300378D01*
X338950Y300355D01*
X338994Y300326D01*
X339033Y300291D01*
X339068Y300252D01*
X339097Y300208D01*
X339120Y300161D01*
X339137Y300112D01*
X339147Y300060D01*
X339151Y300008D01*
Y295992D01*
X339147Y295940D01*
X339137Y295888D01*
X339120Y295839D01*
X339097Y295792D01*
X339068Y295748D01*
X339033Y295709D01*
X338994Y295674D01*
X338950Y295645D01*
X338903Y295622D01*
X338854Y295605D01*
X338802Y295595D01*
X338750Y295591D01*
X318634D01*
X318581Y295595D01*
X318530Y295605D01*
X318480Y295622D01*
X318433Y295645D01*
X318390Y295674D01*
X318350Y295709D01*
X318316Y295748D01*
X318286Y295792D01*
X318263Y295839D01*
X318246Y295888D01*
X318236Y295940D01*
X318233Y295992D01*
Y300008D01*
X318236Y300060D01*
X318246Y300112D01*
X318263Y300161D01*
X318286Y300208D01*
X318316Y300252D01*
X318350Y300291D01*
X318390Y300326D01*
X318433Y300355D01*
X318480Y300378D01*
X318530Y300395D01*
X318581Y300405D01*
X318634Y300409D01*
X338750D01*
X338802Y300405D01*
D02*
G37*
G36*
X409118Y290446D02*
X409170Y290436D01*
X409219Y290419D01*
X409266Y290396D01*
X409310Y290367D01*
X409349Y290332D01*
X409384Y290293D01*
X409413Y290249D01*
X409436Y290202D01*
X409453Y290152D01*
X409463Y290101D01*
X409467Y290049D01*
Y286033D01*
X409463Y285981D01*
X409453Y285929D01*
X409436Y285879D01*
X409413Y285832D01*
X409384Y285789D01*
X409349Y285749D01*
X409310Y285715D01*
X409266Y285686D01*
X409219Y285663D01*
X409170Y285646D01*
X409118Y285635D01*
X409066Y285632D01*
X388965D01*
X388912Y285635D01*
X388861Y285646D01*
X388811Y285663D01*
X388764Y285686D01*
X388721Y285715D01*
X388681Y285749D01*
X388647Y285789D01*
X388617Y285832D01*
X388594Y285879D01*
X388578Y285929D01*
X388567Y285981D01*
X388564Y286033D01*
Y290049D01*
X388567Y290101D01*
X388578Y290152D01*
X388594Y290202D01*
X388617Y290249D01*
X388647Y290293D01*
X388681Y290332D01*
X388721Y290367D01*
X388764Y290396D01*
X388811Y290419D01*
X388861Y290436D01*
X388912Y290446D01*
X388965Y290449D01*
X409066D01*
X409118Y290446D01*
D02*
G37*
G36*
X338794Y290405D02*
X338845Y290395D01*
X338895Y290378D01*
X338942Y290355D01*
X338985Y290326D01*
X339025Y290291D01*
X339059Y290252D01*
X339089Y290208D01*
X339112Y290161D01*
X339129Y290112D01*
X339139Y290060D01*
X339142Y290008D01*
Y285992D01*
X339139Y285940D01*
X339129Y285888D01*
X339112Y285839D01*
X339089Y285792D01*
X339059Y285748D01*
X339025Y285709D01*
X338985Y285674D01*
X338942Y285645D01*
X338895Y285622D01*
X338845Y285605D01*
X338794Y285595D01*
X338741Y285591D01*
X318632D01*
X318580Y285595D01*
X318528Y285605D01*
X318478Y285622D01*
X318431Y285645D01*
X318388Y285674D01*
X318348Y285709D01*
X318314Y285748D01*
X318285Y285792D01*
X318262Y285839D01*
X318245Y285888D01*
X318234Y285940D01*
X318231Y285992D01*
Y290008D01*
X318234Y290060D01*
X318245Y290112D01*
X318262Y290161D01*
X318285Y290208D01*
X318314Y290252D01*
X318348Y290291D01*
X318388Y290326D01*
X318431Y290355D01*
X318478Y290378D01*
X318528Y290395D01*
X318580Y290405D01*
X318632Y290409D01*
X338741D01*
X338794Y290405D01*
D02*
G37*
G36*
X409135Y280446D02*
X409187Y280436D01*
X409236Y280419D01*
X409283Y280396D01*
X409327Y280367D01*
X409366Y280332D01*
X409401Y280293D01*
X409430Y280249D01*
X409453Y280202D01*
X409470Y280152D01*
X409480Y280101D01*
X409484Y280049D01*
Y276033D01*
X409480Y275980D01*
X409470Y275929D01*
X409453Y275879D01*
X409430Y275832D01*
X409401Y275789D01*
X409366Y275749D01*
X409327Y275715D01*
X409283Y275686D01*
X409236Y275662D01*
X409187Y275646D01*
X409135Y275635D01*
X409083Y275632D01*
X388959D01*
X388906Y275635D01*
X388855Y275646D01*
X388805Y275662D01*
X388758Y275686D01*
X388715Y275715D01*
X388675Y275749D01*
X388640Y275789D01*
X388611Y275832D01*
X388588Y275879D01*
X388571Y275929D01*
X388561Y275980D01*
X388558Y276033D01*
Y280049D01*
X388561Y280101D01*
X388571Y280152D01*
X388588Y280202D01*
X388611Y280249D01*
X388640Y280293D01*
X388675Y280332D01*
X388715Y280367D01*
X388758Y280396D01*
X388805Y280419D01*
X388855Y280436D01*
X388906Y280446D01*
X388959Y280449D01*
X409083D01*
X409135Y280446D01*
D02*
G37*
G36*
X338802Y280405D02*
X338854Y280395D01*
X338903Y280378D01*
X338950Y280355D01*
X338994Y280326D01*
X339033Y280291D01*
X339068Y280252D01*
X339097Y280208D01*
X339120Y280161D01*
X339137Y280112D01*
X339147Y280060D01*
X339151Y280008D01*
Y275992D01*
X339147Y275940D01*
X339137Y275888D01*
X339120Y275839D01*
X339097Y275792D01*
X339068Y275748D01*
X339033Y275709D01*
X338994Y275674D01*
X338950Y275645D01*
X338903Y275622D01*
X338854Y275605D01*
X338802Y275595D01*
X338750Y275591D01*
X318633D01*
X318581Y275595D01*
X318529Y275605D01*
X318479Y275622D01*
X318432Y275645D01*
X318389Y275674D01*
X318349Y275709D01*
X318315Y275748D01*
X318286Y275792D01*
X318262Y275839D01*
X318246Y275888D01*
X318235Y275940D01*
X318232Y275992D01*
Y280008D01*
X318235Y280060D01*
X318246Y280112D01*
X318262Y280161D01*
X318286Y280208D01*
X318315Y280252D01*
X318349Y280291D01*
X318389Y280326D01*
X318432Y280355D01*
X318479Y280378D01*
X318529Y280395D01*
X318581Y280405D01*
X318633Y280409D01*
X338750D01*
X338802Y280405D01*
D02*
G37*
G36*
X531101Y128752D02*
X495957D01*
Y160248D01*
X531101D01*
Y128752D01*
D02*
G37*
G36*
X227374D02*
X191920D01*
Y160248D01*
X227374D01*
Y128752D01*
D02*
G37*
D58*
X425000Y382500D02*
D03*
X271391Y476500D02*
D03*
X433900Y476600D02*
D03*
X280000Y432000D02*
D03*
X423900Y476600D02*
D03*
X203100Y114000D02*
D03*
X280000Y422000D02*
D03*
X281391Y476500D02*
D03*
X296500Y424500D02*
D03*
X443900Y476600D02*
D03*
X291391Y476500D02*
D03*
X296500Y434500D02*
D03*
X425000Y372500D02*
D03*
D59*
X243500Y476500D02*
D03*
X532000Y210400D02*
D03*
X480457Y476500D02*
D03*
X301391D02*
D03*
X453900Y476600D02*
D03*
D60*
X286305Y214505D02*
D03*
Y240095D02*
D03*
X268588Y214505D02*
D03*
Y240095D02*
D03*
D61*
X451085Y405977D02*
D03*
X461815Y364000D02*
D03*
X451815D02*
D03*
X471085Y405977D02*
D03*
X441815Y364000D02*
D03*
X461085Y405977D02*
D03*
X441085D02*
D03*
X471815Y364000D02*
D03*
D62*
X520457Y476500D02*
D03*
X490457D02*
D03*
X500457D02*
D03*
X512000Y210400D02*
D03*
X522000D02*
D03*
X492000D02*
D03*
X203500Y476500D02*
D03*
X223500D02*
D03*
X510457D02*
D03*
X213500D02*
D03*
X482000Y210400D02*
D03*
X502000D02*
D03*
X233500Y476500D02*
D03*
D63*
X236561Y261568D02*
D03*
X212126Y217458D02*
D03*
X246404Y261568D02*
D03*
X256246D02*
D03*
X212126Y237142D02*
D03*
Y227300D02*
D03*
D65*
X425000Y362500D02*
D03*
X203100Y124000D02*
D03*
X280000Y412000D02*
D03*
X296500Y414500D02*
D03*
D66*
X226693Y202415D02*
D03*
X266063Y252218D02*
D03*
Y202415D02*
D03*
X226693Y252218D02*
D03*
D67*
X533441Y241981D02*
D03*
Y235288D02*
D03*
D68*
X308000Y444000D02*
D03*
X317469Y458000D02*
D03*
X493500Y376000D02*
D03*
X211780Y350588D02*
D03*
X198362Y329563D02*
D03*
X489500Y286500D02*
D03*
X353000Y358000D02*
D03*
X372500Y349500D02*
D03*
X413500Y318000D02*
D03*
X244500Y130500D02*
D03*
X300500Y137823D02*
D03*
X532500Y166000D02*
D03*
X250500Y175000D02*
D03*
X522000Y428041D02*
D03*
X383100Y130700D02*
D03*
X416000Y308000D02*
D03*
X346000Y468000D02*
D03*
X506900Y272400D02*
D03*
X295404Y302000D02*
D03*
X368500Y247900D02*
D03*
X322100Y137300D02*
D03*
X382000Y331500D02*
D03*
X260500Y120000D02*
D03*
X361100Y248700D02*
D03*
X327000Y143200D02*
D03*
X378000Y418000D02*
D03*
X355500Y387000D02*
D03*
X466000Y338000D02*
D03*
X427302Y338020D02*
D03*
X465500Y241000D02*
D03*
X270500Y120000D02*
D03*
X280530Y150423D02*
D03*
X524900Y172600D02*
D03*
X536100Y223000D02*
D03*
X475700Y195000D02*
D03*
X378800Y155800D02*
D03*
X361700Y168100D02*
D03*
X452500Y433000D02*
D03*
X423000Y328000D02*
D03*
X365500Y378000D02*
D03*
X270500Y167000D02*
D03*
X420601Y185642D02*
D03*
X374500Y469500D02*
D03*
X383600Y122800D02*
D03*
X424500Y435532D02*
D03*
X302400Y214500D02*
D03*
X358500Y377500D02*
D03*
X260500Y171000D02*
D03*
X481700Y141600D02*
D03*
X296391Y398031D02*
D03*
X517000Y175900D02*
D03*
X350700Y215800D02*
D03*
X334200Y216000D02*
D03*
X417500Y399000D02*
D03*
D69*
X229500Y423500D02*
D03*
M02*
