M48
;Layer_Color=9474304
;FILE_FORMAT=2:5
INCH,LZ
;TYPE=PLATED
T01F00S00C0.01968
T02F00S00C0.02756
T03F00S00C0.03543
T04F00S00C0.03937
T05F00S00C0.04724
T06F00S00C0.05906
T07F00S00C0.43307
%
T01
X02445Y01305
X02605Y012
X02705
X028053Y0150423
X03005Y0137823
X03221Y01373
X0327Y01432
X03788Y01558
X03831Y01307
X03836Y01228
X04817Y01416
X04757Y0195
X0517Y01759
X05249Y01726
X05325Y0166
X05361Y0223
X05069Y02724
X04895Y02865
X04655Y0241
X0420601Y0185642
X03617Y01681
X03507Y02158
X03342Y0216
X03611Y02487
X03685Y02479
X0416Y0308
X0295404Y0302
X03024Y02145
X02705Y0167
X02605Y0171
X02505Y0175
X0198362Y0329563
X021178Y0350588
X0296391Y0398031
X0308Y0444
X0317469Y0458
X0346Y0468
X0378Y0418
X03655Y0378
X03585Y03775
X03555Y0387
X0353Y0358
X03725Y03495
X0382Y03315
X0423Y0328
X0427302Y033802
X04135Y0318
X0466Y0338
X04525Y0433
X04245Y0435532
X04175Y0399
X04935Y0376
X0522Y0428041
X03745Y04695
T02
X0533441Y0235288
Y0241981
T03
X0482Y02104
X0492
X0502
X0512
X0522
X0532
X0286305Y0214505
X0268588
Y0240095
X0286305
X0480457Y04765
X0490457
X0500457
X0510457
X0520457
X02435
X02335
X02235
X02135
X02035
T04
X02031Y0114
Y0124
X0212126Y0217458
Y02273
Y0237142
X0236561Y0261568
X0246404
X0256246
X028Y0412
Y0422
Y0432
X02965Y04345
Y04245
Y04145
X0441085Y0405977
X0451085
X0461085
X0461815Y0364
X0451815
X0441815
X0425Y03625
Y03725
Y03825
X0471815Y0364
X0471085Y0405977
X04539Y04766
X04439
X04339
X04239
X0301391Y04765
X0291391
X0281391
X0271391
T05
X0226693Y0202415
X0266063
Y0252218
X0226693
T06
X0200893Y0144381
X02195Y01445
X0503831
X0521625Y0144552
T07
X02295Y04235
M30
