G04*
G04 #@! TF.GenerationSoftware,Altium Limited,Altium Designer,25.6.2 (33)*
G04*
G04 Layer_Color=8421504*
%FSLAX25Y25*%
%MOIN*%
G70*
G04*
G04 #@! TF.SameCoordinates,33421173-23DC-421C-8ACE-01F160C91051*
G04*
G04*
G04 #@! TF.FilePolarity,Positive*
G04*
G01*
G75*
%ADD23R,0.09449X0.09449*%
%ADD24R,0.03543X0.16535*%
%ADD25R,0.02559X0.03150*%
G04:AMPARAMS|DCode=26|XSize=53.49mil|YSize=23.1mil|CornerRadius=11.55mil|HoleSize=0mil|Usage=FLASHONLY|Rotation=270.000|XOffset=0mil|YOffset=0mil|HoleType=Round|Shape=RoundedRectangle|*
%AMROUNDEDRECTD26*
21,1,0.05349,0.00000,0,0,270.0*
21,1,0.03039,0.02310,0,0,270.0*
1,1,0.02310,0.00000,-0.01519*
1,1,0.02310,0.00000,0.01519*
1,1,0.02310,0.00000,0.01519*
1,1,0.02310,0.00000,-0.01519*
%
%ADD26ROUNDEDRECTD26*%
G04:AMPARAMS|DCode=27|XSize=35.43mil|YSize=57.09mil|CornerRadius=1.95mil|HoleSize=0mil|Usage=FLASHONLY|Rotation=180.000|XOffset=0mil|YOffset=0mil|HoleType=Round|Shape=RoundedRectangle|*
%AMROUNDEDRECTD27*
21,1,0.03543,0.05319,0,0,180.0*
21,1,0.03154,0.05709,0,0,180.0*
1,1,0.00390,-0.01577,0.02659*
1,1,0.00390,0.01577,0.02659*
1,1,0.00390,0.01577,-0.02659*
1,1,0.00390,-0.01577,-0.02659*
%
%ADD27ROUNDEDRECTD27*%
%ADD28R,0.03937X0.13779*%
%ADD29R,0.02894X0.03394*%
%ADD30R,0.03394X0.02894*%
%ADD31R,0.05118X0.09843*%
%ADD32O,0.01102X0.06378*%
%ADD33R,0.02310X0.05349*%
G04:AMPARAMS|DCode=34|XSize=31.5mil|YSize=37.4mil|CornerRadius=3.94mil|HoleSize=0mil|Usage=FLASHONLY|Rotation=90.000|XOffset=0mil|YOffset=0mil|HoleType=Round|Shape=RoundedRectangle|*
%AMROUNDEDRECTD34*
21,1,0.03150,0.02953,0,0,90.0*
21,1,0.02362,0.03740,0,0,90.0*
1,1,0.00787,0.01476,0.01181*
1,1,0.00787,0.01476,-0.01181*
1,1,0.00787,-0.01476,-0.01181*
1,1,0.00787,-0.01476,0.01181*
%
%ADD34ROUNDEDRECTD34*%
%ADD35R,0.03150X0.03543*%
%ADD36R,0.09055X0.05906*%
%ADD37R,0.04331X0.06398*%
%ADD38R,0.04724X0.03937*%
%ADD39R,0.02756X0.03543*%
%ADD40R,0.04724X0.02362*%
G04:AMPARAMS|DCode=41|XSize=124.02mil|YSize=57.09mil|CornerRadius=2mil|HoleSize=0mil|Usage=FLASHONLY|Rotation=180.000|XOffset=0mil|YOffset=0mil|HoleType=Round|Shape=RoundedRectangle|*
%AMROUNDEDRECTD41*
21,1,0.12402,0.05309,0,0,180.0*
21,1,0.12002,0.05709,0,0,180.0*
1,1,0.00400,-0.06001,0.02655*
1,1,0.00400,0.06001,0.02655*
1,1,0.00400,0.06001,-0.02655*
1,1,0.00400,-0.06001,-0.02655*
%
%ADD41ROUNDEDRECTD41*%
%ADD42R,0.15748X0.07087*%
G36*
X263451Y377728D02*
Y375838D01*
X263254Y375563D01*
X261482D01*
X261286Y375838D01*
Y377728D01*
X261482Y377925D01*
X263254D01*
X263451Y377728D01*
D02*
G37*
G36*
X255451D02*
Y375838D01*
X255254Y375563D01*
X253482D01*
X253286Y375838D01*
Y377728D01*
X253482Y377925D01*
X255254D01*
X255451Y377728D01*
D02*
G37*
G36*
X243951D02*
Y375838D01*
X243754Y375563D01*
X241982D01*
X241786Y375838D01*
Y377728D01*
X241982Y377925D01*
X243754D01*
X243951Y377728D01*
D02*
G37*
G36*
X236951D02*
Y375838D01*
X236754Y375563D01*
X234982D01*
X234786Y375838D01*
Y377728D01*
X234982Y377925D01*
X236754D01*
X236951Y377728D01*
D02*
G37*
G36*
X224451D02*
Y375838D01*
X224254Y375563D01*
X222482D01*
X222286Y375838D01*
Y377728D01*
X222482Y377925D01*
X224254D01*
X224451Y377728D01*
D02*
G37*
G36*
X215951D02*
Y375838D01*
X215754Y375563D01*
X213982D01*
X213786Y375838D01*
Y377728D01*
X213982Y377925D01*
X215754D01*
X215951Y377728D01*
D02*
G37*
G36*
X203451D02*
Y375838D01*
X203254Y375563D01*
X201482D01*
X201286Y375838D01*
Y377728D01*
X201482Y377925D01*
X203254D01*
X203451Y377728D01*
D02*
G37*
G36*
X293951Y377520D02*
Y375630D01*
X293754Y375355D01*
X291982D01*
X291786Y375630D01*
Y377520D01*
X291982Y377717D01*
X293754D01*
X293951Y377520D01*
D02*
G37*
G36*
X282951D02*
Y375630D01*
X282754Y375355D01*
X280982D01*
X280786Y375630D01*
Y377520D01*
X280982Y377717D01*
X282754D01*
X282951Y377520D01*
D02*
G37*
G36*
X274451D02*
Y375630D01*
X274254Y375355D01*
X272482D01*
X272286Y375630D01*
Y377520D01*
X272482Y377717D01*
X274254D01*
X274451Y377520D01*
D02*
G37*
G36*
X263451Y373870D02*
Y371980D01*
X263254Y371783D01*
X261482D01*
X261286Y371980D01*
Y373870D01*
X261482Y374145D01*
X263254D01*
X263451Y373870D01*
D02*
G37*
G36*
X255451D02*
Y371980D01*
X255254Y371783D01*
X253482D01*
X253286Y371980D01*
Y373870D01*
X253482Y374145D01*
X255254D01*
X255451Y373870D01*
D02*
G37*
G36*
X243951D02*
Y371980D01*
X243754Y371783D01*
X241982D01*
X241786Y371980D01*
Y373870D01*
X241982Y374145D01*
X243754D01*
X243951Y373870D01*
D02*
G37*
G36*
X236951D02*
Y371980D01*
X236754Y371783D01*
X234982D01*
X234786Y371980D01*
Y373870D01*
X234982Y374145D01*
X236754D01*
X236951Y373870D01*
D02*
G37*
G36*
X224451D02*
Y371980D01*
X224254Y371783D01*
X222482D01*
X222286Y371980D01*
Y373870D01*
X222482Y374145D01*
X224254D01*
X224451Y373870D01*
D02*
G37*
G36*
X215951D02*
Y371980D01*
X215754Y371783D01*
X213982D01*
X213786Y371980D01*
Y373870D01*
X213982Y374145D01*
X215754D01*
X215951Y373870D01*
D02*
G37*
G36*
X203451D02*
Y371980D01*
X203254Y371783D01*
X201482D01*
X201286Y371980D01*
Y373870D01*
X201482Y374145D01*
X203254D01*
X203451Y373870D01*
D02*
G37*
G36*
X293951Y373662D02*
Y371772D01*
X293754Y371575D01*
X291982D01*
X291786Y371772D01*
Y373662D01*
X291982Y373937D01*
X293754D01*
X293951Y373662D01*
D02*
G37*
G36*
X282951D02*
Y371772D01*
X282754Y371575D01*
X280982D01*
X280786Y371772D01*
Y373662D01*
X280982Y373937D01*
X282754D01*
X282951Y373662D01*
D02*
G37*
G36*
X274451D02*
Y371772D01*
X274254Y371575D01*
X272482D01*
X272286Y371772D01*
Y373662D01*
X272482Y373937D01*
X274254D01*
X274451Y373662D01*
D02*
G37*
G36*
X293201Y335270D02*
Y333380D01*
X293004Y333105D01*
X291232D01*
X291036Y333380D01*
Y335270D01*
X291232Y335467D01*
X293004D01*
X293201Y335270D01*
D02*
G37*
G36*
X223451Y335228D02*
Y333338D01*
X223254Y333063D01*
X221482D01*
X221286Y333338D01*
Y335228D01*
X221482Y335425D01*
X223254D01*
X223451Y335228D01*
D02*
G37*
G36*
X216451Y335083D02*
Y333193D01*
X216254Y332918D01*
X214482D01*
X214286Y333193D01*
Y335083D01*
X214482Y335280D01*
X216254D01*
X216451Y335083D01*
D02*
G37*
G36*
X282451Y335020D02*
Y333130D01*
X282254Y332855D01*
X280482D01*
X280286Y333130D01*
Y335020D01*
X280482Y335217D01*
X282254D01*
X282451Y335020D01*
D02*
G37*
G36*
X275888D02*
Y333130D01*
X275691Y332855D01*
X273919D01*
X273723Y333130D01*
Y335020D01*
X273919Y335217D01*
X275691D01*
X275888Y335020D01*
D02*
G37*
G36*
X261388D02*
Y333130D01*
X261191Y332855D01*
X259419D01*
X259223Y333130D01*
Y335020D01*
X259419Y335217D01*
X261191D01*
X261388Y335020D01*
D02*
G37*
G36*
X255451D02*
Y333130D01*
X255254Y332855D01*
X253482D01*
X253286Y333130D01*
Y335020D01*
X253482Y335217D01*
X255254D01*
X255451Y335020D01*
D02*
G37*
G36*
X243451D02*
Y333130D01*
X243254Y332855D01*
X241482D01*
X241286Y333130D01*
Y335020D01*
X241482Y335217D01*
X243254D01*
X243451Y335020D01*
D02*
G37*
G36*
X237451D02*
Y333130D01*
X237254Y332855D01*
X235482D01*
X235286Y333130D01*
Y335020D01*
X235482Y335217D01*
X237254D01*
X237451Y335020D01*
D02*
G37*
G36*
X204451Y334728D02*
Y332838D01*
X204254Y332563D01*
X202482D01*
X202286Y332838D01*
Y334728D01*
X202482Y334925D01*
X204254D01*
X204451Y334728D01*
D02*
G37*
G36*
X293201Y331412D02*
Y329522D01*
X293004Y329325D01*
X291232D01*
X291036Y329522D01*
Y331412D01*
X291232Y331687D01*
X293004D01*
X293201Y331412D01*
D02*
G37*
G36*
X223451Y331370D02*
Y329480D01*
X223254Y329283D01*
X221482D01*
X221286Y329480D01*
Y331370D01*
X221482Y331645D01*
X223254D01*
X223451Y331370D01*
D02*
G37*
G36*
X216451Y331225D02*
Y329335D01*
X216254Y329138D01*
X214482D01*
X214286Y329335D01*
Y331225D01*
X214482Y331500D01*
X216254D01*
X216451Y331225D01*
D02*
G37*
G36*
X282451Y331162D02*
Y329272D01*
X282254Y329075D01*
X280482D01*
X280286Y329272D01*
Y331162D01*
X280482Y331437D01*
X282254D01*
X282451Y331162D01*
D02*
G37*
G36*
X275888D02*
Y329272D01*
X275691Y329075D01*
X273919D01*
X273723Y329272D01*
Y331162D01*
X273919Y331437D01*
X275691D01*
X275888Y331162D01*
D02*
G37*
G36*
X261388D02*
Y329272D01*
X261191Y329075D01*
X259419D01*
X259223Y329272D01*
Y331162D01*
X259419Y331437D01*
X261191D01*
X261388Y331162D01*
D02*
G37*
G36*
X255451D02*
Y329272D01*
X255254Y329075D01*
X253482D01*
X253286Y329272D01*
Y331162D01*
X253482Y331437D01*
X255254D01*
X255451Y331162D01*
D02*
G37*
G36*
X243451D02*
Y329272D01*
X243254Y329075D01*
X241482D01*
X241286Y329272D01*
Y331162D01*
X241482Y331437D01*
X243254D01*
X243451Y331162D01*
D02*
G37*
G36*
X237451D02*
Y329272D01*
X237254Y329075D01*
X235482D01*
X235286Y329272D01*
Y331162D01*
X235482Y331437D01*
X237254D01*
X237451Y331162D01*
D02*
G37*
G36*
X204451Y330870D02*
Y328980D01*
X204254Y328783D01*
X202482D01*
X202286Y328980D01*
Y330870D01*
X202482Y331145D01*
X204254D01*
X204451Y330870D01*
D02*
G37*
G36*
X289384Y287899D02*
Y286128D01*
X289187Y285931D01*
X287297D01*
X287022Y286128D01*
Y287899D01*
X287297Y288096D01*
X289187D01*
X289384Y287899D01*
D02*
G37*
G36*
X285604D02*
Y286128D01*
X285329Y285931D01*
X283439D01*
X283242Y286128D01*
Y287899D01*
X283439Y288096D01*
X285329D01*
X285604Y287899D01*
D02*
G37*
G36*
X271085D02*
Y286128D01*
X270888Y285931D01*
X268999D01*
X268723Y286128D01*
Y287899D01*
X268999Y288096D01*
X270888D01*
X271085Y287899D01*
D02*
G37*
G36*
X267305D02*
Y286128D01*
X267030Y285931D01*
X265140D01*
X264943Y286128D01*
Y287899D01*
X265140Y288096D01*
X267030D01*
X267305Y287899D01*
D02*
G37*
G36*
X251884D02*
Y286128D01*
X251687Y285931D01*
X249797D01*
X249522Y286128D01*
Y287899D01*
X249797Y288096D01*
X251687D01*
X251884Y287899D01*
D02*
G37*
G36*
X248104D02*
Y286128D01*
X247829Y285931D01*
X245939D01*
X245742Y286128D01*
Y287899D01*
X245939Y288096D01*
X247829D01*
X248104Y287899D01*
D02*
G37*
G36*
X231884D02*
Y286128D01*
X231687Y285931D01*
X229797D01*
X229522Y286128D01*
Y287899D01*
X229797Y288096D01*
X231687D01*
X231884Y287899D01*
D02*
G37*
G36*
X228104D02*
Y286128D01*
X227829Y285931D01*
X225939D01*
X225742Y286128D01*
Y287899D01*
X225939Y288096D01*
X227829D01*
X228104Y287899D01*
D02*
G37*
G36*
X213384D02*
Y286128D01*
X213187Y285931D01*
X211297D01*
X211022Y286128D01*
Y287899D01*
X211297Y288096D01*
X213187D01*
X213384Y287899D01*
D02*
G37*
G36*
X209604D02*
Y286128D01*
X209329Y285931D01*
X207439D01*
X207242Y286128D01*
Y287899D01*
X207439Y288096D01*
X209329D01*
X209604Y287899D01*
D02*
G37*
G36*
X538362Y245031D02*
X533638D01*
Y248969D01*
X538362D01*
Y245031D01*
D02*
G37*
D23*
X472008Y454067D02*
D03*
X500352Y454066D02*
D03*
X500353Y425721D02*
D03*
X472008D02*
D03*
D24*
X310564Y130553D02*
D03*
X250564D02*
D03*
X300565D02*
D03*
X250564Y158112D02*
D03*
X290564Y130553D02*
D03*
X260564D02*
D03*
X280564D02*
D03*
X270564D02*
D03*
X280564Y158112D02*
D03*
X310564D02*
D03*
X270564D02*
D03*
X290565D02*
D03*
X260564D02*
D03*
X300564D02*
D03*
D25*
X227433Y388176D02*
D03*
X285416Y388141D02*
D03*
X246560Y388103D02*
D03*
X266060D02*
D03*
X207933Y388176D02*
D03*
X269236Y359887D02*
D03*
X285416Y344833D02*
D03*
X266048Y344840D02*
D03*
X288737Y359887D02*
D03*
Y317887D02*
D03*
X249842Y359981D02*
D03*
X246756Y344840D02*
D03*
X208193Y344734D02*
D03*
X227542Y302077D02*
D03*
X231107Y317779D02*
D03*
X211780Y359981D02*
D03*
X227465Y344840D02*
D03*
X231280Y359981D02*
D03*
X208250Y302077D02*
D03*
X211815Y317779D02*
D03*
X269689D02*
D03*
X250398D02*
D03*
X246833Y302077D02*
D03*
X285416D02*
D03*
X266125D02*
D03*
X288959D02*
D03*
X269668Y296170D02*
D03*
X288959D02*
D03*
X250377D02*
D03*
X246855Y323686D02*
D03*
X266146D02*
D03*
X208272D02*
D03*
X211794Y296170D02*
D03*
X227736Y365887D02*
D03*
X231008Y338934D02*
D03*
X208237Y365887D02*
D03*
X227563Y323686D02*
D03*
X231085Y296170D02*
D03*
X211736Y338828D02*
D03*
X250300Y338934D02*
D03*
X246299Y365887D02*
D03*
X285193Y323793D02*
D03*
Y365793D02*
D03*
X269591Y338934D02*
D03*
X288959Y338927D02*
D03*
X265693Y365793D02*
D03*
X211476Y382271D02*
D03*
X269603Y382197D02*
D03*
X250103D02*
D03*
X288959Y382235D02*
D03*
X230976Y382271D02*
D03*
X227433D02*
D03*
X230976Y388176D02*
D03*
X285416Y382235D02*
D03*
X288959Y388141D02*
D03*
X246560Y382197D02*
D03*
X250103Y388103D02*
D03*
X266060Y382197D02*
D03*
X269603Y388103D02*
D03*
X207933Y382271D02*
D03*
X211476Y388176D02*
D03*
X265693Y359887D02*
D03*
X269236Y365793D02*
D03*
X285416Y338927D02*
D03*
X288959Y344833D02*
D03*
X266048Y338934D02*
D03*
X269591Y344840D02*
D03*
X288737Y365793D02*
D03*
X285193Y359887D02*
D03*
X288737Y323793D02*
D03*
X285193Y317887D02*
D03*
X249842Y365887D02*
D03*
X246299Y359981D02*
D03*
X246756Y338934D02*
D03*
X250300Y344840D02*
D03*
X208193Y338828D02*
D03*
X211736Y344734D02*
D03*
X227542Y296170D02*
D03*
X231085Y302077D02*
D03*
X231107Y323686D02*
D03*
X227563Y317779D02*
D03*
X211780Y365887D02*
D03*
X208237Y359981D02*
D03*
X227465Y338934D02*
D03*
X231008Y344840D02*
D03*
X231280Y365887D02*
D03*
X227736Y359981D02*
D03*
X208250Y296170D02*
D03*
X211794Y302077D02*
D03*
X211815Y323686D02*
D03*
X208272Y317779D02*
D03*
X269689Y323686D02*
D03*
X266146Y317779D02*
D03*
X250398Y323686D02*
D03*
X246855Y317779D02*
D03*
X246833Y296170D02*
D03*
X250377Y302077D02*
D03*
X285416Y296170D02*
D03*
X266125D02*
D03*
X269668Y302077D02*
D03*
D26*
X492398Y272649D02*
D03*
X503000Y181651D02*
D03*
X496000Y265352D02*
D03*
X517159Y181494D02*
D03*
X499398Y188949D02*
D03*
X513557Y188791D02*
D03*
D27*
X370055Y182983D02*
D03*
X351945D02*
D03*
X361000D02*
D03*
D28*
X393500Y204792D02*
D03*
X326500Y185090D02*
D03*
X393500D02*
D03*
X326500Y204792D02*
D03*
D29*
X442423Y417327D02*
D03*
X501977Y196300D02*
D03*
X525623Y195900D02*
D03*
X492577Y245500D02*
D03*
X520777Y195900D02*
D03*
X506823Y196300D02*
D03*
X497423Y245500D02*
D03*
X437577Y417327D02*
D03*
D30*
X448500Y152923D02*
D03*
X371300Y127823D02*
D03*
X455000Y152923D02*
D03*
X461500D02*
D03*
X364600Y127823D02*
D03*
Y122977D02*
D03*
X371300D02*
D03*
X358000Y127846D02*
D03*
Y123000D02*
D03*
X455000Y148077D02*
D03*
X448500D02*
D03*
X461500D02*
D03*
D31*
X510500Y108000D02*
D03*
Y165937D02*
D03*
X465500Y224437D02*
D03*
Y166500D02*
D03*
X490815Y165937D02*
D03*
Y108000D02*
D03*
X445815Y224437D02*
D03*
Y166500D02*
D03*
X400815Y165937D02*
D03*
Y108000D02*
D03*
X420500Y165937D02*
D03*
Y108000D02*
D03*
D32*
X369337Y138486D02*
D03*
X367369Y155100D02*
D03*
Y138486D02*
D03*
X369337Y155100D02*
D03*
X365400D02*
D03*
X363432D02*
D03*
X361463D02*
D03*
X365400Y138486D02*
D03*
X363432D02*
D03*
X361463D02*
D03*
D33*
X499602Y272649D02*
D03*
X520761Y188791D02*
D03*
X506602Y188949D02*
D03*
D34*
X378800Y150396D02*
D03*
Y143900D02*
D03*
D35*
X443740Y424453D02*
D03*
X440000Y432327D02*
D03*
X436260Y424453D02*
D03*
D36*
X383826Y434783D02*
D03*
X348000Y434784D02*
D03*
Y452500D02*
D03*
X383826D02*
D03*
D37*
X461299Y122988D02*
D03*
X455000D02*
D03*
X448701D02*
D03*
X461299Y141000D02*
D03*
X455000D02*
D03*
X448701D02*
D03*
D38*
X536000Y230269D02*
D03*
D39*
X531000Y181863D02*
D03*
X527260Y189737D02*
D03*
X534740D02*
D03*
D40*
X528323Y231942D02*
D03*
Y245328D02*
D03*
D41*
X361000Y207196D02*
D03*
D42*
X487900Y200605D02*
D03*
Y176195D02*
D03*
M02*
