%TF.GenerationSoftware,KiCad,Pcbnew,(6.0.11)*%
%TF.CreationDate,2023-04-25T11:56:07-03:00*%
%TF.ProjectId,Placa Base Xplorer Raspberry pi pico V3A,506c6163-6120-4426-9173-652058706c6f,rev?*%
%TF.SameCoordinates,Original*%
%TF.FileFunction,Soldermask,Top*%
%TF.FilePolarity,Negative*%
%FSLAX46Y46*%
G04 Gerber Fmt 4.6, Leading zero omitted, Abs format (unit mm)*
G04 Created by KiCad (PCBNEW (6.0.11)) date 2023-04-25 11:56:07*
%MOMM*%
%LPD*%
G01*
G04 APERTURE LIST*
G04 Aperture macros list*
%AMRoundRect*
0 Rectangle with rounded corners*
0 $1 Rounding radius*
0 $2 $3 $4 $5 $6 $7 $8 $9 X,Y pos of 4 corners*
0 Add a 4 corners polygon primitive as box body*
4,1,4,$2,$3,$4,$5,$6,$7,$8,$9,$2,$3,0*
0 Add four circle primitives for the rounded corners*
1,1,$1+$1,$2,$3*
1,1,$1+$1,$4,$5*
1,1,$1+$1,$6,$7*
1,1,$1+$1,$8,$9*
0 Add four rect primitives between the rounded corners*
20,1,$1+$1,$2,$3,$4,$5,0*
20,1,$1+$1,$4,$5,$6,$7,0*
20,1,$1+$1,$6,$7,$8,$9,0*
20,1,$1+$1,$8,$9,$2,$3,0*%
%AMOutline4P*
0 Free polygon, 4 corners , with rotation*
0 The origin of the aperture is its center*
0 number of corners: always 4*
0 $1 to $8 corner X, Y*
0 $9 Rotation angle, in degrees counterclockwise*
0 create outline with 4 corners*
4,1,4,$1,$2,$3,$4,$5,$6,$7,$8,$1,$2,$9*%
G04 Aperture macros list end*
%ADD10C,0.200000*%
%ADD11O,1.700000X1.700000*%
%ADD12R,1.700000X1.700000*%
%ADD13R,8.000000X2.000000*%
%ADD14R,2.300000X2.300000*%
%ADD15R,1.300000X1.300000*%
%ADD16R,4.000000X4.000000*%
%ADD17O,4.000000X4.000000*%
%ADD18RoundRect,1.000000X1.000000X1.000000X-1.000000X1.000000X-1.000000X-1.000000X1.000000X-1.000000X0*%
%ADD19R,2.000000X1.905000*%
%ADD20O,2.000000X1.905000*%
%ADD21R,2.000000X2.000000*%
%ADD22C,2.000000*%
%ADD23RoundRect,0.250000X-0.625000X0.375000X-0.625000X-0.375000X0.625000X-0.375000X0.625000X0.375000X0*%
%ADD24C,1.300000*%
%ADD25R,3.000000X1.500000*%
%ADD26R,2.000000X1.500000*%
%ADD27R,2.000000X3.800000*%
%ADD28RoundRect,0.425000X0.425000X0.425000X-0.425000X0.425000X-0.425000X-0.425000X0.425000X-0.425000X0*%
%ADD29R,1.800000X1.800000*%
%ADD30RoundRect,0.250000X-0.600000X0.600000X-0.600000X-0.600000X0.600000X-0.600000X0.600000X0.600000X0*%
%ADD31C,1.700000*%
%ADD32R,2.000000X1.100000*%
%ADD33RoundRect,0.250000X-0.550000X1.250000X-0.550000X-1.250000X0.550000X-1.250000X0.550000X1.250000X0*%
%ADD34Outline4P,-0.850000X-0.850000X0.850000X-0.850000X0.850000X0.850000X-0.850000X0.850000X180.000000*%
%ADD35C,3.100000*%
%ADD36R,2.800000X2.800000*%
%ADD37O,2.800000X2.800000*%
%ADD38RoundRect,0.250000X0.550000X-1.250000X0.550000X1.250000X-0.550000X1.250000X-0.550000X-1.250000X0*%
%ADD39C,1.000000*%
%ADD40R,3.500000X3.500000*%
%ADD41C,3.500000*%
G04 APERTURE END LIST*
D10*
X167360600Y-77927200D02*
X165023800Y-77927200D01*
X165023800Y-77927200D02*
X165023800Y-75590400D01*
X165023800Y-75590400D02*
X167360600Y-75590400D01*
X167360600Y-75590400D02*
X167360600Y-77927200D01*
G36*
X167360600Y-77927200D02*
G01*
X165023800Y-77927200D01*
X165023800Y-75590400D01*
X167360600Y-75590400D01*
X167360600Y-77927200D01*
G37*
X160299400Y-77927200D02*
X157962600Y-77927200D01*
X157962600Y-77927200D02*
X157962600Y-75590400D01*
X157962600Y-75590400D02*
X160299400Y-75590400D01*
X160299400Y-75590400D02*
X160299400Y-77927200D01*
G36*
X160299400Y-77927200D02*
G01*
X157962600Y-77927200D01*
X157962600Y-75590400D01*
X160299400Y-75590400D01*
X160299400Y-77927200D01*
G37*
X105968800Y-70815200D02*
X103632000Y-70815200D01*
X103632000Y-70815200D02*
X103632000Y-68478400D01*
X103632000Y-68478400D02*
X105968800Y-68478400D01*
X105968800Y-68478400D02*
X105968800Y-70815200D01*
G36*
X105968800Y-70815200D02*
G01*
X103632000Y-70815200D01*
X103632000Y-68478400D01*
X105968800Y-68478400D01*
X105968800Y-70815200D01*
G37*
X98907600Y-77927200D02*
X96570800Y-77927200D01*
X96570800Y-77927200D02*
X96570800Y-75590400D01*
X96570800Y-75590400D02*
X98907600Y-75590400D01*
X98907600Y-75590400D02*
X98907600Y-77927200D01*
G36*
X98907600Y-77927200D02*
G01*
X96570800Y-77927200D01*
X96570800Y-75590400D01*
X98907600Y-75590400D01*
X98907600Y-77927200D01*
G37*
X167360600Y-70815200D02*
X165023800Y-70815200D01*
X165023800Y-70815200D02*
X165023800Y-68478400D01*
X165023800Y-68478400D02*
X167360600Y-68478400D01*
X167360600Y-68478400D02*
X167360600Y-70815200D01*
G36*
X167360600Y-70815200D02*
G01*
X165023800Y-70815200D01*
X165023800Y-68478400D01*
X167360600Y-68478400D01*
X167360600Y-70815200D01*
G37*
X98907600Y-70815200D02*
X96570800Y-70815200D01*
X96570800Y-70815200D02*
X96570800Y-68478400D01*
X96570800Y-68478400D02*
X98907600Y-68478400D01*
X98907600Y-68478400D02*
X98907600Y-70815200D01*
G36*
X98907600Y-70815200D02*
G01*
X96570800Y-70815200D01*
X96570800Y-68478400D01*
X98907600Y-68478400D01*
X98907600Y-70815200D01*
G37*
X160299400Y-70815200D02*
X157962600Y-70815200D01*
X157962600Y-70815200D02*
X157962600Y-68478400D01*
X157962600Y-68478400D02*
X160299400Y-68478400D01*
X160299400Y-68478400D02*
X160299400Y-70815200D01*
G36*
X160299400Y-70815200D02*
G01*
X157962600Y-70815200D01*
X157962600Y-68478400D01*
X160299400Y-68478400D01*
X160299400Y-70815200D01*
G37*
X105968800Y-77927200D02*
X103632000Y-77927200D01*
X103632000Y-77927200D02*
X103632000Y-75590400D01*
X103632000Y-75590400D02*
X105968800Y-75590400D01*
X105968800Y-75590400D02*
X105968800Y-77927200D01*
G36*
X105968800Y-77927200D02*
G01*
X103632000Y-77927200D01*
X103632000Y-75590400D01*
X105968800Y-75590400D01*
X105968800Y-77927200D01*
G37*
D11*
%TO.C,*%
X92456000Y-64363600D03*
%TD*%
D12*
%TO.C,*%
X107950000Y-60960000D03*
%TD*%
D13*
%TO.C,*%
X152770000Y-83820000D03*
%TD*%
D14*
%TO.C,*%
X159232600Y-76708000D03*
%TD*%
D15*
%TO.C,*%
X162665079Y-82154371D03*
%TD*%
D16*
%TO.C,*%
X112324444Y-42454018D03*
%TD*%
D17*
%TO.C,*%
X96520000Y-42454018D03*
%TD*%
D18*
%TO.C,*%
X128128888Y-37374018D03*
%TD*%
D11*
%TO.C,*%
X157480000Y-60960000D03*
%TD*%
D12*
%TO.C,*%
X152400000Y-60960000D03*
%TD*%
D11*
%TO.C,*%
X108204000Y-111506000D03*
%TD*%
D19*
%TO.C,Reg 3.3V*%
X159854024Y-135462894D03*
D20*
X159854024Y-138002894D03*
X159854024Y-140542894D03*
%TD*%
D21*
%TO.C,REF\u002A\u002A*%
X101295200Y-69545200D03*
D22*
X101295200Y-77145200D03*
%TD*%
%TO.C,A*%
X97080000Y-91730000D03*
X103580000Y-91730000D03*
X97080000Y-96230000D03*
X103580000Y-96230000D03*
%TD*%
D23*
%TO.C,REF\u002A\u002A*%
X89408000Y-67891200D03*
X89408000Y-70691200D03*
%TD*%
D24*
%TO.C,*%
X128270000Y-78740000D03*
%TD*%
%TO.C,*%
X144890000Y-127727400D03*
%TD*%
D14*
%TO.C,*%
X104749600Y-76708000D03*
%TD*%
D22*
%TO.C,B*%
X166520000Y-91730000D03*
X160020000Y-91730000D03*
X160020000Y-96230000D03*
X166520000Y-96230000D03*
%TD*%
D11*
%TO.C,*%
X161290000Y-109220000D03*
%TD*%
%TO.C,*%
X102092575Y-116078000D03*
%TD*%
%TO.C,*%
X107172575Y-116078000D03*
%TD*%
D14*
%TO.C,*%
X104749600Y-69697600D03*
%TD*%
D17*
%TO.C,*%
X120226666Y-42454018D03*
%TD*%
D11*
%TO.C,*%
X110490000Y-60960000D03*
%TD*%
D25*
%TO.C,UA7803*%
X163570000Y-142000000D03*
D26*
X163170000Y-139700000D03*
D25*
X163570000Y-137400000D03*
D27*
X156870000Y-139700000D03*
%TD*%
D17*
%TO.C,*%
X120226666Y-37374018D03*
%TD*%
D24*
%TO.C,*%
X128270000Y-76200000D03*
%TD*%
D17*
%TO.C,*%
X167640000Y-37374018D03*
%TD*%
%TO.C,*%
X151835554Y-42454018D03*
%TD*%
D24*
%TO.C,*%
X132080000Y-71120000D03*
%TD*%
D11*
%TO.C,*%
X154940000Y-52224597D03*
%TD*%
D28*
%TO.C,*%
X113030000Y-60960000D03*
%TD*%
D11*
%TO.C,*%
X142000000Y-115800000D03*
%TD*%
D29*
%TO.C,*%
X91462000Y-133274400D03*
%TD*%
D12*
%TO.C,*%
X132190000Y-129625000D03*
%TD*%
D24*
%TO.C,*%
X156210000Y-67310000D03*
%TD*%
D11*
%TO.C,*%
X102870000Y-52224597D03*
%TD*%
D30*
%TO.C,REF\u002A\u002A*%
X141080000Y-141660000D03*
D31*
X138540000Y-141660000D03*
X138540000Y-144200000D03*
X136000000Y-141660000D03*
X141080000Y-144200000D03*
X136000000Y-144200000D03*
D12*
X133460000Y-141660000D03*
D31*
X133460000Y-144200000D03*
X130920000Y-141660000D03*
D12*
X130920000Y-144200000D03*
D31*
X128380000Y-141660000D03*
X128380000Y-144200000D03*
D12*
X125840000Y-141660000D03*
D31*
X125840000Y-144200000D03*
%TD*%
D11*
%TO.C,*%
X102870000Y-60960000D03*
%TD*%
D24*
%TO.C,*%
X132080000Y-73660000D03*
%TD*%
D11*
%TO.C,*%
X105410000Y-60960000D03*
%TD*%
D29*
%TO.C,*%
X114474400Y-130734400D03*
%TD*%
D14*
%TO.C,*%
X166141400Y-69697600D03*
%TD*%
D29*
%TO.C,*%
X114474400Y-133274400D03*
%TD*%
D11*
%TO.C,*%
X132190000Y-134705000D03*
%TD*%
%TO.C,*%
X132190000Y-132165000D03*
%TD*%
D12*
%TO.C,*%
X152400000Y-52224597D03*
%TD*%
D29*
%TO.C,*%
X114474400Y-119304400D03*
%TD*%
D24*
%TO.C,*%
X109220000Y-67187162D03*
%TD*%
D13*
%TO.C,*%
X152770000Y-88900000D03*
%TD*%
D11*
%TO.C,*%
X108204000Y-101346000D03*
%TD*%
D21*
%TO.C,REF\u002A\u002A*%
X162712400Y-69392800D03*
D22*
X162712400Y-76992800D03*
%TD*%
D15*
%TO.C,*%
X111760000Y-109931200D03*
%TD*%
D14*
%TO.C,*%
X97840800Y-76708000D03*
%TD*%
D24*
%TO.C,*%
X132080000Y-76200000D03*
%TD*%
D17*
%TO.C,*%
X159737776Y-42454018D03*
%TD*%
D11*
%TO.C,*%
X157480000Y-52224597D03*
%TD*%
D32*
%TO.C,LED*%
X129790000Y-129195000D03*
X129790000Y-130895000D03*
X129790000Y-132595000D03*
X134590000Y-132595000D03*
X134590000Y-130895000D03*
X134590000Y-129195000D03*
%TD*%
D17*
%TO.C,*%
X151835554Y-37374018D03*
%TD*%
D11*
%TO.C,*%
X99552575Y-116078000D03*
%TD*%
%TO.C,*%
X132151341Y-127076852D03*
%TD*%
%TO.C,*%
X101600000Y-102870000D03*
%TD*%
%TO.C,*%
X162560000Y-52224597D03*
%TD*%
D14*
%TO.C,*%
X166141400Y-76708000D03*
%TD*%
D24*
%TO.C,*%
X162665079Y-84694371D03*
%TD*%
D14*
%TO.C,*%
X97790000Y-69646800D03*
%TD*%
D24*
%TO.C,*%
X100300789Y-40610804D03*
%TD*%
D33*
%TO.C,REF\u002A\u002A*%
X151130000Y-136650917D03*
X151130000Y-141050917D03*
%TD*%
D29*
%TO.C,*%
X114474400Y-121844400D03*
%TD*%
D11*
%TO.C,*%
X105410000Y-52224597D03*
%TD*%
D15*
%TO.C,*%
X156619416Y-100800000D03*
%TD*%
D34*
%TO.C,*%
X107950000Y-52224597D03*
%TD*%
D35*
%TO.C,*%
X94402372Y-150769271D03*
%TD*%
D17*
%TO.C,*%
X143933332Y-37374018D03*
%TD*%
D15*
%TO.C,*%
X91030584Y-43180000D03*
%TD*%
D24*
%TO.C,*%
X139810000Y-127727400D03*
%TD*%
D11*
%TO.C,*%
X154940000Y-60960000D03*
%TD*%
D12*
%TO.C,*%
X156210000Y-109220000D03*
%TD*%
D24*
%TO.C,*%
X139810000Y-134077400D03*
%TD*%
D17*
%TO.C,*%
X104422222Y-37374018D03*
%TD*%
D11*
%TO.C,*%
X160020000Y-52224597D03*
%TD*%
D29*
%TO.C,*%
X91462000Y-119304400D03*
%TD*%
D11*
%TO.C,*%
X158750000Y-109220000D03*
%TD*%
D16*
%TO.C,*%
X112324444Y-37374018D03*
%TD*%
D24*
%TO.C,*%
X91030584Y-40640000D03*
%TD*%
D11*
%TO.C,*%
X110490000Y-52224597D03*
%TD*%
D17*
%TO.C,*%
X167640000Y-42454018D03*
%TD*%
%TO.C,*%
X143933332Y-42454018D03*
%TD*%
D12*
%TO.C,*%
X108204000Y-108966000D03*
%TD*%
D24*
%TO.C,*%
X156619416Y-104049018D03*
%TD*%
D11*
%TO.C,*%
X162560000Y-60960000D03*
%TD*%
D12*
%TO.C,*%
X109712575Y-116078000D03*
%TD*%
D24*
%TO.C,*%
X142350000Y-134077400D03*
%TD*%
D35*
%TO.C,*%
X114392623Y-150736142D03*
%TD*%
%TO.C,*%
X94391300Y-124734248D03*
%TD*%
D11*
%TO.C,*%
X104632575Y-116078000D03*
%TD*%
D18*
%TO.C,*%
X136031110Y-37374018D03*
%TD*%
D14*
%TO.C,*%
X159181800Y-69646800D03*
%TD*%
D11*
%TO.C,*%
X146200000Y-117800000D03*
%TD*%
D24*
%TO.C,*%
X115570000Y-67187162D03*
%TD*%
D17*
%TO.C,*%
X104422222Y-42454018D03*
%TD*%
%TO.C,*%
X96520000Y-37374018D03*
%TD*%
D24*
%TO.C,*%
X128270000Y-81280000D03*
%TD*%
%TO.C,*%
X111760000Y-114046000D03*
%TD*%
D13*
%TO.C,*%
X152770000Y-86360000D03*
%TD*%
D11*
%TO.C,*%
X163830000Y-109220000D03*
%TD*%
D36*
%TO.C,REF\u002A\u002A*%
X92822800Y-67753288D03*
D37*
X92822800Y-72833288D03*
%TD*%
D38*
%TO.C,C*%
X171332846Y-64877584D03*
X171332846Y-60477584D03*
%TD*%
D28*
%TO.C,*%
X113030000Y-52224597D03*
%TD*%
D11*
%TO.C,*%
X101600000Y-105918000D03*
%TD*%
D13*
%TO.C,*%
X152770000Y-81280000D03*
%TD*%
D24*
%TO.C,*%
X149860000Y-67310000D03*
%TD*%
D11*
%TO.C,*%
X160020000Y-60960000D03*
%TD*%
D17*
%TO.C,*%
X159737776Y-37374018D03*
%TD*%
D24*
%TO.C,*%
X144890000Y-134077400D03*
%TD*%
D11*
%TO.C,*%
X108204000Y-103886000D03*
%TD*%
%TO.C,*%
X108204000Y-106426000D03*
%TD*%
D15*
%TO.C,*%
X100315386Y-43150773D03*
%TD*%
D35*
%TO.C,*%
X114392623Y-124734248D03*
%TD*%
D24*
%TO.C,*%
X142350000Y-127727400D03*
%TD*%
D38*
%TO.C,C*%
X168458792Y-141050917D03*
X168458792Y-136650917D03*
%TD*%
D12*
%TO.C,REF\u002A\u002A*%
X118564144Y-62255000D03*
D11*
X118564144Y-64795000D03*
D12*
X118564144Y-67335000D03*
D11*
X118564144Y-69875000D03*
X118564144Y-72415000D03*
X118564144Y-74955000D03*
X118564144Y-77495000D03*
D12*
X118564144Y-80035000D03*
D11*
X118564144Y-82575000D03*
X118564144Y-85115000D03*
X118564144Y-87655000D03*
X118564144Y-90195000D03*
D12*
X118564144Y-92735000D03*
D11*
X118564144Y-95275000D03*
X118564144Y-97815000D03*
X118564144Y-100355000D03*
X118564144Y-102895000D03*
D12*
X118564144Y-105435000D03*
D11*
X118564144Y-107975000D03*
X118564144Y-110515000D03*
%TD*%
D22*
%TO.C,reset*%
X108194133Y-87761331D03*
X114694133Y-87761331D03*
X108194133Y-92261331D03*
X114694133Y-92261331D03*
%TD*%
D39*
%TO.C,REF\u002A\u002A*%
X159282600Y-145745200D03*
D40*
X167927600Y-145745200D03*
D41*
X95927600Y-145745200D03*
%TD*%
D12*
%TO.C,REF\u002A\u002A*%
X145349303Y-62278730D03*
D11*
X145349303Y-64818730D03*
D12*
X145349303Y-67358730D03*
D11*
X145349303Y-69898730D03*
X145349303Y-72438730D03*
X145349303Y-74978730D03*
X145349303Y-77518730D03*
D12*
X145349303Y-80058730D03*
D11*
X145349303Y-82598730D03*
X145349303Y-85138730D03*
X145349303Y-87678730D03*
X145349303Y-90218730D03*
D12*
X145349303Y-92758730D03*
D11*
X145349303Y-95298730D03*
X145349303Y-97838730D03*
X145349303Y-100378730D03*
X145349303Y-102918730D03*
D12*
X145349303Y-105458730D03*
D11*
X145349303Y-107998730D03*
X145349303Y-110538730D03*
%TD*%
D15*
%TO.C,BC337*%
X111568000Y-72390000D03*
D24*
X110298000Y-71120000D03*
X109028000Y-72390000D03*
%TD*%
D15*
%TO.C,BC337*%
X155459200Y-72457237D03*
D24*
X154189200Y-71187237D03*
X152919200Y-72457237D03*
%TD*%
D11*
%TO.C,REF\u002A\u002A*%
X140857352Y-62250000D03*
X140857352Y-64790000D03*
D12*
X140857352Y-67330000D03*
D11*
X140857352Y-69870000D03*
X140857352Y-72410000D03*
X140857352Y-74950000D03*
X140857352Y-77490000D03*
D12*
X140857352Y-80030000D03*
D11*
X140857352Y-82570000D03*
X140857352Y-85110000D03*
X140857352Y-87650000D03*
X140857352Y-90190000D03*
D12*
X140857352Y-92730000D03*
D11*
X140857352Y-95270000D03*
X140857352Y-97810000D03*
X140857352Y-100350000D03*
X140857352Y-102890000D03*
D12*
X140857352Y-105430000D03*
D11*
X140857352Y-107970000D03*
X140857352Y-110510000D03*
X123077352Y-110510000D03*
X123077352Y-107970000D03*
D12*
X123077352Y-105430000D03*
D11*
X123077352Y-102890000D03*
X123077352Y-100350000D03*
X123077352Y-97810000D03*
X123077352Y-95270000D03*
D12*
X123077352Y-92730000D03*
D11*
X123077352Y-90190000D03*
X123077352Y-87650000D03*
X123077352Y-85110000D03*
X123077352Y-82570000D03*
D12*
X123077352Y-80030000D03*
D11*
X123077352Y-77490000D03*
X123077352Y-74950000D03*
X123077352Y-72410000D03*
X123077352Y-69870000D03*
D12*
X123077352Y-67330000D03*
D11*
X123077352Y-64790000D03*
X123077352Y-62250000D03*
%TD*%
M02*
