M48
; DRILL file {KiCad (6.0.11)} date Tue Apr 25 11:56:12 2023
; FORMAT={-:-/ absolute / metric / decimal}
; #@! TF.CreationDate,2023-04-25T11:56:12-03:00
; #@! TF.GenerationSoftware,Kicad,Pcbnew,(6.0.11)
; #@! TF.FileFunction,Plated,1,2,PTH
FMAT,2
METRIC
; #@! TA.AperFunction,Plated,PTH,ComponentDrill
T1C0.750
; #@! TA.AperFunction,Plated,PTH,ComponentDrill
T2C1.000
; #@! TA.AperFunction,Plated,PTH,ComponentDrill
T3C1.020
; #@! TA.AperFunction,Plated,PTH,ComponentDrill
T4C1.100
; #@! TA.AperFunction,Plated,PTH,ComponentDrill
T5C1.200
; #@! TA.AperFunction,Plated,PTH,ComponentDrill
T6C1.400
; #@! TA.AperFunction,Plated,PTH,ViaDrill
T7C1.500
; #@! TA.AperFunction,Plated,PTH,ComponentDrill
T8C2.000
; #@! TA.AperFunction,Plated,PTH,ComponentDrill
T9C3.000
%
G90
G05
T1
X91.031Y-40.64
X91.031Y-43.18
X100.301Y-40.611
X100.315Y-43.151
X109.028Y-72.39
X109.22Y-67.187
X110.298Y-71.12
X111.568Y-72.39
X111.76Y-109.931
X111.76Y-114.046
X115.57Y-67.187
X128.27Y-76.2
X128.27Y-78.74
X128.27Y-81.28
X132.08Y-71.12
X132.08Y-73.66
X132.08Y-76.2
X139.81Y-127.727
X139.81Y-134.077
X142.35Y-127.727
X142.35Y-134.077
X144.89Y-127.727
X144.89Y-134.077
X149.86Y-67.31
X152.919Y-72.457
X154.189Y-71.187
X155.459Y-72.457
X156.21Y-67.31
X156.619Y-100.8
X156.619Y-104.049
X162.665Y-82.154
X162.665Y-84.694
T2
X101.295Y-69.545
X101.295Y-77.145
X118.564Y-62.255
X118.564Y-64.795
X118.564Y-67.335
X118.564Y-69.875
X118.564Y-72.415
X118.564Y-74.955
X118.564Y-77.495
X118.564Y-80.035
X118.564Y-82.575
X118.564Y-85.115
X118.564Y-87.655
X118.564Y-90.195
X118.564Y-92.735
X118.564Y-95.275
X118.564Y-97.815
X118.564Y-100.355
X118.564Y-102.895
X118.564Y-105.435
X118.564Y-107.975
X118.564Y-110.515
X125.84Y-141.66
X125.84Y-144.2
X128.38Y-141.66
X128.38Y-144.2
X130.92Y-141.66
X130.92Y-144.2
X133.46Y-141.66
X133.46Y-144.2
X136.0Y-141.66
X136.0Y-144.2
X138.54Y-141.66
X138.54Y-144.2
X141.08Y-141.66
X141.08Y-144.2
X142.0Y-115.8
X145.349Y-62.279
X145.349Y-64.819
X145.349Y-67.359
X145.349Y-69.899
X145.349Y-72.439
X145.349Y-74.979
X145.349Y-77.519
X145.349Y-80.059
X145.349Y-82.599
X145.349Y-85.139
X145.349Y-87.679
X145.349Y-90.219
X145.349Y-92.759
X145.349Y-95.299
X145.349Y-97.839
X145.349Y-100.379
X145.349Y-102.919
X145.349Y-105.459
X145.349Y-107.999
X145.349Y-110.539
X146.2Y-117.8
X162.712Y-69.393
X162.712Y-76.993
T3
X92.456Y-64.364
X99.553Y-116.078
X101.6Y-102.87
X101.6Y-105.918
X102.093Y-116.078
X102.87Y-52.225
X102.87Y-60.96
X104.633Y-116.078
X105.41Y-52.225
X105.41Y-60.96
X107.173Y-116.078
X107.95Y-52.225
X107.95Y-60.96
X108.204Y-101.346
X108.204Y-103.886
X108.204Y-106.426
X108.204Y-108.966
X108.204Y-111.506
X109.713Y-116.078
X110.49Y-52.225
X110.49Y-60.96
X113.03Y-52.225
X113.03Y-60.96
X123.077Y-62.25
X123.077Y-64.79
X123.077Y-67.33
X123.077Y-69.87
X123.077Y-72.41
X123.077Y-74.95
X123.077Y-77.49
X123.077Y-80.03
X123.077Y-82.57
X123.077Y-85.11
X123.077Y-87.65
X123.077Y-90.19
X123.077Y-92.73
X123.077Y-95.27
X123.077Y-97.81
X123.077Y-100.35
X123.077Y-102.89
X123.077Y-105.43
X123.077Y-107.97
X123.077Y-110.51
X132.151Y-127.077
X132.19Y-129.625
X132.19Y-132.165
X132.19Y-134.705
X140.857Y-62.25
X140.857Y-64.79
X140.857Y-67.33
X140.857Y-69.87
X140.857Y-72.41
X140.857Y-74.95
X140.857Y-77.49
X140.857Y-80.03
X140.857Y-82.57
X140.857Y-85.11
X140.857Y-87.65
X140.857Y-90.19
X140.857Y-92.73
X140.857Y-95.27
X140.857Y-97.81
X140.857Y-100.35
X140.857Y-102.89
X140.857Y-105.43
X140.857Y-107.97
X140.857Y-110.51
X152.4Y-52.225
X152.4Y-60.96
X154.94Y-52.225
X154.94Y-60.96
X156.21Y-109.22
X157.48Y-52.225
X157.48Y-60.96
X158.75Y-109.22
X160.02Y-52.225
X160.02Y-60.96
X161.29Y-109.22
X162.56Y-52.225
X162.56Y-60.96
X163.83Y-109.22
T4
X97.08Y-91.73
X97.08Y-96.23
X103.58Y-91.73
X103.58Y-96.23
X108.194Y-87.761
X108.194Y-92.261
X114.694Y-87.761
X114.694Y-92.261
X159.854Y-135.463
X159.854Y-138.003
X159.854Y-140.543
X160.02Y-91.73
X160.02Y-96.23
X166.52Y-91.73
X166.52Y-96.23
T5
X91.462Y-119.304
X91.462Y-133.274
X114.474Y-119.304
X114.474Y-121.844
X114.474Y-130.734
X114.474Y-133.274
T6
X92.823Y-67.753
X92.823Y-72.833
T7
X103.632Y-56.515
X105.778Y-56.515
X107.925Y-56.515
X110.109Y-56.515
X112.268Y-56.515
X153.035Y-56.515
X155.181Y-56.515
X157.328Y-56.515
X159.512Y-56.515
X161.671Y-56.515
T8
X95.928Y-145.745
X167.928Y-145.745
T9
X94.391Y-124.734
X94.402Y-150.769
X96.52Y-37.374
X96.52Y-42.454
X104.422Y-37.374
X104.422Y-42.454
X112.324Y-37.374
X112.324Y-42.454
X114.393Y-124.734
X114.393Y-150.736
X120.227Y-37.374
X120.227Y-42.454
X128.129Y-37.374
X136.031Y-37.374
X143.933Y-37.374
X143.933Y-42.454
X151.836Y-37.374
X151.836Y-42.454
X159.738Y-37.374
X159.738Y-42.454
X167.64Y-37.374
X167.64Y-42.454
T0
M30
