%TF.GenerationSoftware,KiCad,Pcbnew,(6.0.11)*%
%TF.CreationDate,2023-04-25T11:56:07-03:00*%
%TF.ProjectId,Placa Base Xplorer Raspberry pi pico V3A,506c6163-6120-4426-9173-652058706c6f,rev?*%
%TF.SameCoordinates,Original*%
%TF.FileFunction,Legend,Bot*%
%TF.FilePolarity,Positive*%
%FSLAX46Y46*%
G04 Gerber Fmt 4.6, Leading zero omitted, Abs format (unit mm)*
G04 Created by KiCad (PCBNEW (6.0.11)) date 2023-04-25 11:56:07*
%MOMM*%
%LPD*%
G01*
G04 APERTURE LIST*
%ADD10C,0.150000*%
%ADD11C,0.100000*%
%ADD12C,0.300000*%
%ADD13C,0.120000*%
G04 APERTURE END LIST*
D10*
X122987257Y-64731665D02*
X92639008Y-64731665D01*
X126401523Y-105072837D02*
X126477714Y-105034741D01*
X126592000Y-105034741D01*
X126706285Y-105072837D01*
X126782476Y-105149027D01*
X126820571Y-105225217D01*
X126858666Y-105377598D01*
X126858666Y-105491884D01*
X126820571Y-105644265D01*
X126782476Y-105720456D01*
X126706285Y-105796646D01*
X126592000Y-105834741D01*
X126515809Y-105834741D01*
X126401523Y-105796646D01*
X126363428Y-105758551D01*
X126363428Y-105491884D01*
X126515809Y-105491884D01*
X126020571Y-105834741D02*
X126020571Y-105034741D01*
X125563428Y-105834741D01*
X125563428Y-105034741D01*
X125182476Y-105834741D02*
X125182476Y-105034741D01*
X124992000Y-105034741D01*
X124877714Y-105072837D01*
X124801523Y-105149027D01*
X124763428Y-105225217D01*
X124725333Y-105377598D01*
X124725333Y-105491884D01*
X124763428Y-105644265D01*
X124801523Y-105720456D01*
X124877714Y-105796646D01*
X124992000Y-105834741D01*
X125182476Y-105834741D01*
X161557091Y-84678210D02*
X160414234Y-84678210D01*
X160985663Y-84106781D02*
X160985663Y-85249638D01*
X131303390Y-97452837D02*
X131379580Y-97414741D01*
X131493866Y-97414741D01*
X131608152Y-97452837D01*
X131684342Y-97529027D01*
X131722438Y-97605217D01*
X131760533Y-97757598D01*
X131760533Y-97871884D01*
X131722438Y-98024265D01*
X131684342Y-98100456D01*
X131608152Y-98176646D01*
X131493866Y-98214741D01*
X131417676Y-98214741D01*
X131303390Y-98176646D01*
X131265295Y-98138551D01*
X131265295Y-97871884D01*
X131417676Y-97871884D01*
X130960533Y-97490932D02*
X130922438Y-97452837D01*
X130846247Y-97414741D01*
X130655771Y-97414741D01*
X130579580Y-97452837D01*
X130541485Y-97490932D01*
X130503390Y-97567122D01*
X130503390Y-97643313D01*
X130541485Y-97757598D01*
X130998628Y-98214741D01*
X130503390Y-98214741D01*
X130008152Y-97414741D02*
X129931961Y-97414741D01*
X129855771Y-97452837D01*
X129817676Y-97490932D01*
X129779580Y-97567122D01*
X129741485Y-97719503D01*
X129741485Y-97909979D01*
X129779580Y-98062360D01*
X129817676Y-98138551D01*
X129855771Y-98176646D01*
X129931961Y-98214741D01*
X130008152Y-98214741D01*
X130084342Y-98176646D01*
X130122438Y-98138551D01*
X130160533Y-98062360D01*
X130198628Y-97909979D01*
X130198628Y-97719503D01*
X130160533Y-97567122D01*
X130122438Y-97490932D01*
X130084342Y-97452837D01*
X130008152Y-97414741D01*
X128827200Y-97376646D02*
X129512914Y-98405217D01*
X128560533Y-98214741D02*
X128560533Y-97414741D01*
X128293866Y-97986170D01*
X128027200Y-97414741D01*
X128027200Y-98214741D01*
X127646247Y-98214741D02*
X127646247Y-97414741D01*
X126808152Y-98138551D02*
X126846247Y-98176646D01*
X126960533Y-98214741D01*
X127036723Y-98214741D01*
X127151009Y-98176646D01*
X127227200Y-98100456D01*
X127265295Y-98024265D01*
X127303390Y-97871884D01*
X127303390Y-97757598D01*
X127265295Y-97605217D01*
X127227200Y-97529027D01*
X127151009Y-97452837D01*
X127036723Y-97414741D01*
X126960533Y-97414741D01*
X126846247Y-97452837D01*
X126808152Y-97490932D01*
X125398628Y-98138551D02*
X125436723Y-98176646D01*
X125551009Y-98214741D01*
X125627200Y-98214741D01*
X125741485Y-98176646D01*
X125817676Y-98100456D01*
X125855771Y-98024265D01*
X125893866Y-97871884D01*
X125893866Y-97757598D01*
X125855771Y-97605217D01*
X125817676Y-97529027D01*
X125741485Y-97452837D01*
X125627200Y-97414741D01*
X125551009Y-97414741D01*
X125436723Y-97452837D01*
X125398628Y-97490932D01*
X124751009Y-98176646D02*
X124827200Y-98214741D01*
X124979580Y-98214741D01*
X125055771Y-98176646D01*
X125093866Y-98100456D01*
X125093866Y-97795694D01*
X125055771Y-97719503D01*
X124979580Y-97681408D01*
X124827200Y-97681408D01*
X124751009Y-97719503D01*
X124712914Y-97795694D01*
X124712914Y-97871884D01*
X125093866Y-97948075D01*
X124255771Y-98214741D02*
X124331961Y-98176646D01*
X124370057Y-98100456D01*
X124370057Y-97414741D01*
X139456857Y-94912837D02*
X139533047Y-94874741D01*
X139647333Y-94874741D01*
X139761619Y-94912837D01*
X139837809Y-94989027D01*
X139875904Y-95065217D01*
X139914000Y-95217598D01*
X139914000Y-95331884D01*
X139875904Y-95484265D01*
X139837809Y-95560456D01*
X139761619Y-95636646D01*
X139647333Y-95674741D01*
X139571142Y-95674741D01*
X139456857Y-95636646D01*
X139418761Y-95598551D01*
X139418761Y-95331884D01*
X139571142Y-95331884D01*
X139075904Y-95674741D02*
X139075904Y-94874741D01*
X138771142Y-94874741D01*
X138694952Y-94912837D01*
X138656857Y-94950932D01*
X138618761Y-95027122D01*
X138618761Y-95141408D01*
X138656857Y-95217598D01*
X138694952Y-95255694D01*
X138771142Y-95293789D01*
X139075904Y-95293789D01*
X137856857Y-95674741D02*
X138314000Y-95674741D01*
X138085428Y-95674741D02*
X138085428Y-94874741D01*
X138161619Y-94989027D01*
X138237809Y-95065217D01*
X138314000Y-95103313D01*
X137361619Y-94874741D02*
X137285428Y-94874741D01*
X137209238Y-94912837D01*
X137171142Y-94950932D01*
X137133047Y-95027122D01*
X137094952Y-95179503D01*
X137094952Y-95369979D01*
X137133047Y-95522360D01*
X137171142Y-95598551D01*
X137209238Y-95636646D01*
X137285428Y-95674741D01*
X137361619Y-95674741D01*
X137437809Y-95636646D01*
X137475904Y-95598551D01*
X137514000Y-95522360D01*
X137552095Y-95369979D01*
X137552095Y-95179503D01*
X137514000Y-95027122D01*
X137475904Y-94950932D01*
X137437809Y-94912837D01*
X137361619Y-94874741D01*
X136180666Y-94836646D02*
X136866380Y-95865217D01*
X135914000Y-95674741D02*
X135914000Y-94874741D01*
X135533047Y-95674741D02*
X135533047Y-94874741D01*
X135342571Y-94874741D01*
X135228285Y-94912837D01*
X135152095Y-94989027D01*
X135114000Y-95065217D01*
X135075904Y-95217598D01*
X135075904Y-95331884D01*
X135114000Y-95484265D01*
X135152095Y-95560456D01*
X135228285Y-95636646D01*
X135342571Y-95674741D01*
X135533047Y-95674741D01*
X134275904Y-95598551D02*
X134314000Y-95636646D01*
X134428285Y-95674741D01*
X134504476Y-95674741D01*
X134618761Y-95636646D01*
X134694952Y-95560456D01*
X134733047Y-95484265D01*
X134771142Y-95331884D01*
X134771142Y-95217598D01*
X134733047Y-95065217D01*
X134694952Y-94989027D01*
X134618761Y-94912837D01*
X134504476Y-94874741D01*
X134428285Y-94874741D01*
X134314000Y-94912837D01*
X134275904Y-94950932D01*
X133894952Y-95674741D02*
X133742571Y-95674741D01*
X133666380Y-95636646D01*
X133628285Y-95598551D01*
X133552095Y-95484265D01*
X133514000Y-95331884D01*
X133514000Y-95027122D01*
X133552095Y-94950932D01*
X133590190Y-94912837D01*
X133666380Y-94874741D01*
X133818761Y-94874741D01*
X133894952Y-94912837D01*
X133933047Y-94950932D01*
X133971142Y-95027122D01*
X133971142Y-95217598D01*
X133933047Y-95293789D01*
X133894952Y-95331884D01*
X133818761Y-95369979D01*
X133666380Y-95369979D01*
X133590190Y-95331884D01*
X133552095Y-95293789D01*
X133514000Y-95217598D01*
X112720476Y-111402857D02*
X112768095Y-111355238D01*
X112910952Y-111307619D01*
X113006190Y-111307619D01*
X113149047Y-111355238D01*
X113244285Y-111450476D01*
X113291904Y-111545714D01*
X113339523Y-111736190D01*
X113339523Y-111879047D01*
X113291904Y-112069523D01*
X113244285Y-112164761D01*
X113149047Y-112260000D01*
X113006190Y-112307619D01*
X112910952Y-112307619D01*
X112768095Y-112260000D01*
X112720476Y-112212380D01*
X130389066Y-89731237D02*
X130465257Y-89693141D01*
X130579542Y-89693141D01*
X130693828Y-89731237D01*
X130770019Y-89807427D01*
X130808114Y-89883617D01*
X130846209Y-90035998D01*
X130846209Y-90150284D01*
X130808114Y-90302665D01*
X130770019Y-90378856D01*
X130693828Y-90455046D01*
X130579542Y-90493141D01*
X130503352Y-90493141D01*
X130389066Y-90455046D01*
X130350971Y-90416951D01*
X130350971Y-90150284D01*
X130503352Y-90150284D01*
X130046209Y-89769332D02*
X130008114Y-89731237D01*
X129931923Y-89693141D01*
X129741447Y-89693141D01*
X129665257Y-89731237D01*
X129627161Y-89769332D01*
X129589066Y-89845522D01*
X129589066Y-89921713D01*
X129627161Y-90035998D01*
X130084304Y-90493141D01*
X129589066Y-90493141D01*
X129208114Y-90493141D02*
X129055733Y-90493141D01*
X128979542Y-90455046D01*
X128941447Y-90416951D01*
X128865257Y-90302665D01*
X128827161Y-90150284D01*
X128827161Y-89845522D01*
X128865257Y-89769332D01*
X128903352Y-89731237D01*
X128979542Y-89693141D01*
X129131923Y-89693141D01*
X129208114Y-89731237D01*
X129246209Y-89769332D01*
X129284304Y-89845522D01*
X129284304Y-90035998D01*
X129246209Y-90112189D01*
X129208114Y-90150284D01*
X129131923Y-90188379D01*
X128979542Y-90188379D01*
X128903352Y-90150284D01*
X128865257Y-90112189D01*
X128827161Y-90035998D01*
X127912876Y-89655046D02*
X128598590Y-90683617D01*
X127646209Y-89959808D02*
X127646209Y-90645522D01*
X127684304Y-90721713D01*
X127760495Y-90759808D01*
X127798590Y-90759808D01*
X127646209Y-89693141D02*
X127684304Y-89731237D01*
X127646209Y-89769332D01*
X127608114Y-89731237D01*
X127646209Y-89693141D01*
X127646209Y-89769332D01*
X127150971Y-90493141D02*
X127227161Y-90455046D01*
X127265257Y-90416951D01*
X127303352Y-90340760D01*
X127303352Y-90112189D01*
X127265257Y-90035998D01*
X127227161Y-89997903D01*
X127150971Y-89959808D01*
X127036685Y-89959808D01*
X126960495Y-89997903D01*
X126922400Y-90035998D01*
X126884304Y-90112189D01*
X126884304Y-90340760D01*
X126922400Y-90416951D01*
X126960495Y-90455046D01*
X127036685Y-90493141D01*
X127150971Y-90493141D01*
X126617638Y-89959808D02*
X126427161Y-90493141D01*
X126236685Y-89959808D02*
X126427161Y-90493141D01*
X126503352Y-90683617D01*
X126541447Y-90721713D01*
X126617638Y-90759808D01*
X125970019Y-90455046D02*
X125855733Y-90493141D01*
X125665257Y-90493141D01*
X125589066Y-90455046D01*
X125550971Y-90416951D01*
X125512876Y-90340760D01*
X125512876Y-90264570D01*
X125550971Y-90188379D01*
X125589066Y-90150284D01*
X125665257Y-90112189D01*
X125817638Y-90074094D01*
X125893828Y-90035998D01*
X125931923Y-89997903D01*
X125970019Y-89921713D01*
X125970019Y-89845522D01*
X125931923Y-89769332D01*
X125893828Y-89731237D01*
X125817638Y-89693141D01*
X125627161Y-89693141D01*
X125512876Y-89731237D01*
X125246209Y-89693141D02*
X125055733Y-90493141D01*
X124903352Y-89921713D01*
X124750971Y-90493141D01*
X124560495Y-89693141D01*
X98545923Y-131846819D02*
X99117352Y-131846819D01*
X98831638Y-130846819D02*
X98831638Y-131846819D01*
X99450685Y-130846819D02*
X99450685Y-131846819D01*
X99831638Y-131846819D01*
X99926876Y-131799200D01*
X99974495Y-131751580D01*
X100022114Y-131656342D01*
X100022114Y-131513485D01*
X99974495Y-131418247D01*
X99926876Y-131370628D01*
X99831638Y-131323009D01*
X99450685Y-131323009D01*
X100879257Y-131513485D02*
X100879257Y-130846819D01*
X100641161Y-131894438D02*
X100403066Y-131180152D01*
X101022114Y-131180152D01*
X101593542Y-131846819D02*
X101688780Y-131846819D01*
X101784019Y-131799200D01*
X101831638Y-131751580D01*
X101879257Y-131656342D01*
X101926876Y-131465866D01*
X101926876Y-131227771D01*
X101879257Y-131037295D01*
X101831638Y-130942057D01*
X101784019Y-130894438D01*
X101688780Y-130846819D01*
X101593542Y-130846819D01*
X101498304Y-130894438D01*
X101450685Y-130942057D01*
X101403066Y-131037295D01*
X101355447Y-131227771D01*
X101355447Y-131465866D01*
X101403066Y-131656342D01*
X101450685Y-131751580D01*
X101498304Y-131799200D01*
X101593542Y-131846819D01*
X102831638Y-131846819D02*
X102355447Y-131846819D01*
X102307828Y-131370628D01*
X102355447Y-131418247D01*
X102450685Y-131465866D01*
X102688780Y-131465866D01*
X102784019Y-131418247D01*
X102831638Y-131370628D01*
X102879257Y-131275390D01*
X102879257Y-131037295D01*
X102831638Y-130942057D01*
X102784019Y-130894438D01*
X102688780Y-130846819D01*
X102450685Y-130846819D01*
X102355447Y-130894438D01*
X102307828Y-130942057D01*
X103736400Y-131846819D02*
X103545923Y-131846819D01*
X103450685Y-131799200D01*
X103403066Y-131751580D01*
X103307828Y-131608723D01*
X103260209Y-131418247D01*
X103260209Y-131037295D01*
X103307828Y-130942057D01*
X103355447Y-130894438D01*
X103450685Y-130846819D01*
X103641161Y-130846819D01*
X103736400Y-130894438D01*
X103784019Y-130942057D01*
X103831638Y-131037295D01*
X103831638Y-131275390D01*
X103784019Y-131370628D01*
X103736400Y-131418247D01*
X103641161Y-131465866D01*
X103450685Y-131465866D01*
X103355447Y-131418247D01*
X103307828Y-131370628D01*
X103260209Y-131275390D01*
X151552704Y-73702208D02*
X151886038Y-73702208D01*
X152028895Y-74226017D02*
X151552704Y-74226017D01*
X151552704Y-73226017D01*
X152028895Y-73226017D01*
X154314609Y-73702208D02*
X154457466Y-73749827D01*
X154505085Y-73797446D01*
X154552704Y-73892684D01*
X154552704Y-74035541D01*
X154505085Y-74130779D01*
X154457466Y-74178398D01*
X154362228Y-74226017D01*
X153981276Y-74226017D01*
X153981276Y-73226017D01*
X154314609Y-73226017D01*
X154409847Y-73273637D01*
X154457466Y-73321256D01*
X154505085Y-73416494D01*
X154505085Y-73511732D01*
X154457466Y-73606970D01*
X154409847Y-73654589D01*
X154314609Y-73702208D01*
X153981276Y-73702208D01*
X157076514Y-74130779D02*
X157028895Y-74178398D01*
X156886038Y-74226017D01*
X156790800Y-74226017D01*
X156647942Y-74178398D01*
X156552704Y-74083160D01*
X156505085Y-73987922D01*
X156457466Y-73797446D01*
X156457466Y-73654589D01*
X156505085Y-73464113D01*
X156552704Y-73368875D01*
X156647942Y-73273637D01*
X156790800Y-73226017D01*
X156886038Y-73226017D01*
X157028895Y-73273637D01*
X157076514Y-73321256D01*
X139209200Y-97553637D02*
X139266342Y-97520303D01*
X139352057Y-97520303D01*
X139437771Y-97553637D01*
X139494914Y-97620303D01*
X139523485Y-97686970D01*
X139552057Y-97820303D01*
X139552057Y-97920303D01*
X139523485Y-98053637D01*
X139494914Y-98120303D01*
X139437771Y-98186970D01*
X139352057Y-98220303D01*
X139294914Y-98220303D01*
X139209200Y-98186970D01*
X139180628Y-98153637D01*
X139180628Y-97920303D01*
X139294914Y-97920303D01*
X138923485Y-98220303D02*
X138923485Y-97520303D01*
X138694914Y-97520303D01*
X138637771Y-97553637D01*
X138609200Y-97586970D01*
X138580628Y-97653637D01*
X138580628Y-97753637D01*
X138609200Y-97820303D01*
X138637771Y-97853637D01*
X138694914Y-97886970D01*
X138923485Y-97886970D01*
X138009200Y-98220303D02*
X138352057Y-98220303D01*
X138180628Y-98220303D02*
X138180628Y-97520303D01*
X138237771Y-97620303D01*
X138294914Y-97686970D01*
X138352057Y-97720303D01*
X137437771Y-98220303D02*
X137780628Y-98220303D01*
X137609200Y-98220303D02*
X137609200Y-97520303D01*
X137666342Y-97620303D01*
X137723485Y-97686970D01*
X137780628Y-97720303D01*
X136752057Y-97486970D02*
X137266342Y-98386970D01*
X136266342Y-98220303D02*
X136552057Y-98220303D01*
X136552057Y-97520303D01*
X136066342Y-97853637D02*
X135866342Y-97853637D01*
X135780628Y-98220303D02*
X136066342Y-98220303D01*
X136066342Y-97520303D01*
X135780628Y-97520303D01*
X135523485Y-98220303D02*
X135523485Y-97520303D01*
X135380628Y-97520303D01*
X135294914Y-97553637D01*
X135237771Y-97620303D01*
X135209200Y-97686970D01*
X135180628Y-97820303D01*
X135180628Y-97920303D01*
X135209200Y-98053637D01*
X135237771Y-98120303D01*
X135294914Y-98186970D01*
X135380628Y-98220303D01*
X135523485Y-98220303D01*
X134923485Y-98220303D02*
X134923485Y-97520303D01*
X134923485Y-97786970D02*
X134866342Y-97753637D01*
X134752057Y-97753637D01*
X134694914Y-97786970D01*
X134666342Y-97820303D01*
X134637771Y-97886970D01*
X134637771Y-98086970D01*
X134666342Y-98153637D01*
X134694914Y-98186970D01*
X134752057Y-98220303D01*
X134866342Y-98220303D01*
X134923485Y-98186970D01*
X134294914Y-98220303D02*
X134352057Y-98186970D01*
X134380628Y-98120303D01*
X134380628Y-97520303D01*
X133809200Y-97753637D02*
X133809200Y-98220303D01*
X134066342Y-97753637D02*
X134066342Y-98120303D01*
X134037771Y-98186970D01*
X133980628Y-98220303D01*
X133894914Y-98220303D01*
X133837771Y-98186970D01*
X133809200Y-98153637D01*
X133294914Y-98186970D02*
X133352057Y-98220303D01*
X133466342Y-98220303D01*
X133523485Y-98186970D01*
X133552057Y-98120303D01*
X133552057Y-97853637D01*
X133523485Y-97786970D01*
X133466342Y-97753637D01*
X133352057Y-97753637D01*
X133294914Y-97786970D01*
X133266342Y-97853637D01*
X133266342Y-97920303D01*
X133552057Y-97986970D01*
X155449309Y-102304410D02*
X155496928Y-102256791D01*
X155639785Y-102209172D01*
X155735023Y-102209172D01*
X155877880Y-102256791D01*
X155973118Y-102352029D01*
X156020737Y-102447267D01*
X156068356Y-102637743D01*
X156068356Y-102780600D01*
X156020737Y-102971076D01*
X155973118Y-103066314D01*
X155877880Y-103161553D01*
X155735023Y-103209172D01*
X155639785Y-103209172D01*
X155496928Y-103161553D01*
X155449309Y-103113933D01*
X138949123Y-105022037D02*
X139025314Y-104983941D01*
X139139600Y-104983941D01*
X139253885Y-105022037D01*
X139330076Y-105098227D01*
X139368171Y-105174417D01*
X139406266Y-105326798D01*
X139406266Y-105441084D01*
X139368171Y-105593465D01*
X139330076Y-105669656D01*
X139253885Y-105745846D01*
X139139600Y-105783941D01*
X139063409Y-105783941D01*
X138949123Y-105745846D01*
X138911028Y-105707751D01*
X138911028Y-105441084D01*
X139063409Y-105441084D01*
X138568171Y-105783941D02*
X138568171Y-104983941D01*
X138111028Y-105783941D01*
X138111028Y-104983941D01*
X137730076Y-105783941D02*
X137730076Y-104983941D01*
X137539600Y-104983941D01*
X137425314Y-105022037D01*
X137349123Y-105098227D01*
X137311028Y-105174417D01*
X137272933Y-105326798D01*
X137272933Y-105441084D01*
X137311028Y-105593465D01*
X137349123Y-105669656D01*
X137425314Y-105745846D01*
X137539600Y-105783941D01*
X137730076Y-105783941D01*
X93408571Y-118807219D02*
X93408571Y-119807219D01*
X93884761Y-119473885D02*
X93884761Y-118807219D01*
X93884761Y-119378647D02*
X93932380Y-119426266D01*
X94027619Y-119473885D01*
X94170476Y-119473885D01*
X94265714Y-119426266D01*
X94313333Y-119331028D01*
X94313333Y-118807219D01*
X94789523Y-119188171D02*
X95551428Y-119188171D01*
X90627295Y-145735657D02*
X92151104Y-145735657D01*
X91389200Y-146497561D02*
X91389200Y-144973752D01*
X128858000Y-107612037D02*
X128924666Y-107578703D01*
X129024666Y-107578703D01*
X129124666Y-107612037D01*
X129191333Y-107678703D01*
X129224666Y-107745370D01*
X129258000Y-107878703D01*
X129258000Y-107978703D01*
X129224666Y-108112037D01*
X129191333Y-108178703D01*
X129124666Y-108245370D01*
X129024666Y-108278703D01*
X128958000Y-108278703D01*
X128858000Y-108245370D01*
X128824666Y-108212037D01*
X128824666Y-107978703D01*
X128958000Y-107978703D01*
X128158000Y-108278703D02*
X128558000Y-108278703D01*
X128358000Y-108278703D02*
X128358000Y-107578703D01*
X128424666Y-107678703D01*
X128491333Y-107745370D01*
X128558000Y-107778703D01*
X127924666Y-107578703D02*
X127458000Y-107578703D01*
X127758000Y-108278703D01*
X126691333Y-107545370D02*
X127291333Y-108445370D01*
X126458000Y-108278703D02*
X126458000Y-107578703D01*
X126124666Y-108278703D02*
X126124666Y-107578703D01*
X125958000Y-107578703D01*
X125858000Y-107612037D01*
X125791333Y-107678703D01*
X125758000Y-107745370D01*
X125724666Y-107878703D01*
X125724666Y-107978703D01*
X125758000Y-108112037D01*
X125791333Y-108178703D01*
X125858000Y-108245370D01*
X125958000Y-108278703D01*
X126124666Y-108278703D01*
X125024666Y-108212037D02*
X125058000Y-108245370D01*
X125158000Y-108278703D01*
X125224666Y-108278703D01*
X125324666Y-108245370D01*
X125391333Y-108178703D01*
X125424666Y-108112037D01*
X125458000Y-107978703D01*
X125458000Y-107878703D01*
X125424666Y-107745370D01*
X125391333Y-107678703D01*
X125324666Y-107612037D01*
X125224666Y-107578703D01*
X125158000Y-107578703D01*
X125058000Y-107612037D01*
X125024666Y-107645370D01*
X124691333Y-108278703D02*
X124558000Y-108278703D01*
X124491333Y-108245370D01*
X124458000Y-108212037D01*
X124391333Y-108112037D01*
X124358000Y-107978703D01*
X124358000Y-107712037D01*
X124391333Y-107645370D01*
X124424666Y-107612037D01*
X124491333Y-107578703D01*
X124624666Y-107578703D01*
X124691333Y-107612037D01*
X124724666Y-107645370D01*
X124758000Y-107712037D01*
X124758000Y-107878703D01*
X124724666Y-107945370D01*
X124691333Y-107978703D01*
X124624666Y-108012037D01*
X124491333Y-108012037D01*
X124424666Y-107978703D01*
X124391333Y-107945370D01*
X124358000Y-107878703D01*
X138720304Y-87242037D02*
X138796495Y-87203941D01*
X138910780Y-87203941D01*
X139025066Y-87242037D01*
X139101257Y-87318227D01*
X139139352Y-87394417D01*
X139177447Y-87546798D01*
X139177447Y-87661084D01*
X139139352Y-87813465D01*
X139101257Y-87889656D01*
X139025066Y-87965846D01*
X138910780Y-88003941D01*
X138834590Y-88003941D01*
X138720304Y-87965846D01*
X138682209Y-87927751D01*
X138682209Y-87661084D01*
X138834590Y-87661084D01*
X138339352Y-88003941D02*
X138339352Y-87203941D01*
X138034590Y-87203941D01*
X137958400Y-87242037D01*
X137920304Y-87280132D01*
X137882209Y-87356322D01*
X137882209Y-87470608D01*
X137920304Y-87546798D01*
X137958400Y-87584894D01*
X138034590Y-87622989D01*
X138339352Y-87622989D01*
X137425066Y-87546798D02*
X137501257Y-87508703D01*
X137539352Y-87470608D01*
X137577447Y-87394417D01*
X137577447Y-87356322D01*
X137539352Y-87280132D01*
X137501257Y-87242037D01*
X137425066Y-87203941D01*
X137272685Y-87203941D01*
X137196495Y-87242037D01*
X137158400Y-87280132D01*
X137120304Y-87356322D01*
X137120304Y-87394417D01*
X137158400Y-87470608D01*
X137196495Y-87508703D01*
X137272685Y-87546798D01*
X137425066Y-87546798D01*
X137501257Y-87584894D01*
X137539352Y-87622989D01*
X137577447Y-87699179D01*
X137577447Y-87851560D01*
X137539352Y-87927751D01*
X137501257Y-87965846D01*
X137425066Y-88003941D01*
X137272685Y-88003941D01*
X137196495Y-87965846D01*
X137158400Y-87927751D01*
X137120304Y-87851560D01*
X137120304Y-87699179D01*
X137158400Y-87622989D01*
X137196495Y-87584894D01*
X137272685Y-87546798D01*
X136206019Y-87165846D02*
X136891733Y-88194417D01*
X135939352Y-88003941D02*
X135939352Y-87203941D01*
X135558400Y-88003941D02*
X135558400Y-87203941D01*
X135367923Y-87203941D01*
X135253638Y-87242037D01*
X135177447Y-87318227D01*
X135139352Y-87394417D01*
X135101257Y-87546798D01*
X135101257Y-87661084D01*
X135139352Y-87813465D01*
X135177447Y-87889656D01*
X135253638Y-87965846D01*
X135367923Y-88003941D01*
X135558400Y-88003941D01*
X134301257Y-87927751D02*
X134339352Y-87965846D01*
X134453638Y-88003941D01*
X134529828Y-88003941D01*
X134644114Y-87965846D01*
X134720304Y-87889656D01*
X134758400Y-87813465D01*
X134796495Y-87661084D01*
X134796495Y-87546798D01*
X134758400Y-87394417D01*
X134720304Y-87318227D01*
X134644114Y-87242037D01*
X134529828Y-87203941D01*
X134453638Y-87203941D01*
X134339352Y-87242037D01*
X134301257Y-87280132D01*
X133844114Y-87546798D02*
X133920304Y-87508703D01*
X133958400Y-87470608D01*
X133996495Y-87394417D01*
X133996495Y-87356322D01*
X133958400Y-87280132D01*
X133920304Y-87242037D01*
X133844114Y-87203941D01*
X133691733Y-87203941D01*
X133615542Y-87242037D01*
X133577447Y-87280132D01*
X133539352Y-87356322D01*
X133539352Y-87394417D01*
X133577447Y-87470608D01*
X133615542Y-87508703D01*
X133691733Y-87546798D01*
X133844114Y-87546798D01*
X133920304Y-87584894D01*
X133958400Y-87622989D01*
X133996495Y-87699179D01*
X133996495Y-87851560D01*
X133958400Y-87927751D01*
X133920304Y-87965846D01*
X133844114Y-88003941D01*
X133691733Y-88003941D01*
X133615542Y-87965846D01*
X133577447Y-87927751D01*
X133539352Y-87851560D01*
X133539352Y-87699179D01*
X133577447Y-87622989D01*
X133615542Y-87584894D01*
X133691733Y-87546798D01*
X139067942Y-100143637D02*
X139125085Y-100115065D01*
X139210800Y-100115065D01*
X139296514Y-100143637D01*
X139353657Y-100200779D01*
X139382228Y-100257922D01*
X139410800Y-100372208D01*
X139410800Y-100457922D01*
X139382228Y-100572208D01*
X139353657Y-100629351D01*
X139296514Y-100686494D01*
X139210800Y-100715065D01*
X139153657Y-100715065D01*
X139067942Y-100686494D01*
X139039371Y-100657922D01*
X139039371Y-100457922D01*
X139153657Y-100457922D01*
X138782228Y-100715065D02*
X138782228Y-100115065D01*
X138553657Y-100115065D01*
X138496514Y-100143637D01*
X138467942Y-100172208D01*
X138439371Y-100229351D01*
X138439371Y-100315065D01*
X138467942Y-100372208D01*
X138496514Y-100400779D01*
X138553657Y-100429351D01*
X138782228Y-100429351D01*
X137867942Y-100715065D02*
X138210800Y-100715065D01*
X138039371Y-100715065D02*
X138039371Y-100115065D01*
X138096514Y-100200779D01*
X138153657Y-100257922D01*
X138210800Y-100286494D01*
X137639371Y-100172208D02*
X137610800Y-100143637D01*
X137553657Y-100115065D01*
X137410800Y-100115065D01*
X137353657Y-100143637D01*
X137325085Y-100172208D01*
X137296514Y-100229351D01*
X137296514Y-100286494D01*
X137325085Y-100372208D01*
X137667942Y-100715065D01*
X137296514Y-100715065D01*
X136610800Y-100086494D02*
X137125085Y-100857922D01*
X136125085Y-100715065D02*
X136410800Y-100715065D01*
X136410800Y-100115065D01*
X135925085Y-100400779D02*
X135725085Y-100400779D01*
X135639371Y-100715065D02*
X135925085Y-100715065D01*
X135925085Y-100115065D01*
X135639371Y-100115065D01*
X135382228Y-100715065D02*
X135382228Y-100115065D01*
X135239371Y-100115065D01*
X135153657Y-100143637D01*
X135096514Y-100200779D01*
X135067942Y-100257922D01*
X135039371Y-100372208D01*
X135039371Y-100457922D01*
X135067942Y-100572208D01*
X135096514Y-100629351D01*
X135153657Y-100686494D01*
X135239371Y-100715065D01*
X135382228Y-100715065D01*
X134782228Y-100715065D02*
X134782228Y-100315065D01*
X134782228Y-100429351D02*
X134753657Y-100372208D01*
X134725085Y-100343637D01*
X134667942Y-100315065D01*
X134610800Y-100315065D01*
X134182228Y-100686494D02*
X134239371Y-100715065D01*
X134353657Y-100715065D01*
X134410800Y-100686494D01*
X134439371Y-100629351D01*
X134439371Y-100400779D01*
X134410800Y-100343637D01*
X134353657Y-100315065D01*
X134239371Y-100315065D01*
X134182228Y-100343637D01*
X134153657Y-100400779D01*
X134153657Y-100457922D01*
X134439371Y-100515065D01*
X133639371Y-100715065D02*
X133639371Y-100115065D01*
X133639371Y-100686494D02*
X133696514Y-100715065D01*
X133810800Y-100715065D01*
X133867942Y-100686494D01*
X133896514Y-100657922D01*
X133925085Y-100600779D01*
X133925085Y-100429351D01*
X133896514Y-100372208D01*
X133867942Y-100343637D01*
X133810800Y-100315065D01*
X133696514Y-100315065D01*
X133639371Y-100343637D01*
X139012247Y-72205237D02*
X139088438Y-72167141D01*
X139202723Y-72167141D01*
X139317009Y-72205237D01*
X139393200Y-72281427D01*
X139431295Y-72357617D01*
X139469390Y-72509998D01*
X139469390Y-72624284D01*
X139431295Y-72776665D01*
X139393200Y-72852856D01*
X139317009Y-72929046D01*
X139202723Y-72967141D01*
X139126533Y-72967141D01*
X139012247Y-72929046D01*
X138974152Y-72890951D01*
X138974152Y-72624284D01*
X139126533Y-72624284D01*
X138631295Y-72967141D02*
X138631295Y-72167141D01*
X138326533Y-72167141D01*
X138250342Y-72205237D01*
X138212247Y-72243332D01*
X138174152Y-72319522D01*
X138174152Y-72433808D01*
X138212247Y-72509998D01*
X138250342Y-72548094D01*
X138326533Y-72586189D01*
X138631295Y-72586189D01*
X137907485Y-72167141D02*
X137412247Y-72167141D01*
X137678914Y-72471903D01*
X137564628Y-72471903D01*
X137488438Y-72509998D01*
X137450342Y-72548094D01*
X137412247Y-72624284D01*
X137412247Y-72814760D01*
X137450342Y-72890951D01*
X137488438Y-72929046D01*
X137564628Y-72967141D01*
X137793200Y-72967141D01*
X137869390Y-72929046D01*
X137907485Y-72890951D01*
X136497961Y-72129046D02*
X137183676Y-73157617D01*
X136231295Y-72967141D02*
X136231295Y-72167141D01*
X136040819Y-72167141D01*
X135926533Y-72205237D01*
X135850342Y-72281427D01*
X135812247Y-72357617D01*
X135774152Y-72509998D01*
X135774152Y-72624284D01*
X135812247Y-72776665D01*
X135850342Y-72852856D01*
X135926533Y-72929046D01*
X136040819Y-72967141D01*
X136231295Y-72967141D01*
X135431295Y-72967141D02*
X135431295Y-72167141D01*
X134631295Y-72205237D02*
X134707485Y-72167141D01*
X134821771Y-72167141D01*
X134936057Y-72205237D01*
X135012247Y-72281427D01*
X135050342Y-72357617D01*
X135088438Y-72509998D01*
X135088438Y-72624284D01*
X135050342Y-72776665D01*
X135012247Y-72852856D01*
X134936057Y-72929046D01*
X134821771Y-72967141D01*
X134745580Y-72967141D01*
X134631295Y-72929046D01*
X134593200Y-72890951D01*
X134593200Y-72624284D01*
X134745580Y-72624284D01*
X133526533Y-72967141D02*
X133602723Y-72929046D01*
X133640819Y-72890951D01*
X133678914Y-72814760D01*
X133678914Y-72586189D01*
X133640819Y-72509998D01*
X133602723Y-72471903D01*
X133526533Y-72433808D01*
X133412247Y-72433808D01*
X133336057Y-72471903D01*
X133297961Y-72509998D01*
X133259866Y-72586189D01*
X133259866Y-72814760D01*
X133297961Y-72890951D01*
X133336057Y-72929046D01*
X133412247Y-72967141D01*
X133526533Y-72967141D01*
X132574152Y-72433808D02*
X132574152Y-72967141D01*
X132917009Y-72433808D02*
X132917009Y-72852856D01*
X132878914Y-72929046D01*
X132802723Y-72967141D01*
X132688438Y-72967141D01*
X132612247Y-72929046D01*
X132574152Y-72890951D01*
X132307485Y-72433808D02*
X132002723Y-72433808D01*
X132193200Y-72167141D02*
X132193200Y-72852856D01*
X132155104Y-72929046D01*
X132078914Y-72967141D01*
X132002723Y-72967141D01*
X131583676Y-72167141D02*
X131507485Y-72167141D01*
X131431295Y-72205237D01*
X131393200Y-72243332D01*
X131355104Y-72319522D01*
X131317009Y-72471903D01*
X131317009Y-72662379D01*
X131355104Y-72814760D01*
X131393200Y-72890951D01*
X131431295Y-72929046D01*
X131507485Y-72967141D01*
X131583676Y-72967141D01*
X131659866Y-72929046D01*
X131697961Y-72890951D01*
X131736057Y-72814760D01*
X131774152Y-72662379D01*
X131774152Y-72471903D01*
X131736057Y-72319522D01*
X131697961Y-72243332D01*
X131659866Y-72205237D01*
X131583676Y-72167141D01*
X126198323Y-67023637D02*
X126274514Y-66985541D01*
X126388800Y-66985541D01*
X126503085Y-67023637D01*
X126579276Y-67099827D01*
X126617371Y-67176017D01*
X126655466Y-67328398D01*
X126655466Y-67442684D01*
X126617371Y-67595065D01*
X126579276Y-67671256D01*
X126503085Y-67747446D01*
X126388800Y-67785541D01*
X126312609Y-67785541D01*
X126198323Y-67747446D01*
X126160228Y-67709351D01*
X126160228Y-67442684D01*
X126312609Y-67442684D01*
X125817371Y-67785541D02*
X125817371Y-66985541D01*
X125360228Y-67785541D01*
X125360228Y-66985541D01*
X124979276Y-67785541D02*
X124979276Y-66985541D01*
X124788800Y-66985541D01*
X124674514Y-67023637D01*
X124598323Y-67099827D01*
X124560228Y-67176017D01*
X124522133Y-67328398D01*
X124522133Y-67442684D01*
X124560228Y-67595065D01*
X124598323Y-67671256D01*
X124674514Y-67747446D01*
X124788800Y-67785541D01*
X124979276Y-67785541D01*
X138764628Y-74643637D02*
X138840819Y-74605541D01*
X138955104Y-74605541D01*
X139069390Y-74643637D01*
X139145580Y-74719827D01*
X139183676Y-74796017D01*
X139221771Y-74948398D01*
X139221771Y-75062684D01*
X139183676Y-75215065D01*
X139145580Y-75291256D01*
X139069390Y-75367446D01*
X138955104Y-75405541D01*
X138878914Y-75405541D01*
X138764628Y-75367446D01*
X138726533Y-75329351D01*
X138726533Y-75062684D01*
X138878914Y-75062684D01*
X138383676Y-75405541D02*
X138383676Y-74605541D01*
X138078914Y-74605541D01*
X138002723Y-74643637D01*
X137964628Y-74681732D01*
X137926533Y-74757922D01*
X137926533Y-74872208D01*
X137964628Y-74948398D01*
X138002723Y-74986494D01*
X138078914Y-75024589D01*
X138383676Y-75024589D01*
X137240819Y-74872208D02*
X137240819Y-75405541D01*
X137431295Y-74567446D02*
X137621771Y-75138875D01*
X137126533Y-75138875D01*
X136250342Y-74567446D02*
X136936057Y-75596017D01*
X135717009Y-74986494D02*
X135602723Y-75024589D01*
X135564628Y-75062684D01*
X135526533Y-75138875D01*
X135526533Y-75253160D01*
X135564628Y-75329351D01*
X135602723Y-75367446D01*
X135678914Y-75405541D01*
X135983676Y-75405541D01*
X135983676Y-74605541D01*
X135717009Y-74605541D01*
X135640819Y-74643637D01*
X135602723Y-74681732D01*
X135564628Y-74757922D01*
X135564628Y-74834113D01*
X135602723Y-74910303D01*
X135640819Y-74948398D01*
X135717009Y-74986494D01*
X135983676Y-74986494D01*
X134840819Y-74872208D02*
X134840819Y-75405541D01*
X135183676Y-74872208D02*
X135183676Y-75291256D01*
X135145580Y-75367446D01*
X135069390Y-75405541D01*
X134955104Y-75405541D01*
X134878914Y-75367446D01*
X134840819Y-75329351D01*
X134536057Y-74872208D02*
X134117009Y-74872208D01*
X134536057Y-75405541D01*
X134117009Y-75405541D01*
X133507485Y-75367446D02*
X133583676Y-75405541D01*
X133736057Y-75405541D01*
X133812247Y-75367446D01*
X133850342Y-75291256D01*
X133850342Y-74986494D01*
X133812247Y-74910303D01*
X133736057Y-74872208D01*
X133583676Y-74872208D01*
X133507485Y-74910303D01*
X133469390Y-74986494D01*
X133469390Y-75062684D01*
X133850342Y-75138875D01*
X133126533Y-75405541D02*
X133126533Y-74872208D01*
X133126533Y-75024589D02*
X133088438Y-74948398D01*
X133050342Y-74910303D01*
X132974152Y-74872208D01*
X132897961Y-74872208D01*
X131755104Y-74986494D02*
X131640819Y-75024589D01*
X131602723Y-75062684D01*
X131564628Y-75138875D01*
X131564628Y-75253160D01*
X131602723Y-75329351D01*
X131640819Y-75367446D01*
X131717009Y-75405541D01*
X132021771Y-75405541D01*
X132021771Y-74605541D01*
X131755104Y-74605541D01*
X131678914Y-74643637D01*
X131640819Y-74681732D01*
X131602723Y-74757922D01*
X131602723Y-74834113D01*
X131640819Y-74910303D01*
X131678914Y-74948398D01*
X131755104Y-74986494D01*
X132021771Y-74986494D01*
X128649238Y-75075370D02*
X128268285Y-75075370D01*
X128725428Y-75303941D02*
X128458761Y-74503941D01*
X128192095Y-75303941D01*
X127925428Y-75303941D02*
X127925428Y-74503941D01*
X127734952Y-74503941D01*
X127620666Y-74542037D01*
X127544476Y-74618227D01*
X127506380Y-74694417D01*
X127468285Y-74846798D01*
X127468285Y-74961084D01*
X127506380Y-75113465D01*
X127544476Y-75189656D01*
X127620666Y-75265846D01*
X127734952Y-75303941D01*
X127925428Y-75303941D01*
X126668285Y-75227751D02*
X126706380Y-75265846D01*
X126820666Y-75303941D01*
X126896857Y-75303941D01*
X127011142Y-75265846D01*
X127087333Y-75189656D01*
X127125428Y-75113465D01*
X127163523Y-74961084D01*
X127163523Y-74846798D01*
X127125428Y-74694417D01*
X127087333Y-74618227D01*
X127011142Y-74542037D01*
X126896857Y-74503941D01*
X126820666Y-74503941D01*
X126706380Y-74542037D01*
X126668285Y-74580132D01*
X125868285Y-75303941D02*
X126134952Y-74922989D01*
X126325428Y-75303941D02*
X126325428Y-74503941D01*
X126020666Y-74503941D01*
X125944476Y-74542037D01*
X125906380Y-74580132D01*
X125868285Y-74656322D01*
X125868285Y-74770608D01*
X125906380Y-74846798D01*
X125944476Y-74884894D01*
X126020666Y-74922989D01*
X126325428Y-74922989D01*
X125525428Y-74884894D02*
X125258761Y-74884894D01*
X125144476Y-75303941D02*
X125525428Y-75303941D01*
X125525428Y-74503941D01*
X125144476Y-74503941D01*
X124534952Y-74884894D02*
X124801619Y-74884894D01*
X124801619Y-75303941D02*
X124801619Y-74503941D01*
X124420666Y-74503941D01*
X138949123Y-92474437D02*
X139025314Y-92436341D01*
X139139600Y-92436341D01*
X139253885Y-92474437D01*
X139330076Y-92550627D01*
X139368171Y-92626817D01*
X139406266Y-92779198D01*
X139406266Y-92893484D01*
X139368171Y-93045865D01*
X139330076Y-93122056D01*
X139253885Y-93198246D01*
X139139600Y-93236341D01*
X139063409Y-93236341D01*
X138949123Y-93198246D01*
X138911028Y-93160151D01*
X138911028Y-92893484D01*
X139063409Y-92893484D01*
X138568171Y-93236341D02*
X138568171Y-92436341D01*
X138111028Y-93236341D01*
X138111028Y-92436341D01*
X137730076Y-93236341D02*
X137730076Y-92436341D01*
X137539600Y-92436341D01*
X137425314Y-92474437D01*
X137349123Y-92550627D01*
X137311028Y-92626817D01*
X137272933Y-92779198D01*
X137272933Y-92893484D01*
X137311028Y-93045865D01*
X137349123Y-93122056D01*
X137425314Y-93198246D01*
X137539600Y-93236341D01*
X137730076Y-93236341D01*
X125944323Y-79723637D02*
X126020514Y-79685541D01*
X126134800Y-79685541D01*
X126249085Y-79723637D01*
X126325276Y-79799827D01*
X126363371Y-79876017D01*
X126401466Y-80028398D01*
X126401466Y-80142684D01*
X126363371Y-80295065D01*
X126325276Y-80371256D01*
X126249085Y-80447446D01*
X126134800Y-80485541D01*
X126058609Y-80485541D01*
X125944323Y-80447446D01*
X125906228Y-80409351D01*
X125906228Y-80142684D01*
X126058609Y-80142684D01*
X125563371Y-80485541D02*
X125563371Y-79685541D01*
X125106228Y-80485541D01*
X125106228Y-79685541D01*
X124725276Y-80485541D02*
X124725276Y-79685541D01*
X124534800Y-79685541D01*
X124420514Y-79723637D01*
X124344323Y-79799827D01*
X124306228Y-79876017D01*
X124268133Y-80028398D01*
X124268133Y-80142684D01*
X124306228Y-80295065D01*
X124344323Y-80371256D01*
X124420514Y-80447446D01*
X124534800Y-80485541D01*
X124725276Y-80485541D01*
X139247200Y-102582837D02*
X139313866Y-102549503D01*
X139413866Y-102549503D01*
X139513866Y-102582837D01*
X139580533Y-102649503D01*
X139613866Y-102716170D01*
X139647200Y-102849503D01*
X139647200Y-102949503D01*
X139613866Y-103082837D01*
X139580533Y-103149503D01*
X139513866Y-103216170D01*
X139413866Y-103249503D01*
X139347200Y-103249503D01*
X139247200Y-103216170D01*
X139213866Y-103182837D01*
X139213866Y-102949503D01*
X139347200Y-102949503D01*
X138913866Y-103249503D02*
X138913866Y-102549503D01*
X138647200Y-102549503D01*
X138580533Y-102582837D01*
X138547200Y-102616170D01*
X138513866Y-102682837D01*
X138513866Y-102782837D01*
X138547200Y-102849503D01*
X138580533Y-102882837D01*
X138647200Y-102916170D01*
X138913866Y-102916170D01*
X137847200Y-103249503D02*
X138247200Y-103249503D01*
X138047200Y-103249503D02*
X138047200Y-102549503D01*
X138113866Y-102649503D01*
X138180533Y-102716170D01*
X138247200Y-102749503D01*
X137613866Y-102549503D02*
X137180533Y-102549503D01*
X137413866Y-102816170D01*
X137313866Y-102816170D01*
X137247200Y-102849503D01*
X137213866Y-102882837D01*
X137180533Y-102949503D01*
X137180533Y-103116170D01*
X137213866Y-103182837D01*
X137247200Y-103216170D01*
X137313866Y-103249503D01*
X137513866Y-103249503D01*
X137580533Y-103216170D01*
X137613866Y-103182837D01*
X136380533Y-102516170D02*
X136980533Y-103416170D01*
X135813866Y-103249503D02*
X136147200Y-103249503D01*
X136147200Y-102549503D01*
X135580533Y-102882837D02*
X135347200Y-102882837D01*
X135247200Y-103249503D02*
X135580533Y-103249503D01*
X135580533Y-102549503D01*
X135247200Y-102549503D01*
X134947200Y-103249503D02*
X134947200Y-102549503D01*
X134780533Y-102549503D01*
X134680533Y-102582837D01*
X134613866Y-102649503D01*
X134580533Y-102716170D01*
X134547200Y-102849503D01*
X134547200Y-102949503D01*
X134580533Y-103082837D01*
X134613866Y-103149503D01*
X134680533Y-103216170D01*
X134780533Y-103249503D01*
X134947200Y-103249503D01*
X133947200Y-102782837D02*
X133947200Y-103349503D01*
X133980533Y-103416170D01*
X134013866Y-103449503D01*
X134080533Y-103482837D01*
X134180533Y-103482837D01*
X134247200Y-103449503D01*
X133947200Y-103216170D02*
X134013866Y-103249503D01*
X134147200Y-103249503D01*
X134213866Y-103216170D01*
X134247200Y-103182837D01*
X134280533Y-103116170D01*
X134280533Y-102916170D01*
X134247200Y-102849503D01*
X134213866Y-102816170D01*
X134147200Y-102782837D01*
X134013866Y-102782837D01*
X133947200Y-102816170D01*
X133613866Y-103249503D02*
X133613866Y-102782837D01*
X133613866Y-102916170D02*
X133580533Y-102849503D01*
X133547200Y-102816170D01*
X133480533Y-102782837D01*
X133413866Y-102782837D01*
X132913866Y-103216170D02*
X132980533Y-103249503D01*
X133113866Y-103249503D01*
X133180533Y-103216170D01*
X133213866Y-103149503D01*
X133213866Y-102882837D01*
X133180533Y-102816170D01*
X133113866Y-102782837D01*
X132980533Y-102782837D01*
X132913866Y-102816170D01*
X132880533Y-102882837D01*
X132880533Y-102949503D01*
X133213866Y-103016170D01*
X132313866Y-103216170D02*
X132380533Y-103249503D01*
X132513866Y-103249503D01*
X132580533Y-103216170D01*
X132613866Y-103149503D01*
X132613866Y-102882837D01*
X132580533Y-102816170D01*
X132513866Y-102782837D01*
X132380533Y-102782837D01*
X132313866Y-102816170D01*
X132280533Y-102882837D01*
X132280533Y-102949503D01*
X132613866Y-103016170D01*
X131980533Y-102782837D02*
X131980533Y-103249503D01*
X131980533Y-102849503D02*
X131947200Y-102816170D01*
X131880533Y-102782837D01*
X131780533Y-102782837D01*
X131713866Y-102816170D01*
X131680533Y-102882837D01*
X131680533Y-103249503D01*
X138466076Y-149932379D02*
X138180361Y-150027617D01*
X138085123Y-150122856D01*
X137989885Y-150313332D01*
X137989885Y-150599046D01*
X138085123Y-150789522D01*
X138180361Y-150884760D01*
X138370838Y-150979998D01*
X139132742Y-150979998D01*
X139132742Y-148979998D01*
X138466076Y-148979998D01*
X138275600Y-149075237D01*
X138180361Y-149170475D01*
X138085123Y-149360951D01*
X138085123Y-149551427D01*
X138180361Y-149741903D01*
X138275600Y-149837141D01*
X138466076Y-149932379D01*
X139132742Y-149932379D01*
X136275600Y-150979998D02*
X136275600Y-149932379D01*
X136370838Y-149741903D01*
X136561314Y-149646665D01*
X136942266Y-149646665D01*
X137132742Y-149741903D01*
X136275600Y-150884760D02*
X136466076Y-150979998D01*
X136942266Y-150979998D01*
X137132742Y-150884760D01*
X137227980Y-150694284D01*
X137227980Y-150503808D01*
X137132742Y-150313332D01*
X136942266Y-150218094D01*
X136466076Y-150218094D01*
X136275600Y-150122856D01*
X135608933Y-149646665D02*
X134847028Y-149646665D01*
X135323219Y-148979998D02*
X135323219Y-150694284D01*
X135227980Y-150884760D01*
X135037504Y-150979998D01*
X134847028Y-150979998D01*
X133418457Y-150884760D02*
X133608933Y-150979998D01*
X133989885Y-150979998D01*
X134180361Y-150884760D01*
X134275600Y-150694284D01*
X134275600Y-149932379D01*
X134180361Y-149741903D01*
X133989885Y-149646665D01*
X133608933Y-149646665D01*
X133418457Y-149741903D01*
X133323219Y-149932379D01*
X133323219Y-150122856D01*
X134275600Y-150313332D01*
X132466076Y-150979998D02*
X132466076Y-149646665D01*
X132466076Y-150027617D02*
X132370838Y-149837141D01*
X132275600Y-149741903D01*
X132085123Y-149646665D01*
X131894647Y-149646665D01*
X131227980Y-150979998D02*
X131227980Y-149646665D01*
X131227980Y-148979998D02*
X131323219Y-149075237D01*
X131227980Y-149170475D01*
X131132742Y-149075237D01*
X131227980Y-148979998D01*
X131227980Y-149170475D01*
X129418457Y-150979998D02*
X129418457Y-149932379D01*
X129513695Y-149741903D01*
X129704171Y-149646665D01*
X130085123Y-149646665D01*
X130275600Y-149741903D01*
X129418457Y-150884760D02*
X129608933Y-150979998D01*
X130085123Y-150979998D01*
X130275600Y-150884760D01*
X130370838Y-150694284D01*
X130370838Y-150503808D01*
X130275600Y-150313332D01*
X130085123Y-150218094D01*
X129608933Y-150218094D01*
X129418457Y-150122856D01*
X111305980Y-130862628D02*
X111448838Y-130815009D01*
X111496457Y-130767390D01*
X111544076Y-130672152D01*
X111544076Y-130529295D01*
X111496457Y-130434057D01*
X111448838Y-130386438D01*
X111353600Y-130338819D01*
X110972647Y-130338819D01*
X110972647Y-131338819D01*
X111305980Y-131338819D01*
X111401219Y-131291200D01*
X111448838Y-131243580D01*
X111496457Y-131148342D01*
X111496457Y-131053104D01*
X111448838Y-130957866D01*
X111401219Y-130910247D01*
X111305980Y-130862628D01*
X110972647Y-130862628D01*
X111972647Y-130719771D02*
X112734552Y-130719771D01*
X112353600Y-130338819D02*
X112353600Y-131100723D01*
X138745580Y-77132837D02*
X138821771Y-77094741D01*
X138936057Y-77094741D01*
X139050342Y-77132837D01*
X139126533Y-77209027D01*
X139164628Y-77285217D01*
X139202723Y-77437598D01*
X139202723Y-77551884D01*
X139164628Y-77704265D01*
X139126533Y-77780456D01*
X139050342Y-77856646D01*
X138936057Y-77894741D01*
X138859866Y-77894741D01*
X138745580Y-77856646D01*
X138707485Y-77818551D01*
X138707485Y-77551884D01*
X138859866Y-77551884D01*
X138364628Y-77894741D02*
X138364628Y-77094741D01*
X138059866Y-77094741D01*
X137983676Y-77132837D01*
X137945580Y-77170932D01*
X137907485Y-77247122D01*
X137907485Y-77361408D01*
X137945580Y-77437598D01*
X137983676Y-77475694D01*
X138059866Y-77513789D01*
X138364628Y-77513789D01*
X137183676Y-77094741D02*
X137564628Y-77094741D01*
X137602723Y-77475694D01*
X137564628Y-77437598D01*
X137488438Y-77399503D01*
X137297961Y-77399503D01*
X137221771Y-77437598D01*
X137183676Y-77475694D01*
X137145580Y-77551884D01*
X137145580Y-77742360D01*
X137183676Y-77818551D01*
X137221771Y-77856646D01*
X137297961Y-77894741D01*
X137488438Y-77894741D01*
X137564628Y-77856646D01*
X137602723Y-77818551D01*
X136231295Y-77056646D02*
X136917009Y-78085217D01*
X135697961Y-77475694D02*
X135583676Y-77513789D01*
X135545580Y-77551884D01*
X135507485Y-77628075D01*
X135507485Y-77742360D01*
X135545580Y-77818551D01*
X135583676Y-77856646D01*
X135659866Y-77894741D01*
X135964628Y-77894741D01*
X135964628Y-77094741D01*
X135697961Y-77094741D01*
X135621771Y-77132837D01*
X135583676Y-77170932D01*
X135545580Y-77247122D01*
X135545580Y-77323313D01*
X135583676Y-77399503D01*
X135621771Y-77437598D01*
X135697961Y-77475694D01*
X135964628Y-77475694D01*
X135050342Y-77894741D02*
X135126533Y-77856646D01*
X135164628Y-77818551D01*
X135202723Y-77742360D01*
X135202723Y-77513789D01*
X135164628Y-77437598D01*
X135126533Y-77399503D01*
X135050342Y-77361408D01*
X134936057Y-77361408D01*
X134859866Y-77399503D01*
X134821771Y-77437598D01*
X134783676Y-77513789D01*
X134783676Y-77742360D01*
X134821771Y-77818551D01*
X134859866Y-77856646D01*
X134936057Y-77894741D01*
X135050342Y-77894741D01*
X134555104Y-77361408D02*
X134250342Y-77361408D01*
X134440819Y-77094741D02*
X134440819Y-77780456D01*
X134402723Y-77856646D01*
X134326533Y-77894741D01*
X134250342Y-77894741D01*
X133640819Y-77894741D02*
X133640819Y-77475694D01*
X133678914Y-77399503D01*
X133755104Y-77361408D01*
X133907485Y-77361408D01*
X133983676Y-77399503D01*
X133640819Y-77856646D02*
X133717009Y-77894741D01*
X133907485Y-77894741D01*
X133983676Y-77856646D01*
X134021771Y-77780456D01*
X134021771Y-77704265D01*
X133983676Y-77628075D01*
X133907485Y-77589979D01*
X133717009Y-77589979D01*
X133640819Y-77551884D01*
X134021771Y-77170932D02*
X133983676Y-77132837D01*
X133907485Y-77094741D01*
X133755104Y-77170932D01*
X133678914Y-77132837D01*
X133640819Y-77094741D01*
X133145580Y-77894741D02*
X133221771Y-77856646D01*
X133259866Y-77818551D01*
X133297961Y-77742360D01*
X133297961Y-77513789D01*
X133259866Y-77437598D01*
X133221771Y-77399503D01*
X133145580Y-77361408D01*
X133031295Y-77361408D01*
X132955104Y-77399503D01*
X132917009Y-77437598D01*
X132878914Y-77513789D01*
X132878914Y-77742360D01*
X132917009Y-77818551D01*
X132955104Y-77856646D01*
X133031295Y-77894741D01*
X133145580Y-77894741D01*
X131964628Y-77666170D02*
X131583676Y-77666170D01*
X132040819Y-77894741D02*
X131774152Y-77094741D01*
X131507485Y-77894741D01*
X129343733Y-110202837D02*
X129410400Y-110169503D01*
X129510400Y-110169503D01*
X129610400Y-110202837D01*
X129677066Y-110269503D01*
X129710400Y-110336170D01*
X129743733Y-110469503D01*
X129743733Y-110569503D01*
X129710400Y-110702837D01*
X129677066Y-110769503D01*
X129610400Y-110836170D01*
X129510400Y-110869503D01*
X129443733Y-110869503D01*
X129343733Y-110836170D01*
X129310400Y-110802837D01*
X129310400Y-110569503D01*
X129443733Y-110569503D01*
X128643733Y-110869503D02*
X129043733Y-110869503D01*
X128843733Y-110869503D02*
X128843733Y-110169503D01*
X128910400Y-110269503D01*
X128977066Y-110336170D01*
X129043733Y-110369503D01*
X128043733Y-110169503D02*
X128177066Y-110169503D01*
X128243733Y-110202837D01*
X128277066Y-110236170D01*
X128343733Y-110336170D01*
X128377066Y-110469503D01*
X128377066Y-110736170D01*
X128343733Y-110802837D01*
X128310400Y-110836170D01*
X128243733Y-110869503D01*
X128110400Y-110869503D01*
X128043733Y-110836170D01*
X128010400Y-110802837D01*
X127977066Y-110736170D01*
X127977066Y-110569503D01*
X128010400Y-110502837D01*
X128043733Y-110469503D01*
X128110400Y-110436170D01*
X128243733Y-110436170D01*
X128310400Y-110469503D01*
X128343733Y-110502837D01*
X128377066Y-110569503D01*
X127177066Y-110136170D02*
X127777066Y-111036170D01*
X126943733Y-110869503D02*
X126943733Y-110169503D01*
X126610400Y-110869503D02*
X126610400Y-110169503D01*
X126443733Y-110169503D01*
X126343733Y-110202837D01*
X126277066Y-110269503D01*
X126243733Y-110336170D01*
X126210400Y-110469503D01*
X126210400Y-110569503D01*
X126243733Y-110702837D01*
X126277066Y-110769503D01*
X126343733Y-110836170D01*
X126443733Y-110869503D01*
X126610400Y-110869503D01*
X125510400Y-110802837D02*
X125543733Y-110836170D01*
X125643733Y-110869503D01*
X125710400Y-110869503D01*
X125810400Y-110836170D01*
X125877066Y-110769503D01*
X125910400Y-110702837D01*
X125943733Y-110569503D01*
X125943733Y-110469503D01*
X125910400Y-110336170D01*
X125877066Y-110269503D01*
X125810400Y-110202837D01*
X125710400Y-110169503D01*
X125643733Y-110169503D01*
X125543733Y-110202837D01*
X125510400Y-110236170D01*
X124843733Y-110869503D02*
X125243733Y-110869503D01*
X125043733Y-110869503D02*
X125043733Y-110169503D01*
X125110400Y-110269503D01*
X125177066Y-110336170D01*
X125243733Y-110369503D01*
X124177066Y-110869503D02*
X124577066Y-110869503D01*
X124377066Y-110869503D02*
X124377066Y-110169503D01*
X124443733Y-110269503D01*
X124510400Y-110336170D01*
X124577066Y-110369503D01*
X113251428Y-62952380D02*
X113251428Y-63666666D01*
X113299047Y-63809523D01*
X113394285Y-63904761D01*
X113537142Y-63952380D01*
X113632380Y-63952380D01*
X112346666Y-63285714D02*
X112346666Y-63952380D01*
X112775238Y-63285714D02*
X112775238Y-63809523D01*
X112727619Y-63904761D01*
X112632380Y-63952380D01*
X112489523Y-63952380D01*
X112394285Y-63904761D01*
X112346666Y-63857142D01*
X111870476Y-63952380D02*
X111870476Y-63285714D01*
X111870476Y-63380952D02*
X111822857Y-63333333D01*
X111727619Y-63285714D01*
X111584761Y-63285714D01*
X111489523Y-63333333D01*
X111441904Y-63428571D01*
X111441904Y-63952380D01*
X111441904Y-63428571D02*
X111394285Y-63333333D01*
X111299047Y-63285714D01*
X111156190Y-63285714D01*
X111060952Y-63333333D01*
X111013333Y-63428571D01*
X111013333Y-63952380D01*
X110537142Y-63285714D02*
X110537142Y-64285714D01*
X110537142Y-63333333D02*
X110441904Y-63285714D01*
X110251428Y-63285714D01*
X110156190Y-63333333D01*
X110108571Y-63380952D01*
X110060952Y-63476190D01*
X110060952Y-63761904D01*
X110108571Y-63857142D01*
X110156190Y-63904761D01*
X110251428Y-63952380D01*
X110441904Y-63952380D01*
X110537142Y-63904761D01*
X109251428Y-63904761D02*
X109346666Y-63952380D01*
X109537142Y-63952380D01*
X109632380Y-63904761D01*
X109680000Y-63809523D01*
X109680000Y-63428571D01*
X109632380Y-63333333D01*
X109537142Y-63285714D01*
X109346666Y-63285714D01*
X109251428Y-63333333D01*
X109203809Y-63428571D01*
X109203809Y-63523809D01*
X109680000Y-63619047D01*
X108775238Y-63952380D02*
X108775238Y-63285714D01*
X108775238Y-63476190D02*
X108727619Y-63380952D01*
X108680000Y-63333333D01*
X108584761Y-63285714D01*
X108489523Y-63285714D01*
X107537142Y-63285714D02*
X107156190Y-63285714D01*
X107394285Y-63952380D02*
X107394285Y-63095238D01*
X107346666Y-63000000D01*
X107251428Y-62952380D01*
X107156190Y-62952380D01*
X106680000Y-63952380D02*
X106775238Y-63904761D01*
X106822857Y-63857142D01*
X106870476Y-63761904D01*
X106870476Y-63476190D01*
X106822857Y-63380952D01*
X106775238Y-63333333D01*
X106680000Y-63285714D01*
X106537142Y-63285714D01*
X106441904Y-63333333D01*
X106394285Y-63380952D01*
X106346666Y-63476190D01*
X106346666Y-63761904D01*
X106394285Y-63857142D01*
X106441904Y-63904761D01*
X106537142Y-63952380D01*
X106680000Y-63952380D01*
X105918095Y-63952380D02*
X105918095Y-63285714D01*
X105918095Y-63476190D02*
X105870476Y-63380952D01*
X105822857Y-63333333D01*
X105727619Y-63285714D01*
X105632380Y-63285714D01*
X104537142Y-63952380D02*
X104537142Y-62952380D01*
X104537142Y-63333333D02*
X104441904Y-63285714D01*
X104251428Y-63285714D01*
X104156190Y-63333333D01*
X104108571Y-63380952D01*
X104060952Y-63476190D01*
X104060952Y-63761904D01*
X104108571Y-63857142D01*
X104156190Y-63904761D01*
X104251428Y-63952380D01*
X104441904Y-63952380D01*
X104537142Y-63904761D01*
X103203809Y-63952380D02*
X103203809Y-63428571D01*
X103251428Y-63333333D01*
X103346666Y-63285714D01*
X103537142Y-63285714D01*
X103632380Y-63333333D01*
X103203809Y-63904761D02*
X103299047Y-63952380D01*
X103537142Y-63952380D01*
X103632380Y-63904761D01*
X103680000Y-63809523D01*
X103680000Y-63714285D01*
X103632380Y-63619047D01*
X103537142Y-63571428D01*
X103299047Y-63571428D01*
X103203809Y-63523809D01*
X102870476Y-63285714D02*
X102489523Y-63285714D01*
X102727619Y-62952380D02*
X102727619Y-63809523D01*
X102680000Y-63904761D01*
X102584761Y-63952380D01*
X102489523Y-63952380D01*
X102299047Y-63285714D02*
X101918095Y-63285714D01*
X102156190Y-62952380D02*
X102156190Y-63809523D01*
X102108571Y-63904761D01*
X102013333Y-63952380D01*
X101918095Y-63952380D01*
X101203809Y-63904761D02*
X101299047Y-63952380D01*
X101489523Y-63952380D01*
X101584761Y-63904761D01*
X101632380Y-63809523D01*
X101632380Y-63428571D01*
X101584761Y-63333333D01*
X101489523Y-63285714D01*
X101299047Y-63285714D01*
X101203809Y-63333333D01*
X101156190Y-63428571D01*
X101156190Y-63523809D01*
X101632380Y-63619047D01*
X100727619Y-63952380D02*
X100727619Y-63285714D01*
X100727619Y-63476190D02*
X100680000Y-63380952D01*
X100632380Y-63333333D01*
X100537142Y-63285714D01*
X100441904Y-63285714D01*
X100203809Y-63285714D02*
X99965714Y-63952380D01*
X99727619Y-63285714D02*
X99965714Y-63952380D01*
X100060952Y-64190476D01*
X100108571Y-64238095D01*
X100203809Y-64285714D01*
X126096723Y-92474437D02*
X126172914Y-92436341D01*
X126287200Y-92436341D01*
X126401485Y-92474437D01*
X126477676Y-92550627D01*
X126515771Y-92626817D01*
X126553866Y-92779198D01*
X126553866Y-92893484D01*
X126515771Y-93045865D01*
X126477676Y-93122056D01*
X126401485Y-93198246D01*
X126287200Y-93236341D01*
X126211009Y-93236341D01*
X126096723Y-93198246D01*
X126058628Y-93160151D01*
X126058628Y-92893484D01*
X126211009Y-92893484D01*
X125715771Y-93236341D02*
X125715771Y-92436341D01*
X125258628Y-93236341D01*
X125258628Y-92436341D01*
X124877676Y-93236341D02*
X124877676Y-92436341D01*
X124687200Y-92436341D01*
X124572914Y-92474437D01*
X124496723Y-92550627D01*
X124458628Y-92626817D01*
X124420533Y-92779198D01*
X124420533Y-92893484D01*
X124458628Y-93045865D01*
X124496723Y-93122056D01*
X124572914Y-93198246D01*
X124687200Y-93236341D01*
X124877676Y-93236341D01*
X139012247Y-69614437D02*
X139088438Y-69576341D01*
X139202723Y-69576341D01*
X139317009Y-69614437D01*
X139393200Y-69690627D01*
X139431295Y-69766817D01*
X139469390Y-69919198D01*
X139469390Y-70033484D01*
X139431295Y-70185865D01*
X139393200Y-70262056D01*
X139317009Y-70338246D01*
X139202723Y-70376341D01*
X139126533Y-70376341D01*
X139012247Y-70338246D01*
X138974152Y-70300151D01*
X138974152Y-70033484D01*
X139126533Y-70033484D01*
X138631295Y-70376341D02*
X138631295Y-69576341D01*
X138326533Y-69576341D01*
X138250342Y-69614437D01*
X138212247Y-69652532D01*
X138174152Y-69728722D01*
X138174152Y-69843008D01*
X138212247Y-69919198D01*
X138250342Y-69957294D01*
X138326533Y-69995389D01*
X138631295Y-69995389D01*
X137869390Y-69652532D02*
X137831295Y-69614437D01*
X137755104Y-69576341D01*
X137564628Y-69576341D01*
X137488438Y-69614437D01*
X137450342Y-69652532D01*
X137412247Y-69728722D01*
X137412247Y-69804913D01*
X137450342Y-69919198D01*
X137907485Y-70376341D01*
X137412247Y-70376341D01*
X136497961Y-69538246D02*
X137183676Y-70566817D01*
X136231295Y-70376341D02*
X136231295Y-69576341D01*
X136040819Y-69576341D01*
X135926533Y-69614437D01*
X135850342Y-69690627D01*
X135812247Y-69766817D01*
X135774152Y-69919198D01*
X135774152Y-70033484D01*
X135812247Y-70185865D01*
X135850342Y-70262056D01*
X135926533Y-70338246D01*
X136040819Y-70376341D01*
X136231295Y-70376341D01*
X135431295Y-70376341D02*
X135431295Y-69576341D01*
X134631295Y-69614437D02*
X134707485Y-69576341D01*
X134821771Y-69576341D01*
X134936057Y-69614437D01*
X135012247Y-69690627D01*
X135050342Y-69766817D01*
X135088438Y-69919198D01*
X135088438Y-70033484D01*
X135050342Y-70185865D01*
X135012247Y-70262056D01*
X134936057Y-70338246D01*
X134821771Y-70376341D01*
X134745580Y-70376341D01*
X134631295Y-70338246D01*
X134593200Y-70300151D01*
X134593200Y-70033484D01*
X134745580Y-70033484D01*
X133526533Y-70376341D02*
X133602723Y-70338246D01*
X133640819Y-70300151D01*
X133678914Y-70223960D01*
X133678914Y-69995389D01*
X133640819Y-69919198D01*
X133602723Y-69881103D01*
X133526533Y-69843008D01*
X133412247Y-69843008D01*
X133336057Y-69881103D01*
X133297961Y-69919198D01*
X133259866Y-69995389D01*
X133259866Y-70223960D01*
X133297961Y-70300151D01*
X133336057Y-70338246D01*
X133412247Y-70376341D01*
X133526533Y-70376341D01*
X132574152Y-69843008D02*
X132574152Y-70376341D01*
X132917009Y-69843008D02*
X132917009Y-70262056D01*
X132878914Y-70338246D01*
X132802723Y-70376341D01*
X132688438Y-70376341D01*
X132612247Y-70338246D01*
X132574152Y-70300151D01*
X132307485Y-69843008D02*
X132002723Y-69843008D01*
X132193200Y-69576341D02*
X132193200Y-70262056D01*
X132155104Y-70338246D01*
X132078914Y-70376341D01*
X132002723Y-70376341D01*
X131317009Y-70376341D02*
X131774152Y-70376341D01*
X131545580Y-70376341D02*
X131545580Y-69576341D01*
X131621771Y-69690627D01*
X131697961Y-69766817D01*
X131774152Y-69804913D01*
X131627238Y-94862037D02*
X131703428Y-94823941D01*
X131817714Y-94823941D01*
X131931999Y-94862037D01*
X132008190Y-94938227D01*
X132046285Y-95014417D01*
X132084380Y-95166798D01*
X132084380Y-95281084D01*
X132046285Y-95433465D01*
X132008190Y-95509656D01*
X131931999Y-95585846D01*
X131817714Y-95623941D01*
X131741523Y-95623941D01*
X131627238Y-95585846D01*
X131589142Y-95547751D01*
X131589142Y-95281084D01*
X131741523Y-95281084D01*
X131284380Y-94900132D02*
X131246285Y-94862037D01*
X131170095Y-94823941D01*
X130979619Y-94823941D01*
X130903428Y-94862037D01*
X130865333Y-94900132D01*
X130827238Y-94976322D01*
X130827238Y-95052513D01*
X130865333Y-95166798D01*
X131322476Y-95623941D01*
X130827238Y-95623941D01*
X130065333Y-95623941D02*
X130522476Y-95623941D01*
X130293904Y-95623941D02*
X130293904Y-94823941D01*
X130370095Y-94938227D01*
X130446285Y-95014417D01*
X130522476Y-95052513D01*
X129151047Y-94785846D02*
X129836761Y-95814417D01*
X128617714Y-95204894D02*
X128503428Y-95242989D01*
X128465333Y-95281084D01*
X128427238Y-95357275D01*
X128427238Y-95471560D01*
X128465333Y-95547751D01*
X128503428Y-95585846D01*
X128579619Y-95623941D01*
X128884380Y-95623941D01*
X128884380Y-94823941D01*
X128617714Y-94823941D01*
X128541523Y-94862037D01*
X128503428Y-94900132D01*
X128465333Y-94976322D01*
X128465333Y-95052513D01*
X128503428Y-95128703D01*
X128541523Y-95166798D01*
X128617714Y-95204894D01*
X128884380Y-95204894D01*
X127741523Y-95090608D02*
X127741523Y-95623941D01*
X128084380Y-95090608D02*
X128084380Y-95509656D01*
X128046285Y-95585846D01*
X127970095Y-95623941D01*
X127855809Y-95623941D01*
X127779619Y-95585846D01*
X127741523Y-95547751D01*
X127436761Y-95090608D02*
X127017714Y-95090608D01*
X127436761Y-95623941D01*
X127017714Y-95623941D01*
X126408190Y-95585846D02*
X126484380Y-95623941D01*
X126636761Y-95623941D01*
X126712952Y-95585846D01*
X126751047Y-95509656D01*
X126751047Y-95204894D01*
X126712952Y-95128703D01*
X126636761Y-95090608D01*
X126484380Y-95090608D01*
X126408190Y-95128703D01*
X126370095Y-95204894D01*
X126370095Y-95281084D01*
X126751047Y-95357275D01*
X126027238Y-95623941D02*
X126027238Y-95090608D01*
X126027238Y-95242989D02*
X125989142Y-95166798D01*
X125951047Y-95128703D01*
X125874857Y-95090608D01*
X125798666Y-95090608D01*
X124960571Y-95395370D02*
X124579619Y-95395370D01*
X125036761Y-95623941D02*
X124770095Y-94823941D01*
X124503428Y-95623941D01*
X126280876Y-69906494D02*
X126014209Y-69906494D01*
X125899923Y-70325541D02*
X126280876Y-70325541D01*
X126280876Y-69525541D01*
X125899923Y-69525541D01*
X125557066Y-70325541D02*
X125557066Y-69525541D01*
X125099923Y-70325541D01*
X125099923Y-69525541D01*
X155511428Y-104032857D02*
X154368571Y-104032857D01*
X154940000Y-103461428D02*
X154940000Y-104604285D01*
X130014438Y-84600437D02*
X130090628Y-84562341D01*
X130204914Y-84562341D01*
X130319200Y-84600437D01*
X130395390Y-84676627D01*
X130433485Y-84752817D01*
X130471580Y-84905198D01*
X130471580Y-85019484D01*
X130433485Y-85171865D01*
X130395390Y-85248056D01*
X130319200Y-85324246D01*
X130204914Y-85362341D01*
X130128723Y-85362341D01*
X130014438Y-85324246D01*
X129976342Y-85286151D01*
X129976342Y-85019484D01*
X130128723Y-85019484D01*
X129671580Y-84638532D02*
X129633485Y-84600437D01*
X129557295Y-84562341D01*
X129366819Y-84562341D01*
X129290628Y-84600437D01*
X129252533Y-84638532D01*
X129214438Y-84714722D01*
X129214438Y-84790913D01*
X129252533Y-84905198D01*
X129709676Y-85362341D01*
X129214438Y-85362341D01*
X128947771Y-84562341D02*
X128414438Y-84562341D01*
X128757295Y-85362341D01*
X127538247Y-84524246D02*
X128223961Y-85552817D01*
X127271580Y-84829008D02*
X127271580Y-85514722D01*
X127309676Y-85590913D01*
X127385866Y-85629008D01*
X127423961Y-85629008D01*
X127271580Y-84562341D02*
X127309676Y-84600437D01*
X127271580Y-84638532D01*
X127233485Y-84600437D01*
X127271580Y-84562341D01*
X127271580Y-84638532D01*
X126776342Y-85362341D02*
X126852533Y-85324246D01*
X126890628Y-85286151D01*
X126928723Y-85209960D01*
X126928723Y-84981389D01*
X126890628Y-84905198D01*
X126852533Y-84867103D01*
X126776342Y-84829008D01*
X126662057Y-84829008D01*
X126585866Y-84867103D01*
X126547771Y-84905198D01*
X126509676Y-84981389D01*
X126509676Y-85209960D01*
X126547771Y-85286151D01*
X126585866Y-85324246D01*
X126662057Y-85362341D01*
X126776342Y-85362341D01*
X126243009Y-84829008D02*
X126052533Y-85362341D01*
X125862057Y-84829008D02*
X126052533Y-85362341D01*
X126128723Y-85552817D01*
X126166819Y-85590913D01*
X126243009Y-85629008D01*
X125671580Y-84562341D02*
X125404914Y-85362341D01*
X125138247Y-84562341D01*
X124947771Y-85362341D02*
X124528723Y-84829008D01*
X124947771Y-84829008D02*
X124528723Y-85362341D01*
X161494972Y-82949763D02*
X161542591Y-82902144D01*
X161685448Y-82854525D01*
X161780686Y-82854525D01*
X161923543Y-82902144D01*
X162018781Y-82997382D01*
X162066400Y-83092620D01*
X162114019Y-83283096D01*
X162114019Y-83425953D01*
X162066400Y-83616429D01*
X162018781Y-83711667D01*
X161923543Y-83806906D01*
X161780686Y-83854525D01*
X161685448Y-83854525D01*
X161542591Y-83806906D01*
X161494972Y-83759286D01*
X107610704Y-73397408D02*
X107944038Y-73397408D01*
X108086895Y-73921217D02*
X107610704Y-73921217D01*
X107610704Y-72921217D01*
X108086895Y-72921217D01*
X110372609Y-73397408D02*
X110515466Y-73445027D01*
X110563085Y-73492646D01*
X110610704Y-73587884D01*
X110610704Y-73730741D01*
X110563085Y-73825979D01*
X110515466Y-73873598D01*
X110420228Y-73921217D01*
X110039276Y-73921217D01*
X110039276Y-72921217D01*
X110372609Y-72921217D01*
X110467847Y-72968837D01*
X110515466Y-73016456D01*
X110563085Y-73111694D01*
X110563085Y-73206932D01*
X110515466Y-73302170D01*
X110467847Y-73349789D01*
X110372609Y-73397408D01*
X110039276Y-73397408D01*
X113134514Y-73825979D02*
X113086895Y-73873598D01*
X112944038Y-73921217D01*
X112848800Y-73921217D01*
X112705942Y-73873598D01*
X112610704Y-73778360D01*
X112563085Y-73683122D01*
X112515466Y-73492646D01*
X112515466Y-73349789D01*
X112563085Y-73159313D01*
X112610704Y-73064075D01*
X112705942Y-72968837D01*
X112848800Y-72921217D01*
X112944038Y-72921217D01*
X113086895Y-72968837D01*
X113134514Y-73016456D01*
X138955123Y-82212837D02*
X139031314Y-82174741D01*
X139145600Y-82174741D01*
X139259885Y-82212837D01*
X139336076Y-82289027D01*
X139374171Y-82365217D01*
X139412266Y-82517598D01*
X139412266Y-82631884D01*
X139374171Y-82784265D01*
X139336076Y-82860456D01*
X139259885Y-82936646D01*
X139145600Y-82974741D01*
X139069409Y-82974741D01*
X138955123Y-82936646D01*
X138917028Y-82898551D01*
X138917028Y-82631884D01*
X139069409Y-82631884D01*
X138574171Y-82974741D02*
X138574171Y-82174741D01*
X138269409Y-82174741D01*
X138193219Y-82212837D01*
X138155123Y-82250932D01*
X138117028Y-82327122D01*
X138117028Y-82441408D01*
X138155123Y-82517598D01*
X138193219Y-82555694D01*
X138269409Y-82593789D01*
X138574171Y-82593789D01*
X137431314Y-82174741D02*
X137583695Y-82174741D01*
X137659885Y-82212837D01*
X137697980Y-82250932D01*
X137774171Y-82365217D01*
X137812266Y-82517598D01*
X137812266Y-82822360D01*
X137774171Y-82898551D01*
X137736076Y-82936646D01*
X137659885Y-82974741D01*
X137507504Y-82974741D01*
X137431314Y-82936646D01*
X137393219Y-82898551D01*
X137355123Y-82822360D01*
X137355123Y-82631884D01*
X137393219Y-82555694D01*
X137431314Y-82517598D01*
X137507504Y-82479503D01*
X137659885Y-82479503D01*
X137736076Y-82517598D01*
X137774171Y-82555694D01*
X137812266Y-82631884D01*
X136440838Y-82136646D02*
X137126552Y-83165217D01*
X135907504Y-82555694D02*
X135793219Y-82593789D01*
X135755123Y-82631884D01*
X135717028Y-82708075D01*
X135717028Y-82822360D01*
X135755123Y-82898551D01*
X135793219Y-82936646D01*
X135869409Y-82974741D01*
X136174171Y-82974741D01*
X136174171Y-82174741D01*
X135907504Y-82174741D01*
X135831314Y-82212837D01*
X135793219Y-82250932D01*
X135755123Y-82327122D01*
X135755123Y-82403313D01*
X135793219Y-82479503D01*
X135831314Y-82517598D01*
X135907504Y-82555694D01*
X136174171Y-82555694D01*
X135259885Y-82974741D02*
X135336076Y-82936646D01*
X135374171Y-82898551D01*
X135412266Y-82822360D01*
X135412266Y-82593789D01*
X135374171Y-82517598D01*
X135336076Y-82479503D01*
X135259885Y-82441408D01*
X135145600Y-82441408D01*
X135069409Y-82479503D01*
X135031314Y-82517598D01*
X134993219Y-82593789D01*
X134993219Y-82822360D01*
X135031314Y-82898551D01*
X135069409Y-82936646D01*
X135145600Y-82974741D01*
X135259885Y-82974741D01*
X134764647Y-82441408D02*
X134459885Y-82441408D01*
X134650361Y-82174741D02*
X134650361Y-82860456D01*
X134612266Y-82936646D01*
X134536076Y-82974741D01*
X134459885Y-82974741D01*
X133850361Y-82974741D02*
X133850361Y-82555694D01*
X133888457Y-82479503D01*
X133964647Y-82441408D01*
X134117028Y-82441408D01*
X134193219Y-82479503D01*
X133850361Y-82936646D02*
X133926552Y-82974741D01*
X134117028Y-82974741D01*
X134193219Y-82936646D01*
X134231314Y-82860456D01*
X134231314Y-82784265D01*
X134193219Y-82708075D01*
X134117028Y-82669979D01*
X133926552Y-82669979D01*
X133850361Y-82631884D01*
X134231314Y-82250932D02*
X134193219Y-82212837D01*
X134117028Y-82174741D01*
X133964647Y-82250932D01*
X133888457Y-82212837D01*
X133850361Y-82174741D01*
X133355123Y-82974741D02*
X133431314Y-82936646D01*
X133469409Y-82898551D01*
X133507504Y-82822360D01*
X133507504Y-82593789D01*
X133469409Y-82517598D01*
X133431314Y-82479503D01*
X133355123Y-82441408D01*
X133240838Y-82441408D01*
X133164647Y-82479503D01*
X133126552Y-82517598D01*
X133088457Y-82593789D01*
X133088457Y-82822360D01*
X133126552Y-82898551D01*
X133164647Y-82936646D01*
X133240838Y-82974741D01*
X133355123Y-82974741D01*
X131869409Y-82555694D02*
X131755123Y-82593789D01*
X131717028Y-82631884D01*
X131678933Y-82708075D01*
X131678933Y-82822360D01*
X131717028Y-82898551D01*
X131755123Y-82936646D01*
X131831314Y-82974741D01*
X132136076Y-82974741D01*
X132136076Y-82174741D01*
X131869409Y-82174741D01*
X131793219Y-82212837D01*
X131755123Y-82250932D01*
X131717028Y-82327122D01*
X131717028Y-82403313D01*
X131755123Y-82479503D01*
X131793219Y-82517598D01*
X131869409Y-82555694D01*
X132136076Y-82555694D01*
X139050723Y-67125237D02*
X139126914Y-67087141D01*
X139241200Y-67087141D01*
X139355485Y-67125237D01*
X139431676Y-67201427D01*
X139469771Y-67277617D01*
X139507866Y-67429998D01*
X139507866Y-67544284D01*
X139469771Y-67696665D01*
X139431676Y-67772856D01*
X139355485Y-67849046D01*
X139241200Y-67887141D01*
X139165009Y-67887141D01*
X139050723Y-67849046D01*
X139012628Y-67810951D01*
X139012628Y-67544284D01*
X139165009Y-67544284D01*
X138669771Y-67887141D02*
X138669771Y-67087141D01*
X138212628Y-67887141D01*
X138212628Y-67087141D01*
X137831676Y-67887141D02*
X137831676Y-67087141D01*
X137641200Y-67087141D01*
X137526914Y-67125237D01*
X137450723Y-67201427D01*
X137412628Y-67277617D01*
X137374533Y-67429998D01*
X137374533Y-67544284D01*
X137412628Y-67696665D01*
X137450723Y-67772856D01*
X137526914Y-67849046D01*
X137641200Y-67887141D01*
X137831676Y-67887141D01*
X108380400Y-134031219D02*
X108570876Y-134031219D01*
X108666114Y-133983600D01*
X108761352Y-133888361D01*
X108808971Y-133697885D01*
X108808971Y-133364552D01*
X108761352Y-133174076D01*
X108666114Y-133078838D01*
X108570876Y-133031219D01*
X108380400Y-133031219D01*
X108285161Y-133078838D01*
X108189923Y-133174076D01*
X108142304Y-133364552D01*
X108142304Y-133697885D01*
X108189923Y-133888361D01*
X108285161Y-133983600D01*
X108380400Y-134031219D01*
X109237542Y-134031219D02*
X109237542Y-133221695D01*
X109285161Y-133126457D01*
X109332780Y-133078838D01*
X109428019Y-133031219D01*
X109618495Y-133031219D01*
X109713733Y-133078838D01*
X109761352Y-133126457D01*
X109808971Y-133221695D01*
X109808971Y-134031219D01*
X110142304Y-134031219D02*
X110713733Y-134031219D01*
X110428019Y-133031219D02*
X110428019Y-134031219D01*
X111808971Y-133412171D02*
X112570876Y-133412171D01*
X112189923Y-133031219D02*
X112189923Y-133793123D01*
X139304323Y-84905237D02*
X139380514Y-84867141D01*
X139494800Y-84867141D01*
X139609085Y-84905237D01*
X139685276Y-84981427D01*
X139723371Y-85057617D01*
X139761466Y-85209998D01*
X139761466Y-85324284D01*
X139723371Y-85476665D01*
X139685276Y-85552856D01*
X139609085Y-85629046D01*
X139494800Y-85667141D01*
X139418609Y-85667141D01*
X139304323Y-85629046D01*
X139266228Y-85590951D01*
X139266228Y-85324284D01*
X139418609Y-85324284D01*
X138923371Y-85667141D02*
X138923371Y-84867141D01*
X138618609Y-84867141D01*
X138542419Y-84905237D01*
X138504323Y-84943332D01*
X138466228Y-85019522D01*
X138466228Y-85133808D01*
X138504323Y-85209998D01*
X138542419Y-85248094D01*
X138618609Y-85286189D01*
X138923371Y-85286189D01*
X138199561Y-84867141D02*
X137666228Y-84867141D01*
X138009085Y-85667141D01*
X136790038Y-84829046D02*
X137475752Y-85857617D01*
X136599561Y-85133808D02*
X136447180Y-85667141D01*
X136294800Y-85286189D01*
X136142419Y-85667141D01*
X135990038Y-85133808D01*
X135723371Y-85629046D02*
X135647180Y-85667141D01*
X135494800Y-85667141D01*
X135418609Y-85629046D01*
X135380514Y-85552856D01*
X135380514Y-85514760D01*
X135418609Y-85438570D01*
X135494800Y-85400475D01*
X135609085Y-85400475D01*
X135685276Y-85362379D01*
X135723371Y-85286189D01*
X135723371Y-85248094D01*
X135685276Y-85171903D01*
X135609085Y-85133808D01*
X135494800Y-85133808D01*
X135418609Y-85171903D01*
X135075752Y-84943332D02*
X135037657Y-84905237D01*
X134961466Y-84867141D01*
X134770990Y-84867141D01*
X134694800Y-84905237D01*
X134656704Y-84943332D01*
X134618609Y-85019522D01*
X134618609Y-85095713D01*
X134656704Y-85209998D01*
X135113847Y-85667141D01*
X134618609Y-85667141D01*
X134161466Y-85209998D02*
X134237657Y-85171903D01*
X134275752Y-85133808D01*
X134313847Y-85057617D01*
X134313847Y-85019522D01*
X134275752Y-84943332D01*
X134237657Y-84905237D01*
X134161466Y-84867141D01*
X134009085Y-84867141D01*
X133932895Y-84905237D01*
X133894800Y-84943332D01*
X133856704Y-85019522D01*
X133856704Y-85057617D01*
X133894800Y-85133808D01*
X133932895Y-85171903D01*
X134009085Y-85209998D01*
X134161466Y-85209998D01*
X134237657Y-85248094D01*
X134275752Y-85286189D01*
X134313847Y-85362379D01*
X134313847Y-85514760D01*
X134275752Y-85590951D01*
X134237657Y-85629046D01*
X134161466Y-85667141D01*
X134009085Y-85667141D01*
X133932895Y-85629046D01*
X133894800Y-85590951D01*
X133856704Y-85514760D01*
X133856704Y-85362379D01*
X133894800Y-85286189D01*
X133932895Y-85248094D01*
X134009085Y-85209998D01*
X133094800Y-85667141D02*
X133551942Y-85667141D01*
X133323371Y-85667141D02*
X133323371Y-84867141D01*
X133399561Y-84981427D01*
X133475752Y-85057617D01*
X133551942Y-85095713D01*
X132790038Y-84943332D02*
X132751942Y-84905237D01*
X132675752Y-84867141D01*
X132485276Y-84867141D01*
X132409085Y-84905237D01*
X132370990Y-84943332D01*
X132332895Y-85019522D01*
X132332895Y-85095713D01*
X132370990Y-85209998D01*
X132828133Y-85667141D01*
X132332895Y-85667141D01*
X131990038Y-85667141D02*
X131990038Y-85133808D01*
X131990038Y-84867141D02*
X132028133Y-84905237D01*
X131990038Y-84943332D01*
X131951942Y-84905237D01*
X131990038Y-84867141D01*
X131990038Y-84943332D01*
X131609085Y-85133808D02*
X131609085Y-85667141D01*
X131609085Y-85209998D02*
X131570990Y-85171903D01*
X131494800Y-85133808D01*
X131380514Y-85133808D01*
X131304323Y-85171903D01*
X131266228Y-85248094D01*
X131266228Y-85667141D01*
X132325657Y-100143637D02*
X132382800Y-100115065D01*
X132468514Y-100115065D01*
X132554228Y-100143637D01*
X132611371Y-100200779D01*
X132639942Y-100257922D01*
X132668514Y-100372208D01*
X132668514Y-100457922D01*
X132639942Y-100572208D01*
X132611371Y-100629351D01*
X132554228Y-100686494D01*
X132468514Y-100715065D01*
X132411371Y-100715065D01*
X132325657Y-100686494D01*
X132297085Y-100657922D01*
X132297085Y-100457922D01*
X132411371Y-100457922D01*
X131725657Y-100715065D02*
X132068514Y-100715065D01*
X131897085Y-100715065D02*
X131897085Y-100115065D01*
X131954228Y-100200779D01*
X132011371Y-100257922D01*
X132068514Y-100286494D01*
X131439942Y-100715065D02*
X131325657Y-100715065D01*
X131268514Y-100686494D01*
X131239942Y-100657922D01*
X131182800Y-100572208D01*
X131154228Y-100457922D01*
X131154228Y-100229351D01*
X131182800Y-100172208D01*
X131211371Y-100143637D01*
X131268514Y-100115065D01*
X131382800Y-100115065D01*
X131439942Y-100143637D01*
X131468514Y-100172208D01*
X131497085Y-100229351D01*
X131497085Y-100372208D01*
X131468514Y-100429351D01*
X131439942Y-100457922D01*
X131382800Y-100486494D01*
X131268514Y-100486494D01*
X131211371Y-100457922D01*
X131182800Y-100429351D01*
X131154228Y-100372208D01*
X130468514Y-100086494D02*
X130982800Y-100857922D01*
X130268514Y-100715065D02*
X130268514Y-100115065D01*
X130068514Y-100543637D01*
X129868514Y-100115065D01*
X129868514Y-100715065D01*
X129582800Y-100715065D02*
X129582800Y-100115065D01*
X128954228Y-100657922D02*
X128982800Y-100686494D01*
X129068514Y-100715065D01*
X129125657Y-100715065D01*
X129211371Y-100686494D01*
X129268514Y-100629351D01*
X129297085Y-100572208D01*
X129325657Y-100457922D01*
X129325657Y-100372208D01*
X129297085Y-100257922D01*
X129268514Y-100200779D01*
X129211371Y-100143637D01*
X129125657Y-100115065D01*
X129068514Y-100115065D01*
X128982800Y-100143637D01*
X128954228Y-100172208D01*
X127982800Y-100686494D02*
X128039942Y-100715065D01*
X128154228Y-100715065D01*
X128211371Y-100686494D01*
X128239942Y-100657922D01*
X128268514Y-100600779D01*
X128268514Y-100429351D01*
X128239942Y-100372208D01*
X128211371Y-100343637D01*
X128154228Y-100315065D01*
X128039942Y-100315065D01*
X127982800Y-100343637D01*
X127639942Y-100715065D02*
X127697085Y-100686494D01*
X127725657Y-100629351D01*
X127725657Y-100115065D01*
X127411371Y-100715065D02*
X127411371Y-100115065D01*
X127354228Y-100486494D02*
X127182800Y-100715065D01*
X127182800Y-100315065D02*
X127411371Y-100543637D01*
X126468514Y-100715065D02*
X126468514Y-100115065D01*
X126182800Y-100715065D02*
X126182800Y-100115065D01*
X126039942Y-100115065D01*
X125954228Y-100143637D01*
X125897085Y-100200779D01*
X125868514Y-100257922D01*
X125839942Y-100372208D01*
X125839942Y-100457922D01*
X125868514Y-100572208D01*
X125897085Y-100629351D01*
X125954228Y-100686494D01*
X126039942Y-100715065D01*
X126182800Y-100715065D01*
X125239942Y-100657922D02*
X125268514Y-100686494D01*
X125354228Y-100715065D01*
X125411371Y-100715065D01*
X125497085Y-100686494D01*
X125554228Y-100629351D01*
X125582800Y-100572208D01*
X125611371Y-100457922D01*
X125611371Y-100372208D01*
X125582800Y-100257922D01*
X125554228Y-100200779D01*
X125497085Y-100143637D01*
X125411371Y-100115065D01*
X125354228Y-100115065D01*
X125268514Y-100143637D01*
X125239942Y-100172208D01*
X124668514Y-100715065D02*
X125011371Y-100715065D01*
X124839942Y-100715065D02*
X124839942Y-100115065D01*
X124897085Y-100200779D01*
X124954228Y-100257922D01*
X125011371Y-100286494D01*
X124439942Y-100172208D02*
X124411371Y-100143637D01*
X124354228Y-100115065D01*
X124211371Y-100115065D01*
X124154228Y-100143637D01*
X124125657Y-100172208D01*
X124097085Y-100229351D01*
X124097085Y-100286494D01*
X124125657Y-100372208D01*
X124468514Y-100715065D01*
X124097085Y-100715065D01*
X138872704Y-89782037D02*
X138948895Y-89743941D01*
X139063180Y-89743941D01*
X139177466Y-89782037D01*
X139253657Y-89858227D01*
X139291752Y-89934417D01*
X139329847Y-90086798D01*
X139329847Y-90201084D01*
X139291752Y-90353465D01*
X139253657Y-90429656D01*
X139177466Y-90505846D01*
X139063180Y-90543941D01*
X138986990Y-90543941D01*
X138872704Y-90505846D01*
X138834609Y-90467751D01*
X138834609Y-90201084D01*
X138986990Y-90201084D01*
X138491752Y-90543941D02*
X138491752Y-89743941D01*
X138186990Y-89743941D01*
X138110800Y-89782037D01*
X138072704Y-89820132D01*
X138034609Y-89896322D01*
X138034609Y-90010608D01*
X138072704Y-90086798D01*
X138110800Y-90124894D01*
X138186990Y-90162989D01*
X138491752Y-90162989D01*
X137653657Y-90543941D02*
X137501276Y-90543941D01*
X137425085Y-90505846D01*
X137386990Y-90467751D01*
X137310800Y-90353465D01*
X137272704Y-90201084D01*
X137272704Y-89896322D01*
X137310800Y-89820132D01*
X137348895Y-89782037D01*
X137425085Y-89743941D01*
X137577466Y-89743941D01*
X137653657Y-89782037D01*
X137691752Y-89820132D01*
X137729847Y-89896322D01*
X137729847Y-90086798D01*
X137691752Y-90162989D01*
X137653657Y-90201084D01*
X137577466Y-90239179D01*
X137425085Y-90239179D01*
X137348895Y-90201084D01*
X137310800Y-90162989D01*
X137272704Y-90086798D01*
X136358419Y-89705846D02*
X137044133Y-90734417D01*
X136091752Y-90543941D02*
X136091752Y-89743941D01*
X135710800Y-90543941D02*
X135710800Y-89743941D01*
X135520323Y-89743941D01*
X135406038Y-89782037D01*
X135329847Y-89858227D01*
X135291752Y-89934417D01*
X135253657Y-90086798D01*
X135253657Y-90201084D01*
X135291752Y-90353465D01*
X135329847Y-90429656D01*
X135406038Y-90505846D01*
X135520323Y-90543941D01*
X135710800Y-90543941D01*
X134453657Y-90467751D02*
X134491752Y-90505846D01*
X134606038Y-90543941D01*
X134682228Y-90543941D01*
X134796514Y-90505846D01*
X134872704Y-90429656D01*
X134910800Y-90353465D01*
X134948895Y-90201084D01*
X134948895Y-90086798D01*
X134910800Y-89934417D01*
X134872704Y-89858227D01*
X134796514Y-89782037D01*
X134682228Y-89743941D01*
X134606038Y-89743941D01*
X134491752Y-89782037D01*
X134453657Y-89820132D01*
X133767942Y-89743941D02*
X133920323Y-89743941D01*
X133996514Y-89782037D01*
X134034609Y-89820132D01*
X134110800Y-89934417D01*
X134148895Y-90086798D01*
X134148895Y-90391560D01*
X134110800Y-90467751D01*
X134072704Y-90505846D01*
X133996514Y-90543941D01*
X133844133Y-90543941D01*
X133767942Y-90505846D01*
X133729847Y-90467751D01*
X133691752Y-90391560D01*
X133691752Y-90201084D01*
X133729847Y-90124894D01*
X133767942Y-90086798D01*
X133844133Y-90048703D01*
X133996514Y-90048703D01*
X134072704Y-90086798D01*
X134110800Y-90124894D01*
X134148895Y-90201084D01*
X130096990Y-82111237D02*
X130173180Y-82073141D01*
X130287466Y-82073141D01*
X130401752Y-82111237D01*
X130477942Y-82187427D01*
X130516038Y-82263617D01*
X130554133Y-82415998D01*
X130554133Y-82530284D01*
X130516038Y-82682665D01*
X130477942Y-82758856D01*
X130401752Y-82835046D01*
X130287466Y-82873141D01*
X130211276Y-82873141D01*
X130096990Y-82835046D01*
X130058895Y-82796951D01*
X130058895Y-82530284D01*
X130211276Y-82530284D01*
X129754133Y-82149332D02*
X129716038Y-82111237D01*
X129639847Y-82073141D01*
X129449371Y-82073141D01*
X129373180Y-82111237D01*
X129335085Y-82149332D01*
X129296990Y-82225522D01*
X129296990Y-82301713D01*
X129335085Y-82415998D01*
X129792228Y-82873141D01*
X129296990Y-82873141D01*
X129030323Y-82073141D02*
X128496990Y-82073141D01*
X128839847Y-82873141D01*
X127620800Y-82035046D02*
X128306514Y-83063617D01*
X127354133Y-82339808D02*
X127354133Y-83025522D01*
X127392228Y-83101713D01*
X127468419Y-83139808D01*
X127506514Y-83139808D01*
X127354133Y-82073141D02*
X127392228Y-82111237D01*
X127354133Y-82149332D01*
X127316038Y-82111237D01*
X127354133Y-82073141D01*
X127354133Y-82149332D01*
X126858895Y-82873141D02*
X126935085Y-82835046D01*
X126973180Y-82796951D01*
X127011276Y-82720760D01*
X127011276Y-82492189D01*
X126973180Y-82415998D01*
X126935085Y-82377903D01*
X126858895Y-82339808D01*
X126744609Y-82339808D01*
X126668419Y-82377903D01*
X126630323Y-82415998D01*
X126592228Y-82492189D01*
X126592228Y-82720760D01*
X126630323Y-82796951D01*
X126668419Y-82835046D01*
X126744609Y-82873141D01*
X126858895Y-82873141D01*
X126325561Y-82339808D02*
X126135085Y-82873141D01*
X125944609Y-82339808D02*
X126135085Y-82873141D01*
X126211276Y-83063617D01*
X126249371Y-83101713D01*
X126325561Y-83139808D01*
X125754133Y-82073141D02*
X125487466Y-82873141D01*
X125220800Y-82073141D01*
X125030323Y-82339808D02*
X124839847Y-82873141D01*
X124649371Y-82339808D02*
X124839847Y-82873141D01*
X124916038Y-83063617D01*
X124954133Y-83101713D01*
X125030323Y-83139808D01*
X93459371Y-132980419D02*
X93459371Y-133980419D01*
X93935561Y-133647085D02*
X93935561Y-132980419D01*
X93935561Y-133551847D02*
X93983180Y-133599466D01*
X94078419Y-133647085D01*
X94221276Y-133647085D01*
X94316514Y-133599466D01*
X94364133Y-133504228D01*
X94364133Y-132980419D01*
X94840323Y-133361371D02*
X95602228Y-133361371D01*
X95221276Y-132980419D02*
X95221276Y-133742323D01*
X138898323Y-79774437D02*
X138974514Y-79736341D01*
X139088800Y-79736341D01*
X139203085Y-79774437D01*
X139279276Y-79850627D01*
X139317371Y-79926817D01*
X139355466Y-80079198D01*
X139355466Y-80193484D01*
X139317371Y-80345865D01*
X139279276Y-80422056D01*
X139203085Y-80498246D01*
X139088800Y-80536341D01*
X139012609Y-80536341D01*
X138898323Y-80498246D01*
X138860228Y-80460151D01*
X138860228Y-80193484D01*
X139012609Y-80193484D01*
X138517371Y-80536341D02*
X138517371Y-79736341D01*
X138060228Y-80536341D01*
X138060228Y-79736341D01*
X137679276Y-80536341D02*
X137679276Y-79736341D01*
X137488800Y-79736341D01*
X137374514Y-79774437D01*
X137298323Y-79850627D01*
X137260228Y-79926817D01*
X137222133Y-80079198D01*
X137222133Y-80193484D01*
X137260228Y-80345865D01*
X137298323Y-80422056D01*
X137374514Y-80498246D01*
X137488800Y-80536341D01*
X137679276Y-80536341D01*
X130046171Y-77132837D02*
X130122361Y-77094741D01*
X130236647Y-77094741D01*
X130350933Y-77132837D01*
X130427123Y-77209027D01*
X130465219Y-77285217D01*
X130503314Y-77437598D01*
X130503314Y-77551884D01*
X130465219Y-77704265D01*
X130427123Y-77780456D01*
X130350933Y-77856646D01*
X130236647Y-77894741D01*
X130160457Y-77894741D01*
X130046171Y-77856646D01*
X130008076Y-77818551D01*
X130008076Y-77551884D01*
X130160457Y-77551884D01*
X129703314Y-77170932D02*
X129665219Y-77132837D01*
X129589028Y-77094741D01*
X129398552Y-77094741D01*
X129322361Y-77132837D01*
X129284266Y-77170932D01*
X129246171Y-77247122D01*
X129246171Y-77323313D01*
X129284266Y-77437598D01*
X129741409Y-77894741D01*
X129246171Y-77894741D01*
X128789028Y-77437598D02*
X128865219Y-77399503D01*
X128903314Y-77361408D01*
X128941409Y-77285217D01*
X128941409Y-77247122D01*
X128903314Y-77170932D01*
X128865219Y-77132837D01*
X128789028Y-77094741D01*
X128636647Y-77094741D01*
X128560457Y-77132837D01*
X128522361Y-77170932D01*
X128484266Y-77247122D01*
X128484266Y-77285217D01*
X128522361Y-77361408D01*
X128560457Y-77399503D01*
X128636647Y-77437598D01*
X128789028Y-77437598D01*
X128865219Y-77475694D01*
X128903314Y-77513789D01*
X128941409Y-77589979D01*
X128941409Y-77742360D01*
X128903314Y-77818551D01*
X128865219Y-77856646D01*
X128789028Y-77894741D01*
X128636647Y-77894741D01*
X128560457Y-77856646D01*
X128522361Y-77818551D01*
X128484266Y-77742360D01*
X128484266Y-77589979D01*
X128522361Y-77513789D01*
X128560457Y-77475694D01*
X128636647Y-77437598D01*
X127569980Y-77056646D02*
X128255695Y-78085217D01*
X126960457Y-77894741D02*
X126960457Y-77475694D01*
X126998552Y-77399503D01*
X127074742Y-77361408D01*
X127227123Y-77361408D01*
X127303314Y-77399503D01*
X126960457Y-77856646D02*
X127036647Y-77894741D01*
X127227123Y-77894741D01*
X127303314Y-77856646D01*
X127341409Y-77780456D01*
X127341409Y-77704265D01*
X127303314Y-77628075D01*
X127227123Y-77589979D01*
X127036647Y-77589979D01*
X126960457Y-77551884D01*
X126579504Y-77361408D02*
X126579504Y-77894741D01*
X126579504Y-77437598D02*
X126541409Y-77399503D01*
X126465219Y-77361408D01*
X126350933Y-77361408D01*
X126274742Y-77399503D01*
X126236647Y-77475694D01*
X126236647Y-77894741D01*
X125512838Y-77894741D02*
X125512838Y-77475694D01*
X125550933Y-77399503D01*
X125627123Y-77361408D01*
X125779504Y-77361408D01*
X125855695Y-77399503D01*
X125512838Y-77856646D02*
X125589028Y-77894741D01*
X125779504Y-77894741D01*
X125855695Y-77856646D01*
X125893790Y-77780456D01*
X125893790Y-77704265D01*
X125855695Y-77628075D01*
X125779504Y-77589979D01*
X125589028Y-77589979D01*
X125512838Y-77551884D01*
X125131885Y-77894741D02*
X125131885Y-77094741D01*
X124789028Y-77170932D02*
X124750933Y-77132837D01*
X124674742Y-77094741D01*
X124484266Y-77094741D01*
X124408076Y-77132837D01*
X124369980Y-77170932D01*
X124331885Y-77247122D01*
X124331885Y-77323313D01*
X124369980Y-77437598D01*
X124827123Y-77894741D01*
X124331885Y-77894741D01*
X130090609Y-102532837D02*
X130166800Y-102494741D01*
X130281085Y-102494741D01*
X130395371Y-102532837D01*
X130471561Y-102609027D01*
X130509657Y-102685217D01*
X130547752Y-102837598D01*
X130547752Y-102951884D01*
X130509657Y-103104265D01*
X130471561Y-103180456D01*
X130395371Y-103256646D01*
X130281085Y-103294741D01*
X130204895Y-103294741D01*
X130090609Y-103256646D01*
X130052514Y-103218551D01*
X130052514Y-102951884D01*
X130204895Y-102951884D01*
X129290609Y-103294741D02*
X129747752Y-103294741D01*
X129519180Y-103294741D02*
X129519180Y-102494741D01*
X129595371Y-102609027D01*
X129671561Y-102685217D01*
X129747752Y-102723313D01*
X128833466Y-102837598D02*
X128909657Y-102799503D01*
X128947752Y-102761408D01*
X128985847Y-102685217D01*
X128985847Y-102647122D01*
X128947752Y-102570932D01*
X128909657Y-102532837D01*
X128833466Y-102494741D01*
X128681085Y-102494741D01*
X128604895Y-102532837D01*
X128566800Y-102570932D01*
X128528704Y-102647122D01*
X128528704Y-102685217D01*
X128566800Y-102761408D01*
X128604895Y-102799503D01*
X128681085Y-102837598D01*
X128833466Y-102837598D01*
X128909657Y-102875694D01*
X128947752Y-102913789D01*
X128985847Y-102989979D01*
X128985847Y-103142360D01*
X128947752Y-103218551D01*
X128909657Y-103256646D01*
X128833466Y-103294741D01*
X128681085Y-103294741D01*
X128604895Y-103256646D01*
X128566800Y-103218551D01*
X128528704Y-103142360D01*
X128528704Y-102989979D01*
X128566800Y-102913789D01*
X128604895Y-102875694D01*
X128681085Y-102837598D01*
X127614419Y-102456646D02*
X128300133Y-103485217D01*
X127347752Y-103294741D02*
X127347752Y-102494741D01*
X126966800Y-103294741D02*
X126966800Y-102494741D01*
X126776323Y-102494741D01*
X126662038Y-102532837D01*
X126585847Y-102609027D01*
X126547752Y-102685217D01*
X126509657Y-102837598D01*
X126509657Y-102951884D01*
X126547752Y-103104265D01*
X126585847Y-103180456D01*
X126662038Y-103256646D01*
X126776323Y-103294741D01*
X126966800Y-103294741D01*
X125709657Y-103218551D02*
X125747752Y-103256646D01*
X125862038Y-103294741D01*
X125938228Y-103294741D01*
X126052514Y-103256646D01*
X126128704Y-103180456D01*
X126166800Y-103104265D01*
X126204895Y-102951884D01*
X126204895Y-102837598D01*
X126166800Y-102685217D01*
X126128704Y-102609027D01*
X126052514Y-102532837D01*
X125938228Y-102494741D01*
X125862038Y-102494741D01*
X125747752Y-102532837D01*
X125709657Y-102570932D01*
X124947752Y-103294741D02*
X125404895Y-103294741D01*
X125176323Y-103294741D02*
X125176323Y-102494741D01*
X125252514Y-102609027D01*
X125328704Y-102685217D01*
X125404895Y-102723313D01*
X124262038Y-102761408D02*
X124262038Y-103294741D01*
X124452514Y-102456646D02*
X124642990Y-103028075D01*
X124147752Y-103028075D01*
X111102780Y-122023428D02*
X111245638Y-121975809D01*
X111293257Y-121928190D01*
X111340876Y-121832952D01*
X111340876Y-121690095D01*
X111293257Y-121594857D01*
X111245638Y-121547238D01*
X111150400Y-121499619D01*
X110769447Y-121499619D01*
X110769447Y-122499619D01*
X111102780Y-122499619D01*
X111198019Y-122452000D01*
X111245638Y-122404380D01*
X111293257Y-122309142D01*
X111293257Y-122213904D01*
X111245638Y-122118666D01*
X111198019Y-122071047D01*
X111102780Y-122023428D01*
X110769447Y-122023428D01*
X111769447Y-121880571D02*
X112531352Y-121880571D01*
X114871428Y-113938857D02*
X113728571Y-113938857D01*
X114300000Y-113367428D02*
X114300000Y-114510285D01*
D11*
X139329657Y-110151237D02*
X139386800Y-110122665D01*
X139472514Y-110122665D01*
X139558228Y-110151237D01*
X139615371Y-110208379D01*
X139643942Y-110265522D01*
X139672514Y-110379808D01*
X139672514Y-110465522D01*
X139643942Y-110579808D01*
X139615371Y-110636951D01*
X139558228Y-110694094D01*
X139472514Y-110722665D01*
X139415371Y-110722665D01*
X139329657Y-110694094D01*
X139301085Y-110665522D01*
X139301085Y-110465522D01*
X139415371Y-110465522D01*
X138729657Y-110722665D02*
X139072514Y-110722665D01*
X138901085Y-110722665D02*
X138901085Y-110122665D01*
X138958228Y-110208379D01*
X139015371Y-110265522D01*
X139072514Y-110294094D01*
X138186800Y-110122665D02*
X138472514Y-110122665D01*
X138501085Y-110408379D01*
X138472514Y-110379808D01*
X138415371Y-110351237D01*
X138272514Y-110351237D01*
X138215371Y-110379808D01*
X138186800Y-110408379D01*
X138158228Y-110465522D01*
X138158228Y-110608379D01*
X138186800Y-110665522D01*
X138215371Y-110694094D01*
X138272514Y-110722665D01*
X138415371Y-110722665D01*
X138472514Y-110694094D01*
X138501085Y-110665522D01*
X137472514Y-110094094D02*
X137986800Y-110865522D01*
X137272514Y-110722665D02*
X137272514Y-110122665D01*
X136986800Y-110722665D02*
X136986800Y-110122665D01*
X136843942Y-110122665D01*
X136758228Y-110151237D01*
X136701085Y-110208379D01*
X136672514Y-110265522D01*
X136643942Y-110379808D01*
X136643942Y-110465522D01*
X136672514Y-110579808D01*
X136701085Y-110636951D01*
X136758228Y-110694094D01*
X136843942Y-110722665D01*
X136986800Y-110722665D01*
X136043942Y-110665522D02*
X136072514Y-110694094D01*
X136158228Y-110722665D01*
X136215371Y-110722665D01*
X136301085Y-110694094D01*
X136358228Y-110636951D01*
X136386800Y-110579808D01*
X136415371Y-110465522D01*
X136415371Y-110379808D01*
X136386800Y-110265522D01*
X136358228Y-110208379D01*
X136301085Y-110151237D01*
X136215371Y-110122665D01*
X136158228Y-110122665D01*
X136072514Y-110151237D01*
X136043942Y-110179808D01*
X135472514Y-110722665D02*
X135815371Y-110722665D01*
X135643942Y-110722665D02*
X135643942Y-110122665D01*
X135701085Y-110208379D01*
X135758228Y-110265522D01*
X135815371Y-110294094D01*
X134786800Y-110094094D02*
X135301085Y-110865522D01*
X134615371Y-110694094D02*
X134529657Y-110722665D01*
X134386800Y-110722665D01*
X134329657Y-110694094D01*
X134301085Y-110665522D01*
X134272514Y-110608379D01*
X134272514Y-110551237D01*
X134301085Y-110494094D01*
X134329657Y-110465522D01*
X134386800Y-110436951D01*
X134501085Y-110408379D01*
X134558228Y-110379808D01*
X134586800Y-110351237D01*
X134615371Y-110294094D01*
X134615371Y-110236951D01*
X134586800Y-110179808D01*
X134558228Y-110151237D01*
X134501085Y-110122665D01*
X134358228Y-110122665D01*
X134272514Y-110151237D01*
X133672514Y-110665522D02*
X133701085Y-110694094D01*
X133786800Y-110722665D01*
X133843942Y-110722665D01*
X133929657Y-110694094D01*
X133986800Y-110636951D01*
X134015371Y-110579808D01*
X134043942Y-110465522D01*
X134043942Y-110379808D01*
X134015371Y-110265522D01*
X133986800Y-110208379D01*
X133929657Y-110151237D01*
X133843942Y-110122665D01*
X133786800Y-110122665D01*
X133701085Y-110151237D01*
X133672514Y-110179808D01*
X133129657Y-110722665D02*
X133415371Y-110722665D01*
X133415371Y-110122665D01*
X132501085Y-110094094D02*
X133015371Y-110865522D01*
X132186800Y-110122665D02*
X132072514Y-110122665D01*
X132015371Y-110151237D01*
X131958228Y-110208379D01*
X131929657Y-110322665D01*
X131929657Y-110522665D01*
X131958228Y-110636951D01*
X132015371Y-110694094D01*
X132072514Y-110722665D01*
X132186800Y-110722665D01*
X132243942Y-110694094D01*
X132301085Y-110636951D01*
X132329657Y-110522665D01*
X132329657Y-110322665D01*
X132301085Y-110208379D01*
X132243942Y-110151237D01*
X132186800Y-110122665D01*
X131386800Y-110722665D02*
X131672514Y-110722665D01*
X131672514Y-110122665D01*
X131186800Y-110408379D02*
X130986800Y-110408379D01*
X130901085Y-110722665D02*
X131186800Y-110722665D01*
X131186800Y-110122665D01*
X130901085Y-110122665D01*
X130643942Y-110722665D02*
X130643942Y-110122665D01*
X130501085Y-110122665D01*
X130415371Y-110151237D01*
X130358228Y-110208379D01*
X130329657Y-110265522D01*
X130301085Y-110379808D01*
X130301085Y-110465522D01*
X130329657Y-110579808D01*
X130358228Y-110636951D01*
X130415371Y-110694094D01*
X130501085Y-110722665D01*
X130643942Y-110722665D01*
D10*
X171704095Y-145735657D02*
X173227904Y-145735657D01*
D11*
X139380457Y-107611237D02*
X139437600Y-107582665D01*
X139523314Y-107582665D01*
X139609028Y-107611237D01*
X139666171Y-107668379D01*
X139694742Y-107725522D01*
X139723314Y-107839808D01*
X139723314Y-107925522D01*
X139694742Y-108039808D01*
X139666171Y-108096951D01*
X139609028Y-108154094D01*
X139523314Y-108182665D01*
X139466171Y-108182665D01*
X139380457Y-108154094D01*
X139351885Y-108125522D01*
X139351885Y-107925522D01*
X139466171Y-107925522D01*
X138780457Y-108182665D02*
X139123314Y-108182665D01*
X138951885Y-108182665D02*
X138951885Y-107582665D01*
X139009028Y-107668379D01*
X139066171Y-107725522D01*
X139123314Y-107754094D01*
X138266171Y-107782665D02*
X138266171Y-108182665D01*
X138409028Y-107554094D02*
X138551885Y-107982665D01*
X138180457Y-107982665D01*
X137523314Y-107554094D02*
X138037600Y-108325522D01*
X137323314Y-108182665D02*
X137323314Y-107582665D01*
X137066171Y-107639808D02*
X137037600Y-107611237D01*
X136980457Y-107582665D01*
X136837600Y-107582665D01*
X136780457Y-107611237D01*
X136751885Y-107639808D01*
X136723314Y-107696951D01*
X136723314Y-107754094D01*
X136751885Y-107839808D01*
X137094742Y-108182665D01*
X136723314Y-108182665D01*
X136123314Y-108125522D02*
X136151885Y-108154094D01*
X136237600Y-108182665D01*
X136294742Y-108182665D01*
X136380457Y-108154094D01*
X136437600Y-108096951D01*
X136466171Y-108039808D01*
X136494742Y-107925522D01*
X136494742Y-107839808D01*
X136466171Y-107725522D01*
X136437600Y-107668379D01*
X136380457Y-107611237D01*
X136294742Y-107582665D01*
X136237600Y-107582665D01*
X136151885Y-107611237D01*
X136123314Y-107639808D01*
X135551885Y-108182665D02*
X135894742Y-108182665D01*
X135723314Y-108182665D02*
X135723314Y-107582665D01*
X135780457Y-107668379D01*
X135837600Y-107725522D01*
X135894742Y-107754094D01*
X134866171Y-107554094D02*
X135380457Y-108325522D01*
X134694742Y-108154094D02*
X134609028Y-108182665D01*
X134466171Y-108182665D01*
X134409028Y-108154094D01*
X134380457Y-108125522D01*
X134351885Y-108068379D01*
X134351885Y-108011237D01*
X134380457Y-107954094D01*
X134409028Y-107925522D01*
X134466171Y-107896951D01*
X134580457Y-107868379D01*
X134637600Y-107839808D01*
X134666171Y-107811237D01*
X134694742Y-107754094D01*
X134694742Y-107696951D01*
X134666171Y-107639808D01*
X134637600Y-107611237D01*
X134580457Y-107582665D01*
X134437600Y-107582665D01*
X134351885Y-107611237D01*
X134094742Y-108182665D02*
X134094742Y-107582665D01*
X133951885Y-107582665D01*
X133866171Y-107611237D01*
X133809028Y-107668379D01*
X133780457Y-107725522D01*
X133751885Y-107839808D01*
X133751885Y-107925522D01*
X133780457Y-108039808D01*
X133809028Y-108096951D01*
X133866171Y-108154094D01*
X133951885Y-108182665D01*
X134094742Y-108182665D01*
X133523314Y-108011237D02*
X133237600Y-108011237D01*
X133580457Y-108182665D02*
X133380457Y-107582665D01*
X133180457Y-108182665D01*
X132551885Y-107554094D02*
X133066171Y-108325522D01*
X132237600Y-107582665D02*
X132123314Y-107582665D01*
X132066171Y-107611237D01*
X132009028Y-107668379D01*
X131980457Y-107782665D01*
X131980457Y-107982665D01*
X132009028Y-108096951D01*
X132066171Y-108154094D01*
X132123314Y-108182665D01*
X132237600Y-108182665D01*
X132294742Y-108154094D01*
X132351885Y-108096951D01*
X132380457Y-107982665D01*
X132380457Y-107782665D01*
X132351885Y-107668379D01*
X132294742Y-107611237D01*
X132237600Y-107582665D01*
X131437600Y-108182665D02*
X131723314Y-108182665D01*
X131723314Y-107582665D01*
X131237600Y-107868379D02*
X131037600Y-107868379D01*
X130951885Y-108182665D02*
X131237600Y-108182665D01*
X131237600Y-107582665D01*
X130951885Y-107582665D01*
X130694742Y-108182665D02*
X130694742Y-107582665D01*
X130551885Y-107582665D01*
X130466171Y-107611237D01*
X130409028Y-107668379D01*
X130380457Y-107725522D01*
X130351885Y-107839808D01*
X130351885Y-107925522D01*
X130380457Y-108039808D01*
X130409028Y-108096951D01*
X130466171Y-108154094D01*
X130551885Y-108182665D01*
X130694742Y-108182665D01*
D10*
X132306628Y-87191237D02*
X132382819Y-87153141D01*
X132497104Y-87153141D01*
X132611390Y-87191237D01*
X132687580Y-87267427D01*
X132725676Y-87343617D01*
X132763771Y-87495998D01*
X132763771Y-87610284D01*
X132725676Y-87762665D01*
X132687580Y-87838856D01*
X132611390Y-87915046D01*
X132497104Y-87953141D01*
X132420914Y-87953141D01*
X132306628Y-87915046D01*
X132268533Y-87876951D01*
X132268533Y-87610284D01*
X132420914Y-87610284D01*
X132001866Y-87153141D02*
X131506628Y-87153141D01*
X131773295Y-87457903D01*
X131659009Y-87457903D01*
X131582819Y-87495998D01*
X131544723Y-87534094D01*
X131506628Y-87610284D01*
X131506628Y-87800760D01*
X131544723Y-87876951D01*
X131582819Y-87915046D01*
X131659009Y-87953141D01*
X131887580Y-87953141D01*
X131963771Y-87915046D01*
X132001866Y-87876951D01*
X131011390Y-87153141D02*
X130935199Y-87153141D01*
X130859009Y-87191237D01*
X130820914Y-87229332D01*
X130782819Y-87305522D01*
X130744723Y-87457903D01*
X130744723Y-87648379D01*
X130782819Y-87800760D01*
X130820914Y-87876951D01*
X130859009Y-87915046D01*
X130935199Y-87953141D01*
X131011390Y-87953141D01*
X131087580Y-87915046D01*
X131125676Y-87876951D01*
X131163771Y-87800760D01*
X131201866Y-87648379D01*
X131201866Y-87457903D01*
X131163771Y-87305522D01*
X131125676Y-87229332D01*
X131087580Y-87191237D01*
X131011390Y-87153141D01*
X129830438Y-87115046D02*
X130516152Y-88143617D01*
X129297104Y-87534094D02*
X129182819Y-87572189D01*
X129144723Y-87610284D01*
X129106628Y-87686475D01*
X129106628Y-87800760D01*
X129144723Y-87876951D01*
X129182819Y-87915046D01*
X129259009Y-87953141D01*
X129563771Y-87953141D01*
X129563771Y-87153141D01*
X129297104Y-87153141D01*
X129220914Y-87191237D01*
X129182819Y-87229332D01*
X129144723Y-87305522D01*
X129144723Y-87381713D01*
X129182819Y-87457903D01*
X129220914Y-87495998D01*
X129297104Y-87534094D01*
X129563771Y-87534094D01*
X128649485Y-87953141D02*
X128725676Y-87915046D01*
X128763771Y-87876951D01*
X128801866Y-87800760D01*
X128801866Y-87572189D01*
X128763771Y-87495998D01*
X128725676Y-87457903D01*
X128649485Y-87419808D01*
X128535199Y-87419808D01*
X128459009Y-87457903D01*
X128420914Y-87495998D01*
X128382819Y-87572189D01*
X128382819Y-87800760D01*
X128420914Y-87876951D01*
X128459009Y-87915046D01*
X128535199Y-87953141D01*
X128649485Y-87953141D01*
X128154247Y-87419808D02*
X127849485Y-87419808D01*
X128039961Y-87153141D02*
X128039961Y-87838856D01*
X128001866Y-87915046D01*
X127925676Y-87953141D01*
X127849485Y-87953141D01*
X127239961Y-87953141D02*
X127239961Y-87534094D01*
X127278057Y-87457903D01*
X127354247Y-87419808D01*
X127506628Y-87419808D01*
X127582819Y-87457903D01*
X127239961Y-87915046D02*
X127316152Y-87953141D01*
X127506628Y-87953141D01*
X127582819Y-87915046D01*
X127620914Y-87838856D01*
X127620914Y-87762665D01*
X127582819Y-87686475D01*
X127506628Y-87648379D01*
X127316152Y-87648379D01*
X127239961Y-87610284D01*
X127620914Y-87229332D02*
X127582819Y-87191237D01*
X127506628Y-87153141D01*
X127354247Y-87229332D01*
X127278057Y-87191237D01*
X127239961Y-87153141D01*
X126744723Y-87953141D02*
X126820914Y-87915046D01*
X126859009Y-87876951D01*
X126897104Y-87800760D01*
X126897104Y-87572189D01*
X126859009Y-87495998D01*
X126820914Y-87457903D01*
X126744723Y-87419808D01*
X126630438Y-87419808D01*
X126554247Y-87457903D01*
X126516152Y-87495998D01*
X126478057Y-87572189D01*
X126478057Y-87800760D01*
X126516152Y-87876951D01*
X126554247Y-87915046D01*
X126630438Y-87953141D01*
X126744723Y-87953141D01*
X125678057Y-87953141D02*
X125944723Y-87572189D01*
X126135199Y-87953141D02*
X126135199Y-87153141D01*
X125830438Y-87153141D01*
X125754247Y-87191237D01*
X125716152Y-87229332D01*
X125678057Y-87305522D01*
X125678057Y-87419808D01*
X125716152Y-87495998D01*
X125754247Y-87534094D01*
X125830438Y-87572189D01*
X126135199Y-87572189D01*
X125373295Y-87915046D02*
X125259009Y-87953141D01*
X125068533Y-87953141D01*
X124992342Y-87915046D01*
X124954247Y-87876951D01*
X124916152Y-87800760D01*
X124916152Y-87724570D01*
X124954247Y-87648379D01*
X124992342Y-87610284D01*
X125068533Y-87572189D01*
X125220914Y-87534094D01*
X125297104Y-87495998D01*
X125335199Y-87457903D01*
X125373295Y-87381713D01*
X125373295Y-87305522D01*
X125335199Y-87229332D01*
X125297104Y-87191237D01*
X125220914Y-87153141D01*
X125030438Y-87153141D01*
X124916152Y-87191237D01*
X124687580Y-87153141D02*
X124230438Y-87153141D01*
X124459009Y-87953141D02*
X124459009Y-87153141D01*
X108732000Y-119959619D02*
X108922476Y-119959619D01*
X109017714Y-119912000D01*
X109112952Y-119816761D01*
X109160571Y-119626285D01*
X109160571Y-119292952D01*
X109112952Y-119102476D01*
X109017714Y-119007238D01*
X108922476Y-118959619D01*
X108732000Y-118959619D01*
X108636761Y-119007238D01*
X108541523Y-119102476D01*
X108493904Y-119292952D01*
X108493904Y-119626285D01*
X108541523Y-119816761D01*
X108636761Y-119912000D01*
X108732000Y-119959619D01*
X109589142Y-119959619D02*
X109589142Y-119150095D01*
X109636761Y-119054857D01*
X109684380Y-119007238D01*
X109779619Y-118959619D01*
X109970095Y-118959619D01*
X110065333Y-119007238D01*
X110112952Y-119054857D01*
X110160571Y-119150095D01*
X110160571Y-119959619D01*
X110493904Y-119959619D02*
X111065333Y-119959619D01*
X110779619Y-118959619D02*
X110779619Y-119959619D01*
X112160571Y-119340571D02*
X112922476Y-119340571D01*
X126528476Y-72167141D02*
X126033238Y-72167141D01*
X126299904Y-72471903D01*
X126185619Y-72471903D01*
X126109428Y-72509998D01*
X126071333Y-72548094D01*
X126033238Y-72624284D01*
X126033238Y-72814760D01*
X126071333Y-72890951D01*
X126109428Y-72929046D01*
X126185619Y-72967141D01*
X126414190Y-72967141D01*
X126490380Y-72929046D01*
X126528476Y-72890951D01*
X125804666Y-72167141D02*
X125538000Y-72967141D01*
X125271333Y-72167141D01*
X125080857Y-72167141D02*
X124585619Y-72167141D01*
X124852285Y-72471903D01*
X124738000Y-72471903D01*
X124661809Y-72509998D01*
X124623714Y-72548094D01*
X124585619Y-72624284D01*
X124585619Y-72814760D01*
X124623714Y-72890951D01*
X124661809Y-72929046D01*
X124738000Y-72967141D01*
X124966571Y-72967141D01*
X125042761Y-72929046D01*
X125080857Y-72890951D01*
%TO.C,reset*%
X114885428Y-85734492D02*
X114885428Y-84401159D01*
X114885428Y-84782111D02*
X114790190Y-84591635D01*
X114694952Y-84496397D01*
X114504475Y-84401159D01*
X114313999Y-84401159D01*
X112885428Y-85639254D02*
X113075904Y-85734492D01*
X113456856Y-85734492D01*
X113647333Y-85639254D01*
X113742571Y-85448778D01*
X113742571Y-84686873D01*
X113647333Y-84496397D01*
X113456856Y-84401159D01*
X113075904Y-84401159D01*
X112885428Y-84496397D01*
X112790190Y-84686873D01*
X112790190Y-84877350D01*
X113742571Y-85067826D01*
X112028285Y-85639254D02*
X111837809Y-85734492D01*
X111456856Y-85734492D01*
X111266380Y-85639254D01*
X111171142Y-85448778D01*
X111171142Y-85353540D01*
X111266380Y-85163064D01*
X111456856Y-85067826D01*
X111742571Y-85067826D01*
X111933047Y-84972588D01*
X112028285Y-84782111D01*
X112028285Y-84686873D01*
X111933047Y-84496397D01*
X111742571Y-84401159D01*
X111456856Y-84401159D01*
X111266380Y-84496397D01*
X109552094Y-85639254D02*
X109742571Y-85734492D01*
X110123523Y-85734492D01*
X110313999Y-85639254D01*
X110409237Y-85448778D01*
X110409237Y-84686873D01*
X110313999Y-84496397D01*
X110123523Y-84401159D01*
X109742571Y-84401159D01*
X109552094Y-84496397D01*
X109456856Y-84686873D01*
X109456856Y-84877350D01*
X110409237Y-85067826D01*
X108885428Y-84401159D02*
X108123523Y-84401159D01*
X108599713Y-83734492D02*
X108599713Y-85448778D01*
X108504475Y-85639254D01*
X108313999Y-85734492D01*
X108123523Y-85734492D01*
X113218761Y-94511902D02*
X113075904Y-94559521D01*
X113028285Y-94607140D01*
X112980666Y-94702378D01*
X112980666Y-94845235D01*
X113028285Y-94940473D01*
X113075904Y-94988092D01*
X113171142Y-95035711D01*
X113552094Y-95035711D01*
X113552094Y-94035711D01*
X113218761Y-94035711D01*
X113123523Y-94083331D01*
X113075904Y-94130950D01*
X113028285Y-94226188D01*
X113028285Y-94321426D01*
X113075904Y-94416664D01*
X113123523Y-94464283D01*
X113218761Y-94511902D01*
X113552094Y-94511902D01*
X112409237Y-95035711D02*
X112504475Y-94988092D01*
X112552094Y-94940473D01*
X112599713Y-94845235D01*
X112599713Y-94559521D01*
X112552094Y-94464283D01*
X112504475Y-94416664D01*
X112409237Y-94369045D01*
X112266380Y-94369045D01*
X112171142Y-94416664D01*
X112123523Y-94464283D01*
X112075904Y-94559521D01*
X112075904Y-94845235D01*
X112123523Y-94940473D01*
X112171142Y-94988092D01*
X112266380Y-95035711D01*
X112409237Y-95035711D01*
X111790190Y-94369045D02*
X111409237Y-94369045D01*
X111647333Y-94035711D02*
X111647333Y-94892854D01*
X111599713Y-94988092D01*
X111504475Y-95035711D01*
X111409237Y-95035711D01*
X110647333Y-95035711D02*
X110647333Y-94511902D01*
X110694952Y-94416664D01*
X110790190Y-94369045D01*
X110980666Y-94369045D01*
X111075904Y-94416664D01*
X110647333Y-94988092D02*
X110742571Y-95035711D01*
X110980666Y-95035711D01*
X111075904Y-94988092D01*
X111123523Y-94892854D01*
X111123523Y-94797616D01*
X111075904Y-94702378D01*
X110980666Y-94654759D01*
X110742571Y-94654759D01*
X110647333Y-94607140D01*
X111123523Y-94130950D02*
X111075904Y-94083331D01*
X110980666Y-94035711D01*
X110790190Y-94130950D01*
X110694952Y-94083331D01*
X110647333Y-94035711D01*
X110028285Y-95035711D02*
X110123523Y-94988092D01*
X110171142Y-94940473D01*
X110218761Y-94845235D01*
X110218761Y-94559521D01*
X110171142Y-94464283D01*
X110123523Y-94416664D01*
X110028285Y-94369045D01*
X109885428Y-94369045D01*
X109790190Y-94416664D01*
X109742571Y-94464283D01*
X109694952Y-94559521D01*
X109694952Y-94845235D01*
X109742571Y-94940473D01*
X109790190Y-94988092D01*
X109885428Y-95035711D01*
X110028285Y-95035711D01*
D12*
%TO.C,G\u002A\u002A\u002A*%
X126513764Y-123650257D02*
X126658907Y-123577685D01*
X126876621Y-123577685D01*
X127094335Y-123650257D01*
X127239478Y-123795399D01*
X127312050Y-123940542D01*
X127384621Y-124230828D01*
X127384621Y-124448542D01*
X127312050Y-124738828D01*
X127239478Y-124883971D01*
X127094335Y-125029114D01*
X126876621Y-125101685D01*
X126731478Y-125101685D01*
X126513764Y-125029114D01*
X126441193Y-124956542D01*
X126441193Y-124448542D01*
X126731478Y-124448542D01*
X125570335Y-123577685D02*
X125570335Y-123940542D01*
X125933193Y-123795399D02*
X125570335Y-123940542D01*
X125207478Y-123795399D01*
X125788050Y-124230828D02*
X125570335Y-123940542D01*
X125352621Y-124230828D01*
X124409193Y-123577685D02*
X124409193Y-123940542D01*
X124772050Y-123795399D02*
X124409193Y-123940542D01*
X124046335Y-123795399D01*
X124626907Y-124230828D02*
X124409193Y-123940542D01*
X124191478Y-124230828D01*
X123248050Y-123577685D02*
X123248050Y-123940542D01*
X123610907Y-123795399D02*
X123248050Y-123940542D01*
X122885193Y-123795399D01*
X123465764Y-124230828D02*
X123248050Y-123940542D01*
X123030335Y-124230828D01*
D10*
%TO.C,REF\u002A\u002A*%
X146682636Y-60401110D02*
X147015969Y-59924920D01*
X147254064Y-60401110D02*
X147254064Y-59401110D01*
X146873112Y-59401110D01*
X146777874Y-59448730D01*
X146730255Y-59496349D01*
X146682636Y-59591587D01*
X146682636Y-59734444D01*
X146730255Y-59829682D01*
X146777874Y-59877301D01*
X146873112Y-59924920D01*
X147254064Y-59924920D01*
X146254064Y-59877301D02*
X145920731Y-59877301D01*
X145777874Y-60401110D02*
X146254064Y-60401110D01*
X146254064Y-59401110D01*
X145777874Y-59401110D01*
X145015969Y-59877301D02*
X145349303Y-59877301D01*
X145349303Y-60401110D02*
X145349303Y-59401110D01*
X144873112Y-59401110D01*
X144349303Y-59401110D02*
X144349303Y-59639206D01*
X144587398Y-59543968D02*
X144349303Y-59639206D01*
X144111207Y-59543968D01*
X144492160Y-59829682D02*
X144349303Y-59639206D01*
X144206445Y-59829682D01*
X143587398Y-59401110D02*
X143587398Y-59639206D01*
X143825493Y-59543968D02*
X143587398Y-59639206D01*
X143349303Y-59543968D01*
X143730255Y-59829682D02*
X143587398Y-59639206D01*
X143444541Y-59829682D01*
%TO.C,BC337*%
X112155142Y-68758571D02*
X112012285Y-68806190D01*
X111964666Y-68853809D01*
X111917047Y-68949047D01*
X111917047Y-69091904D01*
X111964666Y-69187142D01*
X112012285Y-69234761D01*
X112107523Y-69282380D01*
X112488476Y-69282380D01*
X112488476Y-68282380D01*
X112155142Y-68282380D01*
X112059904Y-68330000D01*
X112012285Y-68377619D01*
X111964666Y-68472857D01*
X111964666Y-68568095D01*
X112012285Y-68663333D01*
X112059904Y-68710952D01*
X112155142Y-68758571D01*
X112488476Y-68758571D01*
X110917047Y-69187142D02*
X110964666Y-69234761D01*
X111107523Y-69282380D01*
X111202761Y-69282380D01*
X111345619Y-69234761D01*
X111440857Y-69139523D01*
X111488476Y-69044285D01*
X111536095Y-68853809D01*
X111536095Y-68710952D01*
X111488476Y-68520476D01*
X111440857Y-68425238D01*
X111345619Y-68330000D01*
X111202761Y-68282380D01*
X111107523Y-68282380D01*
X110964666Y-68330000D01*
X110917047Y-68377619D01*
X110583714Y-68282380D02*
X109964666Y-68282380D01*
X110298000Y-68663333D01*
X110155142Y-68663333D01*
X110059904Y-68710952D01*
X110012285Y-68758571D01*
X109964666Y-68853809D01*
X109964666Y-69091904D01*
X110012285Y-69187142D01*
X110059904Y-69234761D01*
X110155142Y-69282380D01*
X110440857Y-69282380D01*
X110536095Y-69234761D01*
X110583714Y-69187142D01*
X109631333Y-68282380D02*
X109012285Y-68282380D01*
X109345619Y-68663333D01*
X109202761Y-68663333D01*
X109107523Y-68710952D01*
X109059904Y-68758571D01*
X109012285Y-68853809D01*
X109012285Y-69091904D01*
X109059904Y-69187142D01*
X109107523Y-69234761D01*
X109202761Y-69282380D01*
X109488476Y-69282380D01*
X109583714Y-69234761D01*
X109631333Y-69187142D01*
X108678952Y-68282380D02*
X108012285Y-68282380D01*
X108440857Y-69282380D01*
X156046342Y-68825808D02*
X155903485Y-68873427D01*
X155855866Y-68921046D01*
X155808247Y-69016284D01*
X155808247Y-69159141D01*
X155855866Y-69254379D01*
X155903485Y-69301998D01*
X155998723Y-69349617D01*
X156379676Y-69349617D01*
X156379676Y-68349617D01*
X156046342Y-68349617D01*
X155951104Y-68397237D01*
X155903485Y-68444856D01*
X155855866Y-68540094D01*
X155855866Y-68635332D01*
X155903485Y-68730570D01*
X155951104Y-68778189D01*
X156046342Y-68825808D01*
X156379676Y-68825808D01*
X154808247Y-69254379D02*
X154855866Y-69301998D01*
X154998723Y-69349617D01*
X155093961Y-69349617D01*
X155236819Y-69301998D01*
X155332057Y-69206760D01*
X155379676Y-69111522D01*
X155427295Y-68921046D01*
X155427295Y-68778189D01*
X155379676Y-68587713D01*
X155332057Y-68492475D01*
X155236819Y-68397237D01*
X155093961Y-68349617D01*
X154998723Y-68349617D01*
X154855866Y-68397237D01*
X154808247Y-68444856D01*
X154474914Y-68349617D02*
X153855866Y-68349617D01*
X154189200Y-68730570D01*
X154046342Y-68730570D01*
X153951104Y-68778189D01*
X153903485Y-68825808D01*
X153855866Y-68921046D01*
X153855866Y-69159141D01*
X153903485Y-69254379D01*
X153951104Y-69301998D01*
X154046342Y-69349617D01*
X154332057Y-69349617D01*
X154427295Y-69301998D01*
X154474914Y-69254379D01*
X153522533Y-68349617D02*
X152903485Y-68349617D01*
X153236819Y-68730570D01*
X153093961Y-68730570D01*
X152998723Y-68778189D01*
X152951104Y-68825808D01*
X152903485Y-68921046D01*
X152903485Y-69159141D01*
X152951104Y-69254379D01*
X152998723Y-69301998D01*
X153093961Y-69349617D01*
X153379676Y-69349617D01*
X153474914Y-69301998D01*
X153522533Y-69254379D01*
X152570152Y-68349617D02*
X151903485Y-68349617D01*
X152332057Y-69349617D01*
%TO.C,REF\u002A\u002A*%
X126960228Y-64496341D02*
X126693561Y-65296341D01*
X126426895Y-64496341D01*
X126198323Y-65258246D02*
X126084038Y-65296341D01*
X125893561Y-65296341D01*
X125817371Y-65258246D01*
X125779276Y-65220151D01*
X125741180Y-65143960D01*
X125741180Y-65067770D01*
X125779276Y-64991579D01*
X125817371Y-64953484D01*
X125893561Y-64915389D01*
X126045942Y-64877294D01*
X126122133Y-64839198D01*
X126160228Y-64801103D01*
X126198323Y-64724913D01*
X126198323Y-64648722D01*
X126160228Y-64572532D01*
X126122133Y-64534437D01*
X126045942Y-64496341D01*
X125855466Y-64496341D01*
X125741180Y-64534437D01*
X125245942Y-64915389D02*
X125245942Y-65296341D01*
X125512609Y-64496341D02*
X125245942Y-64915389D01*
X124979276Y-64496341D01*
X124750704Y-65258246D02*
X124636419Y-65296341D01*
X124445942Y-65296341D01*
X124369752Y-65258246D01*
X124331657Y-65220151D01*
X124293561Y-65143960D01*
X124293561Y-65067770D01*
X124331657Y-64991579D01*
X124369752Y-64953484D01*
X124445942Y-64915389D01*
X124598323Y-64877294D01*
X124674514Y-64839198D01*
X124712609Y-64801103D01*
X124750704Y-64724913D01*
X124750704Y-64648722D01*
X124712609Y-64572532D01*
X124674514Y-64534437D01*
X124598323Y-64496341D01*
X124407847Y-64496341D01*
X124293561Y-64534437D01*
X139520247Y-64432837D02*
X139596438Y-64394741D01*
X139710723Y-64394741D01*
X139825009Y-64432837D01*
X139901200Y-64509027D01*
X139939295Y-64585217D01*
X139977390Y-64737598D01*
X139977390Y-64851884D01*
X139939295Y-65004265D01*
X139901200Y-65080456D01*
X139825009Y-65156646D01*
X139710723Y-65194741D01*
X139634533Y-65194741D01*
X139520247Y-65156646D01*
X139482152Y-65118551D01*
X139482152Y-64851884D01*
X139634533Y-64851884D01*
X139139295Y-65194741D02*
X139139295Y-64394741D01*
X138834533Y-64394741D01*
X138758342Y-64432837D01*
X138720247Y-64470932D01*
X138682152Y-64547122D01*
X138682152Y-64661408D01*
X138720247Y-64737598D01*
X138758342Y-64775694D01*
X138834533Y-64813789D01*
X139139295Y-64813789D01*
X137920247Y-65194741D02*
X138377390Y-65194741D01*
X138148819Y-65194741D02*
X138148819Y-64394741D01*
X138225009Y-64509027D01*
X138301200Y-64585217D01*
X138377390Y-64623313D01*
X137005961Y-64356646D02*
X137691676Y-65385217D01*
X136739295Y-65194741D02*
X136739295Y-64394741D01*
X136548819Y-64394741D01*
X136434533Y-64432837D01*
X136358342Y-64509027D01*
X136320247Y-64585217D01*
X136282152Y-64737598D01*
X136282152Y-64851884D01*
X136320247Y-65004265D01*
X136358342Y-65080456D01*
X136434533Y-65156646D01*
X136548819Y-65194741D01*
X136739295Y-65194741D01*
X135939295Y-65194741D02*
X135939295Y-64394741D01*
X135139295Y-64432837D02*
X135215485Y-64394741D01*
X135329771Y-64394741D01*
X135444057Y-64432837D01*
X135520247Y-64509027D01*
X135558342Y-64585217D01*
X135596438Y-64737598D01*
X135596438Y-64851884D01*
X135558342Y-65004265D01*
X135520247Y-65080456D01*
X135444057Y-65156646D01*
X135329771Y-65194741D01*
X135253580Y-65194741D01*
X135139295Y-65156646D01*
X135101200Y-65118551D01*
X135101200Y-64851884D01*
X135253580Y-64851884D01*
X134034533Y-65194741D02*
X134110723Y-65156646D01*
X134148819Y-65118551D01*
X134186914Y-65042360D01*
X134186914Y-64813789D01*
X134148819Y-64737598D01*
X134110723Y-64699503D01*
X134034533Y-64661408D01*
X133920247Y-64661408D01*
X133844057Y-64699503D01*
X133805961Y-64737598D01*
X133767866Y-64813789D01*
X133767866Y-65042360D01*
X133805961Y-65118551D01*
X133844057Y-65156646D01*
X133920247Y-65194741D01*
X134034533Y-65194741D01*
X133082152Y-64661408D02*
X133082152Y-65194741D01*
X133425009Y-64661408D02*
X133425009Y-65080456D01*
X133386914Y-65156646D01*
X133310723Y-65194741D01*
X133196438Y-65194741D01*
X133120247Y-65156646D01*
X133082152Y-65118551D01*
X132815485Y-64661408D02*
X132510723Y-64661408D01*
X132701200Y-64394741D02*
X132701200Y-65080456D01*
X132663104Y-65156646D01*
X132586914Y-65194741D01*
X132510723Y-65194741D01*
X132282152Y-64470932D02*
X132244057Y-64432837D01*
X132167866Y-64394741D01*
X131977390Y-64394741D01*
X131901200Y-64432837D01*
X131863104Y-64470932D01*
X131825009Y-64547122D01*
X131825009Y-64623313D01*
X131863104Y-64737598D01*
X132320247Y-65194741D01*
X131825009Y-65194741D01*
X139469447Y-61892837D02*
X139545638Y-61854741D01*
X139659923Y-61854741D01*
X139774209Y-61892837D01*
X139850400Y-61969027D01*
X139888495Y-62045217D01*
X139926590Y-62197598D01*
X139926590Y-62311884D01*
X139888495Y-62464265D01*
X139850400Y-62540456D01*
X139774209Y-62616646D01*
X139659923Y-62654741D01*
X139583733Y-62654741D01*
X139469447Y-62616646D01*
X139431352Y-62578551D01*
X139431352Y-62311884D01*
X139583733Y-62311884D01*
X139088495Y-62654741D02*
X139088495Y-61854741D01*
X138783733Y-61854741D01*
X138707542Y-61892837D01*
X138669447Y-61930932D01*
X138631352Y-62007122D01*
X138631352Y-62121408D01*
X138669447Y-62197598D01*
X138707542Y-62235694D01*
X138783733Y-62273789D01*
X139088495Y-62273789D01*
X138136114Y-61854741D02*
X138059923Y-61854741D01*
X137983733Y-61892837D01*
X137945638Y-61930932D01*
X137907542Y-62007122D01*
X137869447Y-62159503D01*
X137869447Y-62349979D01*
X137907542Y-62502360D01*
X137945638Y-62578551D01*
X137983733Y-62616646D01*
X138059923Y-62654741D01*
X138136114Y-62654741D01*
X138212304Y-62616646D01*
X138250400Y-62578551D01*
X138288495Y-62502360D01*
X138326590Y-62349979D01*
X138326590Y-62159503D01*
X138288495Y-62007122D01*
X138250400Y-61930932D01*
X138212304Y-61892837D01*
X138136114Y-61854741D01*
X136955161Y-61816646D02*
X137640876Y-62845217D01*
X136688495Y-62654741D02*
X136688495Y-61854741D01*
X136498019Y-61854741D01*
X136383733Y-61892837D01*
X136307542Y-61969027D01*
X136269447Y-62045217D01*
X136231352Y-62197598D01*
X136231352Y-62311884D01*
X136269447Y-62464265D01*
X136307542Y-62540456D01*
X136383733Y-62616646D01*
X136498019Y-62654741D01*
X136688495Y-62654741D01*
X135888495Y-62654741D02*
X135888495Y-61854741D01*
X135088495Y-61892837D02*
X135164685Y-61854741D01*
X135278971Y-61854741D01*
X135393257Y-61892837D01*
X135469447Y-61969027D01*
X135507542Y-62045217D01*
X135545638Y-62197598D01*
X135545638Y-62311884D01*
X135507542Y-62464265D01*
X135469447Y-62540456D01*
X135393257Y-62616646D01*
X135278971Y-62654741D01*
X135202780Y-62654741D01*
X135088495Y-62616646D01*
X135050400Y-62578551D01*
X135050400Y-62311884D01*
X135202780Y-62311884D01*
X133983733Y-62654741D02*
X134059923Y-62616646D01*
X134098019Y-62578551D01*
X134136114Y-62502360D01*
X134136114Y-62273789D01*
X134098019Y-62197598D01*
X134059923Y-62159503D01*
X133983733Y-62121408D01*
X133869447Y-62121408D01*
X133793257Y-62159503D01*
X133755161Y-62197598D01*
X133717066Y-62273789D01*
X133717066Y-62502360D01*
X133755161Y-62578551D01*
X133793257Y-62616646D01*
X133869447Y-62654741D01*
X133983733Y-62654741D01*
X133031352Y-62121408D02*
X133031352Y-62654741D01*
X133374209Y-62121408D02*
X133374209Y-62540456D01*
X133336114Y-62616646D01*
X133259923Y-62654741D01*
X133145638Y-62654741D01*
X133069447Y-62616646D01*
X133031352Y-62578551D01*
X132764685Y-62121408D02*
X132459923Y-62121408D01*
X132650400Y-61854741D02*
X132650400Y-62540456D01*
X132612304Y-62616646D01*
X132536114Y-62654741D01*
X132459923Y-62654741D01*
X132269447Y-61854741D02*
X131774209Y-61854741D01*
X132040876Y-62159503D01*
X131926590Y-62159503D01*
X131850400Y-62197598D01*
X131812304Y-62235694D01*
X131774209Y-62311884D01*
X131774209Y-62502360D01*
X131812304Y-62578551D01*
X131850400Y-62616646D01*
X131926590Y-62654741D01*
X132155161Y-62654741D01*
X132231352Y-62616646D01*
X132269447Y-62578551D01*
X127360266Y-62007141D02*
X127093600Y-62807141D01*
X126826933Y-62007141D01*
X126293600Y-62388094D02*
X126179314Y-62426189D01*
X126141219Y-62464284D01*
X126103123Y-62540475D01*
X126103123Y-62654760D01*
X126141219Y-62730951D01*
X126179314Y-62769046D01*
X126255504Y-62807141D01*
X126560266Y-62807141D01*
X126560266Y-62007141D01*
X126293600Y-62007141D01*
X126217409Y-62045237D01*
X126179314Y-62083332D01*
X126141219Y-62159522D01*
X126141219Y-62235713D01*
X126179314Y-62311903D01*
X126217409Y-62349998D01*
X126293600Y-62388094D01*
X126560266Y-62388094D01*
X125760266Y-62007141D02*
X125760266Y-62654760D01*
X125722171Y-62730951D01*
X125684076Y-62769046D01*
X125607885Y-62807141D01*
X125455504Y-62807141D01*
X125379314Y-62769046D01*
X125341219Y-62730951D01*
X125303123Y-62654760D01*
X125303123Y-62007141D01*
X124960266Y-62769046D02*
X124845980Y-62807141D01*
X124655504Y-62807141D01*
X124579314Y-62769046D01*
X124541219Y-62730951D01*
X124503123Y-62654760D01*
X124503123Y-62578570D01*
X124541219Y-62502379D01*
X124579314Y-62464284D01*
X124655504Y-62426189D01*
X124807885Y-62388094D01*
X124884076Y-62349998D01*
X124922171Y-62311903D01*
X124960266Y-62235713D01*
X124960266Y-62159522D01*
X124922171Y-62083332D01*
X124884076Y-62045237D01*
X124807885Y-62007141D01*
X124617409Y-62007141D01*
X124503123Y-62045237D01*
X144053510Y-92581844D02*
X143972698Y-92554906D01*
X143891886Y-92474094D01*
X143838011Y-92366345D01*
X143838011Y-92258595D01*
X143864949Y-92177783D01*
X143945761Y-92043096D01*
X144026573Y-91962284D01*
X144161260Y-91881471D01*
X144242072Y-91854534D01*
X144349822Y-91854534D01*
X144457571Y-91908409D01*
X144511446Y-91962284D01*
X144565321Y-92070033D01*
X144565321Y-92123908D01*
X144376759Y-92312470D01*
X144269010Y-92204720D01*
X144861632Y-92312470D02*
X144295947Y-92878155D01*
X145184881Y-92635719D01*
X144619196Y-93201404D01*
X145454255Y-92905093D02*
X144888570Y-93470778D01*
X145023257Y-93605465D01*
X145131006Y-93659340D01*
X145238756Y-93659340D01*
X145319568Y-93632402D01*
X145454255Y-93551590D01*
X145535067Y-93470778D01*
X145615880Y-93336091D01*
X145642817Y-93255279D01*
X145642817Y-93147529D01*
X145588942Y-93039780D01*
X145454255Y-92905093D01*
D13*
X119894144Y-63525000D02*
X117234144Y-63525000D01*
X119894144Y-62255000D02*
X119894144Y-60925000D01*
X119894144Y-60925000D02*
X118564144Y-60925000D01*
X119894144Y-111845000D02*
X117234144Y-111845000D01*
X117234144Y-63525000D02*
X117234144Y-111845000D01*
X119894144Y-63525000D02*
X119894144Y-111845000D01*
%TO.C,reset*%
X114944133Y-89261331D02*
X114944133Y-90761331D01*
X109194133Y-86761331D02*
X113694133Y-86761331D01*
X107944133Y-90761331D02*
X107944133Y-89261331D01*
X113694133Y-93261331D02*
X109194133Y-93261331D01*
%TO.C,REF\u002A\u002A*%
X92927600Y-155795200D02*
X170927600Y-155795200D01*
X170927600Y-135695200D02*
X92927600Y-135695200D01*
X92927600Y-135695200D02*
X92927600Y-155795200D01*
X170927600Y-155795200D02*
X170927600Y-135695200D01*
%TO.C,G\u002A\u002A\u002A*%
G36*
X147006281Y-127145126D02*
G01*
X147057483Y-127406608D01*
X147221276Y-127856762D01*
X147458614Y-128361287D01*
X147910947Y-129221186D01*
X146384367Y-130752979D01*
X146154161Y-130982123D01*
X145623534Y-131495662D01*
X145175649Y-131909003D01*
X144851976Y-132184566D01*
X144693985Y-132284771D01*
X144524339Y-132222194D01*
X144154930Y-132030243D01*
X143653142Y-131744627D01*
X143079757Y-131401759D01*
X142495553Y-131038055D01*
X141961310Y-130689930D01*
X141537808Y-130393800D01*
X141365899Y-130265213D01*
X140799844Y-129829890D01*
X140201530Y-129355375D01*
X139615408Y-128878611D01*
X139085927Y-128436539D01*
X138657539Y-128066099D01*
X138374694Y-127804233D01*
X138281842Y-127687883D01*
X138372806Y-127511133D01*
X138531089Y-127197344D01*
X138735838Y-126788865D01*
X147006281Y-126788865D01*
X147006281Y-127145126D01*
G37*
G36*
X145952774Y-112023751D02*
G01*
X146327698Y-112263226D01*
X146580029Y-112620735D01*
X146651668Y-113053423D01*
X146484516Y-113518431D01*
X146246640Y-113790112D01*
X145920721Y-114011786D01*
X145446478Y-114087128D01*
X145011484Y-113940340D01*
X144688569Y-113622207D01*
X144518913Y-113196640D01*
X144543697Y-112727550D01*
X144804103Y-112278848D01*
X145067536Y-112070337D01*
X145513353Y-111945169D01*
X145952774Y-112023751D01*
G37*
G36*
X152459372Y-112290952D02*
G01*
X152946875Y-112363804D01*
X153653649Y-112510798D01*
X154364650Y-112696614D01*
X155020686Y-112902264D01*
X155562567Y-113108761D01*
X155931101Y-113297114D01*
X156067100Y-113448335D01*
X156067060Y-113449621D01*
X156007719Y-113636320D01*
X155840023Y-114080504D01*
X155570429Y-114766157D01*
X155205393Y-115677260D01*
X154751373Y-116797795D01*
X154214825Y-118111746D01*
X153602205Y-119603095D01*
X152919969Y-121255824D01*
X152864820Y-121387357D01*
X152649118Y-121868033D01*
X152475349Y-122204524D01*
X152376923Y-122330696D01*
X152246902Y-122310606D01*
X151945170Y-122239103D01*
X151610959Y-122149538D01*
X151610959Y-112191238D01*
X152459372Y-112290952D01*
G37*
G36*
X163355500Y-121953350D02*
G01*
X163385443Y-122336061D01*
X163401794Y-122884502D01*
X163404994Y-123527959D01*
X163395482Y-124195721D01*
X163373699Y-124817072D01*
X163340085Y-125321302D01*
X163295081Y-125637695D01*
X163191264Y-126046175D01*
X155358128Y-126046175D01*
X155284605Y-125563426D01*
X155279019Y-125526311D01*
X155237081Y-125203897D01*
X155230612Y-125060388D01*
X155232995Y-125058187D01*
X155410757Y-124966370D01*
X155815899Y-124786624D01*
X156406601Y-124535748D01*
X157141043Y-124230543D01*
X157977404Y-123887812D01*
X158873863Y-123524353D01*
X159788600Y-123156968D01*
X160679794Y-122802457D01*
X161505625Y-122477621D01*
X162224273Y-122199262D01*
X162793916Y-121984179D01*
X163172735Y-121849173D01*
X163318909Y-121811045D01*
X163355500Y-121953350D01*
G37*
G36*
X119378211Y-127234479D02*
G01*
X118189907Y-127234479D01*
X118189907Y-122926877D01*
X119378211Y-122926877D01*
X119378211Y-127234479D01*
G37*
G36*
X142926906Y-123385707D02*
G01*
X143122012Y-123465300D01*
X144123733Y-123874990D01*
X145029956Y-124247305D01*
X145804737Y-124567357D01*
X146412130Y-124820256D01*
X146816187Y-124991110D01*
X146980965Y-125065031D01*
X146982117Y-125065764D01*
X147049450Y-125253740D01*
X147038925Y-125594021D01*
X146972563Y-126046175D01*
X142830358Y-126046175D01*
X141793969Y-126042511D01*
X140753605Y-126029935D01*
X139893693Y-126009333D01*
X139243381Y-125981673D01*
X138831818Y-125947918D01*
X138688152Y-125909033D01*
X138680736Y-125873350D01*
X138549413Y-125638641D01*
X138305923Y-125317638D01*
X138203397Y-125196369D01*
X138076176Y-125022714D01*
X138015744Y-124844914D01*
X138028238Y-124607674D01*
X138119795Y-124255695D01*
X138296551Y-123733681D01*
X138564643Y-122986334D01*
X138997169Y-121783217D01*
X142926906Y-123385707D01*
G37*
G36*
X155689362Y-131387134D02*
G01*
X156088957Y-131790488D01*
X156611659Y-132327390D01*
X157028437Y-132766819D01*
X157304221Y-133071603D01*
X157403942Y-133204568D01*
X157384418Y-133250891D01*
X157152641Y-133409359D01*
X156700478Y-133603962D01*
X156079756Y-133818875D01*
X155342300Y-134038274D01*
X154539939Y-134246336D01*
X153724497Y-134427236D01*
X152947802Y-134565151D01*
X152671728Y-134599297D01*
X151676120Y-134636635D01*
X150621265Y-134566662D01*
X150268360Y-134518393D01*
X149977566Y-134432235D01*
X149836549Y-134270341D01*
X149760550Y-133974386D01*
X149595492Y-133508183D01*
X149323315Y-133075010D01*
X148979906Y-132675774D01*
X149412640Y-131613292D01*
X149845373Y-130550811D01*
X150992818Y-130563698D01*
X151550752Y-130558472D01*
X152060860Y-130503079D01*
X152518750Y-130367183D01*
X153057522Y-130122330D01*
X153974782Y-129668075D01*
X155689362Y-131387134D01*
G37*
G36*
X157554831Y-129367581D02*
G01*
X158384175Y-129710918D01*
X159138280Y-130022160D01*
X159763659Y-130279302D01*
X160211775Y-130462384D01*
X160434087Y-130551448D01*
X160463854Y-130562889D01*
X160615133Y-130650731D01*
X160584635Y-130784311D01*
X160359818Y-131047370D01*
X160330221Y-131078701D01*
X160009445Y-131375191D01*
X159548908Y-131758527D01*
X159037860Y-132153995D01*
X158072363Y-132871857D01*
X156229726Y-131032025D01*
X154387090Y-129192194D01*
X154672428Y-128741533D01*
X154957766Y-128290873D01*
X157554831Y-129367581D01*
G37*
G36*
X148006282Y-133176053D02*
G01*
X148517162Y-133301285D01*
X148884040Y-133616662D01*
X149073724Y-134047663D01*
X149053021Y-134519768D01*
X148788737Y-134958455D01*
X148677877Y-135050694D01*
X148215932Y-135229477D01*
X147704414Y-135217335D01*
X147277919Y-135009703D01*
X147125268Y-134794067D01*
X147015359Y-134336423D01*
X147056901Y-133842900D01*
X147252110Y-133447637D01*
X147534084Y-133264825D01*
X147994800Y-133175999D01*
X148006282Y-133176053D01*
G37*
G36*
X128290492Y-124319800D02*
G01*
X128293531Y-124690713D01*
X128323518Y-125309675D01*
X128390113Y-125694010D01*
X128498902Y-125885689D01*
X128719762Y-125966929D01*
X129220499Y-126017121D01*
X129947148Y-126015280D01*
X131186983Y-125971906D01*
X131229314Y-124449391D01*
X131271644Y-122926877D01*
X132598094Y-122926877D01*
X132598094Y-124568171D01*
X132594889Y-124930522D01*
X132544417Y-125840588D01*
X132427690Y-126493974D01*
X132238323Y-126916769D01*
X131969933Y-127135063D01*
X131950341Y-127140769D01*
X131687947Y-127169423D01*
X131201996Y-127194305D01*
X130554196Y-127212915D01*
X129806254Y-127222752D01*
X129739842Y-127223141D01*
X128956115Y-127224805D01*
X128409250Y-127213551D01*
X128043067Y-127180907D01*
X127801382Y-127118397D01*
X127628014Y-127017548D01*
X127466781Y-126869886D01*
X127356114Y-126752874D01*
X127237514Y-126578272D01*
X127163016Y-126347519D01*
X127122426Y-126000388D01*
X127105548Y-125476652D01*
X127102187Y-124716084D01*
X127102187Y-122926877D01*
X128290492Y-122926877D01*
X128290492Y-124319800D01*
G37*
G36*
X144492530Y-114396254D02*
G01*
X144537858Y-114432271D01*
X144894426Y-114602832D01*
X145345856Y-114713154D01*
X145936559Y-114792384D01*
X149212153Y-122555532D01*
X148889042Y-122812170D01*
X148634202Y-122984702D01*
X148416126Y-123072112D01*
X148378939Y-123052067D01*
X148156450Y-122865966D01*
X147763560Y-122505382D01*
X147226919Y-121995780D01*
X146573174Y-121362630D01*
X145828976Y-120631397D01*
X145020973Y-119827548D01*
X144786445Y-119592693D01*
X143911360Y-118712312D01*
X143224153Y-118011404D01*
X142704866Y-117467199D01*
X142333540Y-117056927D01*
X142090214Y-116757818D01*
X141954929Y-116547103D01*
X141907727Y-116402010D01*
X141928647Y-116299771D01*
X142066922Y-116107578D01*
X142405261Y-115734456D01*
X142853377Y-115293781D01*
X143341161Y-114853696D01*
X143798504Y-114482347D01*
X143804549Y-114477812D01*
X144103649Y-114277642D01*
X144294278Y-114255257D01*
X144492530Y-114396254D01*
G37*
G36*
X161002482Y-117134638D02*
G01*
X161181387Y-117276091D01*
X161444340Y-117622878D01*
X161760817Y-118118056D01*
X162100296Y-118704681D01*
X162432253Y-119325806D01*
X162726166Y-119924489D01*
X162951511Y-120443784D01*
X163077766Y-120826747D01*
X163074407Y-121016434D01*
X163063124Y-121024034D01*
X162853013Y-121125256D01*
X162411315Y-121321958D01*
X161773491Y-121598844D01*
X160975000Y-121940618D01*
X160051303Y-122331984D01*
X159037860Y-122757646D01*
X158816654Y-122850113D01*
X157820618Y-123265048D01*
X156921977Y-123637149D01*
X156156028Y-123951962D01*
X155558066Y-124195035D01*
X155163386Y-124351915D01*
X155007283Y-124408147D01*
X155004264Y-124408090D01*
X154861848Y-124292247D01*
X154656799Y-124021301D01*
X154400635Y-123630346D01*
X157646344Y-120382120D01*
X158014753Y-120014076D01*
X158794089Y-119239989D01*
X159495202Y-118549615D01*
X160091887Y-117968386D01*
X160557938Y-117521734D01*
X160867149Y-117235093D01*
X160993316Y-117133894D01*
X161002482Y-117134638D01*
G37*
G36*
X98683742Y-122955872D02*
G01*
X99378747Y-123001146D01*
X100280526Y-124462019D01*
X100623290Y-125001444D01*
X100949018Y-125481474D01*
X101194879Y-125807963D01*
X101324733Y-125930101D01*
X101325451Y-125930118D01*
X101457763Y-125812074D01*
X101709833Y-125490581D01*
X102045735Y-125014350D01*
X102429546Y-124432093D01*
X103391930Y-122926877D01*
X104821486Y-122926877D01*
X104821486Y-127234479D01*
X103633182Y-127234479D01*
X103631899Y-126009040D01*
X103630615Y-124783602D01*
X102852908Y-126009040D01*
X102075202Y-127234479D01*
X100544472Y-127234479D01*
X99863021Y-126083309D01*
X99181570Y-124932140D01*
X99179306Y-126083309D01*
X99177041Y-127234479D01*
X97988737Y-127234479D01*
X97988737Y-122910599D01*
X98683742Y-122955872D01*
G37*
G36*
X157091316Y-113840366D02*
G01*
X157527314Y-114093592D01*
X158074303Y-114459498D01*
X158687070Y-114907173D01*
X159320403Y-115405705D01*
X159929088Y-115924182D01*
X160597509Y-116519993D01*
X157330939Y-119797704D01*
X156944646Y-120184244D01*
X156161047Y-120961520D01*
X155453548Y-121654276D01*
X154848650Y-122237112D01*
X154372853Y-122684629D01*
X154052658Y-122971429D01*
X153914565Y-123072112D01*
X153724429Y-123001519D01*
X153429811Y-122810974D01*
X153094862Y-122553139D01*
X154896157Y-118172464D01*
X155142666Y-117573479D01*
X155564434Y-116551147D01*
X155942326Y-115638338D01*
X156262577Y-114868120D01*
X156511420Y-114273563D01*
X156675089Y-113887733D01*
X156739817Y-113743702D01*
X156811524Y-113730734D01*
X157091316Y-113840366D01*
G37*
G36*
X148774527Y-129874803D02*
G01*
X149062529Y-130055410D01*
X149213620Y-130151930D01*
X149214110Y-130244342D01*
X149125025Y-130543322D01*
X148964054Y-130970046D01*
X148764943Y-131444932D01*
X148561435Y-131888396D01*
X148387276Y-132220855D01*
X148276209Y-132362723D01*
X148073124Y-132414826D01*
X147718887Y-132496232D01*
X147699292Y-132500815D01*
X147301108Y-132669668D01*
X146904164Y-132939468D01*
X146490871Y-133294968D01*
X145910753Y-132999014D01*
X145330635Y-132703059D01*
X148388971Y-129634279D01*
X148774527Y-129874803D01*
G37*
G36*
X159385441Y-126789043D02*
G01*
X160662559Y-126796799D01*
X161648085Y-126816160D01*
X162346492Y-126847312D01*
X162762255Y-126890442D01*
X162899848Y-126945734D01*
X162889763Y-127002847D01*
X162776001Y-127305400D01*
X162561896Y-127774387D01*
X162280302Y-128342655D01*
X161964074Y-128943050D01*
X161646067Y-129508416D01*
X161254018Y-130177398D01*
X158549155Y-129064458D01*
X158470308Y-129032018D01*
X157621735Y-128683139D01*
X156855798Y-128368673D01*
X156220510Y-128108300D01*
X155763885Y-127921699D01*
X155533937Y-127828552D01*
X155447010Y-127788443D01*
X155287806Y-127600945D01*
X155290855Y-127247225D01*
X155358128Y-126788865D01*
X159128988Y-126788865D01*
X159385441Y-126789043D01*
G37*
G36*
X121786575Y-124345917D02*
G01*
X121829088Y-125764958D01*
X124205696Y-122936270D01*
X125126229Y-122931573D01*
X126046762Y-122926877D01*
X126091726Y-125019264D01*
X126097039Y-125291321D01*
X126105575Y-126014535D01*
X126104426Y-126605927D01*
X126094023Y-127010452D01*
X126074800Y-127173065D01*
X126055980Y-127183540D01*
X125828397Y-127219822D01*
X125449087Y-127234479D01*
X124885265Y-127234479D01*
X124842557Y-125864116D01*
X124799848Y-124493754D01*
X122423240Y-127239898D01*
X121457743Y-127200054D01*
X120983556Y-127165499D01*
X120644966Y-127110883D01*
X120529380Y-127048806D01*
X120532846Y-127029685D01*
X120546045Y-126784212D01*
X120556736Y-126313993D01*
X120563900Y-125677234D01*
X120566515Y-124932140D01*
X120566515Y-122926877D01*
X121744061Y-122926877D01*
X121786575Y-124345917D01*
G37*
G36*
X111030132Y-126301211D02*
G01*
X111206985Y-126745931D01*
X111295391Y-126974537D01*
X111308023Y-127012746D01*
X111299564Y-127154424D01*
X111120289Y-127219088D01*
X110707459Y-127234479D01*
X110587602Y-127233759D01*
X110214560Y-127202571D01*
X110026465Y-127093496D01*
X109932774Y-126863134D01*
X109884883Y-126708445D01*
X109785857Y-126586811D01*
X109581988Y-126522089D01*
X109209204Y-126496381D01*
X108603433Y-126491789D01*
X108145391Y-126493997D01*
X107713226Y-126512396D01*
X107472650Y-126563169D01*
X107362054Y-126662356D01*
X107319828Y-126825999D01*
X107311513Y-126875860D01*
X107222321Y-127061251D01*
X106996561Y-127158035D01*
X106554049Y-127206004D01*
X106310723Y-127224858D01*
X106096914Y-127230681D01*
X105971439Y-127183314D01*
X105938317Y-127045792D01*
X106001568Y-126781153D01*
X106165212Y-126352434D01*
X106433271Y-125722672D01*
X106574654Y-125396803D01*
X107940784Y-125396803D01*
X107973729Y-125413766D01*
X108216954Y-125441197D01*
X108619215Y-125452023D01*
X108673081Y-125452029D01*
X109008323Y-125441122D01*
X109184095Y-125372335D01*
X109211983Y-125191464D01*
X109103573Y-124844306D01*
X108870453Y-124276657D01*
X108647196Y-123743836D01*
X108293990Y-124542709D01*
X108139085Y-124898700D01*
X107995994Y-125242377D01*
X107940784Y-125396803D01*
X106574654Y-125396803D01*
X106809764Y-124854903D01*
X107611406Y-123001146D01*
X108635495Y-122958146D01*
X109659585Y-122915147D01*
X110430712Y-124814871D01*
X110505590Y-124999476D01*
X110583181Y-125191464D01*
X110788458Y-125699389D01*
X111030132Y-126301211D01*
G37*
G36*
X137051411Y-125333782D02*
G01*
X137477855Y-125571015D01*
X137767109Y-126024494D01*
X137825524Y-126498393D01*
X137636676Y-126980397D01*
X137199845Y-127339704D01*
X137119409Y-127376503D01*
X136638694Y-127449025D01*
X136222526Y-127295803D01*
X135912757Y-126977928D01*
X135751238Y-126556487D01*
X135779822Y-126092571D01*
X136040360Y-125647269D01*
X136110166Y-125578662D01*
X136568580Y-125330447D01*
X137051411Y-125333782D01*
G37*
G36*
X115438146Y-122930658D02*
G01*
X116097521Y-122967028D01*
X116539283Y-123074959D01*
X116806764Y-123293453D01*
X116943300Y-123661510D01*
X116992227Y-124218134D01*
X116996879Y-125002325D01*
X116983815Y-125676859D01*
X116931283Y-126224164D01*
X116818997Y-126594039D01*
X116626462Y-126849878D01*
X116333182Y-127055072D01*
X116215664Y-127097456D01*
X115806890Y-127164969D01*
X115213015Y-127211462D01*
X114506839Y-127229962D01*
X114398712Y-127230228D01*
X113735243Y-127225573D01*
X113292387Y-127200035D01*
X113002693Y-127140791D01*
X112798708Y-127035016D01*
X112612980Y-126869886D01*
X112384614Y-126562051D01*
X112248386Y-126052927D01*
X112248949Y-125974072D01*
X112288066Y-125721324D01*
X112451065Y-125619441D01*
X112824351Y-125600561D01*
X112875577Y-125601313D01*
X113309810Y-125670270D01*
X113585228Y-125823368D01*
X113622096Y-125857659D01*
X113931415Y-125976011D01*
X114397730Y-126038613D01*
X114910681Y-126043066D01*
X115359909Y-125986971D01*
X115635053Y-125867929D01*
X115715303Y-125725073D01*
X115792818Y-125334721D01*
X115805282Y-124857527D01*
X115752693Y-124419059D01*
X115635053Y-124144888D01*
X115593713Y-124112297D01*
X115269486Y-124007718D01*
X114796165Y-123965543D01*
X114284108Y-123983372D01*
X113843676Y-124058808D01*
X113585228Y-124189450D01*
X113567038Y-124209025D01*
X113267746Y-124354865D01*
X112824351Y-124412257D01*
X112729243Y-124411855D01*
X112404556Y-124381662D01*
X112273043Y-124255518D01*
X112248386Y-123966643D01*
X112321847Y-123598652D01*
X112545462Y-123223953D01*
X112598408Y-123174011D01*
X112763843Y-123064060D01*
X112998979Y-122992239D01*
X113360640Y-122950681D01*
X113905652Y-122931516D01*
X114690841Y-122926877D01*
X115438146Y-122930658D01*
G37*
G36*
X150719731Y-117175942D02*
G01*
X150719678Y-117570390D01*
X150718141Y-118847614D01*
X150713340Y-119865583D01*
X150703743Y-120654056D01*
X150687821Y-121242788D01*
X150664045Y-121661539D01*
X150630883Y-121940067D01*
X150586807Y-122108128D01*
X150530286Y-122195481D01*
X150459790Y-122231884D01*
X150315846Y-122261607D01*
X149993990Y-122279910D01*
X149904908Y-122180732D01*
X149708160Y-121830405D01*
X149425115Y-121253006D01*
X149068348Y-120475310D01*
X148650435Y-119524091D01*
X148183951Y-118426123D01*
X146579771Y-114593790D01*
X146941564Y-114060658D01*
X147012877Y-113947573D01*
X147220045Y-113502288D01*
X147303357Y-113120273D01*
X147303998Y-113069303D01*
X147355718Y-112825686D01*
X147545719Y-112675314D01*
X147951788Y-112549744D01*
X148380300Y-112461622D01*
X149012516Y-112363324D01*
X149659975Y-112287974D01*
X150719731Y-112189480D01*
X150719731Y-117175942D01*
G37*
G36*
X141372773Y-117154799D02*
G01*
X141583601Y-117342457D01*
X141965769Y-117704110D01*
X142493102Y-118214331D01*
X143139426Y-118847692D01*
X143878565Y-119578764D01*
X144684347Y-120382120D01*
X147930056Y-123630346D01*
X147673892Y-124021301D01*
X147666736Y-124032163D01*
X147459706Y-124300981D01*
X147315637Y-124412257D01*
X147203300Y-124378199D01*
X146848630Y-124245557D01*
X146296789Y-124029300D01*
X145590735Y-123747085D01*
X144773429Y-123416570D01*
X143887829Y-123055413D01*
X142976896Y-122681270D01*
X142083589Y-122311800D01*
X141250867Y-121964660D01*
X140521690Y-121657508D01*
X139939017Y-121408001D01*
X139545808Y-121233797D01*
X139385022Y-121152552D01*
X139379400Y-121128638D01*
X139443032Y-120900006D01*
X139610156Y-120484179D01*
X139852949Y-119938323D01*
X140143590Y-119319606D01*
X140454259Y-118685192D01*
X140757134Y-118092248D01*
X141024395Y-117597940D01*
X141228220Y-117259433D01*
X141340788Y-117133894D01*
X141372773Y-117154799D01*
G37*
G36*
X96948005Y-125205138D02*
G01*
X96936829Y-125937905D01*
X96915106Y-126541099D01*
X96885318Y-126958892D01*
X96849946Y-127135454D01*
X96825319Y-127152038D01*
X96574052Y-127210749D01*
X96181525Y-127234479D01*
X96049684Y-127233807D01*
X95748330Y-127198853D01*
X95631612Y-127052383D01*
X95612129Y-126714596D01*
X95612129Y-126194713D01*
X94221050Y-126194713D01*
X93985487Y-126193973D01*
X93371883Y-126177337D01*
X92958796Y-126129114D01*
X92672331Y-126036541D01*
X92438593Y-125886856D01*
X92419890Y-125872050D01*
X92218853Y-125680726D01*
X92106614Y-125453453D01*
X92057845Y-125103282D01*
X92054597Y-124932140D01*
X93309790Y-124932140D01*
X94460959Y-124975522D01*
X95612129Y-125018905D01*
X95612129Y-123954146D01*
X94460959Y-123997529D01*
X93309790Y-124040912D01*
X93309790Y-124932140D01*
X92054597Y-124932140D01*
X92047217Y-124543262D01*
X92055915Y-124054428D01*
X92103410Y-123652752D01*
X92214031Y-123379687D01*
X92411810Y-123142932D01*
X92453345Y-123101860D01*
X92608751Y-122969432D01*
X92790396Y-122879151D01*
X93052446Y-122822959D01*
X93449067Y-122792798D01*
X94034425Y-122780610D01*
X94862687Y-122778339D01*
X96948971Y-122778339D01*
X96948971Y-124907383D01*
X96948005Y-125205138D01*
G37*
%TO.C,REF\u002A\u002A*%
X146679303Y-62278730D02*
X146679303Y-60948730D01*
X146679303Y-60948730D02*
X145349303Y-60948730D01*
X144019303Y-63548730D02*
X144019303Y-111868730D01*
X146679303Y-63548730D02*
X144019303Y-63548730D01*
X146679303Y-111868730D02*
X144019303Y-111868730D01*
X146679303Y-63548730D02*
X146679303Y-111868730D01*
%TO.C,BC337*%
X112098000Y-74240000D02*
X108498000Y-74240000D01*
X110298000Y-69789999D02*
G75*
G03*
X108459522Y-74228478I0J-2600001D01*
G01*
X112136478Y-74228478D02*
G75*
G03*
X110298000Y-69790000I-1838478J1838478D01*
G01*
X155989200Y-74307237D02*
X152389200Y-74307237D01*
X154189200Y-69857236D02*
G75*
G03*
X152350722Y-74295715I0J-2600001D01*
G01*
X156027678Y-74295715D02*
G75*
G03*
X154189200Y-69857237I-1838478J1838478D01*
G01*
%TO.C,REF\u002A\u002A*%
X142467352Y-75980000D02*
X142467352Y-76380000D01*
X121467352Y-60880000D02*
X121467352Y-61180000D01*
X121467352Y-65880000D02*
X121467352Y-66280000D01*
X142467352Y-60880000D02*
X142467352Y-61180000D01*
X142467352Y-70980000D02*
X142467352Y-71380000D01*
X142467352Y-86180000D02*
X142467352Y-86580000D01*
X142467352Y-91280000D02*
X142467352Y-91680000D01*
X142467352Y-65880000D02*
X142467352Y-66280000D01*
X142467352Y-109080000D02*
X142467352Y-109480000D01*
X121467352Y-106480000D02*
X121467352Y-106880000D01*
X121467352Y-109080000D02*
X121467352Y-109480000D01*
X142467352Y-60880000D02*
X121467352Y-60880000D01*
X121467352Y-78580000D02*
X121467352Y-78980000D01*
X142467352Y-81080000D02*
X142467352Y-81480000D01*
X121467352Y-98880000D02*
X121467352Y-99280000D01*
X135667352Y-111880000D02*
X142467352Y-111880000D01*
X142467352Y-101480000D02*
X142467352Y-101880000D01*
X121467352Y-83680000D02*
X121467352Y-84080000D01*
X142467352Y-98880000D02*
X142467352Y-99280000D01*
X142467352Y-73480000D02*
X142467352Y-73880000D01*
X142467352Y-106480000D02*
X142467352Y-106880000D01*
X121467352Y-86180000D02*
X121467352Y-86580000D01*
X133467352Y-111880000D02*
X133067352Y-111880000D01*
X142467352Y-78580000D02*
X142467352Y-78980000D01*
X121467352Y-101480000D02*
X121467352Y-101880000D01*
X121467352Y-96380000D02*
X121467352Y-96780000D01*
X142467352Y-63280000D02*
X142467352Y-63680000D01*
X142467352Y-96380000D02*
X142467352Y-96780000D01*
X121467352Y-70980000D02*
X121467352Y-71380000D01*
X121467352Y-73480000D02*
X121467352Y-73880000D01*
X121467352Y-75980000D02*
X121467352Y-76380000D01*
X142467352Y-88680000D02*
X142467352Y-89080000D01*
X142467352Y-63547000D02*
X139460352Y-63547000D01*
X121467352Y-63280000D02*
X121467352Y-63680000D01*
X121467352Y-91280000D02*
X121467352Y-91680000D01*
X121467352Y-81080000D02*
X121467352Y-81480000D01*
X139460352Y-63547000D02*
X139460352Y-60880000D01*
X121467352Y-93780000D02*
X121467352Y-94180000D01*
X142467352Y-93780000D02*
X142467352Y-94180000D01*
X142467352Y-68380000D02*
X142467352Y-68780000D01*
X121467352Y-88680000D02*
X121467352Y-89080000D01*
X121467352Y-111880000D02*
X128267352Y-111880000D01*
X121467352Y-103980000D02*
X121467352Y-104380000D01*
X121467352Y-68380000D02*
X121467352Y-68780000D01*
X130867352Y-111880000D02*
X130467352Y-111880000D01*
X142467352Y-103980000D02*
X142467352Y-104380000D01*
X142467352Y-83680000D02*
X142467352Y-84080000D01*
%TD*%
M02*
