%TF.GenerationSoftware,KiCad,Pcbnew,7.0.6*%
%TF.CreationDate,2023-09-03T15:23:35-03:00*%
%TF.ProjectId,bitdoglab_v41,62697464-6f67-46c6-9162-5f7634312e6b,rev?*%
%TF.SameCoordinates,Original*%
%TF.FileFunction,Legend,Bot*%
%TF.FilePolarity,Positive*%
%FSLAX46Y46*%
G04 Gerber Fmt 4.6, Leading zero omitted, Abs format (unit mm)*
G04 Created by KiCad (PCBNEW 7.0.6) date 2023-09-03 15:23:35*
%MOMM*%
%LPD*%
G01*
G04 APERTURE LIST*
%ADD10C,0.150000*%
%ADD11C,0.100000*%
%ADD12C,0.300000*%
%ADD13C,0.120000*%
%ADD14C,0.127000*%
G04 APERTURE END LIST*
D10*
X89281000Y-117602000D02*
X94361000Y-118745000D01*
D11*
X89281000Y-117602000D02*
X89281000Y-109474000D01*
D10*
X118364000Y-122047000D02*
X121793000Y-122047000D01*
X121793000Y-126111000D01*
X118364000Y-126111000D01*
X118364000Y-122047000D01*
X144088094Y-149470580D02*
X143773808Y-149575342D01*
X143773808Y-149575342D02*
X143669046Y-149680104D01*
X143669046Y-149680104D02*
X143564284Y-149889628D01*
X143564284Y-149889628D02*
X143564284Y-150203914D01*
X143564284Y-150203914D02*
X143669046Y-150413438D01*
X143669046Y-150413438D02*
X143773808Y-150518200D01*
X143773808Y-150518200D02*
X143983332Y-150622961D01*
X143983332Y-150622961D02*
X144821427Y-150622961D01*
X144821427Y-150622961D02*
X144821427Y-148422961D01*
X144821427Y-148422961D02*
X144088094Y-148422961D01*
X144088094Y-148422961D02*
X143878570Y-148527723D01*
X143878570Y-148527723D02*
X143773808Y-148632485D01*
X143773808Y-148632485D02*
X143669046Y-148842009D01*
X143669046Y-148842009D02*
X143669046Y-149051533D01*
X143669046Y-149051533D02*
X143773808Y-149261057D01*
X143773808Y-149261057D02*
X143878570Y-149365819D01*
X143878570Y-149365819D02*
X144088094Y-149470580D01*
X144088094Y-149470580D02*
X144821427Y-149470580D01*
X141678570Y-150622961D02*
X141678570Y-149470580D01*
X141678570Y-149470580D02*
X141783332Y-149261057D01*
X141783332Y-149261057D02*
X141992856Y-149156295D01*
X141992856Y-149156295D02*
X142411903Y-149156295D01*
X142411903Y-149156295D02*
X142621427Y-149261057D01*
X141678570Y-150518200D02*
X141888094Y-150622961D01*
X141888094Y-150622961D02*
X142411903Y-150622961D01*
X142411903Y-150622961D02*
X142621427Y-150518200D01*
X142621427Y-150518200D02*
X142726189Y-150308676D01*
X142726189Y-150308676D02*
X142726189Y-150099152D01*
X142726189Y-150099152D02*
X142621427Y-149889628D01*
X142621427Y-149889628D02*
X142411903Y-149784866D01*
X142411903Y-149784866D02*
X141888094Y-149784866D01*
X141888094Y-149784866D02*
X141678570Y-149680104D01*
X140945237Y-149156295D02*
X140107141Y-149156295D01*
X140630951Y-148422961D02*
X140630951Y-150308676D01*
X140630951Y-150308676D02*
X140526189Y-150518200D01*
X140526189Y-150518200D02*
X140316665Y-150622961D01*
X140316665Y-150622961D02*
X140107141Y-150622961D01*
X138535713Y-150518200D02*
X138745237Y-150622961D01*
X138745237Y-150622961D02*
X139164284Y-150622961D01*
X139164284Y-150622961D02*
X139373808Y-150518200D01*
X139373808Y-150518200D02*
X139478570Y-150308676D01*
X139478570Y-150308676D02*
X139478570Y-149470580D01*
X139478570Y-149470580D02*
X139373808Y-149261057D01*
X139373808Y-149261057D02*
X139164284Y-149156295D01*
X139164284Y-149156295D02*
X138745237Y-149156295D01*
X138745237Y-149156295D02*
X138535713Y-149261057D01*
X138535713Y-149261057D02*
X138430951Y-149470580D01*
X138430951Y-149470580D02*
X138430951Y-149680104D01*
X138430951Y-149680104D02*
X139478570Y-149889628D01*
X137488094Y-150622961D02*
X137488094Y-149156295D01*
X137488094Y-149575342D02*
X137383332Y-149365819D01*
X137383332Y-149365819D02*
X137278570Y-149261057D01*
X137278570Y-149261057D02*
X137069046Y-149156295D01*
X137069046Y-149156295D02*
X136859523Y-149156295D01*
X136126189Y-150622961D02*
X136126189Y-149156295D01*
X136126189Y-148422961D02*
X136230951Y-148527723D01*
X136230951Y-148527723D02*
X136126189Y-148632485D01*
X136126189Y-148632485D02*
X136021427Y-148527723D01*
X136021427Y-148527723D02*
X136126189Y-148422961D01*
X136126189Y-148422961D02*
X136126189Y-148632485D01*
X134135713Y-150622961D02*
X134135713Y-149470580D01*
X134135713Y-149470580D02*
X134240475Y-149261057D01*
X134240475Y-149261057D02*
X134449999Y-149156295D01*
X134449999Y-149156295D02*
X134869046Y-149156295D01*
X134869046Y-149156295D02*
X135078570Y-149261057D01*
X134135713Y-150518200D02*
X134345237Y-150622961D01*
X134345237Y-150622961D02*
X134869046Y-150622961D01*
X134869046Y-150622961D02*
X135078570Y-150518200D01*
X135078570Y-150518200D02*
X135183332Y-150308676D01*
X135183332Y-150308676D02*
X135183332Y-150099152D01*
X135183332Y-150099152D02*
X135078570Y-149889628D01*
X135078570Y-149889628D02*
X134869046Y-149784866D01*
X134869046Y-149784866D02*
X134345237Y-149784866D01*
X134345237Y-149784866D02*
X134135713Y-149680104D01*
X130364285Y-150622961D02*
X131411904Y-150622961D01*
X131411904Y-150622961D02*
X131411904Y-148422961D01*
X129630952Y-150622961D02*
X129630952Y-149156295D01*
X129630952Y-148422961D02*
X129735714Y-148527723D01*
X129735714Y-148527723D02*
X129630952Y-148632485D01*
X129630952Y-148632485D02*
X129526190Y-148527723D01*
X129526190Y-148527723D02*
X129630952Y-148422961D01*
X129630952Y-148422961D02*
X129630952Y-148632485D01*
X128583333Y-149784866D02*
X126907143Y-149784866D01*
X125859523Y-150622961D02*
X125859523Y-149156295D01*
X125859523Y-148422961D02*
X125964285Y-148527723D01*
X125964285Y-148527723D02*
X125859523Y-148632485D01*
X125859523Y-148632485D02*
X125754761Y-148527723D01*
X125754761Y-148527723D02*
X125859523Y-148422961D01*
X125859523Y-148422961D02*
X125859523Y-148632485D01*
X124497618Y-150622961D02*
X124707142Y-150518200D01*
X124707142Y-150518200D02*
X124811904Y-150413438D01*
X124811904Y-150413438D02*
X124916666Y-150203914D01*
X124916666Y-150203914D02*
X124916666Y-149575342D01*
X124916666Y-149575342D02*
X124811904Y-149365819D01*
X124811904Y-149365819D02*
X124707142Y-149261057D01*
X124707142Y-149261057D02*
X124497618Y-149156295D01*
X124497618Y-149156295D02*
X124183333Y-149156295D01*
X124183333Y-149156295D02*
X123973809Y-149261057D01*
X123973809Y-149261057D02*
X123869047Y-149365819D01*
X123869047Y-149365819D02*
X123764285Y-149575342D01*
X123764285Y-149575342D02*
X123764285Y-150203914D01*
X123764285Y-150203914D02*
X123869047Y-150413438D01*
X123869047Y-150413438D02*
X123973809Y-150518200D01*
X123973809Y-150518200D02*
X124183333Y-150622961D01*
X124183333Y-150622961D02*
X124497618Y-150622961D01*
X122821428Y-149156295D02*
X122821428Y-150622961D01*
X122821428Y-149365819D02*
X122716666Y-149261057D01*
X122716666Y-149261057D02*
X122507142Y-149156295D01*
X122507142Y-149156295D02*
X122192857Y-149156295D01*
X122192857Y-149156295D02*
X121983333Y-149261057D01*
X121983333Y-149261057D02*
X121878571Y-149470580D01*
X121878571Y-149470580D02*
X121878571Y-150622961D01*
X143826188Y-154164961D02*
X145083331Y-154164961D01*
X144454759Y-154164961D02*
X144454759Y-151964961D01*
X144454759Y-151964961D02*
X144664283Y-152279247D01*
X144664283Y-152279247D02*
X144873807Y-152488771D01*
X144873807Y-152488771D02*
X145083331Y-152593533D01*
X142569045Y-152907819D02*
X142778569Y-152803057D01*
X142778569Y-152803057D02*
X142883331Y-152698295D01*
X142883331Y-152698295D02*
X142988093Y-152488771D01*
X142988093Y-152488771D02*
X142988093Y-152384009D01*
X142988093Y-152384009D02*
X142883331Y-152174485D01*
X142883331Y-152174485D02*
X142778569Y-152069723D01*
X142778569Y-152069723D02*
X142569045Y-151964961D01*
X142569045Y-151964961D02*
X142149998Y-151964961D01*
X142149998Y-151964961D02*
X141940474Y-152069723D01*
X141940474Y-152069723D02*
X141835712Y-152174485D01*
X141835712Y-152174485D02*
X141730950Y-152384009D01*
X141730950Y-152384009D02*
X141730950Y-152488771D01*
X141730950Y-152488771D02*
X141835712Y-152698295D01*
X141835712Y-152698295D02*
X141940474Y-152803057D01*
X141940474Y-152803057D02*
X142149998Y-152907819D01*
X142149998Y-152907819D02*
X142569045Y-152907819D01*
X142569045Y-152907819D02*
X142778569Y-153012580D01*
X142778569Y-153012580D02*
X142883331Y-153117342D01*
X142883331Y-153117342D02*
X142988093Y-153326866D01*
X142988093Y-153326866D02*
X142988093Y-153745914D01*
X142988093Y-153745914D02*
X142883331Y-153955438D01*
X142883331Y-153955438D02*
X142778569Y-154060200D01*
X142778569Y-154060200D02*
X142569045Y-154164961D01*
X142569045Y-154164961D02*
X142149998Y-154164961D01*
X142149998Y-154164961D02*
X141940474Y-154060200D01*
X141940474Y-154060200D02*
X141835712Y-153955438D01*
X141835712Y-153955438D02*
X141730950Y-153745914D01*
X141730950Y-153745914D02*
X141730950Y-153326866D01*
X141730950Y-153326866D02*
X141835712Y-153117342D01*
X141835712Y-153117342D02*
X141940474Y-153012580D01*
X141940474Y-153012580D02*
X142149998Y-152907819D01*
X139845236Y-151964961D02*
X140264283Y-151964961D01*
X140264283Y-151964961D02*
X140473807Y-152069723D01*
X140473807Y-152069723D02*
X140578569Y-152174485D01*
X140578569Y-152174485D02*
X140788093Y-152488771D01*
X140788093Y-152488771D02*
X140892855Y-152907819D01*
X140892855Y-152907819D02*
X140892855Y-153745914D01*
X140892855Y-153745914D02*
X140788093Y-153955438D01*
X140788093Y-153955438D02*
X140683331Y-154060200D01*
X140683331Y-154060200D02*
X140473807Y-154164961D01*
X140473807Y-154164961D02*
X140054760Y-154164961D01*
X140054760Y-154164961D02*
X139845236Y-154060200D01*
X139845236Y-154060200D02*
X139740474Y-153955438D01*
X139740474Y-153955438D02*
X139635712Y-153745914D01*
X139635712Y-153745914D02*
X139635712Y-153222104D01*
X139635712Y-153222104D02*
X139740474Y-153012580D01*
X139740474Y-153012580D02*
X139845236Y-152907819D01*
X139845236Y-152907819D02*
X140054760Y-152803057D01*
X140054760Y-152803057D02*
X140473807Y-152803057D01*
X140473807Y-152803057D02*
X140683331Y-152907819D01*
X140683331Y-152907819D02*
X140788093Y-153012580D01*
X140788093Y-153012580D02*
X140892855Y-153222104D01*
X137645236Y-151964961D02*
X138692855Y-151964961D01*
X138692855Y-151964961D02*
X138797617Y-153012580D01*
X138797617Y-153012580D02*
X138692855Y-152907819D01*
X138692855Y-152907819D02*
X138483331Y-152803057D01*
X138483331Y-152803057D02*
X137959522Y-152803057D01*
X137959522Y-152803057D02*
X137749998Y-152907819D01*
X137749998Y-152907819D02*
X137645236Y-153012580D01*
X137645236Y-153012580D02*
X137540474Y-153222104D01*
X137540474Y-153222104D02*
X137540474Y-153745914D01*
X137540474Y-153745914D02*
X137645236Y-153955438D01*
X137645236Y-153955438D02*
X137749998Y-154060200D01*
X137749998Y-154060200D02*
X137959522Y-154164961D01*
X137959522Y-154164961D02*
X138483331Y-154164961D01*
X138483331Y-154164961D02*
X138692855Y-154060200D01*
X138692855Y-154060200D02*
X138797617Y-153955438D01*
X136178569Y-151964961D02*
X135969046Y-151964961D01*
X135969046Y-151964961D02*
X135759522Y-152069723D01*
X135759522Y-152069723D02*
X135654760Y-152174485D01*
X135654760Y-152174485D02*
X135549998Y-152384009D01*
X135549998Y-152384009D02*
X135445236Y-152803057D01*
X135445236Y-152803057D02*
X135445236Y-153326866D01*
X135445236Y-153326866D02*
X135549998Y-153745914D01*
X135549998Y-153745914D02*
X135654760Y-153955438D01*
X135654760Y-153955438D02*
X135759522Y-154060200D01*
X135759522Y-154060200D02*
X135969046Y-154164961D01*
X135969046Y-154164961D02*
X136178569Y-154164961D01*
X136178569Y-154164961D02*
X136388093Y-154060200D01*
X136388093Y-154060200D02*
X136492855Y-153955438D01*
X136492855Y-153955438D02*
X136597617Y-153745914D01*
X136597617Y-153745914D02*
X136702379Y-153326866D01*
X136702379Y-153326866D02*
X136702379Y-152803057D01*
X136702379Y-152803057D02*
X136597617Y-152384009D01*
X136597617Y-152384009D02*
X136492855Y-152174485D01*
X136492855Y-152174485D02*
X136388093Y-152069723D01*
X136388093Y-152069723D02*
X136178569Y-151964961D01*
X128007143Y-151964961D02*
X126645238Y-151964961D01*
X126645238Y-151964961D02*
X127378571Y-152803057D01*
X127378571Y-152803057D02*
X127064286Y-152803057D01*
X127064286Y-152803057D02*
X126854762Y-152907819D01*
X126854762Y-152907819D02*
X126750000Y-153012580D01*
X126750000Y-153012580D02*
X126645238Y-153222104D01*
X126645238Y-153222104D02*
X126645238Y-153745914D01*
X126645238Y-153745914D02*
X126750000Y-153955438D01*
X126750000Y-153955438D02*
X126854762Y-154060200D01*
X126854762Y-154060200D02*
X127064286Y-154164961D01*
X127064286Y-154164961D02*
X127692857Y-154164961D01*
X127692857Y-154164961D02*
X127902381Y-154060200D01*
X127902381Y-154060200D02*
X128007143Y-153955438D01*
X125702381Y-153955438D02*
X125597619Y-154060200D01*
X125597619Y-154060200D02*
X125702381Y-154164961D01*
X125702381Y-154164961D02*
X125807143Y-154060200D01*
X125807143Y-154060200D02*
X125702381Y-153955438D01*
X125702381Y-153955438D02*
X125702381Y-154164961D01*
X124864286Y-151964961D02*
X123397619Y-151964961D01*
X123397619Y-151964961D02*
X124340476Y-154164961D01*
X122873810Y-151964961D02*
X122140476Y-154164961D01*
X122140476Y-154164961D02*
X121407143Y-151964961D01*
X114045904Y-125588038D02*
X114141142Y-125540419D01*
X114141142Y-125540419D02*
X114283999Y-125540419D01*
X114283999Y-125540419D02*
X114426856Y-125588038D01*
X114426856Y-125588038D02*
X114522094Y-125683276D01*
X114522094Y-125683276D02*
X114569713Y-125778514D01*
X114569713Y-125778514D02*
X114617332Y-125968990D01*
X114617332Y-125968990D02*
X114617332Y-126111847D01*
X114617332Y-126111847D02*
X114569713Y-126302323D01*
X114569713Y-126302323D02*
X114522094Y-126397561D01*
X114522094Y-126397561D02*
X114426856Y-126492800D01*
X114426856Y-126492800D02*
X114283999Y-126540419D01*
X114283999Y-126540419D02*
X114188761Y-126540419D01*
X114188761Y-126540419D02*
X114045904Y-126492800D01*
X114045904Y-126492800D02*
X113998285Y-126445180D01*
X113998285Y-126445180D02*
X113998285Y-126111847D01*
X113998285Y-126111847D02*
X114188761Y-126111847D01*
X113569713Y-126540419D02*
X113569713Y-125540419D01*
X113569713Y-125540419D02*
X112998285Y-126540419D01*
X112998285Y-126540419D02*
X112998285Y-125540419D01*
X112522094Y-126540419D02*
X112522094Y-125540419D01*
X112522094Y-125540419D02*
X112283999Y-125540419D01*
X112283999Y-125540419D02*
X112141142Y-125588038D01*
X112141142Y-125588038D02*
X112045904Y-125683276D01*
X112045904Y-125683276D02*
X111998285Y-125778514D01*
X111998285Y-125778514D02*
X111950666Y-125968990D01*
X111950666Y-125968990D02*
X111950666Y-126111847D01*
X111950666Y-126111847D02*
X111998285Y-126302323D01*
X111998285Y-126302323D02*
X112045904Y-126397561D01*
X112045904Y-126397561D02*
X112141142Y-126492800D01*
X112141142Y-126492800D02*
X112283999Y-126540419D01*
X112283999Y-126540419D02*
X112522094Y-126540419D01*
X127298220Y-130720819D02*
X127298220Y-129720819D01*
X127298220Y-129720819D02*
X127060125Y-129720819D01*
X127060125Y-129720819D02*
X126917268Y-129768438D01*
X126917268Y-129768438D02*
X126822030Y-129863676D01*
X126822030Y-129863676D02*
X126774411Y-129958914D01*
X126774411Y-129958914D02*
X126726792Y-130149390D01*
X126726792Y-130149390D02*
X126726792Y-130292247D01*
X126726792Y-130292247D02*
X126774411Y-130482723D01*
X126774411Y-130482723D02*
X126822030Y-130577961D01*
X126822030Y-130577961D02*
X126917268Y-130673200D01*
X126917268Y-130673200D02*
X127060125Y-130720819D01*
X127060125Y-130720819D02*
X127298220Y-130720819D01*
X126298220Y-130720819D02*
X126298220Y-130054152D01*
X126298220Y-129720819D02*
X126345839Y-129768438D01*
X126345839Y-129768438D02*
X126298220Y-129816057D01*
X126298220Y-129816057D02*
X126250601Y-129768438D01*
X126250601Y-129768438D02*
X126298220Y-129720819D01*
X126298220Y-129720819D02*
X126298220Y-129816057D01*
X125679173Y-130720819D02*
X125774411Y-130673200D01*
X125774411Y-130673200D02*
X125822030Y-130625580D01*
X125822030Y-130625580D02*
X125869649Y-130530342D01*
X125869649Y-130530342D02*
X125869649Y-130244628D01*
X125869649Y-130244628D02*
X125822030Y-130149390D01*
X125822030Y-130149390D02*
X125774411Y-130101771D01*
X125774411Y-130101771D02*
X125679173Y-130054152D01*
X125679173Y-130054152D02*
X125536316Y-130054152D01*
X125536316Y-130054152D02*
X125441078Y-130101771D01*
X125441078Y-130101771D02*
X125393459Y-130149390D01*
X125393459Y-130149390D02*
X125345840Y-130244628D01*
X125345840Y-130244628D02*
X125345840Y-130530342D01*
X125345840Y-130530342D02*
X125393459Y-130625580D01*
X125393459Y-130625580D02*
X125441078Y-130673200D01*
X125441078Y-130673200D02*
X125536316Y-130720819D01*
X125536316Y-130720819D02*
X125679173Y-130720819D01*
X124488697Y-130720819D02*
X124488697Y-129720819D01*
X124488697Y-130673200D02*
X124583935Y-130720819D01*
X124583935Y-130720819D02*
X124774411Y-130720819D01*
X124774411Y-130720819D02*
X124869649Y-130673200D01*
X124869649Y-130673200D02*
X124917268Y-130625580D01*
X124917268Y-130625580D02*
X124964887Y-130530342D01*
X124964887Y-130530342D02*
X124964887Y-130244628D01*
X124964887Y-130244628D02*
X124917268Y-130149390D01*
X124917268Y-130149390D02*
X124869649Y-130101771D01*
X124869649Y-130101771D02*
X124774411Y-130054152D01*
X124774411Y-130054152D02*
X124583935Y-130054152D01*
X124583935Y-130054152D02*
X124488697Y-130101771D01*
X123869649Y-130720819D02*
X123964887Y-130673200D01*
X123964887Y-130673200D02*
X124012506Y-130625580D01*
X124012506Y-130625580D02*
X124060125Y-130530342D01*
X124060125Y-130530342D02*
X124060125Y-130244628D01*
X124060125Y-130244628D02*
X124012506Y-130149390D01*
X124012506Y-130149390D02*
X123964887Y-130101771D01*
X123964887Y-130101771D02*
X123869649Y-130054152D01*
X123869649Y-130054152D02*
X123726792Y-130054152D01*
X123726792Y-130054152D02*
X123631554Y-130101771D01*
X123631554Y-130101771D02*
X123583935Y-130149390D01*
X123583935Y-130149390D02*
X123536316Y-130244628D01*
X123536316Y-130244628D02*
X123536316Y-130530342D01*
X123536316Y-130530342D02*
X123583935Y-130625580D01*
X123583935Y-130625580D02*
X123631554Y-130673200D01*
X123631554Y-130673200D02*
X123726792Y-130720819D01*
X123726792Y-130720819D02*
X123869649Y-130720819D01*
X127345839Y-132283200D02*
X127202982Y-132330819D01*
X127202982Y-132330819D02*
X126964887Y-132330819D01*
X126964887Y-132330819D02*
X126869649Y-132283200D01*
X126869649Y-132283200D02*
X126822030Y-132235580D01*
X126822030Y-132235580D02*
X126774411Y-132140342D01*
X126774411Y-132140342D02*
X126774411Y-132045104D01*
X126774411Y-132045104D02*
X126822030Y-131949866D01*
X126822030Y-131949866D02*
X126869649Y-131902247D01*
X126869649Y-131902247D02*
X126964887Y-131854628D01*
X126964887Y-131854628D02*
X127155363Y-131807009D01*
X127155363Y-131807009D02*
X127250601Y-131759390D01*
X127250601Y-131759390D02*
X127298220Y-131711771D01*
X127298220Y-131711771D02*
X127345839Y-131616533D01*
X127345839Y-131616533D02*
X127345839Y-131521295D01*
X127345839Y-131521295D02*
X127298220Y-131426057D01*
X127298220Y-131426057D02*
X127250601Y-131378438D01*
X127250601Y-131378438D02*
X127155363Y-131330819D01*
X127155363Y-131330819D02*
X126917268Y-131330819D01*
X126917268Y-131330819D02*
X126774411Y-131378438D01*
X126345839Y-132330819D02*
X126345839Y-131330819D01*
X125917268Y-132330819D02*
X125917268Y-131807009D01*
X125917268Y-131807009D02*
X125964887Y-131711771D01*
X125964887Y-131711771D02*
X126060125Y-131664152D01*
X126060125Y-131664152D02*
X126202982Y-131664152D01*
X126202982Y-131664152D02*
X126298220Y-131711771D01*
X126298220Y-131711771D02*
X126345839Y-131759390D01*
X125298220Y-132330819D02*
X125393458Y-132283200D01*
X125393458Y-132283200D02*
X125441077Y-132235580D01*
X125441077Y-132235580D02*
X125488696Y-132140342D01*
X125488696Y-132140342D02*
X125488696Y-131854628D01*
X125488696Y-131854628D02*
X125441077Y-131759390D01*
X125441077Y-131759390D02*
X125393458Y-131711771D01*
X125393458Y-131711771D02*
X125298220Y-131664152D01*
X125298220Y-131664152D02*
X125155363Y-131664152D01*
X125155363Y-131664152D02*
X125060125Y-131711771D01*
X125060125Y-131711771D02*
X125012506Y-131759390D01*
X125012506Y-131759390D02*
X124964887Y-131854628D01*
X124964887Y-131854628D02*
X124964887Y-132140342D01*
X124964887Y-132140342D02*
X125012506Y-132235580D01*
X125012506Y-132235580D02*
X125060125Y-132283200D01*
X125060125Y-132283200D02*
X125155363Y-132330819D01*
X125155363Y-132330819D02*
X125298220Y-132330819D01*
X124679172Y-131664152D02*
X124298220Y-131664152D01*
X124536315Y-131330819D02*
X124536315Y-132187961D01*
X124536315Y-132187961D02*
X124488696Y-132283200D01*
X124488696Y-132283200D02*
X124393458Y-132330819D01*
X124393458Y-132330819D02*
X124298220Y-132330819D01*
X113741104Y-130718838D02*
X113836342Y-130671219D01*
X113836342Y-130671219D02*
X113979199Y-130671219D01*
X113979199Y-130671219D02*
X114122056Y-130718838D01*
X114122056Y-130718838D02*
X114217294Y-130814076D01*
X114217294Y-130814076D02*
X114264913Y-130909314D01*
X114264913Y-130909314D02*
X114312532Y-131099790D01*
X114312532Y-131099790D02*
X114312532Y-131242647D01*
X114312532Y-131242647D02*
X114264913Y-131433123D01*
X114264913Y-131433123D02*
X114217294Y-131528361D01*
X114217294Y-131528361D02*
X114122056Y-131623600D01*
X114122056Y-131623600D02*
X113979199Y-131671219D01*
X113979199Y-131671219D02*
X113883961Y-131671219D01*
X113883961Y-131671219D02*
X113741104Y-131623600D01*
X113741104Y-131623600D02*
X113693485Y-131575980D01*
X113693485Y-131575980D02*
X113693485Y-131242647D01*
X113693485Y-131242647D02*
X113883961Y-131242647D01*
X113264913Y-131671219D02*
X113264913Y-130671219D01*
X113264913Y-130671219D02*
X112693485Y-131671219D01*
X112693485Y-131671219D02*
X112693485Y-130671219D01*
X112217294Y-131671219D02*
X112217294Y-130671219D01*
X112217294Y-130671219D02*
X111979199Y-130671219D01*
X111979199Y-130671219D02*
X111836342Y-130718838D01*
X111836342Y-130718838D02*
X111741104Y-130814076D01*
X111741104Y-130814076D02*
X111693485Y-130909314D01*
X111693485Y-130909314D02*
X111645866Y-131099790D01*
X111645866Y-131099790D02*
X111645866Y-131242647D01*
X111645866Y-131242647D02*
X111693485Y-131433123D01*
X111693485Y-131433123D02*
X111741104Y-131528361D01*
X111741104Y-131528361D02*
X111836342Y-131623600D01*
X111836342Y-131623600D02*
X111979199Y-131671219D01*
X111979199Y-131671219D02*
X112217294Y-131671219D01*
X95744380Y-110238094D02*
X95744380Y-109619047D01*
X95744380Y-109619047D02*
X95363428Y-109952380D01*
X95363428Y-109952380D02*
X95363428Y-109809523D01*
X95363428Y-109809523D02*
X95315809Y-109714285D01*
X95315809Y-109714285D02*
X95268190Y-109666666D01*
X95268190Y-109666666D02*
X95172952Y-109619047D01*
X95172952Y-109619047D02*
X94934857Y-109619047D01*
X94934857Y-109619047D02*
X94839619Y-109666666D01*
X94839619Y-109666666D02*
X94792000Y-109714285D01*
X94792000Y-109714285D02*
X94744380Y-109809523D01*
X94744380Y-109809523D02*
X94744380Y-110095237D01*
X94744380Y-110095237D02*
X94792000Y-110190475D01*
X94792000Y-110190475D02*
X94839619Y-110238094D01*
X95744380Y-109333332D02*
X94744380Y-108999999D01*
X94744380Y-108999999D02*
X95744380Y-108666666D01*
X95744380Y-108428570D02*
X95744380Y-107809523D01*
X95744380Y-107809523D02*
X95363428Y-108142856D01*
X95363428Y-108142856D02*
X95363428Y-107999999D01*
X95363428Y-107999999D02*
X95315809Y-107904761D01*
X95315809Y-107904761D02*
X95268190Y-107857142D01*
X95268190Y-107857142D02*
X95172952Y-107809523D01*
X95172952Y-107809523D02*
X94934857Y-107809523D01*
X94934857Y-107809523D02*
X94839619Y-107857142D01*
X94839619Y-107857142D02*
X94792000Y-107904761D01*
X94792000Y-107904761D02*
X94744380Y-107999999D01*
X94744380Y-107999999D02*
X94744380Y-108285713D01*
X94744380Y-108285713D02*
X94792000Y-108380951D01*
X94792000Y-108380951D02*
X94839619Y-108428570D01*
X139230894Y-84081961D02*
X139964227Y-83034342D01*
X140488037Y-84081961D02*
X140488037Y-81881961D01*
X140488037Y-81881961D02*
X139649942Y-81881961D01*
X139649942Y-81881961D02*
X139440418Y-81986723D01*
X139440418Y-81986723D02*
X139335656Y-82091485D01*
X139335656Y-82091485D02*
X139230894Y-82301009D01*
X139230894Y-82301009D02*
X139230894Y-82615295D01*
X139230894Y-82615295D02*
X139335656Y-82824819D01*
X139335656Y-82824819D02*
X139440418Y-82929580D01*
X139440418Y-82929580D02*
X139649942Y-83034342D01*
X139649942Y-83034342D02*
X140488037Y-83034342D01*
X137345180Y-84081961D02*
X137345180Y-82929580D01*
X137345180Y-82929580D02*
X137449942Y-82720057D01*
X137449942Y-82720057D02*
X137659466Y-82615295D01*
X137659466Y-82615295D02*
X138078513Y-82615295D01*
X138078513Y-82615295D02*
X138288037Y-82720057D01*
X137345180Y-83977200D02*
X137554704Y-84081961D01*
X137554704Y-84081961D02*
X138078513Y-84081961D01*
X138078513Y-84081961D02*
X138288037Y-83977200D01*
X138288037Y-83977200D02*
X138392799Y-83767676D01*
X138392799Y-83767676D02*
X138392799Y-83558152D01*
X138392799Y-83558152D02*
X138288037Y-83348628D01*
X138288037Y-83348628D02*
X138078513Y-83243866D01*
X138078513Y-83243866D02*
X137554704Y-83243866D01*
X137554704Y-83243866D02*
X137345180Y-83139104D01*
X136402323Y-83977200D02*
X136192799Y-84081961D01*
X136192799Y-84081961D02*
X135773751Y-84081961D01*
X135773751Y-84081961D02*
X135564228Y-83977200D01*
X135564228Y-83977200D02*
X135459466Y-83767676D01*
X135459466Y-83767676D02*
X135459466Y-83662914D01*
X135459466Y-83662914D02*
X135564228Y-83453390D01*
X135564228Y-83453390D02*
X135773751Y-83348628D01*
X135773751Y-83348628D02*
X136088037Y-83348628D01*
X136088037Y-83348628D02*
X136297561Y-83243866D01*
X136297561Y-83243866D02*
X136402323Y-83034342D01*
X136402323Y-83034342D02*
X136402323Y-82929580D01*
X136402323Y-82929580D02*
X136297561Y-82720057D01*
X136297561Y-82720057D02*
X136088037Y-82615295D01*
X136088037Y-82615295D02*
X135773751Y-82615295D01*
X135773751Y-82615295D02*
X135564228Y-82720057D01*
X134516609Y-82615295D02*
X134516609Y-84815295D01*
X134516609Y-82720057D02*
X134307085Y-82615295D01*
X134307085Y-82615295D02*
X133888038Y-82615295D01*
X133888038Y-82615295D02*
X133678514Y-82720057D01*
X133678514Y-82720057D02*
X133573752Y-82824819D01*
X133573752Y-82824819D02*
X133468990Y-83034342D01*
X133468990Y-83034342D02*
X133468990Y-83662914D01*
X133468990Y-83662914D02*
X133573752Y-83872438D01*
X133573752Y-83872438D02*
X133678514Y-83977200D01*
X133678514Y-83977200D02*
X133888038Y-84081961D01*
X133888038Y-84081961D02*
X134307085Y-84081961D01*
X134307085Y-84081961D02*
X134516609Y-83977200D01*
X132526133Y-84081961D02*
X132526133Y-81881961D01*
X132526133Y-82720057D02*
X132316609Y-82615295D01*
X132316609Y-82615295D02*
X131897562Y-82615295D01*
X131897562Y-82615295D02*
X131688038Y-82720057D01*
X131688038Y-82720057D02*
X131583276Y-82824819D01*
X131583276Y-82824819D02*
X131478514Y-83034342D01*
X131478514Y-83034342D02*
X131478514Y-83662914D01*
X131478514Y-83662914D02*
X131583276Y-83872438D01*
X131583276Y-83872438D02*
X131688038Y-83977200D01*
X131688038Y-83977200D02*
X131897562Y-84081961D01*
X131897562Y-84081961D02*
X132316609Y-84081961D01*
X132316609Y-84081961D02*
X132526133Y-83977200D01*
X129697562Y-83977200D02*
X129907086Y-84081961D01*
X129907086Y-84081961D02*
X130326133Y-84081961D01*
X130326133Y-84081961D02*
X130535657Y-83977200D01*
X130535657Y-83977200D02*
X130640419Y-83767676D01*
X130640419Y-83767676D02*
X130640419Y-82929580D01*
X130640419Y-82929580D02*
X130535657Y-82720057D01*
X130535657Y-82720057D02*
X130326133Y-82615295D01*
X130326133Y-82615295D02*
X129907086Y-82615295D01*
X129907086Y-82615295D02*
X129697562Y-82720057D01*
X129697562Y-82720057D02*
X129592800Y-82929580D01*
X129592800Y-82929580D02*
X129592800Y-83139104D01*
X129592800Y-83139104D02*
X130640419Y-83348628D01*
X128649943Y-84081961D02*
X128649943Y-82615295D01*
X128649943Y-83034342D02*
X128545181Y-82824819D01*
X128545181Y-82824819D02*
X128440419Y-82720057D01*
X128440419Y-82720057D02*
X128230895Y-82615295D01*
X128230895Y-82615295D02*
X128021372Y-82615295D01*
X127288038Y-84081961D02*
X127288038Y-82615295D01*
X127288038Y-83034342D02*
X127183276Y-82824819D01*
X127183276Y-82824819D02*
X127078514Y-82720057D01*
X127078514Y-82720057D02*
X126868990Y-82615295D01*
X126868990Y-82615295D02*
X126659467Y-82615295D01*
X126135657Y-82615295D02*
X125611847Y-84081961D01*
X125088038Y-82615295D02*
X125611847Y-84081961D01*
X125611847Y-84081961D02*
X125821371Y-84605771D01*
X125821371Y-84605771D02*
X125926133Y-84710533D01*
X125926133Y-84710533D02*
X126135657Y-84815295D01*
X133992799Y-87623961D02*
X133992799Y-85423961D01*
X133992799Y-85423961D02*
X133154704Y-85423961D01*
X133154704Y-85423961D02*
X132945180Y-85528723D01*
X132945180Y-85528723D02*
X132840418Y-85633485D01*
X132840418Y-85633485D02*
X132735656Y-85843009D01*
X132735656Y-85843009D02*
X132735656Y-86157295D01*
X132735656Y-86157295D02*
X132840418Y-86366819D01*
X132840418Y-86366819D02*
X132945180Y-86471580D01*
X132945180Y-86471580D02*
X133154704Y-86576342D01*
X133154704Y-86576342D02*
X133992799Y-86576342D01*
X131792799Y-87623961D02*
X131792799Y-85423961D01*
X135826132Y-89699295D02*
X135826132Y-91899295D01*
X135826132Y-89804057D02*
X135616608Y-89699295D01*
X135616608Y-89699295D02*
X135197561Y-89699295D01*
X135197561Y-89699295D02*
X134988037Y-89804057D01*
X134988037Y-89804057D02*
X134883275Y-89908819D01*
X134883275Y-89908819D02*
X134778513Y-90118342D01*
X134778513Y-90118342D02*
X134778513Y-90746914D01*
X134778513Y-90746914D02*
X134883275Y-90956438D01*
X134883275Y-90956438D02*
X134988037Y-91061200D01*
X134988037Y-91061200D02*
X135197561Y-91165961D01*
X135197561Y-91165961D02*
X135616608Y-91165961D01*
X135616608Y-91165961D02*
X135826132Y-91061200D01*
X133835656Y-91165961D02*
X133835656Y-89699295D01*
X133835656Y-88965961D02*
X133940418Y-89070723D01*
X133940418Y-89070723D02*
X133835656Y-89175485D01*
X133835656Y-89175485D02*
X133730894Y-89070723D01*
X133730894Y-89070723D02*
X133835656Y-88965961D01*
X133835656Y-88965961D02*
X133835656Y-89175485D01*
X131845180Y-91061200D02*
X132054704Y-91165961D01*
X132054704Y-91165961D02*
X132473751Y-91165961D01*
X132473751Y-91165961D02*
X132683275Y-91061200D01*
X132683275Y-91061200D02*
X132788037Y-90956438D01*
X132788037Y-90956438D02*
X132892799Y-90746914D01*
X132892799Y-90746914D02*
X132892799Y-90118342D01*
X132892799Y-90118342D02*
X132788037Y-89908819D01*
X132788037Y-89908819D02*
X132683275Y-89804057D01*
X132683275Y-89804057D02*
X132473751Y-89699295D01*
X132473751Y-89699295D02*
X132054704Y-89699295D01*
X132054704Y-89699295D02*
X131845180Y-89804057D01*
X130588037Y-91165961D02*
X130797561Y-91061200D01*
X130797561Y-91061200D02*
X130902323Y-90956438D01*
X130902323Y-90956438D02*
X131007085Y-90746914D01*
X131007085Y-90746914D02*
X131007085Y-90118342D01*
X131007085Y-90118342D02*
X130902323Y-89908819D01*
X130902323Y-89908819D02*
X130797561Y-89804057D01*
X130797561Y-89804057D02*
X130588037Y-89699295D01*
X130588037Y-89699295D02*
X130273752Y-89699295D01*
X130273752Y-89699295D02*
X130064228Y-89804057D01*
X130064228Y-89804057D02*
X129959466Y-89908819D01*
X129959466Y-89908819D02*
X129854704Y-90118342D01*
X129854704Y-90118342D02*
X129854704Y-90746914D01*
X129854704Y-90746914D02*
X129959466Y-90956438D01*
X129959466Y-90956438D02*
X130064228Y-91061200D01*
X130064228Y-91061200D02*
X130273752Y-91165961D01*
X130273752Y-91165961D02*
X130588037Y-91165961D01*
X94930238Y-104738095D02*
X94882619Y-104642857D01*
X94882619Y-104642857D02*
X94882619Y-104500000D01*
X94882619Y-104500000D02*
X94930238Y-104357143D01*
X94930238Y-104357143D02*
X95025476Y-104261905D01*
X95025476Y-104261905D02*
X95120714Y-104214286D01*
X95120714Y-104214286D02*
X95311190Y-104166667D01*
X95311190Y-104166667D02*
X95454047Y-104166667D01*
X95454047Y-104166667D02*
X95644523Y-104214286D01*
X95644523Y-104214286D02*
X95739761Y-104261905D01*
X95739761Y-104261905D02*
X95835000Y-104357143D01*
X95835000Y-104357143D02*
X95882619Y-104500000D01*
X95882619Y-104500000D02*
X95882619Y-104595238D01*
X95882619Y-104595238D02*
X95835000Y-104738095D01*
X95835000Y-104738095D02*
X95787380Y-104785714D01*
X95787380Y-104785714D02*
X95454047Y-104785714D01*
X95454047Y-104785714D02*
X95454047Y-104595238D01*
X95882619Y-105214286D02*
X94882619Y-105214286D01*
X94882619Y-105214286D02*
X95882619Y-105785714D01*
X95882619Y-105785714D02*
X94882619Y-105785714D01*
X95882619Y-106261905D02*
X94882619Y-106261905D01*
X94882619Y-106261905D02*
X94882619Y-106500000D01*
X94882619Y-106500000D02*
X94930238Y-106642857D01*
X94930238Y-106642857D02*
X95025476Y-106738095D01*
X95025476Y-106738095D02*
X95120714Y-106785714D01*
X95120714Y-106785714D02*
X95311190Y-106833333D01*
X95311190Y-106833333D02*
X95454047Y-106833333D01*
X95454047Y-106833333D02*
X95644523Y-106785714D01*
X95644523Y-106785714D02*
X95739761Y-106738095D01*
X95739761Y-106738095D02*
X95835000Y-106642857D01*
X95835000Y-106642857D02*
X95882619Y-106500000D01*
X95882619Y-106500000D02*
X95882619Y-106261905D01*
X113741104Y-122997238D02*
X113836342Y-122949619D01*
X113836342Y-122949619D02*
X113979199Y-122949619D01*
X113979199Y-122949619D02*
X114122056Y-122997238D01*
X114122056Y-122997238D02*
X114217294Y-123092476D01*
X114217294Y-123092476D02*
X114264913Y-123187714D01*
X114264913Y-123187714D02*
X114312532Y-123378190D01*
X114312532Y-123378190D02*
X114312532Y-123521047D01*
X114312532Y-123521047D02*
X114264913Y-123711523D01*
X114264913Y-123711523D02*
X114217294Y-123806761D01*
X114217294Y-123806761D02*
X114122056Y-123902000D01*
X114122056Y-123902000D02*
X113979199Y-123949619D01*
X113979199Y-123949619D02*
X113883961Y-123949619D01*
X113883961Y-123949619D02*
X113741104Y-123902000D01*
X113741104Y-123902000D02*
X113693485Y-123854380D01*
X113693485Y-123854380D02*
X113693485Y-123521047D01*
X113693485Y-123521047D02*
X113883961Y-123521047D01*
X113264913Y-123949619D02*
X113264913Y-122949619D01*
X113264913Y-122949619D02*
X112693485Y-123949619D01*
X112693485Y-123949619D02*
X112693485Y-122949619D01*
X112217294Y-123949619D02*
X112217294Y-122949619D01*
X112217294Y-122949619D02*
X111979199Y-122949619D01*
X111979199Y-122949619D02*
X111836342Y-122997238D01*
X111836342Y-122997238D02*
X111741104Y-123092476D01*
X111741104Y-123092476D02*
X111693485Y-123187714D01*
X111693485Y-123187714D02*
X111645866Y-123378190D01*
X111645866Y-123378190D02*
X111645866Y-123521047D01*
X111645866Y-123521047D02*
X111693485Y-123711523D01*
X111693485Y-123711523D02*
X111741104Y-123806761D01*
X111741104Y-123806761D02*
X111836342Y-123902000D01*
X111836342Y-123902000D02*
X111979199Y-123949619D01*
X111979199Y-123949619D02*
X112217294Y-123949619D01*
X114430037Y-120409619D02*
X114096704Y-121409619D01*
X114096704Y-121409619D02*
X113763371Y-120409619D01*
X113430037Y-121409619D02*
X113430037Y-120409619D01*
X112953847Y-121409619D02*
X112953847Y-120409619D01*
X112953847Y-120409619D02*
X112382419Y-121409619D01*
X112382419Y-121409619D02*
X112382419Y-120409619D01*
X89665180Y-116995363D02*
X89712800Y-117090601D01*
X89712800Y-117090601D02*
X89808038Y-117138220D01*
X89808038Y-117138220D02*
X90665180Y-117138220D01*
X89665180Y-116614410D02*
X90665180Y-116614410D01*
X90617561Y-115614411D02*
X90665180Y-115709649D01*
X90665180Y-115709649D02*
X90665180Y-115852506D01*
X90665180Y-115852506D02*
X90617561Y-115995363D01*
X90617561Y-115995363D02*
X90522323Y-116090601D01*
X90522323Y-116090601D02*
X90427085Y-116138220D01*
X90427085Y-116138220D02*
X90236609Y-116185839D01*
X90236609Y-116185839D02*
X90093752Y-116185839D01*
X90093752Y-116185839D02*
X89903276Y-116138220D01*
X89903276Y-116138220D02*
X89808038Y-116090601D01*
X89808038Y-116090601D02*
X89712800Y-115995363D01*
X89712800Y-115995363D02*
X89665180Y-115852506D01*
X89665180Y-115852506D02*
X89665180Y-115757268D01*
X89665180Y-115757268D02*
X89712800Y-115614411D01*
X89712800Y-115614411D02*
X89760419Y-115566792D01*
X89760419Y-115566792D02*
X90093752Y-115566792D01*
X90093752Y-115566792D02*
X90093752Y-115757268D01*
X89950895Y-115185839D02*
X89950895Y-114709649D01*
X89665180Y-115281077D02*
X90665180Y-114947744D01*
X90665180Y-114947744D02*
X89665180Y-114614411D01*
X90712800Y-113566792D02*
X89427085Y-114423934D01*
X89665180Y-113233458D02*
X90665180Y-113233458D01*
X90665180Y-113233458D02*
X90665180Y-112995363D01*
X90665180Y-112995363D02*
X90617561Y-112852506D01*
X90617561Y-112852506D02*
X90522323Y-112757268D01*
X90522323Y-112757268D02*
X90427085Y-112709649D01*
X90427085Y-112709649D02*
X90236609Y-112662030D01*
X90236609Y-112662030D02*
X90093752Y-112662030D01*
X90093752Y-112662030D02*
X89903276Y-112709649D01*
X89903276Y-112709649D02*
X89808038Y-112757268D01*
X89808038Y-112757268D02*
X89712800Y-112852506D01*
X89712800Y-112852506D02*
X89665180Y-112995363D01*
X89665180Y-112995363D02*
X89665180Y-113233458D01*
X90188990Y-112233458D02*
X90188990Y-111900125D01*
X89665180Y-111757268D02*
X89665180Y-112233458D01*
X89665180Y-112233458D02*
X90665180Y-112233458D01*
X90665180Y-112233458D02*
X90665180Y-111757268D01*
X89712800Y-111376315D02*
X89665180Y-111233458D01*
X89665180Y-111233458D02*
X89665180Y-110995363D01*
X89665180Y-110995363D02*
X89712800Y-110900125D01*
X89712800Y-110900125D02*
X89760419Y-110852506D01*
X89760419Y-110852506D02*
X89855657Y-110804887D01*
X89855657Y-110804887D02*
X89950895Y-110804887D01*
X89950895Y-110804887D02*
X90046133Y-110852506D01*
X90046133Y-110852506D02*
X90093752Y-110900125D01*
X90093752Y-110900125D02*
X90141371Y-110995363D01*
X90141371Y-110995363D02*
X90188990Y-111185839D01*
X90188990Y-111185839D02*
X90236609Y-111281077D01*
X90236609Y-111281077D02*
X90284228Y-111328696D01*
X90284228Y-111328696D02*
X90379466Y-111376315D01*
X90379466Y-111376315D02*
X90474704Y-111376315D01*
X90474704Y-111376315D02*
X90569942Y-111328696D01*
X90569942Y-111328696D02*
X90617561Y-111281077D01*
X90617561Y-111281077D02*
X90665180Y-111185839D01*
X90665180Y-111185839D02*
X90665180Y-110947744D01*
X90665180Y-110947744D02*
X90617561Y-110804887D01*
X89665180Y-109900125D02*
X89665180Y-110376315D01*
X89665180Y-110376315D02*
X90665180Y-110376315D01*
X89760419Y-109566791D02*
X89712800Y-109519172D01*
X89712800Y-109519172D02*
X89665180Y-109566791D01*
X89665180Y-109566791D02*
X89712800Y-109614410D01*
X89712800Y-109614410D02*
X89760419Y-109566791D01*
X89760419Y-109566791D02*
X89665180Y-109566791D01*
D12*
X91341146Y-145997600D02*
X89055432Y-145997600D01*
X90198289Y-147140457D02*
X90198289Y-144854742D01*
D10*
X95972980Y-102999999D02*
X95972980Y-102809523D01*
X95972980Y-102809523D02*
X95925361Y-102714285D01*
X95925361Y-102714285D02*
X95830123Y-102619047D01*
X95830123Y-102619047D02*
X95639647Y-102571428D01*
X95639647Y-102571428D02*
X95306314Y-102571428D01*
X95306314Y-102571428D02*
X95115838Y-102619047D01*
X95115838Y-102619047D02*
X95020600Y-102714285D01*
X95020600Y-102714285D02*
X94972980Y-102809523D01*
X94972980Y-102809523D02*
X94972980Y-102999999D01*
X94972980Y-102999999D02*
X95020600Y-103095237D01*
X95020600Y-103095237D02*
X95115838Y-103190475D01*
X95115838Y-103190475D02*
X95306314Y-103238094D01*
X95306314Y-103238094D02*
X95639647Y-103238094D01*
X95639647Y-103238094D02*
X95830123Y-103190475D01*
X95830123Y-103190475D02*
X95925361Y-103095237D01*
X95925361Y-103095237D02*
X95972980Y-102999999D01*
X95972980Y-102142856D02*
X95163457Y-102142856D01*
X95163457Y-102142856D02*
X95068219Y-102095237D01*
X95068219Y-102095237D02*
X95020600Y-102047618D01*
X95020600Y-102047618D02*
X94972980Y-101952380D01*
X94972980Y-101952380D02*
X94972980Y-101761904D01*
X94972980Y-101761904D02*
X95020600Y-101666666D01*
X95020600Y-101666666D02*
X95068219Y-101619047D01*
X95068219Y-101619047D02*
X95163457Y-101571428D01*
X95163457Y-101571428D02*
X95972980Y-101571428D01*
X95972980Y-101238094D02*
X95972980Y-100666666D01*
X94972980Y-100952380D02*
X95972980Y-100952380D01*
X108328057Y-75608590D02*
X108470914Y-75560971D01*
X108470914Y-75560971D02*
X108518533Y-75513352D01*
X108518533Y-75513352D02*
X108566152Y-75418114D01*
X108566152Y-75418114D02*
X108566152Y-75275257D01*
X108566152Y-75275257D02*
X108518533Y-75180019D01*
X108518533Y-75180019D02*
X108470914Y-75132400D01*
X108470914Y-75132400D02*
X108375676Y-75084780D01*
X108375676Y-75084780D02*
X107994724Y-75084780D01*
X107994724Y-75084780D02*
X107994724Y-76084780D01*
X107994724Y-76084780D02*
X108328057Y-76084780D01*
X108328057Y-76084780D02*
X108423295Y-76037161D01*
X108423295Y-76037161D02*
X108470914Y-75989542D01*
X108470914Y-75989542D02*
X108518533Y-75894304D01*
X108518533Y-75894304D02*
X108518533Y-75799066D01*
X108518533Y-75799066D02*
X108470914Y-75703828D01*
X108470914Y-75703828D02*
X108423295Y-75656209D01*
X108423295Y-75656209D02*
X108328057Y-75608590D01*
X108328057Y-75608590D02*
X107994724Y-75608590D01*
X109566152Y-75180019D02*
X109518533Y-75132400D01*
X109518533Y-75132400D02*
X109375676Y-75084780D01*
X109375676Y-75084780D02*
X109280438Y-75084780D01*
X109280438Y-75084780D02*
X109137581Y-75132400D01*
X109137581Y-75132400D02*
X109042343Y-75227638D01*
X109042343Y-75227638D02*
X108994724Y-75322876D01*
X108994724Y-75322876D02*
X108947105Y-75513352D01*
X108947105Y-75513352D02*
X108947105Y-75656209D01*
X108947105Y-75656209D02*
X108994724Y-75846685D01*
X108994724Y-75846685D02*
X109042343Y-75941923D01*
X109042343Y-75941923D02*
X109137581Y-76037161D01*
X109137581Y-76037161D02*
X109280438Y-76084780D01*
X109280438Y-76084780D02*
X109375676Y-76084780D01*
X109375676Y-76084780D02*
X109518533Y-76037161D01*
X109518533Y-76037161D02*
X109566152Y-75989542D01*
X109899486Y-76084780D02*
X110518533Y-76084780D01*
X110518533Y-76084780D02*
X110185200Y-75703828D01*
X110185200Y-75703828D02*
X110328057Y-75703828D01*
X110328057Y-75703828D02*
X110423295Y-75656209D01*
X110423295Y-75656209D02*
X110470914Y-75608590D01*
X110470914Y-75608590D02*
X110518533Y-75513352D01*
X110518533Y-75513352D02*
X110518533Y-75275257D01*
X110518533Y-75275257D02*
X110470914Y-75180019D01*
X110470914Y-75180019D02*
X110423295Y-75132400D01*
X110423295Y-75132400D02*
X110328057Y-75084780D01*
X110328057Y-75084780D02*
X110042343Y-75084780D01*
X110042343Y-75084780D02*
X109947105Y-75132400D01*
X109947105Y-75132400D02*
X109899486Y-75180019D01*
X110851867Y-76084780D02*
X111470914Y-76084780D01*
X111470914Y-76084780D02*
X111137581Y-75703828D01*
X111137581Y-75703828D02*
X111280438Y-75703828D01*
X111280438Y-75703828D02*
X111375676Y-75656209D01*
X111375676Y-75656209D02*
X111423295Y-75608590D01*
X111423295Y-75608590D02*
X111470914Y-75513352D01*
X111470914Y-75513352D02*
X111470914Y-75275257D01*
X111470914Y-75275257D02*
X111423295Y-75180019D01*
X111423295Y-75180019D02*
X111375676Y-75132400D01*
X111375676Y-75132400D02*
X111280438Y-75084780D01*
X111280438Y-75084780D02*
X110994724Y-75084780D01*
X110994724Y-75084780D02*
X110899486Y-75132400D01*
X110899486Y-75132400D02*
X110851867Y-75180019D01*
X111804248Y-76084780D02*
X112470914Y-76084780D01*
X112470914Y-76084780D02*
X112042343Y-75084780D01*
X113869695Y-128607409D02*
X113726838Y-128655028D01*
X113726838Y-128655028D02*
X113679219Y-128702647D01*
X113679219Y-128702647D02*
X113631600Y-128797885D01*
X113631600Y-128797885D02*
X113631600Y-128940742D01*
X113631600Y-128940742D02*
X113679219Y-129035980D01*
X113679219Y-129035980D02*
X113726838Y-129083600D01*
X113726838Y-129083600D02*
X113822076Y-129131219D01*
X113822076Y-129131219D02*
X114203028Y-129131219D01*
X114203028Y-129131219D02*
X114203028Y-128131219D01*
X114203028Y-128131219D02*
X113869695Y-128131219D01*
X113869695Y-128131219D02*
X113774457Y-128178838D01*
X113774457Y-128178838D02*
X113726838Y-128226457D01*
X113726838Y-128226457D02*
X113679219Y-128321695D01*
X113679219Y-128321695D02*
X113679219Y-128416933D01*
X113679219Y-128416933D02*
X113726838Y-128512171D01*
X113726838Y-128512171D02*
X113774457Y-128559790D01*
X113774457Y-128559790D02*
X113869695Y-128607409D01*
X113869695Y-128607409D02*
X114203028Y-128607409D01*
X113250647Y-128845504D02*
X112774457Y-128845504D01*
X113345885Y-129131219D02*
X113012552Y-128131219D01*
X113012552Y-128131219D02*
X112679219Y-129131219D01*
X112488742Y-128131219D02*
X111917314Y-128131219D01*
X112203028Y-129131219D02*
X112203028Y-128131219D01*
X114452114Y-133211219D02*
X114261638Y-133211219D01*
X114261638Y-133211219D02*
X114166400Y-133258838D01*
X114166400Y-133258838D02*
X114071162Y-133354076D01*
X114071162Y-133354076D02*
X114023543Y-133544552D01*
X114023543Y-133544552D02*
X114023543Y-133877885D01*
X114023543Y-133877885D02*
X114071162Y-134068361D01*
X114071162Y-134068361D02*
X114166400Y-134163600D01*
X114166400Y-134163600D02*
X114261638Y-134211219D01*
X114261638Y-134211219D02*
X114452114Y-134211219D01*
X114452114Y-134211219D02*
X114547352Y-134163600D01*
X114547352Y-134163600D02*
X114642590Y-134068361D01*
X114642590Y-134068361D02*
X114690209Y-133877885D01*
X114690209Y-133877885D02*
X114690209Y-133544552D01*
X114690209Y-133544552D02*
X114642590Y-133354076D01*
X114642590Y-133354076D02*
X114547352Y-133258838D01*
X114547352Y-133258838D02*
X114452114Y-133211219D01*
X113594971Y-133211219D02*
X113594971Y-134020742D01*
X113594971Y-134020742D02*
X113547352Y-134115980D01*
X113547352Y-134115980D02*
X113499733Y-134163600D01*
X113499733Y-134163600D02*
X113404495Y-134211219D01*
X113404495Y-134211219D02*
X113214019Y-134211219D01*
X113214019Y-134211219D02*
X113118781Y-134163600D01*
X113118781Y-134163600D02*
X113071162Y-134115980D01*
X113071162Y-134115980D02*
X113023543Y-134020742D01*
X113023543Y-134020742D02*
X113023543Y-133211219D01*
X112690209Y-133211219D02*
X112118781Y-133211219D01*
X112404495Y-134211219D02*
X112404495Y-133211219D01*
X110547352Y-133211219D02*
X111023542Y-133211219D01*
X111023542Y-133211219D02*
X111071161Y-133687409D01*
X111071161Y-133687409D02*
X111023542Y-133639790D01*
X111023542Y-133639790D02*
X110928304Y-133592171D01*
X110928304Y-133592171D02*
X110690209Y-133592171D01*
X110690209Y-133592171D02*
X110594971Y-133639790D01*
X110594971Y-133639790D02*
X110547352Y-133687409D01*
X110547352Y-133687409D02*
X110499733Y-133782647D01*
X110499733Y-133782647D02*
X110499733Y-134020742D01*
X110499733Y-134020742D02*
X110547352Y-134115980D01*
X110547352Y-134115980D02*
X110594971Y-134163600D01*
X110594971Y-134163600D02*
X110690209Y-134211219D01*
X110690209Y-134211219D02*
X110928304Y-134211219D01*
X110928304Y-134211219D02*
X111023542Y-134163600D01*
X111023542Y-134163600D02*
X111071161Y-134115980D01*
X110214018Y-133211219D02*
X109880685Y-134211219D01*
X109880685Y-134211219D02*
X109547352Y-133211219D01*
X127436237Y-124660819D02*
X127436237Y-123660819D01*
X127436237Y-123660819D02*
X127102904Y-124375104D01*
X127102904Y-124375104D02*
X126769571Y-123660819D01*
X126769571Y-123660819D02*
X126769571Y-124660819D01*
X126102904Y-123660819D02*
X125912428Y-123660819D01*
X125912428Y-123660819D02*
X125817190Y-123708438D01*
X125817190Y-123708438D02*
X125721952Y-123803676D01*
X125721952Y-123803676D02*
X125674333Y-123994152D01*
X125674333Y-123994152D02*
X125674333Y-124327485D01*
X125674333Y-124327485D02*
X125721952Y-124517961D01*
X125721952Y-124517961D02*
X125817190Y-124613200D01*
X125817190Y-124613200D02*
X125912428Y-124660819D01*
X125912428Y-124660819D02*
X126102904Y-124660819D01*
X126102904Y-124660819D02*
X126198142Y-124613200D01*
X126198142Y-124613200D02*
X126293380Y-124517961D01*
X126293380Y-124517961D02*
X126340999Y-124327485D01*
X126340999Y-124327485D02*
X126340999Y-123994152D01*
X126340999Y-123994152D02*
X126293380Y-123803676D01*
X126293380Y-123803676D02*
X126198142Y-123708438D01*
X126198142Y-123708438D02*
X126102904Y-123660819D01*
X125293380Y-124613200D02*
X125150523Y-124660819D01*
X125150523Y-124660819D02*
X124912428Y-124660819D01*
X124912428Y-124660819D02*
X124817190Y-124613200D01*
X124817190Y-124613200D02*
X124769571Y-124565580D01*
X124769571Y-124565580D02*
X124721952Y-124470342D01*
X124721952Y-124470342D02*
X124721952Y-124375104D01*
X124721952Y-124375104D02*
X124769571Y-124279866D01*
X124769571Y-124279866D02*
X124817190Y-124232247D01*
X124817190Y-124232247D02*
X124912428Y-124184628D01*
X124912428Y-124184628D02*
X125102904Y-124137009D01*
X125102904Y-124137009D02*
X125198142Y-124089390D01*
X125198142Y-124089390D02*
X125245761Y-124041771D01*
X125245761Y-124041771D02*
X125293380Y-123946533D01*
X125293380Y-123946533D02*
X125293380Y-123851295D01*
X125293380Y-123851295D02*
X125245761Y-123756057D01*
X125245761Y-123756057D02*
X125198142Y-123708438D01*
X125198142Y-123708438D02*
X125102904Y-123660819D01*
X125102904Y-123660819D02*
X124864809Y-123660819D01*
X124864809Y-123660819D02*
X124721952Y-123708438D01*
X123960047Y-124137009D02*
X124293380Y-124137009D01*
X124293380Y-124660819D02*
X124293380Y-123660819D01*
X124293380Y-123660819D02*
X123817190Y-123660819D01*
X123436237Y-124137009D02*
X123102904Y-124137009D01*
X122960047Y-124660819D02*
X123436237Y-124660819D01*
X123436237Y-124660819D02*
X123436237Y-123660819D01*
X123436237Y-123660819D02*
X122960047Y-123660819D01*
X122674332Y-123660819D02*
X122102904Y-123660819D01*
X122388618Y-124660819D02*
X122388618Y-123660819D01*
D12*
X174246746Y-145946800D02*
X171961032Y-145946800D01*
X90563528Y-106894143D02*
X89063528Y-106894143D01*
X89063528Y-106894143D02*
X90134957Y-106394143D01*
X90134957Y-106394143D02*
X89063528Y-105894143D01*
X89063528Y-105894143D02*
X90563528Y-105894143D01*
X90563528Y-105179857D02*
X89063528Y-105179857D01*
X90420671Y-103608428D02*
X90492100Y-103679856D01*
X90492100Y-103679856D02*
X90563528Y-103894142D01*
X90563528Y-103894142D02*
X90563528Y-104036999D01*
X90563528Y-104036999D02*
X90492100Y-104251285D01*
X90492100Y-104251285D02*
X90349242Y-104394142D01*
X90349242Y-104394142D02*
X90206385Y-104465571D01*
X90206385Y-104465571D02*
X89920671Y-104536999D01*
X89920671Y-104536999D02*
X89706385Y-104536999D01*
X89706385Y-104536999D02*
X89420671Y-104465571D01*
X89420671Y-104465571D02*
X89277814Y-104394142D01*
X89277814Y-104394142D02*
X89134957Y-104251285D01*
X89134957Y-104251285D02*
X89063528Y-104036999D01*
X89063528Y-104036999D02*
X89063528Y-103894142D01*
X89063528Y-103894142D02*
X89134957Y-103679856D01*
X89134957Y-103679856D02*
X89206385Y-103608428D01*
D10*
X139189619Y-128298818D02*
X138713428Y-127965485D01*
X139189619Y-127727390D02*
X138189619Y-127727390D01*
X138189619Y-127727390D02*
X138189619Y-128108342D01*
X138189619Y-128108342D02*
X138237238Y-128203580D01*
X138237238Y-128203580D02*
X138284857Y-128251199D01*
X138284857Y-128251199D02*
X138380095Y-128298818D01*
X138380095Y-128298818D02*
X138522952Y-128298818D01*
X138522952Y-128298818D02*
X138618190Y-128251199D01*
X138618190Y-128251199D02*
X138665809Y-128203580D01*
X138665809Y-128203580D02*
X138713428Y-128108342D01*
X138713428Y-128108342D02*
X138713428Y-127727390D01*
X138522952Y-129155961D02*
X139332476Y-129155961D01*
X139332476Y-129155961D02*
X139427714Y-129108342D01*
X139427714Y-129108342D02*
X139475333Y-129060723D01*
X139475333Y-129060723D02*
X139522952Y-128965485D01*
X139522952Y-128965485D02*
X139522952Y-128822628D01*
X139522952Y-128822628D02*
X139475333Y-128727390D01*
X139142000Y-129155961D02*
X139189619Y-129060723D01*
X139189619Y-129060723D02*
X139189619Y-128870247D01*
X139189619Y-128870247D02*
X139142000Y-128775009D01*
X139142000Y-128775009D02*
X139094380Y-128727390D01*
X139094380Y-128727390D02*
X138999142Y-128679771D01*
X138999142Y-128679771D02*
X138713428Y-128679771D01*
X138713428Y-128679771D02*
X138618190Y-128727390D01*
X138618190Y-128727390D02*
X138570571Y-128775009D01*
X138570571Y-128775009D02*
X138522952Y-128870247D01*
X138522952Y-128870247D02*
X138522952Y-129060723D01*
X138522952Y-129060723D02*
X138570571Y-129155961D01*
X138284857Y-130346438D02*
X138237238Y-130394057D01*
X138237238Y-130394057D02*
X138189619Y-130489295D01*
X138189619Y-130489295D02*
X138189619Y-130727390D01*
X138189619Y-130727390D02*
X138237238Y-130822628D01*
X138237238Y-130822628D02*
X138284857Y-130870247D01*
X138284857Y-130870247D02*
X138380095Y-130917866D01*
X138380095Y-130917866D02*
X138475333Y-130917866D01*
X138475333Y-130917866D02*
X138618190Y-130870247D01*
X138618190Y-130870247D02*
X139189619Y-130298819D01*
X139189619Y-130298819D02*
X139189619Y-130917866D01*
X138284857Y-131298819D02*
X138237238Y-131346438D01*
X138237238Y-131346438D02*
X138189619Y-131441676D01*
X138189619Y-131441676D02*
X138189619Y-131679771D01*
X138189619Y-131679771D02*
X138237238Y-131775009D01*
X138237238Y-131775009D02*
X138284857Y-131822628D01*
X138284857Y-131822628D02*
X138380095Y-131870247D01*
X138380095Y-131870247D02*
X138475333Y-131870247D01*
X138475333Y-131870247D02*
X138618190Y-131822628D01*
X138618190Y-131822628D02*
X139189619Y-131251200D01*
X139189619Y-131251200D02*
X139189619Y-131870247D01*
X138189619Y-132489295D02*
X138189619Y-132584533D01*
X138189619Y-132584533D02*
X138237238Y-132679771D01*
X138237238Y-132679771D02*
X138284857Y-132727390D01*
X138284857Y-132727390D02*
X138380095Y-132775009D01*
X138380095Y-132775009D02*
X138570571Y-132822628D01*
X138570571Y-132822628D02*
X138808666Y-132822628D01*
X138808666Y-132822628D02*
X138999142Y-132775009D01*
X138999142Y-132775009D02*
X139094380Y-132727390D01*
X139094380Y-132727390D02*
X139142000Y-132679771D01*
X139142000Y-132679771D02*
X139189619Y-132584533D01*
X139189619Y-132584533D02*
X139189619Y-132489295D01*
X139189619Y-132489295D02*
X139142000Y-132394057D01*
X139142000Y-132394057D02*
X139094380Y-132346438D01*
X139094380Y-132346438D02*
X138999142Y-132298819D01*
X138999142Y-132298819D02*
X138808666Y-132251200D01*
X138808666Y-132251200D02*
X138570571Y-132251200D01*
X138570571Y-132251200D02*
X138380095Y-132298819D01*
X138380095Y-132298819D02*
X138284857Y-132346438D01*
X138284857Y-132346438D02*
X138237238Y-132394057D01*
X138237238Y-132394057D02*
X138189619Y-132489295D01*
D12*
X113058342Y-96385528D02*
X113558342Y-95671242D01*
X113915485Y-96385528D02*
X113915485Y-94885528D01*
X113915485Y-94885528D02*
X113344056Y-94885528D01*
X113344056Y-94885528D02*
X113201199Y-94956957D01*
X113201199Y-94956957D02*
X113129770Y-95028385D01*
X113129770Y-95028385D02*
X113058342Y-95171242D01*
X113058342Y-95171242D02*
X113058342Y-95385528D01*
X113058342Y-95385528D02*
X113129770Y-95528385D01*
X113129770Y-95528385D02*
X113201199Y-95599814D01*
X113201199Y-95599814D02*
X113344056Y-95671242D01*
X113344056Y-95671242D02*
X113915485Y-95671242D01*
X111844056Y-96314100D02*
X111986913Y-96385528D01*
X111986913Y-96385528D02*
X112272628Y-96385528D01*
X112272628Y-96385528D02*
X112415485Y-96314100D01*
X112415485Y-96314100D02*
X112486913Y-96171242D01*
X112486913Y-96171242D02*
X112486913Y-95599814D01*
X112486913Y-95599814D02*
X112415485Y-95456957D01*
X112415485Y-95456957D02*
X112272628Y-95385528D01*
X112272628Y-95385528D02*
X111986913Y-95385528D01*
X111986913Y-95385528D02*
X111844056Y-95456957D01*
X111844056Y-95456957D02*
X111772628Y-95599814D01*
X111772628Y-95599814D02*
X111772628Y-95742671D01*
X111772628Y-95742671D02*
X112486913Y-95885528D01*
X111201199Y-96314100D02*
X111058342Y-96385528D01*
X111058342Y-96385528D02*
X110772628Y-96385528D01*
X110772628Y-96385528D02*
X110629771Y-96314100D01*
X110629771Y-96314100D02*
X110558342Y-96171242D01*
X110558342Y-96171242D02*
X110558342Y-96099814D01*
X110558342Y-96099814D02*
X110629771Y-95956957D01*
X110629771Y-95956957D02*
X110772628Y-95885528D01*
X110772628Y-95885528D02*
X110986914Y-95885528D01*
X110986914Y-95885528D02*
X111129771Y-95814100D01*
X111129771Y-95814100D02*
X111201199Y-95671242D01*
X111201199Y-95671242D02*
X111201199Y-95599814D01*
X111201199Y-95599814D02*
X111129771Y-95456957D01*
X111129771Y-95456957D02*
X110986914Y-95385528D01*
X110986914Y-95385528D02*
X110772628Y-95385528D01*
X110772628Y-95385528D02*
X110629771Y-95456957D01*
X109344056Y-96314100D02*
X109486913Y-96385528D01*
X109486913Y-96385528D02*
X109772628Y-96385528D01*
X109772628Y-96385528D02*
X109915485Y-96314100D01*
X109915485Y-96314100D02*
X109986913Y-96171242D01*
X109986913Y-96171242D02*
X109986913Y-95599814D01*
X109986913Y-95599814D02*
X109915485Y-95456957D01*
X109915485Y-95456957D02*
X109772628Y-95385528D01*
X109772628Y-95385528D02*
X109486913Y-95385528D01*
X109486913Y-95385528D02*
X109344056Y-95456957D01*
X109344056Y-95456957D02*
X109272628Y-95599814D01*
X109272628Y-95599814D02*
X109272628Y-95742671D01*
X109272628Y-95742671D02*
X109986913Y-95885528D01*
X108844056Y-95385528D02*
X108272628Y-95385528D01*
X108629771Y-94885528D02*
X108629771Y-96171242D01*
X108629771Y-96171242D02*
X108558342Y-96314100D01*
X108558342Y-96314100D02*
X108415485Y-96385528D01*
X108415485Y-96385528D02*
X108272628Y-96385528D01*
X162927736Y-100780341D02*
X162855165Y-100635199D01*
X162855165Y-100635199D02*
X162855165Y-100417484D01*
X162855165Y-100417484D02*
X162927736Y-100199770D01*
X162927736Y-100199770D02*
X163072879Y-100054627D01*
X163072879Y-100054627D02*
X163218022Y-99982056D01*
X163218022Y-99982056D02*
X163508308Y-99909484D01*
X163508308Y-99909484D02*
X163726022Y-99909484D01*
X163726022Y-99909484D02*
X164016308Y-99982056D01*
X164016308Y-99982056D02*
X164161451Y-100054627D01*
X164161451Y-100054627D02*
X164306594Y-100199770D01*
X164306594Y-100199770D02*
X164379165Y-100417484D01*
X164379165Y-100417484D02*
X164379165Y-100562627D01*
X164379165Y-100562627D02*
X164306594Y-100780341D01*
X164306594Y-100780341D02*
X164234022Y-100852913D01*
X164234022Y-100852913D02*
X163726022Y-100852913D01*
X163726022Y-100852913D02*
X163726022Y-100562627D01*
X163000308Y-101433484D02*
X162927736Y-101506056D01*
X162927736Y-101506056D02*
X162855165Y-101651199D01*
X162855165Y-101651199D02*
X162855165Y-102014056D01*
X162855165Y-102014056D02*
X162927736Y-102159199D01*
X162927736Y-102159199D02*
X163000308Y-102231770D01*
X163000308Y-102231770D02*
X163145451Y-102304341D01*
X163145451Y-102304341D02*
X163290594Y-102304341D01*
X163290594Y-102304341D02*
X163508308Y-102231770D01*
X163508308Y-102231770D02*
X164379165Y-101360913D01*
X164379165Y-101360913D02*
X164379165Y-102304341D01*
D10*
X154273238Y-75886457D02*
X154368476Y-75838838D01*
X154368476Y-75838838D02*
X154463714Y-75743600D01*
X154463714Y-75743600D02*
X154606571Y-75600742D01*
X154606571Y-75600742D02*
X154701809Y-75553123D01*
X154701809Y-75553123D02*
X154797047Y-75553123D01*
X154749428Y-75791219D02*
X154844666Y-75743600D01*
X154844666Y-75743600D02*
X154939904Y-75648361D01*
X154939904Y-75648361D02*
X154987523Y-75457885D01*
X154987523Y-75457885D02*
X154987523Y-75124552D01*
X154987523Y-75124552D02*
X154939904Y-74934076D01*
X154939904Y-74934076D02*
X154844666Y-74838838D01*
X154844666Y-74838838D02*
X154749428Y-74791219D01*
X154749428Y-74791219D02*
X154558952Y-74791219D01*
X154558952Y-74791219D02*
X154463714Y-74838838D01*
X154463714Y-74838838D02*
X154368476Y-74934076D01*
X154368476Y-74934076D02*
X154320857Y-75124552D01*
X154320857Y-75124552D02*
X154320857Y-75457885D01*
X154320857Y-75457885D02*
X154368476Y-75648361D01*
X154368476Y-75648361D02*
X154463714Y-75743600D01*
X154463714Y-75743600D02*
X154558952Y-75791219D01*
X154558952Y-75791219D02*
X154749428Y-75791219D01*
X153987523Y-74791219D02*
X153368476Y-74791219D01*
X153368476Y-74791219D02*
X153701809Y-75172171D01*
X153701809Y-75172171D02*
X153558952Y-75172171D01*
X153558952Y-75172171D02*
X153463714Y-75219790D01*
X153463714Y-75219790D02*
X153416095Y-75267409D01*
X153416095Y-75267409D02*
X153368476Y-75362647D01*
X153368476Y-75362647D02*
X153368476Y-75600742D01*
X153368476Y-75600742D02*
X153416095Y-75695980D01*
X153416095Y-75695980D02*
X153463714Y-75743600D01*
X153463714Y-75743600D02*
X153558952Y-75791219D01*
X153558952Y-75791219D02*
X153844666Y-75791219D01*
X153844666Y-75791219D02*
X153939904Y-75743600D01*
X153939904Y-75743600D02*
X153987523Y-75695980D01*
X149841809Y-70532857D02*
X149889428Y-70675714D01*
X149889428Y-70675714D02*
X149937047Y-70723333D01*
X149937047Y-70723333D02*
X150032285Y-70770952D01*
X150032285Y-70770952D02*
X150175142Y-70770952D01*
X150175142Y-70770952D02*
X150270380Y-70723333D01*
X150270380Y-70723333D02*
X150318000Y-70675714D01*
X150318000Y-70675714D02*
X150365619Y-70580476D01*
X150365619Y-70580476D02*
X150365619Y-70199524D01*
X150365619Y-70199524D02*
X149365619Y-70199524D01*
X149365619Y-70199524D02*
X149365619Y-70532857D01*
X149365619Y-70532857D02*
X149413238Y-70628095D01*
X149413238Y-70628095D02*
X149460857Y-70675714D01*
X149460857Y-70675714D02*
X149556095Y-70723333D01*
X149556095Y-70723333D02*
X149651333Y-70723333D01*
X149651333Y-70723333D02*
X149746571Y-70675714D01*
X149746571Y-70675714D02*
X149794190Y-70628095D01*
X149794190Y-70628095D02*
X149841809Y-70532857D01*
X149841809Y-70532857D02*
X149841809Y-70199524D01*
X150270380Y-71770952D02*
X150318000Y-71723333D01*
X150318000Y-71723333D02*
X150365619Y-71580476D01*
X150365619Y-71580476D02*
X150365619Y-71485238D01*
X150365619Y-71485238D02*
X150318000Y-71342381D01*
X150318000Y-71342381D02*
X150222761Y-71247143D01*
X150222761Y-71247143D02*
X150127523Y-71199524D01*
X150127523Y-71199524D02*
X149937047Y-71151905D01*
X149937047Y-71151905D02*
X149794190Y-71151905D01*
X149794190Y-71151905D02*
X149603714Y-71199524D01*
X149603714Y-71199524D02*
X149508476Y-71247143D01*
X149508476Y-71247143D02*
X149413238Y-71342381D01*
X149413238Y-71342381D02*
X149365619Y-71485238D01*
X149365619Y-71485238D02*
X149365619Y-71580476D01*
X149365619Y-71580476D02*
X149413238Y-71723333D01*
X149413238Y-71723333D02*
X149460857Y-71770952D01*
X149365619Y-72104286D02*
X149365619Y-72723333D01*
X149365619Y-72723333D02*
X149746571Y-72390000D01*
X149746571Y-72390000D02*
X149746571Y-72532857D01*
X149746571Y-72532857D02*
X149794190Y-72628095D01*
X149794190Y-72628095D02*
X149841809Y-72675714D01*
X149841809Y-72675714D02*
X149937047Y-72723333D01*
X149937047Y-72723333D02*
X150175142Y-72723333D01*
X150175142Y-72723333D02*
X150270380Y-72675714D01*
X150270380Y-72675714D02*
X150318000Y-72628095D01*
X150318000Y-72628095D02*
X150365619Y-72532857D01*
X150365619Y-72532857D02*
X150365619Y-72247143D01*
X150365619Y-72247143D02*
X150318000Y-72151905D01*
X150318000Y-72151905D02*
X150270380Y-72104286D01*
X149365619Y-73056667D02*
X149365619Y-73675714D01*
X149365619Y-73675714D02*
X149746571Y-73342381D01*
X149746571Y-73342381D02*
X149746571Y-73485238D01*
X149746571Y-73485238D02*
X149794190Y-73580476D01*
X149794190Y-73580476D02*
X149841809Y-73628095D01*
X149841809Y-73628095D02*
X149937047Y-73675714D01*
X149937047Y-73675714D02*
X150175142Y-73675714D01*
X150175142Y-73675714D02*
X150270380Y-73628095D01*
X150270380Y-73628095D02*
X150318000Y-73580476D01*
X150318000Y-73580476D02*
X150365619Y-73485238D01*
X150365619Y-73485238D02*
X150365619Y-73199524D01*
X150365619Y-73199524D02*
X150318000Y-73104286D01*
X150318000Y-73104286D02*
X150270380Y-73056667D01*
X149365619Y-74009048D02*
X149365619Y-74675714D01*
X149365619Y-74675714D02*
X150365619Y-74247143D01*
X145184019Y-128400418D02*
X144707828Y-128067085D01*
X145184019Y-127828990D02*
X144184019Y-127828990D01*
X144184019Y-127828990D02*
X144184019Y-128209942D01*
X144184019Y-128209942D02*
X144231638Y-128305180D01*
X144231638Y-128305180D02*
X144279257Y-128352799D01*
X144279257Y-128352799D02*
X144374495Y-128400418D01*
X144374495Y-128400418D02*
X144517352Y-128400418D01*
X144517352Y-128400418D02*
X144612590Y-128352799D01*
X144612590Y-128352799D02*
X144660209Y-128305180D01*
X144660209Y-128305180D02*
X144707828Y-128209942D01*
X144707828Y-128209942D02*
X144707828Y-127828990D01*
X145184019Y-128828990D02*
X144184019Y-128828990D01*
X144564971Y-128828990D02*
X144517352Y-128924228D01*
X144517352Y-128924228D02*
X144517352Y-129114704D01*
X144517352Y-129114704D02*
X144564971Y-129209942D01*
X144564971Y-129209942D02*
X144612590Y-129257561D01*
X144612590Y-129257561D02*
X144707828Y-129305180D01*
X144707828Y-129305180D02*
X144993542Y-129305180D01*
X144993542Y-129305180D02*
X145088780Y-129257561D01*
X145088780Y-129257561D02*
X145136400Y-129209942D01*
X145136400Y-129209942D02*
X145184019Y-129114704D01*
X145184019Y-129114704D02*
X145184019Y-128924228D01*
X145184019Y-128924228D02*
X145136400Y-128828990D01*
X145184019Y-131019466D02*
X145184019Y-130448038D01*
X145184019Y-130733752D02*
X144184019Y-130733752D01*
X144184019Y-130733752D02*
X144326876Y-130638514D01*
X144326876Y-130638514D02*
X144422114Y-130543276D01*
X144422114Y-130543276D02*
X144469733Y-130448038D01*
X144184019Y-131924228D02*
X144184019Y-131448038D01*
X144184019Y-131448038D02*
X144660209Y-131400419D01*
X144660209Y-131400419D02*
X144612590Y-131448038D01*
X144612590Y-131448038D02*
X144564971Y-131543276D01*
X144564971Y-131543276D02*
X144564971Y-131781371D01*
X144564971Y-131781371D02*
X144612590Y-131876609D01*
X144612590Y-131876609D02*
X144660209Y-131924228D01*
X144660209Y-131924228D02*
X144755447Y-131971847D01*
X144755447Y-131971847D02*
X144993542Y-131971847D01*
X144993542Y-131971847D02*
X145088780Y-131924228D01*
X145088780Y-131924228D02*
X145136400Y-131876609D01*
X145136400Y-131876609D02*
X145184019Y-131781371D01*
X145184019Y-131781371D02*
X145184019Y-131543276D01*
X145184019Y-131543276D02*
X145136400Y-131448038D01*
X145136400Y-131448038D02*
X145088780Y-131400419D01*
X144184019Y-132590895D02*
X144184019Y-132686133D01*
X144184019Y-132686133D02*
X144231638Y-132781371D01*
X144231638Y-132781371D02*
X144279257Y-132828990D01*
X144279257Y-132828990D02*
X144374495Y-132876609D01*
X144374495Y-132876609D02*
X144564971Y-132924228D01*
X144564971Y-132924228D02*
X144803066Y-132924228D01*
X144803066Y-132924228D02*
X144993542Y-132876609D01*
X144993542Y-132876609D02*
X145088780Y-132828990D01*
X145088780Y-132828990D02*
X145136400Y-132781371D01*
X145136400Y-132781371D02*
X145184019Y-132686133D01*
X145184019Y-132686133D02*
X145184019Y-132590895D01*
X145184019Y-132590895D02*
X145136400Y-132495657D01*
X145136400Y-132495657D02*
X145088780Y-132448038D01*
X145088780Y-132448038D02*
X144993542Y-132400419D01*
X144993542Y-132400419D02*
X144803066Y-132352800D01*
X144803066Y-132352800D02*
X144564971Y-132352800D01*
X144564971Y-132352800D02*
X144374495Y-132400419D01*
X144374495Y-132400419D02*
X144279257Y-132448038D01*
X144279257Y-132448038D02*
X144231638Y-132495657D01*
X144231638Y-132495657D02*
X144184019Y-132590895D01*
X110393238Y-69380057D02*
X110488476Y-69332438D01*
X110488476Y-69332438D02*
X110583714Y-69237200D01*
X110583714Y-69237200D02*
X110726571Y-69094342D01*
X110726571Y-69094342D02*
X110821809Y-69046723D01*
X110821809Y-69046723D02*
X110917047Y-69046723D01*
X110869428Y-69284819D02*
X110964666Y-69237200D01*
X110964666Y-69237200D02*
X111059904Y-69141961D01*
X111059904Y-69141961D02*
X111107523Y-68951485D01*
X111107523Y-68951485D02*
X111107523Y-68618152D01*
X111107523Y-68618152D02*
X111059904Y-68427676D01*
X111059904Y-68427676D02*
X110964666Y-68332438D01*
X110964666Y-68332438D02*
X110869428Y-68284819D01*
X110869428Y-68284819D02*
X110678952Y-68284819D01*
X110678952Y-68284819D02*
X110583714Y-68332438D01*
X110583714Y-68332438D02*
X110488476Y-68427676D01*
X110488476Y-68427676D02*
X110440857Y-68618152D01*
X110440857Y-68618152D02*
X110440857Y-68951485D01*
X110440857Y-68951485D02*
X110488476Y-69141961D01*
X110488476Y-69141961D02*
X110583714Y-69237200D01*
X110583714Y-69237200D02*
X110678952Y-69284819D01*
X110678952Y-69284819D02*
X110869428Y-69284819D01*
X110059904Y-68380057D02*
X110012285Y-68332438D01*
X110012285Y-68332438D02*
X109917047Y-68284819D01*
X109917047Y-68284819D02*
X109678952Y-68284819D01*
X109678952Y-68284819D02*
X109583714Y-68332438D01*
X109583714Y-68332438D02*
X109536095Y-68380057D01*
X109536095Y-68380057D02*
X109488476Y-68475295D01*
X109488476Y-68475295D02*
X109488476Y-68570533D01*
X109488476Y-68570533D02*
X109536095Y-68713390D01*
X109536095Y-68713390D02*
X110107523Y-69284819D01*
X110107523Y-69284819D02*
X109488476Y-69284819D01*
X110656666Y-70134819D02*
X110989999Y-69658628D01*
X111228094Y-70134819D02*
X111228094Y-69134819D01*
X111228094Y-69134819D02*
X110847142Y-69134819D01*
X110847142Y-69134819D02*
X110751904Y-69182438D01*
X110751904Y-69182438D02*
X110704285Y-69230057D01*
X110704285Y-69230057D02*
X110656666Y-69325295D01*
X110656666Y-69325295D02*
X110656666Y-69468152D01*
X110656666Y-69468152D02*
X110704285Y-69563390D01*
X110704285Y-69563390D02*
X110751904Y-69611009D01*
X110751904Y-69611009D02*
X110847142Y-69658628D01*
X110847142Y-69658628D02*
X111228094Y-69658628D01*
X109704285Y-70134819D02*
X110275713Y-70134819D01*
X109989999Y-70134819D02*
X109989999Y-69134819D01*
X109989999Y-69134819D02*
X110085237Y-69277676D01*
X110085237Y-69277676D02*
X110180475Y-69372914D01*
X110180475Y-69372914D02*
X110275713Y-69420533D01*
X111724913Y-66764819D02*
X111105866Y-66764819D01*
X111105866Y-66764819D02*
X111439199Y-67145771D01*
X111439199Y-67145771D02*
X111296342Y-67145771D01*
X111296342Y-67145771D02*
X111201104Y-67193390D01*
X111201104Y-67193390D02*
X111153485Y-67241009D01*
X111153485Y-67241009D02*
X111105866Y-67336247D01*
X111105866Y-67336247D02*
X111105866Y-67574342D01*
X111105866Y-67574342D02*
X111153485Y-67669580D01*
X111153485Y-67669580D02*
X111201104Y-67717200D01*
X111201104Y-67717200D02*
X111296342Y-67764819D01*
X111296342Y-67764819D02*
X111582056Y-67764819D01*
X111582056Y-67764819D02*
X111677294Y-67717200D01*
X111677294Y-67717200D02*
X111724913Y-67669580D01*
X110772532Y-66764819D02*
X110153485Y-66764819D01*
X110153485Y-66764819D02*
X110486818Y-67145771D01*
X110486818Y-67145771D02*
X110343961Y-67145771D01*
X110343961Y-67145771D02*
X110248723Y-67193390D01*
X110248723Y-67193390D02*
X110201104Y-67241009D01*
X110201104Y-67241009D02*
X110153485Y-67336247D01*
X110153485Y-67336247D02*
X110153485Y-67574342D01*
X110153485Y-67574342D02*
X110201104Y-67669580D01*
X110201104Y-67669580D02*
X110248723Y-67717200D01*
X110248723Y-67717200D02*
X110343961Y-67764819D01*
X110343961Y-67764819D02*
X110629675Y-67764819D01*
X110629675Y-67764819D02*
X110724913Y-67717200D01*
X110724913Y-67717200D02*
X110772532Y-67669580D01*
X109534437Y-66764819D02*
X109439199Y-66764819D01*
X109439199Y-66764819D02*
X109343961Y-66812438D01*
X109343961Y-66812438D02*
X109296342Y-66860057D01*
X109296342Y-66860057D02*
X109248723Y-66955295D01*
X109248723Y-66955295D02*
X109201104Y-67145771D01*
X109201104Y-67145771D02*
X109201104Y-67383866D01*
X109201104Y-67383866D02*
X109248723Y-67574342D01*
X109248723Y-67574342D02*
X109296342Y-67669580D01*
X109296342Y-67669580D02*
X109343961Y-67717200D01*
X109343961Y-67717200D02*
X109439199Y-67764819D01*
X109439199Y-67764819D02*
X109534437Y-67764819D01*
X109534437Y-67764819D02*
X109629675Y-67717200D01*
X109629675Y-67717200D02*
X109677294Y-67669580D01*
X109677294Y-67669580D02*
X109724913Y-67574342D01*
X109724913Y-67574342D02*
X109772532Y-67383866D01*
X109772532Y-67383866D02*
X109772532Y-67145771D01*
X109772532Y-67145771D02*
X109724913Y-66955295D01*
X109724913Y-66955295D02*
X109677294Y-66860057D01*
X109677294Y-66860057D02*
X109629675Y-66812438D01*
X109629675Y-66812438D02*
X109534437Y-66764819D01*
X110453466Y-65682019D02*
X110786799Y-65205828D01*
X111024894Y-65682019D02*
X111024894Y-64682019D01*
X111024894Y-64682019D02*
X110643942Y-64682019D01*
X110643942Y-64682019D02*
X110548704Y-64729638D01*
X110548704Y-64729638D02*
X110501085Y-64777257D01*
X110501085Y-64777257D02*
X110453466Y-64872495D01*
X110453466Y-64872495D02*
X110453466Y-65015352D01*
X110453466Y-65015352D02*
X110501085Y-65110590D01*
X110501085Y-65110590D02*
X110548704Y-65158209D01*
X110548704Y-65158209D02*
X110643942Y-65205828D01*
X110643942Y-65205828D02*
X111024894Y-65205828D01*
X109501085Y-65682019D02*
X110072513Y-65682019D01*
X109786799Y-65682019D02*
X109786799Y-64682019D01*
X109786799Y-64682019D02*
X109882037Y-64824876D01*
X109882037Y-64824876D02*
X109977275Y-64920114D01*
X109977275Y-64920114D02*
X110072513Y-64967733D01*
X154396913Y-66866419D02*
X153777866Y-66866419D01*
X153777866Y-66866419D02*
X154111199Y-67247371D01*
X154111199Y-67247371D02*
X153968342Y-67247371D01*
X153968342Y-67247371D02*
X153873104Y-67294990D01*
X153873104Y-67294990D02*
X153825485Y-67342609D01*
X153825485Y-67342609D02*
X153777866Y-67437847D01*
X153777866Y-67437847D02*
X153777866Y-67675942D01*
X153777866Y-67675942D02*
X153825485Y-67771180D01*
X153825485Y-67771180D02*
X153873104Y-67818800D01*
X153873104Y-67818800D02*
X153968342Y-67866419D01*
X153968342Y-67866419D02*
X154254056Y-67866419D01*
X154254056Y-67866419D02*
X154349294Y-67818800D01*
X154349294Y-67818800D02*
X154396913Y-67771180D01*
X153444532Y-66866419D02*
X152825485Y-66866419D01*
X152825485Y-66866419D02*
X153158818Y-67247371D01*
X153158818Y-67247371D02*
X153015961Y-67247371D01*
X153015961Y-67247371D02*
X152920723Y-67294990D01*
X152920723Y-67294990D02*
X152873104Y-67342609D01*
X152873104Y-67342609D02*
X152825485Y-67437847D01*
X152825485Y-67437847D02*
X152825485Y-67675942D01*
X152825485Y-67675942D02*
X152873104Y-67771180D01*
X152873104Y-67771180D02*
X152920723Y-67818800D01*
X152920723Y-67818800D02*
X153015961Y-67866419D01*
X153015961Y-67866419D02*
X153301675Y-67866419D01*
X153301675Y-67866419D02*
X153396913Y-67818800D01*
X153396913Y-67818800D02*
X153444532Y-67771180D01*
X152206437Y-66866419D02*
X152111199Y-66866419D01*
X152111199Y-66866419D02*
X152015961Y-66914038D01*
X152015961Y-66914038D02*
X151968342Y-66961657D01*
X151968342Y-66961657D02*
X151920723Y-67056895D01*
X151920723Y-67056895D02*
X151873104Y-67247371D01*
X151873104Y-67247371D02*
X151873104Y-67485466D01*
X151873104Y-67485466D02*
X151920723Y-67675942D01*
X151920723Y-67675942D02*
X151968342Y-67771180D01*
X151968342Y-67771180D02*
X152015961Y-67818800D01*
X152015961Y-67818800D02*
X152111199Y-67866419D01*
X152111199Y-67866419D02*
X152206437Y-67866419D01*
X152206437Y-67866419D02*
X152301675Y-67818800D01*
X152301675Y-67818800D02*
X152349294Y-67771180D01*
X152349294Y-67771180D02*
X152396913Y-67675942D01*
X152396913Y-67675942D02*
X152444532Y-67485466D01*
X152444532Y-67485466D02*
X152444532Y-67247371D01*
X152444532Y-67247371D02*
X152396913Y-67056895D01*
X152396913Y-67056895D02*
X152349294Y-66961657D01*
X152349294Y-66961657D02*
X152301675Y-66914038D01*
X152301675Y-66914038D02*
X152206437Y-66866419D01*
X151652266Y-65428019D02*
X151985599Y-64951828D01*
X152223694Y-65428019D02*
X152223694Y-64428019D01*
X152223694Y-64428019D02*
X151842742Y-64428019D01*
X151842742Y-64428019D02*
X151747504Y-64475638D01*
X151747504Y-64475638D02*
X151699885Y-64523257D01*
X151699885Y-64523257D02*
X151652266Y-64618495D01*
X151652266Y-64618495D02*
X151652266Y-64761352D01*
X151652266Y-64761352D02*
X151699885Y-64856590D01*
X151699885Y-64856590D02*
X151747504Y-64904209D01*
X151747504Y-64904209D02*
X151842742Y-64951828D01*
X151842742Y-64951828D02*
X152223694Y-64951828D01*
X151271313Y-64523257D02*
X151223694Y-64475638D01*
X151223694Y-64475638D02*
X151128456Y-64428019D01*
X151128456Y-64428019D02*
X150890361Y-64428019D01*
X150890361Y-64428019D02*
X150795123Y-64475638D01*
X150795123Y-64475638D02*
X150747504Y-64523257D01*
X150747504Y-64523257D02*
X150699885Y-64618495D01*
X150699885Y-64618495D02*
X150699885Y-64713733D01*
X150699885Y-64713733D02*
X150747504Y-64856590D01*
X150747504Y-64856590D02*
X151318932Y-65428019D01*
X151318932Y-65428019D02*
X150699885Y-65428019D01*
X105929962Y-121263580D02*
X105977581Y-121311200D01*
X105977581Y-121311200D02*
X106120438Y-121358819D01*
X106120438Y-121358819D02*
X106215676Y-121358819D01*
X106215676Y-121358819D02*
X106358533Y-121311200D01*
X106358533Y-121311200D02*
X106453771Y-121215961D01*
X106453771Y-121215961D02*
X106501390Y-121120723D01*
X106501390Y-121120723D02*
X106549009Y-120930247D01*
X106549009Y-120930247D02*
X106549009Y-120787390D01*
X106549009Y-120787390D02*
X106501390Y-120596914D01*
X106501390Y-120596914D02*
X106453771Y-120501676D01*
X106453771Y-120501676D02*
X106358533Y-120406438D01*
X106358533Y-120406438D02*
X106215676Y-120358819D01*
X106215676Y-120358819D02*
X106120438Y-120358819D01*
X106120438Y-120358819D02*
X105977581Y-120406438D01*
X105977581Y-120406438D02*
X105929962Y-120454057D01*
X105501390Y-121358819D02*
X105501390Y-120358819D01*
X105072819Y-121358819D02*
X105072819Y-120835009D01*
X105072819Y-120835009D02*
X105120438Y-120739771D01*
X105120438Y-120739771D02*
X105215676Y-120692152D01*
X105215676Y-120692152D02*
X105358533Y-120692152D01*
X105358533Y-120692152D02*
X105453771Y-120739771D01*
X105453771Y-120739771D02*
X105501390Y-120787390D01*
X104168057Y-121358819D02*
X104168057Y-120835009D01*
X104168057Y-120835009D02*
X104215676Y-120739771D01*
X104215676Y-120739771D02*
X104310914Y-120692152D01*
X104310914Y-120692152D02*
X104501390Y-120692152D01*
X104501390Y-120692152D02*
X104596628Y-120739771D01*
X104168057Y-121311200D02*
X104263295Y-121358819D01*
X104263295Y-121358819D02*
X104501390Y-121358819D01*
X104501390Y-121358819D02*
X104596628Y-121311200D01*
X104596628Y-121311200D02*
X104644247Y-121215961D01*
X104644247Y-121215961D02*
X104644247Y-121120723D01*
X104644247Y-121120723D02*
X104596628Y-121025485D01*
X104596628Y-121025485D02*
X104501390Y-120977866D01*
X104501390Y-120977866D02*
X104263295Y-120977866D01*
X104263295Y-120977866D02*
X104168057Y-120930247D01*
X103691866Y-121358819D02*
X103691866Y-120692152D01*
X103691866Y-120882628D02*
X103644247Y-120787390D01*
X103644247Y-120787390D02*
X103596628Y-120739771D01*
X103596628Y-120739771D02*
X103501390Y-120692152D01*
X103501390Y-120692152D02*
X103406152Y-120692152D01*
X102644247Y-120692152D02*
X102644247Y-121501676D01*
X102644247Y-121501676D02*
X102691866Y-121596914D01*
X102691866Y-121596914D02*
X102739485Y-121644533D01*
X102739485Y-121644533D02*
X102834723Y-121692152D01*
X102834723Y-121692152D02*
X102977580Y-121692152D01*
X102977580Y-121692152D02*
X103072818Y-121644533D01*
X102644247Y-121311200D02*
X102739485Y-121358819D01*
X102739485Y-121358819D02*
X102929961Y-121358819D01*
X102929961Y-121358819D02*
X103025199Y-121311200D01*
X103025199Y-121311200D02*
X103072818Y-121263580D01*
X103072818Y-121263580D02*
X103120437Y-121168342D01*
X103120437Y-121168342D02*
X103120437Y-120882628D01*
X103120437Y-120882628D02*
X103072818Y-120787390D01*
X103072818Y-120787390D02*
X103025199Y-120739771D01*
X103025199Y-120739771D02*
X102929961Y-120692152D01*
X102929961Y-120692152D02*
X102739485Y-120692152D01*
X102739485Y-120692152D02*
X102644247Y-120739771D01*
X101787104Y-121311200D02*
X101882342Y-121358819D01*
X101882342Y-121358819D02*
X102072818Y-121358819D01*
X102072818Y-121358819D02*
X102168056Y-121311200D01*
X102168056Y-121311200D02*
X102215675Y-121215961D01*
X102215675Y-121215961D02*
X102215675Y-120835009D01*
X102215675Y-120835009D02*
X102168056Y-120739771D01*
X102168056Y-120739771D02*
X102072818Y-120692152D01*
X102072818Y-120692152D02*
X101882342Y-120692152D01*
X101882342Y-120692152D02*
X101787104Y-120739771D01*
X101787104Y-120739771D02*
X101739485Y-120835009D01*
X101739485Y-120835009D02*
X101739485Y-120930247D01*
X101739485Y-120930247D02*
X102215675Y-121025485D01*
X100549008Y-121358819D02*
X100549008Y-120358819D01*
X100549008Y-120358819D02*
X100310913Y-120358819D01*
X100310913Y-120358819D02*
X100168056Y-120406438D01*
X100168056Y-120406438D02*
X100072818Y-120501676D01*
X100072818Y-120501676D02*
X100025199Y-120596914D01*
X100025199Y-120596914D02*
X99977580Y-120787390D01*
X99977580Y-120787390D02*
X99977580Y-120930247D01*
X99977580Y-120930247D02*
X100025199Y-121120723D01*
X100025199Y-121120723D02*
X100072818Y-121215961D01*
X100072818Y-121215961D02*
X100168056Y-121311200D01*
X100168056Y-121311200D02*
X100310913Y-121358819D01*
X100310913Y-121358819D02*
X100549008Y-121358819D01*
X99549008Y-121358819D02*
X99549008Y-120692152D01*
X99549008Y-120358819D02*
X99596627Y-120406438D01*
X99596627Y-120406438D02*
X99549008Y-120454057D01*
X99549008Y-120454057D02*
X99501389Y-120406438D01*
X99501389Y-120406438D02*
X99549008Y-120358819D01*
X99549008Y-120358819D02*
X99549008Y-120454057D01*
X99120437Y-121311200D02*
X99025199Y-121358819D01*
X99025199Y-121358819D02*
X98834723Y-121358819D01*
X98834723Y-121358819D02*
X98739485Y-121311200D01*
X98739485Y-121311200D02*
X98691866Y-121215961D01*
X98691866Y-121215961D02*
X98691866Y-121168342D01*
X98691866Y-121168342D02*
X98739485Y-121073104D01*
X98739485Y-121073104D02*
X98834723Y-121025485D01*
X98834723Y-121025485D02*
X98977580Y-121025485D01*
X98977580Y-121025485D02*
X99072818Y-120977866D01*
X99072818Y-120977866D02*
X99120437Y-120882628D01*
X99120437Y-120882628D02*
X99120437Y-120835009D01*
X99120437Y-120835009D02*
X99072818Y-120739771D01*
X99072818Y-120739771D02*
X98977580Y-120692152D01*
X98977580Y-120692152D02*
X98834723Y-120692152D01*
X98834723Y-120692152D02*
X98739485Y-120739771D01*
X97691866Y-121263580D02*
X97739485Y-121311200D01*
X97739485Y-121311200D02*
X97882342Y-121358819D01*
X97882342Y-121358819D02*
X97977580Y-121358819D01*
X97977580Y-121358819D02*
X98120437Y-121311200D01*
X98120437Y-121311200D02*
X98215675Y-121215961D01*
X98215675Y-121215961D02*
X98263294Y-121120723D01*
X98263294Y-121120723D02*
X98310913Y-120930247D01*
X98310913Y-120930247D02*
X98310913Y-120787390D01*
X98310913Y-120787390D02*
X98263294Y-120596914D01*
X98263294Y-120596914D02*
X98215675Y-120501676D01*
X98215675Y-120501676D02*
X98120437Y-120406438D01*
X98120437Y-120406438D02*
X97977580Y-120358819D01*
X97977580Y-120358819D02*
X97882342Y-120358819D01*
X97882342Y-120358819D02*
X97739485Y-120406438D01*
X97739485Y-120406438D02*
X97691866Y-120454057D01*
X97263294Y-121358819D02*
X97263294Y-120358819D01*
X96834723Y-121358819D02*
X96834723Y-120835009D01*
X96834723Y-120835009D02*
X96882342Y-120739771D01*
X96882342Y-120739771D02*
X96977580Y-120692152D01*
X96977580Y-120692152D02*
X97120437Y-120692152D01*
X97120437Y-120692152D02*
X97215675Y-120739771D01*
X97215675Y-120739771D02*
X97263294Y-120787390D01*
X95929961Y-121358819D02*
X95929961Y-120835009D01*
X95929961Y-120835009D02*
X95977580Y-120739771D01*
X95977580Y-120739771D02*
X96072818Y-120692152D01*
X96072818Y-120692152D02*
X96263294Y-120692152D01*
X96263294Y-120692152D02*
X96358532Y-120739771D01*
X95929961Y-121311200D02*
X96025199Y-121358819D01*
X96025199Y-121358819D02*
X96263294Y-121358819D01*
X96263294Y-121358819D02*
X96358532Y-121311200D01*
X96358532Y-121311200D02*
X96406151Y-121215961D01*
X96406151Y-121215961D02*
X96406151Y-121120723D01*
X96406151Y-121120723D02*
X96358532Y-121025485D01*
X96358532Y-121025485D02*
X96263294Y-120977866D01*
X96263294Y-120977866D02*
X96025199Y-120977866D01*
X96025199Y-120977866D02*
X95929961Y-120930247D01*
X95453770Y-121358819D02*
X95453770Y-120692152D01*
X95453770Y-120882628D02*
X95406151Y-120787390D01*
X95406151Y-120787390D02*
X95358532Y-120739771D01*
X95358532Y-120739771D02*
X95263294Y-120692152D01*
X95263294Y-120692152D02*
X95168056Y-120692152D01*
X94406151Y-120692152D02*
X94406151Y-121501676D01*
X94406151Y-121501676D02*
X94453770Y-121596914D01*
X94453770Y-121596914D02*
X94501389Y-121644533D01*
X94501389Y-121644533D02*
X94596627Y-121692152D01*
X94596627Y-121692152D02*
X94739484Y-121692152D01*
X94739484Y-121692152D02*
X94834722Y-121644533D01*
X94406151Y-121311200D02*
X94501389Y-121358819D01*
X94501389Y-121358819D02*
X94691865Y-121358819D01*
X94691865Y-121358819D02*
X94787103Y-121311200D01*
X94787103Y-121311200D02*
X94834722Y-121263580D01*
X94834722Y-121263580D02*
X94882341Y-121168342D01*
X94882341Y-121168342D02*
X94882341Y-120882628D01*
X94882341Y-120882628D02*
X94834722Y-120787390D01*
X94834722Y-120787390D02*
X94787103Y-120739771D01*
X94787103Y-120739771D02*
X94691865Y-120692152D01*
X94691865Y-120692152D02*
X94501389Y-120692152D01*
X94501389Y-120692152D02*
X94406151Y-120739771D01*
X93549008Y-121311200D02*
X93644246Y-121358819D01*
X93644246Y-121358819D02*
X93834722Y-121358819D01*
X93834722Y-121358819D02*
X93929960Y-121311200D01*
X93929960Y-121311200D02*
X93977579Y-121215961D01*
X93977579Y-121215961D02*
X93977579Y-120835009D01*
X93977579Y-120835009D02*
X93929960Y-120739771D01*
X93929960Y-120739771D02*
X93834722Y-120692152D01*
X93834722Y-120692152D02*
X93644246Y-120692152D01*
X93644246Y-120692152D02*
X93549008Y-120739771D01*
X93549008Y-120739771D02*
X93501389Y-120835009D01*
X93501389Y-120835009D02*
X93501389Y-120930247D01*
X93501389Y-120930247D02*
X93977579Y-121025485D01*
X142186819Y-128492475D02*
X141710628Y-128159142D01*
X142186819Y-127921047D02*
X141186819Y-127921047D01*
X141186819Y-127921047D02*
X141186819Y-128301999D01*
X141186819Y-128301999D02*
X141234438Y-128397237D01*
X141234438Y-128397237D02*
X141282057Y-128444856D01*
X141282057Y-128444856D02*
X141377295Y-128492475D01*
X141377295Y-128492475D02*
X141520152Y-128492475D01*
X141520152Y-128492475D02*
X141615390Y-128444856D01*
X141615390Y-128444856D02*
X141663009Y-128397237D01*
X141663009Y-128397237D02*
X141710628Y-128301999D01*
X141710628Y-128301999D02*
X141710628Y-127921047D01*
X142186819Y-128921047D02*
X141520152Y-128921047D01*
X141710628Y-128921047D02*
X141615390Y-128968666D01*
X141615390Y-128968666D02*
X141567771Y-129016285D01*
X141567771Y-129016285D02*
X141520152Y-129111523D01*
X141520152Y-129111523D02*
X141520152Y-129206761D01*
X141282057Y-130254381D02*
X141234438Y-130302000D01*
X141234438Y-130302000D02*
X141186819Y-130397238D01*
X141186819Y-130397238D02*
X141186819Y-130635333D01*
X141186819Y-130635333D02*
X141234438Y-130730571D01*
X141234438Y-130730571D02*
X141282057Y-130778190D01*
X141282057Y-130778190D02*
X141377295Y-130825809D01*
X141377295Y-130825809D02*
X141472533Y-130825809D01*
X141472533Y-130825809D02*
X141615390Y-130778190D01*
X141615390Y-130778190D02*
X142186819Y-130206762D01*
X142186819Y-130206762D02*
X142186819Y-130825809D01*
X141282057Y-131206762D02*
X141234438Y-131254381D01*
X141234438Y-131254381D02*
X141186819Y-131349619D01*
X141186819Y-131349619D02*
X141186819Y-131587714D01*
X141186819Y-131587714D02*
X141234438Y-131682952D01*
X141234438Y-131682952D02*
X141282057Y-131730571D01*
X141282057Y-131730571D02*
X141377295Y-131778190D01*
X141377295Y-131778190D02*
X141472533Y-131778190D01*
X141472533Y-131778190D02*
X141615390Y-131730571D01*
X141615390Y-131730571D02*
X142186819Y-131159143D01*
X142186819Y-131159143D02*
X142186819Y-131778190D01*
X141186819Y-132397238D02*
X141186819Y-132492476D01*
X141186819Y-132492476D02*
X141234438Y-132587714D01*
X141234438Y-132587714D02*
X141282057Y-132635333D01*
X141282057Y-132635333D02*
X141377295Y-132682952D01*
X141377295Y-132682952D02*
X141567771Y-132730571D01*
X141567771Y-132730571D02*
X141805866Y-132730571D01*
X141805866Y-132730571D02*
X141996342Y-132682952D01*
X141996342Y-132682952D02*
X142091580Y-132635333D01*
X142091580Y-132635333D02*
X142139200Y-132587714D01*
X142139200Y-132587714D02*
X142186819Y-132492476D01*
X142186819Y-132492476D02*
X142186819Y-132397238D01*
X142186819Y-132397238D02*
X142139200Y-132302000D01*
X142139200Y-132302000D02*
X142091580Y-132254381D01*
X142091580Y-132254381D02*
X141996342Y-132206762D01*
X141996342Y-132206762D02*
X141805866Y-132159143D01*
X141805866Y-132159143D02*
X141567771Y-132159143D01*
X141567771Y-132159143D02*
X141377295Y-132206762D01*
X141377295Y-132206762D02*
X141282057Y-132254381D01*
X141282057Y-132254381D02*
X141234438Y-132302000D01*
X141234438Y-132302000D02*
X141186819Y-132397238D01*
X141806685Y-62974104D02*
X141330495Y-62974104D01*
X141901923Y-63259819D02*
X141568590Y-62259819D01*
X141568590Y-62259819D02*
X141235257Y-63259819D01*
X140378114Y-63259819D02*
X140949542Y-63259819D01*
X140663828Y-63259819D02*
X140663828Y-62259819D01*
X140663828Y-62259819D02*
X140759066Y-62402676D01*
X140759066Y-62402676D02*
X140854304Y-62497914D01*
X140854304Y-62497914D02*
X140949542Y-62545533D01*
D13*
%TO.C,BT1*%
X92199200Y-135492000D02*
X92199200Y-155592000D01*
X92199200Y-155592000D02*
X170199200Y-155592000D01*
X170199200Y-135492000D02*
X92199200Y-135492000D01*
X170199200Y-155592000D02*
X170199200Y-135492000D01*
%TO.C,Rg 220*%
X137314000Y-133445000D02*
X137314000Y-126905000D01*
X137644000Y-133445000D02*
X137314000Y-133445000D01*
X139724000Y-133445000D02*
X140054000Y-133445000D01*
X140054000Y-133445000D02*
X140054000Y-126905000D01*
X137314000Y-126905000D02*
X137644000Y-126905000D01*
X140054000Y-126905000D02*
X139724000Y-126905000D01*
%TO.C,SW1*%
X114944100Y-89261300D02*
X114944100Y-90761300D01*
X113694100Y-93261300D02*
X109194100Y-93261300D01*
X109194100Y-86761300D02*
X113694100Y-86761300D01*
X107944100Y-90761300D02*
X107944100Y-89261300D01*
%TO.C,G3*%
G36*
X154184689Y-122283391D02*
G01*
X154340332Y-122283953D01*
X154466342Y-122285179D01*
X154565254Y-122287152D01*
X154639603Y-122289955D01*
X154691923Y-122293669D01*
X154724749Y-122298379D01*
X154740615Y-122304166D01*
X154748441Y-122316273D01*
X154760430Y-122350349D01*
X154775487Y-122407477D01*
X154794052Y-122489629D01*
X154816569Y-122598778D01*
X154843476Y-122736895D01*
X154875217Y-122905953D01*
X154893310Y-123003075D01*
X154920891Y-123148090D01*
X154943973Y-123264579D01*
X154963185Y-123355310D01*
X154979156Y-123423048D01*
X154992516Y-123470561D01*
X155003893Y-123500615D01*
X155013916Y-123515976D01*
X155027604Y-123524389D01*
X155069792Y-123544829D01*
X155134649Y-123573782D01*
X155217328Y-123609286D01*
X155312980Y-123649379D01*
X155416754Y-123692101D01*
X155523804Y-123735490D01*
X155629279Y-123777585D01*
X155728331Y-123816424D01*
X155816111Y-123850046D01*
X155887770Y-123876491D01*
X155938459Y-123893795D01*
X155963330Y-123900000D01*
X155977397Y-123893842D01*
X156016816Y-123870754D01*
X156077541Y-123832584D01*
X156156236Y-123781504D01*
X156249564Y-123719685D01*
X156354188Y-123649296D01*
X156466771Y-123572509D01*
X156558240Y-123509956D01*
X156665185Y-123437470D01*
X156761668Y-123372786D01*
X156844300Y-123318140D01*
X156909696Y-123275769D01*
X156954467Y-123247908D01*
X156975225Y-123236795D01*
X156982045Y-123237273D01*
X157002614Y-123248084D01*
X157035451Y-123273072D01*
X157082358Y-123313885D01*
X157145133Y-123372170D01*
X157225577Y-123449575D01*
X157325489Y-123547748D01*
X157446669Y-123668335D01*
X157470023Y-123691703D01*
X157594817Y-123817669D01*
X157698274Y-123924120D01*
X157779791Y-124010407D01*
X157838764Y-124075881D01*
X157874590Y-124119893D01*
X157886666Y-124141793D01*
X157880975Y-124156364D01*
X157858381Y-124196727D01*
X157820623Y-124258346D01*
X157769887Y-124337809D01*
X157708359Y-124431705D01*
X157638223Y-124536621D01*
X157561666Y-124649146D01*
X157500165Y-124739144D01*
X157428699Y-124844716D01*
X157365357Y-124939386D01*
X157312312Y-125019854D01*
X157271734Y-125082820D01*
X157245795Y-125124986D01*
X157236666Y-125143049D01*
X157238001Y-125148542D01*
X157251484Y-125179997D01*
X157277172Y-125232464D01*
X157312201Y-125300205D01*
X157353705Y-125377481D01*
X157370696Y-125408999D01*
X157409585Y-125484708D01*
X157440321Y-125549685D01*
X157460122Y-125597855D01*
X157466205Y-125623139D01*
X157462628Y-125629011D01*
X157446799Y-125641068D01*
X157416687Y-125658226D01*
X157370444Y-125681304D01*
X157306223Y-125711120D01*
X157222174Y-125748492D01*
X157116450Y-125794236D01*
X156987203Y-125849173D01*
X156832584Y-125914118D01*
X156650746Y-125989890D01*
X156439840Y-126077306D01*
X156362322Y-126109336D01*
X156190517Y-126180062D01*
X156028450Y-126246423D01*
X155878749Y-126307362D01*
X155744045Y-126361823D01*
X155626965Y-126408750D01*
X155530141Y-126447088D01*
X155456200Y-126475779D01*
X155407773Y-126493768D01*
X155387488Y-126500000D01*
X155386053Y-126499919D01*
X155358987Y-126483316D01*
X155319374Y-126439485D01*
X155269414Y-126370833D01*
X155168087Y-126230248D01*
X155065439Y-126109184D01*
X154960527Y-126009357D01*
X154847507Y-125925237D01*
X154720539Y-125851294D01*
X154654905Y-125818721D01*
X154528249Y-125767027D01*
X154402801Y-125733327D01*
X154267595Y-125715072D01*
X154111666Y-125709713D01*
X154103198Y-125709734D01*
X153970713Y-125713517D01*
X153859493Y-125725395D01*
X153758566Y-125747760D01*
X153656960Y-125783003D01*
X153543704Y-125833516D01*
X153440692Y-125888388D01*
X153270587Y-126007185D01*
X153123763Y-126149193D01*
X153001508Y-126312838D01*
X152905113Y-126496541D01*
X152835868Y-126698728D01*
X152817219Y-126792780D01*
X152804268Y-126930211D01*
X152803271Y-127076169D01*
X152814205Y-127218028D01*
X152837048Y-127343167D01*
X152874423Y-127465681D01*
X152958146Y-127653930D01*
X153067191Y-127823137D01*
X153199125Y-127971418D01*
X153351513Y-128096890D01*
X153521920Y-128197672D01*
X153707914Y-128271879D01*
X153907059Y-128317631D01*
X154116922Y-128333043D01*
X154242485Y-128327903D01*
X154435913Y-128297393D01*
X154619263Y-128237884D01*
X154799156Y-128147576D01*
X154861222Y-128105189D01*
X154945867Y-128034963D01*
X155035481Y-127950064D01*
X155122911Y-127857714D01*
X155201005Y-127765137D01*
X155262609Y-127679556D01*
X155280862Y-127651800D01*
X155319274Y-127598139D01*
X155351588Y-127559057D01*
X155372253Y-127541541D01*
X155382017Y-127543330D01*
X155420227Y-127555971D01*
X155483959Y-127579420D01*
X155570098Y-127612400D01*
X155675528Y-127653635D01*
X155797133Y-127701848D01*
X155931799Y-127755761D01*
X156076408Y-127814098D01*
X156227847Y-127875583D01*
X156382999Y-127938937D01*
X156538748Y-128002886D01*
X156691980Y-128066150D01*
X156839579Y-128127455D01*
X156978429Y-128185522D01*
X157105414Y-128239075D01*
X157217420Y-128286837D01*
X157311330Y-128327532D01*
X157384029Y-128359882D01*
X157432402Y-128382610D01*
X157453333Y-128394441D01*
X157454126Y-128395225D01*
X157461577Y-128407545D01*
X157461757Y-128426244D01*
X157452952Y-128455913D01*
X157433449Y-128501142D01*
X157401536Y-128566521D01*
X157355499Y-128656641D01*
X157352340Y-128662767D01*
X157306980Y-128751749D01*
X157275553Y-128816590D01*
X157256239Y-128862174D01*
X157247215Y-128893388D01*
X157246660Y-128915118D01*
X157252753Y-128932249D01*
X157258664Y-128942034D01*
X157282491Y-128978692D01*
X157321418Y-129037162D01*
X157373026Y-129113857D01*
X157434897Y-129205187D01*
X157504612Y-129307564D01*
X157579753Y-129417401D01*
X157613384Y-129466653D01*
X157688501Y-129578253D01*
X157754474Y-129678519D01*
X157809289Y-129764269D01*
X157850935Y-129832322D01*
X157877398Y-129879495D01*
X157886666Y-129902606D01*
X157884706Y-129909078D01*
X157864149Y-129939665D01*
X157823839Y-129988422D01*
X157767046Y-130052077D01*
X157697041Y-130127360D01*
X157617092Y-130210999D01*
X157530471Y-130299723D01*
X157440446Y-130390259D01*
X157350288Y-130479338D01*
X157263267Y-130563687D01*
X157182652Y-130640036D01*
X157111714Y-130705113D01*
X157053722Y-130755647D01*
X157011946Y-130788366D01*
X156989657Y-130800000D01*
X156986207Y-130799468D01*
X156955458Y-130785599D01*
X156900381Y-130753975D01*
X156823181Y-130705993D01*
X156726063Y-130643050D01*
X156611234Y-130566541D01*
X156480897Y-130477864D01*
X156396474Y-130420060D01*
X156290050Y-130347656D01*
X156193995Y-130282823D01*
X156111718Y-130227839D01*
X156046629Y-130184978D01*
X156002141Y-130156517D01*
X155981663Y-130144733D01*
X155981423Y-130144656D01*
X155958731Y-130148488D01*
X155910105Y-130163240D01*
X155840241Y-130187088D01*
X155753834Y-130218203D01*
X155655579Y-130254761D01*
X155550172Y-130294936D01*
X155442308Y-130336900D01*
X155336682Y-130378828D01*
X155237990Y-130418894D01*
X155150927Y-130455272D01*
X155080188Y-130486136D01*
X155030468Y-130509659D01*
X155006463Y-130524015D01*
X154999845Y-130540021D01*
X154987357Y-130585975D01*
X154970516Y-130657698D01*
X154950143Y-130751397D01*
X154927058Y-130863281D01*
X154902083Y-130989559D01*
X154876039Y-131126439D01*
X154853124Y-131247610D01*
X154828475Y-131374387D01*
X154805736Y-131487699D01*
X154785713Y-131583681D01*
X154769216Y-131658465D01*
X154757054Y-131708185D01*
X154750035Y-131728974D01*
X154741096Y-131733727D01*
X154716194Y-131738547D01*
X154673458Y-131742396D01*
X154610306Y-131745356D01*
X154524154Y-131747513D01*
X154412421Y-131748950D01*
X154272524Y-131749751D01*
X154101878Y-131750000D01*
X153966733Y-131749941D01*
X153829445Y-131749632D01*
X153719708Y-131748926D01*
X153634340Y-131747681D01*
X153570163Y-131745752D01*
X153523997Y-131742997D01*
X153492662Y-131739270D01*
X153472978Y-131734430D01*
X153461766Y-131728332D01*
X153455846Y-131720833D01*
X153447199Y-131694149D01*
X153434663Y-131641913D01*
X153420010Y-131571886D01*
X153404931Y-131491666D01*
X153400941Y-131469272D01*
X153362880Y-131258418D01*
X153327917Y-131069876D01*
X153296363Y-130905160D01*
X153268526Y-130765786D01*
X153244717Y-130653267D01*
X153225244Y-130569118D01*
X153210419Y-130514855D01*
X153200550Y-130491991D01*
X153199152Y-130490919D01*
X153173849Y-130477376D01*
X153122620Y-130453070D01*
X153049585Y-130419852D01*
X152958863Y-130379576D01*
X152854574Y-130334093D01*
X152740837Y-130285256D01*
X152614171Y-130231519D01*
X152511264Y-130188583D01*
X152431925Y-130156629D01*
X152372643Y-130134424D01*
X152329906Y-130120734D01*
X152300200Y-130114325D01*
X152280015Y-130113965D01*
X152265837Y-130118419D01*
X152252486Y-130126522D01*
X152212673Y-130152439D01*
X152151398Y-130193220D01*
X152072161Y-130246508D01*
X151978460Y-130309948D01*
X151873796Y-130381184D01*
X151761666Y-130457860D01*
X151681349Y-130512821D01*
X151573990Y-130586005D01*
X151476505Y-130652138D01*
X151392409Y-130708850D01*
X151325220Y-130753773D01*
X151278456Y-130784536D01*
X151255633Y-130798771D01*
X151253245Y-130800003D01*
X151242162Y-130803730D01*
X151229143Y-130802714D01*
X151211787Y-130794861D01*
X151187694Y-130778074D01*
X151154464Y-130750259D01*
X151109695Y-130709320D01*
X151050989Y-130653162D01*
X150975944Y-130579689D01*
X150882160Y-130486807D01*
X150767237Y-130372418D01*
X150686713Y-130291977D01*
X150579087Y-130183513D01*
X150492853Y-130095136D01*
X150426357Y-130025048D01*
X150377947Y-129971454D01*
X150345967Y-129932556D01*
X150328765Y-129906559D01*
X150324687Y-129891666D01*
X150324837Y-129891062D01*
X150336719Y-129868348D01*
X150365298Y-129821715D01*
X150408439Y-129754420D01*
X150464007Y-129669720D01*
X150529866Y-129570872D01*
X150603881Y-129461132D01*
X150683917Y-129343758D01*
X150691480Y-129332721D01*
X150770602Y-129216825D01*
X150843248Y-129109637D01*
X150907341Y-129014277D01*
X150960806Y-128933867D01*
X151001566Y-128871528D01*
X151027545Y-128830381D01*
X151036666Y-128813546D01*
X151036540Y-128812648D01*
X151028783Y-128789698D01*
X151010146Y-128740588D01*
X150982239Y-128669393D01*
X150946673Y-128580188D01*
X150905060Y-128477050D01*
X150859009Y-128364053D01*
X150837016Y-128310523D01*
X150784061Y-128183647D01*
X150741177Y-128084550D01*
X150707173Y-128010716D01*
X150680856Y-127959627D01*
X150661032Y-127928765D01*
X150646509Y-127915613D01*
X150623229Y-127909498D01*
X150570847Y-127898162D01*
X150493424Y-127882434D01*
X150394877Y-127863083D01*
X150279124Y-127840879D01*
X150150081Y-127816590D01*
X150011666Y-127790985D01*
X149843060Y-127759675D01*
X149701974Y-127732563D01*
X149589841Y-127709836D01*
X149504660Y-127691052D01*
X149444431Y-127675772D01*
X149407156Y-127663552D01*
X149390833Y-127653951D01*
X149388041Y-127648621D01*
X149382758Y-127625294D01*
X149378514Y-127583846D01*
X149375228Y-127521740D01*
X149372817Y-127436444D01*
X149371196Y-127325422D01*
X149370285Y-127186140D01*
X149370000Y-127016064D01*
X149370030Y-126919992D01*
X149370291Y-126778061D01*
X149370944Y-126664284D01*
X149372141Y-126575378D01*
X149374032Y-126508060D01*
X149376767Y-126459046D01*
X149380497Y-126425055D01*
X149385374Y-126402802D01*
X149391546Y-126389004D01*
X149399166Y-126380379D01*
X149408238Y-126375890D01*
X149449016Y-126363629D01*
X149518764Y-126346722D01*
X149614943Y-126325712D01*
X149735012Y-126301146D01*
X149876433Y-126273569D01*
X150036666Y-126243525D01*
X150037791Y-126243318D01*
X150210917Y-126211018D01*
X150353155Y-126183555D01*
X150466517Y-126160484D01*
X150553015Y-126141360D01*
X150614662Y-126125740D01*
X150653469Y-126113177D01*
X150671448Y-126103228D01*
X150677454Y-126094510D01*
X150696753Y-126057204D01*
X150724446Y-125997114D01*
X150758573Y-125919095D01*
X150797174Y-125828001D01*
X150838287Y-125728688D01*
X150879951Y-125626010D01*
X150920207Y-125524823D01*
X150957093Y-125429980D01*
X150988648Y-125346338D01*
X151012913Y-125278751D01*
X151027925Y-125232074D01*
X151031724Y-125211161D01*
X151031562Y-125210782D01*
X151019364Y-125190848D01*
X150990518Y-125146861D01*
X150947170Y-125081999D01*
X150891465Y-124999444D01*
X150825549Y-124902376D01*
X150751567Y-124793975D01*
X150671664Y-124677423D01*
X150666474Y-124669864D01*
X150587126Y-124553555D01*
X150514236Y-124445312D01*
X150449899Y-124348353D01*
X150396212Y-124265895D01*
X150355269Y-124201153D01*
X150329166Y-124157344D01*
X150320000Y-124137685D01*
X150323431Y-124130396D01*
X150346564Y-124100841D01*
X150388771Y-124053145D01*
X150446840Y-123990533D01*
X150517560Y-123916231D01*
X150597721Y-123833462D01*
X150684111Y-123745451D01*
X150773520Y-123655424D01*
X150862736Y-123566605D01*
X150948549Y-123482219D01*
X151027748Y-123405491D01*
X151097121Y-123339645D01*
X151153458Y-123287906D01*
X151193548Y-123253500D01*
X151214179Y-123239650D01*
X151219363Y-123239285D01*
X151241040Y-123245459D01*
X151276594Y-123262938D01*
X151328215Y-123293092D01*
X151398094Y-123337290D01*
X151488421Y-123396902D01*
X151601386Y-123473296D01*
X151739179Y-123567843D01*
X151840581Y-123637493D01*
X151949234Y-123711498D01*
X152047644Y-123777872D01*
X152132388Y-123834334D01*
X152200039Y-123878605D01*
X152247174Y-123908405D01*
X152270367Y-123921454D01*
X152281514Y-123924240D01*
X152302496Y-123923843D01*
X152333018Y-123917349D01*
X152376565Y-123903513D01*
X152436622Y-123881092D01*
X152516672Y-123848839D01*
X152620202Y-123805510D01*
X152750694Y-123749861D01*
X152779684Y-123737402D01*
X152927912Y-123672542D01*
X153045195Y-123619011D01*
X153131448Y-123576851D01*
X153186584Y-123546102D01*
X153210517Y-123526808D01*
X153216757Y-123508823D01*
X153228906Y-123460390D01*
X153245330Y-123386491D01*
X153265196Y-123291149D01*
X153287671Y-123178384D01*
X153311918Y-123052216D01*
X153337105Y-122916666D01*
X153347216Y-122861688D01*
X153375564Y-122711628D01*
X153401299Y-122581531D01*
X153423866Y-122473983D01*
X153442709Y-122391571D01*
X153457272Y-122336881D01*
X153466999Y-122312500D01*
X153471543Y-122307917D01*
X153482765Y-122301150D01*
X153501053Y-122295744D01*
X153529691Y-122291548D01*
X153571962Y-122288410D01*
X153631150Y-122286180D01*
X153710537Y-122284709D01*
X153813408Y-122283844D01*
X153943044Y-122283435D01*
X154102730Y-122283333D01*
X154184689Y-122283391D01*
G37*
%TO.C,G2*%
G36*
X166511956Y-108088199D02*
G01*
X162204354Y-108088199D01*
X162204354Y-106899895D01*
X166511956Y-106899895D01*
X166511956Y-108088199D01*
G37*
G36*
X152795908Y-79793590D02*
G01*
X153067589Y-80031466D01*
X153289263Y-80357385D01*
X153364605Y-80831628D01*
X153217817Y-81266622D01*
X152899684Y-81589537D01*
X152474117Y-81759193D01*
X152005027Y-81734409D01*
X151556325Y-81474003D01*
X151347814Y-81210570D01*
X151222646Y-80764753D01*
X151301228Y-80325332D01*
X151540703Y-79950408D01*
X151898212Y-79698077D01*
X152330900Y-79626438D01*
X152795908Y-79793590D01*
G37*
G36*
X166257874Y-88641430D02*
G01*
X166617181Y-89078261D01*
X166653980Y-89158697D01*
X166726502Y-89639412D01*
X166573280Y-90055580D01*
X166255405Y-90365349D01*
X165833964Y-90526868D01*
X165370048Y-90498284D01*
X164924746Y-90237746D01*
X164856139Y-90167940D01*
X164607924Y-89709526D01*
X164611259Y-89226695D01*
X164848492Y-88800251D01*
X165301971Y-88510997D01*
X165775870Y-88452582D01*
X166257874Y-88641430D01*
G37*
G36*
X173797245Y-77225085D02*
G01*
X174235932Y-77489369D01*
X174328171Y-77600229D01*
X174506954Y-78062174D01*
X174494812Y-78573692D01*
X174287180Y-79000187D01*
X174071544Y-79152838D01*
X173613900Y-79262747D01*
X173120377Y-79221205D01*
X172725114Y-79025996D01*
X172542302Y-78744022D01*
X172453476Y-78283306D01*
X172453530Y-78271824D01*
X172578762Y-77760944D01*
X172894139Y-77394066D01*
X173325140Y-77204382D01*
X173797245Y-77225085D01*
G37*
G36*
X170061788Y-65693471D02*
G01*
X170324847Y-65918288D01*
X170356178Y-65947885D01*
X170652668Y-66268661D01*
X171036004Y-66729198D01*
X171431472Y-67240246D01*
X172149334Y-68205743D01*
X170309502Y-70048380D01*
X168469671Y-71891016D01*
X168019010Y-71605678D01*
X167568350Y-71320340D01*
X168645058Y-68723275D01*
X168988395Y-67893931D01*
X169299637Y-67139826D01*
X169556779Y-66514447D01*
X169739861Y-66066331D01*
X169828925Y-65844019D01*
X169840366Y-65814252D01*
X169928208Y-65662973D01*
X170061788Y-65693471D01*
G37*
G36*
X169820799Y-77153081D02*
G01*
X170247523Y-77314052D01*
X170722409Y-77513163D01*
X171165873Y-77716671D01*
X171498332Y-77890830D01*
X171640200Y-78001897D01*
X171692303Y-78204982D01*
X171773709Y-78559219D01*
X171778292Y-78578814D01*
X171947145Y-78976998D01*
X172216945Y-79373942D01*
X172572445Y-79787235D01*
X172276491Y-80367353D01*
X171980536Y-80947471D01*
X168911756Y-77889135D01*
X169152280Y-77503579D01*
X169332887Y-77215577D01*
X169429407Y-77064486D01*
X169521819Y-77063996D01*
X169820799Y-77153081D01*
G37*
G36*
X166280324Y-63388343D02*
G01*
X166582877Y-63502105D01*
X167051864Y-63716210D01*
X167620132Y-63997804D01*
X168220527Y-64314032D01*
X168785893Y-64632039D01*
X169454875Y-65024088D01*
X168341935Y-67728951D01*
X168309495Y-67807798D01*
X167960616Y-68656371D01*
X167646150Y-69422308D01*
X167385777Y-70057596D01*
X167199176Y-70514221D01*
X167106029Y-70744169D01*
X167065920Y-70831096D01*
X166878422Y-70990300D01*
X166524702Y-70987251D01*
X166066342Y-70919978D01*
X166066342Y-67149118D01*
X166066520Y-66892665D01*
X166074276Y-65615547D01*
X166093637Y-64630021D01*
X166124789Y-63931614D01*
X166167919Y-63515851D01*
X166223211Y-63378258D01*
X166280324Y-63388343D01*
G37*
G36*
X152727098Y-70211046D02*
G01*
X152913797Y-70270387D01*
X153357981Y-70438083D01*
X154043634Y-70707677D01*
X154954737Y-71072713D01*
X156075272Y-71526733D01*
X157389223Y-72063281D01*
X158880572Y-72675901D01*
X160533301Y-73358137D01*
X160664834Y-73413286D01*
X161145510Y-73628988D01*
X161482001Y-73802757D01*
X161608173Y-73901183D01*
X161588083Y-74031204D01*
X161516580Y-74332936D01*
X161427015Y-74667147D01*
X151468715Y-74667147D01*
X151568429Y-73818734D01*
X151641281Y-73331231D01*
X151788275Y-72624457D01*
X151974091Y-71913456D01*
X152179741Y-71257420D01*
X152386238Y-70715539D01*
X152574591Y-70347005D01*
X152725812Y-70211006D01*
X152727098Y-70211046D01*
G37*
G36*
X159075181Y-68947167D02*
G01*
X159461721Y-69333460D01*
X160238997Y-70117059D01*
X160931753Y-70824558D01*
X161514589Y-71429456D01*
X161962106Y-71905253D01*
X162248906Y-72225448D01*
X162349589Y-72363541D01*
X162278996Y-72553677D01*
X162088451Y-72848295D01*
X161830616Y-73183244D01*
X157449941Y-71381949D01*
X156850956Y-71135440D01*
X155828624Y-70713672D01*
X154915815Y-70335780D01*
X154145597Y-70015529D01*
X153551040Y-69766686D01*
X153165210Y-69603017D01*
X153021179Y-69538289D01*
X153008211Y-69466582D01*
X153117843Y-69186790D01*
X153371069Y-68750792D01*
X153736975Y-68203803D01*
X154184650Y-67591036D01*
X154683182Y-66957703D01*
X155201659Y-66349018D01*
X155797470Y-65680597D01*
X159075181Y-68947167D01*
G37*
G36*
X166511956Y-122644924D02*
G01*
X165286517Y-122646207D01*
X164061079Y-122647491D01*
X165286517Y-123425198D01*
X166511956Y-124202904D01*
X166511956Y-125733634D01*
X165360786Y-126415085D01*
X164209617Y-127096536D01*
X165360786Y-127098800D01*
X166511956Y-127101065D01*
X166511956Y-128289369D01*
X162188076Y-128289369D01*
X162233349Y-127594364D01*
X162278623Y-126899359D01*
X163739496Y-125997580D01*
X164278921Y-125654816D01*
X164758951Y-125329088D01*
X165085440Y-125083227D01*
X165207578Y-124953373D01*
X165207595Y-124952655D01*
X165089551Y-124820343D01*
X164768058Y-124568273D01*
X164291827Y-124232371D01*
X163709570Y-123848560D01*
X162204354Y-122886176D01*
X162204354Y-121456620D01*
X166511956Y-121456620D01*
X166511956Y-122644924D01*
G37*
G36*
X163473198Y-62882624D02*
G01*
X164094549Y-62904407D01*
X164598779Y-62938021D01*
X164915172Y-62983025D01*
X165323652Y-63086842D01*
X165323652Y-70919978D01*
X164840903Y-70993501D01*
X164803788Y-70999087D01*
X164481374Y-71041025D01*
X164337865Y-71047494D01*
X164335664Y-71045111D01*
X164243847Y-70867349D01*
X164064101Y-70462207D01*
X163813225Y-69871505D01*
X163508020Y-69137063D01*
X163165289Y-68300702D01*
X162801830Y-67404243D01*
X162434445Y-66489506D01*
X162079934Y-65598312D01*
X161755098Y-64772481D01*
X161476739Y-64053833D01*
X161261656Y-63484190D01*
X161126650Y-63105371D01*
X161088522Y-62959197D01*
X161230827Y-62922606D01*
X161613538Y-62892663D01*
X162161979Y-62876312D01*
X162805436Y-62873112D01*
X163473198Y-62882624D01*
G37*
G36*
X165883404Y-100173680D02*
G01*
X166287929Y-100184083D01*
X166450542Y-100203306D01*
X166461017Y-100222126D01*
X166497299Y-100449709D01*
X166511956Y-100829019D01*
X166511956Y-101392841D01*
X165141593Y-101435549D01*
X163771231Y-101478258D01*
X166517375Y-103854866D01*
X166477531Y-104820363D01*
X166442976Y-105294550D01*
X166388360Y-105633140D01*
X166326283Y-105748726D01*
X166307162Y-105745260D01*
X166061689Y-105732061D01*
X165591470Y-105721370D01*
X164954711Y-105714206D01*
X164209617Y-105711591D01*
X162204354Y-105711591D01*
X162204354Y-104534045D01*
X163623394Y-104491531D01*
X165042435Y-104449018D01*
X162213747Y-102072410D01*
X162209050Y-101151877D01*
X162204354Y-100231344D01*
X164296741Y-100186380D01*
X164568798Y-100181067D01*
X165292012Y-100172531D01*
X165883404Y-100173680D01*
G37*
G36*
X164871498Y-79239181D02*
G01*
X165323652Y-79305543D01*
X165323652Y-83447748D01*
X165319988Y-84484137D01*
X165307412Y-85524501D01*
X165286810Y-86384413D01*
X165259150Y-87034725D01*
X165225395Y-87446288D01*
X165186510Y-87589954D01*
X165150827Y-87597370D01*
X164916118Y-87728693D01*
X164595115Y-87972183D01*
X164473846Y-88074709D01*
X164300191Y-88201930D01*
X164122391Y-88262362D01*
X163885151Y-88249868D01*
X163533172Y-88158311D01*
X163011158Y-87981555D01*
X162263811Y-87713463D01*
X161060694Y-87280937D01*
X162663184Y-83351200D01*
X162742777Y-83156094D01*
X163152467Y-82154373D01*
X163524782Y-81248150D01*
X163844834Y-80473369D01*
X164097733Y-79865976D01*
X164268587Y-79461919D01*
X164342508Y-79297141D01*
X164343241Y-79295989D01*
X164531217Y-79228656D01*
X164871498Y-79239181D01*
G37*
G36*
X170030456Y-79893739D02*
G01*
X170259600Y-80123945D01*
X170773139Y-80654572D01*
X171186480Y-81102457D01*
X171462043Y-81426130D01*
X171562248Y-81584121D01*
X171499671Y-81753767D01*
X171307720Y-82123176D01*
X171022104Y-82624964D01*
X170679236Y-83198349D01*
X170315532Y-83782553D01*
X169967407Y-84316796D01*
X169671277Y-84740298D01*
X169542690Y-84912207D01*
X169107367Y-85478262D01*
X168632852Y-86076576D01*
X168156088Y-86662698D01*
X167714016Y-87192179D01*
X167343576Y-87620567D01*
X167081710Y-87903412D01*
X166965360Y-87996264D01*
X166788610Y-87905300D01*
X166474821Y-87747017D01*
X166066342Y-87542268D01*
X166066342Y-79271825D01*
X166422603Y-79271825D01*
X166684085Y-79220623D01*
X167134239Y-79056830D01*
X167638764Y-78819492D01*
X168498663Y-78367159D01*
X170030456Y-79893739D01*
G37*
G36*
X172528368Y-68893688D02*
G01*
X172686836Y-69125465D01*
X172881439Y-69577628D01*
X173096352Y-70198350D01*
X173315751Y-70935806D01*
X173523813Y-71738167D01*
X173704713Y-72553609D01*
X173842628Y-73330304D01*
X173876774Y-73606378D01*
X173914112Y-74601986D01*
X173844139Y-75656841D01*
X173795870Y-76009746D01*
X173709712Y-76300540D01*
X173547818Y-76441557D01*
X173251863Y-76517556D01*
X172785660Y-76682614D01*
X172352487Y-76954791D01*
X171953251Y-77298200D01*
X170890769Y-76865466D01*
X169828288Y-76432733D01*
X169841175Y-75285288D01*
X169835949Y-74727354D01*
X169780556Y-74217246D01*
X169644660Y-73759356D01*
X169399807Y-73220584D01*
X168945552Y-72303324D01*
X170664611Y-70588744D01*
X171067965Y-70189149D01*
X171604867Y-69666447D01*
X172044296Y-69249669D01*
X172349080Y-68973885D01*
X172482045Y-68874164D01*
X172528368Y-68893688D01*
G37*
G36*
X156847867Y-75558428D02*
G01*
X158125091Y-75559965D01*
X159143060Y-75564766D01*
X159931533Y-75574363D01*
X160520265Y-75590285D01*
X160939016Y-75614061D01*
X161217544Y-75647223D01*
X161385605Y-75691299D01*
X161472958Y-75747820D01*
X161509361Y-75818316D01*
X161539084Y-75962260D01*
X161557387Y-76284116D01*
X161458209Y-76373198D01*
X161107882Y-76569946D01*
X160530483Y-76852991D01*
X159752787Y-77209758D01*
X158801568Y-77627671D01*
X157703600Y-78094155D01*
X153871267Y-79698335D01*
X153338135Y-79336542D01*
X153225050Y-79265229D01*
X152779765Y-79058061D01*
X152397750Y-78974749D01*
X152346780Y-78974108D01*
X152103163Y-78922388D01*
X151952791Y-78732387D01*
X151827221Y-78326318D01*
X151739099Y-77897806D01*
X151640801Y-77265590D01*
X151565451Y-76618131D01*
X151466957Y-75558375D01*
X156453419Y-75558375D01*
X156847867Y-75558428D01*
G37*
G36*
X162089647Y-77389064D02*
G01*
X162262179Y-77643904D01*
X162349589Y-77861980D01*
X162329544Y-77899167D01*
X162143443Y-78121656D01*
X161782859Y-78514546D01*
X161273257Y-79051187D01*
X160640107Y-79704932D01*
X159908874Y-80449130D01*
X159105025Y-81257133D01*
X158870170Y-81491661D01*
X157989789Y-82366746D01*
X157288881Y-83053953D01*
X156744676Y-83573240D01*
X156334404Y-83944566D01*
X156035295Y-84187892D01*
X155824580Y-84323177D01*
X155679487Y-84370379D01*
X155577248Y-84349459D01*
X155385055Y-84211184D01*
X155011933Y-83872845D01*
X154571258Y-83424729D01*
X154131173Y-82936945D01*
X153759824Y-82479602D01*
X153755289Y-82473557D01*
X153555119Y-82174457D01*
X153532734Y-81983828D01*
X153673731Y-81785576D01*
X153709748Y-81740248D01*
X153880309Y-81383680D01*
X153990631Y-80932250D01*
X154069861Y-80341547D01*
X161833009Y-77065953D01*
X162089647Y-77389064D01*
G37*
G36*
X163298778Y-78604214D02*
G01*
X163309640Y-78611370D01*
X163578458Y-78818400D01*
X163689734Y-78962469D01*
X163655676Y-79074806D01*
X163523034Y-79429476D01*
X163306777Y-79981317D01*
X163024562Y-80687371D01*
X162694047Y-81504677D01*
X162332890Y-82390277D01*
X161958747Y-83301210D01*
X161589277Y-84194517D01*
X161242137Y-85027239D01*
X160934985Y-85756416D01*
X160685478Y-86339089D01*
X160511274Y-86732298D01*
X160430029Y-86893084D01*
X160406115Y-86898706D01*
X160177483Y-86835074D01*
X159761656Y-86667950D01*
X159215800Y-86425157D01*
X158597083Y-86134516D01*
X157962669Y-85823847D01*
X157369725Y-85520972D01*
X156875417Y-85253711D01*
X156536910Y-85049886D01*
X156411371Y-84937318D01*
X156432276Y-84905333D01*
X156619934Y-84694505D01*
X156981587Y-84312337D01*
X157491808Y-83785004D01*
X158125169Y-83138680D01*
X158856241Y-82399541D01*
X159659597Y-81593759D01*
X162907823Y-78348050D01*
X163298778Y-78604214D01*
G37*
G36*
X160293911Y-63203699D02*
G01*
X160301511Y-63214982D01*
X160402733Y-63425093D01*
X160599435Y-63866791D01*
X160876321Y-64504615D01*
X161218095Y-65303106D01*
X161609461Y-66226803D01*
X162035123Y-67240246D01*
X162127590Y-67461452D01*
X162542525Y-68457488D01*
X162914626Y-69356129D01*
X163229439Y-70122078D01*
X163472512Y-70720040D01*
X163629392Y-71114720D01*
X163685624Y-71270823D01*
X163685567Y-71273842D01*
X163569724Y-71416258D01*
X163298778Y-71621307D01*
X162907823Y-71877471D01*
X159659597Y-68631762D01*
X159291553Y-68263353D01*
X158517466Y-67484017D01*
X157827092Y-66782904D01*
X157245863Y-66186219D01*
X156799211Y-65720168D01*
X156512570Y-65410957D01*
X156411371Y-65284790D01*
X156412115Y-65275624D01*
X156553568Y-65096719D01*
X156900355Y-64833766D01*
X157395533Y-64517289D01*
X157982158Y-64177810D01*
X158603283Y-63845853D01*
X159201966Y-63551940D01*
X159721261Y-63326595D01*
X160104224Y-63200340D01*
X160293911Y-63203699D01*
G37*
G36*
X164207999Y-93683217D02*
G01*
X165118065Y-93733689D01*
X165771451Y-93850416D01*
X166194246Y-94039783D01*
X166412540Y-94308173D01*
X166418246Y-94327765D01*
X166446900Y-94590159D01*
X166471782Y-95076110D01*
X166490392Y-95723910D01*
X166500229Y-96471852D01*
X166500618Y-96538264D01*
X166502282Y-97321991D01*
X166491028Y-97868856D01*
X166458384Y-98235039D01*
X166395874Y-98476724D01*
X166295025Y-98650092D01*
X166147363Y-98811325D01*
X166030351Y-98921992D01*
X165855749Y-99040592D01*
X165624996Y-99115090D01*
X165277865Y-99155680D01*
X164754129Y-99172558D01*
X163993561Y-99175919D01*
X162204354Y-99175919D01*
X162204354Y-97987614D01*
X163597277Y-97987614D01*
X163968190Y-97984575D01*
X164587152Y-97954588D01*
X164971487Y-97887993D01*
X165163166Y-97779204D01*
X165244406Y-97558344D01*
X165294598Y-97057607D01*
X165292757Y-96330958D01*
X165249383Y-95091123D01*
X163726868Y-95048792D01*
X162204354Y-95006462D01*
X162204354Y-93680012D01*
X163845648Y-93680012D01*
X164207999Y-93683217D01*
G37*
G36*
X163231623Y-129329135D02*
G01*
X164184860Y-129329135D01*
X164482615Y-129330101D01*
X165215382Y-129341277D01*
X165818576Y-129363000D01*
X166236369Y-129392788D01*
X166412931Y-129428160D01*
X166429515Y-129452787D01*
X166488226Y-129704054D01*
X166511956Y-130096581D01*
X166511284Y-130228422D01*
X166476330Y-130529776D01*
X166329860Y-130646494D01*
X165992073Y-130665977D01*
X165472190Y-130665977D01*
X165472190Y-132057056D01*
X165471450Y-132292619D01*
X165454814Y-132906223D01*
X165406591Y-133319310D01*
X165314018Y-133605775D01*
X165164333Y-133839513D01*
X165149527Y-133858216D01*
X164958203Y-134059253D01*
X164730930Y-134171492D01*
X164380759Y-134220261D01*
X163820739Y-134230889D01*
X163331905Y-134222191D01*
X162930229Y-134174696D01*
X162657164Y-134064075D01*
X162420409Y-133866296D01*
X162379337Y-133824761D01*
X162246909Y-133669355D01*
X162156628Y-133487710D01*
X162100436Y-133225660D01*
X162070275Y-132829039D01*
X162058087Y-132243681D01*
X162055816Y-131415419D01*
X162055816Y-130665977D01*
X163231623Y-130665977D01*
X163275006Y-131817147D01*
X163318389Y-132968316D01*
X164209617Y-132968316D01*
X164252999Y-131817147D01*
X164296382Y-130665977D01*
X163231623Y-130665977D01*
X162055816Y-130665977D01*
X162055816Y-129329135D01*
X163231623Y-129329135D01*
G37*
G36*
X166431901Y-114978542D02*
G01*
X166496565Y-115157817D01*
X166511956Y-115570647D01*
X166511236Y-115690504D01*
X166480048Y-116063546D01*
X166370973Y-116251641D01*
X166140611Y-116345332D01*
X165985922Y-116393223D01*
X165864288Y-116492249D01*
X165799566Y-116696118D01*
X165773858Y-117068902D01*
X165769266Y-117674673D01*
X165771474Y-118132715D01*
X165789873Y-118564880D01*
X165840646Y-118805456D01*
X165939833Y-118916052D01*
X166103476Y-118958278D01*
X166153337Y-118966593D01*
X166338728Y-119055785D01*
X166435512Y-119281545D01*
X166483481Y-119724057D01*
X166502335Y-119967383D01*
X166508158Y-120181192D01*
X166460791Y-120306667D01*
X166323269Y-120339789D01*
X166058630Y-120276538D01*
X165629911Y-120112894D01*
X165000149Y-119844835D01*
X164132380Y-119468342D01*
X162278623Y-118666700D01*
X162235623Y-117642611D01*
X162235132Y-117630910D01*
X163021313Y-117630910D01*
X163820186Y-117984116D01*
X164176177Y-118139021D01*
X164519854Y-118282112D01*
X164674280Y-118337322D01*
X164691243Y-118304377D01*
X164718674Y-118061152D01*
X164729500Y-117658891D01*
X164729506Y-117605025D01*
X164718599Y-117269783D01*
X164649812Y-117094011D01*
X164468941Y-117066123D01*
X164121783Y-117174533D01*
X163554134Y-117407653D01*
X163021313Y-117630910D01*
X162235132Y-117630910D01*
X162192624Y-116618521D01*
X164092348Y-115847394D01*
X164276953Y-115772516D01*
X164468941Y-115694925D01*
X164976866Y-115489648D01*
X165578688Y-115247974D01*
X166023408Y-115071121D01*
X166252014Y-114982715D01*
X166290223Y-114970083D01*
X166431901Y-114978542D01*
G37*
G36*
X164954336Y-109294291D02*
G01*
X165501641Y-109346823D01*
X165871516Y-109459109D01*
X166127355Y-109651644D01*
X166332549Y-109944924D01*
X166374933Y-110062442D01*
X166442446Y-110471216D01*
X166488939Y-111065091D01*
X166507439Y-111771267D01*
X166507705Y-111879394D01*
X166503050Y-112542863D01*
X166477512Y-112985719D01*
X166418268Y-113275413D01*
X166312493Y-113479398D01*
X166147363Y-113665126D01*
X165839528Y-113893492D01*
X165330404Y-114029720D01*
X165251549Y-114029157D01*
X164998801Y-113990040D01*
X164896918Y-113827041D01*
X164878038Y-113453755D01*
X164878790Y-113402529D01*
X164947747Y-112968296D01*
X165100845Y-112692878D01*
X165135136Y-112656010D01*
X165253488Y-112346691D01*
X165316090Y-111880376D01*
X165320543Y-111367425D01*
X165264448Y-110918197D01*
X165145406Y-110643053D01*
X165002550Y-110562803D01*
X164612198Y-110485288D01*
X164135004Y-110472824D01*
X163696536Y-110525413D01*
X163422365Y-110643053D01*
X163389774Y-110684393D01*
X163285195Y-111008620D01*
X163243020Y-111481941D01*
X163260849Y-111993998D01*
X163336285Y-112434430D01*
X163466927Y-112692878D01*
X163486502Y-112711068D01*
X163632342Y-113010360D01*
X163689734Y-113453755D01*
X163689332Y-113548863D01*
X163659139Y-113873550D01*
X163532995Y-114005063D01*
X163244120Y-114029720D01*
X162876129Y-113956259D01*
X162501430Y-113732644D01*
X162451488Y-113679698D01*
X162341537Y-113514263D01*
X162269716Y-113279127D01*
X162228158Y-112917466D01*
X162208993Y-112372454D01*
X162204354Y-111587265D01*
X162208135Y-110839960D01*
X162244505Y-110180585D01*
X162352436Y-109738823D01*
X162570930Y-109471342D01*
X162938987Y-109334806D01*
X163495611Y-109285879D01*
X164279802Y-109281227D01*
X164954336Y-109294291D01*
G37*
%TO.C,Q1*%
X121651200Y-124109900D02*
X121651200Y-123309900D01*
X121651200Y-124109900D02*
X121651200Y-124909900D01*
X118531200Y-124109900D02*
X118531200Y-122309900D01*
X118531200Y-124109900D02*
X118531200Y-124909900D01*
%TO.C,Q3*%
X155989200Y-74240000D02*
X152389200Y-74240000D01*
X156027678Y-74228478D02*
G75*
G03*
X154189200Y-69790000I-1838478J1838478D01*
G01*
X154189200Y-69790000D02*
G75*
G03*
X152350722Y-74228478I0J-2600000D01*
G01*
%TO.C,Rb 150*%
X143410000Y-133445000D02*
X143410000Y-126905000D01*
X143740000Y-133445000D02*
X143410000Y-133445000D01*
X145820000Y-133445000D02*
X146150000Y-133445000D01*
X146150000Y-133445000D02*
X146150000Y-126905000D01*
X143410000Y-126905000D02*
X143740000Y-126905000D01*
X146150000Y-126905000D02*
X145820000Y-126905000D01*
%TO.C,Q2*%
X112098000Y-74240000D02*
X108498000Y-74240000D01*
X112136478Y-74228478D02*
G75*
G03*
X110298000Y-69790000I-1838478J1838478D01*
G01*
X110298000Y-69790000D02*
G75*
G03*
X108459522Y-74228478I0J-2600000D01*
G01*
%TO.C,J1*%
X147456200Y-116874600D02*
X144796200Y-116874600D01*
X147456200Y-68554600D02*
X147456200Y-116874600D01*
X147456200Y-68554600D02*
X144796200Y-68554600D01*
X147456200Y-67284600D02*
X147456200Y-65954600D01*
X147456200Y-65954600D02*
X146126200Y-65954600D01*
X144796200Y-68554600D02*
X144796200Y-116874600D01*
%TO.C,R1*%
X107220000Y-65940000D02*
X113760000Y-65940000D01*
X107220000Y-66270000D02*
X107220000Y-65940000D01*
X107220000Y-68350000D02*
X107220000Y-68680000D01*
X107220000Y-68680000D02*
X113760000Y-68680000D01*
X113760000Y-65940000D02*
X113760000Y-66270000D01*
X113760000Y-68680000D02*
X113760000Y-68350000D01*
%TO.C,R2*%
X151670000Y-65940000D02*
X158210000Y-65940000D01*
X151670000Y-66270000D02*
X151670000Y-65940000D01*
X151670000Y-68350000D02*
X151670000Y-68680000D01*
X151670000Y-68680000D02*
X158210000Y-68680000D01*
X158210000Y-65940000D02*
X158210000Y-66270000D01*
X158210000Y-68680000D02*
X158210000Y-68350000D01*
D10*
%TO.C,Charge DisCharge*%
X92842400Y-119036300D02*
X92842400Y-134974800D01*
X92842400Y-134974800D02*
X117988400Y-134974800D01*
X117988400Y-119036300D02*
X92842400Y-119036300D01*
X117988400Y-134974800D02*
X117988400Y-119036300D01*
D13*
%TO.C,J3*%
X118050000Y-65954600D02*
X120710000Y-65954600D01*
X118050000Y-114274600D02*
X118050000Y-65954600D01*
X118050000Y-114274600D02*
X120710000Y-114274600D01*
X118050000Y-115544600D02*
X118050000Y-116874600D01*
X118050000Y-116874600D02*
X119380000Y-116874600D01*
X120710000Y-114274600D02*
X120710000Y-65954600D01*
%TO.C,Rr 220*%
X140362000Y-133445000D02*
X140362000Y-126905000D01*
X140692000Y-133445000D02*
X140362000Y-133445000D01*
X142772000Y-133445000D02*
X143102000Y-133445000D01*
X143102000Y-133445000D02*
X143102000Y-126905000D01*
X140362000Y-126905000D02*
X140692000Y-126905000D01*
X143102000Y-126905000D02*
X142772000Y-126905000D01*
D14*
%TO.C,A1*%
X143267400Y-116940000D02*
X143267400Y-116690000D01*
X143267400Y-66190000D02*
X143267400Y-65940000D01*
X143267400Y-65940000D02*
X136767400Y-65940000D01*
X136767400Y-65940000D02*
X136767400Y-64640000D01*
X136767400Y-64640000D02*
X128767400Y-64640000D01*
X136427400Y-116940000D02*
X143267400Y-116940000D01*
X128767400Y-65940000D02*
X122267400Y-65940000D01*
X128767400Y-64640000D02*
X128767400Y-65940000D01*
X122267400Y-116940000D02*
X129107400Y-116940000D01*
X122267400Y-116940000D02*
X122267400Y-116690000D01*
X122267400Y-65940000D02*
X122267400Y-66190000D01*
D12*
X145107400Y-67310000D02*
G75*
G03*
X145107400Y-67310000I-150000J0D01*
G01*
%TD*%
M02*
