M48
; DRILL file {KiCad 7.0.6} date Sun Sep  3 15:23:42 2023
; FORMAT={-:-/ absolute / metric / decimal}
; #@! TF.CreationDate,2023-09-03T15:23:42-03:00
; #@! TF.GenerationSoftware,Kicad,Pcbnew,7.0.6
; #@! TF.FileFunction,Plated,1,2,PTH
FMAT,2
METRIC
; #@! TA.AperFunction,Plated,PTH,ViaDrill
T1C0.400
; #@! TA.AperFunction,Plated,PTH,ComponentDrill
T2C0.750
; #@! TA.AperFunction,Plated,PTH,ComponentDrill
T3C0.762
; #@! TA.AperFunction,Plated,PTH,ComponentDrill
T4C0.800
; #@! TA.AperFunction,Plated,PTH,ComponentDrill
T5C0.889
; #@! TA.AperFunction,Plated,PTH,ComponentDrill
T6C0.900
; #@! TA.AperFunction,Plated,PTH,ComponentDrill
T7C0.950
; #@! TA.AperFunction,Plated,PTH,ComponentDrill
T8C1.000
; #@! TA.AperFunction,Plated,PTH,ComponentDrill
T9C1.100
; #@! TA.AperFunction,Plated,PTH,ComponentDrill
T10C1.200
; #@! TA.AperFunction,Plated,PTH,ComponentDrill
T11C1.397
; #@! TA.AperFunction,Plated,PTH,ComponentDrill
T12C2.000
; #@! TA.AperFunction,Plated,PTH,ComponentDrill
T13C2.500
; #@! TA.AperFunction,Plated,PTH,ComponentDrill
T14C3.500
%
G90
G05
T1
X121.168Y-118.01
X123.393Y-121.361
X124.34Y-120.29
X124.358Y-121.31
X125.679Y-81.456
X126.543Y-110.465
X126.644Y-81.432
X127.61Y-81.432
X137.719Y-136.246
X138.76Y-136.246
X139.802Y-136.246
X143.612Y-138.735
X143.688Y-139.725
X144.296Y-118.574
X144.313Y-130.26
X144.628Y-139.141
X144.78Y-131.267
X144.78Y-132.588
X145.034Y-119.38
X153.162Y-139.065
X154.502Y-138.742
X165.252Y-137.363
X166.726Y-137.363
T2
X109.028Y-72.39
X110.298Y-71.12
X111.568Y-72.39
X152.919Y-72.39
X154.189Y-71.12
X155.459Y-72.39
T3
X116.287Y-120.992
X116.287Y-123.532
X116.287Y-126.072
X116.287Y-128.612
X116.287Y-131.152
X116.287Y-133.692
T4
X106.68Y-67.31
X114.3Y-67.31
X138.684Y-126.365
X138.684Y-133.985
X141.732Y-126.365
X141.732Y-133.985
X144.78Y-126.365
X144.78Y-133.985
X145.898Y-144.983
X148.398Y-144.983
X151.13Y-67.31
X158.75Y-67.31
X172.415Y-137.363
X172.415Y-139.863
T5
X91.237Y-127.356
X91.237Y-129.896
X91.237Y-132.436
X98.857Y-119.736
X101.397Y-119.736
X103.937Y-119.736
T6
X109.017Y-126.721
X109.017Y-133.071
X114.097Y-126.721
X114.097Y-133.071
X133.35Y-127.381
X133.35Y-129.54
X133.35Y-131.699
X133.35Y-133.858
T7
X121.583Y-61.214
X124.083Y-61.214
X126.583Y-61.214
X129.083Y-61.214
X136.629Y-61.214
X139.129Y-61.214
X141.629Y-61.214
X144.129Y-61.214
T8
X92.71Y-62.89
X93.599Y-102.743
X93.599Y-105.283
X93.599Y-107.823
X95.25Y-62.89
X95.575Y-151.638
X98.075Y-151.638
X99.239Y-66.756
X99.239Y-74.356
X102.87Y-60.95
X102.88Y-51.816
X104.343Y-150.012
X104.35Y-152.55
X105.41Y-60.95
X105.42Y-51.816
X106.843Y-150.012
X106.85Y-152.55
X107.95Y-60.95
X107.96Y-51.816
X110.49Y-60.95
X110.5Y-51.816
X113.03Y-60.95
X113.411Y-151.638
X115.911Y-151.638
X119.38Y-67.285
X119.38Y-69.825
X119.38Y-72.365
X119.38Y-74.905
X119.38Y-77.445
X119.38Y-79.985
X119.38Y-82.525
X119.38Y-85.065
X119.38Y-87.605
X119.38Y-90.145
X119.38Y-92.685
X119.38Y-95.225
X119.38Y-97.765
X119.38Y-100.305
X119.38Y-102.845
X119.38Y-105.385
X119.38Y-107.925
X119.38Y-110.465
X119.38Y-113.005
X119.38Y-115.545
X123.877Y-67.31
X123.877Y-69.85
X123.877Y-72.39
X123.877Y-74.93
X123.877Y-77.47
X123.877Y-80.01
X123.877Y-82.55
X123.877Y-85.09
X123.877Y-87.63
X123.877Y-90.17
X123.877Y-92.71
X123.877Y-95.25
X123.877Y-97.79
X123.877Y-100.33
X123.877Y-102.87
X123.877Y-105.41
X123.877Y-107.95
X123.877Y-110.49
X123.877Y-113.03
X123.877Y-115.57
X125.832Y-141.656
X125.832Y-144.196
X128.372Y-141.656
X128.372Y-144.196
X130.912Y-141.656
X130.912Y-144.196
X133.452Y-141.656
X133.452Y-144.196
X135.992Y-141.656
X135.992Y-144.196
X138.532Y-141.656
X138.532Y-144.196
X141.072Y-141.656
X141.072Y-144.196
X141.616Y-105.41
X141.657Y-67.31
X141.657Y-69.85
X141.657Y-72.39
X141.657Y-74.93
X141.657Y-77.47
X141.657Y-80.01
X141.657Y-82.55
X141.657Y-85.09
X141.657Y-87.63
X141.657Y-90.17
X141.657Y-92.71
X141.657Y-95.25
X141.657Y-97.79
X141.657Y-100.33
X141.657Y-102.87
X141.657Y-107.95
X141.657Y-110.49
X141.657Y-113.03
X141.657Y-115.57
X146.126Y-67.285
X146.126Y-69.825
X146.126Y-72.365
X146.126Y-74.905
X146.126Y-77.445
X146.126Y-79.985
X146.126Y-82.525
X146.126Y-85.065
X146.126Y-87.605
X146.126Y-90.145
X146.126Y-92.685
X146.126Y-95.225
X146.126Y-97.765
X146.126Y-100.305
X146.126Y-102.845
X146.126Y-105.385
X146.126Y-107.925
X146.126Y-110.465
X146.126Y-113.005
X146.126Y-115.545
X152.395Y-51.81
X152.395Y-60.96
X154.935Y-51.81
X154.935Y-60.96
X157.404Y-107.493
X157.475Y-51.81
X157.475Y-60.96
X159.944Y-107.493
X160.015Y-51.81
X160.015Y-60.96
X162.484Y-107.493
X162.555Y-51.81
X162.555Y-60.96
X165.024Y-107.493
X165.66Y-67.01
X165.66Y-74.61
T9
X95.989Y-82.804
X95.989Y-87.304
X99.56Y-116.1
X102.1Y-116.1
X102.489Y-82.804
X102.489Y-87.304
X104.64Y-116.1
X107.18Y-116.1
X108.194Y-87.761
X108.194Y-92.261
X109.72Y-116.1
X114.694Y-87.761
X114.694Y-92.261
X160.071Y-137.008
X160.071Y-139.548
X160.071Y-142.088
X162.41Y-82.804
X162.41Y-87.304
X168.91Y-82.804
X168.91Y-87.304
T10
X121.412Y-128.986
X121.412Y-132.796
T11
X94.729Y-122.276
X108.064Y-122.276
T12
X95.199Y-145.542
X167.199Y-145.542
T13
X111.379Y-100.584
X111.379Y-110.236
T14
X91.691Y-37.958
X91.691Y-45.758
X98.702Y-37.958
X98.702Y-45.758
X105.712Y-37.958
X105.712Y-45.758
X112.723Y-37.958
X112.723Y-45.758
X119.733Y-37.958
X119.733Y-45.758
X145.491Y-37.952
X145.491Y-45.752
X153.391Y-37.952
X153.391Y-45.752
X161.29Y-37.952
X161.29Y-45.752
X169.189Y-37.952
X169.189Y-45.752
T8
G00X113.04Y-51.816
M15
G01X113.04Y-51.816
M16
G05
T0
M30
