%TF.GenerationSoftware,KiCad,Pcbnew,9.0.0*%
%TF.CreationDate,2025-05-16T16:34:18-03:00*%
%TF.ProjectId,V1A,5631412e-6b69-4636-9164-5f7063625858,rev?*%
%TF.SameCoordinates,Original*%
%TF.FileFunction,Copper,L1,Top*%
%TF.FilePolarity,Positive*%
%FSLAX46Y46*%
G04 Gerber Fmt 4.6, Leading zero omitted, Abs format (unit mm)*
G04 Created by KiCad (PCBNEW 9.0.0) date 2025-05-16 16:34:18*
%MOMM*%
%LPD*%
G01*
G04 APERTURE LIST*
G04 Aperture macros list*
%AMRoundRect*
0 Rectangle with rounded corners*
0 $1 Rounding radius*
0 $2 $3 $4 $5 $6 $7 $8 $9 X,Y pos of 4 corners*
0 Add a 4 corners polygon primitive as box body*
4,1,4,$2,$3,$4,$5,$6,$7,$8,$9,$2,$3,0*
0 Add four circle primitives for the rounded corners*
1,1,$1+$1,$2,$3*
1,1,$1+$1,$4,$5*
1,1,$1+$1,$6,$7*
1,1,$1+$1,$8,$9*
0 Add four rect primitives between the rounded corners*
20,1,$1+$1,$2,$3,$4,$5,0*
20,1,$1+$1,$4,$5,$6,$7,0*
20,1,$1+$1,$6,$7,$8,$9,0*
20,1,$1+$1,$8,$9,$2,$3,0*%
G04 Aperture macros list end*
%TA.AperFunction,ComponentPad*%
%ADD10R,1.700000X1.700000*%
%TD*%
%TA.AperFunction,ComponentPad*%
%ADD11C,1.700000*%
%TD*%
%TA.AperFunction,SMDPad,CuDef*%
%ADD12R,2.000000X1.500000*%
%TD*%
%TA.AperFunction,ComponentPad*%
%ADD13O,1.700000X1.700000*%
%TD*%
%TA.AperFunction,SMDPad,CuDef*%
%ADD14RoundRect,0.250000X0.550000X-1.050000X0.550000X1.050000X-0.550000X1.050000X-0.550000X-1.050000X0*%
%TD*%
%TA.AperFunction,SMDPad,CuDef*%
%ADD15RoundRect,0.255000X-0.255000X2.245000X-0.255000X-2.245000X0.255000X-2.245000X0.255000X2.245000X0*%
%TD*%
%TA.AperFunction,SMDPad,CuDef*%
%ADD16R,1.000000X1.000000*%
%TD*%
%TA.AperFunction,SMDPad,CuDef*%
%ADD17R,2.200000X1.050000*%
%TD*%
%TA.AperFunction,ViaPad*%
%ADD18C,0.800000*%
%TD*%
%TA.AperFunction,ViaPad*%
%ADD19C,0.600000*%
%TD*%
%TA.AperFunction,Conductor*%
%ADD20C,0.200000*%
%TD*%
%TA.AperFunction,Conductor*%
%ADD21C,2.000000*%
%TD*%
%TA.AperFunction,Conductor*%
%ADD22C,0.500000*%
%TD*%
%TA.AperFunction,Conductor*%
%ADD23C,1.000000*%
%TD*%
%TA.AperFunction,Conductor*%
%ADD24C,0.250000*%
%TD*%
%TA.AperFunction,Conductor*%
%ADD25C,0.000000*%
%TD*%
%TA.AperFunction,Conductor*%
%ADD26C,1.200000*%
%TD*%
%TA.AperFunction,Conductor*%
%ADD27C,1.500000*%
%TD*%
%TA.AperFunction,Conductor*%
%ADD28C,0.600000*%
%TD*%
G04 APERTURE END LIST*
D10*
%TO.P,IDC14,1*%
%TO.N,GND*%
X146775859Y-87351463D03*
D11*
%TO.P,IDC14,2*%
%TO.N,5V*%
X146775859Y-89891463D03*
%TO.P,IDC14,3*%
%TO.N,3V3*%
X149315859Y-87351463D03*
%TO.P,IDC14,4*%
%TO.N,MISO*%
X149315859Y-89891463D03*
%TO.P,IDC14,5*%
%TO.N,Ana1*%
X151855859Y-87351463D03*
%TO.P,IDC14,7*%
%TO.N,MOSI*%
X154395859Y-87351463D03*
%TO.P,IDC14,8*%
%TO.N,CS_RP*%
X154395859Y-89891463D03*
%TO.P,IDC14,9*%
%TO.N,TX_RX*%
X156935859Y-87351463D03*
%TO.P,IDC14,10*%
%TO.N,D0*%
X156935859Y-89891463D03*
%TO.P,IDC14,11*%
%TO.N,RX_TX*%
X159475859Y-87351463D03*
%TO.P,IDC14,12*%
%TO.N,SCL*%
X159475859Y-89891463D03*
%TO.P,IDC14,13*%
%TO.N,SCK*%
X162015859Y-87351463D03*
%TO.P,IDC14,14*%
%TO.N,SDA*%
X162015859Y-89891463D03*
%TO.P,IDC14,not connected*%
%TO.N,notconnected*%
X151855859Y-89891463D03*
%TD*%
D12*
%TO.P,RFM95W,1*%
%TO.N,ANT*%
X163245800Y-112755200D03*
%TO.P,RFM95W,2*%
%TO.N,GND*%
X163245800Y-110755200D03*
%TO.P,RFM95W,3*%
%TO.N,N/C*%
X163245800Y-108755200D03*
%TO.P,RFM95W,4*%
X163245800Y-106755200D03*
%TO.P,RFM95W,5*%
%TO.N,3V3*%
X163245800Y-104755200D03*
%TO.P,RFM95W,6*%
%TO.N,D1_ESP32*%
X163245800Y-102755200D03*
%TO.P,RFM95W,7*%
%TO.N,N/C*%
X163245800Y-100755200D03*
%TO.P,RFM95W,8*%
X163245800Y-98755200D03*
%TO.P,RFM95W,9*%
%TO.N,GND*%
X147245800Y-98755200D03*
%TO.P,RFM95W,10*%
%TO.N,MISO*%
X147245800Y-100755200D03*
%TO.P,RFM95W,11*%
%TO.N,MOSI*%
X147245800Y-102755200D03*
%TO.P,RFM95W,12*%
%TO.N,SCK*%
X147245800Y-104755200D03*
%TO.P,RFM95W,13*%
%TO.N,D0_ESP32*%
X147245800Y-106755200D03*
%TO.P,RFM95W,14*%
%TO.N,CS_LORA*%
X147245800Y-108755200D03*
%TO.P,RFM95W,15*%
%TO.N,N/C*%
X147245800Y-110755200D03*
%TO.P,RFM95W,16*%
%TO.N,GND*%
X147245800Y-112755200D03*
%TD*%
D11*
%TO.P,J2,1*%
%TO.N,N/C*%
X161848800Y-118846600D03*
D13*
%TO.P,J2,2*%
%TO.N,RX_TX*%
X159308800Y-118846600D03*
%TO.P,J2,3*%
%TO.N,TX_RX*%
X156768800Y-118846600D03*
D10*
%TO.P,J2,4*%
%TO.N,GND*%
X154228800Y-118846600D03*
D13*
%TO.P,J2,5*%
%TO.N,5V*%
X151688800Y-118846600D03*
%TO.P,J2,6*%
%TO.N,N/C*%
X149148800Y-118846600D03*
%TD*%
D14*
%TO.P,REF\u002A\u002A,1*%
%TO.N,3V3*%
X167030400Y-98828000D03*
%TO.P,REF\u002A\u002A,2*%
%TO.N,GND*%
X167030400Y-95228000D03*
%TD*%
D15*
%TO.P,IDC 14,1*%
%TO.N,SCK*%
X161975859Y-84791463D03*
%TO.P,IDC 14,2*%
%TO.N,SDA*%
X161975859Y-92391463D03*
%TO.P,IDC 14,3*%
%TO.N,RX_TX*%
X159435859Y-84791463D03*
%TO.P,IDC 14,4*%
%TO.N,SCL*%
X159435859Y-92391463D03*
%TO.P,IDC 14,5*%
%TO.N,TX_RX*%
X156895859Y-84791463D03*
%TO.P,IDC 14,6*%
%TO.N,D0*%
X156895859Y-92391463D03*
%TO.P,IDC 14,7*%
%TO.N,MOSI*%
X154355859Y-84791463D03*
%TO.P,IDC 14,8*%
%TO.N,CS_RP*%
X154355859Y-92391463D03*
%TO.P,IDC 14,9*%
%TO.N,Ana1*%
X151815859Y-84791463D03*
%TO.P,IDC 14,10*%
%TO.N,notconnected*%
X151815859Y-92391463D03*
%TO.P,IDC 14,11*%
%TO.N,3V3*%
X149275859Y-84791463D03*
%TO.P,IDC 14,12*%
%TO.N,MISO*%
X149275859Y-92391463D03*
%TO.P,IDC 14,13*%
%TO.N,GND*%
X146735859Y-84791463D03*
%TD*%
D14*
%TO.P,REF\u002A\u002A,1*%
%TO.N,5V*%
X143306800Y-119862600D03*
%TO.P,REF\u002A\u002A,2*%
%TO.N,GND*%
X143306800Y-116262600D03*
%TD*%
D16*
%TO.P,REF\u002A\u002A,1*%
%TO.N,ANT*%
X165495859Y-112766463D03*
D17*
%TO.P,REF\u002A\u002A,2*%
%TO.N,GND*%
X166995859Y-111291463D03*
D16*
X168495859Y-112766463D03*
D17*
X166995859Y-114241463D03*
%TD*%
D18*
%TO.N,GND*%
X154228800Y-104444800D03*
D19*
X147929600Y-82092800D03*
D18*
X152755600Y-98958400D03*
D19*
X149301200Y-105816400D03*
D18*
X158394400Y-111582200D03*
X152095200Y-96139000D03*
X156108400Y-102971600D03*
D19*
X149199600Y-99649280D03*
D18*
X141274800Y-95250000D03*
X168833800Y-85011469D03*
D19*
X144576800Y-99669600D03*
D18*
X152654000Y-112598200D03*
X158140400Y-81534000D03*
X160578800Y-95123000D03*
X152095200Y-99720400D03*
D19*
X149199600Y-98948240D03*
D18*
X145084800Y-96291400D03*
X152044400Y-98298000D03*
X155651200Y-81584800D03*
X158699200Y-102057200D03*
X154381200Y-112598200D03*
D19*
X149199600Y-101803200D03*
X149199600Y-98247200D03*
D18*
X160832800Y-116001800D03*
X168452800Y-105130600D03*
X168833800Y-83742742D03*
X153060400Y-82194400D03*
X145186400Y-88773000D03*
X167291700Y-119438100D03*
X152654000Y-110007400D03*
D19*
X150469600Y-84429600D03*
D18*
X165709600Y-119456200D03*
X164642800Y-88976200D03*
X142240000Y-79375000D03*
X158750000Y-100101400D03*
D19*
X150469600Y-83667600D03*
D18*
X157226000Y-96088200D03*
X146456400Y-119430800D03*
X146456400Y-117246400D03*
X154584400Y-96139000D03*
D19*
X150520400Y-82042000D03*
D18*
X146456400Y-118237000D03*
X168833800Y-86280196D03*
D19*
%TO.N,MISO*%
X150672800Y-100406200D03*
X150672800Y-102184200D03*
X150672800Y-101295200D03*
X150672800Y-99517200D03*
%TO.N,SCK*%
X143306800Y-106248200D03*
X143306800Y-105359200D03*
X143306800Y-107137200D03*
X143306800Y-104470200D03*
%TO.N,MOSI*%
X144195800Y-100914200D03*
X144195800Y-101676200D03*
X144195800Y-102438200D03*
X144195800Y-103200200D03*
D18*
%TO.N,3V3*%
X149910800Y-103479600D03*
X149047200Y-103479600D03*
X149961600Y-104444800D03*
X149047200Y-104444800D03*
D19*
%TO.N,CS_RP*%
X160070800Y-106375200D03*
X159308800Y-107137200D03*
X159308800Y-106375200D03*
X160070800Y-107137200D03*
%TO.N,CS_LORA*%
X159943800Y-103581200D03*
X159181800Y-103581200D03*
X159943800Y-104343200D03*
X159181800Y-104343200D03*
%TO.N,D0_ESP32*%
X160197800Y-98374200D03*
X160197800Y-99263200D03*
X161086800Y-98374200D03*
X161086800Y-99263200D03*
%TO.N,D1_ESP32*%
X164795200Y-102006400D03*
X164795200Y-100838000D03*
X164795200Y-101396800D03*
X164795200Y-102006400D03*
%TD*%
D20*
%TO.N,D0_ESP32*%
X154306000Y-106755200D02*
X147245800Y-106755200D01*
X157276800Y-103784400D02*
X154306000Y-106755200D01*
X157276800Y-101650800D02*
X157276800Y-103784400D01*
X159816800Y-101168200D02*
X157759400Y-101168200D01*
X157759400Y-101168200D02*
X157276800Y-101650800D01*
X160705800Y-100279200D02*
X159816800Y-101168200D01*
D21*
X160705800Y-98628200D02*
X160705800Y-100279200D01*
%TO.N,CS_LORA*%
X159640550Y-103630450D02*
X159972300Y-103962200D01*
X159308800Y-103962200D02*
X159640550Y-103630450D01*
D20*
X157378400Y-105892600D02*
X159308800Y-103962200D01*
X157378400Y-107950000D02*
X157378400Y-105892600D01*
X150520400Y-109118400D02*
X156210000Y-109118400D01*
X156210000Y-109118400D02*
X157378400Y-107950000D01*
X147245800Y-108755200D02*
X150157200Y-108755200D01*
X150157200Y-108755200D02*
X150520400Y-109118400D01*
%TO.N,GND*%
X145464937Y-87351463D02*
X145034000Y-87782400D01*
X166995859Y-112776000D02*
X168486322Y-112776000D01*
X168486322Y-112776000D02*
X168495859Y-112766463D01*
X166995859Y-112776000D02*
X166995859Y-114241463D01*
X166995859Y-111291463D02*
X166995859Y-112776000D01*
X146775859Y-87351463D02*
X145464937Y-87351463D01*
X145034000Y-87782400D02*
X145034000Y-88620600D01*
X145034000Y-88620600D02*
X145186400Y-88773000D01*
D22*
%TO.N,MISO*%
X147264600Y-100736400D02*
X150672800Y-100736400D01*
D20*
X150323800Y-100755200D02*
X150672800Y-100406200D01*
D23*
X150672800Y-100736400D02*
X150672800Y-99517200D01*
D24*
X149285859Y-92401463D02*
X149275859Y-92391463D01*
D23*
X150672800Y-102311200D02*
X150672800Y-100736400D01*
D22*
X147245800Y-100755200D02*
X147264600Y-100736400D01*
%TO.N,SCK*%
X147245800Y-104755200D02*
X143337800Y-104755200D01*
D23*
X143306800Y-107137200D02*
X143306800Y-104470200D01*
D20*
X143591800Y-104755200D02*
X143306800Y-104470200D01*
D24*
%TO.N,RX_TX*%
X159415859Y-84771463D02*
X159435859Y-84791463D01*
D20*
%TO.N,MOSI*%
X144512800Y-102755200D02*
X144195800Y-102438200D01*
D23*
X144195800Y-100914200D02*
X144195800Y-103073200D01*
D22*
X147245800Y-102755200D02*
X144512800Y-102755200D01*
D25*
%TO.N,Ana1*%
X151735859Y-84711463D02*
X151815859Y-84791463D01*
D23*
%TO.N,3V3*%
X149047200Y-103987600D02*
X149047200Y-104444800D01*
D26*
X159156400Y-96723200D02*
X164998400Y-96723200D01*
X164998400Y-96723200D02*
X167030400Y-98755200D01*
D21*
X166995859Y-103671463D02*
X165912122Y-104755200D01*
X165912122Y-104755200D02*
X163245800Y-104755200D01*
D23*
X149910800Y-103479600D02*
X149910800Y-104394000D01*
X149910800Y-104394000D02*
X149961600Y-104444800D01*
D21*
X151892000Y-103987600D02*
X159156400Y-96723200D01*
D20*
X167030400Y-98755200D02*
X167030400Y-98828000D01*
D21*
X166995859Y-103671463D02*
X166995859Y-98862541D01*
D23*
X149047200Y-103479600D02*
X149047200Y-103987600D01*
X149047200Y-103987600D02*
X151892000Y-103987600D01*
D24*
X149375859Y-84691463D02*
X149275859Y-84791463D01*
D21*
X166995859Y-98862541D02*
X167030400Y-98828000D01*
D24*
%TO.N,SDA*%
X161975859Y-93431463D02*
X161975859Y-92391463D01*
X161915859Y-92451463D02*
X161975859Y-92391463D01*
%TO.N,D0*%
X156935859Y-89891463D02*
X156935859Y-89176806D01*
X157265859Y-92761463D02*
X156895859Y-92391463D01*
D20*
%TO.N,CS_RP*%
X159308800Y-114884200D02*
X159308800Y-106375200D01*
X158597600Y-115595400D02*
X159308800Y-114884200D01*
D27*
X160070800Y-106756200D02*
X159308800Y-106756200D01*
D20*
X154395859Y-95032141D02*
X152577800Y-96850200D01*
X152577800Y-96850200D02*
X145846800Y-96850200D01*
X145491200Y-115595400D02*
X158597600Y-115595400D01*
X142354300Y-100342700D02*
X142354300Y-112458500D01*
X154395859Y-89891463D02*
X154395859Y-95032141D01*
X145846800Y-96850200D02*
X142354300Y-100342700D01*
X142354300Y-112458500D02*
X145491200Y-115595400D01*
D23*
%TO.N,5V*%
X142417800Y-97104200D02*
X141401800Y-98120200D01*
X146775859Y-89891463D02*
X146775859Y-94397141D01*
X146775859Y-92665811D02*
X142417800Y-97023870D01*
X146775859Y-89891463D02*
X146775859Y-92665811D01*
X144576800Y-120996200D02*
X151012400Y-120996200D01*
X141401800Y-117821200D02*
X144576800Y-120996200D01*
X151688800Y-120319800D02*
X151688800Y-118846600D01*
X142417800Y-97023870D02*
X142417800Y-97104200D01*
X141401800Y-98120200D02*
X141401800Y-117821200D01*
X151012400Y-120996200D02*
X151688800Y-120319800D01*
D20*
%TO.N,CS_LORA*%
X147245800Y-108755200D02*
X146829800Y-108755200D01*
D28*
%TO.N,D1_ESP32*%
X164795200Y-100838000D02*
X164795200Y-102565200D01*
X164592000Y-102768400D02*
X163259000Y-102768400D01*
X164795200Y-102565200D02*
X164592000Y-102768400D01*
D20*
X163259000Y-102768400D02*
X163245800Y-102755200D01*
D22*
%TO.N,ANT*%
X163565859Y-112811463D02*
X165450859Y-112811463D01*
D24*
X165450859Y-112811463D02*
X165495859Y-112766463D01*
D20*
%TO.N,notconnected*%
X151855859Y-89891463D02*
X151855859Y-89825141D01*
%TO.N,CS_LORA*%
X160169300Y-104216200D02*
X160423300Y-103962200D01*
%TD*%
%TA.AperFunction,Conductor*%
%TO.N,GND*%
G36*
X167279279Y-77807055D02*
G01*
X167533325Y-77823710D01*
X167549405Y-77825827D01*
X167795115Y-77874705D01*
X167810782Y-77878903D01*
X168048009Y-77959434D01*
X168062994Y-77965641D01*
X168072977Y-77970564D01*
X168287688Y-78076450D01*
X168301720Y-78084551D01*
X168510032Y-78223743D01*
X168522896Y-78233615D01*
X168711248Y-78398797D01*
X168722718Y-78410267D01*
X168887899Y-78598622D01*
X168897772Y-78611490D01*
X169036956Y-78819795D01*
X169045065Y-78833840D01*
X169155744Y-79058276D01*
X169155866Y-79058522D01*
X169162073Y-79073508D01*
X169242602Y-79310741D01*
X169246800Y-79326407D01*
X169295675Y-79572114D01*
X169297792Y-79588195D01*
X169314473Y-79842675D01*
X169314739Y-79850784D01*
X169314739Y-79912184D01*
X169314739Y-79912189D01*
X169314740Y-79917307D01*
X169314740Y-79917317D01*
X169315412Y-111673406D01*
X169295729Y-111740446D01*
X169242926Y-111786202D01*
X169173768Y-111796147D01*
X169148078Y-111789591D01*
X169103235Y-111772865D01*
X169103231Y-111772864D01*
X169043703Y-111766463D01*
X168719859Y-111766463D01*
X168652820Y-111746778D01*
X168607065Y-111693974D01*
X168595859Y-111642463D01*
X168595859Y-111541463D01*
X167245859Y-111541463D01*
X167245859Y-112316463D01*
X167371859Y-112316463D01*
X167438898Y-112336148D01*
X167484653Y-112388952D01*
X167495859Y-112440463D01*
X167495859Y-112516463D01*
X168371859Y-112516463D01*
X168438898Y-112536148D01*
X168484653Y-112588952D01*
X168495859Y-112640463D01*
X168495859Y-112892463D01*
X168476174Y-112959502D01*
X168423370Y-113005257D01*
X168371859Y-113016463D01*
X167495859Y-113016463D01*
X167495859Y-113092463D01*
X167476174Y-113159502D01*
X167423370Y-113205257D01*
X167371859Y-113216463D01*
X167245859Y-113216463D01*
X167245859Y-113991463D01*
X168595859Y-113991463D01*
X168595859Y-113890463D01*
X168615544Y-113823424D01*
X168668348Y-113777669D01*
X168719859Y-113766463D01*
X169043687Y-113766463D01*
X169043703Y-113766462D01*
X169103231Y-113760061D01*
X169103239Y-113760059D01*
X169148124Y-113743318D01*
X169217816Y-113738332D01*
X169279139Y-113771817D01*
X169312625Y-113833139D01*
X169315459Y-113859496D01*
X169315578Y-119475851D01*
X169315286Y-119484357D01*
X169297950Y-119736572D01*
X169295776Y-119752678D01*
X169246366Y-119996697D01*
X169242104Y-120012379D01*
X169161208Y-120247838D01*
X169154931Y-120262829D01*
X169043938Y-120485681D01*
X169035755Y-120499722D01*
X168896569Y-120706148D01*
X168886620Y-120718998D01*
X168721636Y-120905445D01*
X168710092Y-120916884D01*
X168522138Y-121080157D01*
X168509197Y-121089988D01*
X168301507Y-121227276D01*
X168287392Y-121235330D01*
X168063528Y-121344279D01*
X168048480Y-121350418D01*
X167812293Y-121429154D01*
X167796573Y-121433272D01*
X167552118Y-121480444D01*
X167535993Y-121482471D01*
X167317498Y-121495481D01*
X167310128Y-121495700D01*
X152227181Y-121495700D01*
X152160142Y-121476015D01*
X152114387Y-121423211D01*
X152104443Y-121354053D01*
X152133468Y-121290497D01*
X152139500Y-121284019D01*
X152223535Y-121199984D01*
X152326578Y-121096941D01*
X152326582Y-121096939D01*
X152465939Y-120957582D01*
X152575432Y-120793714D01*
X152650851Y-120611635D01*
X152659124Y-120570047D01*
X152689300Y-120418340D01*
X152689300Y-120221260D01*
X152689300Y-119966030D01*
X152708985Y-119898991D01*
X152761789Y-119853236D01*
X152830947Y-119843292D01*
X152894503Y-119872317D01*
X152929482Y-119922697D01*
X152935445Y-119938686D01*
X152935449Y-119938693D01*
X153021609Y-120053787D01*
X153021612Y-120053790D01*
X153136706Y-120139950D01*
X153136713Y-120139954D01*
X153271420Y-120190196D01*
X153271427Y-120190198D01*
X153330955Y-120196599D01*
X153330972Y-120196600D01*
X153978800Y-120196600D01*
X153978800Y-119279612D01*
X154035807Y-119312525D01*
X154162974Y-119346600D01*
X154294626Y-119346600D01*
X154421793Y-119312525D01*
X154478800Y-119279612D01*
X154478800Y-120196600D01*
X155126628Y-120196600D01*
X155126644Y-120196599D01*
X155186172Y-120190198D01*
X155186179Y-120190196D01*
X155320886Y-120139954D01*
X155320893Y-120139950D01*
X155435987Y-120053790D01*
X155435990Y-120053787D01*
X155522150Y-119938693D01*
X155522154Y-119938686D01*
X155571222Y-119807129D01*
X155613093Y-119751195D01*
X155678557Y-119726778D01*
X155746830Y-119741630D01*
X155775085Y-119762781D01*
X155889013Y-119876709D01*
X156060979Y-120001648D01*
X156060981Y-120001649D01*
X156060984Y-120001651D01*
X156250388Y-120098157D01*
X156452557Y-120163846D01*
X156662513Y-120197100D01*
X156662514Y-120197100D01*
X156875086Y-120197100D01*
X156875087Y-120197100D01*
X157085043Y-120163846D01*
X157287212Y-120098157D01*
X157476616Y-120001651D01*
X157518849Y-119970967D01*
X157648586Y-119876709D01*
X157648588Y-119876706D01*
X157648592Y-119876704D01*
X157798904Y-119726392D01*
X157798906Y-119726388D01*
X157798909Y-119726386D01*
X157923848Y-119554420D01*
X157923847Y-119554420D01*
X157923851Y-119554416D01*
X157928314Y-119545654D01*
X157976288Y-119494859D01*
X158044108Y-119478063D01*
X158110244Y-119500599D01*
X158149284Y-119545654D01*
X158150307Y-119547660D01*
X158153751Y-119554420D01*
X158278690Y-119726386D01*
X158429013Y-119876709D01*
X158600979Y-120001648D01*
X158600981Y-120001649D01*
X158600984Y-120001651D01*
X158790388Y-120098157D01*
X158992557Y-120163846D01*
X159202513Y-120197100D01*
X159202514Y-120197100D01*
X159415086Y-120197100D01*
X159415087Y-120197100D01*
X159625043Y-120163846D01*
X159827212Y-120098157D01*
X160016616Y-120001651D01*
X160058849Y-119970967D01*
X160188586Y-119876709D01*
X160188588Y-119876706D01*
X160188592Y-119876704D01*
X160338904Y-119726392D01*
X160338906Y-119726388D01*
X160338909Y-119726386D01*
X160463848Y-119554420D01*
X160463847Y-119554420D01*
X160463851Y-119554416D01*
X160468314Y-119545654D01*
X160516288Y-119494859D01*
X160584108Y-119478063D01*
X160650244Y-119500599D01*
X160689284Y-119545654D01*
X160690307Y-119547660D01*
X160693751Y-119554420D01*
X160818690Y-119726386D01*
X160969013Y-119876709D01*
X161140979Y-120001648D01*
X161140981Y-120001649D01*
X161140984Y-120001651D01*
X161330388Y-120098157D01*
X161532557Y-120163846D01*
X161742513Y-120197100D01*
X161742514Y-120197100D01*
X161955086Y-120197100D01*
X161955087Y-120197100D01*
X162165043Y-120163846D01*
X162367212Y-120098157D01*
X162556616Y-120001651D01*
X162598849Y-119970967D01*
X162728586Y-119876709D01*
X162728588Y-119876706D01*
X162728592Y-119876704D01*
X162878904Y-119726392D01*
X162878906Y-119726388D01*
X162878909Y-119726386D01*
X163003848Y-119554420D01*
X163003847Y-119554420D01*
X163003851Y-119554416D01*
X163100357Y-119365012D01*
X163166046Y-119162843D01*
X163199300Y-118952887D01*
X163199300Y-118740313D01*
X163166046Y-118530357D01*
X163100357Y-118328188D01*
X163003851Y-118138784D01*
X163003849Y-118138781D01*
X163003848Y-118138779D01*
X162878909Y-117966813D01*
X162728586Y-117816490D01*
X162556620Y-117691551D01*
X162367214Y-117595044D01*
X162367213Y-117595043D01*
X162367212Y-117595043D01*
X162165043Y-117529354D01*
X162165041Y-117529353D01*
X162165040Y-117529353D01*
X162003757Y-117503808D01*
X161955087Y-117496100D01*
X161742513Y-117496100D01*
X161693842Y-117503808D01*
X161532560Y-117529353D01*
X161330385Y-117595044D01*
X161140979Y-117691551D01*
X160969013Y-117816490D01*
X160818690Y-117966813D01*
X160693749Y-118138782D01*
X160689284Y-118147546D01*
X160641309Y-118198342D01*
X160573488Y-118215136D01*
X160507353Y-118192598D01*
X160468316Y-118147546D01*
X160463850Y-118138782D01*
X160338909Y-117966813D01*
X160188586Y-117816490D01*
X160016620Y-117691551D01*
X159827214Y-117595044D01*
X159827213Y-117595043D01*
X159827212Y-117595043D01*
X159625043Y-117529354D01*
X159625041Y-117529353D01*
X159625040Y-117529353D01*
X159463757Y-117503808D01*
X159415087Y-117496100D01*
X159202513Y-117496100D01*
X159153842Y-117503808D01*
X158992560Y-117529353D01*
X158790385Y-117595044D01*
X158600979Y-117691551D01*
X158429013Y-117816490D01*
X158278690Y-117966813D01*
X158153749Y-118138782D01*
X158149284Y-118147546D01*
X158101309Y-118198342D01*
X158033488Y-118215136D01*
X157967353Y-118192598D01*
X157928316Y-118147546D01*
X157923850Y-118138782D01*
X157798909Y-117966813D01*
X157648586Y-117816490D01*
X157476620Y-117691551D01*
X157287214Y-117595044D01*
X157287213Y-117595043D01*
X157287212Y-117595043D01*
X157085043Y-117529354D01*
X157085041Y-117529353D01*
X157085040Y-117529353D01*
X156923757Y-117503808D01*
X156875087Y-117496100D01*
X156662513Y-117496100D01*
X156613842Y-117503808D01*
X156452560Y-117529353D01*
X156250385Y-117595044D01*
X156060979Y-117691551D01*
X155889015Y-117816489D01*
X155775085Y-117930419D01*
X155713762Y-117963903D01*
X155644070Y-117958919D01*
X155588137Y-117917047D01*
X155571222Y-117886070D01*
X155522154Y-117754513D01*
X155522150Y-117754506D01*
X155435990Y-117639412D01*
X155435987Y-117639409D01*
X155320893Y-117553249D01*
X155320886Y-117553245D01*
X155186179Y-117503003D01*
X155186172Y-117503001D01*
X155126644Y-117496600D01*
X154478800Y-117496600D01*
X154478800Y-118413588D01*
X154421793Y-118380675D01*
X154294626Y-118346600D01*
X154162974Y-118346600D01*
X154035807Y-118380675D01*
X153978800Y-118413588D01*
X153978800Y-117496600D01*
X153330955Y-117496600D01*
X153271427Y-117503001D01*
X153271420Y-117503003D01*
X153136713Y-117553245D01*
X153136706Y-117553249D01*
X153021612Y-117639409D01*
X153021609Y-117639412D01*
X152935449Y-117754506D01*
X152935446Y-117754512D01*
X152886377Y-117886071D01*
X152844505Y-117942004D01*
X152779041Y-117966421D01*
X152710768Y-117951569D01*
X152682514Y-117930418D01*
X152568586Y-117816490D01*
X152396620Y-117691551D01*
X152207214Y-117595044D01*
X152207213Y-117595043D01*
X152207212Y-117595043D01*
X152005043Y-117529354D01*
X152005041Y-117529353D01*
X152005040Y-117529353D01*
X151843757Y-117503808D01*
X151795087Y-117496100D01*
X151582513Y-117496100D01*
X151533842Y-117503808D01*
X151372560Y-117529353D01*
X151170385Y-117595044D01*
X150980979Y-117691551D01*
X150809013Y-117816490D01*
X150658690Y-117966813D01*
X150533749Y-118138782D01*
X150529284Y-118147546D01*
X150481309Y-118198342D01*
X150413488Y-118215136D01*
X150347353Y-118192598D01*
X150308316Y-118147546D01*
X150303850Y-118138782D01*
X150178909Y-117966813D01*
X150028586Y-117816490D01*
X149856620Y-117691551D01*
X149667214Y-117595044D01*
X149667213Y-117595043D01*
X149667212Y-117595043D01*
X149465043Y-117529354D01*
X149465041Y-117529353D01*
X149465040Y-117529353D01*
X149303757Y-117503808D01*
X149255087Y-117496100D01*
X149042513Y-117496100D01*
X148993842Y-117503808D01*
X148832560Y-117529353D01*
X148630385Y-117595044D01*
X148440979Y-117691551D01*
X148269013Y-117816490D01*
X148118690Y-117966813D01*
X147993751Y-118138779D01*
X147897244Y-118328185D01*
X147831553Y-118530360D01*
X147798300Y-118740313D01*
X147798300Y-118952886D01*
X147831553Y-119162839D01*
X147897244Y-119365014D01*
X147993751Y-119554420D01*
X148118690Y-119726386D01*
X148176323Y-119784019D01*
X148209808Y-119845342D01*
X148204824Y-119915034D01*
X148162952Y-119970967D01*
X148097488Y-119995384D01*
X148088642Y-119995700D01*
X145042582Y-119995700D01*
X144975543Y-119976015D01*
X144954901Y-119959381D01*
X144643618Y-119648098D01*
X144610133Y-119586775D01*
X144607299Y-119560417D01*
X144607299Y-118762598D01*
X144607298Y-118762581D01*
X144596799Y-118659803D01*
X144596798Y-118659800D01*
X144556965Y-118539593D01*
X144541614Y-118493266D01*
X144449512Y-118343944D01*
X144325456Y-118219888D01*
X144241079Y-118167844D01*
X144194356Y-118115897D01*
X144183133Y-118046934D01*
X144210977Y-117982852D01*
X144241081Y-117956767D01*
X144325143Y-117904917D01*
X144449115Y-117780945D01*
X144541156Y-117631724D01*
X144541158Y-117631719D01*
X144596305Y-117465297D01*
X144596306Y-117465290D01*
X144606799Y-117362586D01*
X144606800Y-117362573D01*
X144606800Y-116512600D01*
X143430800Y-116512600D01*
X143363761Y-116492915D01*
X143318006Y-116440111D01*
X143306800Y-116388600D01*
X143306800Y-116262600D01*
X143180800Y-116262600D01*
X143113761Y-116242915D01*
X143068006Y-116190111D01*
X143056800Y-116138600D01*
X143056800Y-114462600D01*
X142706828Y-114462600D01*
X142706812Y-114462601D01*
X142604103Y-114473094D01*
X142565302Y-114485951D01*
X142495474Y-114488351D01*
X142435432Y-114452619D01*
X142404241Y-114390098D01*
X142402300Y-114368244D01*
X142402300Y-113655097D01*
X142421985Y-113588058D01*
X142474789Y-113542303D01*
X142543947Y-113532359D01*
X142607503Y-113561384D01*
X142613981Y-113567416D01*
X143520481Y-114473916D01*
X143553966Y-114535239D01*
X143556800Y-114561597D01*
X143556800Y-116012600D01*
X144606799Y-116012600D01*
X144606799Y-115859596D01*
X144626484Y-115792557D01*
X144679288Y-115746802D01*
X144748446Y-115736858D01*
X144812002Y-115765883D01*
X144818467Y-115771902D01*
X145122484Y-116075920D01*
X145122486Y-116075921D01*
X145122490Y-116075924D01*
X145231050Y-116138600D01*
X145259416Y-116154977D01*
X145412143Y-116195901D01*
X145412145Y-116195901D01*
X145577854Y-116195901D01*
X145577870Y-116195900D01*
X158510931Y-116195900D01*
X158510947Y-116195901D01*
X158518543Y-116195901D01*
X158676654Y-116195901D01*
X158676657Y-116195901D01*
X158829385Y-116154977D01*
X158879504Y-116126039D01*
X158966316Y-116075920D01*
X159078120Y-115964116D01*
X159078120Y-115964114D01*
X159088328Y-115953907D01*
X159088329Y-115953904D01*
X159789320Y-115252916D01*
X159868377Y-115115984D01*
X159909301Y-114963257D01*
X159909301Y-114814307D01*
X165395859Y-114814307D01*
X165402260Y-114873835D01*
X165402262Y-114873842D01*
X165452504Y-115008549D01*
X165452508Y-115008556D01*
X165538668Y-115123650D01*
X165538671Y-115123653D01*
X165653765Y-115209813D01*
X165653772Y-115209817D01*
X165788479Y-115260059D01*
X165788486Y-115260061D01*
X165848014Y-115266462D01*
X165848031Y-115266463D01*
X166745859Y-115266463D01*
X167245859Y-115266463D01*
X168143687Y-115266463D01*
X168143703Y-115266462D01*
X168203231Y-115260061D01*
X168203238Y-115260059D01*
X168337945Y-115209817D01*
X168337952Y-115209813D01*
X168453046Y-115123653D01*
X168453049Y-115123650D01*
X168539209Y-115008556D01*
X168539213Y-115008549D01*
X168589455Y-114873842D01*
X168589457Y-114873835D01*
X168595858Y-114814307D01*
X168595859Y-114814290D01*
X168595859Y-114491463D01*
X167245859Y-114491463D01*
X167245859Y-115266463D01*
X166745859Y-115266463D01*
X166745859Y-114491463D01*
X165395859Y-114491463D01*
X165395859Y-114814307D01*
X159909301Y-114814307D01*
X159909301Y-114805142D01*
X159909301Y-114797547D01*
X159909300Y-114797529D01*
X159909300Y-111957327D01*
X161745300Y-111957327D01*
X161745300Y-111969746D01*
X161745300Y-111969747D01*
X161745300Y-113553070D01*
X161745301Y-113553076D01*
X161751708Y-113612683D01*
X161802002Y-113747528D01*
X161802006Y-113747535D01*
X161888252Y-113862744D01*
X161888255Y-113862747D01*
X162003464Y-113948993D01*
X162003471Y-113948997D01*
X162138317Y-113999291D01*
X162138316Y-113999291D01*
X162145244Y-114000035D01*
X162197927Y-114005700D01*
X164293672Y-114005699D01*
X164353283Y-113999291D01*
X164488131Y-113948996D01*
X164603346Y-113862746D01*
X164669735Y-113774061D01*
X164725667Y-113732192D01*
X164795358Y-113727208D01*
X164812335Y-113732192D01*
X164888376Y-113760554D01*
X164947986Y-113766963D01*
X165271861Y-113766962D01*
X165338898Y-113786646D01*
X165384653Y-113839450D01*
X165395859Y-113890962D01*
X165395859Y-113991463D01*
X166745859Y-113991463D01*
X166745859Y-113216463D01*
X166620359Y-113216463D01*
X166553320Y-113196778D01*
X166507565Y-113143974D01*
X166496359Y-113092463D01*
X166496358Y-112440463D01*
X166516042Y-112373424D01*
X166568846Y-112327669D01*
X166620358Y-112316463D01*
X166745859Y-112316463D01*
X166745859Y-111541463D01*
X165395859Y-111541463D01*
X165395859Y-111641963D01*
X165376174Y-111709002D01*
X165323370Y-111754757D01*
X165271859Y-111765963D01*
X164947989Y-111765963D01*
X164947982Y-111765964D01*
X164888369Y-111772372D01*
X164885396Y-111773075D01*
X164883021Y-111772947D01*
X164880663Y-111773201D01*
X164880621Y-111772818D01*
X164815627Y-111769329D01*
X164758959Y-111728458D01*
X164733383Y-111663438D01*
X164739170Y-111620497D01*
X164737613Y-111620130D01*
X164739398Y-111612572D01*
X164745799Y-111553044D01*
X164745800Y-111553027D01*
X164745800Y-111005200D01*
X161745800Y-111005200D01*
X161745800Y-111553044D01*
X161752201Y-111612572D01*
X161752203Y-111612580D01*
X161788968Y-111711152D01*
X161790405Y-111731251D01*
X161796718Y-111750386D01*
X161793719Y-111777598D01*
X161793952Y-111780844D01*
X161793008Y-111784057D01*
X161792853Y-111785468D01*
X161791231Y-111791751D01*
X161751709Y-111897717D01*
X161745300Y-111957327D01*
X159909300Y-111957327D01*
X159909300Y-110718618D01*
X165395859Y-110718618D01*
X165395859Y-111041463D01*
X166745859Y-111041463D01*
X167245859Y-111041463D01*
X168595859Y-111041463D01*
X168595859Y-110718635D01*
X168595858Y-110718618D01*
X168589457Y-110659090D01*
X168589455Y-110659083D01*
X168539213Y-110524376D01*
X168539209Y-110524369D01*
X168453049Y-110409275D01*
X168453046Y-110409272D01*
X168337952Y-110323112D01*
X168337945Y-110323108D01*
X168203238Y-110272866D01*
X168203231Y-110272864D01*
X168143703Y-110266463D01*
X167245859Y-110266463D01*
X167245859Y-111041463D01*
X166745859Y-111041463D01*
X166745859Y-110266463D01*
X165848014Y-110266463D01*
X165788486Y-110272864D01*
X165788479Y-110272866D01*
X165653772Y-110323108D01*
X165653765Y-110323112D01*
X165538671Y-110409272D01*
X165538668Y-110409275D01*
X165452508Y-110524369D01*
X165452504Y-110524376D01*
X165402262Y-110659083D01*
X165402260Y-110659090D01*
X165395859Y-110718618D01*
X159909300Y-110718618D01*
X159909300Y-108130700D01*
X159928985Y-108063661D01*
X159981789Y-108017906D01*
X160033300Y-108006700D01*
X160169222Y-108006700D01*
X160363626Y-107975909D01*
X160550825Y-107915084D01*
X160726205Y-107825724D01*
X160885446Y-107710028D01*
X161024628Y-107570846D01*
X161140324Y-107411605D01*
X161229684Y-107236225D01*
X161290509Y-107049026D01*
X161321300Y-106854622D01*
X161321300Y-106657777D01*
X161290509Y-106463373D01*
X161229682Y-106276170D01*
X161163239Y-106145768D01*
X161140324Y-106100795D01*
X161024628Y-105941554D01*
X160885446Y-105802372D01*
X160726205Y-105686676D01*
X160580985Y-105612683D01*
X160550828Y-105597317D01*
X160536188Y-105592560D01*
X160478514Y-105553120D01*
X160451318Y-105488760D01*
X160463235Y-105419915D01*
X160510481Y-105368440D01*
X160536193Y-105356698D01*
X160548292Y-105352768D01*
X160758733Y-105245543D01*
X160949810Y-105106717D01*
X161116817Y-104939710D01*
X161255643Y-104748633D01*
X161362868Y-104538192D01*
X161435852Y-104313568D01*
X161461265Y-104153116D01*
X161472799Y-104080297D01*
X161472799Y-103844102D01*
X161436145Y-103612683D01*
X161435852Y-103610831D01*
X161399360Y-103498519D01*
X161362869Y-103386210D01*
X161362867Y-103386207D01*
X161352080Y-103365035D01*
X161255643Y-103175766D01*
X161116817Y-102984690D01*
X160618060Y-102485933D01*
X160426984Y-102347107D01*
X160216546Y-102239883D01*
X159991918Y-102166896D01*
X159758647Y-102129950D01*
X159758642Y-102129950D01*
X159522458Y-102129950D01*
X159522453Y-102129950D01*
X159289181Y-102166896D01*
X159064553Y-102239883D01*
X158854115Y-102347107D01*
X158663038Y-102485934D01*
X158164285Y-102984687D01*
X158164278Y-102984696D01*
X158101617Y-103070940D01*
X158046287Y-103113606D01*
X157976674Y-103119584D01*
X157914879Y-103086977D01*
X157880522Y-103026138D01*
X157877300Y-102998054D01*
X157877300Y-101950897D01*
X157885944Y-101921456D01*
X157892468Y-101891470D01*
X157896222Y-101886454D01*
X157896985Y-101883858D01*
X157913619Y-101863216D01*
X157971816Y-101805019D01*
X158033139Y-101771534D01*
X158059497Y-101768700D01*
X159730131Y-101768700D01*
X159730147Y-101768701D01*
X159737743Y-101768701D01*
X159895854Y-101768701D01*
X159895857Y-101768701D01*
X160048585Y-101727777D01*
X160094315Y-101701374D01*
X160162213Y-101684901D01*
X160194626Y-101690828D01*
X160354432Y-101742753D01*
X160471070Y-101761226D01*
X160587703Y-101779700D01*
X160587708Y-101779700D01*
X160823897Y-101779700D01*
X161057168Y-101742753D01*
X161096848Y-101729860D01*
X161281792Y-101669768D01*
X161492233Y-101562543D01*
X161554629Y-101517209D01*
X161620433Y-101493729D01*
X161688487Y-101509554D01*
X161737183Y-101559659D01*
X161745376Y-101578998D01*
X161749416Y-101591358D01*
X161751709Y-101612683D01*
X161789579Y-101714219D01*
X161790381Y-101716671D01*
X161791366Y-101749143D01*
X161793685Y-101781560D01*
X161792475Y-101785677D01*
X161792501Y-101786509D01*
X161791973Y-101787386D01*
X161788701Y-101798532D01*
X161751709Y-101897714D01*
X161751708Y-101897716D01*
X161748000Y-101932211D01*
X161745301Y-101957323D01*
X161745300Y-101957335D01*
X161745300Y-103553070D01*
X161745301Y-103553076D01*
X161751709Y-103612684D01*
X161788701Y-103711868D01*
X161793685Y-103781560D01*
X161788701Y-103798532D01*
X161751709Y-103897714D01*
X161751708Y-103897716D01*
X161745301Y-103957316D01*
X161745300Y-103957335D01*
X161745300Y-105553070D01*
X161745301Y-105553076D01*
X161751709Y-105612684D01*
X161788701Y-105711868D01*
X161793685Y-105781560D01*
X161788701Y-105798532D01*
X161751709Y-105897714D01*
X161751708Y-105897716D01*
X161745301Y-105957316D01*
X161745301Y-105957323D01*
X161745300Y-105957335D01*
X161745300Y-107553070D01*
X161745301Y-107553076D01*
X161751709Y-107612684D01*
X161788701Y-107711868D01*
X161793685Y-107781560D01*
X161788701Y-107798532D01*
X161751709Y-107897714D01*
X161751708Y-107897716D01*
X161745301Y-107957316D01*
X161745301Y-107957323D01*
X161745300Y-107957335D01*
X161745300Y-109553070D01*
X161745301Y-109553076D01*
X161751708Y-109612683D01*
X161788968Y-109712581D01*
X161793952Y-109782273D01*
X161788968Y-109799246D01*
X161752203Y-109897817D01*
X161752201Y-109897827D01*
X161745800Y-109957355D01*
X161745800Y-110505200D01*
X164745800Y-110505200D01*
X164745800Y-109957372D01*
X164745799Y-109957355D01*
X164739398Y-109897827D01*
X164739396Y-109897820D01*
X164702631Y-109799247D01*
X164697647Y-109729556D01*
X164702631Y-109712581D01*
X164739891Y-109612683D01*
X164746300Y-109553073D01*
X164746299Y-107957328D01*
X164739891Y-107897717D01*
X164702896Y-107798530D01*
X164697913Y-107728842D01*
X164702892Y-107711880D01*
X164739891Y-107612683D01*
X164746300Y-107553073D01*
X164746299Y-106379699D01*
X164765984Y-106312661D01*
X164818787Y-106266906D01*
X164870299Y-106255700D01*
X166030219Y-106255700D01*
X166263490Y-106218753D01*
X166488114Y-106145768D01*
X166698556Y-106038543D01*
X166889632Y-105899717D01*
X168140377Y-104648973D01*
X168279202Y-104457896D01*
X168386427Y-104247455D01*
X168459412Y-104022831D01*
X168467639Y-103970886D01*
X168496359Y-103789555D01*
X168496359Y-99173928D01*
X168497886Y-99154530D01*
X168530899Y-98946097D01*
X168530899Y-98709902D01*
X168500298Y-98516700D01*
X168493952Y-98476632D01*
X168420968Y-98252008D01*
X168344414Y-98101761D01*
X168330899Y-98045466D01*
X168330899Y-97727998D01*
X168330898Y-97727981D01*
X168320399Y-97625203D01*
X168320398Y-97625200D01*
X168265214Y-97458666D01*
X168173112Y-97309344D01*
X168049056Y-97185288D01*
X167964679Y-97133244D01*
X167917956Y-97081297D01*
X167906733Y-97012334D01*
X167934577Y-96948252D01*
X167964681Y-96922167D01*
X168048743Y-96870317D01*
X168172715Y-96746345D01*
X168264756Y-96597124D01*
X168264758Y-96597119D01*
X168319905Y-96430697D01*
X168319906Y-96430690D01*
X168330399Y-96327986D01*
X168330400Y-96327973D01*
X168330400Y-95478000D01*
X165730400Y-95478000D01*
X165730400Y-95658704D01*
X165710715Y-95725743D01*
X165657911Y-95771498D01*
X165588752Y-95781441D01*
X165550106Y-95769188D01*
X165420845Y-95703327D01*
X165256101Y-95649798D01*
X165256099Y-95649797D01*
X165256098Y-95649797D01*
X165124671Y-95628981D01*
X165085011Y-95622700D01*
X165085010Y-95622700D01*
X162424880Y-95622700D01*
X162357841Y-95603015D01*
X162312086Y-95550211D01*
X162302142Y-95481053D01*
X162331167Y-95417497D01*
X162385876Y-95380994D01*
X162424286Y-95368265D01*
X162552321Y-95325840D01*
X162702637Y-95233123D01*
X162827519Y-95108241D01*
X162920236Y-94957925D01*
X162975788Y-94790278D01*
X162986359Y-94686805D01*
X162986359Y-94128013D01*
X165730400Y-94128013D01*
X165730400Y-94978000D01*
X166780400Y-94978000D01*
X167280400Y-94978000D01*
X168330399Y-94978000D01*
X168330399Y-94128028D01*
X168330398Y-94128013D01*
X168319905Y-94025302D01*
X168264758Y-93858880D01*
X168264756Y-93858875D01*
X168172715Y-93709654D01*
X168048745Y-93585684D01*
X167899524Y-93493643D01*
X167899519Y-93493641D01*
X167733097Y-93438494D01*
X167733090Y-93438493D01*
X167630386Y-93428000D01*
X167280400Y-93428000D01*
X167280400Y-94978000D01*
X166780400Y-94978000D01*
X166780400Y-93428000D01*
X166430428Y-93428000D01*
X166430412Y-93428001D01*
X166327702Y-93438494D01*
X166161280Y-93493641D01*
X166161275Y-93493643D01*
X166012054Y-93585684D01*
X165888084Y-93709654D01*
X165796043Y-93858875D01*
X165796041Y-93858880D01*
X165740894Y-94025302D01*
X165740893Y-94025309D01*
X165730400Y-94128013D01*
X162986359Y-94128013D01*
X162986359Y-90882221D01*
X163006044Y-90815182D01*
X163022678Y-90794540D01*
X163033747Y-90783471D01*
X163045963Y-90771255D01*
X163045965Y-90771251D01*
X163045968Y-90771249D01*
X163170907Y-90599283D01*
X163170906Y-90599283D01*
X163170910Y-90599279D01*
X163267416Y-90409875D01*
X163333105Y-90207706D01*
X163366359Y-89997750D01*
X163366359Y-89785176D01*
X163333105Y-89575220D01*
X163267416Y-89373051D01*
X163170910Y-89183647D01*
X163170908Y-89183644D01*
X163170907Y-89183642D01*
X163045968Y-89011676D01*
X162895645Y-88861353D01*
X162723679Y-88736414D01*
X162722974Y-88736054D01*
X162714913Y-88731948D01*
X162664118Y-88683975D01*
X162647322Y-88616155D01*
X162669858Y-88550019D01*
X162714913Y-88510978D01*
X162723675Y-88506514D01*
X162810330Y-88443556D01*
X162895645Y-88381572D01*
X162895647Y-88381569D01*
X162895651Y-88381567D01*
X163045963Y-88231255D01*
X163045965Y-88231251D01*
X163045968Y-88231249D01*
X163170907Y-88059283D01*
X163170906Y-88059283D01*
X163170910Y-88059279D01*
X163267416Y-87869875D01*
X163333105Y-87667706D01*
X163366359Y-87457750D01*
X163366359Y-87245176D01*
X163333105Y-87035220D01*
X163267416Y-86833051D01*
X163170910Y-86643647D01*
X163170908Y-86643644D01*
X163170907Y-86643642D01*
X163045968Y-86471676D01*
X163022678Y-86448386D01*
X162989193Y-86387063D01*
X162986359Y-86360705D01*
X162986359Y-82496126D01*
X162986358Y-82496113D01*
X162986037Y-82492972D01*
X162975788Y-82392648D01*
X162920236Y-82225001D01*
X162920232Y-82224995D01*
X162920231Y-82224992D01*
X162827521Y-82074688D01*
X162827518Y-82074684D01*
X162702637Y-81949803D01*
X162702633Y-81949800D01*
X162552329Y-81857090D01*
X162552323Y-81857087D01*
X162552321Y-81857086D01*
X162552318Y-81857085D01*
X162384675Y-81801534D01*
X162281208Y-81790963D01*
X162281201Y-81790963D01*
X161670517Y-81790963D01*
X161670509Y-81790963D01*
X161567042Y-81801534D01*
X161399399Y-81857085D01*
X161399388Y-81857090D01*
X161249084Y-81949800D01*
X161249080Y-81949803D01*
X161124199Y-82074684D01*
X161124196Y-82074688D01*
X161031486Y-82224992D01*
X161031481Y-82225003D01*
X160975930Y-82392646D01*
X160965359Y-82496113D01*
X160965359Y-86459452D01*
X160959675Y-86478808D01*
X160958894Y-86498967D01*
X160946969Y-86522080D01*
X160945674Y-86526491D01*
X160943001Y-86530480D01*
X160942331Y-86531437D01*
X160860808Y-86643647D01*
X160852434Y-86660081D01*
X160847501Y-86667141D01*
X160826681Y-86683814D01*
X160808368Y-86703205D01*
X160799829Y-86705319D01*
X160792965Y-86710817D01*
X160766436Y-86713588D01*
X160740547Y-86719999D01*
X160732222Y-86717162D01*
X160723473Y-86718076D01*
X160699657Y-86706064D01*
X160674412Y-86697461D01*
X160668056Y-86690126D01*
X160661089Y-86686612D01*
X160652752Y-86672463D01*
X160635375Y-86652409D01*
X160630909Y-86643645D01*
X160505968Y-86471676D01*
X160482678Y-86448386D01*
X160449193Y-86387063D01*
X160446359Y-86360705D01*
X160446359Y-82496126D01*
X160446358Y-82496113D01*
X160446037Y-82492972D01*
X160435788Y-82392648D01*
X160380236Y-82225001D01*
X160380232Y-82224995D01*
X160380231Y-82224992D01*
X160287521Y-82074688D01*
X160287518Y-82074684D01*
X160162637Y-81949803D01*
X160162633Y-81949800D01*
X160012329Y-81857090D01*
X160012323Y-81857087D01*
X160012321Y-81857086D01*
X160012318Y-81857085D01*
X159844675Y-81801534D01*
X159741208Y-81790963D01*
X159741201Y-81790963D01*
X159130517Y-81790963D01*
X159130509Y-81790963D01*
X159027042Y-81801534D01*
X158859399Y-81857085D01*
X158859388Y-81857090D01*
X158709084Y-81949800D01*
X158709080Y-81949803D01*
X158584199Y-82074684D01*
X158584196Y-82074688D01*
X158491486Y-82224992D01*
X158491481Y-82225003D01*
X158435930Y-82392646D01*
X158425359Y-82496113D01*
X158425359Y-86459452D01*
X158419675Y-86478808D01*
X158418894Y-86498967D01*
X158406969Y-86522080D01*
X158405674Y-86526491D01*
X158403001Y-86530480D01*
X158402331Y-86531437D01*
X158320808Y-86643647D01*
X158312434Y-86660081D01*
X158307501Y-86667141D01*
X158286681Y-86683814D01*
X158268368Y-86703205D01*
X158259829Y-86705319D01*
X158252965Y-86710817D01*
X158226436Y-86713588D01*
X158200547Y-86719999D01*
X158192222Y-86717162D01*
X158183473Y-86718076D01*
X158159657Y-86706064D01*
X158134412Y-86697461D01*
X158128056Y-86690126D01*
X158121089Y-86686612D01*
X158112752Y-86672463D01*
X158095375Y-86652409D01*
X158090909Y-86643645D01*
X157965968Y-86471676D01*
X157942678Y-86448386D01*
X157909193Y-86387063D01*
X157906359Y-86360705D01*
X157906359Y-82496126D01*
X157906358Y-82496113D01*
X157906037Y-82492972D01*
X157895788Y-82392648D01*
X157840236Y-82225001D01*
X157840232Y-82224995D01*
X157840231Y-82224992D01*
X157747521Y-82074688D01*
X157747518Y-82074684D01*
X157622637Y-81949803D01*
X157622633Y-81949800D01*
X157472329Y-81857090D01*
X157472323Y-81857087D01*
X157472321Y-81857086D01*
X157472318Y-81857085D01*
X157304675Y-81801534D01*
X157201208Y-81790963D01*
X157201201Y-81790963D01*
X156590517Y-81790963D01*
X156590509Y-81790963D01*
X156487042Y-81801534D01*
X156319399Y-81857085D01*
X156319388Y-81857090D01*
X156169084Y-81949800D01*
X156169080Y-81949803D01*
X156044199Y-82074684D01*
X156044196Y-82074688D01*
X155951486Y-82224992D01*
X155951481Y-82225003D01*
X155895930Y-82392646D01*
X155885359Y-82496113D01*
X155885359Y-86459452D01*
X155879675Y-86478808D01*
X155878894Y-86498967D01*
X155866969Y-86522080D01*
X155865674Y-86526491D01*
X155863001Y-86530480D01*
X155862331Y-86531437D01*
X155780808Y-86643647D01*
X155772434Y-86660081D01*
X155767501Y-86667141D01*
X155746681Y-86683814D01*
X155728368Y-86703205D01*
X155719829Y-86705319D01*
X155712965Y-86710817D01*
X155686436Y-86713588D01*
X155660547Y-86719999D01*
X155652222Y-86717162D01*
X155643473Y-86718076D01*
X155619657Y-86706064D01*
X155594412Y-86697461D01*
X155588056Y-86690126D01*
X155581089Y-86686612D01*
X155572752Y-86672463D01*
X155555375Y-86652409D01*
X155550909Y-86643645D01*
X155425968Y-86471676D01*
X155402678Y-86448386D01*
X155369193Y-86387063D01*
X155366359Y-86360705D01*
X155366359Y-82496126D01*
X155366358Y-82496113D01*
X155366037Y-82492972D01*
X155355788Y-82392648D01*
X155300236Y-82225001D01*
X155300232Y-82224995D01*
X155300231Y-82224992D01*
X155207521Y-82074688D01*
X155207518Y-82074684D01*
X155082637Y-81949803D01*
X155082633Y-81949800D01*
X154932329Y-81857090D01*
X154932323Y-81857087D01*
X154932321Y-81857086D01*
X154932318Y-81857085D01*
X154764675Y-81801534D01*
X154661208Y-81790963D01*
X154661201Y-81790963D01*
X154050517Y-81790963D01*
X154050509Y-81790963D01*
X153947042Y-81801534D01*
X153779399Y-81857085D01*
X153779388Y-81857090D01*
X153629084Y-81949800D01*
X153629080Y-81949803D01*
X153504199Y-82074684D01*
X153504196Y-82074688D01*
X153411486Y-82224992D01*
X153411481Y-82225003D01*
X153355930Y-82392646D01*
X153345359Y-82496113D01*
X153345359Y-86459452D01*
X153339675Y-86478808D01*
X153338894Y-86498967D01*
X153326969Y-86522080D01*
X153325674Y-86526491D01*
X153323001Y-86530480D01*
X153322331Y-86531437D01*
X153240808Y-86643647D01*
X153232434Y-86660081D01*
X153227501Y-86667141D01*
X153206681Y-86683814D01*
X153188368Y-86703205D01*
X153179829Y-86705319D01*
X153172965Y-86710817D01*
X153146436Y-86713588D01*
X153120547Y-86719999D01*
X153112222Y-86717162D01*
X153103473Y-86718076D01*
X153079657Y-86706064D01*
X153054412Y-86697461D01*
X153048056Y-86690126D01*
X153041089Y-86686612D01*
X153032752Y-86672463D01*
X153015375Y-86652409D01*
X153010909Y-86643645D01*
X152885968Y-86471676D01*
X152862678Y-86448386D01*
X152829193Y-86387063D01*
X152826359Y-86360705D01*
X152826359Y-82496126D01*
X152826358Y-82496113D01*
X152826037Y-82492972D01*
X152815788Y-82392648D01*
X152760236Y-82225001D01*
X152760232Y-82224995D01*
X152760231Y-82224992D01*
X152667521Y-82074688D01*
X152667518Y-82074684D01*
X152542637Y-81949803D01*
X152542633Y-81949800D01*
X152392329Y-81857090D01*
X152392323Y-81857087D01*
X152392321Y-81857086D01*
X152392318Y-81857085D01*
X152224675Y-81801534D01*
X152121208Y-81790963D01*
X152121201Y-81790963D01*
X151510517Y-81790963D01*
X151510509Y-81790963D01*
X151407042Y-81801534D01*
X151239399Y-81857085D01*
X151239388Y-81857090D01*
X151089084Y-81949800D01*
X151089080Y-81949803D01*
X150964199Y-82074684D01*
X150964196Y-82074688D01*
X150871486Y-82224992D01*
X150871481Y-82225003D01*
X150815930Y-82392646D01*
X150805359Y-82496113D01*
X150805359Y-86459452D01*
X150799675Y-86478808D01*
X150798894Y-86498967D01*
X150786969Y-86522080D01*
X150785674Y-86526491D01*
X150783001Y-86530480D01*
X150782331Y-86531437D01*
X150700808Y-86643647D01*
X150692434Y-86660081D01*
X150687501Y-86667141D01*
X150666681Y-86683814D01*
X150648368Y-86703205D01*
X150639829Y-86705319D01*
X150632965Y-86710817D01*
X150606436Y-86713588D01*
X150580547Y-86719999D01*
X150572222Y-86717162D01*
X150563473Y-86718076D01*
X150539657Y-86706064D01*
X150514412Y-86697461D01*
X150508056Y-86690126D01*
X150501089Y-86686612D01*
X150492752Y-86672463D01*
X150475375Y-86652409D01*
X150470909Y-86643645D01*
X150345968Y-86471676D01*
X150322678Y-86448386D01*
X150289193Y-86387063D01*
X150286359Y-86360705D01*
X150286359Y-82496126D01*
X150286358Y-82496113D01*
X150286037Y-82492972D01*
X150275788Y-82392648D01*
X150220236Y-82225001D01*
X150220232Y-82224995D01*
X150220231Y-82224992D01*
X150127521Y-82074688D01*
X150127518Y-82074684D01*
X150002637Y-81949803D01*
X150002633Y-81949800D01*
X149852329Y-81857090D01*
X149852323Y-81857087D01*
X149852321Y-81857086D01*
X149852318Y-81857085D01*
X149684675Y-81801534D01*
X149581208Y-81790963D01*
X149581201Y-81790963D01*
X148970517Y-81790963D01*
X148970509Y-81790963D01*
X148867042Y-81801534D01*
X148699399Y-81857085D01*
X148699388Y-81857090D01*
X148549084Y-81949800D01*
X148549080Y-81949803D01*
X148424199Y-82074684D01*
X148424196Y-82074688D01*
X148331486Y-82224992D01*
X148331481Y-82225003D01*
X148275930Y-82392646D01*
X148265359Y-82496113D01*
X148265359Y-86148835D01*
X148245674Y-86215874D01*
X148192870Y-86261629D01*
X148123712Y-86271573D01*
X148060156Y-86242548D01*
X148042093Y-86223147D01*
X147983046Y-86144272D01*
X147867951Y-86058111D01*
X147867950Y-86058110D01*
X147826523Y-86042659D01*
X147770590Y-86000787D01*
X147746174Y-85935323D01*
X147745858Y-85926478D01*
X147745858Y-85041463D01*
X145725859Y-85041463D01*
X145725859Y-85964532D01*
X145706174Y-86031571D01*
X145676171Y-86063798D01*
X145568668Y-86144275D01*
X145482508Y-86259369D01*
X145482504Y-86259376D01*
X145432262Y-86394083D01*
X145432260Y-86394090D01*
X145425859Y-86453618D01*
X145425859Y-87101463D01*
X146342847Y-87101463D01*
X146309934Y-87158470D01*
X146275859Y-87285637D01*
X146275859Y-87417289D01*
X146309934Y-87544456D01*
X146342847Y-87601463D01*
X145425859Y-87601463D01*
X145425859Y-88249307D01*
X145432260Y-88308835D01*
X145432262Y-88308842D01*
X145482504Y-88443549D01*
X145482508Y-88443556D01*
X145568668Y-88558650D01*
X145568671Y-88558653D01*
X145683765Y-88644813D01*
X145683772Y-88644817D01*
X145815329Y-88693885D01*
X145871263Y-88735756D01*
X145895680Y-88801221D01*
X145880828Y-88869494D01*
X145859678Y-88897748D01*
X145745748Y-89011678D01*
X145620810Y-89183642D01*
X145524303Y-89373048D01*
X145458612Y-89575223D01*
X145425359Y-89785176D01*
X145425359Y-89997749D01*
X145458612Y-90207702D01*
X145524303Y-90409877D01*
X145620810Y-90599283D01*
X145748618Y-90775197D01*
X145747747Y-90775829D01*
X145774216Y-90834864D01*
X145775359Y-90851662D01*
X145775359Y-92200028D01*
X145755674Y-92267067D01*
X145739040Y-92287709D01*
X143531067Y-94495682D01*
X141780021Y-96246728D01*
X141780018Y-96246731D01*
X141736126Y-96290623D01*
X141640659Y-96386089D01*
X141640657Y-96386092D01*
X141531169Y-96549952D01*
X141522250Y-96571484D01*
X141495372Y-96611706D01*
X141025882Y-97081196D01*
X140964559Y-97114681D01*
X140894867Y-97109697D01*
X140838934Y-97067825D01*
X140814517Y-97002361D01*
X140814201Y-96993511D01*
X140816849Y-82496144D01*
X145725859Y-82496144D01*
X145725859Y-84541463D01*
X146485859Y-84541463D01*
X146985859Y-84541463D01*
X147745858Y-84541463D01*
X147745858Y-82496159D01*
X147745857Y-82496144D01*
X147735294Y-82392747D01*
X147679780Y-82225216D01*
X147679778Y-82225211D01*
X147587123Y-82074995D01*
X147462326Y-81950198D01*
X147312110Y-81857543D01*
X147312105Y-81857541D01*
X147144574Y-81802027D01*
X147041177Y-81791463D01*
X146985859Y-81791463D01*
X146985859Y-84541463D01*
X146485859Y-84541463D01*
X146485859Y-81791463D01*
X146485858Y-81791462D01*
X146430555Y-81791463D01*
X146430538Y-81791464D01*
X146327143Y-81802027D01*
X146159612Y-81857541D01*
X146159607Y-81857543D01*
X146009391Y-81950198D01*
X145884594Y-82074995D01*
X145791939Y-82225211D01*
X145791937Y-82225216D01*
X145736423Y-82392747D01*
X145725859Y-82496144D01*
X140816849Y-82496144D01*
X140817320Y-79917116D01*
X140817333Y-79917071D01*
X140817333Y-79855202D01*
X140817599Y-79847121D01*
X140821981Y-79780282D01*
X140834252Y-79593081D01*
X140836369Y-79577005D01*
X140877547Y-79370001D01*
X140885248Y-79331288D01*
X140889439Y-79315643D01*
X140969974Y-79078404D01*
X140976181Y-79063421D01*
X140978718Y-79058276D01*
X141086993Y-78838721D01*
X141095085Y-78824706D01*
X141234296Y-78616367D01*
X141244142Y-78603536D01*
X141409341Y-78415167D01*
X141420799Y-78403709D01*
X141609173Y-78238513D01*
X141622017Y-78228658D01*
X141830330Y-78089472D01*
X141844376Y-78081363D01*
X141854343Y-78076448D01*
X142069066Y-77970561D01*
X142084042Y-77964358D01*
X142321288Y-77883828D01*
X142336926Y-77879637D01*
X142582659Y-77830761D01*
X142598721Y-77828647D01*
X142853693Y-77811938D01*
X142861750Y-77811674D01*
X142922719Y-77811675D01*
X142922772Y-77811660D01*
X167271190Y-77806790D01*
X167279279Y-77807055D01*
G37*
%TD.AperFunction*%
%TA.AperFunction,Conductor*%
G36*
X145651332Y-105512309D02*
G01*
X145674696Y-105514497D01*
X145684236Y-105521971D01*
X145695862Y-105525385D01*
X145711224Y-105543114D01*
X145729697Y-105557586D01*
X145738510Y-105574603D01*
X145741617Y-105578189D01*
X145743025Y-105583323D01*
X145745928Y-105588927D01*
X145750596Y-105602336D01*
X145751709Y-105612683D01*
X145789160Y-105713095D01*
X145789624Y-105714427D01*
X145791285Y-105748012D01*
X145793685Y-105781560D01*
X145793007Y-105782801D01*
X145793077Y-105784211D01*
X145788701Y-105798532D01*
X145751709Y-105897714D01*
X145751708Y-105897716D01*
X145745301Y-105957316D01*
X145745301Y-105957323D01*
X145745300Y-105957335D01*
X145745300Y-107553070D01*
X145745301Y-107553076D01*
X145751709Y-107612684D01*
X145788701Y-107711868D01*
X145793685Y-107781560D01*
X145788701Y-107798532D01*
X145751709Y-107897714D01*
X145751708Y-107897716D01*
X145745301Y-107957316D01*
X145745301Y-107957323D01*
X145745300Y-107957335D01*
X145745300Y-109553070D01*
X145745301Y-109553076D01*
X145751709Y-109612684D01*
X145788701Y-109711868D01*
X145793685Y-109781560D01*
X145788701Y-109798532D01*
X145751709Y-109897714D01*
X145751708Y-109897716D01*
X145745301Y-109957316D01*
X145745301Y-109957323D01*
X145745300Y-109957335D01*
X145745300Y-111553070D01*
X145745301Y-111553076D01*
X145751708Y-111612683D01*
X145788968Y-111712581D01*
X145793952Y-111782273D01*
X145788968Y-111799246D01*
X145752203Y-111897817D01*
X145752201Y-111897827D01*
X145745800Y-111957355D01*
X145745800Y-112505200D01*
X148745800Y-112505200D01*
X148745800Y-111957372D01*
X148745799Y-111957355D01*
X148739398Y-111897827D01*
X148739396Y-111897820D01*
X148702631Y-111799247D01*
X148697647Y-111729556D01*
X148702631Y-111712581D01*
X148739891Y-111612683D01*
X148746300Y-111553073D01*
X148746299Y-109957328D01*
X148739891Y-109897717D01*
X148702896Y-109798530D01*
X148697913Y-109728842D01*
X148702892Y-109711880D01*
X148739891Y-109612683D01*
X148746300Y-109553073D01*
X148746300Y-109479700D01*
X148765985Y-109412661D01*
X148818789Y-109366906D01*
X148870300Y-109355700D01*
X149857103Y-109355700D01*
X149886543Y-109364344D01*
X149916530Y-109370868D01*
X149921545Y-109374622D01*
X149924142Y-109375385D01*
X149944784Y-109392019D01*
X150035539Y-109482774D01*
X150035549Y-109482785D01*
X150039879Y-109487115D01*
X150039880Y-109487116D01*
X150151684Y-109598920D01*
X150151686Y-109598921D01*
X150151690Y-109598924D01*
X150288609Y-109677973D01*
X150288616Y-109677977D01*
X150400419Y-109707934D01*
X150441342Y-109718900D01*
X150441343Y-109718900D01*
X156123331Y-109718900D01*
X156123347Y-109718901D01*
X156130943Y-109718901D01*
X156289054Y-109718901D01*
X156289057Y-109718901D01*
X156441785Y-109677977D01*
X156456014Y-109669761D01*
X156494282Y-109647668D01*
X156494293Y-109647660D01*
X156494305Y-109647654D01*
X156578716Y-109598920D01*
X156690520Y-109487116D01*
X156690520Y-109487114D01*
X156700724Y-109476911D01*
X156700728Y-109476906D01*
X157747113Y-108430521D01*
X157747116Y-108430520D01*
X157858920Y-108318716D01*
X157909039Y-108231904D01*
X157937977Y-108181785D01*
X157978900Y-108029057D01*
X157978900Y-107870943D01*
X157978900Y-107417085D01*
X157998585Y-107350046D01*
X158051389Y-107304291D01*
X158120547Y-107294347D01*
X158184103Y-107323372D01*
X158213385Y-107360791D01*
X158239274Y-107411603D01*
X158274034Y-107459446D01*
X158354972Y-107570846D01*
X158494154Y-107710028D01*
X158653394Y-107825723D01*
X158657186Y-107828478D01*
X158699851Y-107883808D01*
X158708300Y-107928796D01*
X158708300Y-114584102D01*
X158688615Y-114651141D01*
X158671981Y-114671783D01*
X158385184Y-114958581D01*
X158323861Y-114992066D01*
X158297503Y-114994900D01*
X145791298Y-114994900D01*
X145724259Y-114975215D01*
X145703617Y-114958581D01*
X144298080Y-113553044D01*
X145745800Y-113553044D01*
X145752201Y-113612572D01*
X145752203Y-113612579D01*
X145802445Y-113747286D01*
X145802449Y-113747293D01*
X145888609Y-113862387D01*
X145888612Y-113862390D01*
X146003706Y-113948550D01*
X146003713Y-113948554D01*
X146138420Y-113998796D01*
X146138427Y-113998798D01*
X146197955Y-114005199D01*
X146197972Y-114005200D01*
X146995800Y-114005200D01*
X147495800Y-114005200D01*
X148293628Y-114005200D01*
X148293644Y-114005199D01*
X148353172Y-113998798D01*
X148353179Y-113998796D01*
X148487886Y-113948554D01*
X148487893Y-113948550D01*
X148602987Y-113862390D01*
X148602990Y-113862387D01*
X148689150Y-113747293D01*
X148689154Y-113747286D01*
X148739396Y-113612579D01*
X148739398Y-113612572D01*
X148745799Y-113553044D01*
X148745800Y-113553027D01*
X148745800Y-113005200D01*
X147495800Y-113005200D01*
X147495800Y-114005200D01*
X146995800Y-114005200D01*
X146995800Y-113005200D01*
X145745800Y-113005200D01*
X145745800Y-113553044D01*
X144298080Y-113553044D01*
X142991119Y-112246083D01*
X142957634Y-112184760D01*
X142954800Y-112158402D01*
X142954800Y-108238378D01*
X142974485Y-108171339D01*
X143027289Y-108125584D01*
X143096447Y-108115640D01*
X143102992Y-108116761D01*
X143208256Y-108137700D01*
X143208259Y-108137700D01*
X143405343Y-108137700D01*
X143535382Y-108111832D01*
X143598635Y-108099251D01*
X143768102Y-108029056D01*
X143780707Y-108023835D01*
X143780707Y-108023834D01*
X143780714Y-108023832D01*
X143944582Y-107914339D01*
X144083939Y-107774982D01*
X144193432Y-107611114D01*
X144268851Y-107429035D01*
X144291579Y-107314776D01*
X144307300Y-107235743D01*
X144307300Y-105629700D01*
X144326985Y-105562661D01*
X144379789Y-105516906D01*
X144431300Y-105505700D01*
X145628823Y-105505700D01*
X145651332Y-105512309D01*
G37*
%TD.AperFunction*%
%TA.AperFunction,Conductor*%
G36*
X156582197Y-101507547D02*
G01*
X156595633Y-101508508D01*
X156613358Y-101521777D01*
X156633501Y-101530976D01*
X156640784Y-101542308D01*
X156651566Y-101550380D01*
X156659303Y-101571124D01*
X156671276Y-101589754D01*
X156674427Y-101611674D01*
X156675983Y-101615844D01*
X156676298Y-101624688D01*
X156676299Y-101624689D01*
X156676299Y-101729857D01*
X156676299Y-101729859D01*
X156676300Y-101739858D01*
X156676300Y-103484302D01*
X156656615Y-103551341D01*
X156639981Y-103571983D01*
X154093584Y-106118381D01*
X154032261Y-106151866D01*
X154005903Y-106154700D01*
X148870299Y-106154700D01*
X148803260Y-106135015D01*
X148757505Y-106082211D01*
X148746299Y-106030700D01*
X148746299Y-105957329D01*
X148746298Y-105957323D01*
X148746297Y-105957316D01*
X148739891Y-105897717D01*
X148702896Y-105798530D01*
X148701462Y-105778474D01*
X148695150Y-105759384D01*
X148698588Y-105738291D01*
X148697913Y-105728842D01*
X148698991Y-105724300D01*
X148700615Y-105717985D01*
X148739891Y-105612683D01*
X148746300Y-105553073D01*
X148746299Y-105540441D01*
X148750211Y-105525242D01*
X148760260Y-105508378D01*
X148765717Y-105489519D01*
X148777780Y-105478981D01*
X148785980Y-105465223D01*
X148803553Y-105456469D01*
X148818339Y-105443554D01*
X148834183Y-105441211D01*
X148848520Y-105434070D01*
X148868034Y-105436206D01*
X148887457Y-105433335D01*
X148894478Y-105434522D01*
X148930439Y-105441675D01*
X148948658Y-105445300D01*
X148948659Y-105445300D01*
X149145743Y-105445300D01*
X149312757Y-105412078D01*
X149339035Y-105406851D01*
X149456951Y-105358008D01*
X149526416Y-105350540D01*
X149551845Y-105358006D01*
X149669764Y-105406851D01*
X149842503Y-105441211D01*
X149863055Y-105445299D01*
X149863058Y-105445300D01*
X149863060Y-105445300D01*
X150060142Y-105445300D01*
X150060143Y-105445299D01*
X150253436Y-105406851D01*
X150435514Y-105331431D01*
X150599381Y-105221939D01*
X150599384Y-105221936D01*
X150714166Y-105107155D01*
X150775489Y-105073670D01*
X150845181Y-105078654D01*
X150889528Y-105107155D01*
X150914490Y-105132117D01*
X151105566Y-105270943D01*
X151204992Y-105321603D01*
X151316003Y-105378166D01*
X151316005Y-105378166D01*
X151316008Y-105378168D01*
X151404282Y-105406850D01*
X151540631Y-105451153D01*
X151773903Y-105488100D01*
X151773908Y-105488100D01*
X152010097Y-105488100D01*
X152243368Y-105451153D01*
X152467992Y-105378168D01*
X152678434Y-105270943D01*
X152869510Y-105132117D01*
X156464618Y-101537009D01*
X156484051Y-101526397D01*
X156500787Y-101511896D01*
X156514119Y-101509978D01*
X156525941Y-101503524D01*
X156548027Y-101505103D01*
X156569945Y-101501952D01*
X156582197Y-101507547D01*
G37*
%TD.AperFunction*%
%TA.AperFunction,Conductor*%
G36*
X149615339Y-101506585D02*
G01*
X149661094Y-101559389D01*
X149672300Y-101610900D01*
X149672300Y-102412603D01*
X149666667Y-102431783D01*
X149665954Y-102451764D01*
X149657024Y-102464624D01*
X149652615Y-102479642D01*
X149637509Y-102492731D01*
X149626105Y-102509156D01*
X149602156Y-102523364D01*
X149599811Y-102525397D01*
X149595782Y-102527151D01*
X149526449Y-102555869D01*
X149456982Y-102563337D01*
X149431552Y-102555869D01*
X149339035Y-102517549D01*
X149339031Y-102517548D01*
X149339028Y-102517547D01*
X149145743Y-102479100D01*
X149145741Y-102479100D01*
X148948659Y-102479100D01*
X148948654Y-102479100D01*
X148894490Y-102489874D01*
X148824898Y-102483647D01*
X148769721Y-102440783D01*
X148746477Y-102374894D01*
X148746299Y-102368257D01*
X148746299Y-101957329D01*
X148746298Y-101957323D01*
X148746297Y-101957316D01*
X148739891Y-101897717D01*
X148702896Y-101798530D01*
X148701226Y-101775174D01*
X148695107Y-101752569D01*
X148698384Y-101735441D01*
X148697913Y-101728842D01*
X148700870Y-101717748D01*
X148701804Y-101714797D01*
X148739891Y-101612683D01*
X148742836Y-101585289D01*
X148746588Y-101573448D01*
X148759437Y-101554356D01*
X148768245Y-101533094D01*
X148778577Y-101525920D01*
X148785601Y-101515485D01*
X148806735Y-101506369D01*
X148825638Y-101493246D01*
X148844104Y-101490253D01*
X148849758Y-101487815D01*
X148854404Y-101488584D01*
X148864797Y-101486900D01*
X149548300Y-101486900D01*
X149615339Y-101506585D01*
G37*
%TD.AperFunction*%
%TA.AperFunction,Conductor*%
G36*
X158214880Y-90524191D02*
G01*
X158218740Y-90523483D01*
X158247684Y-90535369D01*
X158277303Y-90545462D01*
X158280088Y-90548676D01*
X158283372Y-90550025D01*
X158307500Y-90575783D01*
X158312432Y-90582841D01*
X158320808Y-90599279D01*
X158402364Y-90711532D01*
X158403000Y-90712442D01*
X158413781Y-90744511D01*
X158425157Y-90776392D01*
X158424888Y-90777546D01*
X158425266Y-90778669D01*
X158425359Y-90783471D01*
X158425359Y-94686812D01*
X158435930Y-94790279D01*
X158491481Y-94957922D01*
X158491486Y-94957933D01*
X158584196Y-95108237D01*
X158584199Y-95108241D01*
X158610886Y-95134928D01*
X158644371Y-95196251D01*
X158639387Y-95265943D01*
X158597515Y-95321876D01*
X158579500Y-95333094D01*
X158369965Y-95439857D01*
X158178888Y-95578684D01*
X158178887Y-95578685D01*
X151884981Y-101872592D01*
X151823658Y-101906077D01*
X151753966Y-101901093D01*
X151698033Y-101859221D01*
X151673616Y-101793757D01*
X151673300Y-101784911D01*
X151673300Y-99418656D01*
X151634852Y-99225370D01*
X151634851Y-99225369D01*
X151634851Y-99225365D01*
X151605684Y-99154948D01*
X151559435Y-99043292D01*
X151559428Y-99043279D01*
X151449939Y-98879418D01*
X151449936Y-98879414D01*
X151310585Y-98740063D01*
X151310581Y-98740060D01*
X151146720Y-98630571D01*
X151146707Y-98630564D01*
X150964639Y-98555150D01*
X150964629Y-98555147D01*
X150771343Y-98516700D01*
X150771341Y-98516700D01*
X150574259Y-98516700D01*
X150574257Y-98516700D01*
X150380970Y-98555147D01*
X150380960Y-98555150D01*
X150198892Y-98630564D01*
X150198879Y-98630571D01*
X150035018Y-98740060D01*
X150035014Y-98740063D01*
X149895663Y-98879414D01*
X149895660Y-98879418D01*
X149786171Y-99043279D01*
X149786164Y-99043292D01*
X149710750Y-99225360D01*
X149710747Y-99225370D01*
X149672300Y-99418656D01*
X149672300Y-99861900D01*
X149652615Y-99928939D01*
X149599811Y-99974694D01*
X149548300Y-99985900D01*
X148858843Y-99985900D01*
X148837581Y-99979656D01*
X148815477Y-99978070D01*
X148804708Y-99970004D01*
X148791804Y-99966215D01*
X148777294Y-99949470D01*
X148759555Y-99936183D01*
X148752234Y-99920549D01*
X148746049Y-99913411D01*
X148742649Y-99905202D01*
X148739903Y-99897835D01*
X148739891Y-99897717D01*
X148702618Y-99797785D01*
X148700081Y-99762170D01*
X148697647Y-99728127D01*
X148697654Y-99728101D01*
X148697654Y-99728094D01*
X148697659Y-99728083D01*
X148702631Y-99711151D01*
X148739397Y-99612576D01*
X148739398Y-99612572D01*
X148745799Y-99553044D01*
X148745800Y-99553027D01*
X148745800Y-99005200D01*
X145745800Y-99005200D01*
X145745800Y-99553044D01*
X145752201Y-99612572D01*
X145752203Y-99612580D01*
X145788968Y-99711152D01*
X145793952Y-99780844D01*
X145788968Y-99797817D01*
X145751709Y-99897714D01*
X145751708Y-99897716D01*
X145745301Y-99957316D01*
X145745300Y-99957335D01*
X145745300Y-101553070D01*
X145745301Y-101553076D01*
X145751709Y-101612684D01*
X145788701Y-101711868D01*
X145790492Y-101736915D01*
X145796367Y-101761328D01*
X145793301Y-101776203D01*
X145793685Y-101781560D01*
X145789624Y-101795972D01*
X145789155Y-101797318D01*
X145751709Y-101897717D01*
X145750596Y-101908066D01*
X145745929Y-101921472D01*
X145733531Y-101938814D01*
X145725371Y-101958512D01*
X145713617Y-101966672D01*
X145705296Y-101978312D01*
X145685490Y-101986198D01*
X145667977Y-101998357D01*
X145646026Y-102001913D01*
X145640384Y-102004160D01*
X145636647Y-102003432D01*
X145628824Y-102004700D01*
X145320300Y-102004700D01*
X145253261Y-101985015D01*
X145207506Y-101932211D01*
X145196300Y-101880700D01*
X145196300Y-100815656D01*
X145157852Y-100622370D01*
X145157851Y-100622369D01*
X145157851Y-100622365D01*
X145152159Y-100608623D01*
X145082435Y-100440292D01*
X145082428Y-100440279D01*
X144972939Y-100276418D01*
X144972936Y-100276414D01*
X144833585Y-100137063D01*
X144833581Y-100137060D01*
X144669720Y-100027571D01*
X144669707Y-100027564D01*
X144487639Y-99952150D01*
X144487629Y-99952147D01*
X144294343Y-99913700D01*
X144294341Y-99913700D01*
X144097259Y-99913700D01*
X144097254Y-99913700D01*
X143918059Y-99949344D01*
X143848467Y-99943117D01*
X143793290Y-99900254D01*
X143770046Y-99834364D01*
X143786114Y-99766367D01*
X143806180Y-99740054D01*
X145534121Y-98012113D01*
X145595442Y-97978630D01*
X145665134Y-97983614D01*
X145721067Y-98025486D01*
X145745484Y-98090950D01*
X145745800Y-98099796D01*
X145745800Y-98505200D01*
X148745800Y-98505200D01*
X148745800Y-97957372D01*
X148745799Y-97957355D01*
X148739398Y-97897827D01*
X148739396Y-97897820D01*
X148689154Y-97763113D01*
X148689150Y-97763106D01*
X148603738Y-97649011D01*
X148579320Y-97583547D01*
X148594171Y-97515274D01*
X148643576Y-97465868D01*
X148703004Y-97450700D01*
X152491131Y-97450700D01*
X152491147Y-97450701D01*
X152498743Y-97450701D01*
X152656854Y-97450701D01*
X152656857Y-97450701D01*
X152809585Y-97409777D01*
X152859704Y-97380839D01*
X152946516Y-97330720D01*
X153058320Y-97218916D01*
X153058320Y-97218914D01*
X153068528Y-97208707D01*
X153068529Y-97208704D01*
X154876379Y-95400857D01*
X154897053Y-95365046D01*
X154939343Y-95321509D01*
X155029428Y-95265943D01*
X155082637Y-95233123D01*
X155207519Y-95108241D01*
X155300236Y-94957925D01*
X155355788Y-94790278D01*
X155366359Y-94686805D01*
X155366359Y-90882221D01*
X155386044Y-90815182D01*
X155402678Y-90794540D01*
X155413747Y-90783471D01*
X155425963Y-90771255D01*
X155425965Y-90771251D01*
X155425968Y-90771249D01*
X155550907Y-90599283D01*
X155550906Y-90599283D01*
X155550910Y-90599279D01*
X155555373Y-90590517D01*
X155558067Y-90587666D01*
X155559026Y-90583862D01*
X155581862Y-90562470D01*
X155603347Y-90539722D01*
X155607154Y-90538778D01*
X155610018Y-90536097D01*
X155640794Y-90530447D01*
X155671167Y-90522926D01*
X155674880Y-90524191D01*
X155678740Y-90523483D01*
X155707684Y-90535369D01*
X155737303Y-90545462D01*
X155740792Y-90548965D01*
X155743372Y-90550025D01*
X155750206Y-90558418D01*
X155767500Y-90575783D01*
X155772432Y-90582841D01*
X155780808Y-90599279D01*
X155862364Y-90711532D01*
X155863000Y-90712442D01*
X155873781Y-90744511D01*
X155885157Y-90776392D01*
X155885217Y-90778525D01*
X155885266Y-90778669D01*
X155885226Y-90778825D01*
X155885359Y-90783471D01*
X155885359Y-94686812D01*
X155895930Y-94790279D01*
X155951481Y-94957922D01*
X155951486Y-94957933D01*
X156044196Y-95108237D01*
X156044199Y-95108241D01*
X156169080Y-95233122D01*
X156169084Y-95233125D01*
X156319388Y-95325835D01*
X156319391Y-95325836D01*
X156319397Y-95325840D01*
X156487044Y-95381392D01*
X156590517Y-95391963D01*
X156590522Y-95391963D01*
X157201196Y-95391963D01*
X157201201Y-95391963D01*
X157304674Y-95381392D01*
X157472321Y-95325840D01*
X157622637Y-95233123D01*
X157747519Y-95108241D01*
X157840236Y-94957925D01*
X157895788Y-94790278D01*
X157906359Y-94686805D01*
X157906359Y-90882221D01*
X157926044Y-90815182D01*
X157942678Y-90794540D01*
X157953747Y-90783471D01*
X157965963Y-90771255D01*
X157965965Y-90771251D01*
X157965968Y-90771249D01*
X158090907Y-90599283D01*
X158090906Y-90599283D01*
X158090910Y-90599279D01*
X158095373Y-90590517D01*
X158098067Y-90587666D01*
X158099026Y-90583862D01*
X158121862Y-90562470D01*
X158143347Y-90539722D01*
X158147154Y-90538778D01*
X158150018Y-90536097D01*
X158180794Y-90530447D01*
X158211167Y-90522926D01*
X158214880Y-90524191D01*
G37*
%TD.AperFunction*%
%TA.AperFunction,Conductor*%
G36*
X159124634Y-98979507D02*
G01*
X159180567Y-99021379D01*
X159204984Y-99086843D01*
X159205300Y-99095689D01*
X159205300Y-100397292D01*
X159205299Y-100397292D01*
X159209578Y-100424303D01*
X159200623Y-100493596D01*
X159155627Y-100547048D01*
X159088875Y-100567687D01*
X159087105Y-100567700D01*
X157733289Y-100567700D01*
X157666250Y-100548015D01*
X157620495Y-100495211D01*
X157610551Y-100426053D01*
X157639576Y-100362497D01*
X157645608Y-100356019D01*
X158993619Y-99008008D01*
X159054942Y-98974523D01*
X159124634Y-98979507D01*
G37*
%TD.AperFunction*%
%TA.AperFunction,Conductor*%
G36*
X153134880Y-90524191D02*
G01*
X153138740Y-90523483D01*
X153167684Y-90535369D01*
X153197303Y-90545462D01*
X153200088Y-90548676D01*
X153203372Y-90550025D01*
X153227500Y-90575783D01*
X153232432Y-90582841D01*
X153240808Y-90599279D01*
X153322364Y-90711532D01*
X153323000Y-90712442D01*
X153333781Y-90744511D01*
X153345157Y-90776392D01*
X153344888Y-90777546D01*
X153345266Y-90778669D01*
X153345359Y-90783471D01*
X153345359Y-94686812D01*
X153355930Y-94790279D01*
X153382698Y-94871061D01*
X153411482Y-94957925D01*
X153437799Y-95000592D01*
X153439879Y-95003963D01*
X153458319Y-95071356D01*
X153437396Y-95138019D01*
X153422021Y-95156741D01*
X152365384Y-96213381D01*
X152304061Y-96246866D01*
X152277703Y-96249700D01*
X145933469Y-96249700D01*
X145933453Y-96249699D01*
X145925857Y-96249699D01*
X145767743Y-96249699D01*
X145660387Y-96278465D01*
X145615010Y-96290624D01*
X145615009Y-96290625D01*
X145564896Y-96319559D01*
X145564895Y-96319560D01*
X145550301Y-96327986D01*
X145478085Y-96369679D01*
X145478082Y-96369681D01*
X142613981Y-99233783D01*
X142552658Y-99267268D01*
X142482966Y-99262284D01*
X142427033Y-99220412D01*
X142402616Y-99154948D01*
X142402300Y-99146102D01*
X142402300Y-98585981D01*
X142421985Y-98518942D01*
X142438615Y-98498304D01*
X143055578Y-97881341D01*
X143055582Y-97881339D01*
X143194939Y-97741982D01*
X143304432Y-97578114D01*
X143313346Y-97556592D01*
X143340224Y-97516364D01*
X145822513Y-95034075D01*
X145883834Y-95000592D01*
X145953526Y-95005576D01*
X145997873Y-95034077D01*
X146138073Y-95174277D01*
X146138077Y-95174280D01*
X146301938Y-95283769D01*
X146301951Y-95283776D01*
X146484019Y-95359190D01*
X146484024Y-95359192D01*
X146484028Y-95359192D01*
X146484029Y-95359193D01*
X146677315Y-95397641D01*
X146677318Y-95397641D01*
X146874402Y-95397641D01*
X147038254Y-95365048D01*
X147067694Y-95359192D01*
X147249773Y-95283773D01*
X147413641Y-95174280D01*
X147552998Y-95034923D01*
X147662491Y-94871055D01*
X147737910Y-94688976D01*
X147776359Y-94495682D01*
X147776359Y-90851662D01*
X147796044Y-90784623D01*
X147805330Y-90772127D01*
X147930907Y-90599283D01*
X147930906Y-90599283D01*
X147930910Y-90599279D01*
X147935373Y-90590517D01*
X147938067Y-90587666D01*
X147939026Y-90583862D01*
X147961862Y-90562470D01*
X147983347Y-90539722D01*
X147987154Y-90538778D01*
X147990018Y-90536097D01*
X148020794Y-90530447D01*
X148051167Y-90522926D01*
X148054880Y-90524191D01*
X148058740Y-90523483D01*
X148087684Y-90535369D01*
X148117303Y-90545462D01*
X148120792Y-90548965D01*
X148123372Y-90550025D01*
X148130206Y-90558418D01*
X148147500Y-90575783D01*
X148152432Y-90582841D01*
X148160808Y-90599279D01*
X148242364Y-90711532D01*
X148243000Y-90712442D01*
X148253781Y-90744511D01*
X148265157Y-90776392D01*
X148265217Y-90778525D01*
X148265266Y-90778669D01*
X148265226Y-90778825D01*
X148265359Y-90783471D01*
X148265359Y-94686812D01*
X148275930Y-94790279D01*
X148331481Y-94957922D01*
X148331486Y-94957933D01*
X148424196Y-95108237D01*
X148424199Y-95108241D01*
X148549080Y-95233122D01*
X148549084Y-95233125D01*
X148699388Y-95325835D01*
X148699391Y-95325836D01*
X148699397Y-95325840D01*
X148867044Y-95381392D01*
X148970517Y-95391963D01*
X148970522Y-95391963D01*
X149581196Y-95391963D01*
X149581201Y-95391963D01*
X149684674Y-95381392D01*
X149852321Y-95325840D01*
X150002637Y-95233123D01*
X150127519Y-95108241D01*
X150220236Y-94957925D01*
X150275788Y-94790278D01*
X150286359Y-94686805D01*
X150286359Y-90882221D01*
X150306044Y-90815182D01*
X150322678Y-90794540D01*
X150333747Y-90783471D01*
X150345963Y-90771255D01*
X150345965Y-90771251D01*
X150345968Y-90771249D01*
X150470907Y-90599283D01*
X150470906Y-90599283D01*
X150470910Y-90599279D01*
X150475373Y-90590517D01*
X150478067Y-90587666D01*
X150479026Y-90583862D01*
X150501862Y-90562470D01*
X150523347Y-90539722D01*
X150527154Y-90538778D01*
X150530018Y-90536097D01*
X150560794Y-90530447D01*
X150591167Y-90522926D01*
X150594880Y-90524191D01*
X150598740Y-90523483D01*
X150627684Y-90535369D01*
X150657303Y-90545462D01*
X150660792Y-90548965D01*
X150663372Y-90550025D01*
X150670206Y-90558418D01*
X150687500Y-90575783D01*
X150692432Y-90582841D01*
X150700808Y-90599279D01*
X150782364Y-90711532D01*
X150783000Y-90712442D01*
X150793781Y-90744511D01*
X150805157Y-90776392D01*
X150805217Y-90778525D01*
X150805266Y-90778669D01*
X150805226Y-90778825D01*
X150805359Y-90783471D01*
X150805359Y-94686812D01*
X150815930Y-94790279D01*
X150871481Y-94957922D01*
X150871486Y-94957933D01*
X150964196Y-95108237D01*
X150964199Y-95108241D01*
X151089080Y-95233122D01*
X151089084Y-95233125D01*
X151239388Y-95325835D01*
X151239391Y-95325836D01*
X151239397Y-95325840D01*
X151407044Y-95381392D01*
X151510517Y-95391963D01*
X151510522Y-95391963D01*
X152121196Y-95391963D01*
X152121201Y-95391963D01*
X152224674Y-95381392D01*
X152392321Y-95325840D01*
X152542637Y-95233123D01*
X152667519Y-95108241D01*
X152760236Y-94957925D01*
X152815788Y-94790278D01*
X152826359Y-94686805D01*
X152826359Y-90882221D01*
X152846044Y-90815182D01*
X152862678Y-90794540D01*
X152873747Y-90783471D01*
X152885963Y-90771255D01*
X152885965Y-90771251D01*
X152885968Y-90771249D01*
X153010907Y-90599283D01*
X153010906Y-90599283D01*
X153010910Y-90599279D01*
X153015373Y-90590517D01*
X153018067Y-90587666D01*
X153019026Y-90583862D01*
X153041862Y-90562470D01*
X153063347Y-90539722D01*
X153067154Y-90538778D01*
X153070018Y-90536097D01*
X153100794Y-90530447D01*
X153131167Y-90522926D01*
X153134880Y-90524191D01*
G37*
%TD.AperFunction*%
%TD*%
M02*
