%TF.GenerationSoftware,KiCad,Pcbnew,9.0.0*%
%TF.CreationDate,2025-05-16T16:34:18-03:00*%
%TF.ProjectId,V1A,5631412e-6b69-4636-9164-5f7063625858,rev?*%
%TF.SameCoordinates,Original*%
%TF.FileFunction,Soldermask,Top*%
%TF.FilePolarity,Negative*%
%FSLAX46Y46*%
G04 Gerber Fmt 4.6, Leading zero omitted, Abs format (unit mm)*
G04 Created by KiCad (PCBNEW 9.0.0) date 2025-05-16 16:34:18*
%MOMM*%
%LPD*%
G01*
G04 APERTURE LIST*
G04 Aperture macros list*
%AMRoundRect*
0 Rectangle with rounded corners*
0 $1 Rounding radius*
0 $2 $3 $4 $5 $6 $7 $8 $9 X,Y pos of 4 corners*
0 Add a 4 corners polygon primitive as box body*
4,1,4,$2,$3,$4,$5,$6,$7,$8,$9,$2,$3,0*
0 Add four circle primitives for the rounded corners*
1,1,$1+$1,$2,$3*
1,1,$1+$1,$4,$5*
1,1,$1+$1,$6,$7*
1,1,$1+$1,$8,$9*
0 Add four rect primitives between the rounded corners*
20,1,$1+$1,$2,$3,$4,$5,0*
20,1,$1+$1,$4,$5,$6,$7,0*
20,1,$1+$1,$6,$7,$8,$9,0*
20,1,$1+$1,$8,$9,$2,$3,0*%
G04 Aperture macros list end*
%ADD10R,1.700000X1.700000*%
%ADD11C,1.700000*%
%ADD12R,2.000000X1.500000*%
%ADD13O,1.700000X1.700000*%
%ADD14RoundRect,0.250000X0.550000X-1.050000X0.550000X1.050000X-0.550000X1.050000X-0.550000X-1.050000X0*%
%ADD15RoundRect,0.255000X-0.255000X2.245000X-0.255000X-2.245000X0.255000X-2.245000X0.255000X2.245000X0*%
%ADD16R,1.000000X1.000000*%
%ADD17R,2.200000X1.050000*%
G04 APERTURE END LIST*
D10*
%TO.C,IDC14*%
X146775859Y-87351463D03*
D11*
X146775859Y-89891463D03*
X149315859Y-87351463D03*
X149315859Y-89891463D03*
X151855859Y-87351463D03*
X154395859Y-87351463D03*
X154395859Y-89891463D03*
X156935859Y-87351463D03*
X156935859Y-89891463D03*
X159475859Y-87351463D03*
X159475859Y-89891463D03*
X162015859Y-87351463D03*
X162015859Y-89891463D03*
X151855859Y-89891463D03*
%TD*%
D12*
%TO.C,RFM95W*%
X163245800Y-112755200D03*
X163245800Y-110755200D03*
X163245800Y-108755200D03*
X163245800Y-106755200D03*
X163245800Y-104755200D03*
X163245800Y-102755200D03*
X163245800Y-100755200D03*
X163245800Y-98755200D03*
X147245800Y-98755200D03*
X147245800Y-100755200D03*
X147245800Y-102755200D03*
X147245800Y-104755200D03*
X147245800Y-106755200D03*
X147245800Y-108755200D03*
X147245800Y-110755200D03*
X147245800Y-112755200D03*
%TD*%
D11*
%TO.C,J2*%
X161848800Y-118846600D03*
D13*
X159308800Y-118846600D03*
X156768800Y-118846600D03*
D10*
X154228800Y-118846600D03*
D13*
X151688800Y-118846600D03*
X149148800Y-118846600D03*
%TD*%
D14*
%TO.C,REF\u002A\u002A*%
X167030400Y-98828000D03*
X167030400Y-95228000D03*
%TD*%
D15*
%TO.C,IDC 14*%
X161975859Y-84791463D03*
X161975859Y-92391463D03*
X159435859Y-84791463D03*
X159435859Y-92391463D03*
X156895859Y-84791463D03*
X156895859Y-92391463D03*
X154355859Y-84791463D03*
X154355859Y-92391463D03*
X151815859Y-84791463D03*
X151815859Y-92391463D03*
X149275859Y-84791463D03*
X149275859Y-92391463D03*
X146735859Y-84791463D03*
X146735859Y-92391463D03*
%TD*%
D14*
%TO.C,REF\u002A\u002A*%
X143306800Y-119862600D03*
X143306800Y-116262600D03*
%TD*%
D16*
%TO.C,REF\u002A\u002A*%
X165495859Y-112766463D03*
D17*
X166995859Y-111291463D03*
D16*
X168495859Y-112766463D03*
D17*
X166995859Y-114241463D03*
%TD*%
M02*
