  0
SECTION
  2
HEADER
  9
$ACADVER
  1
AC1006
  9
$EXTMIN
 10
0.000000
 20
0.000000
 30
0.000000
  9
$EXTMAX
 10
800.000000
 20
600.000000
 30
0.000000
  0
ENDSEC
  0
SECTION
  2
ENTITIES
  0
POLYLINE
  8
0
 66
1
 70
1
  0
VERTEX
  8
0
 10
335.237085
 20
430.059367
 42
0.146619
  0
VERTEX
  8
0
 10
330.292242
 20
424.417277
 42
0.166912
  0
VERTEX
  8
0
 10
329.594079
 20
417.293731
 42
0.165202
  0
VERTEX
  8
0
 10
333.424491
 20
411.191258
 42
0.143621
  0
VERTEX
  8
0
 10
340.412842
 20
408.256934
 42
0.026333
  0
VERTEX
  8
0
 10
343.210612
 20
408.090027
 42
0.100731
  0
VERTEX
  8
0
 10
344.915414
 20
408.424709
 42
0.083238
  0
VERTEX
  8
0
 10
346.519249
 20
409.431864
 42
0.014645
  0
VERTEX
  8
0
 10
349.117647
 20
411.882353
 42
0.014620
  0
VERTEX
  8
0
 10
351.574827
 20
414.487594
 42
0.083855
  0
VERTEX
  8
0
 10
352.579077
 20
416.090817
 42
0.100775
  0
VERTEX
  8
0
 10
352.910459
 20
417.800887
 42
0.025701
  0
VERTEX
  8
0
 10
352.737922
 20
420.632792
 42
0.115106
  0
VERTEX
  8
0
 10
350.682743
 20
426.416133
 42
0.127198
  0
VERTEX
  8
0
 10
346.334728
 20
430.443344
 42
0.133132
  0
VERTEX
  8
0
 10
340.743725
 20
431.748717
 42
0.131922
  0
SEQEND
  0
POLYLINE
  8
0
 66
1
 70
1
  0
VERTEX
  8
0
 10
452.237085
 20
430.059367
 42
0.146619
  0
VERTEX
  8
0
 10
447.292242
 20
424.417277
 42
0.166912
  0
VERTEX
  8
0
 10
446.594079
 20
417.293731
 42
0.165202
  0
VERTEX
  8
0
 10
450.424491
 20
411.191258
 42
0.143621
  0
VERTEX
  8
0
 10
457.412842
 20
408.256934
 42
0.026333
  0
VERTEX
  8
0
 10
460.210612
 20
408.090027
 42
0.100731
  0
VERTEX
  8
0
 10
461.915414
 20
408.424709
 42
0.083238
  0
VERTEX
  8
0
 10
463.519249
 20
409.431864
 42
0.014645
  0
VERTEX
  8
0
 10
466.117647
 20
411.882353
 42
0.014620
  0
VERTEX
  8
0
 10
468.574827
 20
414.487594
 42
0.083855
  0
VERTEX
  8
0
 10
469.579077
 20
416.090817
 42
0.100775
  0
VERTEX
  8
0
 10
469.910459
 20
417.800887
 42
0.025701
  0
VERTEX
  8
0
 10
469.737922
 20
420.632792
 42
0.115106
  0
VERTEX
  8
0
 10
467.682743
 20
426.416133
 42
0.127198
  0
VERTEX
  8
0
 10
463.334728
 20
430.443344
 42
0.133132
  0
VERTEX
  8
0
 10
457.743725
 20
431.748717
 42
0.131922
  0
SEQEND
  0
POLYLINE
  8
0
 66
1
 70
1
  0
VERTEX
  8
0
 10
355.352849
 20
424.631152
 42
0.027648
  0
VERTEX
  8
0
 10
356.026100
 20
422.834983
 42
0.086661
  0
VERTEX
  8
0
 10
356.737267
 20
421.765428
 42
0.120580
  0
VERTEX
  8
0
 10
357.621601
 20
421.197206
 42
0.082968
  0
VERTEX
  8
0
 10
358.801870
 20
421.000000
 42
-0.085368
  0
VERTEX
  8
0
 10
367.900458
 20
419.435138
 42
-0.027545
  0
VERTEX
  8
0
 10
380.567640
 20
414.143284
 42
-0.026771
  0
VERTEX
  8
0
 10
394.151060
 20
406.646096
 42
-0.028413
  0
VERTEX
  8
0
 10
406.576642
 20
397.875000
 42
0.000000
  0
VERTEX
  8
0
 10
413.935933
 20
392.026842
 42
0.000000
  0
VERTEX
  8
0
 10
416.427362
 20
394.518271
 42
0.000000
  0
VERTEX
  8
0
 10
418.918792
 20
397.009701
 42
0.000000
  0
VERTEX
  8
0
 10
409.490838
 20
404.254851
 42
0.023768
  0
VERTEX
  8
0
 10
396.483866
 20
413.301093
 42
0.029243
  0
VERTEX
  8
0
 10
383.523816
 20
420.409798
 42
0.032295
  0
VERTEX
  8
0
 10
371.228601
 20
425.301579
 42
0.052536
  0
VERTEX
  8
0
 10
360.248159
 20
427.631851
 42
0.000000
  0
VERTEX
  8
0
 10
354.216316
 20
428.262303
 42
0.000000
  0
SEQEND
  0
POLYLINE
  8
0
 66
1
 70
1
  0
VERTEX
  8
0
 10
434.331605
 20
426.956511
 42
0.044032
  0
VERTEX
  8
0
 10
426.703152
 20
424.736033
 42
0.014715
  0
VERTEX
  8
0
 10
415.994036
 20
420.199620
 42
0.006813
  0
VERTEX
  8
0
 10
405.287420
 20
415.110153
 42
0.285777
  0
VERTEX
  8
0
 10
404.000000
 20
413.041619
 42
0.170998
  0
VERTEX
  8
0
 10
404.144409
 20
412.631713
 42
0.028351
  0
VERTEX
  8
0
 10
404.713785
 20
412.000737
 42
0.028310
  0
VERTEX
  8
0
 10
405.499463
 20
411.306934
 42
0.021687
  0
VERTEX
  8
0
 10
406.429906
 20
410.637884
 42
0.075496
  0
VERTEX
  8
0
 10
408.095969
 20
409.875136
 42
0.125244
  0
VERTEX
  8
0
 10
409.632003
 20
409.829906
 42
0.054765
  0
VERTEX
  8
0
 10
411.788664
 20
410.566625
 42
0.005534
  0
VERTEX
  8
0
 10
416.679906
 20
412.927328
 42
-0.011321
  0
VERTEX
  8
0
 10
423.225464
 20
415.993585
 42
-0.020455
  0
VERTEX
  8
0
 10
428.734081
 20
418.159015
 42
-0.023962
  0
VERTEX
  8
0
 10
433.728928
 20
419.626308
 42
-0.026487
  0
VERTEX
  8
0
 10
438.677631
 20
420.551624
 42
0.017283
  0
VERTEX
  8
0
 10
441.555048
 20
421.035032
 42
0.099256
  0
VERTEX
  8
0
 10
442.972506
 20
421.632440
 42
0.130130
  0
VERTEX
  8
0
 10
443.860674
 20
422.654842
 42
0.038297
  0
VERTEX
  8
0
 10
444.637572
 20
424.600546
 42
0.000000
  0
VERTEX
  8
0
 10
445.701584
 20
428.000000
 42
0.000000
  0
VERTEX
  8
0
 10
442.100792
 20
427.890434
 42
0.014704
  0
VERTEX
  8
0
 10
440.423205
 20
427.789953
 42
0.007601
  0
VERTEX
  8
0
 10
438.333267
 20
427.570899
 42
0.007549
  0
VERTEX
  8
0
 10
436.189868
 20
427.280352
 42
0.011354
  0
SEQEND
  0
POLYLINE
  8
0
 66
1
 70
1
  0
VERTEX
  8
0
 10
333.407881
 20
400.323074
 42
0.056889
  0
VERTEX
  8
0
 10
335.917991
 20
388.869942
 42
0.032938
  0
VERTEX
  8
0
 10
341.351854
 20
375.845919
 42
0.029777
  0
VERTEX
  8
0
 10
349.242550
 20
362.085277
 42
0.024386
  0
VERTEX
  8
0
 10
359.219370
 20
348.371491
 42
0.000000
  0
VERTEX
  8
0
 10
364.152072
 20
342.242981
 42
0.000000
  0
VERTEX
  8
0
 10
366.562615
 20
344.653524
 42
0.000000
  0
VERTEX
  8
0
 10
368.973158
 20
347.064067
 42
0.000000
  0
VERTEX
  8
0
 10
363.125000
 20
354.423358
 42
-0.024433
  0
VERTEX
  8
0
 10
355.262613
 20
365.375678
 42
-0.024518
  0
VERTEX
  8
0
 10
348.516050
 20
377.030397
 42
-0.026046
  0
VERTEX
  8
0
 10
343.471968
 20
388.216242
 42
-0.050473
  0
VERTEX
  8
0
 10
340.851987
 20
397.657578
 42
0.008774
  0
VERTEX
  8
0
 10
340.027946
 20
402.003746
 42
0.079996
  0
VERTEX
  8
0
 10
339.343119
 20
403.798189
 42
0.140708
  0
VERTEX
  8
0
 10
338.262982
 20
404.839267
 42
0.046050
  0
VERTEX
  8
0
 10
336.202369
 20
405.699259
 42
0.000000
  0
VERTEX
  8
0
 10
332.746247
 20
406.781007
 42
0.000000
  0
SEQEND
  0
POLYLINE
  8
0
 66
1
 70
1
  0
VERTEX
  8
0
 10
463.355330
 20
405.572840
 42
0.045643
  0
VERTEX
  8
0
 10
461.585372
 20
404.870132
 42
0.132367
  0
VERTEX
  8
0
 10
460.614149
 20
403.996830
 42
0.094392
  0
VERTEX
  8
0
 10
460.033244
 20
402.571498
 42
0.016725
  0
VERTEX
  8
0
 10
459.556408
 20
399.713691
 42
-0.026340
  0
VERTEX
  8
0
 10
458.628875
 20
394.745033
 42
-0.024031
  0
VERTEX
  8
0
 10
457.162159
 20
389.743820
 42
-0.020524
  0
VERTEX
  8
0
 10
454.997051
 20
384.233185
 42
-0.011331
  0
VERTEX
  8
0
 10
451.927328
 20
377.679906
 42
0.005534
  0
VERTEX
  8
0
 10
449.566625
 20
372.788664
 42
0.054765
  0
VERTEX
  8
0
 10
448.829906
 20
370.632003
 42
0.125244
  0
VERTEX
  8
0
 10
448.875136
 20
369.095969
 42
0.075496
  0
VERTEX
  8
0
 10
449.637884
 20
367.429906
 42
0.021116
  0
VERTEX
  8
0
 10
450.305346
 20
366.499433
 42
0.027750
  0
VERTEX
  8
0
 10
450.994383
 20
365.713785
 42
0.027545
  0
VERTEX
  8
0
 10
451.619265
 20
365.142919
 42
0.172990
  0
VERTEX
  8
0
 10
452.019988
 20
365.000000
 42
0.286758
  0
VERTEX
  8
0
 10
454.319087
 20
366.436713
 42
0.008391
  0
VERTEX
  8
0
 10
459.379261
 20
377.270619
 42
0.016639
  0
VERTEX
  8
0
 10
463.871554
 20
388.296342
 42
0.045335
  0
VERTEX
  8
0
 10
466.060433
 20
396.425630
 42
0.010482
  0
VERTEX
  8
0
 10
466.964296
 20
402.347970
 42
0.104888
  0
VERTEX
  8
0
 10
466.768879
 20
404.831494
 42
0.302706
  0
VERTEX
  8
0
 10
465.634988
 20
405.777648
 42
0.098876
  0
SEQEND
  0
POLYLINE
  8
0
 66
1
 70
1
  0
VERTEX
  8
0
 10
386.238994
 20
400.908077
 42
0.000000
  0
VERTEX
  8
0
 10
381.245145
 20
396.845764
 42
0.000000
  0
VERTEX
  8
0
 10
383.677899
 20
394.413010
 42
0.000000
  0
VERTEX
  8
0
 10
386.110654
 20
391.980255
 42
0.000000
  0
VERTEX
  8
0
 10
391.559636
 20
396.418965
 42
0.000000
  0
VERTEX
  8
0
 10
397.008618
 20
400.857675
 42
0.000000
  0
VERTEX
  8
0
 10
394.120731
 20
402.914032
 42
0.000000
  0
VERTEX
  8
0
 10
391.232844
 20
404.970389
 42
0.000000
  0
SEQEND
  0
POLYLINE
  8
0
 66
1
 70
1
  0
VERTEX
  8
0
 10
419.923077
 20
395.076923
 42
0.034222
  0
VERTEX
  8
0
 10
418.621579
 20
393.583933
 42
0.050097
  0
VERTEX
  8
0
 10
417.713415
 20
392.097524
 42
0.055278
  0
VERTEX
  8
0
 10
417.180600
 20
390.581154
 42
0.056925
  0
VERTEX
  8
0
 10
417.000000
 20
389.000000
 42
0.116572
  0
VERTEX
  8
0
 10
417.741955
 20
385.860865
 42
0.080474
  0
VERTEX
  8
0
 10
419.886785
 20
382.886785
 42
0.080474
  0
VERTEX
  8
0
 10
422.860865
 20
380.741955
 42
0.116572
  0
VERTEX
  8
0
 10
426.000000
 20
380.000000
 42
0.056925
  0
VERTEX
  8
0
 10
427.581154
 20
380.180600
 42
0.055278
  0
VERTEX
  8
0
 10
429.097524
 20
380.713415
 42
0.050097
  0
VERTEX
  8
0
 10
430.583933
 20
381.621579
 42
0.034222
  0
VERTEX
  8
0
 10
432.076923
 20
382.923077
 42
0.034222
  0
VERTEX
  8
0
 10
433.378421
 20
384.416067
 42
0.050097
  0
VERTEX
  8
0
 10
434.286585
 20
385.902476
 42
0.055278
  0
VERTEX
  8
0
 10
434.819400
 20
387.418846
 42
0.056925
  0
VERTEX
  8
0
 10
435.000000
 20
389.000000
 42
0.056925
  0
VERTEX
  8
0
 10
434.819400
 20
390.581154
 42
0.055278
  0
VERTEX
  8
0
 10
434.286585
 20
392.097524
 42
0.050097
  0
VERTEX
  8
0
 10
433.378421
 20
393.583933
 42
0.034222
  0
VERTEX
  8
0
 10
432.076923
 20
395.076923
 42
0.034222
  0
VERTEX
  8
0
 10
430.583933
 20
396.378421
 42
0.050097
  0
VERTEX
  8
0
 10
429.097524
 20
397.286585
 42
0.055278
  0
VERTEX
  8
0
 10
427.581154
 20
397.819400
 42
0.056925
  0
VERTEX
  8
0
 10
426.000000
 20
398.000000
 42
0.056925
  0
VERTEX
  8
0
 10
424.418846
 20
397.819400
 42
0.055278
  0
VERTEX
  8
0
 10
422.902476
 20
397.286585
 42
0.050097
  0
VERTEX
  8
0
 10
421.416067
 20
396.378421
 42
0.034222
  0
SEQEND
  0
POLYLINE
  8
0
 66
1
 70
1
  0
VERTEX
  8
0
 10
367.923077
 20
392.076923
 42
0.034222
  0
VERTEX
  8
0
 10
366.621579
 20
390.583933
 42
0.050097
  0
VERTEX
  8
0
 10
365.713415
 20
389.097524
 42
0.055278
  0
VERTEX
  8
0
 10
365.180600
 20
387.581154
 42
0.056925
  0
VERTEX
  8
0
 10
365.000000
 20
386.000000
 42
0.116572
  0
VERTEX
  8
0
 10
365.741955
 20
382.860865
 42
0.080474
  0
VERTEX
  8
0
 10
367.886785
 20
379.886785
 42
0.080474
  0
VERTEX
  8
0
 10
370.860865
 20
377.741955
 42
0.116572
  0
VERTEX
  8
0
 10
374.000000
 20
377.000000
 42
0.056925
  0
VERTEX
  8
0
 10
375.581154
 20
377.180600
 42
0.055278
  0
VERTEX
  8
0
 10
377.097524
 20
377.713415
 42
0.050097
  0
VERTEX
  8
0
 10
378.583933
 20
378.621579
 42
0.034222
  0
VERTEX
  8
0
 10
380.076923
 20
379.923077
 42
0.034222
  0
VERTEX
  8
0
 10
381.378421
 20
381.416067
 42
0.050097
  0
VERTEX
  8
0
 10
382.286585
 20
382.902476
 42
0.055278
  0
VERTEX
  8
0
 10
382.819400
 20
384.418846
 42
0.056925
  0
VERTEX
  8
0
 10
383.000000
 20
386.000000
 42
0.056925
  0
VERTEX
  8
0
 10
382.819400
 20
387.581154
 42
0.055278
  0
VERTEX
  8
0
 10
382.286585
 20
389.097524
 42
0.050097
  0
VERTEX
  8
0
 10
381.378421
 20
390.583933
 42
0.034222
  0
VERTEX
  8
0
 10
380.076923
 20
392.076923
 42
0.034222
  0
VERTEX
  8
0
 10
378.583933
 20
393.378421
 42
0.050097
  0
VERTEX
  8
0
 10
377.097524
 20
394.286585
 42
0.055278
  0
VERTEX
  8
0
 10
375.581154
 20
394.819400
 42
0.056925
  0
VERTEX
  8
0
 10
374.000000
 20
395.000000
 42
0.056925
  0
VERTEX
  8
0
 10
372.418846
 20
394.819400
 42
0.055278
  0
VERTEX
  8
0
 10
370.902476
 20
394.286585
 42
0.050097
  0
VERTEX
  8
0
 10
369.416067
 20
393.378421
 42
0.034222
  0
SEQEND
  0
POLYLINE
  8
0
 66
1
 70
1
  0
VERTEX
  8
0
 10
360.783807
 20
375.609896
 42
0.007598
  0
VERTEX
  8
0
 10
357.627019
 20
371.680108
 42
0.092828
  0
VERTEX
  8
0
 10
356.746370
 20
369.973681
 42
0.189769
  0
VERTEX
  8
0
 10
356.865663
 20
368.553085
 42
0.051962
  0
VERTEX
  8
0
 10
358.087233
 20
366.616230
 42
0.000000
  0
VERTEX
  8
0
 10
360.147216
 20
363.997386
 42
0.000000
  0
VERTEX
  8
0
 10
364.583480
 20
369.443366
 42
0.000000
  0
VERTEX
  8
0
 10
369.019745
 20
374.889346
 42
0.000000
  0
VERTEX
  8
0
 10
366.604522
 20
377.304569
 42
0.000000
  0
VERTEX
  8
0
 10
364.189299
 20
379.719791
 42
0.000000
  0
SEQEND
  0
POLYLINE
  8
0
 66
1
 70
1
  0
VERTEX
  8
0
 10
433.259548
 20
377.326363
 42
0.000000
  0
VERTEX
  8
0
 10
431.019096
 20
374.948300
 42
0.000000
  0
VERTEX
  8
0
 10
435.444378
 20
369.515248
 42
-0.025296
  0
VERTEX
  8
0
 10
443.768049
 20
358.169461
 42
-0.024611
  0
VERTEX
  8
0
 10
450.985854
 20
345.939178
 42
-0.026004
  0
VERTEX
  8
0
 10
456.400160
 20
334.193832
 42
-0.053280
  0
VERTEX
  8
0
 10
459.135191
 20
324.443851
 42
0.008495
  0
VERTEX
  8
0
 10
459.959299
 20
320.016127
 42
0.079906
  0
VERTEX
  8
0
 10
460.639705
 20
318.211112
 42
0.142066
  0
VERTEX
  8
0
 10
461.720051
 20
317.166469
 42
0.045787
  0
VERTEX
  8
0
 10
463.797035
 20
316.300928
 42
0.000000
  0
VERTEX
  8
0
 10
467.269212
 20
315.214154
 42
0.000000
  0
VERTEX
  8
0
 10
466.691008
 20
321.406001
 42
0.015203
  0
VERTEX
  8
0
 10
466.351876
 20
324.137703
 42
0.010235
  0
VERTEX
  8
0
 10
465.806489
 20
327.233371
 42
0.010315
  0
VERTEX
  8
0
 10
465.155018
 20
330.209688
 42
0.020074
  0
VERTEX
  8
0
 10
464.491826
 20
332.548924
 42
0.036755
  0
VERTEX
  8
0
 10
460.381667
 20
342.551456
 42
0.016784
  0
VERTEX
  8
0
 10
453.645131
 20
354.973380
 42
0.016804
  0
VERTEX
  8
0
 10
446.061763
 20
366.959827
 42
0.035338
  0
VERTEX
  8
0
 10
439.238090
 20
375.602213
 42
0.000000
  0
VERTEX
  8
0
 10
435.500000
 20
379.704426
 42
0.000000
  0
SEQEND
  0
POLYLINE
  8
0
 66
1
 70
1
  0
VERTEX
  8
0
 10
343.151391
 20
350.053986
 42
0.019143
  0
VERTEX
  8
0
 10
339.236418
 20
341.975771
 42
0.024212
  0
VERTEX
  8
0
 10
336.277536
 20
334.222810
 42
0.026351
  0
VERTEX
  8
0
 10
334.290219
 20
326.855568
 42
0.034258
  0
VERTEX
  8
0
 10
333.299166
 20
319.938101
 42
0.012424
  0
VERTEX
  8
0
 10
333.092453
 20
315.719759
 42
0.038145
  0
VERTEX
  8
0
 10
333.241408
 20
312.865288
 42
0.046223
  0
VERTEX
  8
0
 10
333.799958
 20
310.376507
 42
0.025837
  0
VERTEX
  8
0
 10
334.908195
 20
307.474636
 42
0.024222
  0
VERTEX
  8
0
 10
337.013539
 20
303.277169
 42
0.062164
  0
VERTEX
  8
0
 10
339.031787
 20
300.552309
 42
0.064659
  0
VERTEX
  8
0
 10
341.608668
 20
298.468572
 42
0.027939
  0
VERTEX
  8
0
 10
345.500000
 20
296.368034
 42
0.126771
  0
VERTEX
  8
0
 10
357.651318
 20
294.069917
 42
0.064057
  0
VERTEX
  8
0
 10
373.050073
 20
297.082858
 42
0.051553
  0
VERTEX
  8
0
 10
390.626724
 20
305.020303
 42
0.032427
  0
VERTEX
  8
0
 10
409.344211
 20
317.607585
 42
0.000000
  0
VERTEX
  8
0
 10
418.918792
 20
324.990299
 42
0.000000
  0
VERTEX
  8
0
 10
416.432623
 20
327.476468
 42
0.000000
  0
VERTEX
  8
0
 10
413.946454
 20
329.962637
 42
0.000000
  0
VERTEX
  8
0
 10
406.045340
 20
323.714926
 42
-0.026494
  0
VERTEX
  8
0
 10
392.575506
 20
314.177918
 42
-0.034514
  0
VERTEX
  8
0
 10
379.278005
 20
307.014689
 42
-0.038922
  0
VERTEX
  8
0
 10
366.817282
 20
302.504062
 42
-0.066947
  0
VERTEX
  8
0
 10
355.897883
 20
301.011869
 42
-0.166379
  0
VERTEX
  8
0
 10
345.810582
 20
304.440206
 42
-0.186906
  0
VERTEX
  8
0
 10
340.530598
 20
313.171331
 42
-0.113684
  0
VERTEX
  8
0
 10
341.257153
 20
327.116747
 42
-0.046808
  0
VERTEX
  8
0
 10
348.176443
 20
344.851219
 42
0.000000
  0
VERTEX
  8
0
 10
351.920181
 20
352.303355
 42
0.000000
  0
VERTEX
  8
0
 10
349.891996
 20
355.151678
 42
0.005213
  0
VERTEX
  8
0
 10
349.097302
 20
356.243450
 42
0.008179
  0
VERTEX
  8
0
 10
348.389295
 20
357.163305
 42
0.003228
  0
VERTEX
  8
0
 10
347.770002
 20
357.931011
 42
0.225074
  0
VERTEX
  8
0
 10
347.624508
 20
358.000000
 42
0.270234
  0
VERTEX
  8
0
 10
347.482769
 20
357.917360
 42
0.000589
  0
VERTEX
  8
0
 10
346.211817
 20
355.665858
 42
0.003594
  0
VERTEX
  8
0
 10
344.791873
 20
353.100515
 42
0.002197
  0
SEQEND
  0
POLYLINE
  8
0
 66
1
 70
1
  0
VERTEX
  8
0
 10
435.267896
 20
352.458171
 42
0.000000
  0
VERTEX
  8
0
 10
431.035791
 20
347.064425
 42
0.000000
  0
VERTEX
  8
0
 10
433.360467
 20
344.556058
 42
0.000000
  0
VERTEX
  8
0
 10
435.685143
 20
342.047691
 42
0.000000
  0
VERTEX
  8
0
 10
439.827766
 20
347.140267
 42
0.000000
  0
VERTEX
  8
0
 10
443.970389
 20
352.232844
 42
0.000000
  0
VERTEX
  8
0
 10
441.917100
 20
355.116422
 42
0.005057
  0
VERTEX
  8
0
 10
441.116784
 20
356.216638
 42
0.008258
  0
VERTEX
  8
0
 10
440.413530
 20
357.131199
 42
0.002785
  0
VERTEX
  8
0
 10
439.797859
 20
357.896285
 42
0.329774
  0
VERTEX
  8
0
 10
439.681906
 20
357.925958
 42
0.126569
  0
VERTEX
  8
0
 10
439.560991
 20
357.836241
 42
0.000370
  0
VERTEX
  8
0
 10
438.310254
 20
356.289253
 42
0.002136
  0
VERTEX
  8
0
 10
436.903433
 20
354.531262
 42
0.001329
  0
SEQEND
  0
POLYLINE
  8
0
 66
1
 70
1
  0
VERTEX
  8
0
 10
417.923077
 20
342.076923
 42
0.034222
  0
VERTEX
  8
0
 10
416.621579
 20
340.583933
 42
0.050097
  0
VERTEX
  8
0
 10
415.713415
 20
339.097524
 42
0.055278
  0
VERTEX
  8
0
 10
415.180600
 20
337.581154
 42
0.056925
  0
VERTEX
  8
0
 10
415.000000
 20
336.000000
 42
0.116572
  0
VERTEX
  8
0
 10
415.741955
 20
332.860865
 42
0.080474
  0
VERTEX
  8
0
 10
417.886785
 20
329.886785
 42
0.080474
  0
VERTEX
  8
0
 10
420.860865
 20
327.741955
 42
0.116572
  0
VERTEX
  8
0
 10
424.000000
 20
327.000000
 42
0.056925
  0
VERTEX
  8
0
 10
425.581154
 20
327.180600
 42
0.055278
  0
VERTEX
  8
0
 10
427.097524
 20
327.713415
 42
0.050097
  0
VERTEX
  8
0
 10
428.583933
 20
328.621579
 42
0.034222
  0
VERTEX
  8
0
 10
430.076923
 20
329.923077
 42
0.034222
  0
VERTEX
  8
0
 10
431.378421
 20
331.416067
 42
0.050097
  0
VERTEX
  8
0
 10
432.286585
 20
332.902476
 42
0.055278
  0
VERTEX
  8
0
 10
432.819400
 20
334.418846
 42
0.056925
  0
VERTEX
  8
0
 10
433.000000
 20
336.000000
 42
0.056925
  0
VERTEX
  8
0
 10
432.819400
 20
337.581154
 42
0.055278
  0
VERTEX
  8
0
 10
432.286585
 20
339.097524
 42
0.050097
  0
VERTEX
  8
0
 10
431.378421
 20
340.583933
 42
0.034222
  0
VERTEX
  8
0
 10
430.076923
 20
342.076923
 42
0.034222
  0
VERTEX
  8
0
 10
428.583933
 20
343.378421
 42
0.050097
  0
VERTEX
  8
0
 10
427.097524
 20
344.286585
 42
0.055278
  0
VERTEX
  8
0
 10
425.581154
 20
344.819400
 42
0.056925
  0
VERTEX
  8
0
 10
424.000000
 20
345.000000
 42
0.056925
  0
VERTEX
  8
0
 10
422.418846
 20
344.819400
 42
0.055278
  0
VERTEX
  8
0
 10
420.902476
 20
344.286585
 42
0.050097
  0
VERTEX
  8
0
 10
419.416067
 20
343.378421
 42
0.034222
  0
SEQEND
  0
POLYLINE
  8
0
 66
1
 70
1
  0
VERTEX
  8
0
 10
366.923077
 20
341.076923
 42
0.034222
  0
VERTEX
  8
0
 10
365.621579
 20
339.583933
 42
0.050097
  0
VERTEX
  8
0
 10
364.713415
 20
338.097524
 42
0.055278
  0
VERTEX
  8
0
 10
364.180600
 20
336.581154
 42
0.056925
  0
VERTEX
  8
0
 10
364.000000
 20
335.000000
 42
0.116572
  0
VERTEX
  8
0
 10
364.741955
 20
331.860865
 42
0.080474
  0
VERTEX
  8
0
 10
366.886785
 20
328.886785
 42
0.080474
  0
VERTEX
  8
0
 10
369.860865
 20
326.741955
 42
0.116572
  0
VERTEX
  8
0
 10
373.000000
 20
326.000000
 42
0.056925
  0
VERTEX
  8
0
 10
374.581154
 20
326.180600
 42
0.055278
  0
VERTEX
  8
0
 10
376.097524
 20
326.713415
 42
0.050097
  0
VERTEX
  8
0
 10
377.583933
 20
327.621579
 42
0.034222
  0
VERTEX
  8
0
 10
379.076923
 20
328.923077
 42
0.034222
  0
VERTEX
  8
0
 10
380.378421
 20
330.416067
 42
0.050097
  0
VERTEX
  8
0
 10
381.286585
 20
331.902476
 42
0.055278
  0
VERTEX
  8
0
 10
381.819400
 20
333.418846
 42
0.056925
  0
VERTEX
  8
0
 10
382.000000
 20
335.000000
 42
0.056925
  0
VERTEX
  8
0
 10
381.819400
 20
336.581154
 42
0.055278
  0
VERTEX
  8
0
 10
381.286585
 20
338.097524
 42
0.050097
  0
VERTEX
  8
0
 10
380.378421
 20
339.583933
 42
0.034222
  0
VERTEX
  8
0
 10
379.076923
 20
341.076923
 42
0.034222
  0
VERTEX
  8
0
 10
377.583933
 20
342.378421
 42
0.050097
  0
VERTEX
  8
0
 10
376.097524
 20
343.286585
 42
0.055278
  0
VERTEX
  8
0
 10
374.581154
 20
343.819400
 42
0.056925
  0
VERTEX
  8
0
 10
373.000000
 20
344.000000
 42
0.056925
  0
VERTEX
  8
0
 10
371.418846
 20
343.819400
 42
0.055278
  0
VERTEX
  8
0
 10
369.902476
 20
343.286585
 42
0.050097
  0
VERTEX
  8
0
 10
368.416067
 20
342.378421
 42
0.034222
  0
SEQEND
  0
POLYLINE
  8
0
 66
1
 70
1
  0
VERTEX
  8
0
 10
383.317479
 20
327.425749
 42
0.000000
  0
VERTEX
  8
0
 10
381.134958
 20
325.062679
 42
0.000000
  0
VERTEX
  8
0
 10
386.181584
 20
321.044495
 42
0.000000
  0
VERTEX
  8
0
 10
391.228211
 20
317.026312
 42
0.000000
  0
VERTEX
  8
0
 10
394.090262
 20
319.064272
 42
0.000000
  0
VERTEX
  8
0
 10
396.952313
 20
321.102232
 42
0.000000
  0
VERTEX
  8
0
 10
391.490284
 20
325.551116
 42
0.003305
  0
VERTEX
  8
0
 10
389.377244
 20
327.249105
 42
0.005347
  0
VERTEX
  8
0
 10
387.555139
 20
328.662123
 42
0.001309
  0
VERTEX
  8
0
 10
385.955184
 20
329.869104
 42
0.261740
  0
VERTEX
  8
0
 10
385.764128
 20
329.894410
 42
0.100248
  0
VERTEX
  8
0
 10
385.594964
 20
329.783546
 42
0.002479
  0
VERTEX
  8
0
 10
384.936472
 20
329.125685
 42
0.005259
  0
VERTEX
  8
0
 10
384.172952
 20
328.338913
 42
0.003546
  0
SEQEND
  0
POLYLINE
  8
0
 66
1
 70
1
  0
VERTEX
  8
0
 10
451.237085
 20
315.059367
 42
0.146619
  0
VERTEX
  8
0
 10
446.292242
 20
309.417277
 42
0.166912
  0
VERTEX
  8
0
 10
445.594079
 20
302.293731
 42
0.165202
  0
VERTEX
  8
0
 10
449.424491
 20
296.191258
 42
0.143621
  0
VERTEX
  8
0
 10
456.412842
 20
293.256934
 42
0.026333
  0
VERTEX
  8
0
 10
459.210612
 20
293.090027
 42
0.100731
  0
VERTEX
  8
0
 10
460.915414
 20
293.424709
 42
0.083238
  0
VERTEX
  8
0
 10
462.519249
 20
294.431864
 42
0.014645
  0
VERTEX
  8
0
 10
465.117647
 20
296.882353
 42
0.014620
  0
VERTEX
  8
0
 10
467.574827
 20
299.487594
 42
0.083855
  0
VERTEX
  8
0
 10
468.579077
 20
301.090817
 42
0.100775
  0
VERTEX
  8
0
 10
468.910459
 20
302.800887
 42
0.025701
  0
VERTEX
  8
0
 10
468.737922
 20
305.632792
 42
0.115106
  0
VERTEX
  8
0
 10
466.682743
 20
311.416133
 42
0.127198
  0
VERTEX
  8
0
 10
462.334728
 20
315.443344
 42
0.133132
  0
VERTEX
  8
0
 10
456.743725
 20
316.748717
 42
0.131922
  0
SEQEND
  0
POLYLINE
  8
0
 66
1
 70
1
  0
VERTEX
  8
0
 10
406.000000
 20
310.965259
 42
0.011271
  0
VERTEX
  8
0
 10
404.407245
 20
309.637517
 42
0.180246
  0
VERTEX
  8
0
 10
404.078321
 20
309.030657
 42
0.245355
  0
VERTEX
  8
0
 10
404.283443
 20
308.452950
 42
0.021725
  0
VERTEX
  8
0
 10
405.500000
 20
307.417875
 42
0.048274
  0
VERTEX
  8
0
 10
408.672586
 20
305.406405
 42
0.006604
  0
VERTEX
  8
0
 10
415.722947
 20
301.953824
 42
0.008113
  0
VERTEX
  8
0
 10
423.059933
 20
298.624895
 42
0.021334
  0
VERTEX
  8
0
 10
428.451076
 20
296.552111
 42
0.020748
  0
VERTEX
  8
0
 10
430.790425
 20
295.872057
 42
0.010692
  0
VERTEX
  8
0
 10
433.766629
 20
295.206417
 42
0.010609
  0
VERTEX
  8
0
 10
436.862302
 20
294.651308
 42
0.015777
  0
VERTEX
  8
0
 10
439.593999
 20
294.308992
 42
0.000000
  0
VERTEX
  8
0
 10
445.785846
 20
293.730788
 42
0.000000
  0
VERTEX
  8
0
 10
444.679703
 20
297.264848
 42
0.035099
  0
VERTEX
  8
0
 10
443.878514
 20
299.309208
 42
0.130331
  0
VERTEX
  8
0
 10
442.991659
 20
300.355994
 42
0.102254
  0
VERTEX
  8
0
 10
441.581644
 20
300.960333
 42
0.017311
  0
VERTEX
  8
0
 10
438.677631
 20
301.448376
 42
-0.026516
  0
VERTEX
  8
0
 10
433.723559
 20
302.374985
 42
-0.024005
  0
VERTEX
  8
0
 10
428.724747
 20
303.844524
 42
-0.020456
  0
VERTEX
  8
0
 10
423.205911
 20
306.015801
 42
-0.011254
  0
VERTEX
  8
0
 10
416.634205
 20
309.095546
 42
0.000849
  0
VERTEX
  8
0
 10
413.608762
 20
310.590932
 42
0.001389
  0
VERTEX
  8
0
 10
411.039564
 20
311.846535
 42
0.000133
  0
VERTEX
  8
0
 10
408.737743
 20
312.962800
 42
0.155091
  0
VERTEX
  8
0
 10
408.634205
 20
312.977764
 42
0.121881
  0
VERTEX
  8
0
 10
408.540154
 20
312.937249
 42
0.000767
  0
VERTEX
  8
0
 10
407.805048
 20
312.377419
 42
0.003055
  0
VERTEX
  8
0
 10
406.967987
 20
311.729774
 42
0.001937
  0
SEQEND
  0
POLYLINE
  8
0
 66
1
 70
1
  0
VERTEX
  8
0
 10
212.000000
 20
222.500000
 42
0.000000
  0
VERTEX
  8
0
 10
212.000000
 20
169.000000
 42
0.000000
  0
VERTEX
  8
0
 10
222.500000
 20
169.000000
 42
0.000000
  0
VERTEX
  8
0
 10
233.000000
 20
169.000000
 42
0.000000
  0
VERTEX
  8
0
 10
233.000000
 20
187.000000
 42
0.000000
  0
VERTEX
  8
0
 10
233.000000
 20
205.000000
 42
0.000000
  0
VERTEX
  8
0
 10
258.000000
 20
205.000000
 42
0.000000
  0
VERTEX
  8
0
 10
283.000000
 20
205.000000
 42
0.000000
  0
VERTEX
  8
0
 10
283.000000
 20
187.000000
 42
0.000000
  0
VERTEX
  8
0
 10
283.000000
 20
169.000000
 42
0.000000
  0
VERTEX
  8
0
 10
293.500000
 20
169.000000
 42
0.000000
  0
VERTEX
  8
0
 10
304.000000
 20
169.000000
 42
0.000000
  0
VERTEX
  8
0
 10
304.000000
 20
222.500000
 42
0.000000
  0
VERTEX
  8
0
 10
304.000000
 20
276.000000
 42
0.000000
  0
VERTEX
  8
0
 10
293.500000
 20
276.000000
 42
0.000000
  0
VERTEX
  8
0
 10
283.000000
 20
276.000000
 42
0.000000
  0
VERTEX
  8
0
 10
283.000000
 20
250.000000
 42
0.000000
  0
VERTEX
  8
0
 10
283.000000
 20
224.000000
 42
0.000000
  0
VERTEX
  8
0
 10
258.000000
 20
224.000000
 42
0.000000
  0
VERTEX
  8
0
 10
233.000000
 20
224.000000
 42
0.000000
  0
VERTEX
  8
0
 10
233.000000
 20
250.000000
 42
0.000000
  0
VERTEX
  8
0
 10
233.000000
 20
276.000000
 42
0.000000
  0
VERTEX
  8
0
 10
222.500000
 20
276.000000
 42
0.000000
  0
VERTEX
  8
0
 10
212.000000
 20
276.000000
 42
0.000000
  0
SEQEND
  0
POLYLINE
  8
0
 66
1
 70
1
  0
VERTEX
  8
0
 10
458.000000
 20
222.500000
 42
0.000000
  0
VERTEX
  8
0
 10
458.000000
 20
169.000000
 42
0.000000
  0
VERTEX
  8
0
 10
469.000000
 20
169.000000
 42
0.000000
  0
VERTEX
  8
0
 10
480.000000
 20
169.000000
 42
0.000000
  0
VERTEX
  8
0
 10
480.000000
 20
222.500000
 42
0.000000
  0
VERTEX
  8
0
 10
480.000000
 20
276.000000
 42
0.000000
  0
VERTEX
  8
0
 10
469.000000
 20
276.000000
 42
0.000000
  0
VERTEX
  8
0
 10
458.000000
 20
276.000000
 42
0.000000
  0
SEQEND
  0
POLYLINE
  8
0
 66
1
 70
1
  0
VERTEX
  8
0
 10
497.212474
 20
266.750000
 42
0.000000
  0
VERTEX
  8
0
 10
497.500000
 20
257.500000
 42
0.000000
  0
VERTEX
  8
0
 10
514.750000
 20
257.226386
 42
0.000000
  0
VERTEX
  8
0
 10
532.000000
 20
256.952772
 42
0.000000
  0
VERTEX
  8
0
 10
532.000000
 20
212.976386
 42
0.000000
  0
VERTEX
  8
0
 10
532.000000
 20
169.000000
 42
0.000000
  0
VERTEX
  8
0
 10
542.500000
 20
169.000000
 42
0.000000
  0
VERTEX
  8
0
 10
553.000000
 20
169.000000
 42
0.000000
  0
VERTEX
  8
0
 10
553.000000
 20
213.000000
 42
0.000000
  0
VERTEX
  8
0
 10
553.000000
 20
257.000000
 42
0.000000
  0
VERTEX
  8
0
 10
570.500000
 20
257.000000
 42
0.000000
  0
VERTEX
  8
0
 10
588.000000
 20
257.000000
 42
0.000000
  0
VERTEX
  8
0
 10
588.000000
 20
266.500000
 42
0.000000
  0
VERTEX
  8
0
 10
588.000000
 20
276.000000
 42
0.000000
  0
VERTEX
  8
0
 10
542.462474
 20
276.000000
 42
0.000000
  0
VERTEX
  8
0
 10
496.924948
 20
276.000000
 42
0.000000
  0
SEQEND
  0
POLYLINE
  8
0
 66
1
 70
1
  0
VERTEX
  8
0
 10
320.054519
 20
245.783617
 42
-0.001046
  0
VERTEX
  8
0
 10
321.397526
 20
242.234744
 42
-0.000064
  0
VERTEX
  8
0
 10
325.386083
 20
231.623937
 42
-0.000095
  0
VERTEX
  8
0
 10
330.133218
 20
218.982871
 42
-0.000070
  0
VERTEX
  8
0
 10
335.378961
 20
205.000000
 42
0.000000
  0
VERTEX
  8
0
 10
348.691261
 20
169.500000
 42
0.000000
  0
VERTEX
  8
0
 10
354.095630
 20
169.212737
 42
0.000000
  0
VERTEX
  8
0
 10
359.500000
 20
168.925473
 42
0.000000
  0
VERTEX
  8
0
 10
370.385819
 20
194.587886
 42
0.000000
  0
VERTEX
  8
0
 10
381.271639
 20
220.250298
 42
0.000000
  0
VERTEX
  8
0
 10
387.732251
 20
204.875149
 42
0.000200
  0
VERTEX
  8
0
 10
390.516576
 20
198.256343
 42
0.000157
  0
VERTEX
  8
0
 10
393.541907
 20
191.078950
 42
0.000158
  0
VERTEX
  8
0
 10
396.360550
 20
184.403661
 42
0.000389
  0
VERTEX
  8
0
 10
398.437451
 20
179.500000
 42
0.000000
  0
VERTEX
  8
0
 10
402.682039
 20
169.500000
 42
0.000000
  0
VERTEX
  8
0
 10
408.165657
 20
169.205329
 42
0.000000
  0
VERTEX
  8
0
 10
413.649276
 20
168.910657
 42
0.000000
  0
VERTEX
  8
0
 10
428.460733
 20
208.705329
 42
-0.000012
  0
VERTEX
  8
0
 10
434.172527
 20
224.050392
 42
-0.000019
  0
VERTEX
  8
0
 10
439.059650
 20
237.177503
 42
-0.000003
  0
VERTEX
  8
0
 10
443.373678
 20
248.763684
 42
-0.000957
  0
VERTEX
  8
0
 10
443.743084
 20
249.750000
 42
0.422137
  0
VERTEX
  8
0
 10
443.456628
 20
250.360668
 42
0.052240
  0
VERTEX
  8
0
 10
441.865599
 20
250.731373
 42
0.025834
  0
VERTEX
  8
0
 10
438.938730
 20
250.945037
 42
0.005304
  0
VERTEX
  8
0
 10
433.757169
 20
251.000000
 42
0.000000
  0
VERTEX
  8
0
 10
423.300360
 20
251.000000
 42
0.000000
  0
VERTEX
  8
0
 10
415.500264
 20
229.750000
 42
-0.001266
  0
VERTEX
  8
0
 10
412.423527
 20
221.433128
 42
-0.001781
  0
VERTEX
  8
0
 10
409.633880
 20
214.031232
 42
-0.001037
  0
VERTEX
  8
0
 10
407.246123
 20
207.802313
 42
-0.024470
  0
VERTEX
  8
0
 10
406.482922
 20
206.079725
 42
-0.492539
  0
VERTEX
  8
0
 10
405.409222
 20
205.873809
 42
-0.096645
  0
VERTEX
  8
0
 10
404.011531
 20
207.703763
 42
-0.019719
  0
VERTEX
  8
0
 10
401.645267
 20
213.000486
 42
-0.001545
  0
VERTEX
  8
0
 10
395.943994
 20
227.373994
 42
0.000000
  0
VERTEX
  8
0
 10
386.622311
 20
251.088538
 42
0.000000
  0
VERTEX
  8
0
 10
381.109131
 20
250.794269
 42
0.000000
  0
VERTEX
  8
0
 10
375.595952
 20
250.500000
 42
0.000000
  0
VERTEX
  8
0
 10
366.521252
 20
227.806610
 42
-0.001107
  0
VERTEX
  8
0
 10
363.005013
 20
219.069611
 42
-0.001772
  0
VERTEX
  8
0
 10
359.959754
 20
211.626911
 42
-0.000320
  0
VERTEX
  8
0
 10
357.243607
 20
205.067029
 42
-0.098364
  0
VERTEX
  8
0
 10
356.927433
 20
204.594100
 42
-0.537585
  0
VERTEX
  8
0
 10
356.614420
 20
204.657917
 42
-0.000817
  0
VERTEX
  8
0
 10
354.051641
 20
211.046146
 42
-0.004293
  0
VERTEX
  8
0
 10
351.179484
 20
218.422833
 42
-0.002526
  0
VERTEX
  8
0
 10
347.866481
 20
227.287490
 42
0.000000
  0
VERTEX
  8
0
 10
339.324649
 20
250.500000
 42
0.000000
  0
VERTEX
  8
0
 10
328.683512
 20
250.783617
 42
0.000000
  0
VERTEX
  8
0
 10
318.042376
 20
251.067234
 42
0.000000
  0
SEQEND
  0
ENDSEC
  0
EOF
