  0
SECTION
  2
HEADER
  9
$ACADVER
  1
AC1006
  9
$EXTMIN
 10
0.000000
 20
0.000000
 30
0.000000
  9
$EXTMAX
 10
2400.000000
 20
1800.000000
 30
0.000000
  0
ENDSEC
  0
SECTION
  2
ENTITIES
  0
POLYLINE
  8
0
 66
1
 70
1
  0
VERTEX
  8
0
 10
1011.500000
 20
1292.594266
 42
0.106120
  0
VERTEX
  8
0
 10
998.104619
 20
1286.061951
 42
0.111386
  0
VERTEX
  8
0
 10
988.846850
 20
1274.701498
 42
0.112628
  0
VERTEX
  8
0
 10
985.425631
 20
1260.574379
 42
0.110471
  0
VERTEX
  8
0
 10
988.429738
 20
1246.252524
 42
0.124369
  0
VERTEX
  8
0
 10
998.602223
 20
1233.524792
 42
0.117595
  0
VERTEX
  8
0
 10
1013.808422
 20
1226.826251
 42
0.115510
  0
VERTEX
  8
0
 10
1030.623828
 20
1227.653865
 42
0.116912
  0
VERTEX
  8
0
 10
1045.239472
 20
1235.866618
 42
0.108300
  0
VERTEX
  8
0
 10
1053.183672
 20
1247.225156
 42
0.106264
  0
VERTEX
  8
0
 10
1055.720436
 20
1260.945014
 42
0.106572
  0
VERTEX
  8
0
 10
1052.394372
 20
1274.463593
 42
0.109517
  0
VERTEX
  8
0
 10
1043.811565
 20
1285.258074
 42
0.020161
  0
VERTEX
  8
0
 10
1039.845902
 20
1288.214149
 42
0.036548
  0
VERTEX
  8
0
 10
1036.350744
 20
1290.248809
 42
0.037873
  0
VERTEX
  8
0
 10
1032.683375
 20
1291.706835
 42
0.023534
  0
VERTEX
  8
0
 10
1028.200779
 20
1292.878387
 42
0.020721
  0
VERTEX
  8
0
 10
1023.660888
 20
1293.644335
 42
0.035694
  0
VERTEX
  8
0
 10
1019.835033
 20
1293.852463
 42
0.035671
  0
VERTEX
  8
0
 10
1016.016762
 20
1293.514345
 42
0.020663
  0
SEQEND
  0
POLYLINE
  8
0
 66
1
 70
1
  0
VERTEX
  8
0
 10
1365.500000
 20
1292.594266
 42
0.106120
  0
VERTEX
  8
0
 10
1352.104619
 20
1286.061951
 42
0.111386
  0
VERTEX
  8
0
 10
1342.846850
 20
1274.701498
 42
0.112628
  0
VERTEX
  8
0
 10
1339.425631
 20
1260.574379
 42
0.110471
  0
VERTEX
  8
0
 10
1342.429738
 20
1246.252524
 42
0.124369
  0
VERTEX
  8
0
 10
1352.602223
 20
1233.524792
 42
0.117595
  0
VERTEX
  8
0
 10
1367.808422
 20
1226.826251
 42
0.115510
  0
VERTEX
  8
0
 10
1384.623828
 20
1227.653865
 42
0.116912
  0
VERTEX
  8
0
 10
1399.239472
 20
1235.866618
 42
0.108300
  0
VERTEX
  8
0
 10
1407.183672
 20
1247.225156
 42
0.106264
  0
VERTEX
  8
0
 10
1409.720436
 20
1260.945014
 42
0.106572
  0
VERTEX
  8
0
 10
1406.394372
 20
1274.463593
 42
0.109517
  0
VERTEX
  8
0
 10
1397.811565
 20
1285.258074
 42
0.020161
  0
VERTEX
  8
0
 10
1393.845902
 20
1288.214149
 42
0.036548
  0
VERTEX
  8
0
 10
1390.350744
 20
1290.248809
 42
0.037873
  0
VERTEX
  8
0
 10
1386.683375
 20
1291.706835
 42
0.023534
  0
VERTEX
  8
0
 10
1382.200779
 20
1292.878387
 42
0.020721
  0
VERTEX
  8
0
 10
1377.660888
 20
1293.644335
 42
0.035694
  0
VERTEX
  8
0
 10
1373.835033
 20
1293.852463
 42
0.035671
  0
VERTEX
  8
0
 10
1370.016762
 20
1293.514345
 42
0.020663
  0
SEQEND
  0
POLYLINE
  8
0
 66
1
 70
1
  0
VERTEX
  8
0
 10
1060.834202
 20
1284.500869
 42
0.290891
  0
VERTEX
  8
0
 10
1060.742277
 20
1284.088317
 42
0.007551
  0
VERTEX
  8
0
 10
1061.442519
 20
1282.239291
 42
0.013667
  0
VERTEX
  8
0
 10
1062.388218
 20
1280.029973
 42
0.008625
  0
VERTEX
  8
0
 10
1063.605975
 20
1277.502789
 42
-0.016295
  0
VERTEX
  8
0
 10
1064.906200
 20
1274.695140
 42
-0.013563
  0
VERTEX
  8
0
 10
1066.108006
 20
1271.632855
 42
-0.013782
  0
VERTEX
  8
0
 10
1067.055347
 20
1268.767428
 42
-0.035737
  0
VERTEX
  8
0
 10
1067.530344
 20
1266.646217
 42
0.000000
  0
VERTEX
  8
0
 10
1068.183810
 20
1262.288593
 42
0.000000
  0
VERTEX
  8
0
 10
1077.841905
 20
1261.641001
 42
-0.067971
  0
VERTEX
  8
0
 10
1110.314406
 20
1254.967711
 42
-0.034385
  0
VERTEX
  8
0
 10
1148.735456
 20
1238.398298
 42
-0.030660
  0
VERTEX
  8
0
 10
1190.101514
 20
1213.759196
 42
-0.024142
  0
VERTEX
  8
0
 10
1231.726470
 20
1182.326639
 42
0.000000
  0
VERTEX
  8
0
 10
1242.952939
 20
1172.965195
 42
0.000000
  0
VERTEX
  8
0
 10
1245.344215
 20
1176.732597
 42
-0.026678
  0
VERTEX
  8
0
 10
1247.695910
 20
1180.034325
 42
-0.024242
  0
VERTEX
  8
0
 10
1250.458016
 20
1183.178959
 42
-0.025072
  0
VERTEX
  8
0
 10
1253.382652
 20
1185.911527
 42
-0.037310
  0
VERTEX
  8
0
 10
1256.218826
 20
1187.965298
 42
0.000000
  0
VERTEX
  8
0
 10
1258.937651
 20
1189.640298
 42
0.000000
  0
VERTEX
  8
0
 10
1245.718826
 20
1200.680475
 42
0.022971
  0
VERTEX
  8
0
 10
1203.031828
 20
1233.124333
 42
0.031791
  0
VERTEX
  8
0
 10
1161.803311
 20
1257.860393
 42
0.035817
  0
VERTEX
  8
0
 10
1122.451481
 20
1274.741510
 42
0.050866
  0
VERTEX
  8
0
 10
1085.423595
 20
1283.489070
 42
0.010233
  0
VERTEX
  8
0
 10
1077.126461
 20
1284.404452
 42
0.012073
  0
VERTEX
  8
0
 10
1069.244272
 20
1284.919658
 42
0.006279
  0
VERTEX
  8
0
 10
1062.354848
 20
1285.116526
 42
0.203077
  0
SEQEND
  0
POLYLINE
  8
0
 66
1
 70
1
  0
VERTEX
  8
0
 10
1321.000000
 20
1284.374297
 42
-0.001595
  0
VERTEX
  8
0
 10
1319.543149
 20
1284.173131
 42
-0.000265
  0
VERTEX
  8
0
 10
1316.737500
 20
1283.796350
 42
-0.000291
  0
VERTEX
  8
0
 10
1313.437585
 20
1283.356923
 42
-0.000257
  0
VERTEX
  8
0
 10
1310.000000
 20
1282.902996
 42
0.031210
  0
VERTEX
  8
0
 10
1295.170626
 20
1280.002174
 42
0.019326
  0
VERTEX
  8
0
 10
1278.176015
 20
1274.852556
 42
0.017814
  0
VERTEX
  8
0
 10
1259.922643
 20
1267.804394
 42
0.015290
  0
VERTEX
  8
0
 10
1241.246564
 20
1259.132784
 42
0.008872
  0
VERTEX
  8
0
 10
1231.235422
 20
1253.882410
 42
0.005160
  0
VERTEX
  8
0
 10
1219.399659
 20
1247.245157
 42
0.000819
  0
VERTEX
  8
0
 10
1207.222801
 20
1240.223951
 42
0.523724
  0
VERTEX
  8
0
 10
1207.168554
 20
1239.557598
 42
0.014718
  0
VERTEX
  8
0
 10
1207.434397
 20
1239.352253
 42
0.000068
  0
VERTEX
  8
0
 10
1210.277022
 20
1237.287775
 42
0.000321
  0
VERTEX
  8
0
 10
1213.510311
 20
1234.943417
 42
0.000203
  0
VERTEX
  8
0
 10
1217.285139
 20
1232.212445
 42
0.000000
  0
VERTEX
  8
0
 10
1227.070278
 20
1225.139252
 42
0.000000
  0
VERTEX
  8
0
 10
1234.613703
 20
1229.599048
 42
-0.010255
  0
VERTEX
  8
0
 10
1242.911182
 20
1234.277715
 42
-0.008637
  0
VERTEX
  8
0
 10
1251.879170
 20
1238.897015
 42
-0.008232
  0
VERTEX
  8
0
 10
1261.456195
 20
1243.428050
 42
-0.007260
  0
VERTEX
  8
0
 10
1271.584775
 20
1247.841422
 42
-0.014790
  0
VERTEX
  8
0
 10
1285.630739
 20
1253.238195
 42
-0.020532
  0
VERTEX
  8
0
 10
1298.524750
 20
1257.173094
 42
-0.021734
  0
VERTEX
  8
0
 10
1311.090446
 20
1259.873407
 42
-0.020298
  0
VERTEX
  8
0
 10
1324.132614
 20
1261.547003
 42
0.000000
  0
VERTEX
  8
0
 10
1331.765228
 20
1262.212975
 42
0.000000
  0
VERTEX
  8
0
 10
1332.287096
 20
1266.103791
 42
-0.047268
  0
VERTEX
  8
0
 10
1332.937464
 20
1268.909267
 42
-0.017434
  0
VERTEX
  8
0
 10
1334.358750
 20
1272.718402
 42
-0.013253
  0
VERTEX
  8
0
 10
1336.563538
 20
1277.675558
 42
-0.005519
  0
VERTEX
  8
0
 10
1339.788449
 20
1284.250000
 42
0.552740
  0
VERTEX
  8
0
 10
1339.479254
 20
1284.762538
 42
0.002869
  0
VERTEX
  8
0
 10
1332.395328
 20
1284.850057
 42
0.009236
  0
VERTEX
  8
0
 10
1325.620918
 20
1284.769732
 42
0.027526
  0
SEQEND
  0
POLYLINE
  8
0
 66
1
 70
1
  0
VERTEX
  8
0
 10
998.476403
 20
1211.250000
 42
0.019551
  0
VERTEX
  8
0
 10
1000.378289
 20
1191.576124
 42
0.029844
  0
VERTEX
  8
0
 10
1003.702936
 20
1174.755601
 42
0.028189
  0
VERTEX
  8
0
 10
1009.164430
 20
1157.774380
 42
0.015184
  0
VERTEX
  8
0
 10
1017.686131
 20
1137.500000
 42
0.019989
  0
VERTEX
  8
0
 10
1032.051181
 20
1109.096550
 42
0.018980
  0
VERTEX
  8
0
 10
1048.872275
 20
1081.423083
 42
0.018619
  0
VERTEX
  8
0
 10
1068.084365
 20
1054.588893
 42
0.017535
  0
VERTEX
  8
0
 10
1089.611357
 20
1028.699471
 42
0.000000
  0
VERTEX
  8
0
 10
1093.896381
 20
1023.898942
 42
0.000000
  0
VERTEX
  8
0
 10
1095.416826
 20
1026.839160
 42
-0.057661
  0
VERTEX
  8
0
 10
1097.584112
 20
1030.059016
 42
-0.018896
  0
VERTEX
  8
0
 10
1101.468605
 20
1034.267171
 42
-0.016491
  0
VERTEX
  8
0
 10
1105.556276
 20
1038.110540
 42
-0.103946
  0
VERTEX
  8
0
 10
1108.032827
 20
1039.510419
 42
0.118204
  0
VERTEX
  8
0
 10
1108.937139
 20
1040.055750
 42
0.300437
  0
VERTEX
  8
0
 10
1109.088964
 20
1040.771168
 42
0.080041
  0
VERTEX
  8
0
 10
1108.385443
 20
1041.960029
 42
0.006023
  0
VERTEX
  8
0
 10
1105.944340
 20
1044.822432
 42
-0.012637
  0
VERTEX
  8
0
 10
1086.717464
 20
1067.981158
 42
-0.017902
  0
VERTEX
  8
0
 10
1070.898068
 20
1089.594937
 42
-0.018428
  0
VERTEX
  8
0
 10
1057.011406
 20
1111.785311
 42
-0.014687
  0
VERTEX
  8
0
 10
1043.647573
 20
1136.662978
 42
-0.013134
  0
VERTEX
  8
0
 10
1034.559798
 20
1156.102132
 42
-0.024095
  0
VERTEX
  8
0
 10
1028.355825
 20
1172.442359
 42
-0.027597
  0
VERTEX
  8
0
 10
1024.313652
 20
1187.667772
 42
-0.025827
  0
VERTEX
  8
0
 10
1021.864182
 20
1203.586166
 42
0.003717
  0
VERTEX
  8
0
 10
1021.110315
 20
1210.508813
 42
0.040550
  0
VERTEX
  8
0
 10
1020.562239
 20
1213.255411
 42
0.132305
  0
VERTEX
  8
0
 10
1019.799288
 20
1214.525043
 42
0.192701
  0
VERTEX
  8
0
 10
1018.603513
 20
1215.010824
 42
-0.061591
  0
VERTEX
  8
0
 10
1015.365672
 20
1215.428113
 42
-0.021035
  0
VERTEX
  8
0
 10
1010.823485
 20
1216.799713
 42
-0.021477
  0
VERTEX
  8
0
 10
1006.251169
 20
1218.616801
 42
-0.040869
  0
VERTEX
  8
0
 10
1002.785708
 20
1220.523114
 42
0.007084
  0
VERTEX
  8
0
 10
1001.306749
 20
1221.471992
 42
0.009983
  0
VERTEX
  8
0
 10
999.960185
 20
1222.272415
 42
0.006575
  0
VERTEX
  8
0
 10
998.817852
 20
1222.901217
 42
0.123127
  0
VERTEX
  8
0
 10
998.422791
 20
1223.000000
 42
0.412369
  0
VERTEX
  8
0
 10
998.185551
 20
1222.764250
 42
0.002716
  0
VERTEX
  8
0
 10
998.182753
 20
1219.548438
 42
0.008247
  0
VERTEX
  8
0
 10
998.262627
 20
1215.755563
 42
0.004931
  0
SEQEND
  0
POLYLINE
  8
0
 66
1
 70
1
  0
VERTEX
  8
0
 10
1397.978764
 20
1221.003066
 42
-0.058288
  0
VERTEX
  8
0
 10
1394.987600
 20
1219.317653
 42
-0.013577
  0
VERTEX
  8
0
 10
1389.603501
 20
1217.232298
 42
-0.012732
  0
VERTEX
  8
0
 10
1384.142608
 20
1215.441318
 42
-0.072991
  0
VERTEX
  8
0
 10
1381.135626
 20
1215.000000
 42
0.179981
  0
VERTEX
  8
0
 10
1380.093079
 20
1214.612159
 42
0.138867
  0
VERTEX
  8
0
 10
1379.420502
 20
1213.591228
 42
0.049819
  0
VERTEX
  8
0
 10
1378.973779
 20
1211.464099
 42
0.006183
  0
VERTEX
  8
0
 10
1378.524195
 20
1206.750000
 42
-0.023624
  0
VERTEX
  8
0
 10
1376.849523
 20
1193.936124
 42
-0.019383
  0
VERTEX
  8
0
 10
1373.891018
 20
1180.450269
 42
-0.018654
  0
VERTEX
  8
0
 10
1369.750624
 20
1166.677302
 42
-0.017685
  0
VERTEX
  8
0
 10
1364.529030
 20
1153.000000
 42
-0.012207
  0
VERTEX
  8
0
 10
1360.893532
 20
1144.955948
 42
-0.004369
  0
VERTEX
  8
0
 10
1355.331905
 20
1133.663141
 42
-0.004233
  0
VERTEX
  8
0
 10
1349.646655
 20
1122.603487
 42
-0.015021
  0
VERTEX
  8
0
 10
1345.731039
 20
1115.657723
 42
0.000000
  0
VERTEX
  8
0
 10
1342.202171
 20
1109.815447
 42
0.000000
  0
VERTEX
  8
0
 10
1349.191668
 20
1100.157723
 42
0.000536
  0
VERTEX
  8
0
 10
1351.894266
 20
1096.431824
 42
0.000844
  0
VERTEX
  8
0
 10
1354.223233
 20
1093.239594
 42
0.000194
  0
VERTEX
  8
0
 10
1356.272009
 20
1090.443612
 42
0.035410
  0
VERTEX
  8
0
 10
1356.505362
 20
1090.168554
 42
0.497703
  0
VERTEX
  8
0
 10
1357.346640
 20
1090.276114
 42
0.001077
  0
VERTEX
  8
0
 10
1364.718818
 20
1103.215956
 42
0.005967
  0
VERTEX
  8
0
 10
1371.812218
 20
1116.084663
 42
0.008943
  0
VERTEX
  8
0
 10
1377.667714
 20
1127.500000
 42
0.011584
  0
VERTEX
  8
0
 10
1385.836793
 20
1145.176791
 42
0.018370
  0
VERTEX
  8
0
 10
1391.914111
 20
1160.707283
 42
0.020664
  0
VERTEX
  8
0
 10
1396.302292
 20
1175.151614
 42
0.022532
  0
VERTEX
  8
0
 10
1399.338950
 20
1189.500000
 42
0.016759
  0
VERTEX
  8
0
 10
1400.528909
 20
1198.602739
 42
0.009396
  0
VERTEX
  8
0
 10
1401.394986
 20
1209.729455
 42
0.002816
  0
VERTEX
  8
0
 10
1401.993896
 20
1220.964617
 42
0.272684
  0
VERTEX
  8
0
 10
1401.274544
 20
1222.330323
 42
0.198326
  0
VERTEX
  8
0
 10
1400.808657
 20
1222.406466
 42
0.038338
  0
VERTEX
  8
0
 10
1399.977522
 20
1222.143704
 42
0.035477
  0
VERTEX
  8
0
 10
1398.993824
 20
1221.663943
 42
0.026224
  0
SEQEND
  0
POLYLINE
  8
0
 66
1
 70
1
  0
VERTEX
  8
0
 10
1164.878438
 20
1209.335389
 42
0.003275
  0
VERTEX
  8
0
 10
1161.117289
 20
1206.282296
 42
0.002007
  0
VERTEX
  8
0
 10
1156.721565
 20
1202.636387
 42
0.002012
  0
VERTEX
  8
0
 10
1152.399142
 20
1198.992232
 42
0.003585
  0
VERTEX
  8
0
 10
1148.875827
 20
1195.953673
 42
0.000000
  0
VERTEX
  8
0
 10
1141.251654
 20
1189.282559
 42
0.000000
  0
VERTEX
  8
0
 10
1143.930786
 20
1187.699957
 42
-0.039389
  0
VERTEX
  8
0
 10
1146.714737
 20
1185.744649
 42
-0.026228
  0
VERTEX
  8
0
 10
1149.586288
 20
1183.104270
 42
-0.025239
  0
VERTEX
  8
0
 10
1152.304199
 20
1180.032794
 42
-0.027093
  0
VERTEX
  8
0
 10
1154.630678
 20
1176.772369
 42
0.000000
  0
VERTEX
  8
0
 10
1156.996847
 20
1173.044738
 42
0.000000
  0
VERTEX
  8
0
 10
1169.248424
 20
1183.304852
 42
-0.002023
  0
VERTEX
  8
0
 10
1174.360735
 20
1187.551097
 42
-0.001927
  0
VERTEX
  8
0
 10
1179.590162
 20
1191.825246
 42
-0.001910
  0
VERTEX
  8
0
 10
1184.239788
 20
1195.566349
 42
-0.006856
  0
VERTEX
  8
0
 10
1187.250000
 20
1197.902628
 42
0.003415
  0
VERTEX
  8
0
 10
1189.454256
 20
1199.589214
 42
0.005462
  0
VERTEX
  8
0
 10
1191.310937
 20
1201.062843
 42
0.001491
  0
VERTEX
  8
0
 10
1192.901886
 20
1202.362028
 42
0.224414
  0
VERTEX
  8
0
 10
1193.000000
 20
1202.569619
 42
0.243098
  0
VERTEX
  8
0
 10
1192.715106
 20
1203.120955
 42
0.000865
  0
VERTEX
  8
0
 10
1186.506121
 20
1207.508538
 42
0.004775
  0
VERTEX
  8
0
 10
1180.759152
 20
1211.473195
 42
0.015886
  0
VERTEX
  8
0
 10
1176.878438
 20
1213.920144
 42
0.000000
  0
VERTEX
  8
0
 10
1173.256877
 20
1216.045991
 42
0.000000
  0
SEQEND
  0
POLYLINE
  8
0
 66
1
 70
1
  0
VERTEX
  8
0
 10
1266.403561
 20
1186.173006
 42
0.096892
  0
VERTEX
  8
0
 10
1256.475052
 20
1180.409000
 42
0.108268
  0
VERTEX
  8
0
 10
1249.913185
 20
1171.520317
 42
0.110323
  0
VERTEX
  8
0
 10
1247.743417
 20
1160.842301
 42
0.103877
  0
VERTEX
  8
0
 10
1250.239780
 20
1150.000000
 42
0.059122
  0
VERTEX
  8
0
 10
1254.111710
 20
1143.704747
 42
0.081994
  0
VERTEX
  8
0
 10
1259.005294
 20
1139.257488
 42
0.078624
  0
VERTEX
  8
0
 10
1265.233141
 20
1136.497888
 42
0.049828
  0
VERTEX
  8
0
 10
1273.086695
 20
1135.225576
 42
0.035046
  0
VERTEX
  8
0
 10
1278.958655
 20
1135.278582
 42
0.057007
  0
VERTEX
  8
0
 10
1283.846739
 20
1136.233775
 42
0.058775
  0
VERTEX
  8
0
 10
1288.288193
 20
1138.240089
 42
0.040020
  0
VERTEX
  8
0
 10
1292.799162
 20
1141.472098
 42
0.059855
  0
VERTEX
  8
0
 10
1295.648355
 20
1144.533359
 42
0.034650
  0
VERTEX
  8
0
 10
1298.325516
 20
1148.796916
 42
0.034211
  0
VERTEX
  8
0
 10
1300.443741
 20
1153.501909
 42
0.049056
  0
VERTEX
  8
0
 10
1301.603558
 20
1157.922250
 42
0.060940
  0
VERTEX
  8
0
 10
1301.742936
 20
1161.704532
 42
0.035913
  0
VERTEX
  8
0
 10
1301.036250
 20
1166.177624
 42
0.034679
  0
VERTEX
  8
0
 10
1299.636483
 20
1170.737950
 42
0.040913
  0
VERTEX
  8
0
 10
1297.677792
 20
1174.803894
 42
0.085484
  0
VERTEX
  8
0
 10
1293.642865
 20
1179.582100
 42
0.047626
  0
VERTEX
  8
0
 10
1287.353636
 20
1183.920003
 42
0.047544
  0
VERTEX
  8
0
 10
1280.332480
 20
1187.001789
 42
0.083016
  0
VERTEX
  8
0
 10
1274.068499
 20
1187.967354
 42
0.041789
  0
VERTEX
  8
0
 10
1272.743343
 20
1187.839428
 42
0.012548
  0
VERTEX
  8
0
 10
1270.757418
 20
1187.426798
 42
0.012483
  0
VERTEX
  8
0
 10
1268.543180
 20
1186.849786
 42
0.013233
  0
SEQEND
  0
POLYLINE
  8
0
 66
1
 70
1
  0
VERTEX
  8
0
 10
1116.403561
 20
1182.173006
 42
0.096892
  0
VERTEX
  8
0
 10
1106.475052
 20
1176.409000
 42
0.108268
  0
VERTEX
  8
0
 10
1099.913185
 20
1167.520317
 42
0.110323
  0
VERTEX
  8
0
 10
1097.743417
 20
1156.842301
 42
0.103877
  0
VERTEX
  8
0
 10
1100.239780
 20
1146.000000
 42
0.059122
  0
VERTEX
  8
0
 10
1104.111710
 20
1139.704747
 42
0.081994
  0
VERTEX
  8
0
 10
1109.005294
 20
1135.257488
 42
0.078624
  0
VERTEX
  8
0
 10
1115.233141
 20
1132.497888
 42
0.049828
  0
VERTEX
  8
0
 10
1123.086695
 20
1131.225576
 42
0.035046
  0
VERTEX
  8
0
 10
1128.958655
 20
1131.278582
 42
0.057007
  0
VERTEX
  8
0
 10
1133.846739
 20
1132.233775
 42
0.058775
  0
VERTEX
  8
0
 10
1138.288193
 20
1134.240089
 42
0.040020
  0
VERTEX
  8
0
 10
1142.799162
 20
1137.472098
 42
0.059855
  0
VERTEX
  8
0
 10
1145.648355
 20
1140.533359
 42
0.034650
  0
VERTEX
  8
0
 10
1148.325516
 20
1144.796916
 42
0.034211
  0
VERTEX
  8
0
 10
1150.443741
 20
1149.501909
 42
0.049056
  0
VERTEX
  8
0
 10
1151.603558
 20
1153.922250
 42
0.060940
  0
VERTEX
  8
0
 10
1151.742936
 20
1157.704532
 42
0.035913
  0
VERTEX
  8
0
 10
1151.036250
 20
1162.177624
 42
0.034679
  0
VERTEX
  8
0
 10
1149.636483
 20
1166.737950
 42
0.040913
  0
VERTEX
  8
0
 10
1147.677792
 20
1170.803894
 42
0.085484
  0
VERTEX
  8
0
 10
1143.642865
 20
1175.582100
 42
0.047626
  0
VERTEX
  8
0
 10
1137.353636
 20
1179.920003
 42
0.047544
  0
VERTEX
  8
0
 10
1130.332480
 20
1183.001789
 42
0.083016
  0
VERTEX
  8
0
 10
1124.068499
 20
1183.967354
 42
0.041789
  0
VERTEX
  8
0
 10
1122.743343
 20
1183.839428
 42
0.012548
  0
VERTEX
  8
0
 10
1120.757418
 20
1183.426798
 42
0.012483
  0
VERTEX
  8
0
 10
1118.543180
 20
1182.849786
 42
0.013233
  0
SEQEND
  0
POLYLINE
  8
0
 66
1
 70
1
  0
VERTEX
  8
0
 10
1305.590298
 20
1140.284503
 42
-0.105130
  0
VERTEX
  8
0
 10
1304.155292
 20
1137.759638
 42
-0.013609
  0
VERTEX
  8
0
 10
1299.884388
 20
1133.207456
 42
-0.013481
  0
VERTEX
  8
0
 10
1295.372048
 20
1128.892069
 42
-0.107613
  0
VERTEX
  8
0
 10
1292.889440
 20
1127.464910
 42
0.114589
  0
VERTEX
  8
0
 10
1291.548460
 20
1126.669243
 42
0.216229
  0
VERTEX
  8
0
 10
1291.089714
 20
1125.524686
 42
0.148605
  0
VERTEX
  8
0
 10
1291.602039
 20
1124.075210
 42
0.050787
  0
VERTEX
  8
0
 10
1293.115765
 20
1122.404988
 42
-0.034524
  0
VERTEX
  8
0
 10
1296.736847
 20
1118.661306
 42
-0.003352
  0
VERTEX
  8
0
 10
1304.800196
 20
1108.951589
 42
-0.004687
  0
VERTEX
  8
0
 10
1313.119173
 20
1098.599863
 42
-0.008629
  0
VERTEX
  8
0
 10
1319.661167
 20
1090.000000
 42
-0.011083
  0
VERTEX
  8
0
 10
1330.414080
 20
1074.644278
 42
-0.011547
  0
VERTEX
  8
0
 10
1340.324551
 20
1059.033109
 42
-0.011585
  0
VERTEX
  8
0
 10
1349.473948
 20
1043.030210
 42
-0.011324
  0
VERTEX
  8
0
 10
1357.944916
 20
1026.500000
 42
-0.013474
  0
VERTEX
  8
0
 10
1366.201095
 20
1008.207400
 42
-0.022885
  0
VERTEX
  8
0
 10
1371.977406
 20
992.444754
 42
-0.025823
  0
VERTEX
  8
0
 10
1375.807232
 20
977.684018
 42
-0.025303
  0
VERTEX
  8
0
 10
1378.126391
 20
962.506824
 42
0.000000
  0
VERTEX
  8
0
 10
1379.274119
 20
951.185981
 42
0.000000
  0
VERTEX
  8
0
 10
1383.455268
 20
950.558979
 42
-0.035517
  0
VERTEX
  8
0
 10
1385.502540
 20
950.101481
 42
-0.013322
  0
VERTEX
  8
0
 10
1388.297543
 20
949.182989
 42
-0.013120
  0
VERTEX
  8
0
 10
1391.299166
 20
948.017449
 42
-0.015538
  0
VERTEX
  8
0
 10
1394.068208
 20
946.755230
 42
0.000228
  0
VERTEX
  8
0
 10
1396.596510
 20
945.507904
 42
0.000314
  0
VERTEX
  8
0
 10
1398.870974
 20
944.388875
 42
0.000199
  0
VERTEX
  8
0
 10
1400.784394
 20
943.449916
 42
0.003771
  0
VERTEX
  8
0
 10
1401.386172
 20
943.160517
 42
0.565482
  0
VERTEX
  8
0
 10
1402.155584
 20
943.674112
 42
0.002637
  0
VERTEX
  8
0
 10
1401.544836
 20
955.325471
 42
0.008995
  0
VERTEX
  8
0
 10
1400.665074
 20
966.935220
 42
0.015742
  0
VERTEX
  8
0
 10
1399.462201
 20
976.500000
 42
0.015388
  0
VERTEX
  8
0
 10
1397.816597
 20
985.180136
 42
0.013973
  0
VERTEX
  8
0
 10
1395.594051
 20
994.029001
 42
0.013591
  0
VERTEX
  8
0
 10
1392.810785
 20
1002.988380
 42
0.012661
  0
VERTEX
  8
0
 10
1389.483418
 20
1012.000000
 42
0.025414
  0
VERTEX
  8
0
 10
1374.864975
 20
1043.888211
 42
0.020128
  0
VERTEX
  8
0
 10
1355.990516
 20
1076.783885
 42
0.019827
  0
VERTEX
  8
0
 10
1334.157924
 20
1108.641344
 42
0.022245
  0
VERTEX
  8
0
 10
1310.646566
 20
1137.423943
 42
0.005842
  0
VERTEX
  8
0
 10
1307.993748
 20
1140.322832
 42
0.075935
  0
VERTEX
  8
0
 10
1306.847729
 20
1141.224130
 42
0.324004
  0
VERTEX
  8
0
 10
1306.141539
 20
1141.144840
 42
0.132007
  0
SEQEND
  0
POLYLINE
  8
0
 66
1
 70
1
  0
VERTEX
  8
0
 10
1086.873459
 20
1133.856701
 42
0.006135
  0
VERTEX
  8
0
 10
1081.465045
 20
1127.579356
 42
0.003762
  0
VERTEX
  8
0
 10
1075.237411
 20
1120.054998
 42
0.002354
  0
VERTEX
  8
0
 10
1069.427944
 20
1112.858459
 42
0.034892
  0
VERTEX
  8
0
 10
1067.585838
 20
1110.192764
 42
0.273889
  0
VERTEX
  8
0
 10
1067.585372
 20
1108.451089
 42
0.004313
  0
VERTEX
  8
0
 10
1072.921838
 20
1099.609254
 42
0.004462
  0
VERTEX
  8
0
 10
1078.400556
 20
1090.881688
 42
0.255688
  0
VERTEX
  8
0
 10
1080.011986
 20
1090.000000
 42
0.208127
  0
VERTEX
  8
0
 10
1080.455861
 20
1090.193130
 42
0.006541
  0
VERTEX
  8
0
 10
1081.813367
 20
1091.689063
 42
0.011728
  0
VERTEX
  8
0
 10
1083.379063
 20
1093.546463
 42
0.007743
  0
VERTEX
  8
0
 10
1085.094350
 20
1095.750000
 42
-0.007221
  0
VERTEX
  8
0
 10
1087.431162
 20
1098.758443
 42
-0.002012
  0
VERTEX
  8
0
 10
1091.177311
 20
1103.401700
 42
-0.002030
  0
VERTEX
  8
0
 10
1095.459286
 20
1108.622167
 42
-0.002131
  0
VERTEX
  8
0
 10
1099.715359
 20
1113.723874
 42
0.000000
  0
VERTEX
  8
0
 10
1110.001726
 20
1125.947747
 42
0.000000
  0
VERTEX
  8
0
 10
1107.250863
 20
1127.375832
 42
-0.057872
  0
VERTEX
  8
0
 10
1104.757778
 20
1129.061233
 42
-0.013007
  0
VERTEX
  8
0
 10
1100.954052
 20
1132.507151
 42
-0.014151
  0
VERTEX
  8
0
 10
1097.219419
 20
1136.279295
 42
-0.032870
  0
VERTEX
  8
0
 10
1094.698176
 20
1139.356701
 42
0.182816
  0
VERTEX
  8
0
 10
1093.696569
 20
1140.025145
 42
0.213017
  0
VERTEX
  8
0
 10
1092.581830
 20
1139.807393
 42
0.054309
  0
VERTEX
  8
0
 10
1090.871284
 20
1138.303550
 42
0.004414
  0
SEQEND
  0
POLYLINE
  8
0
 66
1
 70
1
  0
VERTEX
  8
0
 10
1036.738938
 20
1065.294635
 42
0.017229
  0
VERTEX
  8
0
 10
1024.549852
 20
1043.395346
 42
0.019357
  0
VERTEX
  8
0
 10
1014.396886
 20
1021.530875
 42
0.020381
  0
VERTEX
  8
0
 10
1006.445531
 20
1000.099026
 42
0.025031
  0
VERTEX
  8
0
 10
1000.867304
 20
979.500000
 42
0.032339
  0
VERTEX
  8
0
 10
999.154487
 20
968.147823
 42
0.018504
  0
VERTEX
  8
0
 10
998.488054
 20
954.300569
 42
0.018464
  0
VERTEX
  8
0
 10
998.836894
 20
940.802485
 42
0.041930
  0
VERTEX
  8
0
 10
1000.326415
 20
930.713123
 42
0.074183
  0
VERTEX
  8
0
 10
1007.493320
 20
912.690108
 42
0.077008
  0
VERTEX
  8
0
 10
1019.539628
 20
897.802348
 42
0.076972
  0
VERTEX
  8
0
 10
1035.531826
 20
887.252575
 42
0.074010
  0
VERTEX
  8
0
 10
1054.181868
 20
881.854106
 42
0.085007
  0
VERTEX
  8
0
 10
1092.712605
 20
883.226251
 42
0.047200
  0
VERTEX
  8
0
 10
1137.767849
 20
897.140438
 42
0.041075
  0
VERTEX
  8
0
 10
1186.323929
 20
922.170907
 42
0.030487
  0
VERTEX
  8
0
 10
1235.500000
 20
957.205980
 42
0.000709
  0
VERTEX
  8
0
 10
1252.043284
 20
970.622289
 42
0.017566
  0
VERTEX
  8
0
 10
1256.472216
 20
974.490716
 42
0.119928
  0
VERTEX
  8
0
 10
1257.675692
 20
976.331605
 42
0.423900
  0
VERTEX
  8
0
 10
1257.112216
 20
977.464384
 42
-0.102933
  0
VERTEX
  8
0
 10
1254.574739
 20
978.892001
 42
-0.017277
  0
VERTEX
  8
0
 10
1250.479031
 20
982.724185
 42
-0.019601
  0
VERTEX
  8
0
 10
1246.587774
 20
986.944295
 42
-0.057170
  0
VERTEX
  8
0
 10
1244.381837
 20
990.228502
 42
0.000000
  0
VERTEX
  8
0
 10
1242.826402
 20
993.236382
 42
0.000000
  0
VERTEX
  8
0
 10
1239.163201
 20
989.737026
 42
-0.013104
  0
VERTEX
  8
0
 10
1237.053351
 20
987.824731
 42
-0.002651
  0
VERTEX
  8
0
 10
1233.201610
 20
984.548633
 42
-0.002795
  0
VERTEX
  8
0
 10
1228.679096
 20
980.786127
 42
-0.002613
  0
VERTEX
  8
0
 10
1224.012493
 20
976.988401
 42
-0.030516
  0
VERTEX
  8
0
 10
1172.908832
 20
940.746271
 42
-0.044494
  0
VERTEX
  8
0
 10
1123.633941
 20
915.906636
 42
-0.053262
  0
VERTEX
  8
0
 10
1080.312727
 20
903.843718
 42
-0.131545
  0
VERTEX
  8
0
 10
1047.745065
 20
906.994194
 42
-0.041428
  0
VERTEX
  8
0
 10
1042.453828
 20
909.490581
 42
-0.029431
  0
VERTEX
  8
0
 10
1036.973008
 20
913.100943
 42
-0.029883
  0
VERTEX
  8
0
 10
1032.123165
 20
917.194865
 42
-0.054693
  0
VERTEX
  8
0
 10
1028.790560
 20
921.145918
 42
-0.034107
  0
VERTEX
  8
0
 10
1025.007716
 20
927.703599
 42
-0.057245
  0
VERTEX
  8
0
 10
1022.885308
 20
933.690695
 42
-0.043934
  0
VERTEX
  8
0
 10
1021.861582
 20
941.034963
 42
-0.012682
  0
VERTEX
  8
0
 10
1021.571166
 20
952.500000
 42
-0.015539
  0
VERTEX
  8
0
 10
1021.952745
 20
964.759917
 42
-0.030269
  0
VERTEX
  8
0
 10
1023.150234
 20
974.469621
 42
-0.026738
  0
VERTEX
  8
0
 10
1025.620235
 20
984.709561
 42
-0.009608
  0
VERTEX
  8
0
 10
1030.187931
 20
999.000000
 42
-0.022292
  0
VERTEX
  8
0
 10
1034.246540
 20
1009.366647
 42
-0.005282
  0
VERTEX
  8
0
 10
1041.959016
 20
1026.258879
 42
-0.005228
  0
VERTEX
  8
0
 10
1050.015286
 20
1042.965513
 42
-0.023202
  0
VERTEX
  8
0
 10
1055.300685
 20
1052.500000
 42
0.000000
  0
VERTEX
  8
0
 10
1057.767264
 20
1056.500000
 42
0.000000
  0
VERTEX
  8
0
 10
1051.133632
 20
1065.682611
 42
0.001239
  0
VERTEX
  8
0
 10
1048.546086
 20
1069.245782
 42
0.001849
  0
VERTEX
  8
0
 10
1046.264164
 20
1072.347612
 42
0.000776
  0
VERTEX
  8
0
 10
1044.297033
 20
1074.992344
 42
0.039317
  0
VERTEX
  8
0
 10
1043.872031
 20
1075.477246
 42
0.456560
  0
VERTEX
  8
0
 10
1043.449936
 20
1075.441685
 42
0.004770
  0
VERTEX
  8
0
 10
1041.517648
 20
1072.738564
 42
0.010826
  0
VERTEX
  8
0
 10
1039.278676
 20
1069.390408
 42
0.006356
  0
SEQEND
  0
POLYLINE
  8
0
 66
1
 70
1
  0
VERTEX
  8
0
 10
1311.880924
 20
1066.233857
 42
-0.003542
  0
VERTEX
  8
0
 10
1308.445957
 20
1061.908951
 42
-0.002285
  0
VERTEX
  8
0
 10
1304.408003
 20
1056.944741
 42
-0.002296
  0
VERTEX
  8
0
 10
1300.414679
 20
1052.126257
 42
-0.004327
  0
VERTEX
  8
0
 10
1297.140320
 20
1048.280155
 42
0.003417
  0
VERTEX
  8
0
 10
1292.644122
 20
1043.018297
 42
0.052763
  0
VERTEX
  8
0
 10
1291.311565
 20
1041.048741
 42
0.228666
  0
VERTEX
  8
0
 10
1291.265100
 20
1039.881968
 42
0.168981
  0
VERTEX
  8
0
 10
1292.153682
 20
1038.917752
 42
-0.052918
  0
VERTEX
  8
0
 10
1295.139073
 20
1036.887872
 42
-0.017307
  0
VERTEX
  8
0
 10
1299.083764
 20
1033.304191
 42
-0.016794
  0
VERTEX
  8
0
 10
1302.737887
 20
1029.498783
 42
-0.063657
  0
VERTEX
  8
0
 10
1304.608624
 20
1026.789944
 42
0.000000
  0
VERTEX
  8
0
 10
1306.063693
 20
1023.976150
 42
0.000000
  0
VERTEX
  8
0
 10
1312.109574
 20
1030.738075
 42
0.007606
  0
VERTEX
  8
0
 10
1318.483412
 20
1038.088842
 42
0.005073
  0
VERTEX
  8
0
 10
1325.568572
 20
1046.691304
 42
0.001176
  0
VERTEX
  8
0
 10
1332.573571
 20
1055.416396
 42
0.170146
  0
VERTEX
  8
0
 10
1333.000000
 20
1056.633242
 42
0.147625
  0
VERTEX
  8
0
 10
1332.610014
 20
1057.925323
 42
0.001252
  0
VERTEX
  8
0
 10
1326.753336
 20
1066.695765
 42
0.000834
  0
VERTEX
  8
0
 10
1320.750264
 20
1075.604745
 42
0.257461
  0
VERTEX
  8
0
 10
1320.007999
 20
1075.983857
 42
0.213011
  0
VERTEX
  8
0
 10
1319.683648
 20
1075.826572
 42
0.001167
  0
VERTEX
  8
0
 10
1317.411121
 20
1073.113136
 42
0.004731
  0
VERTEX
  8
0
 10
1314.838353
 20
1069.966534
 42
0.002953
  0
SEQEND
  0
POLYLINE
  8
0
 66
1
 70
1
  0
VERTEX
  8
0
 10
1115.403561
 20
1035.173006
 42
0.096892
  0
VERTEX
  8
0
 10
1105.475052
 20
1029.409000
 42
0.108268
  0
VERTEX
  8
0
 10
1098.913185
 20
1020.520317
 42
0.110323
  0
VERTEX
  8
0
 10
1096.743417
 20
1009.842301
 42
0.103877
  0
VERTEX
  8
0
 10
1099.239780
 20
999.000000
 42
0.059122
  0
VERTEX
  8
0
 10
1103.111710
 20
992.704747
 42
0.081994
  0
VERTEX
  8
0
 10
1108.005294
 20
988.257488
 42
0.078624
  0
VERTEX
  8
0
 10
1114.233141
 20
985.497888
 42
0.049828
  0
VERTEX
  8
0
 10
1122.086695
 20
984.225576
 42
0.035046
  0
VERTEX
  8
0
 10
1127.958655
 20
984.278582
 42
0.057007
  0
VERTEX
  8
0
 10
1132.846739
 20
985.233775
 42
0.058775
  0
VERTEX
  8
0
 10
1137.288193
 20
987.240089
 42
0.040020
  0
VERTEX
  8
0
 10
1141.799162
 20
990.472098
 42
0.059855
  0
VERTEX
  8
0
 10
1144.648355
 20
993.533359
 42
0.034650
  0
VERTEX
  8
0
 10
1147.325516
 20
997.796916
 42
0.034211
  0
VERTEX
  8
0
 10
1149.443741
 20
1002.501909
 42
0.049056
  0
VERTEX
  8
0
 10
1150.603558
 20
1006.922250
 42
0.060940
  0
VERTEX
  8
0
 10
1150.742936
 20
1010.704532
 42
0.035913
  0
VERTEX
  8
0
 10
1150.036250
 20
1015.177624
 42
0.034679
  0
VERTEX
  8
0
 10
1148.636483
 20
1019.737950
 42
0.040913
  0
VERTEX
  8
0
 10
1146.677792
 20
1023.803894
 42
0.085484
  0
VERTEX
  8
0
 10
1142.642865
 20
1028.582100
 42
0.047626
  0
VERTEX
  8
0
 10
1136.353636
 20
1032.920003
 42
0.047544
  0
VERTEX
  8
0
 10
1129.332480
 20
1036.001789
 42
0.083016
  0
VERTEX
  8
0
 10
1123.068499
 20
1036.967354
 42
0.041789
  0
VERTEX
  8
0
 10
1121.743343
 20
1036.839428
 42
0.012548
  0
VERTEX
  8
0
 10
1119.757418
 20
1036.426798
 42
0.012483
  0
VERTEX
  8
0
 10
1117.543180
 20
1035.849786
 42
0.013233
  0
SEQEND
  0
POLYLINE
  8
0
 66
1
 70
1
  0
VERTEX
  8
0
 10
1266.403561
 20
1033.173006
 42
0.096892
  0
VERTEX
  8
0
 10
1256.475052
 20
1027.409000
 42
0.108268
  0
VERTEX
  8
0
 10
1249.913185
 20
1018.520317
 42
0.110323
  0
VERTEX
  8
0
 10
1247.743417
 20
1007.842301
 42
0.103877
  0
VERTEX
  8
0
 10
1250.239780
 20
997.000000
 42
0.059122
  0
VERTEX
  8
0
 10
1254.111710
 20
990.704747
 42
0.081994
  0
VERTEX
  8
0
 10
1259.005294
 20
986.257488
 42
0.078624
  0
VERTEX
  8
0
 10
1265.233141
 20
983.497888
 42
0.049828
  0
VERTEX
  8
0
 10
1273.086695
 20
982.225576
 42
0.035046
  0
VERTEX
  8
0
 10
1278.958655
 20
982.278582
 42
0.057007
  0
VERTEX
  8
0
 10
1283.846739
 20
983.233775
 42
0.058775
  0
VERTEX
  8
0
 10
1288.288193
 20
985.240089
 42
0.040020
  0
VERTEX
  8
0
 10
1292.799162
 20
988.472098
 42
0.059855
  0
VERTEX
  8
0
 10
1295.648355
 20
991.533359
 42
0.034650
  0
VERTEX
  8
0
 10
1298.325516
 20
995.796916
 42
0.034211
  0
VERTEX
  8
0
 10
1300.443741
 20
1000.501909
 42
0.049056
  0
VERTEX
  8
0
 10
1301.603558
 20
1004.922250
 42
0.060940
  0
VERTEX
  8
0
 10
1301.742936
 20
1008.704532
 42
0.035913
  0
VERTEX
  8
0
 10
1301.036250
 20
1013.177624
 42
0.034679
  0
VERTEX
  8
0
 10
1299.636483
 20
1017.737950
 42
0.040913
  0
VERTEX
  8
0
 10
1297.677792
 20
1021.803894
 42
0.085484
  0
VERTEX
  8
0
 10
1293.642865
 20
1026.582100
 42
0.047626
  0
VERTEX
  8
0
 10
1287.353636
 20
1030.920003
 42
0.047544
  0
VERTEX
  8
0
 10
1280.332480
 20
1034.001789
 42
0.083016
  0
VERTEX
  8
0
 10
1274.068499
 20
1034.967354
 42
0.041789
  0
VERTEX
  8
0
 10
1272.743343
 20
1034.839428
 42
0.012548
  0
VERTEX
  8
0
 10
1270.757418
 20
1034.426798
 42
0.012483
  0
VERTEX
  8
0
 10
1268.543180
 20
1033.849786
 42
0.013233
  0
SEQEND
  0
POLYLINE
  8
0
 66
1
 70
1
  0
VERTEX
  8
0
 10
1154.273935
 20
987.970819
 42
-0.033792
  0
VERTEX
  8
0
 10
1152.705363
 20
985.916560
 42
-0.019397
  0
VERTEX
  8
0
 10
1150.560956
 20
983.653473
 42
-0.019315
  0
VERTEX
  8
0
 10
1148.218915
 20
981.536770
 42
-0.030340
  0
VERTEX
  8
0
 10
1146.036693
 20
979.926837
 42
0.006644
  0
VERTEX
  8
0
 10
1142.860987
 20
977.808613
 42
0.096325
  0
VERTEX
  8
0
 10
1141.917509
 20
976.849561
 42
0.277917
  0
VERTEX
  8
0
 10
1141.881324
 20
976.008598
 42
0.077362
  0
VERTEX
  8
0
 10
1142.717349
 20
974.916963
 42
0.017325
  0
VERTEX
  8
0
 10
1147.180504
 20
970.937526
 42
0.001574
  0
VERTEX
  8
0
 10
1158.680071
 20
961.439372
 42
0.000470
  0
VERTEX
  8
0
 10
1171.209542
 20
951.176437
 42
0.077840
  0
VERTEX
  8
0
 10
1172.733087
 20
950.283819
 42
0.234853
  0
VERTEX
  8
0
 10
1174.272843
 20
950.417710
 42
0.002679
  0
VERTEX
  8
0
 10
1183.306416
 20
955.999097
 42
0.002548
  0
VERTEX
  8
0
 10
1192.307443
 20
961.691240
 42
0.255823
  0
VERTEX
  8
0
 10
1193.000000
 20
962.956242
 42
0.217544
  0
VERTEX
  8
0
 10
1192.837084
 20
963.312966
 42
0.002325
  0
VERTEX
  8
0
 10
1190.734842
 20
965.117423
 42
0.006810
  0
VERTEX
  8
0
 10
1188.244666
 20
967.177060
 42
0.004313
  0
VERTEX
  8
0
 10
1185.288825
 20
969.513097
 42
-0.004569
  0
VERTEX
  8
0
 10
1181.621738
 20
972.414292
 42
-0.002083
  0
VERTEX
  8
0
 10
1176.880564
 20
976.268893
 42
-0.002062
  0
VERTEX
  8
0
 10
1171.917836
 20
980.372418
 42
-0.002836
  0
VERTEX
  8
0
 10
1167.493416
 20
984.104411
 42
0.000000
  0
VERTEX
  8
0
 10
1157.409182
 20
992.708821
 42
0.000000
  0
SEQEND
  0
POLYLINE
  8
0
 66
1
 70
1
  0
VERTEX
  8
0
 10
1222.500000
 20
937.583395
 42
-0.004672
  0
VERTEX
  8
0
 10
1220.930593
 20
936.391601
 42
-0.001429
  0
VERTEX
  8
0
 10
1218.536161
 20
934.618937
 42
-0.001430
  0
VERTEX
  8
0
 10
1215.843641
 20
932.649323
 42
-0.001564
  0
VERTEX
  8
0
 10
1213.218848
 20
930.753273
 42
0.000000
  0
VERTEX
  8
0
 10
1206.937695
 20
926.245843
 42
0.000000
  0
VERTEX
  8
0
 10
1214.218848
 20
921.745757
 42
0.019419
  0
VERTEX
  8
0
 10
1237.745825
 20
908.438610
 42
0.020103
  0
VERTEX
  8
0
 10
1261.968374
 20
897.161560
 42
0.021320
  0
VERTEX
  8
0
 10
1285.216981
 20
888.599064
 42
0.034161
  0
VERTEX
  8
0
 10
1305.738245
 20
883.534603
 42
0.019840
  0
VERTEX
  8
0
 10
1314.983679
 20
882.288390
 42
0.009331
  0
VERTEX
  8
0
 10
1327.008144
 20
881.377024
 42
0.002844
  0
VERTEX
  8
0
 10
1339.282035
 20
880.746852
 42
0.565647
  0
VERTEX
  8
0
 10
1339.842100
 20
881.589048
 42
0.002503
  0
VERTEX
  8
0
 10
1339.543748
 20
882.210316
 42
0.000128
  0
VERTEX
  8
0
 10
1338.567531
 20
884.216012
 42
0.000205
  0
VERTEX
  8
0
 10
1337.405403
 20
886.599641
 42
0.000148
  0
VERTEX
  8
0
 10
1336.109597
 20
889.252696
 42
-0.014334
  0
VERTEX
  8
0
 10
1334.808063
 20
892.121063
 42
-0.012977
  0
VERTEX
  8
0
 10
1333.626501
 20
895.155213
 42
-0.013122
  0
VERTEX
  8
0
 10
1332.710677
 20
897.926609
 42
-0.039917
  0
VERTEX
  8
0
 10
1332.291435
 20
899.863859
 42
0.000000
  0
VERTEX
  8
0
 10
1331.773906
 20
903.722324
 42
0.000000
  0
VERTEX
  8
0
 10
1323.636953
 20
904.355553
 42
-0.039086
  0
VERTEX
  8
0
 10
1303.799027
 20
907.471479
 42
-0.026356
  0
VERTEX
  8
0
 10
1281.806840
 20
913.953543
 42
-0.024452
  0
VERTEX
  8
0
 10
1258.724418
 20
923.393750
 42
-0.021358
  0
VERTEX
  8
0
 10
1235.579310
 20
935.438216
 42
0.005897
  0
VERTEX
  8
0
 10
1232.466223
 20
937.182578
 42
0.008496
  0
VERTEX
  8
0
 10
1229.668276
 20
938.646182
 42
0.005022
  0
VERTEX
  8
0
 10
1227.293595
 20
939.807730
 42
0.122699
  0
VERTEX
  8
0
 10
1226.579310
 20
939.953043
 42
0.104074
  0
VERTEX
  8
0
 10
1225.986612
 20
939.801145
 42
0.016994
  0
VERTEX
  8
0
 10
1224.935797
 20
939.237589
 42
0.018084
  0
VERTEX
  8
0
 10
1223.727716
 20
938.476108
 42
0.015063
  0
SEQEND
  0
POLYLINE
  8
0
 66
1
 70
1
  0
VERTEX
  8
0
 10
1366.500000
 20
938.594266
 42
0.106120
  0
VERTEX
  8
0
 10
1353.104619
 20
932.061951
 42
0.111386
  0
VERTEX
  8
0
 10
1343.846850
 20
920.701498
 42
0.112628
  0
VERTEX
  8
0
 10
1340.425631
 20
906.574379
 42
0.110471
  0
VERTEX
  8
0
 10
1343.429738
 20
892.252524
 42
0.124369
  0
VERTEX
  8
0
 10
1353.602223
 20
879.524792
 42
0.117595
  0
VERTEX
  8
0
 10
1368.808422
 20
872.826251
 42
0.115510
  0
VERTEX
  8
0
 10
1385.623828
 20
873.653865
 42
0.116912
  0
VERTEX
  8
0
 10
1400.239472
 20
881.866618
 42
0.108300
  0
VERTEX
  8
0
 10
1408.183672
 20
893.225156
 42
0.106264
  0
VERTEX
  8
0
 10
1410.720436
 20
906.945014
 42
0.106572
  0
VERTEX
  8
0
 10
1407.394372
 20
920.463593
 42
0.109517
  0
VERTEX
  8
0
 10
1398.811565
 20
931.258074
 42
0.020161
  0
VERTEX
  8
0
 10
1394.845902
 20
934.214149
 42
0.036548
  0
VERTEX
  8
0
 10
1391.350744
 20
936.248809
 42
0.037873
  0
VERTEX
  8
0
 10
1387.683375
 20
937.706835
 42
0.023534
  0
VERTEX
  8
0
 10
1383.200779
 20
938.878387
 42
0.020721
  0
VERTEX
  8
0
 10
1378.660888
 20
939.644335
 42
0.035694
  0
VERTEX
  8
0
 10
1374.835033
 20
939.852463
 42
0.035671
  0
VERTEX
  8
0
 10
1371.016762
 20
939.514345
 42
0.020663
  0
SEQEND
  0
POLYLINE
  8
0
 66
1
 70
1
  0
VERTEX
  8
0
 10
636.461830
 20
827.750000
 42
0.090743
  0
VERTEX
  8
0
 10
636.267241
 20
826.695246
 42
0.000024
  0
VERTEX
  8
0
 10
636.201510
 20
779.720312
 42
0.000459
  0
VERTEX
  8
0
 10
636.178953
 20
727.629174
 42
0.000279
  0
VERTEX
  8
0
 10
636.243215
 20
666.000000
 42
0.000000
  0
VERTEX
  8
0
 10
636.500000
 20
505.500000
 42
0.000000
  0
VERTEX
  8
0
 10
668.250000
 20
505.235953
 42
0.000000
  0
VERTEX
  8
0
 10
700.000000
 20
504.971906
 42
0.000000
  0
VERTEX
  8
0
 10
700.000000
 20
559.985953
 42
0.000000
  0
VERTEX
  8
0
 10
700.000000
 20
615.000000
 42
0.000000
  0
VERTEX
  8
0
 10
774.500000
 20
615.000000
 42
0.000000
  0
VERTEX
  8
0
 10
849.000000
 20
615.000000
 42
0.000000
  0
VERTEX
  8
0
 10
849.000000
 20
560.000000
 42
0.000000
  0
VERTEX
  8
0
 10
849.000000
 20
505.000000
 42
0.000000
  0
VERTEX
  8
0
 10
881.000000
 20
505.000000
 42
0.000000
  0
VERTEX
  8
0
 10
913.000000
 20
505.000000
 42
0.000000
  0
VERTEX
  8
0
 10
913.000000
 20
667.014047
 42
0.000000
  0
VERTEX
  8
0
 10
913.000000
 20
829.028094
 42
0.000000
  0
VERTEX
  8
0
 10
881.250000
 20
828.764047
 42
0.000000
  0
VERTEX
  8
0
 10
849.500000
 20
828.500000
 42
0.000000
  0
VERTEX
  8
0
 10
849.243942
 20
749.750000
 42
0.000000
  0
VERTEX
  8
0
 10
848.987884
 20
671.000000
 42
0.000000
  0
VERTEX
  8
0
 10
774.493942
 20
671.000000
 42
0.000000
  0
VERTEX
  8
0
 10
700.000000
 20
671.000000
 42
0.000000
  0
VERTEX
  8
0
 10
700.000000
 20
750.000000
 42
0.000000
  0
VERTEX
  8
0
 10
700.000000
 20
829.000000
 42
0.000000
  0
VERTEX
  8
0
 10
668.468615
 20
829.000000
 42
0.001715
  0
VERTEX
  8
0
 10
652.607429
 20
828.945608
 42
0.008044
  0
VERTEX
  8
0
 10
643.488305
 20
828.736320
 42
0.005787
  0
VERTEX
  8
0
 10
637.381066
 20
828.426976
 42
0.294384
  0
SEQEND
  0
POLYLINE
  8
0
 66
1
 70
1
  0
VERTEX
  8
0
 10
1375.000000
 20
667.000000
 42
0.000000
  0
VERTEX
  8
0
 10
1375.000000
 20
505.000000
 42
0.000000
  0
VERTEX
  8
0
 10
1408.000000
 20
505.000000
 42
0.000000
  0
VERTEX
  8
0
 10
1441.000000
 20
505.000000
 42
0.000000
  0
VERTEX
  8
0
 10
1441.000000
 20
667.000000
 42
0.000000
  0
VERTEX
  8
0
 10
1441.000000
 20
829.000000
 42
0.000000
  0
VERTEX
  8
0
 10
1408.000000
 20
829.000000
 42
0.000000
  0
VERTEX
  8
0
 10
1375.000000
 20
829.000000
 42
0.000000
  0
SEQEND
  0
POLYLINE
  8
0
 66
1
 70
1
  0
VERTEX
  8
0
 10
1492.000000
 20
800.503584
 42
0.000000
  0
VERTEX
  8
0
 10
1492.000000
 20
772.000000
 42
0.000000
  0
VERTEX
  8
0
 10
1542.996351
 20
772.000000
 42
0.000000
  0
VERTEX
  8
0
 10
1593.992702
 20
772.000000
 42
0.000000
  0
VERTEX
  8
0
 10
1594.246351
 20
638.750000
 42
0.000000
  0
VERTEX
  8
0
 10
1594.500000
 20
505.500000
 42
0.000000
  0
VERTEX
  8
0
 10
1627.250000
 20
505.236336
 42
0.000000
  0
VERTEX
  8
0
 10
1660.000000
 20
504.972671
 42
0.000000
  0
VERTEX
  8
0
 10
1660.000000
 20
638.486336
 42
0.000000
  0
VERTEX
  8
0
 10
1660.000000
 20
772.000000
 42
0.000000
  0
VERTEX
  8
0
 10
1712.015573
 20
772.000000
 42
0.000000
  0
VERTEX
  8
0
 10
1764.031147
 20
772.000000
 42
0.000000
  0
VERTEX
  8
0
 10
1763.765573
 20
800.250000
 42
0.000000
  0
VERTEX
  8
0
 10
1763.500000
 20
828.500000
 42
0.000000
  0
VERTEX
  8
0
 10
1627.750000
 20
828.753584
 42
0.000000
  0
VERTEX
  8
0
 10
1492.000000
 20
829.007167
 42
0.000000
  0
SEQEND
  0
POLYLINE
  8
0
 66
1
 70
1
  0
VERTEX
  8
0
 10
954.000000
 20
753.551589
 42
0.089716
  0
VERTEX
  8
0
 10
954.068492
 20
753.172947
 42
0.000005
  0
VERTEX
  8
0
 10
967.048971
 20
718.468092
 42
0.000206
  0
VERTEX
  8
0
 10
981.388945
 20
680.177712
 42
0.000124
  0
VERTEX
  8
0
 10
998.422029
 20
634.787542
 42
-0.000007
  0
VERTEX
  8
0
 10
1015.604365
 20
589.032357
 42
-0.000010
  0
VERTEX
  8
0
 10
1030.429342
 20
549.550565
 42
-0.000003
  0
VERTEX
  8
0
 10
1043.340274
 20
515.163492
 42
-0.000344
  0
VERTEX
  8
0
 10
1045.003225
 20
510.725019
 42
0.000000
  0
VERTEX
  8
0
 10
1047.162391
 20
504.950039
 42
0.000000
  0
VERTEX
  8
0
 10
1062.656609
 20
505.225019
 42
0.000000
  0
VERTEX
  8
0
 10
1078.150828
 20
505.500000
 42
0.000000
  0
VERTEX
  8
0
 10
1110.723534
 20
582.250000
 42
-0.000635
  0
VERTEX
  8
0
 10
1123.256521
 20
611.677133
 42
-0.001055
  0
VERTEX
  8
0
 10
1133.904809
 20
636.446542
 42
-0.000048
  0
VERTEX
  8
0
 10
1143.554705
 20
658.757816
 42
-0.311672
  0
VERTEX
  8
0
 10
1143.898120
 20
658.972271
 42
-0.287194
  0
VERTEX
  8
0
 10
1144.239891
 20
658.735747
 42
-0.000080
  0
VERTEX
  8
0
 10
1151.497423
 20
641.849895
 42
-0.001339
  0
VERTEX
  8
0
 10
1159.515017
 20
623.048747
 42
-0.000808
  0
VERTEX
  8
0
 10
1168.922894
 20
600.722271
 42
0.000084
  0
VERTEX
  8
0
 10
1178.854638
 20
577.056867
 42
0.000092
  0
VERTEX
  8
0
 10
1188.500598
 20
554.094980
 42
0.000085
  0
VERTEX
  8
0
 10
1196.760062
 20
534.453071
 42
0.000458
  0
VERTEX
  8
0
 10
1201.274418
 20
523.750000
 42
0.000000
  0
VERTEX
  8
0
 10
1209.203048
 20
505.000000
 42
0.000000
  0
VERTEX
  8
0
 10
1224.652551
 20
505.000000
 42
0.000000
  0
VERTEX
  8
0
 10
1240.102053
 20
505.000000
 42
0.000000
  0
VERTEX
  8
0
 10
1241.599505
 20
508.583905
 42
0.009452
  0
VERTEX
  8
0
 10
1244.296469
 20
515.397972
 42
0.000017
  0
VERTEX
  8
0
 10
1287.648589
 20
631.297235
 42
0.000008
  0
VERTEX
  8
0
 10
1331.627288
 20
748.889211
 42
0.019937
  0
VERTEX
  8
0
 10
1332.733576
 20
752.250000
 42
0.439294
  0
VERTEX
  8
0
 10
1332.098375
 20
753.286746
 42
0.034212
  0
VERTEX
  8
0
 10
1328.487035
 20
753.740062
 42
0.013099
  0
VERTEX
  8
0
 10
1321.215435
 20
753.960311
 42
0.001021
  0
VERTEX
  8
0
 10
1301.779532
 20
754.000000
 42
0.000000
  0
VERTEX
  8
0
 10
1270.325801
 20
754.000000
 42
0.000000
  0
VERTEX
  8
0
 10
1244.031229
 20
683.250000
 42
-0.000469
  0
VERTEX
  8
0
 10
1233.900075
 20
656.068570
 42
-0.000768
  0
VERTEX
  8
0
 10
1225.257824
 20
633.055957
 42
-0.000065
  0
VERTEX
  8
0
 10
1217.473457
 20
612.432188
 42
-0.092407
  0
VERTEX
  8
0
 10
1217.046056
 20
611.727727
 42
-0.553091
  0
VERTEX
  8
0
 10
1216.606937
 20
611.802769
 42
-0.000163
  0
VERTEX
  8
0
 10
1208.207674
 20
632.190494
 42
-0.001900
  0
VERTEX
  8
0
 10
1198.878584
 20
655.103197
 42
-0.001129
  0
VERTEX
  8
0
 10
1187.927727
 20
682.472679
 42
0.000000
  0
VERTEX
  8
0
 10
1159.500000
 20
753.989904
 42
0.000000
  0
VERTEX
  8
0
 10
1143.500000
 20
753.982166
 42
0.000000
  0
VERTEX
  8
0
 10
1127.500000
 20
753.974428
 42
0.000000
  0
VERTEX
  8
0
 10
1099.088457
 20
682.482090
 42
-0.000883
  0
VERTEX
  8
0
 10
1088.153506
 20
655.107309
 42
-0.001482
  0
VERTEX
  8
0
 10
1078.858822
 20
632.154610
 42
-0.000096
  0
VERTEX
  8
0
 10
1070.467005
 20
611.618111
 42
-0.535985
  0
VERTEX
  8
0
 10
1070.118673
 20
611.547994
 42
-0.107394
  0
VERTEX
  8
0
 10
1069.779536
 20
612.075432
 42
-0.000044
  0
VERTEX
  8
0
 10
1062.074598
 20
632.709461
 42
-0.000676
  0
VERTEX
  8
0
 10
1053.543555
 20
655.656646
 42
-0.000411
  0
VERTEX
  8
0
 10
1043.518502
 20
682.803118
 42
0.000000
  0
VERTEX
  8
0
 10
1017.476573
 20
753.500000
 42
0.000000
  0
VERTEX
  8
0
 10
985.738287
 20
753.764047
 42
0.001407
  0
VERTEX
  8
0
 10
973.568223
 20
753.831055
 42
0.002347
  0
VERTEX
  8
0
 10
963.323122
 20
753.810557
 42
0.000222
  0
VERTEX
  8
0
 10
954.192327
 20
753.745380
 42
0.411995
  0
SEQEND
  0
ENDSEC
  0
EOF
